<?xml version="1.0" encoding="utf-8"?>
<!-- Generator: Adobe Illustrator 28.1.0, SVG Export Plug-In . SVG Version: 6.00 Build 0)  -->
<svg version="1.1" id="圖層_1" xmlns="http://www.w3.org/2000/svg" xmlns:xlink="http://www.w3.org/1999/xlink" x="0px" y="0px"
	 viewBox="0 0 1280 1280" style="enable-background:new 0 0 1280 1280;" xml:space="preserve">
<path d="M642,685.6c543.2,0,543.2-146.3,543.2-326.7s0-326.8-543.2-326.8S98.8,178.4,98.8,358.9S98.8,685.6,642,685.6z M108.4,358.9
	C108.4,265.1,210.9,189,642,189c435.5,0,533.7,76,533.7,169.8S1077.5,528.7,642,528.7C210.9,528.8,108.4,452.7,108.4,358.9
	L108.4,358.9z"/>
<path d="M739.5,354.7c-52.9-3.1-94.9-48.3-94.9-103.9h-5.3c0,55.4-42,100.7-94.9,103.9H337.6v8.5h206.9
	c52.9,3.1,94.9,48.4,94.9,103.9h5.3c0-55.4,42-100.7,94.8-103.9h206.9v-8.5H739.5z"/>
<path d="M1170.8,935.7h49.5v-8.1c-90.8,0-164.4-46.6-164.4-104.1h-8.6c0,56.9-72,103.1-161.5,104c0.5-57.1,48.6-103.2,107.7-103.2
	v-8.1c-59.5,0-107.8-46.6-107.8-104.1h-5.6c0,57.5-48.3,104.1-107.8,104.1H515.9c-59.5,0-107.8-46.6-107.8-104.1h-5.6
	c0,57.5-48.2,104.1-107.8,104.1v8.1c59.2,0,107.2,46.1,107.7,103.2c-89.4-1-161.5-47.2-161.5-104h-8.6
	c0,57.5-73.6,104.1-164.4,104.1v8.1h516.6c0,0,137.3,0,156.8,60.3c14.9,46-33.8,75.2-47.3,82.3l-3.3,1.6l0,0
	c-46.7,23.5-92.2,49.4-136.3,77.5c-138.5,88.4-204.5-36.6-225.7-91.2c-1.8-8-4.4-15.7-7.7-23.2v-0.2l0,0
	c-29.8-66.7-108-96.6-174.7-66.8c-66.7,29.8-96.6,108-66.8,174.7c10.9,24.5,29.1,45.1,52,59l0,0l0.6,0.3c8.1,4.9,16.8,8.9,25.8,11.9
	c59.1,23.5,211.3,62.6,396.1-54.7c319-202.5,373.8-44.9,380-21.7c0.2,0.9,0.4,1.8,0.6,2.7l0,0l0,0c18.3,70.7,90.5,113.2,161.2,94.9
	c70.7-18.3,113.2-90.5,94.9-161.2c-8.3-32-28.2-59.7-55.9-77.7l0,0l-0.2-0.1c-1.8-1.2-3.6-2.3-5.4-3.3c-9.1-6.3-25.1-20.9-17.6-42
	C1120.1,935.7,1158,935.7,1170.8,935.7z M772.5,824.4c25.3-0.1,49.8,8.6,69.4,24.5c5,8.1,7.6,17.4,7.6,26.9v0.4
	c0,28.4-23,51.4-51.4,51.4H490.2c-28.3,0-51.3-23-51.3-51.3v-0.4c0-9.5,2.6-18.8,7.5-26.9c19.6-15.9,44.2-24.6,69.5-24.5
	L772.5,824.4z"/>
</svg>
