<svg id="Layer_1" enable-background="new 0 0 300 300" height="512" viewBox="0 0 300 300" width="512" xmlns="http://www.w3.org/2000/svg"><g id="App_Updates"><g><path d="m93.8405991 187.4081573c.4433594 6.5712891-1.402832 13.3637695-3.8813477 18.7885742-1.887207-8.9829102-3.9204102-18.265625-10.3457031-25.8623047 1.8037109 7.0507813 3.4482422 14.3725586 3.2329102 21.519043-1.6967773-3.0742188-2.4711914-6.4594727-2.1860352-9.8007813-1.2538376 3.8112793-1.3148651 7.831665-.5361328 10.6176758-1.7321777-3.9313202-4.1652222-7.362915-8.1552734-9.6005859 1.7524414 5.6899414 3.7460938 8.5141602 3.3701172 16.2285156-2.2172852-4.9301758-6.921875-9.1494141-12.8720665-11.5439453 5.9132576 6.5468292 7.2706795 11.1281586 9.5214806 18.4648438-1.140625.1479492-2.2807617.3071289-3.4194336.4892578-1.9008789.3046875-1.0942383 3.1958008.7978516 2.8930664 29.2090149-4.679245 37.2698364 5.6717682 44.4052734-1.921875 1.3212891-1.40625-.7958984-3.5322266-2.1210938-2.121582-2.0429688 2.1738281-4.71875 2.3476563-7.4536133 1.9770508.8427734-5.0029297 3.9296875-9.762207 8.6176758-13.2382813-4.0712891 1.2861328-7.6967773 3.3881836-10.5205078 6.0126953 1.5364532-3.0883789 2.0406723-7.1292114 1.6083984-10.6279297-.3598633 3.1572266-1.6630859 6.2397461-3.7382813 8.9633789.5571289-3.2836914 1.0332031-6.5859375 1.206543-9.8666992.2587891-4.8911133 3.2709961-11.4116211 1.019043-18.4438477.6342773 6.5253906-3.972168 17.0410156-6.1606445 23.5053711.1948241-4.5815429-.1923829-8.0146484-2.3891602-16.4316406z"/><path d="m279.0608215 165.0038605c-5.3378906-4.7558594-9.9765625-10.2041016-14.6088867-15.6313477-.3974609-.4658203-.8803711-.5688477-1.3164063-.4482422-27.4082031-5.1547852-54.84375-10.1630859-82.2861328-15.1328125 4.5380859-3.0756836 8.4428711-7.1870041 11.3525391-12.1796799.4199219-.7207031.1459961-1.6142578-.5380859-2.0522461-3.7875977-2.4238281-8.0859375-4.0737305-11.8100586-6.5898438-.671875-.4541016-1.6640625-.1264648-2.0522461.5380859-.0498047.0849609-.1044922.1625977-.1547852.2460938-1.9760742-.7661133-3.7011719-1.105957-5.7045898-1.9199219-10.9404449 10.6476364-29.4324188 7.0761032-34.5224609-2.0634766 4.3505859-1.8847656 8.8925781-3.324707 13.2255859-5.2504883.1337891-1.3466797.2675781-2.6933594.4013672-4.0400391.0283203-.0151367.0585938-.0249023.0869141-.0400391.965332-.515625.9892578-2.0810547 0-2.590332-10.1796875-5.2402344-20.3598633-10.4799805-30.5400467-15.7197266-.7915039-.4077148-1.5332031-.1347656-2.0522461.5380859-.7959213 1.0309677-14.2695923 29.3617477-14.8398438 30.5498047-.1347656.2807617-.1723633.5541992-.1499023.8105469-.6791992 1.0175781.1142578 2.7758789 1.59375 2.3129883.0683594-.0214844.1357422-.0454102.2041016-.0668945 1.6899414.8212891 3.3793945 1.6425781 5.0693359 2.4638672 3.6904297-1.2880859 7.2998047-2.6152344 10.9750977-3.9106445 1.628418 3.3105469 3.7290039 6.4365234 6.1708984 9.2993164-30.4604492-5.5424805-60.9106445-11.1420898-91.3295898-16.9086914-.831543-.1577148-1.4526367.3164063-1.7255859.9262695-4.3251953 3.5898438-8.6494141 7.1801758-12.9741211 10.7700195-.6669922.237793-1.1972656.8769531-.9814453 1.7617188.8022461 3.293457 1.6914063 6.5644531 2.5043945 9.8549728-.1772461.7104492.1005859 1.4819336 1.0317383 1.6386719 47.492672 7.9775391 94.8110352 16.9213867 142.1552734 25.7255859.2197266 2.644043.1147461 5.3007813.0927734 7.9541016-4.1777344-4.9760742-11.2226563-7.34375-17.796875-6.6088867-.0063477.0004883-.0117188-.0004883-.0180664.0004883-.0058594.0004883-.0117188.0024414-.0180664.0029297-4.1701202.4698792-8.4396667 2.7204742-11.4526367 6.6855469-.0756836-2.418457-.1611328-4.8369141-.1357422-7.2592773.0205078-1.9311523-2.9794922-1.9326172-3 0-.0444336 4.2412109.2509766 8.4711914.2290039 12.7114258-.9868164 2.9038086-1.3129883 6.0717773-.8359375 9.2133789 1.6918335 11.1451263 12.3852692 18.8676605 23.4204102 15.3344727 8.5880127-.1977997 15.8327484-5.6457367 19.0419922-13.3388672 2.9003906-6.9536133 3.3061523-14.2626953 3.7607422-22.2338867 28.3018494 5.240036 45.7674255 8.4186401 71.2167969 12.8388672-.0517578 5.5180664-3.5200195 13.5239258-5.2333984 18.5849609.1640625-3.8588867-.1621094-6.7504883-2.012207-13.840332.3730469 5.5351563-1.1816406 11.2563477-3.2695313 15.8256836-1.5898438-7.5664063-3.3022461-15.3852539-8.7143555-21.7841797 1.5195313 5.9389648 2.9042969 12.105957 2.7236328 18.1259766-1.4296875-2.5898438-2.081543-5.440918-1.8417969-8.2553711-1.0576172 3.2151794-1.1060638 6.598175-.4516602 8.9433594-1.4595795-3.3144836-3.5110626-6.2030182-6.8691406-8.0869141 1.4760742 4.7929688 3.1552734 7.171875 2.8383789 13.6694336-1.8671875-4.152832-5.8300781-7.706543-10.8417969-9.7236328 3.6789551 4.0742035 6.4428406 8.9826813 7.6855469 14.375.0351563.1513672.0913086.355957.1557617.5786133-2.0522461-.362793-4.0571289-.8701172-5.9726563-1.6098633-1.8022461-.6958008-2.5825195 2.2036133-.7973633 2.8925781 6.2087555 2.3974457 39.767334 5.9751282 48.2915039.6762695 1.6362305-1.0170898.1318359-3.6137695-1.5141602-2.590332-3.7807617 2.3500977-8.2392578 2.7807617-12.7431641 2.6289063.637207-4.3198242 3.2636719-8.4453125 7.3032227-11.4404297-3.4296875 1.0834961-6.4833984 2.8540039-8.8618164 5.0649414 1.2993469-2.6111298 1.717514-6.0169067 1.3544922-8.9521484-.3032227 2.6635742-1.4042969 5.2636719-3.1567383 7.5600586.4702148-2.7695313.878418-5.5537109 1.0249023-8.3208008.2021484-3.8251953 2.3979492-8.8339844 1.1938477-14.2719727 7.2119141 1.2519531 14.4238281 2.5 21.6420898 3.7133789.6601563.5473633 1.6791992.6015625 2.1323242-.3881836 1.4453125-3.15625 3.034668-6.2446289 4.4799805-9.4008789.1447526-.316803.4627152-1.5448761-.2348556-2.1660156zm-16.402832-13.1269532c3.6279297 4.2504883 7.2753906 8.4960938 11.2636719 12.4091797-83.9481506-14.2128601-163.5985107-30.6551208-248.2270508-44.9418869 3.6225586-3.0073242 7.2451172-6.0141602 10.8676758-9.0214844 31.4746056 5.9624023 62.9824181 11.7504883 94.5004883 17.4799805 13.7983856 13.0990982 31.5267639 15.6278915 45.8574219 8.3134689 28.5937499 5.175293 57.180664 10.3886719 85.7377929 15.7607422zm-142.3442459-66.5214767c8.8540115 4.5576172 17.7080154 9.1147461 26.5620193 13.6723633-4.4092712 1.5646057-12.4891815 3.0130005-14.3999023 5.0161133-.3452148.3623047-.5732422.9633789-.3857422 1.4594727 3.5224609 9.3208008 10.8984375 16.8588867 20.5878906 19.6948242 10.0527344 2.9428635 20.9824219-.2202148 26.8676758-8.8691406 2.9926758 1.8349609 6.2602539 3.2548828 9.2963867 5.0268555-19.7025299 30.80233-58.773941 12.1100693-66.7290115-12.6899414-.3242188-1.0112305-1.296875-1.28125-2.2036133-.8964844-4.112793 1.7451172-8.2929688 3.2905273-12.5283203 4.6938477 12.5211868-26.0785448 10.5229721-23.4589616 12.9326172-27.1079103zm16.3422928 96.6074142c-1.3899994-5.3117218.447464-9.7853241.4677734-9.9228516 2.2740326-6.529892 6.1157532-8.3847809 11.6435547-9.8520508.0048828-.0004883.0092773 0 .0146484-.0004883 7.0458984-.9799805 15.3466797 2.6508789 17.6416016 9.7978516 2.546875 7.9301758-1.8603516 17.6181641-9.5727539 20.7060547-8.7583008 3.5063477-17.8666992-1.8320312-20.1948242-10.7285156z"/><path d="m158.3332825 173.9569855c.7871094 1.7592773 3.3730469.2348633 2.5908203-1.5141602-1.6430664-3.6723633-5.0444336-6.0732422-9.0126953-6.5263672-1.9145508-.21875-1.8989258 2.7832031 0 3 2.9453125.3364258 5.2451172 2.4086914 6.421875 5.0405274z"/><path d="m211.6428528 76.8056259c-2.2563477-.496582-4.4204102-1.453125-6.3120117-2.8359375-2.9677734 1.4179688-6.3203125 2.5458984-9.5517578 3.2719727-6.3261719-11.6171875-18.4160156-20.7509766-31.140625-23.0830078-15.7646484-2.8896484-31.3623047 4.4677734-39.1914139 18.4116211-.4052734.7211914-.1601563 1.6166992.5380859 2.0522461 3.8046951 2.371582 8.1909256 3.8911133 11.8955154 6.4091797.6640625.4516602 1.6738281.1308594 2.0527344-.5380859.1552734-.2744141.3212891-.534668.4853516-.796875 2.2714844.6225586 4.2539063.7832031 6.6367188 1.5834961 4.3376617-7.8816833 20.2339478-11.5821075 32.9511719 3.2421875-3.9106445 1.4003906-7.8486328 2.8369141-11.7504883 4.2260742-.2910156 1.3618164-.581543 2.7241211-.8725586 4.0864258-.1884766.0908203-.3837891.168457-.5664063.2705078-.9389648.5234375-1.015625 2.0874023 0 2.590332 10.2543945 5.0776367 20.5087891 10.1552734 30.7631836 15.2329102.7910156.3920898 1.5361328.1499023 2.0522461-.5380859.7734528-1.0310135 13.8486938-29.5871964 14.3974609-30.7739258.1337891-.2885742.1669922-.5698242.1376953-.8325195.5348511-.8167955.4687348-2.9826204-2.5249023-1.9785158zm-13.8129883 30.9067383c-8.9189453-4.4165039-17.8374023-8.8330078-26.7563477-13.2490234 4.8790894-1.8188553 12.3720245-3.0967941 14.3115234-5.2314453.3344727-.3681641.5830078-.9594727.3857422-1.4594727-8.9451752-22.6895599-36.5176086-26.9013557-47.6015625-10.1098633-2.9936523-1.8129883-6.3129883-3.1474609-9.3706055-4.8666992 7.6831055-12.4233398 22.2104492-18.6816406 36.6381836-15.4204102 13.2539063 2.9960938 25.9101563 13.9707031 30.2583008 27.0322266.331543.9960938 1.2919922 1.2978516 2.203125.8959961 4.1000977-1.8061523 8.2563477-3.4277344 12.4775391-4.9003906-12.1072387 26.1801452-10.1814422 23.6255493-12.5458984 27.309082z"/><path d="m149.3347473 184.6884308c-5.0102539-.8500977-7.3588867-5.6738281-5.7270508-10.3222656.640625-1.8251953-2.2568359-2.6098633-2.8930664-.7973633-2.1328125 6.0756836 1.2880859 12.9038086 7.8222656 14.012207 1.8886719.3203125 2.7001954-2.5703125.7978516-2.8925781z"/><path d="m159.5456848 182.7284698c.2875977-.7319336-.3154297-1.6782227-1.0478516-1.8452148-.862793-.1962891-1.5371094.2636719-1.8452148 1.0478516.1363068-.3467102-.1872711.8602905-1.512207 1.4848633-.7329102.3447266-.9208984 1.3974609-.5380859 2.0522461.4394531.7509766 1.3164063.8842773 2.0522461.5380859 1.3920898-.6547852 2.3388671-1.8730469 2.8911132-3.2778321z"/><path d="m120.8576889 208.4706573c-1.7822266.6884766-1.0078125 3.590332.7973633 2.8930664 11.7392654-4.5351563 24.9336014-2.5834961 34.6914139 5.4448242 1.4794922 1.2172852 3.6137695-.8935547 2.1210938-2.121582-10.5522462-8.6816406-24.8154298-11.1586914-37.609871-6.2163086z"/><path d="m160.7497864 232.9345245c23.1899414-11.6870117 50.8530273-12.2729492 74.4990234-1.515625 1.7441406.793457 3.2709961-1.7910156 1.5141602-2.590332-24.6860352-11.2304688-53.300293-10.6938477-77.5273438 1.515625-1.7246094.8691406-.2075195 3.4580078 1.5141602 2.590332z"/><path d="m95.5930405 179.6498566c-20.2299805-10.1782227-44.4003868-9.6875-64.1748047 1.3706055-1.6855469.9423828-.1743164 3.534668 1.5141602 2.590332 18.8012695-10.5141602 41.8940392-11.0571289 61.1464806-1.3706055 1.7202186.8657227 3.2412146-1.7216797 1.5141639-2.590332z"/><path d="m185.5393372 232.8974152c-.9418945.2099609-.543457 1.65625.3984375 1.4467773 8.7158203-1.9394531 17.4389648-2.3505859 26.2929688-1.2788086.956543.1152344.9477539-1.3857422 0-1.5-9.0039063-1.0898437-17.8471681-.6357422-26.6914063 1.3320313z"/><path d="m68.4030991 181.3134308c-2.6650391.3491211-5.329586.6982422-7.9941368 1.046875-.9433594.1240234-.9555664 1.6254883 0 1.5 2.6645508-.3486328 5.3290977-.6977539 7.9941368-1.046875.9433593-.1235352.9555664-1.6254883 0-1.5z"/><path d="m129.1843567 219.3119659c-.8852539.3764648-.1220703 1.6694336.7573242 1.2954102 3.4384766-1.4633789 7.1831055-1.0209961 10.2597656 1.0493164.8027344.5405273 1.5546875-.7587891.7568359-1.2954102-3.559082-2.3945312-7.849121-2.7197265-11.7739257-1.0493164z"/><path d="m118.5481186 244.5751495c1.2006836 1.6347656 3.6259766 1.6904297 5.4536133 1.7998047 2.8125.168457 6.2475662.1948242 8.9282303-.8481445 3.4604492-1.3461914 3.4775391-4.9375.453125-6.8803711-4.0288086-2.5874023-9.4257889-1.3359375-12.8266678 1.625-.1601563.1396484-.222168.2998047-.2319336.4580078-1.7182617-.2519531-3.1342774 1.9975586-1.7763672 3.8457031zm3.0688476-3.243164c6.154808-5.3580475 15.6445999-.9736633 11.455574 2.4980469-1.347168 1.1166992-4.1206055.9819336-5.7426834 1.0620117-1.8314819.0910034-2.7870636.0163269-3.8818359-.050293-1.7412109.3242188-2.6889648-.4501953-2.8442383-2.3222656.6796875.6870117 1.7402344-.3735352 1.0605469-1.0610352-.0356445-.0356445-.0717773-.0585938-.1074219-.0917969.0195313-.0146484.0410157-.0175781.0600586-.0346679z"/><path d="m206.5974426 196.3222198c1.9335938-2.6191406-1.3115234-5.128418-3.628418-5.7011719-3.7518616-.9275208-7.8975067.4587555-10.0634766 2.5473633-.0073242.0058594-.0151367.0063477-.0224609.0126953-2.355957 2.0043945-.4980469 4.5541992 1.9677734 4.9873047 2.9541017.5180665 9.6191407 1.0356446 11.7465821-1.8461914zm-12.6538086-2.0805664c2.6048431-2.1978302 7.0352631-3.3999634 9.8291016-1.7216797 1.7216797 1.0341797 1.715332 3.3491211-.1689453 3.8793945-1.9458923.5479279-4.9473114.5826416-7.1831055.449707-1.7246094.2709962-2.550293-.5981444-2.4770508-2.6074218z"/><path d="m116.2155991 173.7250519c1.9335938-2.6191406-1.3115234-5.128418-3.6279297-5.7011719-3.4648438-.8564453-7.3710938.1806641-10.0322266 2.5053711-.0146484.0131836-.0180664.0283203-.03125.0419922-.0073242.0058594-.015625.0063477-.0229492.0126953-2.355957 2.0039063-.4975586 4.5541992 1.9682617 4.9868164 2.9541016.5185547 9.6186524 1.0361328 11.7460938-1.8457031zm-12.6533204-2.0805664c.0151367-.0131836.0185547-.0283203.0322266-.0419922.0073242-.0058594.0146484-.0063477.0219727-.012207 2.3208008-2.0283203 6.9067383-3.3901367 9.7749023-1.6674805 1.7216797 1.0341797 1.715332 3.3486328-.1694336 3.8793945-1.9393692.5460968-4.9369431.5834198-7.1826172.449707-1.7250976.2705079-2.5507812-.5986328-2.4770508-2.6074218z"/></g></g></svg>