<svg id="Layer_1" enable-background="new 0 0 300 300" height="512" viewBox="0 0 300 300" width="512" xmlns="http://www.w3.org/2000/svg"><g id="Best_Seller"><g><path d="m45.1313934 186.9923096c.0014648.0058594.0014648.0097656.003418.015625 3.8691406 11.7841797 14.2739258 19.5634766 25.9858398 22.1591797 4.1005859 17.8183594 8.0981445 35.6582031 11.9541016 53.53125.1171875.5410156.4414063.8554688.8310547.9921875.0576172.0917969.1279297.1816406.2124023.2685547.1674805.1738281.3452148.328125.515625.4960938 4.6897507 11.5584106 18.9324341 19.3031616 39.7675781 10.3535156 13.1259613-5.6196289 24.6119537-15.6127319 51.9697266-33.9296875 11.8198242-7.9199219 23.840332-15.9501953 35.5-24.109375 1.25-3.1708984 3.590332-7.4902344 3.25-10.8505859-.0581055-.0966797-.1264648-.1748047-.2036133-.2353516.1328125-.1542969.2270508-.3232422.2836914-.5.2182617-.3095703.3271484-.7080078.2363281-1.1728516-4.0009766-20.5654297-8.1347656-41.1044922-12.3222656-61.6328125 8.765625-.3232422 16.6757813 4.8740234 22.2827148 11.2421875 28.5142975 32.3851471.7110138 68.2318878-37.8540039 87.9335938-1.5112152.7719727-.4592896 2.7695007.8505859 3.1259766 4.7734375 1.3037109 9.7612305 1.6005859 14.6464844.90625-.4042969 5.6347656-2.6552734 11.4550781-6.6772461 15.4013672-1.1738281 1.1523438.0854492 2.7001953 1.4594727 2.5078125 1.5683594-.2197266 3.1147461-.5634766 4.6401367-1 5.3745117.9111328 12.9858398-3.1523438 17.1162109-5.8369141 17.5550537-11.4075623 30.1008148-25.9035034 37.9873199-45.203125 15.2991943-37.4412079 2.446991-91.6515121-38.4111481-95.5527267-6.9160156-.6611328-14.1064453-.1748047-21.2138672 1.1630859-2.1699219-10.5957031-4.331543-21.1933594-6.4780273-31.7949219.2353516-.1083984.4541016-.2802734.6293945-.5439453 9.0258789-13.5478516 20.2714844-25.2802773 31.5605469-36.932621.8789063-.9072266.2675781-2.5986328-1.0605469-2.5605469-6.3227539.1777344-12.3125 1.4189453-18.1220703 3.7138672 1.1088867-5.7490234 2.6865234-11.3417969 4.7573242-16.8447266.4882813-1.2978516-1.1420898-2.265625-2.2036133-1.6943359-8.7539063 4.7080078-15.6079102 11.8056641-22.8164063 18.5039063-.6572266-3.3476563-1.3212891-6.6933594-1.9707031-10.0419922-.1074219-.5527344-.4321289-.8701172-.8256836-1.0029297-.4145508-.4443359-1.0517578-.6240234-1.7070313-.1601563-1.6220703 1.1474609-3.2441406 2.2958984-4.8671875 3.4433594-.0395508-.0068359-.0703125-.0244141-.1137695-.0253906-9.3037109-.2421875-18.5722656-1.21875-26.46875-6.5410156-.3383789-.2285156-.6606445-.1210938-.8686523.1103516.1010742-.2470703.1459961-.5283203.097168-.8427734-.434082-2.7949219-.8681641-5.5908203-1.3022461-8.3857422-.0371094-.2392578-.1157227-.4355469-.2236328-.5927734.4125977-.2509766.8193359-.5107422 1.2329102-.7607422 1.6494141-.9980469.1430664-3.59375-1.5141602-2.5898438-15.1108398 9.1464844-29.8393555 18.8544922-44.6279297 28.5058594-15.1694334 9.9003904-32.4350584 18.0253942-44.0288084 32.3906286-4.0234375 4.9853516-7.5161133 11.1982422-4.5371094 17.5419922 2.8759766 6.125 8.9980469 10.2412109 15.8212891 9.3984375 2.9697266-.3671875 5.7504883-1.5302734 8.4360352-2.8378906-.1953125.3027344-.2822266.6875-.175293 1.1367188 2.237793 9.3925781 4.4960938 18.78125 6.7519531 28.1699142-.8165207.1708679-11.3366852 11.2456055-25.6572266 2.6142578-1.5458984-6.6289063-3.0864258-13.2587814-4.6123047-19.8915939-.4321289-1.8808594-3.3256836-1.0849609-2.8925781.796875.7705078 3.3505859 1.550293 6.6992188 2.3271484 10.0478439-7.2070313 9.8330078-14.9091797 20.5107422-16.1352539 33.0117188-.8657226 8.8271484 1.9404298 18.6416015 8.784668 24.5849609zm47.7226563-11.2773438c-6.4156647 3.77771-16.6566925 9.4654694-23.7099609 11.7285156-2.1259766-9.0888672-4.2612305-18.1757813-6.3950195-27.2626953 8.5195313 3.2451172 18.1020508 1.3251953 25.4414063-3.9785156 1.5576171 6.5039063 3.1206053 13.0058594 4.6635741 19.5126953zm-27.5820313 8.3476563c-9.4936523-1.0283203-7.25-12.3291016-4.6411133-19.7861328 1.5488282 6.5957031 3.0961915 13.1904296 4.6411133 19.7861328zm-15.7001953 5.8935547c16.3374023 7.9126129 43.7535706-10.405304 59.6230469-21.0517578.7836914.2832031 1.6005859.4521484 2.4316406.5019531-1.8789063 2.0488281-2.6962891 4.8740234-2.1728516 7.6435547.9251862 4.9043579 5.7022095 8.0553131 10.3808594 7.0527344-.6086884 2.0567474-.4612427 4.3121338.5356445 6.3779297-35.6165771 27.3462829-62.4888114 16.1159667-70.7983398-.5244141zm150.5488281-47.2841797c4.1586914 20.3837891 8.2617188 40.7783203 12.2387695 61.1972656-4.1567383 2.8144531-8.3305664 5.6035156-12.5126953 8.3798828-7.0170898-11.0869141-14.0102539-22.1884766-20.9208984-33.3408203-.3339844-.9648438-.8447266-1.8496094-1.4829102-2.6425781 5.9904785 1.0401917 11.1290588-4.3217468 9.9941406-10.3535156-.4858398-2.5595703-2.0180664-4.7109375-4.2207031-6.0009766 4.9967346-1.9148254 7.1925507-7.9777832 4.3017578-12.8251953 4.0317384-2.0214844 8.216797-3.7314453 12.6025391-4.4140625zm-13.2993164 70.9130859c2.1235352 1.1074219 4.2856445 2.0957031 6.4926758 2.9775391-2.5229492 1.6611328-5.0458984 3.3212891-7.5732422 4.9736328.3945313-2.6464844.8588868-5.288086 1.0805664-7.9511719zm11.3012696 1.5488281c-4.1308594-1.3798828-8.0888672-3.1337891-11.9140625-5.2900391-.9980469-.5625-2.2407227.1503906-2.2573242 1.2949219-.0615234 4.2216797-.9863281 8.3662109-1.5043945 12.5458984-.0009766.0009766-.0024414.0019531-.003418.0019531-5.9970703-9.7519531-10.8154297-20.2021484-16.234375-30.2998047.3497467-1.3524933.3706818-2.7147064.1225586-3.9277344 4.9094391 2.8674011 10.9454041.3985291 12.6450195-4.8027344 6.3383789 10.1865236 12.7280273 20.3408205 19.1459961 30.4775392zm-46.90625-1.7216797c-.6977539-1.2226563-2.2841797-.7734375-2.7416992.3583984-2.3198242 5.7402344-4.9853516 11.2939453-7.96875 16.6982422-.5336914-10.0351563-1.0664063-20.0712891-1.5991211-30.1064453 4.3667603 2.2982941 9.7011871.5096588 11.847168-3.9394531 1.2817383 1.7578125 3.1601563 2.9589844 5.2587891 3.3945313 1.7026367 9.40625 3.4042969 18.8125 5.1030273 28.2197266-3.6718751-4.6113282-6.9604493-9.4765626-9.8994141-14.6250001zm12.5815429-82.5458984c1.0473633.6708984 2.027832 1.4121094 2.9541016 2.2041016l-.0522461.1123047.1142578-.0566406c12.3221893 10.602356 13.8340912 31.2815857 3.4492188 43.6142578-10.3383789 12.2773438-31.3916016 16.0058594-43.8745117 4.8554688-13.9946289-12.5-13.6865234-35.0869141-2.1040039-49.1542969 9.7583007-10.3408128 28.3208007-8.7402268 39.5131835-1.5751954zm-41.7041015 62.0439453c3.2436523 3.242691 8.5081482 3.5489655 12.0776367.2353516.1243744 1.6716614.6984711 3.1952057 1.5893555 4.4599609.6723633 12.6816406 1.3461914 25.3623047 2.0205078 38.0439453.0771484 1.4541016 2.0083008 2.0800781 2.7954102.7568359 3.6259766-6.0996094 6.7753906-12.4111328 9.5512695-18.9248047 3.6293945 6.0029297 7.7587891 11.6230469 12.402832 16.9082031 1.0766602 1.2255859 2.7490234-.1171875 2.5068359-1.4589844-1.9873047-11.0068359-3.9785156-22.0136719-5.9711914-33.0195313 2.2834778-.3545074 4.1859741-1.528717 5.5112305-3.2021484 5.0576172 9.5761719 9.6767578 19.4082031 15.3520508 28.6162109-21.2641602 13.8574219-42.6303711 27.5585938-63.6787109 41.7441406-4.1889648-20.8076172-8.7470703-41.5371094-13.5024414-62.2216797 6.8662109-3.1093748 13.3076171-7.3300779 19.3452148-11.9374998zm-22.1469727 13.1367188c1.8530273 8.0625 3.6669922 16.1347656 5.4501953 24.2119141-.1074219.0380859-.2163086.0878906-.3261719.15625-8.6113281 5.359375-18.8295898 4.7001953-26.4975586-1.9609375-1.4052734-6.2392578-2.8154297-12.4775391-4.2475586-18.7109375 8.5934296 1.1907043 17.5357667-.4572144 25.6210938-3.6962891zm6.1225586 27.2529297c.996582 4.5410156 1.9741211 9.0869141 2.9423828 13.6347656-7.9404297 5.2617188-17.8125 5.6708984-26.1357422.8964844-1.0917969-4.9648438-2.1733398-9.9316406-3.284668-14.8925781 8.0517579 5.1933593 17.9536134 5.4189452 26.4780274.3613281zm3.6132813 16.774414c1.3085938 6.1933594 2.59375 12.3916016 3.840332 18.5976563-17.8244781 4.6820068-26.8858566-6.6644592-27.6274414-7.0996094-.7172852-3.3222656-1.4619141-6.6386719-2.1884766-9.9589844 8.3950196 3.8398438 18.0639649 3.3222656 25.975586-1.5390625zm116.7915039-99.7167969c-5.9458008-6.2597656-14.1152344-11.1972656-22.987793-10.9921875-.7270508.0175781-1.4472656.0722656-2.1640625.1455078-.0039063 0-.0073242-.0019531-.0112305-.0019531-.0029297 0-.0063477 0-.0097656 0-.1425781 0-.2709961.0205078-.3925781.0507813-5.3886719.6269531-10.4921875 2.7324219-15.3881836 5.2119141-1.3369141-1.0800781-2.9560547-1.7490234-4.6547852-1.9150391 4.1715088-3.8641968 3.6306152-10.6077728-1.0175781-13.8183594-1.3549805-.9365234-2.9033203-1.4501877-4.4970703-1.5302658 16.5436249-7.7143326 27.3500977-8.0488281 27.3500977-8.0488281 9.8198242 1.8105469 20.3701172 7.7802734 26.0102539 16.0205002 5.6396484 8.25 8.4897461 18.1494141 9.4794922 28.0898438.375 3.7773438.4824219 7.5751953.4228516 11.3720703-1.544922-9.0986329-5.6518556-17.7529298-12.1396485-24.5839845zm-25.1455078 109.3242188c3.1474609-4.6132813 4.7890625-10.4003906 4.7973633-15.8769531.0014648-1.0302734-.9555664-1.6328125-1.8989258-1.4462891-3.9516602.7841797-8.0356445.7910156-11.9985352.0957031 45.2726898-24.9355011 65.1502838-75.3706055 60.0253906-100.2363281 27.0977631 44.2680054-18.2574463 108.2804108-50.9252929 117.4638672zm-15.9975586-207.7246056c6.3828125-5.8613281 12.3945313-12.1533203 19.6665039-16.8554688-1.7275391 5.1884766-3.0380859 10.4658203-3.9311523 15.8916016-.2207031 1.3408203.9658203 2.2587891 2.2036133 1.6943359 5.0063477-2.2832031 10.1567383-3.6542969 15.5424805-4.1972656-10.0537111 10.4238282-19.8979493 21.048832-28.1142579 33.0068398-1.9682617-9.7431641-3.9125977-19.4912148-5.8344727-29.2441444.1601563-.0664063.3178711-.1582032.4672852-.2958985zm-122.609375 28.5087929c11.2753906-12.0019531 26.8720703-19.3750038 40.5112305-28.2841835 13.2939453-8.6835938 26.5615234-17.3769531 40.0922852-25.6835938.421875 2.7167969.8442383 5.4335938 1.2661133 8.1513672.1123047.7236328.6005859 1.0527344 1.1459961 1.0810547-26.3485489 14.9515419-51.2730408 30.4637032-74.734375 49.6474648-6.6111221 5.4058685-12.0927467 9.8002548-11.8901367 18.3066406-8.6489259-7.2636719-2.8388673-16.3564453 3.6088866-23.21875zm-.7421875 25.0585938c19.0063477-18.1162109 39.65625-34.3613281 61.7436523-48.5615273.8095703-.5205078.0581055-1.8193359-.7568359-1.2949219-22.137207 14.2314491-42.8442383 30.5117226-61.9018555 48.6601601-.9052734-2.453125.2319336-6.2099609 1.6137695-8.4560547 2.421875-3.9345703 6.4633789-7.0693359 10.0058594-9.9394531 23.8940735-19.3602829 48.19841-34.431076 75.2905273-49.7519569 2.9399414 1.9072266 6.0668945 3.2568359 9.3139648 4.2021484-30.2431641 21.1855469-59.9208984 43.1640663-90.1757813 64.3310547-.7851563.5498047-.0366211 1.8505859.7568359 1.2958984 30.6259766-21.4277344 60.6582031-43.6884804 91.2866211-65.1132813.0053711-.0039063.0073242-.0097656.0126953-.0136719 4.4267578 1.0771484 9.0405273 1.5029297 13.6694336 1.6806641-27.8125 19.6552734-55.8579102 39.1181679-85.8789063 55.2822304-6.7758787 3.647461-17.0502927 11.1640625-24.9799802 7.678711zm16.2250976.2685546c14.8645325-7.5304108 28.4750671-15.4057999 43.0913086-24.6376953 19.9140625-12.5791016 39.1645508-26.166996 58.3857422-39.7705116 4.9477539 25.4580116 10.1240234 50.8710976 15.3261719 76.2783203-8.0087891 1.7783203-15.8378906 4.6152344-22.9785156 8.1240234.0708008-.8095703.0415039-1.6289063-.1118164-2.4335938-1.4096527-7.4683533-10.7224274-9.6798096-15.3442383-4.046875-.3019867-5.3947296-5.2539673-9.2102051-10.3891602-8.2324219-3.5097656.6679688-6.1787109 3.3808594-6.890625 6.8496094-1.7797852-3.4023438-5.6074219-5.3164063-9.3886719-4.5996094-2.3007813.4375-4.2900391 1.7548828-5.6025391 3.7089844-1.2431641 1.8515625-1.7265625 4.0644531-1.3955078 6.2792969-6.4372101-2.8822784-13.3860779 2.7841263-12.0615234 9.7431564.2436523 1.2841797.7519531 2.4414063 1.4838867 3.4628906-5.8833389-.1991425-9.9241562 5.0991364-8.9135742 10.4677734.4804688 2.5224609 1.9863281 4.6767578 4.1582031 5.9736328-5.1806259 3.1298981-5.6526947 10.3630676-1.2402344 14.2607422-3.5419922 2.3574219-7.1318359 4.6621094-10.7822266 6.8779297-5.3198242-22.4238281-10.7519531-44.8203125-16.09375-67.2382736-.1699218-.7138632-.6938475-1.0390585-1.2529296-1.0673789zm5.8427735 33.0830002c1.1328125 4.7158203 2.2539063 9.4355469 3.3847656 14.1523438-8.4394836 6.8297424-15.4414749 6.5840607-25.5263672 3.5585938-1.1152344-4.7519531-2.2265625-9.5048828-3.3374023-14.2578125 8.5043945 3.9843749 18.1166992 2.7138671 25.4790039-3.4531251zm-24.5620118 20.5214844c-.5698471.5260162-6.0030441 11.6257477-3.6547852 19.5029297.5751953 1.9296875 1.5439453 3.5908203 2.8129883 4.9101563-1.5551758-1.1464844-3.1132813-2.5126953-4.0444336-3.8574219-2.7314453-3.9423828-4.4077148-7.1601563-5.7612305-11.7617188-2.2285156-7.5761719-3.8305664-17.3662109-2.1269531-25.1748047 2.059082-3.3740234 4.3574219-6.6181641 6.6601563-9.7802734 2.0273438 8.7226562 4.0673828 17.4423828 6.1142578 26.1611328z"/><path d="m123.9980927 160.772583c2.5864258 11.4853516 14.1137695 19.3662109 25.753418 16.7285156 12.15242-2.7537537 18.2932434-15.8997955 16.0761719-25.6699219-2.6796875-11.9433594-14.2084961-20.5869141-26.597168-17.2988281-11.3393555 3.0097657-17.7553712 15.0390625-15.2324219 26.2402344zm38.9370117-8.1445312c1.4257813 9.4697266-3.6494141 19.2919922-13.300293 21.8251953-10.1694336 2.6708984-20.628418-4.3339844-22.7441406-14.4785156-1.9672852-9.4355469 3.0356445-19.4248047 12.4780273-22.3496094 11.0644531-3.4267578 21.1992188 4.4550781 23.5664063 15.0029297z"/><path d="m152.1582489 163.3272705c-.9790039.3642578-1.9580078.7285156-2.9370117 1.0927734-1.8413086-6.5771484-3.6826172-13.1533203-5.5244141-19.7294922-.3676758-1.3134766-2.0263672-1.3886719-2.7416992-.3583984-2.0849609 3.0039063-4.1699219 6.0078125-6.2548828 9.0117188-1.1030273 1.5898438 1.4960938 3.0908203 2.5908203 1.5136719 1.4575195-2.0996094 2.9150391-4.1992188 4.3725586-6.2998047 1.5786133 5.6376953 3.1572266 11.2744141 4.7358398 16.9111328-.9682617.3603516-1.9370117.7207031-2.9052734 1.0810547-1.793457.6669922-1.0170898 3.5673828.7978516 2.8925781 2.8876953-1.0742188 5.7758789-2.1484375 8.6635742-3.2226563 1.793457-.6669922 1.0175781-3.5673828-.7973633-2.8925781z"/></g></g></svg>