<svg id="Layer_1" enable-background="new 0 0 300 300" height="512" viewBox="0 0 300 300" width="512" xmlns="http://www.w3.org/2000/svg"><g id="Best_Seller_1_"><g><path d="m241.2956696 105.208313c.0056-1.4498978.3430481-28.8933029 1.171875-30.0283203.5756836-.7890625-.0327148-1.9785156-.8964844-2.203125-6.8779297-1.7871094-13.7558594-3.5751953-20.6333008-5.3623047 2.7492523-1.5995102 2.6450653-1.5013657 2.7373047-1.6796875 1.8763428-3.6017036 5.0116119-7.1025314 7.1264648-10.8886719.0458984-.0253906.0917969-.0517578.1376953-.078125 1.0439453-.5898438.9511719-2.5234375-.3583984-2.7412109-5.1928711-.8632813-10.4174805-.9394531-15.6176758-.5l3.5083008-13.4882813c.1708984-.2216797.340332-.4433594.5112305-.6650391.7988281-1.0302734.1210938-3.0996094-1.4589844-2.5068359-14.1259766 5.296875-27.6098633 13.0263672-40.3662109 21.0361328-1.2885742-.3623047-2.5878906-.6103516-3.8125-.4052734-3.7363281.6279297-7.8300781 2.4726563-11.4770508 3.5732422-17.6160431 5.3213577-80.2079392 24.2139969-114.0542031 34.4355469-.6186523.1875-1.1201172.7792969-1.1015625 1.4472656.1240234 4.4921875.1992188 8.9892578.2548828 13.4873047-.1002846.0950851-34.9736748 38.5261993-23.5410156 62.8515625 4.1733398 10.5058594 12.2460938 19.3212891 21.3740234 25.8144531 9.0507813 6.4394531 18.4189453 9.2529297 29.0136757 8.5507813 2.0939865.3202515 13.7386627 8.75914 45.168457 31.0351563 9.8281403 6.9635468 14.2282257 6.782135 23.3999023-1.0996094 15.8461914-13.6269531 31.3979492-27.3984375 46.9443359-41.1777344.7275391.7607422 2.1259766.4960938 2.5224609-.6240234.2998047-.8486328.6430664-1.6787109 1.0029297-2.5009766 1.6899414-1.4980469 3.3793945-2.9951172 5.0698242-4.4921875 1.9077148 1.6357422 3.9233398 3.1416016 6.0537109 4.5 1.1254883.7177734 2.5317383-.4667969 2.203125-1.6943359-.7290039-2.7216797-1.4633789-5.4414063-2.1987305-8.1611328 26.0176849-22.9815369 23.0644684-20.2542419 26.4628906-22.8691406 1.8203125-1.3994141 8.4458008-5.0498047 9.6162109-7.7919922.2783508-.6522675.646347-11.9767761.6499023-12.0810547 13.1616821 12.8891296 11.2119904 36.7306061 4.387207 54.4140625-3.7396393 9.6506805-25.7161102 34.3240814-52.8408203 47.7333984-1.1972656.5917969-.8388672 2.0117188.0673828 2.5488281.1689453.2783203.4370117.5078125.8447266.6162109.9003906.2412109 1.8095703.4414063 2.7226563.6201172.0595245.1029816 5.1079559 8.8366699 4.7919922 8.2900391.2950287.0861969 2.5475159 1.4631805 7.137207 1.2626953-1.2998047 3.0517578-3.1381836 5.8535156-5.4912109 8.0800781-.8647461.8173828-.2666016 2.7373047 1.0605469 2.5605469.7416992-.0996094 1.4716797-.2226563 2.1948242-.3623047 6.7705078.46875 18.5009766-4.2392578 23.0180664-7.0849609 7.453125-4.6962891 15.8027344-10.3701172 21.5302734-16.9589844 9.9369965-11.4326172 15.8671722-19.0761719 21.7001801-32.9150391 18.2197269-43.2303009-1.3802182-92.0199051-30.5361172-102.4970703zm-48.8422852 1.5380859c-.2895508.0820313-.5078125.2265625-.6743164.4023438-3.0256195-1.6065979-6.6247864-.4484406-8.284668 2.3935547-.984314-4.5854721-6.3644714-6.553093-10.0126953-3.6035156-1.2138672.9814453-2.0039063 2.3535156-2.262207 3.8886719-4.7740631-4.0289764-11.7907715.8131409-9.9667969 6.7294922-4.8116302-1.5476303-9.1663361 2.8299713-8.0219727 7.5488281-.5126038.3156433-8.6671295 4.8829803-24.7685547 15.7128906.15625-4.8994141.3115234-9.7988281.4648438-14.6982422 36.112793-17.4140625 72.7709961-33.6289063 110.1738281-48.0771484-.3426361 5.9378433-.7539215 18.9121399-.8046875 27.1953125-14.8100586-4.2597657-31.3408203-1.5927735-45.8427734 2.5078124zm9.7558594 79.8603516c-2.1113281-1.5947266-4.1000977-3.3417969-5.9165039-5.2841797-.8125-.8691406-2.159668-.3603516-2.5068359.6621094-.8193359 2.4121094-1.9692383 4.6845703-3.0488281 6.9892578-1.8703918-7.8050537-2.8009338-15.4689026-4.4086914-23.1816406.2773438-.5878906.4614258-1.2197266.5493164-1.8818359 2.5186157 2.6089172 6.7342987 2.5508728 9.1743164-.265625 2.0161132 7.6630859 4.0952148 15.3105468 6.1572265 22.961914zm-27.1616211.25c-1.2138672-3.3408203-2.2260742-6.7412109-3.0200195-10.2402344-.2348633-1.0351563-1.7954102-1.5332031-2.5073242-.6621094-2.4868164 3.0429688-5.1186523 5.9267578-7.890625 8.6865234 1.5761719-6.2714844 3.1655273-12.5400391 4.7729492-18.8037109 2.4504547 2.0169373 6.1056824 1.8855591 8.4169922-.5078125.46875 1.2822266 1.331543 2.3710938 2.4580078 3.1005859-.7421876 6.1425782-1.4853516 12.2851563-2.2299805 18.4267579zm23.8745117-59.3740234c5.875 11.4599609.8388672 25.9951172-11.2612305 30.6044922-16.0431061 6.1117401-25.4756775-7.2444153-25.5756836-7.2998047-7.2496338-10.5382538-2.4446869-27.3638916 8.3378906-33.5712891 10.2202149-4.3564453 23.4213868.3623047 28.4990235 10.2666016zm-42.5024414 29.8554687c1.6485748 2.5500488 4.8898926 3.6391144 7.8203125 2.2998047-.1546326.7554932-.2543335 1.4743958-.0146484 2.6074219-2.2919922 8.8818359-4.5307617 17.7773438-6.7666016 26.6738281-.3735352 1.4873047 1.4057617 2.4589844 2.5073242 1.4589844 3.5170898-3.1914063 6.7905273-6.5859375 9.8745117-10.1787109 1.2041016 4.5839844 2.7558594 9.0234375 4.6899414 13.3789063.6796875 1.53125 2.640625.5175781 2.7949219-.7568359.9467773-7.8056641 1.890625-15.6123047 2.8344727-23.4179688 1.3970337.1025391 2.6217651-.2327728 3.6772461-.8632813 1.1786957 6.1266174 2.1111298 12.6407776 3.4804688 18.9179688-16.3012695 12.0619507-61.1321106 44.6139374-61.2329102 44.6523438.2226563-17.4277344.6538086-34.8525391 1.1469727-52.2744141 9.6435546-7.6318361 19.0791015-15.4843751 29.1879882-22.498047zm-33.328125 74.3134766c-34.510643-21.732605-37.8488464-22.6562958-44.2099609-26.3769531 17.2080917-2.8191223 31.631218-12.3876495 45.2841797-23.0371094-.4609376 16.46875-.8598633 32.9404297-1.0742188 49.4140625zm-76.3183632-56.5166016c-4.7290726-5.7937317-2.4483261-13.2261658.1235352-21.1308594-.0590821 7.0478516-.1079102 14.0917969-.1235352 21.1308594zm10.3183594 6.125c-.5533333-.1744995-3.2778015-.0298462-7.3266602-3.2080078.015625-26.7841797.6572266-53.6650391 0-80.4423828 9.9707031 3.4863281 19.9731483 6.8789063 29.8784218 10.5498047.2651367.0986328.5053711.1132813.7211914.0771484.1079102.0664063.2324219.1162109.3920898.1162109-1.4438477 0-1.6279297 20.0244141-1.7006836 22.2617188-.0205078.6210938.8544922 1.0283203 1.2802734.5302734 1.5791016-1.8486328 3.1582031-3.6962891 4.737793-5.5449219 1.6064453 3.7714844 3.8720703 7.1796875 5.9633789 10.7050781.2988281.5039063 1.2729492.4902344 1.3710938-.1787109 1.2432022-8.4590073 1.4412231-19.8518143 1.8354492-22.1376953 10.5292969 3.9355469 21.0712891 7.8339844 31.6689453 11.5820313-.1704102 5.4394531-.3422852 10.8779297-.5161133 16.3173828-26.222351 17.7521973-47.6573486 33.1494293-68.3051795 39.3720703zm179.5581093-106.4619141c-37.2353516 14.4414063-73.7470703 30.6035156-109.7138672 47.9599609-9.9125977-3.5029297-19.7753906-7.1416016-29.625-10.8164063 9.6571732-2.147438 62.097702-23.6856079 97.1416016-35.5996094.9086914-.3085938.5185547-1.7578125-.3989258-1.4462891-33.2021484 11.2880859-65.5273438 24.9384766-98.6953125 36.3183594-.2387695-.0898438-.4780273-.1777344-.7172852-.2675781-1.1816406-.4414063-1.9194336.6396484-1.7939453 1.6308594-.0653992.8501053.205658 7.9602203-1.6069336 21.1630859-1.9291992-3.1533203-3.9047852-6.2773438-5.2167969-9.7558594-.1811523-.4804688-.8540039-.7988281-1.253418-.3310547-1.3769531 1.6113281-2.753418 3.2226563-4.1303711 4.8339844.2587891-6.7890625.6655273-13.5712891.8969727-20.3613281 39.5888672-13.4892578 78.2490234-29.5390625 117.8427734-43.0146484 1.9145661.4970017 31.6634675 8.2289811 37.2705079 9.6865235zm-11.1748047-20.1816406c-5.6313477 3.1953125-11.2426758 6.4238281-16.7543945 9.8222656-17.9999847-4.6780739-14.2460022-3.7029839-27.7172852-7.2011719 10.3486328-6.4257813 21.2089844-12.6318359 32.4697266-17.3486328-3.2685547 4.3769531-6.3349609 8.8808594-8.7460938 13.8173828-.5952148 1.2197266.3798828 2.4482422 1.6943359 2.203125 6.2685547-1.1679687 12.6914063-1.7929687 19.053711-1.2929687zm-52.3544922 4.3896485c.6406403-.1067123 1.4254303-.3712349 3.2475586-.0048828.3076019.2696266 19.1833344 5.1149673 20.390625 5.4287109-38.7158203 13.28125-76.5727539 28.9296875-115.3129883 42.1435547-.0537109-.5439453-.3618164-1.0683594-1.0043945-1.3066406-9.2470703-3.4267578-18.5786171-6.6123047-27.8906288-9.8564453 135.1489448-40.8144151 115.2797431-35.5223046 120.569828-36.4042969zm-126.1025429 54.4746093c.0864258 10.7705078.03125 21.5517578-.0551758 32.3300781-.2303123.191925-10.3185501 19.1773376-3.2060547 30.0917969-8.8586845-7.2909393-13.5892696-26.96875-12.5532227-39.3027344 4.8997956-8.3168334 10.3303872-15.8249206 15.8144532-23.1191406zm2.8457031 83.5869141c-5.9331055-3.6367188-11.5595703-8.3847656-16.0859375-13.9482422 26.1738777 14.538681 77.4674072-30.4584656 117.8486328-54.5634766-3.0082245 3.2388611-1.9174805 8.5430756 2.2412109 10.21875-5.0700836 3.1265259-3.3954773 10.9941864 2.5185547 11.6953125-.7234039 1.1367798-1.0764465 2.4741058-.9658203 3.9140625-29.878971 20.4796601-69.502079 64.7855835-105.5566406 42.6835938zm186.7622109-46.8037109c-1.6235352 2.3076172-5.6508789 4.3505859-7.890625 6.0742188-7.8067627 6.0061646-16.8078613 12.8260651-26.2290039 19.8476563-1.6889648-6.2519531-3.3662109-12.5068359-4.9824219-18.7783203 3.8274841 1.5542297 8.0913391-1.0311432 8.5634766-5.1826172.203125-1.8125-.3579102-3.5683594-1.5351563-4.9052734 2.9370117-.2617188 5.3339844-2.5634766 5.6689453-5.5849609.3295898-2.8480377-1.2564087-5.4022369-3.6572266-6.484375 1.8920746-.9717712 3.2510834-2.875412 3.4121094-5.2041016 4.7851563-.4316406 9.581543.2460938 14.5009766 1.3007813 4.9487305 1.0605469 9.4731445 2.4638672 13.340332 5.15625.0434571 4.0595701.7592774 10.988281-1.1914062 13.760742zm-11.3510742-21.8095704c-5.34375-1.1416016-10.5859375-1.8837891-15.8037109-1.3867188-1.0298615-2.3812485-3.4020844-3.9853897-6.2324219-3.7539063 3.0308838-4.2576752.29599-9.5925446-4.2851563-10.1015625-1.3974609-.1601563-2.7822266.1591797-3.9633789.890625.3566895-1.6671371.0401611-3.3380737-.8188477-4.7177734 4.1572266-1.1513672 8.5058594-2.1816406 12.9384766-2.9453125 28.1841278 5.4939499 37.376709 16.0867691 41.2597656 37.8789063-5.2257385-9.7127685-12.1335754-13.5242004-23.0947265-15.8642578zm30.430664 52.6806641c6.9772186-14.5852661 13.0546112-33.592926 9.8266449-49.4306641 12.2019958 21.3179169 12.6053772 40.5597992 4.9848633 61.3857422-5.6279297 15.3798828-14.687973 30.2880859-25.8036957 42.3203125-5.5732422 6.0332031-12.0283203 11.2539063-18.6274414 16.1230469-5.7348633 4.2304688-11.831543 7.9492188-18.7036133 9.7070313 3.659668-5.0058594 5.6318359-11.4355469 5.6938477-17.5253906.0014648-.0195313.0048828-.0390625.0063477-.0585938-.0565948-.1000671.1669769-2.1081238-1.8974609-1.7050781-4.6674805.9111328-9.5253906.8925781-14.2089844.0322266.0117188-.0126953.0273438-.0234375.0385742-.0361328 25.2534179-13.3720704 46.3520507-35.0166017 58.6909179-60.8125001z"/><path d="m163.8244781 134.8137817c-.9335938 8.421875 4.8623047 16.6181641 13.4335938 17.7216797 9.3422241 1.2037506 17.0605927-6.7537994 17.5239258-14.3808594.5395508-8.9755859-5.6928711-17.6171875-15.2358398-17.6621094-8.0644532-.0380859-14.8427735 6.3916016-15.7216798 14.3212891zm27.9594727 3.1982422c-1.1342773 6.3085938-5.8666992 11.7216797-12.6904297 11.6630859-7.5629883-.0644531-13.0141602-7.0449219-12.2758789-14.3349609.6137695-6.0615234 5.3588867-11.328125 11.5883789-11.7568359 8.3706055-.5771484 13.7788086 6.5849609 13.3779297 14.4287109z"/><path d="m182.669693 142.6682739c-.5771484.0332031-1.1538086.0654297-1.730957.0986328.1235352-4.6855469.246582-9.3720703.3701172-14.0576172.0375977-1.4296875-1.609375-1.8066406-2.5605469-1.0605469-2.0366211 1.5957031-4.0732422 3.1914063-6.109375 4.7871094-1.5185547 1.1904297.6181641 3.2998047 2.1210938 2.1210938 1.1552734-.9052734 2.3110352-1.8105469 3.4663086-2.7158203-.097168 3.6992188-.1948242 7.3974609-.2919922 11.0966797-.5981445.0341797-1.1962891.0673828-1.7944336.1015625-1.9194336.109375-1.9321289 3.1103516 0 3 2.1762695-.1230469 4.3530273-.2470703 6.5297852-.3710938 1.9194335-.109375 1.9321288-3.109375-.0000001-3z"/></g></g></svg>