<svg id="Layer_1" enable-background="new 0 0 300 300" height="512" viewBox="0 0 300 300" width="512" xmlns="http://www.w3.org/2000/svg"><g id="business_Strategy"><g><path d="m30.2901459 207.1223907c59.7698669 23.4074402 55.4297256 22.4490356 58.2875977 21.2299805 4.3759308-1.8660278 55.455368-28.9482574 55.8461914-29.769043.4433594-.9311523.0615234-1.84375-.8964844-2.2036133-7.6108398-2.8598633-15.2441406-5.6601563-22.8857422-8.4375.1139984-3.1220551-1.5567627-5.9765472-3.9570313-7.6450195-1.8857422-1.3105469-4.2773438-1.6518555-6.1743164-2.8564453.6044922-.7666016.90625-1.7773438.7661133-2.7983398-.2387695-1.7402344-1.8095703-3.1162109-3.5175781-3.3354492-.0249023-.0356445-.0419922-.0727539-.0703125-.1079102-.4472656-.5605469-.8686523-1.1367188-1.2783203-1.7197266-4.0717773-9.6386719-5.7890625-20.3120117-4.5986328-30.6972656 1.0859375-.1010742 1.9013672-.4697266 2.9873047-.5703125.2207031-1.2866211.9770508-2.4404297 1.2163086-3.7226563.6113281-.6601563.6000977-1.9316406-.2983398-2.3540039-3.2524414-1.5302734-6.453125-3.1660156-9.6767578-4.7548828 2.9213867-1.1806641 5.5527344-3.0742188 7.4990234-5.5551758 4.1181641-5.2519531 4.9926758-12.8520508 2.1743164-18.9018555-3.6356125-7.8034515-11.8636017-11.2170181-19.7748184-10.6354065-8.3997803.6175308-16.4424515 5.7389374-18.252037 14.8917542-1.5727539 7.956543 2.6152344 16.7211914 9.8994141 20.1010742-3.5610352 1.8149414-7.3979492 3.7841797-10.1723633 6.2539063-.8294067.7381287-.7270889 2.4827728 1.987793 3.2514648 1.3735352.3886719 2.9091797.5454102 4.4833984.5986328.0087891.0205078.0126953.0405273.0224609.0610352 9.183342 18.6406403-2.3558807 33.2878265-3.6455078 35.7583008-1.3515625.0991211-2.6166992.7480469-3.4248047 1.9248047-.8295898 1.2089844-.9482422 2.8134766-.4199219 4.1650391-.6767578 2.449707-4.9394531 2.7246094-6.7441406 4.375-1.5763092 1.4418793-2.6203117 3.5575867-2.6113281 5.9111328-9.1064453 4.7773438-18.2133789 9.5541992-27.3198242 14.3310547-1.5455133.8107757-.3257276 2.8694305.5483397 3.2114257zm40.0942383-97.6621093c.6181641-8.5009766 9.2255859-15.097168 17.5473633-14.0234375 8.097168 1.0439453 14.4042969 8.987793 13.519043 17.1098633-1.078125 9.8925781-10.7275391 15.5717773-20.0551758 12.8886719-7.0439454-1.6264649-11.525879-8.8959962-11.0112305-15.9750977zm1.9008789 24.5410156c12.2574463-6.8853531 6.2743073-3.6217804 9.3789063-5.4233398 3.4552612.7938385 6.1821747.539856 9.9726563-.0053711 2.8618164 1.3647461 5.6914063 2.7949219 8.5332031 4.1992188-16.7130967 2.7135161-25.1897966 1.0203704-27.8847657 1.2294921zm-9.0141602 50.9550781c2.0043945-.9692383 4.2456055-1.5200195 5.4052734-3.2802734 4.5322266.4321289 9.0473633.4282227 13.5825195-.0498047 1.9003906-.2006836 1.9208984-3.2026367 0-3-4.2548828.4482422-8.4916992.4707031-12.7416992.1181641-.0019531-.0029297-.0024414-.0058594-.0043945-.0083008-.8242188-1.1420898-.1943359-2.859375 1.3857422-2.5390625 1.7416077.9243927 21.8841934-.0322418 26.6313477-.4121094 1.9116211-.1533203 1.9282227-3.1542969 0-3-7.9243164.6342773-15.8466797.8310547-23.7880859.6323242 7.4204102-10.6000977 8.6152344-24.2382813 3.4106445-36.0341797 6.4449081-.15448 11.540451.0508118 20.8959961-1.2646484-3.3085938 12.6958008-.8354492 26.5214844 7.3071289 36.9179688.1337891.7973633.8222656 1.5126953 1.8291016 1.2353516.8391113-.2305756 1.8616638 1.3045197.4291992 1.5302734-.8007813.1264648-1.2446289 1.1274414-1.0473633 1.8452148.0848312.3098297.4672928.7971039.5615234.8989258 2.0439453 2.2070313 4.7856445 2.4282227 7.2797852 3.8583984 2.6459961 1.5170898 3.644043 4.3681641 2.918457 6.796875-.9995117 1.0551758-1.9990234 2.1103516-2.9990234 3.1655273-.7075195-.0888672-1.3032227.4487305-1.5058594 1.1118164-.9150391.5473633-1.2412109 1.9604492-.0864258 2.5649414 2.5620117 1.3408203 5.1235352 2.6821289 7.6855469 4.0229492.0839844.0600586.1679688.1206055.2524414.1806641-9.3618164 2.1420898-18.8554688 3.3930664-28.3803711 3.7646484-10.6855469.3637695-21.4091797-.4233398-31.9208984-2.3740234 1.0932617-.9736328 2.1430664-1.9873047 3.1401367-3.0629883.4370117-.3515625.8720703-.7055664 1.3125-1.0532227 12.4257813 1.4848633 24.8461914 1.902832 37.3237305.8007813 1.9082031-.168457 1.9262695-3.1699219 0-3-12.0883789 1.0673828-24.1235352.7001953-36.1616211-.6733398-.090332-.5019531-.4067383-.9301758-1.0219727-1.0205078-1.9794922-.2905273-3.6679688-1.7504883-4.7739258-3.4248047-.2861328-1.9584961.6918945-4.0922851 3.0805664-5.2475586z"/><path d="m153.6500092 197.6848907c1.0387726.1948547-4.7928772-2.0540466 47.8051758 20.3417969 8.8493805 3.7681274 6.156189 4.388382 15.5879974-.191864 10.5721436-5.1339874 32.4521332-15.861084 46.7303772-22.8462219 7.7084656-3.7713776 5.4172058-3.4998016-6.9316406-8.8701172-3.5693512-1.5527344-7.2534332-3.8935547-11.0092926-5.1674805 1.331543-1.6181641 2.0922852-3.7631836 2.019043-5.8710938-.1289063-3.7172852-2.4736328-7.1245117-5.5668945-9.1899414-1.6479492-1.1010742-3.6806641-2.0878906-4.1977539-4.0014648-.4995117-1.8461914.6708984-3.7416992.6210938-5.6538086-.0532227-2.0478516-1.7021484-4.3217773-3.7226563-4.6611328-4.4251099-14.756958-6.0364227-30.6875839-5.4208984-41.644043 2.1245117-.3530273 4.1147461-1.6352539 5.0957031-3.5639648 1.6040039-3.1533203.2358398-7.4741211-2.890625-9.1289063.5317383-2.3032227-.996582-4.8876953-3.2705078-5.5322266 1.3569336-1.1577148 1.9780273-3.1113281 1.5390625-4.8408203-.4394531-1.7285156-1.8950195-2.9423828-3.6401367-3.3120117 1.7226563-5.9077148 4.7685547-11.0424805 8.2260742-16.1333008-.4897461-1.6967773-.9799805-3.3935547-1.4697266-5.0903282.0805664-.1362305.1494141-.2768555.2314453-.4130859.6064453-1.0009766-.1831055-2.2226563-1.2949219-2.2568359-1.3457031-.0415039-2.6914063-.0830078-4.0371094-.1245117.6455078-1.0131836.0087891-2.9321289-.5263672-3.7602539-.8369141-1.2954102-2.2207031-2.1611328-3.6806641-2.6591797-.1031799-.0352783-4.4167786-1.1939545-4.5185547-1.2177734-.4443359-1.2597656-.9238281-2.5053711-1.4287109-3.7402344 1.3076172.3774414 2.6220703.734375 3.909668 1.1611328.8964844.2974319 1.9133301-.3483505 1.9746094-1.671875.8300781-.7504883 1.6606445-1.5004883 2.4907227-2.2509766.1767578-1.6245117.2255859-4.3100586.4023438-5.9345703-.5639648-.2827148-1.2998047-.640625-1.9799805-.9741211-.0048828-.8769531-.7402344-1.8261719-1.8725586-1.6025391-1.3481445.2661133-2.7045898.4741211-4.0644531.6567383 1.1484375-.9399414 2.3896484-1.9428711 3.3803711-2.7744141-.3007813-.9023438-.6015625-1.8046875-.9023438-2.7070313-.0078125-.0063477-.0185547-.0131836-.0268555-.0200195.043457-.5024414-.2412109-.9438477-.6650391-1.2138672-.1401367-.1230469-.3066406-.2285156-.5107422-.3027344-1.1635742-.421875-2.347168-.7504883-3.5375977-1.0283203 2.3505859-4.1254883-1.4667969-9.8359375-6.9018555-8.734375-2.6640625.5405273-5.6259766 2.7978516-5.659668 5.7548828-.0102539.8759766.3432617 1.8422852.8989258 2.7021484-1.1625977.2246094-2.3203125.5014648-3.4624023.8876953-.9272461.3129883-1.1767578 1.2182617-.9575195 1.949707.0263672.1210938.0644531.2441406.1245117.3686523.8422852 1.7446289 1.7236328 3.472168 2.6660156 5.1650391-.6455078-.152832-1.2915039-.3061523-1.9370117-.4589844-1.2304688-.2919922-3.0498047-1.1005859-4.0537109.0654297-.8344727.9692383-.4394531 2.7788086-.4272461 3.9311523.0219727 2.1069336.0444336 4.2133789.0664063 6.3198242.0112305 1.0668945.9448242 1.5883789 1.8989258 1.4462891 1.6264648-.2416992 3.2529297-.4838867 4.8798828-.7260742-.4892578 1.0244141-.9902344 2.0429688-1.4975586 3.0585938-4.1079102.1914063-7.2836914 3.2285156-7.8349609 7.2675781-2.0825195-.0639648-4.1650391-.128418-6.2475586-.1928711-1.1914063-.0366211-1.7963867 1.2871094-1.2949219 2.2573242 3.7910156 7.3408165 6.362793 15.0180626 7.831543 23.1245079-1.6845703.9394531-2.7856445 2.7016602-2.480957 4.7226563.2700195 1.7949219 1.5874023 3.1010742 3.2226563 3.6254883.0043945.1523438.0131836.3046875.0175781.4570313-3.7090302-.054451-5.7452087 2.2131348-5.6611328 4.9936523-2.4584961.2675781-4.4716797 2.1650391-4.9570313 4.9599609-.7011719 4.0405273 2.1357422 6.9819336 5.7509766 8.1108398 1.7841797.5571289 3.6318359.7749023 5.4985352.8330078-.1088867 14.6899414-3.003418 28.9916992-8.5639648 42.5800781-1.1245117-.0605469-2.1894531 1.472168-1.1967773 2.5966797 4.434082 5.0234375-5.4848633 8.6391602-8.0634766 10.4472656-1.7631836 1.2363281-3.2626953 2.7207031-4.0556641 4.7597656-1.4399414 3.7026367-.3022461 7.2973633 2.2910156 9.8242188-.1103516.2563477-.1572266.5522461-.1010742.8842773.0268555.1582031.0620117.3134766.0898438.4711914-.269043.0214844-.5507813.0610352-.862793.1391602-3.1772461.7963867-6.6586914 3.7109375-9.5141602 5.2753906-3.6064453 1.9765625-8.2602539 5.5737305-12.3530273 6.4316406-1.4135745.296387-1.4487307 2.6210941-.0000002 2.8925784zm43.8793945-114.5478515c-1.3535156-7.5932617-3.7070313-14.8349609-7.03125-21.7631798 13.0244141.4018555 26.0488281.8041992 39.0732422 1.206543-2.4696808 4.5847969-5.0962524 11.5627174-7.1582031 21.5288048-8.3110352 1.4799804-16.6845704 1.0546875-24.8837891-.972168zm9.4248047-56.4374962c-.1640625-1.3632813 1.5717773-2.4443359 2.621582-2.8120117 3.1264648-1.09375 6.715332 2.6914063 3.5512695 4.9990234-1.362793-.1552734-2.7319336-.1933594-4.1000977-.1474609-1.261795-.3309612-1.9776305-1.2510109-2.0727538-2.0395508zm-.9423828 14.6352539c1.6738281.3969727 2.4863281-1.8564453 1.3095703-2.6655273-1.2446289-1.9970703-2.3603516-4.0698242-3.409668-6.1757813 4.4619141-1.1503906 8.9785156-.9765625 13.3950195.2988281-1.2871094 1.9941406-2.4726563 4.0541992-3.8378906 5.9980469-.7928772 1.12957.3915253 2.3464508 1.4086914 2.2265625 2.1728516-.2558594 4.3481445-.5024414 6.5083008-.8461914-.2441406 1.8989258-.3969727 3.8081055-.5073242 5.7202148-1.6083984-.4692383-3.230957-.9038086-4.8085938-1.4609375-.1835938-.1240234-.387207-.1889648-.5986328-.1967773-1.2929077-.3999672-2.0882263 1.0407677-1.5166016 2.2871094.7358398 1.6132813 1.3916016 3.2563477 2.0092773 4.9160156-3.5053711-.019043-7.0087891-.1430664-10.5136719-.1787109.6831055-1.4233398 1.3574219-2.8505859 2.0825195-4.2539063.7304688-1.4140625-.9047852-2.690918-1.9970703-2.1279297-.0195313.0019531-.0375977-.0004883-.0581055.0024414-1.8803711.2802734-3.7612305.5600586-5.6416016.840332-.0050354-.4849129-.05867-5.5541534-.0625-5.9624023 1.295151.2923546-.3602293.0133362 6.2382815 1.5786133zm-2.9545899 12.9086914c4.6738281-.0341797 9.3432617.2124023 14.0170898.199707 2.0620422.855526 6.1849976.3565788 6.0263672 4.9370117-8.5942383-.2651367-17.1884766-.5302734-25.7822266-.7958984.40271-2.4135589 2.1993562-4.3238868 5.7387696-4.3408203zm-11.4516601 46.4814415c.6865234.2539063 1.2241211-.0048828 1.53125-.4594727 7.6162109 2.3896484 15.234375 2.7592773 23.1464844 1.4731445.9501953-.1542969.546875-1.6000977-.3989258-1.4462891-7.7060547 1.2519531-15.1328125.8300781-22.5610352-1.5361328-.1401672-.3978882-1.3647919-1.5195694-.1728516-2.671875.7451172-.7211914 2.2207031-.7119141 3.1464844-.5024414.5693359.128418 1.0375977-.0498047 1.3647461-.3686523 6.3056641 1.5419922 12.6494141 1.7827148 19.0888672.7236328.9501953-.1567383.546875-1.6025391-.3989258-1.4467773-6.0629883.9975586-12.0332031.7626953-17.9760742-.6469727.0313568-.1997223-.0797119-2.7916336-.0893555-2.9560547-.0566864-.9614182-.8805389-1.5587006-1.6704102-1.6044922-1.6459961-.0961914-2.1879883-2.3886719-.5610352-3.0322266.1767578-.0693359.3208008-.1655273.4482422-.2729492 9.1708984 2.3022461 18.5722656 2.6850586 27.8632813.8295898.2397461-.0478516.4355469-.1367188.5922852-.2539063.1474609.1860352.2543945.3857422.296875.5976563.1826172.9056091-.7973938 1.2436523-1.9423828 1.2436523-.8823242 0-1.4140625.690918-1.5 1.5-.1303711 1.2294922.2207031 2.4707031.090332 3.699707-.0984802.9295883 1.0635223 1.8253632 2.0859375 1.3818359.8945313-.1137695 2.2026367-.0805664 2.7231445.7241211.3769531.5820313.2978516 1.6083984-.2192383 2.0664063-1.2988281 1.1508789.2792969 2.9638672 1.6586914 2.4042969 4.1988678.2361526 4.6085663 6.4875641-.7783203 6.9912109-3.5502014.3368759-30.904953 1.5528259-34.4306641.9038086-5.9318084-1.0299299-5.8626403-3.5850599-1.3374022-7.3408201zm-13.3076172 69.9946289c.9438477-1.2597656 3.1298828-2.1972656 4.5097656-2.9682617 2.2075195-1.2333984 4.5078125-2.4648438 5.9775391-4.6044922 1.2685547-1.8476563 1.6425781-3.8808594 1.1401367-5.7836914 13.0576172 3.4819336 26.4702148 3.8833008 39.7329102 1.1967773.9458008-.1918945.5454102-1.6376953-.3984375-1.4467773-13.1635742 2.6665039-26.4570313 2.2099609-39.409668-1.3198242.5061035-.7375641 8.9545746-19.7689819 9.1303711-44.4287109 22.842514-.9046478 16.8304138-.5024414 23.0810547-.8251953.6450195 15.4833984 3.4750977 30.6811523 8.5039063 45.347168.2255859.6582031.7504883.9711914 1.2978516 1.0209961-1.2978516 2.434082-.8666992 5.3515625.9121094 7.7705078 1.3271484 1.8051758 3.2290039 2.9208984 5.0258789 4.1787109 1.4262695.9990234 2.9882813 1.8242188 4.0214844 3.2792969 2.6625977 3.7485352 1.4360352 7.7089844-2.3120117 9.6640625-1.7124023.8930664-.1972656 3.4829102 1.5141602 2.590332.0922852-.0478516.1787109-.1030273.2695313-.1538086-1.4487457 6.9434662-1.2342682 6.1403198-1.4423828 6.487793-6.9370117 1.3881836-13.9365234 2.2397461-20.956543 2.6118164-9.6186523-.027832-19.246582-.1743164-28.8266602-1.0888672-.2607422-.0249023-.5507813-.043457-.8564453-.0595703-2.4614258-.3100586-4.918457-.6704102-7.3686523-1.0786133-.1254883-.0698242-.2421875-.1450195-.3515625-.2250977-.8144531-2.4472656-1.4716797-4.9291992-1.9746094-7.4545898 13.546875 3.34375 27.3671875 4.6899414 41.3056641 3.9926758 1.921875-.0961914 1.9331055-3.0966797 0-3-13.6821289.6845703-27.2260742-.6044922-40.5292969-3.8901367-.1767578-.0439453-.340332-.0493164-.4970703-.0380859-3.6186526-2.2954103-3.9926761-6.4458009-1.4990237-9.7744142z"/><path d="m156.404892 257.6643982c9.1394958 3.5756226 38.7065277 15.1419678 47.8027344 18.7006836 10.7360535 4.1990356 5.8420868 5.0075073 23.2299805-4.1445313 40.7573395-21.4547882 34.1173553-17.9597015 38.9209137-20.4882965.8244019-.4339294 7.4336853-3.2529297 3.2792969-4.8168945-19.3027496-7.2758789-38.605484-14.5517578-57.9082184-21.8276367-.465332-.175293-1.1342773.019043-1.4589844.3857422-.0892181.100769-49.1233063 26.263916-54.6635742 29.0551758-1.4422303.7267608-.6143342 2.5836944.7978515 3.1357574z"/></g></g></svg>