<svg id="Layer_1" enable-background="new 0 0 300 300" height="512" viewBox="0 0 300 300" width="512" xmlns="http://www.w3.org/2000/svg"><g id="Buying_online"><g><path d="m140.7888947 93.7909546c-.4790039-.8388672-1.7758789-.0839844-1.2954102.7568359 1.5991211 2.796875 3.1977539 5.5947266 4.796875 8.3916016.4790039.8378906 1.7753906.0830078 1.2954102-.7568359-1.5991211-2.7978516-3.1982422-5.5947266-4.796875-8.3916016z"/><path d="m147.0003204 107.9911499c-.7075195-.6552734-1.7705078.4023438-1.0610352 1.0605469 2.2822266 2.1152344 4.5639648 4.2314453 6.8457031 6.3466797.7070313.65625 1.7700195-.4023438 1.0605469-1.0605469-2.2817382-2.1152344-4.5634765-4.2314453-6.8452148-6.3466797z"/><path d="m83.6497345 110.1503296c.7436523-.6279297 2.3823242 2.8339844 2.9638672 3.2441406.1860352.1308594.3769531.2285156.5703125.3037109-.0375977.140625-.0776367.2802734-.0952148.4355469-.125 1.0966797 1.5288086 4.0410156.1010742 4.4746094-.9208984.2802734-.5283203 1.7285156.3989258 1.4462891.9003906-.2734375 1.4599609-.8769531 1.6572266-1.8164063.2631836-1.2558594-1.4404297-3.9912109-.1425781-4.7392578.8115234-.515625.0839844-1.7802734-.7573242-1.2949219-1.1000977.6992188-2.2319336-2.7529297-3.1342773-3.3105469-.9125977-.5634766-1.8266602-.4765625-2.6230469.1962891-.7382814.6240235.3276366 1.6806641 1.061035 1.0605469z"/><path d="m89.7097931 124.9569702c.9858398-.2207031 1.9716797-.4414063 2.9570313-.6611328.8945313 2.4130859 1.7890625 4.8261719 2.6835938 7.2382813-1.0205078.3916016-2.0410156.7822266-3.0615234 1.1738281-.8920898.3417969-.5048828 1.7929688.3989258 1.4462891 1.2729492-.4882813 2.5463867-.9755859 3.8193359-1.4638672.3525391-.1357422.6757813-.5126953.5239258-.9228516-1.0561523-2.8476563-2.1118164-5.6962891-3.1674805-8.5449219-.1464844-.3945313-.4975586-.6181641-.9228516-.5234375-1.2094727.2705078-2.4194336.5410156-3.6293945.8105469-.9418946.2109375-.5434571 1.6572266.3984374 1.4472656z"/><path d="m57.638504 175.9979858c.09375-1.2988281.1879883-2.5986328.2817383-3.8974609.0698242-.9638672-1.4306641-.9589844-1.5 0-.09375 1.2988281-.1879883 2.5986328-.2817383 3.8974609-.0693359.9628907 1.4306641.9589844 1.5 0z"/><path d="m60.8142853 175.6884155c.1040039-1.0986328.2080078-2.1972656.3120117-3.2958984.0913086-.9609375-1.409668-.9541016-1.5 0-.1040039 1.0986328-.2080078 2.1972656-.3120117 3.2958984-.0913086.959961 1.4091797.9541016 1.5 0z"/><path d="m65.6634064 194.5761108c0-1.1982422 0-2.3974609 0-3.5966797 0-.9648438-1.5-.9667969-1.5 0v3.5966797c0 .9658204 1.5.9667969 1.5 0z"/><path d="m40.2244415 85.5536499c.7861328-.1845703 1.5717773-.3691406 2.3579102-.5537109.1972656.6279297.3950195 1.2558594.5927734 1.8828125.2885742.9179688 1.7373047.5263672 1.4462891-.3984375-.1918945-.609375-.3837891-1.21875-.5756836-1.828125 1.3217773-.3105469 2.6430664-.6210938 3.9648438-.9316406.9389648-.2207031.5415039-1.6669922-.3989258-1.4462891-1.3393555.3144531-2.6782227.6289063-4.0170898.9433594-.1606445-.5097656-.3212891-1.0195313-.4819336-1.5302734-.2885742-.9169922-1.7373047-.5253906-1.4462891.3994141.1547852.4912109.3095703.9833984.4643555 1.4755859-.7685547.1796875-1.5366211.3603516-2.3046875.5410156-.9394532.2207031-.5419923 1.6669921.3984374 1.446289z"/><path d="m50.3435822 93.2128296c-2.0014648.4863281-4.0029297.9716797-6.0048828 1.4580078-.9375.2275391-.5400391 1.6738281.3989258 1.4462891 2.0014648-.4863281 4.003418-.9716797 6.0048828-1.4580078.9374999-.2275391.5405273-1.6738282-.3989258-1.4462891z"/><path d="m45.3167267 99.343689c2.1943359-.7109375 4.3886719-1.421875 6.5830078-2.1328125.9145508-.2958984.5229492-1.7451172-.3989258-1.4462891-2.1943359.7109375-4.3886719 1.421875-6.5830078 2.1318359-.9145508.296875-.5234375 1.7451172.3989258 1.4472657z"/><path d="m278.3738403 78.4423218c-1.4858398-.6220703-2.84375-.1279297-3.9086914.8300781-23.9243011-3.8867188-47.8578949-7.7070313-71.616684-12.5253906-.8409424-1.3302689-2.1492004-1.6498032-3.3671875-1.0595703-2.0250397.9783249-3.0912476 3.9627838-2.7939453 6.3154297-2.0390625 6.6005859-4.1337891 13.1875-6.0649414 19.8173828-.5722656 1.9658203-1.6591797 4.4267578-.9794922 6.5019531.6987305 2.1328125 3.0195313 3.5683594 4.7290039 5.0283203-.0388947.0342484-11.3711548 11.3699875-15.6928711 15.5244141.2231445-2.2011719-.2138672-4.4257813-1.2719727-6.4736328-.2167969-2.3408203-1.5351563-4.8398438-2.90625-7.2236328-10.967804-19.0701828-10.9053345-19.8881989-13.5893555-22.1240234-1.5239258-1.2685547-3.2763672-1.8105469-5.1279297-1.9179688-.2299194-6.1086044-.1824951-5.2556534-.2397461-5.4931641 2.2283936-5.7326431-3.5590363-10.4231491-5.1362305-15.3027382-.5913086-1.8291016-3.4892578-1.046875-2.8930664.7978516 1.1435547 3.5361366 4.4150391 6.4472694 5.1591797 10.0214882 1.4928589 7.1743851-2.1334686 5.8219604-54.5234375 19.0146484-3.8979492.9804688-8.7788086 3.2001953-12.5258789 1.4501953-4.2293854-1.974884-10.0783691-15.1991425-13.9863281-24.1533203-.7705078-1.765625-3.355957-.2402344-2.590332 1.5136719 6.5790939 15.0773926 4.4372482 13.9980545 12.6640625 32.5820313-2.4845123.8629837-1.2859116.6358185-5.1850586 1.7421875-.4594727-2.234375-.918457-4.46875-1.3779297-6.703125 1.2221375-5.4059677-3.3159714-12.4904327-5.3144531-17.4521484-1.4770508-3.6669922-2.6796875-9.3339844-6.6533203-11.1835938-4.6209602-2.1507416-37.5689735 7.4678802-41.1904297 8.5302734-1.8486328.5419922-1.0615234 3.4375.7978516 2.8925781 5.9065266-1.7322006 34.7801857-9.5758667 37.081543-9.0644531 4.0205078.8935547 5.0693359 4.6513672 6.3808594 7.9072266 1.75 4.3447266 4.7919922 9.3945313 5.5571289 14.0087891.3696289 2.2314453-.7836914 5.5-2.5869141 6.6162109-1.0627594.6574631-39.9574585 9.8641434-40.871582 9.8535156-5.3671875-.0625-4.7514648-7.4726563-6.559082-11.1337891-.8549805-1.7304688-3.4433594-.2128906-2.590332 1.5146484 1.8037109 3.6523438 1.1123047 9.5849609 4.9790039 11.9121094.7573242 2.0458984 1.5141602 4.0917969 2.2709961 6.1386719-1.7519531.5625-3.5043945 1.1259766-5.2573242 1.6855469-1.8320313.5849609-1.0493164 3.4824219.7973633 2.8925781 4.0488281-1.2919922 8.097168-2.5849609 12.1455078-3.8779297 3.453125-1.1035156 10.7905273-4.6572266 14.3798828-2.5214844 3.4052734 2.0273438 4.5878906 8.3789063 5.7875977 11.890625 2.2145386 6.4805756 4.1511345 13.2563324 5.5688477 19.1962891-.6646996 4.6078491-3.4603386 3.9021149-15.125 7.3603516-8.1469727 2.4140625-16.2939453 4.8291016-24.4414063 7.2431641-1.8466797.546875-1.0605469 3.4433594.7978516 2.8925781 11.59375-3.4355469 23.1879883-6.8710938 34.7817383-10.3076172 2.347168-.6953125 5.2875977-1.1328125 6.5830078-3.3320313.6948242 2.390625.4609375 4.9433594-.7163086 7.2382813-2.5126953.6103516-5.019043 1.2480469-7.5126953 1.9326172-5.699028 1.5642242-16.6354675 4.1087036-21.9238281 7.4150391-3.5327148 1.34375-7.065918 2.6884766-10.5986328 4.0322266-.8935547.3408203-.5058594 1.7910156.3984375 1.4462891 2.4423828-.9287109 4.8847656-1.8583984 7.3271484-2.7871094-1.6289063 2.3466797-1.9946289 5.3115234-1.4848633 8.6601563 1.4199219 9.3339844 4.4443359 18.6552734 6.6816406 27.828125.4790039 1.9638672 1.0415039 4.5654297 2.0097656 6.7910156 2.2011375 5.5543671 5.0343933 10.4995117 10.9799805 10.7197266-5.4946289 1.8349609-10.9643555 3.7919922-16.4238281 5.7099609.9863281-1.0039063 1.6904297-2.2871094 1.9296875-3.953125.5800781-4.0332031-1.0205078-8.6855469-2.8330078-12.7714844-1.3525391-9.7207031-4.5805664-19.4755859-6.8930664-29.0117188-.4550781-1.875-3.3486328-1.0810547-2.8930664.7978516 5.6849689 23.4460297 11.432251 37.4753571 1.6826172 37.8300781-1.9248047.0693359-1.934082 3.0703125 0 3 4.9526367-.1806641 7.4482422-3.7490234 8.0952148-7.9511719.4013672 1.2998047.7485352 2.6132813 1.0107422 3.9423828 1.387207 7.0351563-3.7011719 9.3896484-9.7807617 10.2509766-.7695313.109375-.644043 1.0625-.0712891 1.3574219-1.0195313.9599609-.2216797 3.0830078 1.378418 2.5517578 47.2649078-15.6845551 35.2492294-11.7128448 37.2792969-12.3710938 3.9501953-1.2822266 6.3588867-.6875 8.5952148 3.3505859 2.2363281 4.0371094 3.4589844 9.0927734 5.1025391 13.4121094.6796875 1.7871094 3.5810547 1.0117188 2.8930664-.7978516-2.0498047-5.3876953-3.5600586-11.7802734-6.4384766-16.7705078-1.2070313-2.09375-2.7045898-3.0849609-4.5336914-3.3125 5.8306351-1.8728638 10.1623764-3.3557892 16.7490234-5.7773438-.8237305.7138672-1.5717773 1.5009766-2.2001953 2.3994141-5.4599609 7.8027344-.4208984 17.2070313 3.9238281 24.1308594 1.0234375 1.6308594 3.6206055.1269531 2.590332-1.5146484-2.7836914-4.4355469-5.9047852-9.2236328-5.8671875-14.6621094.046875-6.8339844 5.1547852-9.5810547 10.8803711-11.6445313.9165421-.3301544 66.6495514-23.0794525 78.6728516-27.1640625 2.1645508.6630859 4.331543 1.3173828 6.5009766 1.9628906-5.2119141 3.5566406-10.3208008 7.2529297-15.3193359 11.1103516-.9765625.7529297-.9916992 2.3554688.3583984 2.7412109.1225586.0351563.2441406.078125.3666992.1142578-1.0667267 6.0345764 3.7171783 11.1876221 9.2827148 9.6171875 2.7009735.1903687 8.2033691.1597137 9.7734375-2.0458984 18.7568359 7.2758484 17.4752808 5.8832092 18.5908203 6.8505859-1.2543945 5.0449219 3.2807617 9.3222656 8.1191406 8.3173828 2.25.2167969 4.9785156.1679688 6.9550781-.2207031 5.384964-1.0601501 5.2373962-5.4762878 2.1708984-7.2832031-.7836914-.4619141-1.7822266-1.1699219-2.7460938-1.6113281-.1899414-1.1777344-.6914063-2.3056641-1.5341797-3.2890625 6.6367188-2.6582031 13.2749023-5.3291016 19.9140625-8.0048828 1.784668 2.5791016 3.5400391 5.2998047 4.1943359 8.1552734 1.4985352 6.5361328-6.8486328 8.4794922-11.4106445 10.2363281-13.168457 5.0683594-26.3383789 10.1318359-39.5063477 15.2011719-1.7832031.6865234-1.0087891 3.5878906.7973633 2.8925781 8.574707-3.3007813 17.1499023-6.5996094 25.7250977-9.8984375 8.5085754-3.2736206 22.4002228-6.7443542 26.1137695-12.0869141.1498566 8.4091797-7.2571106 10.1882324-12.2700195 12.1503906-6.6040039 2.5859375-13.2080078 5.171875-19.8115234 7.7568359-.8886719.3486328-.5019531 1.7998047.3989258 1.4472656.972168-.3808594 1.9448242-.7617188 2.9169922-1.1425781 4.6308594-.4648438 8.5166016-1.4394531 12.7182617-2.3066406 5.4208984-1.1201172 11.5849609-2.2607422 16.75-4.25 4.9002075-1.8884888 9.3942871-2.8101044 13.1289063-6.7734375 3.4067841-3.6154175 1.9488068-6.7220001-1.5844727-9.9160156-3.8710938-3.5-7.7416992-7-11.612793-10.5-.9560547-.8642578-1.9614258-1.7490234-3.081543-2.3613281 3.6391602-1.4658203 7.2788086-2.9277344 10.9179688-4.3857422-.0898438 3.4550781 3.0258789 6.5429688 6.7768555 6.0820313l.4233398.1298828c3.7291412.5530243 11.2365875.4101257 11.5702972-3.3417969.1137695-1.2773438-.8100586-2.4658203-1.9453125-3.0634766-1.0830078-.5703125-2.3291016-.7128906-3.550293-.8291016.0898438-1.3447266-.1875-2.7099609-.894043-3.9433594.8623047-.4316406 1.1030273-1.3486328.7587891-2.0371094.2983398-1.7509766.5292969-3.5126953.6279297-5.2880859.0717773-1.2998047-.5771484-4.2871094.0292969-5.3115234.421875-.7128906.1469727-1.6240234-.5380859-2.0517578-2.8530273-1.7861328-5.7592621-3.4726563-8.6938324-5.1152344 2.6933594-1.1220703 5.3818207-2.2548828 8.0639496-3.4042969.8085938-.3476563.8632813-1.2080078.5483398-1.8886719 15.421875-80.7018585 9.9737244-46.0437012 16.2373047-76.9785156 2.188385-.4540939 3.9102173-3.4750824 4.0493164-4.7216797.5122071-2.4482421.2338868-5.7499999-2.3842773-6.8476561zm-1.0161132 2.8359375c1.0209961.5146484.6171875 2.8076172.4321289 3.5566406-.9099731 2.7185059-2.1473999 2.5056992-2.5341797 1.6083984.0415649-3.4329681.0361328-2.9801636.0366211-3.0214844 1.1126099-2.0893173.9631348-1.8183746.9775391-1.8417969.3144531-.330078.684082-.5058593 1.0878906-.3017577zm-84.7621918 14.6455078c-.0322266-2.7441406 1.8710938-6.4355469 2.6918945-9.0429688 1.2231445-3.8857422 2.4077148-7.7851563 3.5869141-11.6845703.8651123.2684784 1.6616821.0434036 2.4091797-.5058594 23.7055664 4.7871094 47.4916992 9.1523438 71.3564301 13.0683594.2709961.6005859.6538086 1.1259766 1.159668 1.5302734-1.6289063 8.0361328-3.5878906 15.9814453-5.652832 23.9130859-23.457016-1.1582031-47.3388519-4.7001953-69.003891-14.1240234-1.0610352-.4619141-2.1796875.0761719-2.2568359 1.2949219-.0151367.2353516-.1669922.5253906-.4013672.8447266-1.7050783-1.4609375-3.8603517-2.8222656-3.8891603-5.2939453zm50.5732422 76.7060547c.8486328-4.0058594 1.6845703-8.0146484 2.5136719-12.0244141 4.7299805-2.1367188 9.4594727-4.2724609 14.1889496-6.4091797-.7954102 4.1601563-1.590332 8.3212891-2.3852539 12.4814453-4.7534028 2.03125-9.5243989 4.0185547-14.3173676 5.9521485zm-93.2368164-24.4013672c6.5524445 2.0988922 6.0709381 1.914444-.1635742.1347656.0546874-.0449219.1088867-.0898437.1635742-.1347656zm50.262207 40.1445312c-.1171875-2.3564453-.2124023-4.7226563-.3061523-7.0927734 2.7270508-1.2304688 5.4541016-2.4609375 8.1811523-3.6933594-.2441406 2.9160156-.5058594 5.8271484-.7836914 8.7275391-2.3579102.7744141-4.7231445 1.4667969-7.0913086 2.0585937zm25.0229492-20.0644531c-.0878906.1318359-.1411133.2910156-.1411133.4345703 0 .1608887-10.121994 4.1009369-15.3037109 6.4375.2275391-2.9013672.4121094-5.8037109.5683594-8.7021484 5.4350586-3.1142578 10.8671875-6.2324219 16.2949219-9.3574219-.378418 3.741211-.847168 7.4746094-1.4184571 11.1875zm-14.7841797-3.6123047c.0288086-.5976563.0688477-1.1962891.0932617-1.7929688.0390625-.9658203-1.4609375-.9638672-1.5 0-.0366211.8916016-.09375 1.7861328-.1391602 2.6787109-6.5510254 3.7536011-5.5571747 3.1730042-5.7436523 3.3173828-.1883392.1329498-.2871094.3804321-.2871094.5742188v.0097656c0 1.003891 1.236908.6451569 1.128418.6376953 1.6030273-.9199219 3.206543-1.8378906 4.8100586-2.7568359-.1616211 2.8388672-.3544922 5.6806641-.5820313 8.5205078-2.796875 1.2626953-5.5932617 2.5253906-8.3901367 3.7880859-.1962891-4.8613281-.4326172-9.7246094-.9272461-14.5283203 9.5581055-7.1708984 19.078125-14.3515625 28.8125-21.265625-.2504883 3.7949219-.5410156 7.6044922-.9013672 11.4130859-5.4531249 3.1425783-10.911621 6.2753908-16.3735351 9.404297zm-.8046875 12.1875c5.1069336-2.3076172 10.2128906-4.6152344 15.3217773-6.9169922-.5810547 3.5517578-1.2724609 7.0771484-2.1069336 10.5644531-4.6147461 1.8066406-9.2944336 3.6533203-14.0087891 5.2617188.2822267-2.961914.5493165-5.9335937.7939454-8.9091797zm31.9223633-3.6113281c-9.4147644 3.7692566-12.0129089 4.6512146-17.0180664 6.5986328.8466797-3.6699219 1.5493164-7.3798828 2.1279297-11.1181641 2.0908508-.4289551 15.67659-6.6394348 17.3364258-7.3867188-2.6233826 12.6672517-2.470871 11.6150819-2.4462891 11.9062501zm-14.6806641-5.8183594c.5507813-3.7333984.9873047-7.4882813 1.3535156-11.2460938 6.3955078-3.6865234 12.7753906-7.3984375 19.1318359-11.1523438-.9936523 4.8330078-1.9868164 9.6669922-2.9853516 14.4990234-5.8330077 2.6347658-11.6645506 5.2714845-17.4999999 7.8994142zm1.5219727-13.0732422c.3535156-3.8769531.6420898-7.7509766.8901367-11.6054688 4.3853302-3.0923615 9.2313385-6.5614929 21.5625-14.5126953-1.0395508 4.9306641-2.0634766 9.8662109-3.0795898 14.8017578-6.4365235 3.8095704-12.8950196 7.5791017-19.3730469 11.3164063zm31.8217621-1.9765625c-4.7182465 2.1318359-9.4394379 4.2587891-14.1581879 6.390625 1.0161133-4.9257813 2.0288086-9.8515625 3.0419922-14.7773438 3.2470703-1.9238281 6.496582-3.84375 9.7270355-5.796875.8251953-.4990234.0717773-1.7958984-.7573242-1.2949219-2.8427582 1.7177734-5.7040863 3.4052734-8.5600433 5.1005859 1.0244141-4.9716797 2.0556641-9.9423828 3.1069336-14.9082031 1.763092-1.1284637 10.6006927-6.8633499 14.0825043-8.6396484-2.1611329 11.3085938-4.3217774 22.6171876-6.4829102 33.9257813zm-60.9492035-50.055664c20.9130859 8.7841797 43.6513672 12.4179688 66.2148285 13.7109375-46.8204346 28.0337067-9.7150269 5.4896393-59.1313324 37.3837891-1.6303711-14.3769531-2.8935547-28.78125-4.0717773-43.2041016-.1557617-1.9111328-3.1572266-1.9277344-3 0 1.2055664 14.7548828 2.4956055 29.4912109 4.1821289 44.1992188-17.684082-1.9990234-35.5209961-4.4541016-53.2114258-6.46875 5.8864441-4.793625 45.5125427-39.0342332 49.0175781-45.6210938zm-22.3217774 13.0341797c.4291992 1.75.3764648 3.5615234-.1645508 5.3076172-.4228516.4013672-.8413086.8076172-1.265625 1.2080078-15.1445313 3.9882813-30.1416016 8.6103516-44.9897461 13.6542969-2.1552734-.8515625-4.0175781-3.6503906-4.9296875-5.359375-3.5004578-6.5610275 1.533638-.1119995-10.7231445-23.1835938-.1040039-1.2998047.0048828-2.5839844.3120117-3.8320313.0475311.1017075 9.7907867 19.6077194 9.8486328 19.7119141 1.1342773 2.0429688 2.4755859 4.1152344 4.6733398 5.1464844 5.644043 2.6494141 14.7675781-1.6865234 20.2543945-3.2119141 21.6351471-6.0129089 19.9611816-3.9477921 23.8212891-6.2011719 1.6499025-.9638671 2.6342775-2.0615234 3.163086-3.2402343zm-11.3544921 67.6845703c-6.1739655 2.0923767-47.7001114 16.3174896-50.1176758 16.7011719-5.8037109.921875-7.8203125-1.0820313-9.9692383-5.5722656-2.0649414-4.3154297-3.7675781-8.8789063-5.5170898-13.3271484-1.8759766-4.7685547-3.5917969-9.5810547-5.0561523-14.4707031 1.953125 4.2880859 3.9130859 8.5732422 5.8696289 12.859375 1.7924805 3.9267578 3.2397461 9.3066406 6.2431641 12.5 4.7014084 4.9969177 7.3049774 1.1079254 48.2133789-11.9238281 3.4438475 1.0820311 6.8876952 2.1621092 10.3339843 3.2333983zm-78.3764649-17.1962891c-1.3120117-3.7929688-3.0273438-9.1113281-6.3916016-10.7431641 2.581543-.5498047 5.1816406-1.5302734 7.4726563-2.3203125 1.1210938-.3867188 2.2524414-.7626953 3.3901367-1.1337891-.5219727 1.1855469-.6928711 2.4306641-.6245117 3.703125-.2197266.1611328-.3657227.4257813-.2958984.765625 2.1645508 10.4863281 5.8295898 20.4912109 9.894043 30.3720703 2.0908203 5.0820313 4.2265625 14.2880859 10.8227539 15.1494141-2.3564453.8359375-4.7138672 1.6708984-7.0649414 2.5185547 1.8803558-2.8273315-2.2293702-9.2103729-17.2026368-38.3115234m11.1274414-66.3378906c4.5610352-1.1083984 8.480957-.2695313 10.9677734 3.8486328 3.1289139 5.1837463 6.2450333 11.1063995 8.6879883 16.4707031.0456161.1002197 6.5028763 9.76474-1.921875 13.0205078-6.2680664 2.4228516-12.8984375 4.1591797-19.296875 6.2128906-3.1591797 1.0136719-6.3183594 2.0273438-9.4775391 3.0419922-2.7851563.8935547-5.9111328 2.4570313-8.8271484 2.7441406-2.9448242.2900391-6.3925781-1.2841797-7.4985352-4.0166016-.5649414-1.3945313-.9663086-2.8701172-1.472168-4.2880859-.8339844-2.3359375-1.7226563-4.6503906-2.7011719-6.9306641-2.4438477-5.6933594-8.7719727-13.640625-2.0883789-18.7783203 2.1212694-1.6309127 31.0507661-10.6990432 33.6279298-11.3251952zm15.9643555 1.5078125c-.4155273 1.0625-.6904297 2.1455078-.8330078 3.2490234-1.1630859-2.2636719-2.4799805-4.6201172-4.215332-6.3193359 1.4692383-.3867188 2.9384766-.7724609 4.4077148-1.1591797-.1508789 1.3271484.1333008 2.7714844.640625 4.2294922zm-47.6958008 36.3242187c1.5712891 4.4003906 2.7114258 9.9638672 8.1591797 10.7783203 5.9711914.8935547 13.4648438-3.1669922 19.0161133-4.9482422 7.8632813-2.5234375 16.0551758-4.6259766 23.7275391-7.6806641 2.1445313-.8535156 3.6005859-2.0087891 4.5410156-3.3662109.9936523 3.1416016-.6494141 5.5878906-3.3105469 7.5048828-30.2536087 10.783783-19.0812454 7.6856232-32.6474609 12.3291016-2.8740234.9824219-6.2729492 2.4794922-9.3789063 2.1640625-6.1425781-.625-7.2832031-6.4931641-8.8574219-11.2353516-1.2802734-3.8574219-2.4770508-7.7392578-3.6166992-11.6386719.8515625 2.0039064 1.6337891 4.038086 2.3671875 6.0927735zm56.3442383-6.9755859c.1914063-.5429688.3232422-1.1064453.4008789-1.6894531 1.2436523 2.8935547 2.9375 5.9492188 5.027832 7.5830078-2.1938477.7519531-4.3847656 1.5097656-6.5712891 2.2802734 1.7636719-2.3515625 2.5097657-5.2080078 1.1425782-8.1738281zm38.3530273-42.0996094c9.8446045 15.1194077 16.2036743 25.3468933 9.9106445 28.1220703-5.0424805 2.2236328-11.5717773 2.6513672-16.9379883 4.1054688-5.3681641 1.4550781-10.7036133 3.0371094-16.1010742 4.3818359-3.7353516.9306641-7.5991211 1.2695313-9.9277344-2.3974609-1.4672852-2.3105469-2.5205078-4.9599609-3.7084961-7.4150391-1.3847656-2.8623047-2.7573242-5.7294922-4.1176758-8.6035156-.9355469-1.9755859-5.0029297-8.1152344-3.5522461-10.1826172 10.8999023-4.0019531 21.9130859-7.7060547 33.0571289-10.9707031 5.4694215-1.6000137 8.2547609-1.8363342 11.3774415 2.9599609zm-84.8374023-3.8886718c.2231445.4199219.4375.8447266.6635742 1.2636719 1.8208008 3.3740234 3.7875977 7.5380859 7.5083008 9.1835938 4.6083679 2.0378342 66.0311737-14.7756042 66.1455078-14.8222656 1.3271484-.5419922 2.4799805-1.2822266 3.3730469-2.2275391.0415039 1.1113281.0834961 2.2236328.1254883 3.3349609-4.3537292.2601776-32.5412827 10.1784058-38.9580078 12.5429688-.0083008.0039063-.0166016.0058594-.0244141.0097656-.7256088.2646255-1.2202377.6268082-1.2651367 1.4755859-2.0688477.5439453-4.1381836 1.0878906-6.2070313 1.6318359-1.1591797-.7675781-2.4882813-1.2373047-4.0419922-1.2509766-6.7617188-.0566406-14.1015625 3.1347656-20.6674805 5.5214844-2.4311523-5.4775391-4.6499023-11.0292969-6.6518554-16.6630859zm-37.5239258 28.7607421c-3.6943359 1.1601563-7.3818359 2.3417969-11.0688477 3.5263672-.609375-1.6484375-1.2192383-3.296875-1.8291016-4.9443359 1.1887188.2354813 44.3307495-7.7426224 48.0532227-12.8105469.3276367 1.59375.6547852 3.1865234.9824219 4.7792969-4.8706055 1.3564453-10.2709961 2.8574219-13.5009766 6-3.6894531 1.1201172-7.3789063 2.2402344-11.0683594 3.3603516-3.4643401-2.4072495-7.5659179-1.1685029-11.5683593.0888671zm24.2045899 34.7177735c.2568359-3.5273438-1.8251953-8.0166016-2.6933594-11.0556641-1.496582-5.2421875-3.1826172-10.4365234-5.0859375-15.5458984-.8798828-2.3623047-1.7744141-5.1044922-3.5214844-7.0429688 2.6977539-.8193359 5.3955078-1.6376953 8.0932617-2.4570313-1.0258789 1.7441406-1.4970703 3.8847656-1.1606445 6.5625.2402344 1.9150391.9267578 3.5908203 1.7441406 5.2421875 1.3647461 5.0751953 2.8154297 10.125 4.4003906 15.1357422 2.0068817 6.3448181 3.3563004 13.8602142 8.421875 16.0898438-.7395248.1449585-9.6484413 2.2439117-9.7490234 2.2675781 1.1542969-2.9824218 1.0039063-6.3203125-.4492187-9.196289zm-28.8642579 44.0419922c-1.4614258-5.9931641-7.1186523-18.6572266-.1274414-22.7119141 6.0585938-3.5126953 14.1787109-5.0380859 20.8798828-6.8789063 2.2960701-.6311798 17.9898682-4.8135223 21.1396484-4.7851563 6.1938477.0556641 6.9873047 5.9462891 8.5942383 10.5898438 1.2700195 3.6708984 2.5400391 7.3417969 3.8105469 11.0126953 1.2700195 3.6708984 2.5595703 7.3349609 3.8105469 11.0126953.9082031 2.6708984 1.1875 3.2714844.2373047 6.2714844-1.090332 3.4433594-1.9697266 3.4599609-5.1010742 4.4375-14.3198242 4.4697266-28.6855469 8.7949219-43.0283203 13.1904297-.2407227-.0634766-.5151367-.0595703-.8232422.0527344-4.9526367 1.8066406-5.9370117-8.0273438-6.6079102-10.7792969-.9282226-3.8046875-1.855957-7.6083984-2.7841797-11.4121093zm7.6879883 27.4580078c-.6513672-.6914063-1.2041016-1.4707031-1.6982422-2.2910156 2.5866356 1.1066742 4.7412987-.05159 29.5537109-7.6552734 7.3613281-2.2568359 15.9995117-3.6855469 22.828125-7.2646484 1.9926758-1.0449219 3.1025391-2.3613281 3.6357422-3.8525391.2436523.8984375.355957 1.8017578.2514648 2.6884766-.6367188 5.3837891-4.7548828 6.8925781-9.0756836 8.5732422-36.934101 14.3746947-41.8699759 13.650009-45.4951171 9.8017577zm109.8232422-43.772461c-.5942383-6.53125-1.4648438-12.9599609-2.5727539-19.4326172-.3251953-1.8994141-3.2167969-1.0947266-2.8930664.796875 3.5427551 20.6891022 1.5022278 20.5420837 4.0068359 21.3212891-12.0307617 4.0097656-23.9833984 8.5966797-36.1289063 12.0742188-4.8759766 1.3955078-6.3359375-2.7988281-7.9814453-6.4052734-1.4858398-3.2578125-2.9726563-6.5146484-4.4594727-9.7705078-1.6220703-3.5527344-3.2563477-7.1005859-4.8652344-10.6591797-1.5336914-3.3925781-4.6992188-8.5712891-1.5361328-12.0175781 24.6860352-9.5263672 49.8271484-18.2099609 75.3896484-25.2099609-7.9985352 7.3369141-16.2280273 14.4130859-24.6791992 21.2275391-1.112854.897934.0228882 2.9034729.9116211 3.1572266 57.4692535 16.4126587 42.7243347 11.8837891 48.8242188 13.5986328.8979492 8.1767578.9912109 16.5458984 1.418457 24.7744141-2.5725554.089752-45.3310698-13.4226687-45.4345702-13.4550784zm13.4716797 25.8369141c2.8818359 1.0185547 5.7402344 2.2392578 8.5795898 3.4716797-1.1728516 1.8535156-3.3383789 3.0488281-5.5488281 2.234375-2.2573242-.8320313-3.3500976-3.4296875-3.0307617-5.7060547zm.3632812-3.0683594c4.9189453-3.7216797 9.9331055-7.3056641 15.0581055-10.7412109 5.8442383 1.7011719 11.7133789 3.3164063 17.6289063 4.7744141.4951172.1220703 1.1083984.0185547 1.4594727-.3857422.0830078-.0947266.1914063-.171875.2866211-.2587891 6.5.8837891 12.8793945 1.9511719 19.4628906 2.0683594 9.2019348-6.0683594 19.3706055-13.6928406 28.840332-20.0703125 3.2470703 1.7744141 6.4414063 3.6308594 9.5903168 5.5732422-.163147.0978241-48.2838287 28.4541321-56.694809 33.0039063-.1009216-.0416413-35.5301666-13.9300996-35.631836-13.9638673zm44.6391602 13.9082032c2.9916992 2.2041016.8989258 6.5751953-1.8964844 7.7675781-3.2460938 1.3847656-6.4077148-1.4355469-5.3359375-4.7978516.0527344-.1660156.0688477-.3203125.0698242-.4677734 2.2973633-.9121094 4.5957031-1.8330078 6.8935547-2.7509766.0771485.0878906.1650391.171875.269043.2490235zm40.4785156-16.609375c2.0454102-.8173828 4.090332-1.6347656 6.1352386-2.4472656 1.8076172 2.2421875.2749023 5.6455078-2.1869965 6.6582031-2.7070311 1.1123046-5.5917968-1.4980469-3.9482421-4.2109375z"/><path d="m207.9241486 217.4725952c.0556641-.0585938.1113281-.1171875.1669922-.1757813.5566406-.5878906.5834961-1.5371094 0-2.1210938-.5625-.5625-1.5625-.5908203-2.121582 0-.0556641.0585938-.1108398.1171875-.1665039.1757813-.5571289.5878906-.5839844 1.5371094 0 2.1210938.5620116.5625 1.5624999.5908203 2.1210937 0z"/><path d="m253.3636017 198.0214233c1.9301758 0 1.9335938-3 0-3-1.9301758 0-1.9335938 3 0 3z"/></g></g></svg>