<svg id="Layer_1" enable-background="new 0 0 300 300" height="512" viewBox="0 0 300 300" width="512" xmlns="http://www.w3.org/2000/svg"><g id="Checkout_your_order"><g><path d="m93.4430161 245.4457703c-.4282227 5.8173828 3.2001953 12.7158203 9.949707 11.9628906 6.8208008-.7617188 8.8217773-8.1933594 7.7211914-13.9296875.2138672-.1904297.3364258-.3896484.3154297-.5996094-.1484375-1.4443359-6.3164063-1.2070313-9.5566406-.8828125-3.2412109.3271484-9.3320313 1.3291016-9.1865234 2.7753906.0297851.2890625.3164062.5058594.7568359.6738282zm9.7519531 10.4257812c-5.7573242.5019531-8.4936523-5.1542969-8.2636719-10.0976563 2.1079025.2481384 5.2206802.0908508 7.3115234-.1201172 2.125-.2148438 5.4648438-.7197266 7.4794922-1.4492188.7890625 4.779297-.7534179 11.1640626-6.5273437 11.6669923z"/><path d="m274.6686096 23.0209599c1.3398438-1.2060547-.362793-3.0488281-1.8173828-2.3554688-5.0690918 2.4132042-75.6014099 47.3046951-151.5595703 90.0146484-4.1430664-4.2060547-8.5878906-8.2597656-14.7744141-7.4277344-9.1333084-19.010744-17.0063553-38.58008-24.0825271-58.491209-.3564453-1.0019531-1.6953125-1.5527344-2.5073242-.6611328-12.6020508 13.8261719-24.1040001 28.6601525-37.9599572 41.2998009-.4243164.3867188-.5107422 1.0361328-.3256836 1.5683594-.1982422 5.4902344-.3959961 10.9912109-.6035156 16.4824219 10.0249023 12.1181641 19.7143555 23.6376953 29.383297 34.8886795-6.5331764 17.2105408-6.8606148 35.4515381-6.5019493 36.5556641-9.3461914 1.3574219-18.6923828 2.7177734-28.0400391 4.0693359-1.0356445.1494141-1.2636719 1.0722656-.9560547 1.8398438-.0012856.0035706 2.1068954 76.2962036 2.0522461 76.6621094-2.3706055.5966797-8.7895508 2.6162109-12.1303711 3.4130859 15.0859375 6.0341797 41.1821251 14.2412109 53.8710899 16.6748047 1.5478516.625 3.0966797 1.2480469 4.652832 1.8544922.3974152.1548462 1.3159256.0354004 1.4633789 0 9.7563477-2.3242188 19.5273438-4.5839844 29.3012695-6.8320313-.2407227.6181641-.137207 1.3808594.5668945 1.8486328 10.2001953 6.7734375 22.6533279 4.0205078 29.7910233-5.8818359.7788086-1.0810547 1.4604492-2.2373047 2.0947266-3.4277344 17.7004852-4.0910645 21.8251038-5.1203003 22.4438477-5.2617188.6635742-.0917969 1.2675781-.5664063 1.2749023-1.4296875.2158203-24.6464844.6723633-49.2900391.8881836-73.9365234.0132904-1.5747223-.2548981-3.1854095-1.7866211-3.5742188-6.4204102-1.6318359-12.8398438-3.2666016-19.2602539-4.8984375-1.9165039-9.7685547-4.5820313-19.3925781-7.9873047-28.8125 43.0937501-42.5175858 87.5229493-83.6855507 132.5092774-124.1816463zm-13.3608398 8.0234375c-40.8051758 36.9169902-81.0952149 74.4384746-120.2871094 113.0693416-4.0315857-10.5966644-7.8832092-19.2491837-14.1201248-27.115242 68.3938522-48.7463303 107.3406448-68.0596733 134.4072342-85.9540996zm-142.3330155 80.9355449c-5.69104 3.1914291-5.7255249 3.1881943-6.4145508 3.3886719-1.5859375-3.0683594-3.1352539-6.1523438-4.6503906-9.2529297 3.7114258-.0654297 7.6083985 2.5488281 11.0649414 5.8642578zm-38.5454101-63.951168c9.3613281 26.0615196 20.0996094 51.5380821 33.269043 75.9238281.3294067 1.3223648 2.2119598 1.9112244 2.940918.4042969 2.7104492-1.9560547 5.4228516-3.9042969 8.137207-5.84375 7.183342 9.2062149 9.3949356 15.7711258 13.9570389 27.8515701-10.309082 10.1845703-20.5419998 20.4472656-30.6860428 30.796875-24.3723907-28.5040588-44.6030884-58.1651917-63.1289024-90.4287186 12.8862304-11.9179725 23.7934531-25.680664 35.5107383-38.7041015zm69.7343826 148.3369178c1.3327332 15.9097443.1359711 53.4212189-5.6777344 66.15625-19.6489334 4.5371094-39.3203201 8.9775391-58.9394608 13.6396484-1.0083008-26.5537109-1.2167969-53.1298828-2.0175781-79.6904297 22.0024414-2.1142578 43.9355469-4.8046875 65.7373123-8.3867188.3608399 2.7519533.6655274 5.5117189.897461 8.2812501zm-49.8188553-23.7226562c1.315918 1.5908203 2.6425781 3.171875 3.9770508 4.7480469-16.9365234 2.65625-33.8837891 5.2607422-50.8432579 7.765625 0 0 0 0-.0004883 0-4.2285156-1.2597656-8.4462891-2.5605469-12.6518555-3.9023438 19.8393555-2.8720703 39.6743126-5.774414 59.5185509-8.6113281zm-37.0771446 18.4873047c.0332031 9.1220703.3261719 18.2402344.4042969 27.3613281-2.1831055-4.6591797-4.3217773-9.3574219-6.0463867-14.2001953-.2905273-.8164063-1.4916992-.5712891-1.4804688.1572266-1.1704102 1.6767578-2.1811523 3.4501953-3.0952148 5.2753906-.1054688-5.6015625-.309082-11.2001953-.371582-16.8027344-.0107422-.9648438-1.5107422-.9677734-1.5 0 .0727539 6.5673828.3496094 13.1289063.4223633 19.6962891.0078125.671875.7314453.8662109 1.1704102.6015625.1035156-.0185547 2.1713867-.3769531 3.1318359-.5341797.5922852-1.3691406 1.0678711-2.9619141 1.6601563-4.3310547 0 0 .5856628 1.9287415 5.9077148 13.2294922.3063545.6497345 1.4282188.9503021 1.6826134.1679688.9970703-1.5029297 2.387207-2.8203125 3.2944336-4.2919922-.0537109-8.0839844.2128906-16.5947266.6660156-24.6806641 3.7646484 1.0400391 7.5356445 2.0566406 11.3125 3.0556641.0244141.0683594.0561523.1328125.090332.1962891.8085938 26.6083984 1.0151367 53.2324219 2.019043 79.8349609-14.5043945-5.7285156-28.610836-12.3115234-42.5683556-19.2607422-.5986328-24.3671875-1.3505859-48.7294922-1.9536133-73.0957031 8.3706054 2.7021484 16.7939453 5.2236327 25.2539062 7.6210937zm19.6826134 2.3984375c-.3907089-.3085327.3249435.0059357-10.144043-2.8515625 43.9733429-4.8806915 66.5608444-12.1272888 71.5273514-13.0449219 1.137207.2890625 2.2749023.5791016 3.4121094.8681641.4101563 2.2001953.7792969 4.4091797 1.1074219 6.625-21.8554764 3.5966797-43.8432694 6.2929687-65.9028397 8.4033203zm25.1977539-12.6748047c.3193359-.0507813.6640625-.1914063.8808594-.4130859.8735352-.8925781 1.753418-1.7792969 2.628418-2.6708984 6.9560547-1.0634766 13.9130859-2.1191406 20.8754959-3.1396484 2.7802734.7080078 5.5610352 1.4150391 8.3413086 2.1220703-70.4088974 13.0318146-68.5709 9.7436676-77.2802734 11.3515625-2.2543945-.6396484-4.5068359-1.2871094-6.7558594-1.9462891 16.2153282-2.40625 32.4199181-4.8916016 48.6137657-7.4335938.4873047.5703125.9663086 1.1474609 1.4555664 1.7167969.3032188.352539.7841758.4736328 1.2407188.4130859m5.2543945-4.8564453c1.6347656-1.6621094 3.2670898-3.3271484 4.9067383-4.984375 3.4960938.8896484 6.9926758 1.7783203 10.4887772 2.6679688-5.1337967.7597656-10.2651444 1.5341796-15.3955155 2.3164062zm-40.7724609-35.0947266c18.0235062 20.9147644 22.6495132 25.5587006 25.5009766 29.0517578-10.4355469 1.4931641-20.8686523 3.0019531-31.3012695 4.5175781.7327727-10.9915771.8189086-19.7967987 5.8002929-33.5693359zm67.537117 128.1621094c-6.5566406 6.9326172-15.6850662 8.0585938-23.6381912 2.9609375 8.668457-1.9912109 17.33741-3.9814453 26.0048904-5.9785156-.7001953 1.0615234-1.4770508 2.0761718-2.3666992 3.0175781zm11.890625-81.4550781c5.3862305-.9042969 10.7646484-1.8583984 16.1333008-2.8779297-.2133789 24.1503906-.652832 48.2978516-.8720703 72.4482422-6.3642578 1.5146484-12.7338867 3.0039063-19.1064453 4.4804688 6.349533-15.7808228 6.455841-54.5561677 3.8452148-74.0507813zm11.5605469-5.0722657c-3.9819336.734375-7.9682617 1.4384766-11.9599609 2.1103516-.269043-1.7978516-.5712891-3.5898438-.890625-5.3789063 4.2836913 1.0888672 8.5668944 2.1796876 12.8505859 3.2685547zm-16.5092774-7.2949218c-8.7832031-2.2333984-17.565918-4.4658203-26.3481522-6.7021484 6.3388672-6.3925781 12.7080154-12.7548828 19.1098709-19.0849609 3.0156251 8.4179686 5.444336 17.0361327 7.2382813 25.7871093z"/><path d="m49.5870628 229.4154968c4.7954102 1.7148438 9.5908203 3.4296875 14.3862305 5.1455078.9106407.3251953 1.3027306-1.1240234.398922-1.4472656-4.7954063-1.7148438-9.5908165-3.4296875-14.3862267-5.1445313-.9106445-.3261718-1.3027344 1.1230469-.3989258 1.4462891z"/><path d="m61.3712425 239.9506531c-2.722168-.9921875-5.4448242-1.9833984-8.1674805-2.9755859-.9082031-.3310547-1.2998047 1.1181641-.3984375 1.4462891 2.7226563.9921875 5.4448242 1.984375 8.1674805 2.9755859.9082031.3310546 1.2998047-1.1181641.3984375-1.4462891z"/><path d="m59.3775902 245.6000671c-.9433594-.2773438-1.887207-.5546875-2.8305664-.8320313-.9282227-.2734375-1.324707 1.1738281-.3989258 1.4462891.9433594.2773438 1.887207.5546875 2.8310547.8320313.9277344.2734375 1.3242187-1.1738281.3984375-1.4462891z"/><path d="m105.2164536 262.6967468c-.3496094.0693359-.6992188.1396484-1.0483398.2089844.0004883-1.0361328.0102539-2.0732422.0102539-3.109375.0004883-.9658203-1.4995117-.9667969-1.5 0 0 3.4799805-.0469208 3.123291.0341797 3.4013672-.2753906.0546875-.5507813.109375-.8261719.1650391-.9462891.1884766-.5458984 1.6347656.3984375 1.4462891 1.1103516-.2226563 2.2202148-.4443359 3.3305664-.6660156.9458007-.1894532.5454101-1.6357423-.3989258-1.4462892z"/><path d="m96.9693832 211.0951843c6.2421875-.6572266 12.5175781-.8681641 18.7617188-1.4980469.3930664 3.3339844.65625 6.6816406 1.0615234 10.0146484-5.8779297.6386719-11.7558594 1.2783203-17.6337891 1.9179688-.3081055-2.2783203-.3901367-4.5761719-.7568359-6.8496094-.1538086-.9511719-1.5996094-.5478516-1.4467773.3984375.4077148 2.5234375.4482422 5.0791016.8554688 7.6044922.0772018.4738922.4858704.6303406.8950195.4853516 7.3754883.3027344 14.7802734-.0966797 22.0786133-1.2050781-3.9279785-14.0382996-3.6625977-13.1201172-3.6625977-13.1201172-.1397781-.5061035-.3398209-.8479004-.8222656-.796875-6.4311523.6767578-12.8984375.8720703-19.3300781 1.5488281-.9501954.0996094-.9604493 1.600586-.0000001 1.5z"/><path d="m122.824852 246.2787781c6.7495193-1.4892578 13.4677811-3.1044922 20.1572342-4.8447266.9335938-.2421875.5375977-1.6894531-.3984375-1.4462891-6.6894531 1.7402344-13.4082031 3.3554688-20.1577225 4.8447266-.9423828.2070313-.543457 1.6542969.3989258 1.4462891z"/><path d="m137.5035706 248.9594421c-4.8144531 1.09375-9.6289139 2.1875-14.443367 3.28125-.940918.2138672-.5429688 1.6601563.3984375 1.4462891 4.8144608-1.09375 9.6289139-2.1875 14.443367-3.2802734.9409179-.2138672.5429687-1.6611328-.3984375-1.4472657z"/><path d="m129.7506409 257.4789734c-1.2578125.2958984-2.5161209.5917969-3.7744217.8876953-.9389648.2216797-.5415039 1.6679688.3989258 1.4462891 1.2583008-.2958984 2.5161209-.5917969 3.7744217-.8876953.9394531-.2207032.5415039-1.6679688-.3989258-1.4462891z"/></g></g></svg>