<svg id="Layer_1" enable-background="new 0 0 300 300" height="512" viewBox="0 0 300 300" width="512" xmlns="http://www.w3.org/2000/svg"><g id="Community"><g><path d="m200.2491455 59.4918823c-3.8018188.5739784-5.5184174 4.2623405-4.0961914 6.9614258.1953125 3.440918 3.0009766 6.8520508 6.7509766 5.2172852 1.3310547-.5800781 2.2939453-1.9038086 2.5-3.3378906 2.938324-3.2624207 1.0514679-9.2577667-3.9365234-9.4526367-.5839844-.0229493-.987793.2377929-1.2182618.6118163zm3.5249024 5.3242188c-.1611328 1.7817383-1.1928711 2.1796875-2.7734375 1.6884766-1.1293945-.3505859-2.5771484-.9736328-2.3076172-2.4174805.2734375-1.4604492 1.8242188-1.7607422 3.0605469-1.637207.3662109.0366211.6611328-.0444336.887207-.1982422.8051758.5180664 1.2280273 1.5141601 1.1333008 2.5644531z"/><path d="m258.34729 207.9284058c.824707.9443359 2.1147461.2851563 2.5073242-.6621094 1.6762695-4.043457 3.3056641-8.1064453 4.9624023-12.1582031 3.1762695-.2548828 6.3530273-.5019531 9.5283203-.7670898 3.3453979-.2787781 3.657959-.0330505 3.4150391-3.7246094-.0067139-.1020508-2.8016968-38.1054535-3.2216797-43.3833008-.0605469-.7573242-.6396484-1.5693359-1.5-1.5-.4541016.0366211-.9082031.0751953-1.3623047.1118164-1.6518555-1.3891602-3.6791992-3.0195313-5.1420898-4.2866211-21.8857422 1.875-42.3950195 3.25-63.8598633 5.7353516-1.5688477 1.3081055-3.4189453 2.7666016-5.1791992 4.1767578-1.3198242.1723633-2.4345703.4995117-3.0170898 1.1166992-1.6845703 1.7866211.1430664 9.2265625.315918 11.4741211.8964844 11.6547852 1.7587891 23.3120117 2.6821289 34.9643555.0605469.7573242.6401367 1.5693359 1.5 1.5 15.0834961-1.2143555 30.1669922-2.4282227 45.25-3.6420898 1.9116211-.1542969 1.9277344-3.1552734 0-3-14.625 1.1767578-29.2495117 2.3540039-43.8745117 3.53125-.9748688-12.3681946-1.9598999-25.6584625-2.7758789-36.1845703-.0976563-1.2597656-1.1147461-5.3212891-.2036133-6.2890625.7753906-.8232422 5.9858398-.4848633 7.2099609-.5844727 21.4802246-1.7499847 44.719162-3.7052612 67.0791016-5.5107422 1.1643066 14.8126373 2.0483093 28.3574066 3.0991211 41.7705078-.3251953 1.0302734-1.1181641 1.324707-2.3774414.8828125-1.9916992.484375-4.3046875.4658203-6.4511719.5532227-.1386719-1.7333984-2.3076172-1.8828125-2.9379883-.3618164-1.7050781 4.1142578-3.3618164 8.2480469-5.0488281 12.3696289-2.1201172-2.4291992-4.2402344-4.8583984-6.3598633-7.2880859-1.2719727-1.4575195-3.3862305.671875-2.121582 2.1210938 2.6279297 3.0117186 5.2558594 6.0234373 7.883789 9.0351561z"/><path d="m213.6890869 180.3043823c6.4297485-.8501892 7.1431885-6.0401611 4.3496094-8.652832-1.862793-3.5322266-7.5922852-5.6577148-9.6494141-1.2983398-.5771484 1.2236328-.4985352 2.7207031.1416016 3.9023438-.5232849 3.3431701 1.6030731 6.5194549 5.1582031 6.048828zm.1079102-3.0488281c-1.6694336.3637695-2.46875-.6787109-2.3378906-2.3154297.0776367-.9672852.5791016-1.734375 1.3378906-2.1230469.2299805.1777344.5322266.284668.9116211.2709961 1.2490234-.0449219 2.8071289.4619141 2.8720703 1.9638672.0644531 1.4960938-1.6123047 1.9487305-2.7836914 2.2036133z"/><path d="m255.2398682 176.9596558c6.6934509-.884903 7.1785583-6.4641571 3.9980469-8.9560547-1.9794922-3.3515625-7.4052734-4.9111328-9.4160156-.6503906-.5957031 1.2626953-.4892578 2.8139648.2084961 4.0117188-.2523499 3.3015593 1.8991851 6.0330199 5.2094726 5.5947265zm.1083984-3.0483399c-1.6694336.3637695-2.46875-.6791992-2.3378906-2.315918.0771484-.9672852.5791016-1.734375 1.3378906-2.1230469.2299805.1777344.5322266.2851563.9116211.2709961 1.2490234-.0449219 2.8071289.4624023 2.8720703 1.9643555.0644531 1.4956055-1.6123047 1.9482422-2.7836914 2.2036133z"/><path d="m104.6881104 208.1237183c22.5997696 3.3657074 46.1276245 6.9575043 67.0244141 10.0874023 2.0214844.3032227 5.3647461.1518555 7.1704102 1.0722656 1.6982422.8662109.8100586-.3198242 1.2949219 1.4765625.2456055.909668-.40625 2.7875977-.5439453 3.734375-1.7209473 11.85672-3.505249 24.4883423-5.359375 37.1518555-17.4306946-2.6083984-46.4089203-7.2119598-47.090332-7.1757813-.4267578-.097168-.8969727-.0029297-1.3017578.4023438-3.1689453 3.1733398-6.3432617 6.3422852-9.5146484 9.5136719-1.4194336-4.2558594-2.8061523-8.5229492-4.2431641-12.7729492-.5458984-1.6137695-2.5307617-1.2631836-2.8891602.2026367-2.9912109-.5166016-5.9692383-1.1025391-8.9619141-1.6113281 1.625-12.059082 3.5244141-24.0776367 5.2451172-36.1225586.2695313-1.8881836-2.6206055-2.7041016-2.8930664-.7973633-5.641304 39.495163-6.0682526 38.5437775-5.1054688 39.2875977.152832.1323242.3505859.2324219.6005859.2851563 1.4516602 1.6030273 2.9033203 3.2055664 4.3549805 4.8081055 3.0966797.4863281 6.0610352 1.3168945 9.1269531 1.8828125.8803711 2.6733398 1.7607422 5.347168 2.6625977 8.0136719.3554688 1.0507813 1.6743164 1.4960938 2.5073242.6621094.1411133-.1411133.2822266-.2822266.4233398-.4233398 2.2128906-.2109375 4.4257813-.421875 6.6381836-.6333008 1.6108398-1.7695313 3.3920898-3.5209961 5.0029297-5.2905273 16.4609375 2.3061523 28.5141602 4.109375 43.6411133 5.3896484.7915039-.715332 1.6015625-1.4311523 2.6845703-2.4746094.7197266.0957031 1.6894531-.1860352 1.8164063-1.050293 2.0830383-14.1884155 4.0836639-28.4504089 6.0917969-42.1845703.1547852-1.0581055.9291992-2.8881836.2583008-3.9487305-1.3388672-2.1152344-8.5395508-1.9487305-10.8193359-2.2900391-22.3432617-3.3491211-44.6777344-6.7592773-67.0239258-10.0874023-1.8886721-.2812502-2.7036135 2.6088866-.7978517 2.892578z"/><path d="m21.591917 108.5402222c-1.3427734 2.050293.965332 9.2070313 1.2954102 11.4951172 1.6699219 11.5678711 3.3066406 23.1411133 5.0039063 34.7050781.1274414.8666992 1.1289063 1.1542969 1.8452148 1.0473633 14.9687519-2.2265625 29.9375019-4.4536133 44.9057617-6.6801758 1.9033203-.2832031 1.0942383-3.1743164-.7973633-2.8930664-14.4160156 2.1445313-28.8320313 4.2895508-43.2485352 6.434082-1.4008789-9.5698242-2.7651367-19.1445313-4.1401367-28.7182617-.3657227-2.543457-3.019043-11.8886719-1.3549805-13.5166016.9667969-.9453125 5.7490234-.8579102 7.1547871-1.0683594 23.2110138-3.4789505 44.588707-6.7391891 66.2695313-9.9707031 1.925621 13.1669846 3.6571732 26.061142 5.3583984 37.9121094.5924911 4.1262054 2.2495193 4.2865448-8.230957 5.5913086-.3144531-1.5087891-2.3496094-1.9106445-2.90625-.2631836-1.4375 4.2490234-2.8242188 8.5151367-4.2436523 12.7700195-2.2504883-2.2548828-4.5014648-4.5097656-6.7519531-6.7646484-1.3652344-1.3681641-3.4873047.7524414-2.1210938 2.121582 2.8222656 2.8276367 5.6450195 5.6557617 8.4677734 8.4833984.8325195.8344727 2.1513672.3886719 2.5068359-.6616211 1.4155273-4.1831055 2.7817383-8.3823242 4.1772461-12.5712891.0019531-.0004883.003418-.0004883.0053711-.0004883 2.5908203-.3857422 11.1235352-.1801758 12.6298828-2.4941406.3071289-.4716797.2915039-1.0947266.1953125-1.7104492 1.8623047-1.762207 3.8105469-2.9912109 5.6166992-5.1040039-2.027832-15.0859375-3.9072266-30.5356445-6.8261719-45.4736328-.3217773-1.6469727-1.9082031-2.7275391-3.5512695-2.4321289-23.9423828 4.3051758-47.8027344 8.6484375-71.8461914 12.3828125-1.8930664 1.7290039-4.3100586 3.9047852-6.5478516 5.9277344-1.3144549.288086-2.3930682.7304688-2.8657245 1.4521485z"/><path d="m42.7164307 124.5792847c-.2294922-.3740234-.6342773-.6337891-1.2197266-.6088867-5.9197845.2538528-6.8769951 8.0325317-2.8486328 10.3232422 2.375 3.2353516 8.3491211 4.0419922 9.644043-.6655273.3833008-1.3920898-.0249023-2.9584961-.9848633-4.0200195.0029297-.1337891.0073242-.2661133-.0019531-.4047852-.1650391-2.560547-2.2353516-4.2749024-4.5888672-4.6240235zm-2.3896485 2.7680664c.2255859.152832.5200195.2319336.8857422.1938477 1.2368164-.128418 2.7871094.1616211 3.0708008 1.6201172.2807617 1.4433594-1.1625977 2.074707-2.2915039 2.4301758-1.578125.4970703-2.6137695.1123047-2.7851563-1.6708984-.1005859-1.0473634.3173829-2.0493165 1.1201172-2.5732423z"/><path d="m62.3106689 121.6642456c-.2294922-.3740234-.6342773-.6337891-1.2197266-.6088867-5.9822235.2565308-6.8827133 8.1805878-2.7421875 10.3803711 2.5498047 2.9023438 8.0927734 3.4550781 9.3339844-1.0576172.3554688-1.2919922.0332031-2.737793-.7817383-3.7885742 0-.1000977.0053711-.1982422-.0009766-.3012695-.1655272-2.5605469-2.2353514-4.2749024-4.5893554-4.6240235zm-2.3896484 2.7680664c.2255859.152832.5200195.2319336.8862305.1938477 1.2363281-.128418 2.7866211.1616211 3.0703125 1.6201172.2807617 1.4433594-1.1621094 2.074707-2.2915039 2.4301758-1.5776367.4970703-2.6137695.1123047-2.7851563-1.6708984-.1005859-1.0473634.3173828-2.0493165 1.1201172-2.5732423z"/><path d="m80.2486572 128.3400269c2.5610352 2.8779297 8.0732422 3.4111328 9.3105469-1.0869141.3876953-1.4082031-.0336914-2.9960938-1.0175781-4.0581055-.1190796-2.6197281-2.1587372-4.3898544-4.5898438-4.7504883-.2294922-.3740234-.6342773-.6337891-1.2197266-.6088867-6.1581573.2640686-6.8708419 8.5523911-2.4833984 10.5043946zm1.3134766-7.1274415c.2255859.152832.5200195.2319336.8857422.1938477 1.2368164-.128418 2.7871094.1621094 3.0708008 1.6206055.2807617 1.4428711-1.1625977 2.074707-2.2915039 2.4301758-1.5776367.496582-2.6137695.1118164-2.7851563-1.6708984-.1005859-1.0478516.3173828-2.0498048 1.1201172-2.5737306z"/><path d="m55.9185791 159.6339722c-.3554688-1.8955078-3.2470703-1.0927734-2.8925781.7973633 4.4780273 23.8769531 18.2426758 45.0991211 38.1577148 58.9907227 1.5869141 1.1069336 3.0883789-1.4926758 1.5141602-2.590332-19.2958985-13.4599611-32.4477539-34.1035158-36.7792969-57.197754z"/><path d="m97.4801025 208.104187c.0927734-2.0068359.1323242-4.21875.2460938-6.1474609-14.3105469-8.8916016-23.6743164-24.7387695-25.7993164-41.5195313-2.0825195-.8442383-4.1650391-1.6879883-6.2475586-2.5322266-.0185547-.0961914-.0424805-.1904297-.0605469-.2871094-.3520508-1.8955078-3.2436523-1.0927734-2.8925781.7978516 3.9189453 21.1098633 15.8339844 39.9130859 33.3417969 52.3554688 1.5385437 1.0935211 3.1551361-1.4149628 1.4121093-2.6669922z"/><path d="m66.9591064 90.9406128c11.6679688-26.6870117 36.7641602-44.5825195 63.9643555-53.1435547 1.8354492-.5776367 1.0517578-3.4750977-.7973633-2.8930664-27.8759766 8.7744141-53.7905273 27.1513672-65.7573242 54.5224609-.765625 1.7519532 1.8183594 3.2807618 2.590332 1.5141602z"/><path d="m130.2926025 44.9869995c-23.0874023 7.831543-43.1694336 20.7026367-54.4882813 42.9394531-.8603516 1.6899414 1.6298828 3.1826172 2.5444336 1.5854492 2.8842773-.3579102 5.7885742-.5512695 8.6948242-.5620117 9.3520508-16.2875977 25.0029297-28.7436523 42.9477539-34.0444336.1572266-2.1328125.7998047-4.734375 1.1416016-7.0449219 1.7583009-.6499023.9794923-3.4907226-.840332-2.8735351z"/><path d="m260.3238525 137.1832886c-.0229492-28.355957-11.6489258-53.309082-31.3422852-73.3984375-1.3540039-1.3808594-3.4746094.7407227-2.121582 2.1210938 19.1538086 19.5385742 30.4414063 43.6953125 30.4638672 71.2773438.0019532 1.9306639 3.0019532 1.9335936 3-.0000001z"/><path d="m187.8756104 240.8800659c23.3393555-4.0849609 41.6591797-15.9331055 55.090332-35.4394531 1.0976563-1.5942383-1.5014648-3.0961914-2.590332-1.5141602-13.0014648 18.8823242-30.746582 30.1137695-53.2978516 34.0605469-1.8984375.3320313-1.09375 3.2236328.7978516 2.8930664z"/><path d="m189.1182861 230.1300659c17.7241211-3.1118164 32.8134766-12.984375 43.4067383-27.4394531 1.0825195-1.4770508-1.1953125-2.8950195-2.3994141-1.7275391-1.8349609-.2124023-3.6640625-.3789063-5.5048828-.6289063-8.3457031 10.4326172-20.3833008 17.5366211-33.3681641 20.4990234-1.0117188 2.144043-2.0234375 4.2885742-3.034668 6.4326172-1.7558593.4243165-.9531249 3.1894532.9003907 2.8642579z"/><path d="m141.4034424 86.1832886c2.8759766.2124023 5.9907227.7744141 8.9262695 1.0732422.7119141 2.1337891 1.4228516 4.2680664 2.1518555 6.3959961.3676758 1.0727539 1.6538086 1.4672852 2.5073242.6616211.1484375-.1401367.3066406-.269043.4575195-.4067383 3.4975586-.2583008 6.5546875-.1079102 10.6479492-.503418 1.2109375-.9042969 2.3969727-2.5664063 3.6074219-3.4707031 13.6782227 1.8818359 23.4926758 3.625 37.1655273 4.875 1.7709961-1.3320313 3.8730469-2.7373047 6.0019531-4.2241211.1166992.0170898.2338867.0341797.3510742.0512695 1.8886719.2734375 2.7041016-2.6166992.7978516-2.8930664-47.6631165-6.907608-44.7492523-6.49543-45.0048828-6.503418-.3774414-.1933594-.840332-.1933594-1.3115234.1494141-4.2910156 3.1235352-8.9946289 5.8232422-13.0751953 9.2441406-1.4536133-4.3012695-2.8720703-8.6142578-4.3432617-12.909668-.5581055-1.6298828-2.6025391-1.262207-2.9086914.269043-10.4308319-1.2622299-8.8324432-1.3963776-8.2514648-5.5551758 1.6630402-11.904705 3.3639832-24.9220467 5.2182617-37.9379883 24.7285156 3.5908203 49.4438477 7.2744141 74.1728516 10.8637695-1.5048828 11.6938477-3.0576172 23.3808594-4.765625 35.0473633-.2763672 1.8881836 2.6137695 2.7036133 2.8930664.7973633 1.8041992-12.3237305 3.4389648-24.6704102 5.0253906-37.0239258.1227264-.9568863-.6945038-1.4710236-1.3007813-1.559082-25.6357422-3.7182617-51.2563477-7.5439453-76.8920898-11.2622051-.7202148-.1044922-1.7197266.1699219-1.8452148 1.0478497-2.0227814 14.1148758-3.8358765 28.1914063-5.8061523 42.1264648-.1782837 1.2605515-.9066925 3.0477142-.1660156 4.1826172-.0224611.4341888.0198363.1034164 5.7465819 7.4643555z"/><path d="m122.5914307 239.7848511c1.3725586-.4057617 2.4770508-1.5737305 2.8720703-2.9467773 1.1489258-.8818359 1.8642578-2.3530273 1.9658203-4.0522461.1899414-3.1679688-2.128418-5.8154297-5.2895508-5.9506836-.5839844-.0249023-.987793.234375-1.2182617.6074219-2.3564453.347168-4.40625 2.0654297-4.5908203 4.625-.0439453.6147461.0322266 1.1762695.2001953 1.6884766-.2353516 3.4433593 2.1328125 7.1889647 6.0605469 6.0288085zm-3.2382813-7.7587891c.2836914-1.4584961 1.8339844-1.7485352 3.0708008-1.6201172.3652344.0380859.659668-.0415039.8852539-.1943359.8027344.5239258 1.2211914 1.5263672 1.1201172 2.5742188-.1708984 1.7827148-1.2070313 2.1669922-2.7851563 1.6704102-1.1289062-.3554689-2.5717773-.9873048-2.2910156-2.4301759z"/><path d="m144.2193604 243.0348511c1.3808594-.4082031 2.4912109-1.5878906 2.8793945-2.9716797 1.1523438-.8813477 1.8696289-2.3544922 1.9716797-4.0571289.1899414-3.1674805-2.1289063-5.8149414-5.2895508-5.9506836-.5839844-.0249023-.9882813.234375-1.2182617.6079102-2.3564453.347168-4.40625 2.0649414-4.5908203 4.625-.043457.605957.0288086 1.1606445.1914063 1.6669922-.2622071 3.4570312 2.1093749 7.2456054 6.0561523 6.0795898zm-3.225586-7.7885742c.2841797-1.4580078 1.8344727-1.7485352 3.0708008-1.6201172.3657227.0380859.6601563-.0410156.8852539-.1938477.8032227.5234375 1.2211914 1.5258789 1.1206055 2.5737305-.1713867 1.7827148-1.2075195 2.1674805-2.7851563 1.6708984-1.1289062-.3554687-2.5722656-.9873047-2.2915039-2.430664z"/><path d="m163.6099854 246.2848511c1.4589844-.4311523 2.628418-1.7197266 2.9492188-3.2045898 3.6903381-2.5987396 2.4840851-9.865448-3.184082-10.1088867-.5839844-.0249023-.9882813.234375-1.2182617.6079102-2.3564453.347168-4.40625 2.0649414-4.5908203 4.6245117-.0322266.4472656.0039063.8637695.0874023 1.2563477-.6997071 3.6264647 1.7226561 8.0756834 5.9565429 6.8247069zm-3.0219727-8.1225586c.2836914-1.4584961 1.8344727-1.7485352 3.0708008-1.6201172.3657227.0380859.659668-.0410156.8852539-.1938477.8032227.5234375 1.2211914 1.5258789 1.1206055 2.5737305-.1713867 1.7827148-1.2075195 2.1674805-2.7851563 1.6704102-1.1289062-.3549805-2.5722656-.9868164-2.2915039-2.4301758z"/><path d="m227.6138916 169.0202026c-.690918 1.4648438-.440918 3.3188477.590332 4.5546875-.0205078 3.0385742 2.0253906 5.5639648 5.2290039 5.1401367 7.0242157-.9288025 7.2780151-7.0750275 3.3896484-9.3696289-2.1274413-3.1220703-7.2646484-4.4453125-9.2089843-.3251953zm5.9277344 6.6464844c-1.6699219.3632813-2.4692383-.6791992-2.3378906-2.315918.0771484-.9672852.5791016-1.734375 1.3378906-2.1230469.2299805.1777344.5317383.284668.9116211.2709961 1.2490234-.0449219 2.8071289.4619141 2.8720703 1.9638672.0644531 1.4960938-1.6123047 1.9487305-2.7836914 2.2041016z"/><path d="m161.4737549 66.4142456c1.5107422-.6586914 2.5488281-2.2734375 2.5380859-3.9228516 3.0886841-3.1503868 1.3396912-9.3894196-3.8022461-9.590332-.5839844-.0229492-.9882813.237793-1.21875.6118164-3.6483917.5508156-5.389679 3.9760361-4.2441406 6.6547852-.3813477 3.7363281 2.6010742 8.0449218 6.7270508 6.246582zm-4.0385742-8.3066406c.2729492-1.4599609 1.8242188-1.7607422 3.0605469-1.637207.3662109.0371094.6611328-.0439453.8867188-.1982422.8051758.5185547 1.2285156 1.5146484 1.1337891 2.5649414-.1611328 1.78125-1.1928711 2.1791992-2.7734375 1.6884766-1.129883-.3510743-2.5776369-.9736329-2.3076173-2.4179688z"/><path d="m183.0162354 69.3375854c1.4101563-.6147461 2.4169922-2.0620117 2.5371094-3.5932617 3.1544495-2.9966431 1.5832672-9.499485-3.690918-9.7055664-.5839844-.0224609-.9882813.2382813-1.2182617.6123047-3.4166718.515831-5.3046265 3.6380997-4.3496094 6.3837891-.4174805 3.7495117 2.5751953 8.1098633 6.7216797 6.3027343zm-3.9282227-8.0917968c.2729492-1.4599609 1.8242188-1.7607422 3.0605469-1.637207.3662109.0366211.6611328-.0439453.887207-.1982422.8046875.5180664 1.2280273 1.5141602 1.1333008 2.5644531-.1611328 1.7817383-1.1928711 2.1796875-2.7734375 1.6889648-1.1293945-.3510742-2.5776367-.9741211-2.3076172-2.4179687z"/><path d="m240.319458 134.4118042c2.8349609.3891602 5.671875 1.3994141 8.3325195 2.565918.2890625 1.628418 2.9692383 1.5341797 2.9711914-.2944336.0258789-25.0893555-9.9916992-47.3623047-27.2880859-65.3105469-1.3422852-1.3925781-3.4619141.7299805-2.1210938 2.1210938.0561523.0585938.1103516.1181641.1665039.1767578-.7734375 3.1005859-1.6445313 6.5756836-2.7016602 9.3911133 14.3403321 12.6435546 22.4003907 32.2524413 20.6406251 51.3500976z"/></g></g></svg>