<svg id="Layer_1" enable-background="new 0 0 300 300" height="512" viewBox="0 0 300 300" width="512" xmlns="http://www.w3.org/2000/svg"><g id="Contact_Us"><g><path d="m275.4129028 155.0092773c-.0205078-.1835938-.1040039-.355957-.262207-.4799805.8486938-.6782227.5447998-4.766571-2.7128906-5.7021484-.0214844-.034668-.0292969-.0708008-.0581055-.1044922-5.0244141-5.8701172.4692383-12.8144531-.5751953-19.4794922.966095-.7996979.3086853-2.5579987-1.3129883-2.5908279-24.9550781-.5019531-49.6953125-4.4013672-73.8071289-10.7626953 2.956543-8.6923828 3.1777344-18.3266602.0717773-27.0380859-5.9814453-16.7744141-23.1186523-27.8427734-40.7548828-27.309082-13.5925903.4087982-29.3860855 9.9574203-35.9487381 25.309082-4.9702148 11.6274414-3.6723633 25.1508789 2.3862305 36.0439453-30.9306641 8.6894608-62.8745079 12.9907303-94.9472656 14.2568436-1.2958527.0508118-2.633234 2.4650726-1.0068359 3.2910156.0419922.0209961.0839844.0429688.1259766.0644531.512207 3.3227539 2.2460938 6.4301758 2.402832 9.7797852.2055664 4.3964844-2.5395508 8.5639648-2.7558594 13.1508789-3.1614094 1.2458496-3.1083164 5.3678436-2.1298828 5.9135742-.1293945.1254883-.1953125.2861328-.2207031.4526367-.1206055.0576172-.2338867.1420898-.3168945.2929688-1.4111328 2.5571289-2.1679688 5.2148438-2.3305664 8.1303711-.0336914.6132813.6513672.8740234 1.1289063.6479492 1.6601563-.7866211 3.3081055-1.5112305 5.1694336-1.2133789 1.0327148.1655273 2.0039063.7104492 3.0610352.7416992 1.1591797.0341797 2.1948242-.4667969 3.3764648-.4755859.7128906-.0053711.9145508.5107422 1.6870117.0581055 2.2097359-1.2929993-1.7653313-6.3303986-3.5087891-9.472168-.0493164-.0888672-.1113281-.1503906-.1757813-.2055664.4921761-2.6732025-1.5097446-5.2145538-4.2226563-5.1591797.3149414-4.40625 2.9321289-8.0761719 2.8271484-12.371582-.0795898-3.2524414-1.6713867-6.2631836-2.3447266-9.4301758 1.3374023.6796875 2.671875 1.3647461 4.0083008 2.0458984.0791016 2.2543945.4438477 4.4970703.4755859 6.7539063.0273438 1.9287109 3.027832 1.9345703 3 0-.0244141-1.730957-.2490234-3.4526367-.3891602-5.1787109 2.2583008 1.1538086 4.5195313 2.3012695 6.7758789 3.4584961-.1000977.1928711-.1630859.4189453-.1650391.6855469-.0136719 1.6801758-.2075195 3.3544922-.2216797 5.034668-.015625 1.9311523 2.984375 1.9326172 3 0 .0117188-1.4262695.1474609-2.8481445.1982422-4.2734375 2.1083984 1.0825195 4.2148438 2.1689453 6.3217773 3.2539063-.1703987.3998108-.1196289.3665161-.1196289 4.3032227 0 1.9301758 3 1.9335938 3 0 0-.9404297 0-1.8803711 0-2.8203125 1.8076172.9321289 3.6162109 1.8623047 5.4233398 2.7958984-.1772194.3853455-.1328125.263916-.1328125 4.3374023 0 1.9306641 3 1.9335938 3 0 0-.9506836 0-1.9018555 0-2.8530273 1.735836.8974609 3.4716759 1.7958984 5.2065392 2.6948242-.2905121.4742737-.2119141.5227509-.2119141 4.4716797 0 1.9301758 3 1.9335938 3 0 0-1.0097656 0-2.019043 0-3.0288086 1.6396484.8496094 3.2792969 1.6982422 4.9189453 2.5488281-.2901917.4573669-.2207031.5791321-.2207031 4.4848633 0 1.9306641 3 1.9335938 3 0 0-1.0141602 0-2.027832 0-3.0419922 2.1210938 1.1000977 4.2412109 2.2006836 6.3618164 3.3017578-.4418945.215332-.7749023.6391602-.7749023 1.2807617v3.6972656c0 1.9301758 3 1.9335938 3 0 0-1.2324219 0-2.4648438 0-3.6972656 0-.046875-.0097656-.0878906-.0131836-.1328125 1.6728516.8691406 3.3466797 1.7368164 5.0195313 2.6054688-.412323.5065613-.3081055.6330719-.3081055 4.6132813 0 1.9306641 3 1.9335938 3 0 0-1.0717773 0-2.144043 0-3.2158203 2.1748047 1.1289063 4.3500977 2.2578125 6.5253906 3.3867188-.6188354.5588684-.4448242 1.0883331-.4448242 4.7587891 0 1.9301758 3 1.9335938 3 0 0-1.144043 0-2.2885742 0-3.4326172 2.5009766 1.2973633 5.0039063 2.5913086 7.5058594 3.887207.0175781 1.7661133.1435547 3.5297852.1533203 5.2963867.0107422 1.9296875 3.0107422 1.934082 3 0-.0068359-1.2407227-.0629883-2.4799805-.1079102-3.7197266 2.0678711 1.0698242 4.1347656 2.1420898 6.203125 3.2104492-.0004883.0131836-.0039063.0239258-.0039063.0371094-.0004883 1.800293-.0102539 3.6010742-.0112305 5.4013672-.0004883 1.9306641 2.9995117 1.9335938 3 0 .0004883-1.2988281.0048828-2.5981445.0083008-3.8969727 1.4316406.7387695 2.8647461 1.4741211 4.2973633 2.2119141.1665039 1.8720703.740242 3.7075195.7876053 5.5878906.0488281 1.9267578 3.0488281 1.934082 3 0-.0332031-1.3222656-.3271484-2.6210938-.5571289-3.9248047 2.0810547 1.0698242 4.1601563 2.1425781 6.2421875 3.2094727-.0053711.0541992-.0166016.1040039-.0170898.1611328-.0112305 1.7607422-.1689453 3.5175781-.1796875 5.277832-.0126953 1.9311523 2.9873047 1.9331055 3 0 .0083008-1.3139648.0844727-2.6264648.1342773-3.9394531 1.6801758.859375 3.3618164 1.7163086 5.043457 2.5742188-.0092773 2.0297852-.0791016 4.0595703-.0849609 6.0893555-.0048828 1.9306641 2.9951172 1.9335938 3 0 .0043945-1.5229492.0395508-3.0458984.0634766-4.5693359 1.2294922.6259766 2.4560547 1.2568359 3.6855469 1.8813477.4555664 6.3706055-3.9326172 12.1430664.0371094 17.9931641-2.6142578.4414063-3.953125 3.0166016-3.3374023 5.425293-.0498047.0551758-.1005859.109375-.1367188.1914063-1.0610352 2.3959961-2.4541016 4.8496094-3.25 7.3466797-.2797852.8793945-.4272461 2.0224609.5991211 2.4760742.3862305.1704102.7841797.0258789 1.152832-.0073242 1.1577148-.1040039 2.1791992-.0410156 3.3569336-.0244141.8076172.0117188 1.4848633-.2885742 2.2270508-.5693359 2.4311523-.9199219 4.3666992-.519043 6.6757813.3256836.5991211.2192383.996582-.4169922.9228516-.9223633-.4135742-2.8286133-1.3901367-5.3325195-2.9887695-7.7011719-.0913086-.1357422-.2084961-.2124023-.331543-.265625-.0205078-.184082-.1040039-.355957-.262207-.4799805.109375-.0874023.203125-.203125.2451172-.3808594.5629883-2.3710938-.7880859-4.6982422-2.9575195-5.3212891-.0219727-.034668-.0297852-.0712891-.0585938-.1044922-4.3383789-5.0688477-.8354492-10.9384766-.4697266-16.7373047 34.0532227-25.0703125 74.3310547-47.0561523 110.6635742-64.8081055 2.1079102-4.7724609 4.5605469-6.6342773 6.6762695-11.3398438.847168 6.6420898-4.0063477 12.6176758.1044922 18.6762695-2.6137695.4414063-3.953125 3.0166016-3.3369141 5.425293-.0498047.0551758-.1005859.109375-.137207.1914063-2.1463318 4.8489685-4.7868347 8.8795471-2.6503906 9.8227539.3862305.1708984.7836914.0263672 1.1523438-.0073242 1.1582031-.1040039 2.1791992-.0410156 3.3574219-.0244141 2.3171692.0336151 3.2346802-2.3172302 8.902832-.2436523.5991211.2192383.996582-.4169922.9223633-.9223633-.4135742-2.8286133-1.3896484-5.3325195-2.9882813-7.7006836-.0913047-.1362308-.2084922-.212891-.3315391-.2661137zm-244.9091835 13.0424805c-1.796875-.0258789-3.5458984.25-5.2416992.8276367.015625-.1025391.0097656-.2148438-.03125-.3383789-1.5535793-4.6484833 6.0998974-5.3152313 5.2729492-.4892578zm124.6137734 59.9189453c-.0371094.1577148-.015625.2929688.0273438.4160156-1.7607422-.425293-3.5375977-.5356445-5.3452148-.3549805-.4995117-1.6972656.5854492-3.5249023 2.4599609-3.6513672 1.9838866-.133789 3.2944335 1.7504884 2.8579101 3.5903321zm-3.7773438-40.1196289c-29.7724686-14.3286133-59.4047928-28.9467773-89.1738281-43.2827148 22.3149376-3.4702148 44.6523399-6.9711914 66.3569336-13.3349609 1.3768158 1.4584961 2.6707611 2.6331787 4.1000977 3.7705078-8.7241287 1.9946289-13.6816483 4.8837891-13.6816483 8.0380859 0 5.9111328 17.1396561 10.5410156 39.0195389 10.5410156 21.8857422 0 39.0302734-4.6298828 39.0302734-10.5410156 0-3.1489258-4.9394531-6.0351563-13.6333008-8.0273438 3.75-2.9458008 6.902832-6.5693359 9.3681641-10.6235428 16.8789063 2.887207 33.6567383 6.299324 50.3300781 10.1992264-27.0024719 12.6908264-67.9487304 34.8045807-91.7163086 53.2607422zm-29.596199-74.1103592c6.4956131 4.2573242 13.5400467 7.2788086 20.818367 9.0512695 1.6303711 5.9140701 4.1611328 11.6552811 7.6079102 17.0239334-14.2600708-2.7861327-24.3702775-13.0829467-28.4262772-26.0752029zm24.5688553-26.1547851c7.0175781 1.5419922 14.2348633 1.9707031 21.3793945 1.2734375 2.2719727 10.5664063 2.362793 21.4887695.2470703 32.09375-7.6098633 1.1523438-15.3637695.9199219-22.9042969-.6967773-2.6411132-10.8110352-2.192871-22.1357423 1.2778321-32.6704102zm12.4589844-21.362793c.0644531-.0708008.1137695-.1445313.1621094-.2182617 3.6201172 6.3393555 6.3144531 13.0498047 8.0698242 19.9433594-6.5742188.5947266-13.2099609.1875-19.6699219-1.2006836 2.5791015-6.6655274 6.3901367-12.9584961 11.4379883-18.5244141zm8.4819335 57.8691406c-1.3525391 5.5791092-3.3330078 11.0473709-5.9331055 16.3086014-2.3808594.2055664-4.7792969.2080078-7.1567383-.0083008-3.6962891-5.2827148-6.4296875-10.984375-8.2304688-16.8818436 7.0336916 1.3325196 14.2329103 1.5292969 21.3203126.581543zm26.7714844-9.6704101c-4.2089996 13.1358337-14.5209045 22.9371109-29.1557617 25.5170975 2.449707-5.2880859 4.2929688-10.7680664 5.5541992-16.3442459 8.2290039-1.5043946 16.2451172-4.5605469 23.6015625-9.1728516zm1.1113281-4.2607422c-.7491455.2821426-9.6663361 7.3110352-24.0532227 10.2324219 1.9477539-10.5546875 1.8085938-21.390625-.40625-31.8920898 9.8588409-1.4008636 18.6027832-5.2130508 19.6660156-5.921875 5.3837892 8.4232482 6.679474 18.3320922 4.7934571 27.5815429zm-6.512207-30.0473633c-.003418.0014648-.0068359.0019531-.0102539.003418-5.9594727 2.7939453-12.2353516 4.6152344-18.6054688 5.4907227-1.7885742-7.1894531-4.5649414-14.1889648-8.3076172-20.8037109 10.5825196 1.2441405 20.4584962 6.7807616 26.9233399 15.3095702zm-32.3574219-15.5703125c-5.2231445 5.8666992-9.1850586 12.4926758-11.8505859 19.5136719-5.2573242-1.3833008-10.3686523-3.4306641-15.2045898-6.1235352 7.5079193-8.5101547 18.4650421-13.2013397 27.0551757-13.3901367zm-28.9775467 15.7490234c5.127449 2.9077148 10.5473709 5.1098633 16.1230545 6.5927734-3.4228516 10.5078125-4.0039063 21.7607422-1.6586914 32.5727539-7.3876953-1.9980469-14.5146561-5.3378906-21.0253983-10.0410156-.0288086-.0205078-.0571289-.03125-.0854492-.0498047-1.9903716-10.3383865.2152253-20.5214996 6.6464844-29.074707zm.1132813 49.703621c-22.1191406 6.4165039-44.8862305 9.8979492-67.6108398 13.4331055-.9458694.1472626-.4555054 1.4332275.1699219 1.7338867 30.3500938 14.6040039 60.5512657 29.5141602 90.9008789 44.1181641.2562561.1235809.9313507.0959473 1.2050781-.1176758 23.9138641-18.6433563 66.202713-41.3823547 93.4135742-54.0673828.8943024-.416748.096405-1.4640656-.7705078-1.6669922-16.9536133-3.9912109-34.0170898-7.4682693-51.1826172-10.4130936.7768555-1.3925781 1.4716797-2.831543 2.0893555-4.3041992 22.6064453 5.9829102 45.7939453 9.8159256 69.1674805 10.7612381-39.8168945 20.1113281-79.0722656 42.2128906-111.9199219 72.7436523-40.3823318-20.5146484-80.4091873-41.7207031-120.7714844-62.2739258 31.0664063-1.5073242 62.004879-5.8857422 91.9594727-14.380867 1.0166015 1.5488281 2.1328124 3.0332107 3.3496093 4.4340897zm143.6889725 20.1635742c3.3961792-.2290344 2.8378906 3.8706512 2.8852539 4.0068359-1.7612305-.4257813-3.5375977-.5361328-5.3452148-.3554688-.4995118-1.6972656.5854492-3.5249023 2.4599609-3.6513671z"/><path d="m234.9465942 72.1411057c-6.4238281 13.3203125-18.5151367 24.1293945-31.4619141 30.9614258-1.7080078.9018555-.1938477 3.4921875 1.5141602 2.5908203 13.3520508-7.0463867 25.9135742-18.3022461 32.5380859-32.0380859.834961-1.7314454-1.7509765-3.2548829-2.590332-1.5141602z"/><path d="m231.164856 110.7983322c12.7016602-5.0063477 20.7592773-14.2290039 27.3720703-25.8930664.9536133-1.6821289-1.637207-3.1958008-2.590332-1.5141602-6.1777344 10.8969727-13.6655273 19.8183594-25.5791016 24.5146484-1.7758789.6997071-1.0024414 3.6020509.7973633 2.8925782z"/><path d="m257.9988403 115.9433517c3.9262695-1.8334961 7.4750977-5.3984375 9.7880859-9.0380859 1.0385742-1.6342773-1.5566406-3.1411133-2.590332-1.5141602-2.0527344 3.2299805-5.2363281 6.3388672-8.7119141 7.9614258-1.7480468.8164063-.2265624 3.4033203 1.5141602 2.5908203z"/><path d="m74.7200241 145.0234375c-1.9306641 0-1.9335938 3 0 3 1.9301758 0 1.9335938-3 0-3z"/><path d="m85.8337936 150.3276367c-.8125.0366211-1.5.6591797-1.5 1.5v.2529297c0 .784668.6899414 1.5361328 1.5 1.5.8129883-.0366211 1.5-.6591797 1.5-1.5 0-.0844727 0-.168457 0-.2529297 0-.7846679-.6899414-1.5361328-1.5-1.5z"/><path d="m98.0085983 156.5766602c-.5727539-.5727539-1.5488281-.5727539-2.121582 0-.574707.574707-.574707 1.546875 0 2.121582.0844727.0839844.168457.1679688.2529297.2524414.5727539.5727539 1.5483398.5727539 2.1210938 0 .574707-.574707.574707-1.546875 0-2.121582-.0839844-.0839844-.1684571-.1679688-.2524415-.2524414z"/><path d="m111.1428757 163.144043c-.5727539-.5727539-1.5483398-.5727539-2.1210938 0-.574707.574707-.574707 1.5463867 0 2.121582.0839844.0839844.168457.1679688.2524414.2524414.5727539.5727539 1.5483398.5727539 2.121582 0 .574707-.574707.574707-1.546875 0-2.121582-.0844726-.0839844-.168457-.1684571-.2529296-.2524414z"/><path d="m123.7219772 168.7666016c-.8125.0366211-1.5.6591797-1.5 1.5v.5053711c0 .784668.6904297 1.5361328 1.5 1.5.8129883-.0366211 1.5-.6591797 1.5-1.5 0-.168457 0-.3369141 0-.5053711 0-.7841797-.6894531-1.5361328-1.5-1.5z"/><path d="m136.3518677 175.081543c-.8129883.0366211-1.5.6591797-1.5 1.5v.2524414c0 .784668.6899414 1.5366211 1.5 1.5.8125-.0361328 1.5-.6591797 1.5-1.5 0-.0839844 0-.1679688 0-.2524414 0-.784668-.6899414-1.5361328-1.5-1.5z"/><path d="m148.7288208 181.1435547c-.8129883.0366211-1.5.6591797-1.5 1.5v.2529297c0 .7841797.6894531 1.5361328 1.5 1.5.8125-.0366211 1.5-.6591797 1.5-1.5 0-.0844727 0-.168457 0-.2529297 0-.784668-.6904297-1.5361328-1.5-1.5z"/><path d="m201.0144653 130.3422852c1.9301758 0 1.9335938-3.0000076 0-3.0000076-1.9301757-.0000001-1.9335937 3.0000076 0 3.0000076z"/><path d="m212.8860474 132.6157227h.2529297c.7841797 0 1.5361328-.6899414 1.5-1.5-.0366211-.8129883-.6591797-1.5-1.5-1.5-.0844727 0-.168457 0-.2529297 0-.784668 0-1.5361328.6899414-1.5 1.5.0366211.8125.6591797 1.5 1.5 1.5z"/><path d="m225.0105591 135.1416016c.8125-.0366211 1.5-.6591797 1.5-1.5 0-.0844727 0-.168457 0-.2529297 0-.784668-.6899414-1.5361328-1.5-1.5-.8129883.0366211-1.5.6591797-1.5 1.5v.2529297c0 .7841797.6899414 1.5361328 1.5 1.5z"/><path d="m235.8718872 137.1621094c.8125-.0361328 1.5-.6591797 1.5-1.5 0-.0839844 0-.168457 0-.2524414 0-.784668-.6899414-1.5366211-1.5-1.5-.8129883.0361328-1.5.6586914-1.5 1.5v.2524414c0 .7846679.6899414 1.5361328 1.5 1.5z"/></g></g></svg>