<svg id="Layer_1" enable-background="new 0 0 300 300" height="512" viewBox="0 0 300 300" width="512" xmlns="http://www.w3.org/2000/svg"><g id="Customer_Support_1_"><g><path d="m277.7730408 156.874649c-.1001587-.0188751-80.3600922 1.7035065-89.2641602 2.3134766-1.9155273.1318359-1.9301758 3.1328125 0 3 25.7338867-1.7626953 51.5375977-.8222656 77.2919922-1.7705078-17.880722 5.4393768-35.1809845 8.8244781-70.7597656 19.6396484-.3460846-.3328705-41.6833954-49.2486572-43.5458984-51.7705078-.3564453-5.9277344-.7124023-11.8544922-1.0683594-17.7822266 2.050293-.7402344 5.2885742-2.9414063 6.5415039-3.4765625 21.6027832-9.2278824 40.2378693 2.2668457 68.6606445 1.5488281.7290039-1.203125 1.7744141-2.2363281 3.078125-3.7900391.4162292-.1709595 2.020874-.6570282 1.9052734-2.0693359-1.3105469-16.0283203-1.7080078-32.1035156-1.5239258-48.1816444.3130035-1.1994247-1.0186005-2.3316269-2.2543945-1.7792969-26.2626953 11.6923866-55.5942383-13.8886719-80.7416992 1.3798828-.7216797.0351563-1.4326172.5126953-1.4633789 1.4404297-.7724609 23.1572304 2.0415039 46.2392616 1.6723633 69.390625-1.359726 1.4163742-13.5348358 18.0423431-23.9336014 35.0361328-.1430664-.0419922-.2963867-.0703125-.4707031-.0664063-33.5371094.6757813-66.3105469-8.3691406-99.9482422-4.8632813-1.4990234.15625-1.8237305 2.0507813-.9541016 2.7490234.0024414.0029297.003418.0078125.0053711.0107422 2.5384617 3.7646942 32.0784912 52.0297089 49.0288086 67.3759766-1.0561523.0644531-2.0268555.0830078-2.7875977-.0537109-2.9484406-.5256348-6.2632484.2653503-9.1855431.5986328-4.4326172.5039063-10.2763672 1.2255859-16.1757813 2.3496094-4.0285454.7735901-14.2265644 1.9647064-14.2265644 6.1191406 0 16.5097198 237.1347656 16.5015869 237.1347656 0 0-5.049469-29.8728485-8.7460938-31.1240234-8.7460938-2.9114838 0-6.0276642.350296-9.0571289 1.0605469 16.4145355-15.8222656 41.4899292-34.0340729 54.7880859-67.7890625.3974668-1.0087851-.6572207-1.975582-1.6220644-1.8740195zm-191.7753983 71.084961c-22.4960899-20.5390625-42.9521446-43.4189453-60.2568359-68.5078125 4.7266331 2.1733704 98.0013885 34.3060303 113.2988358 41.5185547-17.8916093 8.5791015-35.0839921 18.5410156-53.0419999 26.9892578zm61.5669022-99.725586c13.0874023 18.1220703 26.175293 36.2431641 39.2631836 54.3652344-12.7338867 4.0019531-25.347168 8.2783203-37.7368164 12.8994141-.0761719-18.6513672-.1782227-37.3027344-.2480469-55.9541016-.0039063-.9648438-1.5039063-.9667969-1.5 0 .0698242 18.6835938.1723633 37.3662109.2485352 56.0498047-12.0288086-3.7109375-24.2085037-6.9296875-36.4975662-9.65625 10.5883788-20.1972656 22.7788161-39.4716797 36.4707107-57.7041016zm78.4873047-68.8027381c-.0532227 13.791996.3535156 27.5781288 1.4145508 41.3320351-7.3710938-9.2138672-15.3457031-17.8486328-24.2666016-25.5634766 19.4215393-14.2815438 16.4962158-12.1145325 22.8520508-15.7685585zm-37.4882813 21.1240272c.3278809.3191757.7973938.5364914 1.2773438.4482422 1.4780273.4179688 1.7197266.5195313 3.7880859 1.40625 2.3393555-1.8203125 4.7148438-3.6083984 7.1035156-5.3828125 9.0664063 7.7949219 17.1586914 16.5390625 24.6289063 25.8779297-23.1230469 8.0039063-48.046875-10.8349609-70.9008789-2.7539063 7.871582-9.7744141 16.9243164-18.4990234 27.4560547-25.421875 2.3100586 1.8134766 4.5288086 3.7578125 6.6469726 5.8261719zm-39.675293 21.9111328c-.6147461-14.4248047-1.6064453-28.8408203-1.3457031-43.2841835 11.5874023 2.1083984 22.4023438 6.8154335 31.8369141 13.6396523-11.8837891 8.0068359-21.8740235 18.2216797-30.491211 29.6445312zm75.7954102-45.7099647c-11.7456055 6.7490234-23.4189453 13.6171913-34.8720703 20.854496-11.4980469-10.9189453-25.8168945-18.4707069-41.4609375-21.3193398 22.652008-12.7561073 48.8596039 9.6853523 76.3330078.4648438zm-104.1088943 106.1953163c-4.5973511 7.6524048-12.2015305 21.3044128-12.4829102 22.3300781-5.453743-1.1735992-77.508316-27.1868134-78.8359375-27.7744141 30.647953-1.6474609 60.6738281 5.8320313 91.3188477 5.444336zm98.2758865 64.6826172c-.0019531-.0009766-.003418-.0019531-.0048828-.0029297-17.5551758-6.6923828-35.0234375-13.609375-52.5786133-20.3017578-1.8056641-.6884766-2.5864258 2.2109375-.7973633 2.8935547 16.300293 6.2138672 32.527832 12.6142578 48.8173828 18.8564453-53.7173157 1.7987976-72.1729126 12.9855347-124.9560623.5957031 17.9790039-8.5839844 35.2387695-18.5917969 53.259285-27.09375 1.7490234.7392578 3.4946289 1.3554688 5.1503906 1.5947266 2.4658203.3583984 5.3427734-1.4462891 7.6035156-2.2949219 40.6711121-15.268631 78.5556641-28.9415741 120.0356445-41.1962891-12.8224181 30.0951691-49.7848052 61.9471131-56.5292968 66.9492188z"/><path d="m51.7290916 244.3892975c-4.621582-.5869141-9.1713867-1.4423828-13.7104492-2.4853516-4.3237305-.9941406-9.9824238-1.625-11.9482441-6.3828125-.3637695-.8798828-1.8154297-.4941406-1.4462891.3984375 1.4360352 3.4765625 4.2167969 5.0966797 7.7495136 6.1484375 6.2700195 1.8662109 12.8764648 2.9990234 19.3554688 3.8212891.9550782.1210937.9462891-1.3798828 0-1.5z"/><path d="m135.3433533 249.9400787c.9633789-.0244141.9672852-1.5244141 0-1.5-12.3584061.3085938-24.693367.2402344-37.0224686-.7460938-.9624023-.0761719-.9575195 1.4238281 0 1.5 12.3291016.9863282 24.6640625 1.0546876 37.0224686.7460938z"/><path d="m233.9786072 222.5992584c-.9638672-.0615234-.9604492 1.4394531 0 1.5 8.0092773.5117188 15.9121094 1.6357422 23.7470703 3.3730469.940918.2089844 1.3422852-1.2363281.3989258-1.4462891-7.9716797-1.7685547-15.9965821-2.90625-24.1459961-3.4267578z"/><path d="m82.7906113 246.3844147c-7.3139648-.3974609-14.6479492-.5859375-21.8789024-1.8505859-.9438477-.1650391-1.3491211 1.2802734-.3989258 1.4472656 7.3647423 1.2871094 14.8281212 1.4990234 22.2778282 1.9033203.9643554.0527343.9614257-1.4472657 0-1.5z"/><path d="m257.0044861 243.3668365c.9433594-.2021484.5439453-1.6484375-.3989258-1.4462891-23.5200195 5.0478516-47.472168 6.6865234-71.4648438 7.4580078-.9628906.0302734-.9667969 1.53125 0 1.5 24.1264649-.7753905 48.2148438-2.4365233 71.8637696-7.5117187z"/><path d="m262.7764587 239.5435944c-.9326172.2470703-.5371094 1.6943359.3984375 1.4462891 3.7055664-.9824219 7.5107422-4.5986328 4.7612305-8.4677734-.5546875-.7802734-1.855957-.0322266-1.2954102.7568359 2.1621094 3.0429687-1.0795898 5.5263671-3.8642578 6.2646484z"/></g></g></svg>