<svg id="Layer_1" enable-background="new 0 0 300 300" height="512" viewBox="0 0 300 300" width="512" xmlns="http://www.w3.org/2000/svg"><g id="Data_Protection"><g><path d="m240.9092865 237.7454071c5.9892578-11.7612305 4.7929688-24.6484375-4.9604492-33.9360352-1.3979492-1.331543-3.5229492.7866211-2.121582 2.1210938 8.753418 8.3359375 9.8725586 19.7333984 4.4916992 30.3007813-.8740235 1.7167968 1.7133789 3.2368164 2.590332 1.5141601z"/><path d="m249.4195404 233.4924774c3.3540039-5.9228516 3.3007813-13.1625977-.0703125-19.0693359-.9570313-1.6762695-3.5498047-.1669922-2.590332 1.5141602 2.8422852 4.9804688 2.9033203 11.0380859.0703125 16.0410156-.9526367 1.6826171 1.6381836 3.196289 2.590332 1.5141601z"/><path d="m220.9947357 249.2131805c18.898468-17.4846191 17.6550598-39.6916351-1.3530273-55.0776367-1.4873047-1.2041016-3.6225586.9057617-2.1210938 2.1210938 17.7828369 14.3956757 19.1457214 34.3737946 1.3530273 50.8349609-1.4204101 1.3139649.7050782 3.4316406 2.1210938 2.121582z"/><path d="m169.9087982 264.7898254c22.9135742-1.190918 52.5654297-12.4340668 56.9355469-38.1059418.3212891-1.8881836-2.5693359-2.699707-2.8930664-.7973633-4.1391602 24.3164063-32.3657227 34.7768402-54.0424805 35.9033051-1.9208984.1000977-1.9326172 3.100586 0 3z"/><path d="m216.2325287 252.1516571c-8.3925781 6.8168793-19.0600586 10.8115082-29.5400391 13.0370941-1.887207.4008789-1.0883789 3.293457.7978516 2.8925781 11.0087891-2.3378906 22.0629883-6.659668 30.8632813-13.8085785 1.4990234-1.2177734-.6347657-3.3286132-2.1210938-2.1210937z"/><path d="m176.9322357 181.7463837c-1.9111328-.2363281-1.894043 2.765625 0 3 15.4443359 1.9116211 31.887207 8.2368164 41.1386719 21.3950195 1.1020508 1.5673828 3.7045898.0698242 2.5908203-1.5146484-9.9262695-14.1166993-27.1386719-20.8266602-43.7294922-22.8803711z"/><path d="m218.3223724 229.6208954c1.3041992-17.8720703-12.4003906-31.6674805-27.6069336-38.6240234-1.7431641-.7973633-3.2695313 1.7875977-1.5141602 2.590332 14.3022461 6.5429688 27.3544922 19.1279297 26.1210938 36.0336914-.140625 1.9257812 2.8603516 1.9169922 3 0z"/><path d="m219.5894623 211.1189423c.9609375 2.8769531 1.5112305 5.7895508 1.6030273 8.8232422.0585938 1.9262695 3.059082 1.9345703 3 0-.0996094-3.2924805-.6665039-6.4960938-1.7099609-9.6210938-.6083985-1.8222656-3.506836-1.0410156-2.8930664.7978516z"/><path d="m210.7501068 234.2688446c-7.46875 9.7060547-18.5532227 15.7114258-30.0976563 19.2163086-1.8422852.5595703-1.0571289 3.4560394.7973633 2.8930511 12.3769531-3.757309 23.9086914-10.2221527 31.890625-20.5951996 1.1767579-1.5288085-1.4277343-3.024414-2.590332-1.5141601z"/><path d="m187.8404388 244.3777313c-1.7216797.8745117-.2050781 3.4638672 1.5141602 2.5908203 10.7324219-5.4516602 20.0522461-16.0976563 16.9682617-28.8676758-.453125-1.8759766-3.3466797-1.081543-2.8925781.7973633 2.7592773 11.4277344-6.1513672 20.6855469-15.5898438 25.4794922z"/><path d="m109.5875168 246.8586884c21.3925705 11.5419769 47.7436447 12.1625824 70.3867111 3.980957 1.8022461-.6508789 1.0244141-3.5507813-.7973633-2.8925781-21.8916016 7.9101563-47.3588867 7.4980469-68.0751877-3.6787109-1.6992187-.9169923-3.2158203 1.6723632-1.5141601 2.590332z"/><path d="m110.7134933 258.9490051c18.1508713 6.3935547 38.0873947 6.8544922 56.7109299 2.2568359 1.8735352-.4628906 1.0800781-3.3564453-.7973633-2.8930664-18.1342773 4.4770508-37.449707 3.9663086-55.1162033-2.2568359-1.824707-.6425628-2.609375 2.2548828-.7973633 2.8930664z"/><path d="m171.2159271 267.2151184c-13.1479492 2.675293-26.4848633 3.4775391-39.8608398 2.4760742-1.9257813-.1445313-1.9165039 2.8564453 0 3 13.644043 1.0214844 27.253418.1445313 40.6582031-2.5830078 1.890625-.3847656 1.090332-3.2773437-.7973633-2.8930664z"/><path d="m187.8687592 207.142868c-1.5341797-1.1704102-3.0302734 1.434082-1.5136719 2.5908203 12.1914215 9.2982178 9.2370148 23.9002686-8.4003906 30.815918-1.7773438.6967773-1.003418 3.5986328.7978516 2.8925781 20.8089141-8.1588439 23.2551269-25.5153961 9.1162109-36.2993164z"/><path d="m168.0933685 244.4373016c-10.28125 1.7734375-20.6484375 1.9345703-30.9707031.3955078-1.8886719-.28125-2.703125 2.6088867-.7973633 2.8930664 10.878418 1.621582 21.7294922 1.4736328 32.5654297-.3955078 1.8989258-.3276367 1.0942383-3.2192382-.7973633-2.8930664z"/><path d="m172.1382904 208.6716766c-1.8588867-.534668-2.6523438 2.3588867-.7973633 2.8930664 13.2615814 3.8185425 14.9499512 13.6551666 6.1586914 20.5581055-1.5175781 1.1914063.6186523 3.3012695 2.1210938 2.121582 4.559082-3.5800781 7.7836914-9.1362305 5.7802734-15.0166016-1.9570312-5.743164-7.7709961-8.9750976-13.2626953-10.5561523z"/><path d="m171.8677826 235.0603485c-12.2929688 5.5209961-26.6347656 6.2333984-39.4658203 2.2021484-1.8461914-.5800781-2.6357422 2.3149414-.7973633 2.8925781 13.6469727 4.2880859 28.7402344 3.3505859 41.7773438-2.5043945 1.7583007-.7895507.2343749-3.3759765-1.5141602-2.590332z"/><path d="m159.866806 211.9802704c-7.1147461-.6508789-14.3549805.1186523-21.0424805 2.7197266-4.5063477 1.753418-11.0312424 4.949707-11.994133 10.3168945-2.2412109 12.4916992 24.1030197 12.0541992 30.8305588 11.5078125 1.9111328-.1552734 1.9277344-3.15625 0-3-5.2470703.4262695-10.4887695.3530273-15.6850586-.5742188-4.8354492-.862793-17.0922775-4.0839844-9.7670898-11.0297852 6.9072266-6.5493164 18.6679688-7.7626953 27.6582031-6.9404297 1.921875.1762696 1.9101563-2.8251952 0-2.9999999z"/><path d="m169.6656342 217.2883759c7.20961 3.3121338 6.9605408 8.8607635.9589844 12.5166016-1.6464844 1.0029297-.140625 3.5986328 1.5141602 2.590332 8.4902802-5.1713257 7.6218414-13.7550659-.9589844-17.6972656-1.7421876-.800293-3.2680665 1.7846679-1.5141602 2.590332z"/><path d="m168.0679779 219.5422821c-6.5556641-5.3256836-20.5292969-1.3686523-26.9462891 2.1811523-1.6894531.9345703-.1777344 3.5263672 1.5146484 2.590332 4.4462891-2.4599609 9.8334961-3.5522461 14.8808594-3.9174805 2.1230469-.1538086 6.21875-.6035156 7.8652344 1.0068359 3.6733398 3.5922852-3.4160156 5.4296875-5.4047852 5.578125-1.9135742.1425781-1.9287109 3.1435547 0 3 4.4804688-.3344725 14.2509766-5.4340819 8.0903321-10.4389647z"/><path d="m143.9190521 226.502243c-1.6948242-.9267578-3.2104492 1.6630859-1.5141602 2.590332 3.1210938 1.7060547 6.6630859 2.2939453 10.1889648 1.9775391 1.9077148-.1708984 1.925293-3.1728516 0-3-3.0083007.2695313-5.9965819-.1044922-8.6748046-1.5678711z"/><path d="m74.7989426 230.2854462c-4.7475586-11.0351563 3.1811523-21.4057617 11.4335938-28.3427734 1.6894531.8881836 3.4243164 1.699707 5.1943359 2.4223633-4.4912109 4.3295898-8.0200195 9.546875-9.6796875 15.6386719-.5083008 1.8652344 2.3852539 2.6611328 2.8930664.7978516 1.6542969-6.0722656 5.3398438-11.0878906 9.9418945-15.2587891 1.7760391.569046 3.0678101 1.4488525 6.5512695 2.7807617-1.1328125 1.3144531-2.1865234 2.6948242-3.1347656 4.1518555-1.0566406 1.6230469 1.5395508 3.1279297 2.590332 1.5141602 1.0683594-1.6411133 2.2817383-3.1577148 3.6040039-4.5942383 1.5097656.4833984 3.0385742.9057617 4.5825195 1.2700195-.2539063.1000977-.4921875.2670898-.6870117.527832-10.8549805 14.5605469.0229492 29.0605469 14.7519531 34.3027344 1.8222656.6489258 2.6064453-2.2485352.7973633-2.8925781-13.0043945-4.6289063-22.6074219-16.9536133-12.9589844-29.8955078.4628906-.6206055.3173828-1.2294922-.0908203-1.6420898 4.4262466.9060669 9.0148849 1.3795471 13.53125 1.2475586-10.4470673 6.2482452-12.8997803 16.9732513-2.9526367 24.1943359 1.5644531 1.1357422 3.0629883-1.4658203 1.5141602-2.590332-5.5566406-4.0336914-6.8735352-10.3164063-1.7734375-15.465332 3.6416016-3.6772461 8.8007736-5.9003906 13.6210861-7.527832.0087891-.0029297.0175781-.0053711.0263672-.0083008 5.2622223-1.255249 6.3589935-2.6304321 23.6889648-2.7431641 1.9296875-.0126953 1.9335938-3.0126953 0-3-3.2338867.0209961-6.2519531.0532227-9.1367188.1884766 2.0410156-1.0634766 4.0571289-2.2290039 6.0546875-3.4770508 7.3789063.3500977 14.8037109 1.2910156 21.6728516 4.1352539 1.7822266.7373047 2.559082-2.1640625.7978516-2.8930664-5.9160156-2.4492188-12.2807617-3.5048828-18.6508789-4.0004883 1.2626953-1.0078125 2.4638672-2.0654297 3.621582-3.1708984 14.3637695 1.6245117 30.4931641 5.6552734 39.9399414 17.4384766 1.2075195 1.5063477 3.3178711-.628418 2.1210938-2.1210938-9.3706055-11.6884766-25.0224609-16.0996094-39.4228516-17.9970703.9555664-1.0302734 1.887207-2.1015625 2.8046875-3.2109375.0913086.027832.1855469.0522461.2875977.0649414 4.9189453.6157227 9.7348633 1.6855469 14.5512695 2.8398438 1.8764648.449707 2.6772461-2.4423828.7973633-2.8925781-4.5239258-1.0844727-9.0493164-2.0410156-13.6484375-2.699707.5317383-.7939453 1.0429688-1.5859375 1.5698242-2.3242188.3867188-.5415039 5.3100586-6.5859375 3.5712891-6.5893555 5.3496094.003418 11.8793945 2.6259766 16.9121094 4.2597656 6.1347656 1.9912109 12.0537109 4.5014648 17.7592773 7.5048828 1.7075195.8984375 3.2255859-1.6899414 1.5146484-2.590332-5.9345703-3.1230469-12.0966797-5.7368164-18.4765625-7.8076172-4.6337891-1.5039063-10.3251953-3.6904297-15.4492188-4.2373047.9375-2.1831055 1.7211914-4.4277344 2.3510742-6.7202148 14.3709717-37.3407898-11.9303589-68.5366364-19.9550781-71.3051758-.175293-13.8681641-.8217773-28.0161133-2.8061523-41.6469765-1.9379883-13.3110352-6.9824219-24.4716778-19.1943359-31.2040997-12.1201096-6.6816406-28.7934494-5.0878906-40.4321213 1.8979492-12.4838867 7.4926739-19.9379883 20.0712872-22.9541016 34.0498047-2.5415039 11.7788124-3.1860352 24.1796913-2.5795898 36.4028358-9.2651749 4.3302536-16.4581146 24.3235245-18.2744179 34.980957-3.2121048 18.6439819 4.8758202 48.3017426 22.995121 63.4467773-9.597168 6.8105469-17.304203 16.3901367-18.1420937 28.5380859-.1328125 1.9272461 2.8676758 1.9189453 3 0 .7871094-11.4135742 8.5136757-20.3852539 17.6084023-26.6030273 1.4291992 1.0615234 2.9038086 2.0610352 4.4282227 2.9775391-9.0722656 7.9677734-16.546875 19.1308594-11.2714844 31.3925781.7607422 1.7685527 3.3457032.2421855 2.5903321-1.5141621zm53.2914962-21.1679688c-31.8696442 3.0821686-62.1868973-19.9825745-54.6718674-60.809082 3.8945313-21.1567383 18.3051758-38.0532227 38.4785156-45.5253906 25.0450668-9.2766342 47.2772293-2.5803452 60.3798752 21.5170898 20.0168763 42.6546936-8.8757629 81.3992767-44.1865234 84.8173828zm-19.268547-168.1528358c7.078125-3.0107422 17.9243164-3.8554688 24.1645432 1.3867188 6.1645508 5.1787109 6.3125 14.8188477 6.3388672 22.2236366.0224609 6.3886719-.515625 12.7607422-1.0097656 19.1303711-14.1572189-5.1416016-29.6025314-2.3378906-43.2744064 3.2358398-2.02343-16.6304779-1.6969148-39.3934517 13.7807616-45.9765663zm-12.9394531 52.8901405c-.1103516-1.2832031-.2705078-2.5688477-.4418945-3.8530273 12.6577148-5.3232422 26.9477539-8.112793 40.2206955-4.0068359-.874649 1.4525375-.1848297 6.5118103 4.6181641 10.4619141-16.9268112-2.7939224-32.8610153-.5382614-46.9389572 9.1445313 3.3471678-4.4438478 6.2138671-9.8227541 2.5419921-11.7465822zm-19.8261719-24.8339844c1.7524414-13.5825233 6.3408203-26.2465858 16.8959961-35.4472694 10.4379883-9.0986309 26.5908203-12.9858379 39.8037033-7.9448223 14.3134766 5.4609375 20.0522461 18.7861309 21.6079102 33.0439453 1.5541992 14.2480507 2.3730469 28.7231483 2.4970703 43.0683632-3.148468-1.3209534-7.2500153-3.4253311-10.5883789-5.1972656 1.112793-8.121582 1.5390625-22.4746094.8208008-31.0712891-.6196289-7.2695351-1.5898438-14.9497108-5.8598633-20.8798866-5.2043915-7.2156944-14.2053604-9.3715706-23.0522385-8.7788086-27.84375 1.8662109-28.0917969 31.3974648-25.9521484 52.9213905-.0137329.1000595.5613785 6.3695984.5791016 6.4726563.1353378 7.1052399-7.1613007 18.0158386-14.5849609 17.6123047-3.1103516-.168457-2.2871094-2.3647461-2.5234375-4.9799805-1.1468126-12.6877842-1.314171-25.8711338.3564452-38.8193379zm-6.1831055 39.2578125c-.0141602.1235352-.0356445.246582-.0424805.3706055-.4342499 7.6232376 5.0177841 10.6349258 11.7314453 7.6865234-23.2226677 27.6338501-13.4351654 64.0963745.3071289 79.1953125-25.5332565-18.4699249-32.0310897-57.3186035-11.9960937-87.2524414z"/><path d="m102.3741379 242.2732391c-7.0048828-5.2949219-10.4980469-13.578125-6.527832-21.8730469.8295898-1.7329102-1.7563477-3.2568359-2.590332-1.5141602-4.7231445 9.8681641-.777832 19.6416016 7.6040039 25.9775391 1.540039 1.1640626 3.036621-1.4394531 1.5141601-2.590332z"/><path d="m82.6187668 227.6760712c-.0058594-1.9301758-3.0058594-1.934082-3 0 .0380859 12.2998047 9.6513672 21.1728516 20.2944336 25.6826172 1.7568359.7446289 3.2875977-1.8388672 1.5141602-2.590332-9.6298829-4.0800782-18.7739258-11.8276368-18.8085938-23.0922852z"/><path d="m119.895134 264.9138489c-17.5361328-2.9204102-36.46875-11.3427582-44.6972656-28.094223-.8515625-1.7324219-3.4394531-.2138672-2.5908203 1.5141602 8.5458984 17.3964844 28.246582 26.4345551 46.4902344 29.472641 1.8886718.314453 2.7006835-2.5756837.7978515-2.8925782z"/><path d="m71.0582199 246.1331024c-5.1206055-4.027832-9.0737343-9.3613281-9.6806679-16.0083008-.1743164-1.9067383-3.1762695-1.9248047-3 0 .6816406 7.4619141 4.7529297 13.5620117 10.5595741 18.1298828 1.5009766 1.1806641 3.6381837-.9282226 2.1210938-2.121582z"/><path d="m76.6592941 253.7341766c-1.5405273-1.1635742-3.0371094 1.4399414-1.5141602 2.5903168 6.1640625 4.65625 13.046875 8.0043945 20.3530273 10.4584961 1.8344727.6162109 2.6210938-2.2802734.7973633-2.8930664-7.0717772-2.3754883-13.6757812-5.6533203-19.6362304-10.1557465z"/><path d="m59.6548958 209.392868c1.4316406-1.3017578-.6948242-3.418457-2.121582-2.121582-8.6538086 7.8681641-12.4243164 19.2895508-6.7290039 30.0454102.9033203 1.706543 3.4941406.1923828 2.590332-1.5141602-5.0615235-9.559082-1.3364258-19.5029297 6.2602539-26.409668z"/><path d="m65.6993332 255.0842743c1.6743164.9682465 3.1870117-1.6230469 1.5141602-2.590332-3.4975624-2.0224609-6.6494179-4.5717773-8.9897499-7.8930664-1.1040039-1.565918-3.7060547-.0688477-2.5908203 1.5141602 2.6440429 3.7514648 6.105957 6.6787108 10.06641 8.9692382z"/><path d="m225.9732513 254.9856415c4.9970703-2.8959961 9.4111328-6.7797852 12.1948242-11.8989258.9223633-1.6962891-1.6669922-3.2124023-2.590332-1.5141602-2.5498047 4.6884766-6.5424805 8.1708984-11.1181641 10.8227539-1.6699218.9677735-.1611327 3.5610352 1.5136719 2.5903321z"/><path d="m243.5220795 243.0867157c.8354492-.7714844 1.6123047-1.6166992 2.3295898-2.4990234.6972656-.8569336 1.5253906-1.8276367 1.7744141-2.9355469.4223633-1.8808594-2.4692383-2.6835938-2.8930664-.7978516-.2257538 1.0047913-2.5726318 3.4096527-3.3325195 4.1113281-1.4213868 1.3125.7041015 3.4301758 2.121582 2.1210938z"/><path d="m106.0821457 270.2458801c5.2993164 2.2871094 10.8696289 3.28125 16.6323242 3.2006836 1.9291992-.0273438 1.9345703-3.0273438 0-3-5.2011719.0727539-10.3227539-.7211914-15.1181641-2.7910156-1.7539062-.7573242-3.2836914 1.8266602-1.5141601 2.590332z"/><path d="m162.0254974 277.5867004c19.6577148-1.0898438 38.8701172-5.6513672 56.0249023-15.5288086 1.6723633-.9633789.1630859-3.5566406-1.5146484-2.590332-16.7050781 9.6186523-35.3666992 14.0576172-54.5102539 15.1191406-1.9199218.1059571-1.9321289 3.1069336 0 3z"/><path d="m124.4669113 278.5534973c10.1137619.9589844 20.2065353 1.5541992 30.310051.1870117 1.9042969-.2578125 1.09375-3.1489258-.7973633-2.8930664-9.8100586 1.3276367-19.7001953.6367188-29.5126877-.2939453-1.9208984-.1826172-1.9082031 2.8188477 0 3z"/><path d="m170.1837006 159.7029266c.9038086-10.4282227-1.972168-20.8803711-8.112793-28.8544922-12.9675293-18.1064606-36.8157806-21.496521-55.8871994-11.1660156-15.9220123 8.6399078-26.9592209 26.021759-24.8701172 44.1401367 3.1047211 26.8081207 32.6457825 42.8446503 53.1088791 37.9692383 18.9482422-4.5151367 33.3017578-23.2138672 35.7612305-42.0888672zm-75.7680588 22.8066407c-17.4760742-28.78125 13.4272461-68.5639648 45.5112228-62.0102539 18.4135742 3.7612305 28.8291016 21.0673828 27.2568359 39.2036133-1.9481964 14.953949-11.7825623 28.8223877-24.9819336 35.9082031-16.4931564 8.8540039-38.0917892 2.8642578-47.7861251-13.1015625z"/><path d="m129.9166107 136.1301727c-6.7304611-.5932617-10.1640549 7.5405273-10.5454025 13.0195313-.3051758 4.3759766 1.0283203 10.5742188 4.8837891 13.3466797-.125 7.012207-.3134766 14.0229492-.4360352 21.034668-.0126953.7441406.7011719 1.5908203 1.5 1.5 2.581543-.2919922 6.0141525-.2451172 8.3266525-1.4067383.46875-.2353516.7353516-.7905273.7426758-1.2949219.1064453-7.0751953.09375-14.1513672.1977539-21.2265625 2.7670898-3.1740875 4.1502686-9.2039337 4.015625-10.550293.1030274-5.5986328-1.9106445-13.8251953-8.6850586-14.4223633z"/><path d="m82.9512863 68.5027313c-.644043-21.3886757 16.5839844-38.5273438 37.9682617-37.7773438.9658203.0336914.9643555-1.4663086 0-1.5-22.1904297-.777832-40.1362305 17.0830059-39.4682617 39.2773438.0288086.9628906 1.5288086.9667969 1.5 0z"/><path d="m147.7134857 49.9729424c.2255859.9379883 1.6723633.5410156 1.4467773-.3989258-1.3364258-5.5629883-4.3359375-10.4013672-8.7416992-14.0556641-.737793-.6118164-1.8046875.4433594-1.0605469 1.0605469 4.2177735 3.4980469 7.0756837 8.0644531 8.3554688 13.394043z"/></g></g></svg>