<svg id="Layer_1" enable-background="new 0 0 300 300" height="512" viewBox="0 0 300 300" width="512" xmlns="http://www.w3.org/2000/svg"><g id="Design_Edit"><g><path d="m167.4654236 216.2222748c.1347656 1.6005859 1.3325195 3.3115234 3.0913086 3.2988281 1.5869141-.0117188 2.5415039-1.5742188 2.6508789-2.9990234.1977539-2.5849609-1.6113281-5.6289063-2.5537109-7.9501953-.0009766-.0029297-.003418-.0039063-.0043945-.0068359-.0291748-.4487762-.7394104-.3757019-.7446289.0634766-.154831 2.2240294-2.7143403 4.3230895-2.4394532 7.5937499z"/><path d="m175.1504822 232.4322357c.1342773 1.6005859 1.3325195 3.3115234 3.0913086 3.2988281 1.5864258-.0117188 2.5415039-1.5742188 2.6503906-2.9990234.1977539-2.5849609-1.6108398-5.6289063-2.5532227-7.9501953-.0014648-.0029297-.003418-.0039063-.0048828-.0068359-.0285034-.4471588-.7341461-.3770599-.7446289.0634766-.1541748 2.2240295-2.7138519 4.3231658-2.4389648 7.5937499z"/><path d="m165.1719666 251.6089935c.1342773 1.6005859 1.3325195 3.3115234 3.0913086 3.2988281 1.5869141-.0107422 2.5415039-1.5732422 2.6503906-2.9990234.1977539-2.5849609-1.6108398-5.6279297-2.5532227-7.9501953-.0014648-.0029297-.003418-.0039063-.0043945-.0068359-.0290375-.4467163-.7346191-.3777771-.7451172.0634766-.1541748 2.2240295-2.7138519 4.3231658-2.4389648 7.5937499z"/><path d="m44.0015526 253.3404388c-1.286911-1.7595367-7.1417885 2.5519257-5.8603516 4.2910004.756836 1.034668 7.1419907-2.5386658 5.8603516-4.2910004z"/><path d="m265.2657166 55.1197319c-8.0537109-4.8066406-15.8408203-10.0039063-23.5454102-15.3486328-1.590332-1.1025391-3.0917969 1.4970703-1.5141602 2.5908203 7.3232422 5.0791016 14.7285156 10.015625 22.3588867 14.6210938.0009766.0244141-.003418.0458984-.0014648.0712891 3.5717773 43.4951134-3.4414063 87.1865234.7387695 130.6162109-8.984375-2.2441406-17.2119141-6.7011719-23.7592773-13.3007813.6397247-52.3651276-.7955322-106.4117203-1.2480469-109.8378983 4.3212891-1.1269493 7.9936523-3.8925743 11.1831055-7.4248009 1.2910156-1.4306641-.8242188-3.5585938-2.121582-2.1220703-10.9555206 12.1362953-20.5183563 5.5187225-30.6635742 1.9423828 6.597168-5.8486328 13.534668-11.3095703 20.0419922-17.2666016.4089661-.3725319.8733063-.5498924.8686523-1.4101563-.0244141-4.8388672.0908203-9.6767578.0664063-14.515625-.0035553-.6737671-.7104034-2.1949425-1.8505859-2.1894531-18.9555664.1103516-37.9018555-.6425781-56.8574219-.5322266-1.2441406.0068359-1.6831055 1.2529297-1.3232422 2.1376953v.0019531c-.5766602.3701172-1.1694336.8515625-1.9443359 1.6689453.4296875 2.9121094-.8051758 6.7636719-1.3481445 9.65625-9.8056641 8.4677734-18.9609375 14.7177734-28.7670898 23.1845703 1.3837891 38.1826134 2.2597656 77.9697266 1.4365234 115.7373047-.1105652-.0254364-48.0508499-11.1920013-48.9292068-11.0546875-4.1943359.6552734-8.0097656 5.4111328-9.597168 9.0039063-1.9570999 4.4282532-2.3481979 12.8493195 2.0454102 15.4667969 1.0195313 1.9482422 2.1728516 3.1269531 3.1635742 5.2441406 18.9345703 5.5478516 37.9253006 11.5136719 57.0297928 16.5205078-14.3300476.3845673-25.9431152.0496979-41.8369217-.2138672-7.8703918-.1323242-5.0336456-.9743958-9.1787109 2.5537109-3.9897461 3.3945313-7.5605469 7.2177734-11.4628906 10.7167969-2.2553711-.6230469-4.8139648-.4052734-7.2446289.4824219-7.2700195 2.6533203-14.4155273 6.9755859-21.0585899 10.8984375-7.6660156 4.5273438-15.2890625 9.4199219-22.3012695 14.9140625-3.6096725 2.8291016-6.9360504 6.0802307-9.9169922 13.0849457-1.8144531 4.2646484-2.2270508 7.8125-.625 11.375 2.0175781 4.484375 6.6557617 6.625 11.5732422 6.6054688s9.6025391-2.0009766 14.0092773-4.1835938c15.6552696-7.7558594 23.1606407-15.3339844 35.8344688-28.0527191.8466797-3.2714844 2.9189453-9.7197266 4.0161133-14.6621094 2.1768646-3.8503723 1.6955338-5.4109955.1689453-7.4414063 4.1518555-3.7529297 8.1293945-7.6845703 12.1337891-11.5927734 18.1879883.2783203 36.3754959.0947266 54.5586014-.3710938.3094177.1442261.6319427.065033.8618164-.3447266.0039063.0029297.0078125.0058594.0117188.0097656.5400391-1.0517578 1.0410156-2.1191406 1.5268555-3.1933594 3.0688477-.3300781 6.0849609-1.9550781 8.6660156-4.3291016l43.5839844 18.0791016c26.3957672-13.482254 53.6710205-25.2407532 56.8789063-26.4619141 2.2089844-.8417969 3.4013672-3.2304688 2.8227539-5.5214844-4.2333984-16.7773438-6.4790039-58.0214844-7.4990234-84.5351639.4956055-16.3466797.6572266-32.6894531-.6616211-49.004879.539062-.6474529.6118159-1.7148357-.3232426-2.2724529zm-91.3823243 125.3291054c-.0004883 0-.0009766-.0009766-.0009766-.0009766-1.8840027-1.8204956-15.2164764-4.3744049-19.746582-5.4150391-.277832-8.46875-.3525391-16.9423828-.3305664-25.4179688.8345947-1.3893433 1.24823-12.6621552 8.8833008-14.7988281 5.8061523-1.6240234 8.9624023 4.3623047 8.6948242 9.2529297-.4384766 8.0146484-6.9511719 14.3789063-7.0498047 22.5527344-.1401367 11.5761719 14.9960938 16.4560547 18.2587891 3.9150391 1.3530579-5.1986237-.7598724-12.3173065 2.2094727-16.6552734 2.7104492-3.9599609 7.7719727-2.59375 9.7919922 1.1484375 4.3427734 8.0449219-4.8583984 17.4238281-5.6542969 25.3798828-.4804688 4.7998047 1.0844727 10.0537109 5.8139648 12.0927734 10.0890808 4.352829 10.3167725-7.9443054 13.6713867-5.3476563.1030273 8.7617188.3779297 17.5214844.9082031 26.2773438-10.9916992-5.953125-22.7753906-9.5507813-34.2524414-14.4365234 3.5917969-6.3242188 4.2797852-14.0566406-1.1972656-18.546875zm-6.0478515 11.1142578c1.8569336 1.2128906.4858398 4.9228516-1.4145508 5.9931641.4311523-1.1435547.8642578-2.2861328 1.3105469-3.4228516.2868042-.7315369-1.0578308-1.5227203-1.5268555-.671875-.6889648 1.2480469-1.4267578 2.4638672-2.1791992 3.6699219-1.3706055-1.9228516 1.4101562-6.6308594 3.8100586-5.5683594zm40.7919922-131.2529335c-.4598999.450264-.5694885 1.3571358-.5483398 1.6376953 3.0458984 40.3593712.0620117 80.8017578.3120117 121.2041016-5.7792053-1.4567413-6.0348053 9.8785706-12.6254883 6.4541016-4.8144531-2.5019531-4.3442383-8.6796875-2.8598633-13.0966797 2.1542969-6.4111328 6.6005859-12.3242188 5.4384766-19.4404297-1.4897614-9.1276855-12.579834-12.5670776-16.9057617-3.2119141-2.6713867 5.7763672 1.5522461 17.0722656-4.7719727 20.7285156-3.5322266 2.0410156-7.2514648-.8847656-8.5664063-3.9648438-2.5868225-6.0578766 2.3831177-14.1414032 4.2919922-18.8408203 5.8493347-14.397934-3.3214722-23.0960388-11.8618164-19.328125-3.2006836 1.4121094-5.2470703 3.9150391-6.6591797 6.8388672.2363281-25.6992264.8754883-51.4062576-1.2436523-77.0517578 16.012207-.0214844 32.0058594.8691406 48.0195313.7832031 1.9296875-.0097656 1.934082-3.0097656 0-3-15.3203125.0830078-30.6230469-.7265625-45.9404297-.7792969 6.4541016-5.1826172 12.9091797-10.3632813 19.3637695-15.5449219.3540039.8652344.9116211 1.5351563 1.6235352 2.0371094.0637207.2336769.644455 1.5916481 3.3291016 8.0097656.2024994.4837303.9295807 1.1913834 1.4536133 1.3271484 9.2285156 2.3974609 19.2973633-.8720703 24.9365234-8.5253906.5454102-.4169922.8867188-1.1601563.5439453-1.953125-.7421875-1.7158203-1.3486328-3.4716797-2.0327148-5.1992188 9.4677734-.0605469 18.934082.2265625 28.4018555.1933594-7.852051 6.966797-16.1840822 13.3769533-23.6987306 20.7226564zm29.9208984 117.2841835c6.3662109 6.0332031 14.1689453 10.2890625 22.6113281 12.6142578-14.3120117 7.4003906-29.2734375 13.4501953-43.7275391 20.5546875 7.9150391-10.4833984 14.9628907-21.546875 21.116211-33.1689453zm-38.940918-141.9267616c.50737 5.8786087-19.1971588 10.9863167-22.097168 7.0029297-.3598633-.4941406-.4360352-.9941406-.3046875-1.4892578 3.2830505-2.6376152 3.5193176-2.6793175 3.5991211-3.3242188 4.4318238-2.4541016 16.2248078-6.4714737 18.8027344-2.1894531zm35.7207032 29.3593712c2.5623016 67.1090927.8149567 108.2374954 1.2817383 109.8378983-6.9448242 13.2988281-15.0581055 25.9013672-24.3291016 37.6982422-2.9384766-50.1220703 2.5708008-100.3515701-1.1904297-150.4550781 1.0078125-.9785156 2.0283203-1.9423828 3.0615234-2.890625 3.481659 1.5410613 15.331482 6.2593917 21.1762696 5.8095626zm-.6616211-40.480465c.0078125 4.0126953-.0517578 8.0253906-.0551758 12.0380859-10.6757813.1074219-21.3491211-.2998047-32.0249023-.1894531-.0297852-.0585938-.0595703-.1181641-.090332-.1767578.968277-8.4563885-15.1087494-5.2112293-22.4477539-1.3505859.1464844-3.6210938.5141602-7.2294922.5756836-10.8554688 18.0166015-.0576172 36.0258788.6054688 54.0424804.5341797zm-142.7563553 146.6640663c1.0332031-1.7773438 3.6064453-4.9746094 6.0063477-5.8027344 1.2127304.8619385 1.4330139 2.4446259.824707 3.5058594-.3930664.6855469-1.0688477 1.1572266-1.5805664 1.7597656-1.2938309 1.523468-.4343872 3.0109863 1.1552734 2.8369141 1.2785416-.1399994 2.2955551-1.3186798 2.7158203-.6259766.0722656.1191406.0722656.2675781.0576172.40625-.1895981 1.7475586-2.1554947 2.6642456-2.6948242 4.2871094-.7981949 2.3995819 1.9774933 4.446579 3.9360352 2.171875.9501724-1.1035461 1.9981232-4.281662 2.7646484-6.4189453.456543-1.2714844.8647461-2.625 1.828125-3.6240234.8481445-.8779297 2.1591797-1.3984375 3.3208008-1.0224609 3.5405273 1.1484375.7641602 4.6435547-.3959961 6.2285156-.7739258 1.0585938-1.4243164 2.3105469-1.3129883 3.6171875.1118164 1.3056641 1.2529297 2.5839844 2.5541992 2.4228516 2.6394806-.3263397 2.5950928-5.1760712 6.3452148-6.1376953 1.5961914-.4091797 3.5913086.5732422 3.737793 2.2148438.1552734 1.7392578-1.6738281 3.1933594-1.5161133 4.9326172.1674805 1.8544922 2.5834961 2.7441406 4.3486328 2.1533203 1.765625-.5908203 3.0317383-2.0976563 4.3598709-3.4023438 1.4853516-1.4589844 3.2719727-2.7841797 5.3432617-2.9951172 2.0712891-.2119141 4.4038086 1.0771484 4.7016602 3.1376953.2397461 1.6601563-.8310547 3.2402344-.9023438 4.9160156-.1000977 2.3486328 2.3613281 4.5595703 4.6132813 3.8876953 3.5800781-1.0673828 3.703125-7.2041016 7.3637695-7.9501953.6865234-.1396484 1.4643555.0087891 1.9365234.5117188.034668.7265625.0830078 1.453125.121582 2.1796875-.2646484.5507813-.6621094 1.0859375-1.0595703 1.5253906-.9155273 1.0107422-1.859375 2.5341797-1.0141602 3.6044922.5405273.6855469 1.5917969.7304688 2.3916016.3632813.0466919.7047424.0162659.8506622.1533203 1.2041016-1.8676758 4.1015625-2.4008789 8.5244141-.7636719 12.0996094-36.0629578-12.5446625-58.17202-18.0127106-59.7719803-19.6826172-2.6987303-2.817383-1.2719725-9.3750002.4321291-12.3046877zm-47.0859337 75.1826172c9.1494217-6.4318542 18.7252846-12.3776855 28.8413048-17.4521484 4.9194336-2.4677734 13.7470703-8.3466797 17.328125-1.3427734-.3359375 4.1875-7.0922852 9.9589844-9.8417969 12.8056641-13.0500488 13.5106354-28.4670448 22.5337067-34.3564415 24.3515472-3.8896484 1.2011719-12.2617188 2.3847656-14.027832-3.2216797-2.0219727-6.4208832 7.8940429-12.213852 12.0566406-15.1406098zm120.9252968-47.0546875c3.9573975-.4515381 6.098175-7.6152954 2.8427734-9.0712891-3.4221191-2.2189178-8.7572021 5.1338043-5.4150391 8.203125-1.799881 2.8127899-2.6896057 4.0962372-4.6586914 7.3027344-13.39328-4.5784912 2.0551605-29.5519714 13.4311523-23.0273438 7.0634766 6.1679688-.3144531 20.6865234-8.7143555 23.0869141.8784181-2.1474609 1.6982423-4.3203125 2.5141603-6.4941406z"/></g></g></svg>