<svg id="Layer_1" enable-background="new 0 0 300 300" height="512" viewBox="0 0 300 300" width="512" xmlns="http://www.w3.org/2000/svg"><g id="Download"><g><path d="m257.7701111 76.6854935c8.6615601-3.9023285 6.6077271-8.3573761-2.0146484-4.4746094-8.6361542 3.888977-6.639145 8.3712234 2.0146484 4.4746094z"/><path d="m24.8208942 185.1063843c0 .034668-.0058594.0649414-.0039063.1005859.9980469 15.550293 12.4648457 30.9746094 25.5654316 38.8735352 14.7155571 8.872757 40.1566353 14.7001495 58.9536095 16.4936523 16.6416016 1.5878906 31.2319336 1.3212891 46.3085938-.7456055 20.4218292-2.7992249 40.5091248-7.22789 56.5029297-20.2871094 9.3007813-7.5947266 15.9741211-19.2299805 15.0449219-31.2011719-.6948242-8.9482422-6.6918945-17.1293945-11.4780273-24.7348633-.0117188-.0507813-.0205078-.1025391-.0327148-.1538086-.0458984-.1943359-.1235352-.3530273-.2158203-.4916992 1.0576172-5.8911133-.3466797-11.8344727-4.1054688-16.9482422 1.1879883-.7880859 1.9951172-2.796875 3.2841797-4.6831055 5.848053-8.5564117 12.276825-14.7956772 20.0107422-34.646965 14.2769928-17.3720703 23.2340393-15.1269073 36.1611328-22.0922852 5.4458008-2.9345703 8.543457-6.2319336 6.4902344-12.6801758-.0068359-.0214844-.0175781-.0380859-.0253906-.059082 2.9037781-5.1089325-4.4103699-10.7053566-16.6577148-6.9663086-13.878418 4.2363281-27.0703125 13.5991211-38.7319336 21.9711914-16.8654938 12.1072235-39.9552612 32.3182831-40.0961914 32.5126953-.269043.3071289-.3574219.6474609-.3139648.9736328-.0063477.6015625.3041992 1.2001953 1.046875 1.4199219.1674805.0498047.3364258.0917969.503418.1411133-1.6572723 1.7666321-5.0958252 5.3242874-5.4140625 5.7558594-3.4794922-.828125-6.9482422-1.4990234-10.3222656-2.0732422.1298828-.6811523.21875-1.3583984.2768555-2.0043945.7871094-8.8051758-12.4213867-8.8769531-18.4443359-10.2016602-2.8173828-.6196289-6.3261719-2.0102539-9.2714844-1.6948242-4.7231445.5058594-5.3862305 4.9658203-6.2182617 8.7504883-.1223145.5428085-.1387177 1.7403946.1655273 2.793457-15.6748047.3027344-31.3461914 2.1293945-46.6118164 5.7255783-.3488007-.7848053-.9036026-1.7004242-2.1513672-4.0200119-1.2246094-2.2416992-4.034668-3.065918-6.2763672-1.8417969l-18.945797 10.3486252c-1.8803711 1.0273438-2.7451172 3.168457-2.2583008 5.1557617-7.4179688 3.2768555-14.4916992 7.2700195-20.8046875 12.2421875-8.5839863 6.7612305-16.9316425 17.0014648-14.158205 28.6630859.4775388 2.008301 1.2436521 3.8701174 2.2236325 5.6049807zm122.9189434-42.0029297c-.0195313-.0004883-.0395508-.0014648-.059082-.0019531-.2949219-.3374024-.1342773-.1904297.059082.0019531zm-59.1748046.0058594c1.0170898-1.5981445 2.2236328-2.8730469 3.7387695-3.4135742 4.5317383-1.6157227 8.2260742 2.2285156 6.4301758 6.9980469-7.1028061 14.8688812-7.6026001 16.2283936-8.9858398 17.6982422-1.2138672.8476563-2.9272461 1.2646484-4.5043945 1.0341797-1.9715805-.7905426-3.7237473-2.3860626-3.9204102-4.5493164-.1378708-1.94162 7.1921157-17.6669618 7.2416992-17.7675782zm60.290039 11.9331054c-1.9619141 1.6923828-4.0693359 2.9667969-6.5917969 1.6171875-1.1015015-.7363586-2.6688843-2.6086578-11.6367188-12.3828125-2.109375-2.3017578-4.484375-4.7592773-2.3696289-8.09375 3.1129608-4.9079285 6.9865265-2.3638 10.1625519.9294739 1.6716766 1.7333984 3.1501312 3.6743469 4.222702 4.8454285 4.5577546 4.9759521 9.61969 9.2272033 6.2128907 13.0844726zm-29.2324219-9.0517578c.012558.1927948.9067001 11.64505 1.2070313 13.7944336.7168884 5.1182098 1.3482285 9.7979736-3.8212891 10.9326172-1.1995926.2633362-3.3797379.2766571-4.5610352-.8959961-2.1609344-2.1448364-1.8801117-7.0059509-2.1674805-10.1669922-.3208008-3.8295898-.6416016-7.6591797-.9624023-11.4882813.1987305-1.2333984.6113281-2.3447266 1.3588867-3.230957 1.3164063-1.5610352 2.6694336-2.4291992 4.8818359-2.0410156 1.2182008.2136078 3.8825532 2.578476 4.0644532 3.0961914zm-91.1552715 44.0449219c5.6831493 6.1120148 14.4261379 10.452179 22.2734394 13.1923828 38.8579063 14.2016296 101.1253052 8.1206665 138.144043-12.1542969 9.6098633-5.1220093 19.7284546-12.3665314 24.5908203-22.0561523 1.1762695 19.9811859-17.6520386 48.8435822-54.8608398 59.8198242-30.9389648 9.1279297-65.9648438 9.5068359-96.3388672-2.3046875-15.397461-5.987793-30.4072285-19.6757812-33.8085957-36.4970703zm229.3251934-103.5214767c-15.9206238 5.1780014-25.4076996 16.7750397-34.5268555 30.90625-4.7021484 7.2866211-10.9072266 13.0683517-16.5458984 19.5522385-.5874023-3.8261719-1.7114258-7.4794922-3.3925781-10.9633713 35.5041962-36.1993179 68.1665955-49.3733902 71.4394531-51.6303711.772461 7.5966796-11.1499023 10.2412109-16.9741211 12.1352539zm-12.6499023-11.0219727c7.0981445-3.9770508 16.2524414-9.9296875 24.7246094-8.6137695 3.753418.5830078 5.6464844 2.3618164 2.1713867 5.5224609-1.6704102 1.5191345-1.2821655.0826721-15.1679688 8.1289063-20.3841095 11.8105164-38.6248016 26.1264877-54.9233398 42.6176758-.7728882-.3453369-5.749939-.7190857-15.9013672-3.519043 18.4834442-15.8904877 37.4969482-32.0356141 59.0966797-44.1362305zm-58.9199219 47.3012695c4.4863281 1.2041016 9.0185547 2.1899414 13.605957 2.9624023 2.2373047 4.0956955 3.6386719 8.4667892 4.1352539 13.1118088-2.6821289-1.9873047-5.59375-3.6870117-8.6499023-5.1586914.6806641-.7836914 1.2788086-1.6118164 1.8911133-2.3198242.5297852-.6123047.6020508-1.519043 0-2.1210938-.5415039-.5415039-1.5893555-.6152344-2.121582 0-1.5379639 1.780365-1.1451874 1.7577972-2.6557617 3.1328125-3.7138672-1.5761719-7.590332-2.8525391-11.5043945-3.9033203 4.967987-5.2709121 5.0741881-5.2694168 5.2993163-5.7040939zm-44.6391602-8.0058593c1.9770508-.1835938 4.8237305 1.0610352 6.7470703 1.484375 4.4228516.9726563 12.5649414.9907227 15.059082 4.9902344 1.9482422 3.125.8085938 8.1064377-3.9716797 8.1240158-2.1992188.0083008-4.8911133-1.0756836-7.0283203-1.5458908-3.2539063-.715332-16.027832-1.2827148-15.8071289-6.8496094.6464845-3.0058594 1.0356446-5.8344727 5.0009766-6.203125zm-106.5400352 41.4457931c6.8227539-6.3632813 15.065918-11.1835938 23.7739258-14.9775391l1.159668 2.1235352c1.2246094 2.2416992 4.0346642 3.0664063 6.2763634 1.8417969l18.9458008-10.3486328c1.1665039-.637207 1.9379883-1.7060547 2.2480469-2.8984375 15.8164063-3.7695313 32.065918-5.5981369 48.3222656-5.7802658 4.1020508 3.5497971 12.8706055 3.8901291 17.1875 4.8398361 2.7856445.6123047 6.6669922 2.1611328 9.5493164 1.2783203 1.934082-.5927734 3.1552734-2.0771484 3.9238281-3.8432617 16.5073242 2.9326172 51.2363281 12.9077148 46.4033203 33.8823242-6.6201172-6.3100586-15.3295898-10.1782227-23.9545898-12.9213867-13.2612305-4.2177734-27.2558594-5.8662109-41.1220703-6.3256836-2.0742188-2.2958984-4.1806641-4.5639648-6.2709961-6.8457031-1.7983398-1.9638672-3.7587891-4.9316406-6.3574219-5.9057617-5.534668-2.0756836-13.2939453 5.7338867-10.6899414 11.2192383.3095703.6518555.7348633 1.2563477 1.2114258 1.8354492-1.1254883.1064453-2.2929688.3183594-3.4760742.4804688-2.3243103-6.8696442-15.1689453-4.9038239-15.9233398 2.0058594-1.421875.171875-2.7963867.2597656-4.0512695.4873047 3.6799698-7.7878265-10.1285553-14.926712-14.793457-7.1245117-1.5029297 2.5141602-2.7084961 5.2851563-3.9135742 8.0200195-.7485352 1.3837891-1.5830078 2.8466797-2.3876953 4.3388672-12.5722656 3.7866211-25.0937462 8.7290039-35.9370079 16.2319336-6.6577148 4.6069336-12.9384766 10.2958984-16.3940449 17.6904297-6.9125979-9.8681642-2.5639651-21.0654299 6.2700212-29.3041994z"/><path d="m134.0030212 105.4750443c1.1196289 2.2958984 3.8881836 3.2495117 6.184082 2.1293945l19.4033203-9.4633789c2.2954102-1.1201172 3.2490234-3.8886719 2.1289063-6.1845703l-1.8295898-3.7514648c-1.1196289-2.2954102-3.8886719-3.2490234-6.184082-2.1293945l-19.4033203 9.4638672c-2.2954102 1.1201172-3.2490234 3.8886719-2.1289063 6.1845703z"/><path d="m137.7173767 65.6361771-3.7670898-1.7963905c-2.3051758-1.0996094-5.065918-.1220703-6.1655273 2.1831093l-9.293457 19.4853516c-1.0996094 2.3051758-.1220703 5.065918 2.1835938 6.1655273l3.7670898 1.7963867c2.3051758 1.0996094 5.0654297.1220703 6.1650391-2.1831055l9.2939453-19.4853516c1.0996092-2.3051758.1220702-5.065918-2.1835939-6.1655273z"/><path d="m102.7173767 58.4828529-4.1015625.7734375c-2.5097656.4731445-4.1611328 2.8916016-3.6875 5.4018593l4.0004883 21.2138672c.4736328 2.5102539 2.8920898 4.1611328 5.4018555 3.6879883l4.1015625-.7734375c2.5097656-.4736328 4.1611328-2.8920898 3.6875-5.4023438l-4.0004883-21.213871c-.4736328-2.5097656-2.8920899-4.1611328-5.4018555-3.6875z"/><path d="m90.5689392 98.0888138 2.9208984-2.980957c1.7880859-1.8242188 1.7583008-4.7524414-.0664063-6.5400391l-15.4189452-15.1098633c-1.8242188-1.7875977-4.7524414-1.7578125-6.5400391.0664063l-2.9213867 2.980957c-1.7875977 1.8242188-1.7578125 4.7529297.0664063 6.5405273l15.4189453 15.109375c1.8242187 1.7875977 4.7524414 1.7583008 6.5405273-.0664062z"/><path d="m80.6597595 104.1967239-21.1914024-4.1171875c-2.5078125-.4873047-4.9350586 1.1503906-5.4223633 3.6577148l-.7958984 4.097168c-.4873047 2.5073242 1.1503906 4.9350586 3.6577148 5.4223633l21.1918907 4.1171875c2.5073242.4873047 4.9350586-1.1508789 5.4223633-3.6582031l.7958984-4.0966797c.4873047-2.5073242-1.1508789-4.9350586-3.6582031-5.4223633z"/></g></g></svg>