<svg id="Layer_1" enable-background="new 0 0 300 300" height="512" viewBox="0 0 300 300" width="512" xmlns="http://www.w3.org/2000/svg"><g id="Events_1_"><g><path d="m23.5666676 172.8429871c-3.8320522 2.8492737-4.2725868 9.3491669.2075195 12.7670898.9238281.7045898 1.9594727 1.15625 3.03125 1.387207 3.2861328 23.4736328 6.0541973 47.0126953 9.0854473 70.5195313-1.8212891.309082-3.0961914 1.0112305-3.0961914 1.8305664 0 1.1044922 2.3129883 2 5.1665039 2s5.1665039-.8955078 5.1665039-2c0-.9833984-1.8374023-1.796875-4.2539063-1.9643555-2.7597656-21.4101563-5.3266602-42.8442383-8.2338848-64.234375 11.2866192 14.4213867 35.3535156 10.9882813 41.4868164-7.7983398.6005859-1.8398438-2.2949219-2.6279297-2.8925781-.7973633-5.9956055 18.3637695-30.6757813 19.4946289-38.8759766 2.3984375 1.5366211-.3647461 2.9853497-1.1640625 4.1235332-2.3686523 2.737793-2.8974609 2.6958008-7.6181641.1650391-10.6318359-2.7519511-3.2773438-7.7119121-3.6132813-11.0800761-1.1079102z"/><path d="m266.4734192 171.6037292c-3.8356934 2.857666-4.2154846 9.262085.0878906 12.6655273-14.5778809 17.6477661-33.9357605 13.955368-38.0571442 1.3745117-.5981445-1.8266602-3.4960938-1.0444336-2.8925781.7973633 4.9188538 15.0150452 26.9033203 19.1794586 42.8628082.1928711-2.7998047 22.890625-5.1450195 45.8320313-7.7265625 68.7475586-2.4321289.1625977-4.2866211.9780273-4.2866211 1.9658203 0 1.1044922 2.3129883 2 5.1665039 2s5.1669922-.8955078 5.1669922-2c0-.8139648-1.2602539-1.5107422-3.0625-1.8232422 2.6137695-23.1953125 4.9814453-46.4174805 7.8251953-69.5864258 2.1469727-.0483398 4.2773438-.949707 5.831543-2.5942383 2.737793-2.8974609 2.6953125-7.6181641.1650391-10.6318359-2.7524414-3.2773436-7.7124023-3.6132811-11.0805664-1.1079101z"/><path d="m73.5061188 179.9528503c.6206055.4824219 1.3115234.8095703 2.0302734 1 .9492188 10.4169922 2.0449219 20.8183594 3.2851563 31.2041016-1.3994141.2954102-2.3603516.8632813-2.3603516 1.5234375 0 .9624023 2.0146484 1.7421875 4.5 1.7421875s4.5-.7797852 4.5-1.7421875c0-.8505859-1.578125-1.5566406-3.6616211-1.7089844-1.230957-10.324707-2.3198242-20.6640625-3.2636719-31.019043 1.0776367-.277832 2.0922852-.8452148 2.8994141-1.6943359 2.0253906-2.1308594 2.0063477-5.6015625.1494141-7.8286133-1.9956055-2.394043-5.6474609-2.7143555-8.1206055-.8745117-2.9590149 2.1967316-3.1318894 6.9283447.0419922 9.3979492z"/><path d="m226.4358063 179.2580261c2.0258789-2.1308594 2.0068359-5.6015625.1494141-7.8286133-1.9956055-2.394043-5.6474609-2.7143555-8.1206055-.8745117-2.9116058 2.1615295-3.1678314 6.9004517.0424805 9.3979492.3974609.3095703.8305664.5351563 1.2749023.7236328-.7705078 10.1376953-1.6757813 20.2636719-2.7211914 30.3769531-1.7094727.2470703-2.9331055.8793945-2.9331055 1.6269531 0 .9624023 2.0146484 1.7421875 4.5 1.7421875s4.5-.7797852 4.5-1.7421875c0-.7666016-1.2875977-1.4101563-3.0654297-1.6430664 1.0302734-9.9677734 1.9238281-19.9477539 2.6870117-29.9394531 1.3657227-.165039 2.6850586-.786621 3.6865235-1.8398437z"/><path d="m113.9577789 171.3634949c1.3696289-1.4423828 1.3725586-3.7368164.1352539-5.2573242-1.293457-1.5893555-3.7597656-1.8842773-5.4057617-.6601563-2.140213 1.5896301-2.1032562 4.6893616-.1098633 6.3076172.2768555.2246094.5820313.3881836.8959961.5244141.1479492 4.1469727.3979492 8.2875977.7524414 12.4238281-1.0180664.2314453-1.7089844.6552734-1.7089844 1.1455078 0 .7363281 1.5419922 1.3330078 3.4443359 1.3330078s3.4443359-.5966797 3.4443359-1.3330078c0-.5644531-.9082031-1.0439453-2.1870117-1.2387695-.3486328-4.0869141-.5961914-8.1777344-.7431641-12.2758789.5468752-.2089844 1.0595705-.5234375 1.482422-.9692383z"/><path d="m80.8698883 183.9201355c8.9379883 8.5683594 20.6098633 1.4106445 25.3769531-7.7480469.8901367-1.7104492-1.6977539-3.2290039-2.590332-1.5141602-3.7983398 7.2973633-13.0839844 14.4086914-20.6650391 7.1411133-1.3940429-1.3364257-3.5185547.7817383-2.121582 2.1210938z"/><path d="m190.1081696 173.2658386c2.4863281 11.4472656 14.8979492 16.7431641 24.9272461 10.7680664 1.6572266-.9873047.1503906-3.581543-1.5136719-2.590332-8.4594727 5.0390625-18.4399414.6040039-20.5209961-8.9750977-.409668-1.8857421-3.3022461-1.0878906-2.8925781.7973633z"/><path d="m182.8498688 184.8473816c0 .7363281 1.5424805 1.3330078 3.4448242 1.3330078 1.9018555 0 3.4443359-.5966797 3.4443359-1.3330078 0-.4550781-.5908203-.8554688-1.4887695-1.0961914.3066406-4.4355469.4951172-8.8745117.5634766-13.3198242.7368164-.1762695 1.4321289-.5537109 1.9819336-1.1333008 1.3696289-1.4423828 1.3725586-3.7368164.1352539-5.2573242-1.293457-1.5893555-3.7597656-1.8847656-5.4057617-.6601563-2.2163239 1.6461487-2.0319366 4.7472534-.1098633 6.3076172.1289063.1044922.2695313.1831055.4072266.2680664-.0610352 4.5478516-.2509766 9.0883789-.5615234 13.6254883-1.3940431.1708984-2.4111329.6694336-2.4111329 1.265625z"/><path d="m90.2653961 53.9674988c-.0732422-.1328125-.1645508-.2631836-.2954102-.3857422-6.5810547-6.1674805-15.4116211-12.0170898-24.1298828-12.6201172-3.6376953-3.7602539-7.5283203-8.9477539-11.8999023-11.5195293-.2836914-.1669922-.6777344-.1201172-.9086914.1171875-5.9160156 6.069334-12.796875 11.9184551-18.0708008 18.5458965-.5961189.7473602.2313385 1.2470093.3637695 1.4921875.0830078 2.25.4165039 4.0830078.5 6.3330078 2.3305664 1.8022461 4.2192383 4.1962891 6.5498047 5.9985352-.9389648 5.0361328 1.6606445 11.9350586 4.6601563 16.0883789 2.2456055 3.109375 6.737793 8.5039063 8.8012695 9.6757813.1801758.4018555.3974609.7924805.6748047 1.1645508 5.722168 7.6694336 20.7543945-6.0869141 24.6293945-9.7329102 3.9428711-3.9204102 17.2871094-17.4199219 10.9482422-23.8969727-.5517578-.5639649-1.165039-.9726563-1.8227539-1.2602539zm-34.6733398 28.6313476c-20.4299088-24.6698532.7089348-54.0236816 30.0014648-28.9140625-9.5387802 2.0286789-27.6624298 19.4995575-30.0014648 28.9140625zm-16.7666016-36.3168945c6.3995323-6.5646172 9.2742577-9.5146904 11.796875-12.1025391 3.9468765-4.048727 1.9385986-4.2940903 5.6108398-.6870117 2.4995117 2.456543 4.9609375 4.9526367 7.4394531 7.4306641-9.4679756.3310089-17.2843971 7.9357033-18.9785156 16.784668-1.984375-2.1967773-3.9741211-4.3886719-5.9594727-6.5844727-.222168-.2460938-2.7050781-2.1884766-2.6845703-1.9936523-.0483398-.4580079 2.4018556-2.4643555 2.7753907-2.8476563zm49.0727539 19.7475586c-2.3740234 4.0991211-5.5356445 7.6489258-8.8798828 10.9741211-1.7583008 1.6542969-18.84375 16.2695313-20.4799805 8.8085938-.2666016-1.2167969.1113281-2.6342773.7241211-4.0151367 2.0444336 2.0239258 9.1523438-1.6191406 15.9233398-8.1728516 6.7983398-6.5800781 10.6791992-13.5986328 8.6679688-15.6767578-.0527344-.0541992-.1225586-.0883789-.1821289-.1347656 2.2578125-1.0297852 4.9545898-1.8286133 6.2954102-.4633789 1.9487304 1.9848632-1.0600586 6.9389648-2.0688477 8.6801757z"/><path d="m264.6858215 45.3835144c-5.9946289-5.9912109-11.7568512-12.9448242-18.3173981-18.3017559-.3310547-.2700195-.7294922-.2895508-1.0610352 0-3.5322266 3.0849609-7.0380859 6.2001934-10.5634766 9.2929668-10.1987305-1.2075195-21.465332 4.3686523-28.6826172 11.3027344-.315918.1733398-.6254883.3671875-.9194336.6079102-7.2324219 5.9106445 5.9716797 20.5947266 9.6503906 24.6035156 3.831543 3.9516602 17.2290039 17.5092773 23.7578125 11.2202148.3041992-.2929688.5532227-.6079102.7758789-.9335938.3625183-.1197052.5399017-.3256531.7119141-.5068359 9.3886719-5.7734375 15.3647461-13.7983398 14.9926758-23.6938477 3.1513824-2.0385742 6.9931793-3.9506836 9.5883942-6.6625977-.0302734-1.6420898-.0737305-3.8432617-.105957-5.5737305.0966797-.1484375.1992188-.2958984.2900391-.4458008.171875-.2841795.1152344-.6767576-.1171875-.9091795zm-21.3862457-14.5532207c.2563477-.2250977 2.2260742-2.675293 2.0439453-2.6586914.4599609-.0415039 2.4331055 2.4321289 2.8125 2.8115234 15.7821503 15.774828 15.1280365 14.6658001 15.1284332 14.9218731 0 .5932617-2.1342773 2.2011719-2.6040039 2.6616211-2.480957 2.4321289-5.011734 4.8120117-7.5171051 7.2192383-.1240234-4.9331055-2.0307617-9.7485352-6.6201172-13.9990234-2.9702148-2.7509766-6.3408203-4.3701172-9.8842773-5.105957 2.2148438-1.9487306 4.4262695-3.9013673 6.640625-5.8505841zm-3.0795898 47.1547832c-1.6360168-9.6619873-19.4742126-28.5990868-29.0151367-30.8027344 25.5993804-20.0429401 54.2671356 1.239708 29.0151367 30.8027344zm-3.9916993 4.1489258c-2.1079102 1.6040039-6.7075195-1.3041992-8.4560547-2.3461914-11.8322296-7.0508041-27.0746765-28.0349846-19.3779297-29.5957031 1.215332-.246582 2.6206055.1464844 3.9873047.7734375-4.9218903 4.8433838 18.5224915 29.6245422 23.5390625 24.8886719.0493164-.0463867.0805664-.1098633.1235352-.1625977 1.0209961 2.3588867 1.7978516 5.2138672.184082 6.4423828z"/><path d="m250.9431305 41.8800964c1.9301758 0 1.9335938-3 0-3-1.9301758 0-1.9335938 3 0 3z"/><path d="m47.5744781 46.3473816c1.9301758 0 1.9331055-3 0-3-1.930664 0-1.9335937 3 0 3z"/><path d="m226.1364899 93.7985535c-3.3842773 12.4179688-6.1904297 24.9863281-9.5981445 37.4003906-.5117188 1.8647461 2.3818359 2.6601563 2.8930664.7978516 3.4077148-12.4145508 6.2138672-24.9829102 9.5981445-37.4003906.5083008-1.8652344-2.3847657-2.6611329-2.8930664-.7978516z"/><path d="m183.7956696 127.9084167c8.0336914-10.3134766 15.1337891-21.3120117 23.1269531-31.6455078 1.1665039-1.5087891-.9414063-3.6469727-2.121582-2.121582-7.9941406 10.3349609-15.0932617 21.3325195-23.1269531 31.6459961-1.1728516 1.5053711.9355468 3.6430664 2.121582 2.1210937z"/><path d="m200.5642242 72.3088074c-11.9916992 6.5327148-24.5942383 11.2856445-35.8364258 19.2436523-1.5634766 1.1069336-.0664063 3.7094727 1.5141602 2.5908203 11.2402344-7.956543 23.8461914-12.7119141 35.8364258-19.2441406 1.6962891-.9238281.1835937-3.5151367-1.5141602-2.590332z"/><path d="m74.9753571 96.9035339c-.7060547-1.7719727-3.6088867-.9990234-2.8930664.7978516 4.2280273 10.6132813 8.4560547 21.2270508 12.684082 31.840332.7055664 1.7724609 3.6083984.9995117 2.8925781-.7973633-4.2280273-10.6137695-8.4555664-21.2270507-12.6835937-31.8408203z"/><path d="m94.1692047 96.9889832c7.3730469 7.5366211 14.7460938 15.0732422 22.1186523 22.6098633 1.3525391 1.3823242 3.4731445-.7397461 2.121582-2.121582-7.3730469-7.5366211-14.7460938-15.0732422-22.1191406-22.609375-1.3520507-1.3828126-3.4726562.7392577-2.1210937 2.1210937z"/><path d="m129.6945953 86.0470886c-10.5180664-4.4594727-21.0361328-8.9194336-31.5537109-13.3789063-1.7573242-.7446289-3.2880859 1.8383789-1.5146484 2.590332 10.5180664 4.4599609 21.0361328 8.9194336 31.5541992 13.3789063 1.7568359.7451172 3.2875976-1.8383789 1.5141601-2.590332z"/><path d="m164.3410797 174.5954285c23.4741211 32.7490234 46.5292969 65.7949219 70.019043 98.5327148h22.9560699l-89.7758942-98.5327148z"/><path d="m40.2688141 273.1281433h22.1723633c.0385742-.0761719.0786133-.152832.1347656-.2294922 24.0722656-32.9458008 48.8334961-65.3798828 72.9355469-98.3032227h-5.4667969z"/><path d="m139.2141266 174.5954285c-24.1376953 33.015625-48.9580078 65.5239258-73.1040039 98.5327148h164.5795898c-23.4765625-32.7470703-46.5317383-65.793457-70.019043-98.5327148z"/></g></g></svg>