<svg id="Layer_1" enable-background="new 0 0 300 300" height="512" viewBox="0 0 300 300" width="512" xmlns="http://www.w3.org/2000/svg"><g id="File"><g><path d="m24.2697964 170.2317657c1.6196289 3.3920898 3.7387695 6.8847656 6.2045898 9.0546875 4.4136295 3.8823242 11.6089649 6.825592 17.4487324 9.6005859.4760742 5.0883789.8696289 10.1855469 1.190918 15.2890625.0595703.9428711.7421875 1.4697266 1.5385742 1.4516602 2.2475586 1.6210938 4.4946289 3.2490234 6.7416992 4.878418 8.8598633-1.7299805 17.9599609-3.5498047 27.1000977-5.2998047 19.5097656 9.1396484 33.2197266 16.4296875 50.6899338 22 12.0205078-15.5595703 26.1079102-32.1699219 38.2885742-50.6630859 3.9019012.2663879 6.1850891-1.7418976 4.7705078-7.6831055 4.6474609-6.0766602 9.215332-12.2104492 13.71875-18.3779297.0244141-.0332031.0375977-.0664063.0585938-.0996094 10.8071594-6.6096039.2506866-.5285492 41.4077148-21.7089844.2495117-2.3881836.4990234-4.7763672.7485352-7.1645508.9627533-.8146362.3781738-2.131958-.6240234-2.5390625-4.327301-1.7583771-8.3572998-4.5476074-10.2617188-6.4404297 1.8061523-1.1367188 3.5844727-2.2294922 5.3105469-3.2363281.1240234-1.3554688.590332-3.4350586.3261719-4.956543.2158203-.1894531.4306641-.3808594.6469727-.5698242.9228516-.8071289.3105469-2.1425781-.6621094-2.5073242-4.3686523-1.6386719-8.4135742-4.125-11.449707-7.6186523.0991211-1.3515625.3188477-2.6918945.6704102-4.0004883.1577148-.1396484.3173828-.2773438.4750977-.4169922.8969727-.793457.3374023-2.1679688-.6621094-2.5068359-5.0849609-1.7250977-8.8286133-4.1323242-12.1567383-8.0419922-.1894531-1.2036133-.3789063-2.4072266-.5678711-3.6113281.090332-.2114258.190918-.4135742.2792969-.6274414.3920898-.9487305-.2475586-1.6074219-1.0405273-1.7548828-.9449005-.4133987-10.7795868-2.4710846-23.8862305-8.5566406.019043-1.276371.050293-2.5546913.1098633-3.8281288.0932617-2.2602539-1.4130859-5.1743164-2.9287109-8.340332.0117188-.0195313.0209961-.0444336.0336914-.0625.7626953-1.0898438-.4985352-2.5576172-1.6938477-2.2036133-6.1411133 1.8193359-12.1645508 1.996582-18.2255859 1.3334961-2.6904297-1.7241211-5.3632813-3.4755859-8.0600586-5.1865234-.0805664-1.2661133-.1538086-2.375-.137207-3.1606445.0205078-.965332-1.4794922-.965332-1.5 0-.0151367.7099609-.0053711 1.4223633.0087891 2.1352539-.4697266-.2924805-.9423828-.5800781-1.4140625-.8691406.1782227-2.4477539.355957-11.3007813-3.9506836-9.8374023-1.9893494.6759377-2.1301422 4.296051-2.3676758 6.1962891-7.415329-3.9740295-11.7722321-5.1468468-19.9062424-8.1914063-.5574722-.2151623-1.179039-.0809822-1.5415039.4770508-36.3447269 39.4804724-73.2978519 79.5195349-97.4150413 127.9770544-.1567383.3144531-.1962891.621582-.1547852.9042969-.5332031.9038086-.7495117 1.9975586-.4599609 3.2993164.4707032 2.1210937 1.7231446 3.9174804 3.2983399 5.4643554zm107.8173771 35.3198243c.597168.2890625 1.331543.269043 1.8178711-.2348633 28.1121216-29.1102905 35.7234192-40.3300781 38.809082-42.4863281.2012482.3245392.3407288.4293671 1.0527344 1.934082-3.3100128 4.0439758-38.5062408 45.9171143-40.8779297 46.1245117-.7539673.0659332-12.7780609-6.5586548-21.7553635-10.4023438 1.2659073-.2038574 7.8424606-1.1999054 7.9619141-1.2172852 4.3334961 2.0893556 8.6635742 4.1845704 12.9916916 6.2822267zm46.3959961-46.6362305c-.9238281 1.1484375-1.8388672 2.3051758-2.7685547 3.4487305-.2104492-.4086914-.421875-.8041992-.6318359-1.1767578 1.1259765-.7666016 2.2612304-1.5219727 3.4003906-2.2719727zm-45.2685547 58.2646484c-10.8978729-4.1624908-23.5336838-9.7353516-34.2099533-14.6430664 3.3642578-.5976563 6.7216797-1.1743164 10.0610352-1.7172852 3.8793259 1.361084 3.5701675 2.2235718 24.0248947 11.8139648.2929688.1376953.671875.1420898.9086914-.1171875 13.8320313-15.1577148 27.3979492-30.4545898 40.4306641-46.2592773.2348633.5664063.4667969 1.1733398.6723633 1.7875977-26.8950502 35.046814-40.4469911 47.1242829-41.8876954 49.1352539zm-81.2455979-15.1616211c-.7612305-11.3735352-1.8823242-22.7114258-3.5351563-33.9912109 22.679657 8.6067505 43.4664154 18.183136 65.9394531 28.9672852-21.0717772 2.4501953-42.1020507-2.8120118-62.4042968 5.0239257zm-5.7949218-28.6616211c-5.1904297-2.9492188-10.7856445-5.1171875-16.0976582-7.8344727-.8574219-.4384766-1.6176758.8549805-.7568359 1.2954102 5.6547871 2.8925781 11.6333027 5.1591797 17.099123 8.4130859.1777344 1.3881836.3466797 2.7773438.5087891 4.1669922-4.3310547-1.6826172-8.5693359-3.5219727-12.6206055-5.8349609-2.4594746-1.4047852-16.3076191-9.9541016-6.8828144-12.3105469 2.1153316-.5285187 2.618454-.0882111 17.9086933 5.6030273-.071518.4808503-.0280915-.026184.8413086 6.5014649zm130.9384689-7.9389648c-.2172852-.5415039-.4477539-1.074707-.6865234-1.59375 2.0356445-2.487793 4.0566406-4.9902344 6.0634766-7.5053711.909668-.5805664 1.8227539-1.1567383 2.737793-1.7304688-2.6806642 3.6254883-5.3808595 7.2387696-8.1147462 10.8295899zm53.2700195-44.6005859c-15.7719727 13.487793-34.4316406 23.1923828-51.8383789 34.4819336 4.4644623-5.4229126 21.8603363-27.1988525 22.4404297-28.6162109 9.0025482-5.5570374 19.1859131-12.1701355 19.9462891-12.6567383 2.413208 2.20195 3.5049286 3.9944 9.4516601 6.7910156zm-4.6577148-17.6484375c-16.1221313 14.2149124-15.0826263 13.314476-27.1455078 21.5-4.9614258-2.2182617-9.8300781-4.7338867-14.1240234-7.9907227 10.2095947-7.2240982-.7093201-.4697189 32.1679688-19.5761719 2.6137694 2.5507813 5.717285 4.5493164 9.1015624 6.0668946zm-11.0351563-14.4897461c-10.4707031 9.1977539-21.215332 18.0263672-32.6318359 26.0395508-3.1146851-2.731575-4.9782867-5.3036957-5.2314453-5.5825195 20.116745-18.2208862 12.3050537-12.9041443 28.4155273-26.7036133 2.7280274 2.7104492 5.7739258 4.7138671 9.4477539 6.246582zm-40.1416015-35.4716835c-.0727539 1.715332.1147461 3.6875.1069336 4.9394531-.0351563 5.2827148.1152344 10.5649452.2382813 15.8452187.1186523 5.0942383.2324219 10.1899414.1767578 15.2856445-.060791 5.6777878 2.5016785 7.9564133-6.8481445 8.2050781-14.940918.3974609-32.4780273-10.3374023-45.4370041.6943359.3798294-14.3455124.5005188-27.3004837.2900391-42.0009804-.0652466-4.4517593-3.0902405-7.0237122 8.2714767-6.9077148 3 .0302734 5.9960938.4887695 8.9873047 1.1142578.0488281.6723633.1010742 1.3466797.1611328 2.0268555.2368164 2.6938477 1.7734375 8.9082031 6.0732422 7.1054688 2.2749023-.9536133 3.1000977-3.7446289 3.3383789-6.855957 8.6574553 2.0408973 16.2750701 2.547924 24.6416015.5483398zm-32.7304688-2.5029297c2.128418.4804688 4.2543945 1.0224609 6.3774414 1.5429688-.3152618 4.3086967-1.0737 6.5350609-3.7255859 3.0859375-2.6586914-1.8022462-2.46875-2.1054688-2.6518555-4.6289063zm8.765625-.8271485c-.199707-.0395508-.3989258-.078125-.5991211-.1186523-.0014648-.0908203-.0019531-.1811523-.0039063-.2714844.2011719.1298828.4023438.2602539.6030274.3901367zm-2.3061523-.477539c-2.7036285-.5881577-4.1243286-.974144-6.7041016-1.5786133-.0908203-1.1469727-.1645508-2.3701172-.171875-3.5922852 2.3256836 1.3212891 4.6044922 2.7226563 6.8623047 4.1601563.0063476.3369141.012207.6738281.0136719 1.0107422zm-2.991211-6.3588867c-1.2109375-.7231445-2.4360352-1.4228516-3.6708984-2.1054688.8311615-5.5148811 3.6760254-7.06147 3.6708984 2.1054688zm-5.1020508.5073242c-.0561523 1.3217773-.0527344 2.6362305-.0073242 3.953125-5.7939453-1.2871094-11.7426758-2.0722656-17.3105392.2172852-1.6425781.675293-2.3427734 1.0986328-2.8916016 2.6274414-.7954102 2.2143555.109375 6.3027344.137207 8.7456055.1516724 13.1980476.041481 26.8718605-.387207 41.7944374-.0195313.6728516.3344727 1.1054688.8027344 1.309082.4985352.6787109 1.4794922.9907227 2.2080078.1918945.0297852-.0332031.0610352-.0595703.0913086-.0922852 1.7285156.8813477 2.9599609 1.190918 4.9145508 2.3325195 7.6635666-4.378418 17.6181564-5.1435547 26.2089767-3.1201172 3.5976563.847168 9.2978516 2.480957 13.0961914 2.2338867.0058594.0014648.012207.0039063.0180664.0053711h.0097656c5.8575287 1.546524 10.8712921-2.5763931 12.3300781-8.1704102 1.8341522-6.9561462 1.0792084-14.6564255 1.1479492-28.1767578 6.925293 3.1254883 14.0732422 5.6987305 21.4091797 7.6875-6.1210938 13.5991211-17.3369141 22.9165039-28.1948242 32.777832-.8398438.7631836-.4526367 1.8022461.296875 2.2734375.0317383.2016602.1152344.4111328.2749023.6225586 5.8271484 7.7080078 13.9038086 12.5302734 22.5830078 16.4326172-7.8198242 10.3671875-15.9077148 20.5332031-24.234375 30.5014648-5.4365234-6.612793-12.8325195-10.2636719-21.0854492-10.40625 1.4321289-4.21875-.9047852-8.7104492-5.0395508-10.6704102-3.737793-1.7724609-8.3891602-.4780273-10.2485352 3.0336914-3 3.1855469-2.3398438 8.6987305 1.0219727 11.4047852 3.4790039 2.800293 9.340332 2.4848633 12.472168-.793457 8.1348572-.4519806 15.2998199 2.5713501 20.9306641 9.7431641-12.2617188 14.5683594-25.0219727 28.71875-38.2280273 42.4262695-29.2817307-14.1894531-58.6474533-28.3740234-89.2455978-39.5419922-5.4713058-1.9966888-11.5768414-5.8048401-17.2758808-4.375 23.8964863-46.401367 59.4746113-85.0717772 94.5825214-123.2080115 7.6878433 2.8444939 12.5074844 4.3284111 19.6127853 8.2407227z"/><path d="m119.1604233 186.9695587c.1171875.1791992.2817383.3427734.5102539.4746094 3.5244141 2.0317383 7.0483398 4.0629883 10.572258 6.0942383.9453125.5449219 1.8378906-.0419922 2.1367188-.8300781.0537109-.0454102.1079102-.0869141.1591797-.1430664 5.5102539-6.0458984 11.0205078-12.0913086 16.5307617-18.1367188.1767578-.1943359.2856445-.4018555.3461914-.6113281.5576172-.6420898.6508789-1.7368164-.2851563-2.3188477-3.71875-2.3110352-7.2290039-4.8891602-10.5488281-7.7397461-.3730469-.9379883-1.5571289-1.527832-2.3652344-.546875-.0737305.0893555-.1469727.1787109-.2207031.2680664-.0859375.0834961-.1601563.1762695-.2260742.2744141-5.7026367 6.9243164-11.4052658 13.8491211-17.1079025 20.7734375-.7319337.8891601-.2597657 2.008789.4985351 2.4418945zm11.4169845 3.2988281c-2.8871994-1.6645508-5.7748947-3.3291016-8.6621017-4.9936523 5.1298828-6.2294922 10.259758-12.4584961 15.3901291-18.6875 2.8227539 2.3691406 5.7797852 4.5600586 8.871582 6.565918-5.199707 5.7050781-10.3999023 11.4101562-15.5996094 17.1152343z"/><path d="m151.7224274 67.6531525c-7.0922852 2.871582-13.5327148-.6655273-19.621582-4.2666054-1.6655273-.9853516-3.1762695 1.6069374-1.5141602 2.5903358 5.605957 3.3154297 11.9257813 6.8798828 18.7036133 5.6367188 4.965332-.9101563 5.6152344-2.8413086 11.9506836-1.4213867 2.3720703.53125 3.6723633 1.0151367 5.9902344.0180664 1.7685547-.7607422.2421875-3.3461914-1.5141602-2.590332-2.46875 1.0620117-4.8789063-1.2504883-7.2045898-1.7084961-2.7236329-.5361329-4.3579102.7573242-6.7900391 1.7416992z"/><path d="m150.8401031 78.6551056c-1.6845703.3208008-3.0878906 1.4077148-4.7866211 1.7050781-3.0234375.5292969-5.9228516-1.043457-8.5175781-2.4033203-1.7084961-.8950195-3.2265625 1.6933594-1.5141602 2.590332 2.6333008 1.3803711 5.4003906 2.7788086 8.4243164 2.940918 1.3613281.0727539 2.6025391-.1308594 3.8798828-.5942383 1.4086914-.5112305 4.0625-2.3017578 4.9682617-.4707031.855957 1.7304688 3.4443359.2124023 2.590332-1.5141602-.9531249-1.9272461-2.9575194-2.6508789-5.0444335-2.2539062z"/><path d="m272.7615051 175.1712189c-15.5668945-9.0180664-31.6816559-16.9658203-48.2529449-23.9599609-.0058594-.003418-.0117188-.0068359-.0170898-.0102539-.0004883.0009766-.0009766.0014648-.0009766.0024414-.1196289-.0507813-.237793-.1035156-.3574219-.1538086-1.0537109-.4433594-1.8339844.5273438-1.8374023 1.4799805-11.2553558 11.3457947-37.9165802 39.9487915-46.4165039 52.699707-.8232422 1.234375.8168945 2.8754883 2.0522461 2.0522461.0429688-.0288086.1142578-.0351563.1733398-.0512695 1.0737305 1.6035156 1.9487305 3.3447266 2.5795898 5.1660156 4.9995117 2.3530273 9.8613281 5.0810547 14.6757813 7.8818359-2.5029297 3.1235352-4.984375 6.2636719-7.4208984 9.440918-.6088867.7939453-.0454102 1.765625.7504883 2.1181641.0219727.0273438.0419922.0551758.0649414.0820313 1.5874023 1.8422852 2.7094727 4.0820313 3.2353516 6.4560547 18.5732422 8.8818359 35.0063477 17.9267426 51.9560547 29.6122894.4448853-.7167358 32.087265-49.8850708 34.3232574-54.7826996-.3212891-2.6162109.0043945-4.2651367-.1831055-6.6806641.2158203-.253418.4287109-.5102539.6489258-.7573242.6416016-.7207031.5620117-1.8378906-.3037109-2.355957-4.565918-2.730957-9.1738281-5.4018555-13.8442383-7.9536133 2.8334961-4.0170898 5.6933594-7.9682617 8.5571289-11.8012695-.1601563-1.6113281-.7041016-3.3330078-1.0463867-4.9970703.3154297-.3833008.6333008-.7646484.9667969-1.1323242.6420897-.7070314.5649413-1.8525392-.3032228-2.3554689zm-30.9638824 83.4203949c-21.1719513-16.3644867-47.7848969-28.9857178-49.5507813-29.5571136 1.8847656-2.4296875 3.7910156-4.8422852 5.7172852-7.2382813 15.2029572 8.9118958 25.3770599 14.2662659 36.6899414 21.6899414 8.1142578-15.3320313 17.9536133-30.9033203 28.1963043-45.5585938 4.2319336 2.3081055 8.4101563 4.7163086 12.5537109 7.1782227-2.4022827 2.919754-33.5379943 53.3733978-33.6064605 53.4858246zm-17.2133789-104.1118012c15.4624023 6.5673828 30.5112305 14.0268555 45.0839996 22.3837891-2.640625 3.1242218-36.8780365 57.8145447-36.9521637 57.934082-15.04245-11.4741821-30.9778748-20.8129425-49.0415039-28.5161133-1.1430664-.4873047-2.4042969-1.2827148-3.6694336-1.7490234 8.6359711-12.0693054 33.379776-38.7717743 44.5791016-50.0527344z"/><path d="m229.4109039 180.9949493c12.8834534-.1153564 10.7301636 10.785141 19.4023438 8.1376953 1.8408203-.5620117 1.0556641-3.4589844-.7978516-2.8930664-4.1095734 1.2546539-6.7950592-5.873764-11.6865234-7.5498047-4.6210938-1.5839844-17.2866211 1.7958984-16.824707-6.2333984.1108398-1.9287109-2.8891602-1.9223633-3 0-.4213868 7.3188477 7.2075195 8.5893555 12.9067382 8.5385742z"/><path d="m220.982193 201.6463165c2.4672852.4042969 7.1630859-.7421875 8.2856445 2.2885742.6650391 1.7949219 3.5654297 1.0185547 2.8930664-.7978516-1.0532227-2.84375-3.4047852-4.0693359-6.3666992-4.284668-5.3720703-.390625-10.0112305-1.0253906-12.2089844-6.746582-.6850586-1.7841797-3.5869141-1.0092773-2.8930664.7973633 1.9549866 5.0897675 5.829422 8.0107575 10.2900391 8.7431641z"/></g></g></svg>