<svg id="Layer_1" enable-background="new 0 0 300 300" height="512" viewBox="0 0 300 300" width="512" xmlns="http://www.w3.org/2000/svg"><g id="filter"><g><path d="m211.7385406 138.7270508c-.0039063-.0019531-.0078125-.0039063-.0117188-.0058594 1.7002258-21.7146225-20.4974213-35.8801422-41.6508789-42.2294922.5469513-5.0631714 1.4733124-12.6919708 2.3681641-18.6015625 13.7188416 6.6218185 22.0390472 10.210022 33.6889648 15.1181641 3.3986816 1.4316406 7.2709961 4.0048828 11.1013184 4 6.6710052-.0101547 7.0294952-6.6791229 8.355957-8.2177734 2.1035156-2.4404297 3.9899902-.6503906 6.425293-1.3652344 4.0732422-1.1962891 4.4272461-8.5556641.2109375-9.7255859-.2402344-.0673828-.4621582-.0751953-.6635742-.0410156-15.9221191-6.4863281-31.8442383-12.9736328-47.7666016-19.4599648.9491882-2.0989685 1.1980591-4.4729042 1.0725098-5.0341797-.9799805-11.7763672-17.7785645-16.0849609-27.0969238-17.6650391-10.5756836-1.7919922-22.8276367-2.1005859-33.9624023.5097656-.1435547-.1015625-.3122559-.1865234-.5185547-.2373047-4.932373-1.2216797-9.3955078-7.5419922-14.782959-3.8642578-1.7646484 1.2050781-2.6672363 3.0898438-3.9741211 4.7197266-3.1374512 3.9101563-7.2077637 3.6914063-11.7800293 3.0488281-1.9160156-.2695313-2.6000977 2.1523438-.7973633 2.8925781 3.7553711 1.5419922 7.1728516 3.46875 10.4812012 5.8017578-2.628418 4.6777344-2.0864258 10.1464844 3.439209 14.734375 1.2729492 1.0566444 2.6489258 1.9921913 4.0825195 2.8525429.0019531.0166016 0 .03125.0026855.0478516 1.5202637 9.7402344 2.9250488 19.5966797 4.6477051 29.3691406-23.4079056 5.5853958-47.9811554 20.3971786-45.8291016 44.2412109-.0007324 0-.0014648.0009766-.0021973.0009766-16.9899864 9.1904297-30.9899864 22.5400391-36.8100548 41.1298828-11.9499512 38.2402344 23.9299316 67.4404297 56.010006 78.9306641.0019531 0 .0036621.0019531.0056152.0019531 32.1208496 13.1201172 82.5463867 11.9638672 122.2827148 1.1435547 12.0749512-3.2880859 29.8286133-11.4921875 39.9377441-19.0810547 10.1093903-7.5888672 17.8764801-17.0117188 19.7548981-29.7939453 2.0366211-13.8613281-3.4697266-28.078125-12.2207031-38.7763672-5.9942625-7.3274231-13.6636198-17.3523254-46.0002593-34.4443359zm-61.1101074 30.0595703c.9401855-.2001953 1.3400879 1.25.4001465 1.4501953-20.4099121 4.2402344-41.6000977.3798828-59.1699219-10.8398438-.8100586-.5205078-.0600586-1.8203125.7600098-1.2998047 17.2299805 11.0097657 37.9799805 14.8496094 58.0097656 10.6894532zm-46.0998535-24c1.6699219 4.0800781 5.3100586 6.8701172 9.630127 7.6005859.9499512.1494141.5397949 1.5996094-.4001465 1.4394531-4.880127-.8095703-8.8200684-4.0898438-10.6699219-8.6396484-.3701172-.9003906 1.079834-1.2802734 1.4399414-.4003906zm22.8679199-18.3984375c.1866913-.4327316.5628204-1.0678558.7836914-1.4414063.1004333-.0072708.7889099-.0570755.6884766-.0498047 0 .0048904.0579987.1440735.0598145.1494141.2074738.6223984 3.1325836 5.2157593-.0368652 5.5371094-.9147949.0927734-1.5759277-.5390625-1.847168-1.3457031-.2180176-.9316407.0380859-2.1220703.3520507-2.8496094zm25.3620606 10.4882812c.4799805-.8300781 1.7800293-.0800781 1.3000488.7607422-3.8500977 6.6494141-11.4101563 9.359375-18.6101074 6.6591797-.8999023-.3398438-.5100098-1.7890625.4001465-1.4492188 6.579834 2.4697266 13.3798828.1298829 16.9099121-5.9707031zm-11.1037598-2.3310546c.4394531-1.7119141 1.3881836-3.2695313 2.307373-4.8359375.6271973 1.4863281 1.2824707 2.9541016 1.9396973 4.4492188.7680664 1.7480469.7629395 4.0380859-1.5141602 4.4990234-2.4841308.5019531-3.0117187-2.4179688-2.7329101-4.1123047zm27.9138184 6.0214843c.4699707-.8398438 1.7700195-.0800781 1.2900391.7597656-4.2102051 7.4306641-11.5500488 12.140625-20.0500488 12.9599609-.9599609.0898438-.9499512-1.4101563 0-1.5 7.9499511-.7695312 14.8198241-5.2792968 18.7600097-12.2197265zm-71.6000977-14.6601562c-7.4099731 6.2150879-14.4275513 13.576004-9.9099121 22.2402344.4499512.8603516-.8500977 1.6103516-1.2900391.7597656-4.83815-9.2874756 2.1581039-17.3694763 10.1401367-24.0595703.7299805-.6103516 1.7998048.4394531 1.0598145 1.0595703zm110.25 25.4404297.0029297-.0029297c-3.0534668 26.3076172-18.8278809 51.4023438-43.4846191 62.3701172-39.4826813 17.5627899-87.3091583-11.9153595-92.3327637-62.1806641 23.7886124 44.3396759 121.0027924 33.5614929 135.8144531-.1865234zm-20-20.140625c-.5500488-.7998047.75-1.5498047 1.3000488-.75 8.6240845 12.6957855-1.9195404 26.3401794-15.3400879 32.9306641-.8598633.4199219-1.619873-.8701172-.75-1.3007813 12.6788331-6.221695 22.9962311-18.7423554 14.7900391-30.8798828zm9.7216797 57.4257812c1.157959-1.7636719 2.2453613-3.5673828 3.2617188-5.4082031 13.3075409-4.8324738 27.3162537-1.6879883 34.498291 3.7392578-1.9375 6.5634766-13.3530273 8.7275391-19.0380859 9.1113281-6.6604004.4492188-13.2080078-.9482422-19.2260742-3.7255859.1967773-1.2578125.3642577-2.4990234.5041503-3.7167969zm4.3127441-7.3496094c1.2478027-2.4091797 2.3652344-4.8808594 3.3720703-7.3964844 13.5508881-2.1273346 25.6660004 3.6723328 30.3540039 10.7988281.0043945.1132813-.0041504.2226563-.0048828.3339844-10.5756835-5.6608886-22.3955841-7.3871917-33.7211914-3.7363281zm4.5634766-10.5537109c1.3137207-3.7021484 2.3845215-7.4912109 3.1777344-11.3447266 9.5029297 1.6787109 21.4587402 6.7255859 26.6452637 15.2626953 2.0610352 3.3925781 3.104248 6.9912109 3.1945801 10.5078125-4.1579743-8.4516601-16.990326-16.1605834-33.0175782-14.4257812zm2.0102539-33.4882812c-.0026855-.0009766-.0053711-.0029297-.0080566-.0039063-.0300293-.0195313-.0600586-.0302734-.0900879-.0498047-4.1398926-11.4902344-19.3898926-21.2802734-40.5200195-25.9404297-.0073242-.0019531-.0161133-.0029297-.0236816-.0048828 1.0981445-3.5058594 1.3366699-7.7822266 1.6245117-11.6972656 18.7056426 5.7086868 39.5196685 18.0637665 39.0173339 37.6962891zm22.8347168-56.3242188c.9975586 1.4228516.6623535 2.6445313-1.041748 3.6591797-.3344879-.0220795-3.6951599-.2623367-4.3422852-.0732422-1.5620117.4570313-2.4621582 1.3955078-3.2773438 2.7734375-1.9128418 3.234375-2.845459 7.7539063-7.8955078 6.328125-3.064209-.8652344-6.1330566-2.6376953-9.0776367-3.8652344-14.2114258-5.9267578-28.1896973-12.390625-41.9484863-19.2988281 7.057373-1.7138672 14.3583984-4.6425781 18.1662598-9.6562538 16.4721679 6.7109413 32.9443359 13.4218788 49.416748 20.1328163zm-132.2277832-37.9834022c1.9990234-.2421875 3.9050293-.890625 5.5512695-2.2792969 3.466095-2.9211349 1.2590179-3.9023056 6.6818848-5.2548828 4.3070755-1.0725479 3.609642-.1340675 7.4042969 1.9443359-5.167099 1.6748581-11.3590546 4.4355278-14.9084473 8.5791016-.0007324-.0009766-.0012207-.0009766-.0019531-.0019531-1.5380859-1.0937501-3.1157227-2.0732422-4.7270508-2.9873047zm4.1386719 10.6533203c0-6.2333984 7.7280273-9.9960938 12.6547852-11.9238281 8.3706055-3.2753906 17.574707-4.4101563 26.5134277-4.4101563 8.501709 0 17.1916504 1.0439453 25.2248535 3.9306641 5.4477539 1.9589844 13.6062012 5.6484375 13.9431152 12.4033203-.7241821 14.5194893-41.1197968 21.5356789-65.6813965 11.9248085-4.9409179-1.9335976-12.6547851-5.682621-12.6547851-11.9248085zm9.6867676 14.1562538c11.5500488 5.4589844 26.5593262 5.9101563 38.3195801 4.7548828 2.203125-.2158203 4.9140625-.5537109 7.8259277-1.0771484.2524567.165863-.2993317-.1345367 2.8664551 1.4560547.9541016 1.5439453 2.4240723 3.3642578 2.9206543 4.4335938 1.4675293 3.1611328 2.4929199 5.7802734 3.1936035 8.3613281-.8338928 6.761322-1.5021362 12.9771118-2.2685547 18.5478516-.2136078 1.5529022.0162811 6.4595413-4.0744629 10.1220703-10.3413391 9.2598114-25.2565918 10.1401825-36.6530762 2.2939453-4.4558258-3.0652542-4.2184677-3.821312-5.2324219-9.1083984-1.9328155-10.0696336-4.4642562-24.3603059-6.897705-39.7841798zm-36.5009766 53.1220703c8.8127518-12.3264236 23.6069641-18.9820251 38.3928223-22.5341797.739502 4.0244141 1.5449219 8.0292969 2.4384766 12.0048828-.0029297.0009766-.0080566 0-.0107422.0009766-23.8400879 4.2607422-41.2399902 14.8408203-45.3300781 27.4804688-.1665039.078125-.3327637.1572266-.4902344.2451172-.3261719-5.7753907 1.2277831-11.6777345 4.9997558-17.1972657zm143.5805664 122.7021484c-68.5708008 46.6684875-189.3301849 14.3885498-187.6101074-49.4296875.5944748-22.1743469 17.2221451-39.8719788 36.5700645-51.0605469.0014648-.0009766.0029297-.0019531.0041504-.0019531.0029297.0126953.0056152.0263672.0083008.0400391-3.2399292 3.7792664 4.8881836 40.4873199 23.1391602 60.4638672 8.2094727 8.9863281 13.3769531 13.390625 21.9658203 17.3066406 30.6668243 13.9831848 54.6781616 9.6047821 71.4443359-3.5498047 6.5490723-5.1386719 9.7536621-14.5009766 11.3254395-23.4433594 8.2441406 3.6816406 17.4016113 4.7773438 26.2790527 2.6865234 4.9438477-1.1640625 11.3964844-3.8251953 13.3847656-8.6484375.3671875.3457031.7041016.7050781 1.0043945 1.0800781.479248 2.234375.2202148 4.578125-1.078125 6.9072266-8.2167053 12.5226898-24.5501251 11.2712097-39.0900879 8.7109375-1.8881836-.3320313-2.6984863 2.5585938-.7976074 2.8925781 1.2773438.2255859 2.6318359.4453125 4.0400391.6484375 2.3947754 2.0195313 6.4621582 3.2128906 8.8803711 4.2041016 32.1018219 13.1690216 33.6313171-10.2211151 24.4040527-8.6552734 7.7667999-5.8846741 10.9782715-16.9763489 6.7001953-27.2480469-4.7797852-11.4755859-18.7490234-18.0371094-30.3703613-20.0253906.3156891-1.8572235 2.0102539-13.6440277.7958984-14.7695313.0119629-.0654297.0256348-.1298828.0373535-.1953125.0041504.0019531.0085449.0048828.0129395.0068359 10.579834 5.7900391 19.9897461 13.3300781 27.3898926 22.9501953 19.1597786 24.9233094 14.2392311 56.9116365-18.4399376 79.1298829z"/><path d="m202.7968903 224.0639648c-22.6711426 17.2373047-53.6335449 21.7871094-81.1831055 16.5332031-23.3532715-4.453125-69.572998-25.9267578-49.824707-56.1044922.5302734-.8095703-.7680664-1.5625-1.295166-.7568359-18.8024864 28.7324219 20.9020996 50.9082031 44.1838379 56.8535156 29.5644531 7.5478516 64.1660156 3.5576172 88.8762207-15.2304688.7585449-.5761718.0119628-1.8798827-.7570801-1.2949218z"/><path d="m150.0002594 65.1000977c33.3876801-2.8750954 32.1792145-19.5467529 4.4406738-23.5459023-12.0058594-1.7304688-26.7697754-1.5908203-37.8364258 4.1289063-5.7441406 2.9697266-8.7143555 8.4990234-2.7624512 13.0712891 9.354004 7.1865272 25.0781251 7.300785 36.1582032 6.3457069zm-35.7526855-7.7353554c-1.427002-1.1591797-2.4191895-2.5722656-2.4191895-4.2939453 0-4.8349609 7.7380371-7.2587891 11.3083496-8.3173828 6.324707-1.8769531 13.0268555-2.5185547 19.6037598-2.5185547 6.3508301 0 12.7792969.6181641 18.9106445 2.3261719 3.9980469 1.1132813 11.5959473 3.3769531 12.0012207 8.5097656-.1279297 1.6201172-.9851074 2.9462891-2.2055664 4.0439453 0-.0019531.0004883-.0039063.0004883-.0058594 0-3.8623047-12.8105469-6.9931641-28.6130371-6.9931641-6.5957489 0-29.4408264 1.4206353-28.5866699 7.2490235z"/><path d="m125.9946442 81.3540039c1.9304199 0 1.9335938-3 0-3-1.9301758 0-1.9335938 3 0 3z"/><path d="m126.5576324 96.5522461c1.9304199 0 1.9335938-3 0-3-1.9304199 0-1.9335937 3 0 3z"/><path d="m129.0905914 112.8754883c1.9304199 0 1.9335938-3 0-3-1.9304199 0-1.9335937 3 0 3z"/><path d="m144.0068512 80.5102539c1.9304199 0 1.9335938-3 0-3-1.9301758 0-1.9335938 3 0 3z"/><path d="m142.5996246 96.2709961c1.9304199 0 1.9335938-3 0-3-1.9301757 0-1.9335937 3 0 3z"/><path d="m144.8510895 114.0014648c1.9304199 0 1.9335938-3 0-3-1.9301758 0-1.9333496 3 0 3z"/><path d="m162.8632965 79.9467773c1.9304199 0 1.9335938-3 0-3-1.9301758 0-1.9335937 3 0 3z"/><path d="m160.8933258 95.1450195c1.9304199 0 1.9335938-3 0-3-1.9304199 0-1.9335937 3 0 3z"/><path d="m158.9233551 110.0610352c1.9301758 0 1.9333496-3 0-3-1.9304199 0-1.9335937 3 0 3z"/></g></g></svg>