<svg id="Layer_1" enable-background="new 0 0 300 300" height="512" viewBox="0 0 300 300" width="512" xmlns="http://www.w3.org/2000/svg"><g id="Financial_Solutions_Financial_Solutions"><g><path d="m32.7303047 194.8424225c3.0216866.6161804 19.5183411 5.0269165 41.7836952 6.8789063 1.4331055 3.0576172 4.7758789 5.6171875 7.1376953 7.5234375 11.8305664 9.5488281 25.7148438 16.8681641 40.769043 19.6210938 14.8330002 2.7109375 29.7397385.6132813 44.4111252-2.1162109.4946289 3.8115234 2.8051758 11.734375 7.5444336 8.9150391 1.0766602-.640625 1.8071289-1.9042969 2.3012695-3.2998047.2016602.0546875.4243164.0703125.6645508.0341797 2.4682617-.3710938 4.9272461-.8525391 7.3696289-1.3955078-.2333984 7.1494141-.9204102 14.2744141-1.8549805 21.4208984-1.2539063 5.1474457-2.5556641 10.3036957-3.0292969 15.4648285-.4262695 4.6474609 2.0712891 8.3896484 6.9702148 8.6972656 7.80159.4881897 12.6371155-7.1793823 20.7724609-7.9345703 15.5906219-1.4458313 22.7328796 12.364502 35.9921875 8.9023438 3.0122375-.787384 5.2909698-2.7024536 7.9057617-4.6992188 2.894577-1.500885 7.115799-1.5182495 10.2661285-.5742188 3.3427734 1.0019531 6.550293 4.1464844 9.3178711 2.0205078 2.1455078-1.6484375 2.8110352-5.9550781 2.6206055-8.6533203-.3835754-5.430481-4.2922363-56.3154907-4.7470703-60.550766 3.2983398-1.2373047 6.5771484-2.5283203 9.8046875-3.9394531 1.7646484-.7705078.2392578-3.3564453-1.5141602-2.5898438-2.8447266 1.2431641-5.7363281 2.3769531-8.6435547 3.4697266-.7792969-6.4335938-1.8378906-13.0029297-3.0205078-18.9863281-.9018555-4.5625-2.9132996-10.339325-5.9145508-14.3056641 2.4785156-.9121094 4.9560547-1.8251953 7.4345703-2.7363281 1.796875-.6601563 1.0205078-3.5605469-.7978516-2.8925781-2.8979492 1.0654297-5.7939453 2.1367188-8.6928711 3.1992188-7.2301178-7.2679443-23.1946564-.5908203-30.980484 6.2978516-.0053711.0048828-.0087891.0107422-.0141602.015625-9.793457-1.9619141-19.9458008.4824219-27.9365234 7-5.7480469-.9052734-11.7016602-.5800781-17.1762695 1.5107422-4.0874329 1.5606384-9.0986023 5.7425537-12.28125 8.7783203-4.7796631-1.9118652-6.3158417 6.1919098-5.652832 10.2851563.0019531.0146484.0078125.0253906.0102539.0390625.0444336.4863281.1723633.9482422.3999023 1.3857422-2.6923828-1.1708984-5.3530273-2.4238281-8.1992188-3.2158203-3.277832-.9111328-6.6538086-1.1464844-9.9580078-1.7011719 6.4852142-1.4989014 10.7354736-2.7632599 12.1464844-3.1484375.0446625-.1000977 3.9933014-6.689682 5.3095703-14.5566406 3.4345703-4.53125-3.8662109-7.4775391-7.9790039-8.78125.7919922-8.2958984-11.7182617-17.0615234-17.0908203-20.8662109-6.2677765-4.4395294-13.5371017-8.5337219-21.0971603-10.1865234 3.6518555-17.3789063 18.869133-29.4912109 20.400383-47.7138672 1.3149414-15.6503906-6.0205078-31.354496-19.494133-39.6142616-13.5966797-8.3359375-31.8081055-9.2519531-45.8837891-1.5488281-12.4711838 6.8262596-21.2621422 21.7783623-23.8730507 32.8720741-5.8589668 24.8935547 8.9984512 40.2929077 12.9873047 48.2177734 10.6281853 21.1157074 6.432476 12.8598022 7.4912148 14.8417969.3461914.6464844.699707 1.3203125.7397461 2.0527344.0913086 1.6835938-1.0605469 3.0546875-.230957 4.5214844.4086914.7226563.8540039 1.4130859 1.5976563 1.78125.7441406.3681641 1.5224609.9648438 1.5380859 1.7949219.0253906 1.3378906-1.8911133 2.0371094-1.9785156 3.3720703-.1142578 1.7412109 2.890625 2.5644531 2.5952148 4.2841797-.0888672.515625-.4633789.9023438-.8325195 1.2939453-8.1181641.4140625-16.2470741 1.1875-24.2890663 2.3037109-6.9995117.9716797-14.3037109 2.0410156-20.9155273 4.6503906-2.34375.9248047-6.0517578 2.4082031-6.4169922 5.3378906-.2275391 1.8222656.8139648 3.2158203 2.359375 4.2939453 1.1605397 1.6973721 9.7736016 12.8281552 9.854004 12.9287106zm88.698246 6.1210937c2.5507813 2.0605469 5.2651367 4.0107422 7.5590744 6.234375-1.0737228 1.1679688-5.2421799 1.5742188-5.8290939 1.5751953-1.8588715.0030212-15.7167282-4.0405273-21.4570313-6.3291016 6.6201172-.2089843 13.1923829-.7021484 19.7270508-1.4804687zm-5.7861328-14.6845703c.1303711-.8691406.5332031-1.6015625 1.3759766-2.0205078 1.5893555-.7890625 3.6264648.1171875 5.5522461 1.484375-2.3071289.203125-4.6166993.3818359-6.9282227.5361328zm61.7646408 43.084961c.074707-.4882813.1289063-.9501953.1650391-1.3564453.5767059-6.5197906-1.7931671-29.7097015-5.8789063-35.8632813 3.8976288 2.5336151 13.6076508-1.335556 13.090332 35.7763672-2.442871.5595703-4.9052734 1.046875-7.3764648 1.4433594zm4.4101563-45.1210938c6.3291016-2.6523438 13.4077148-2.5927734 19.9707031-.9033203 1.8833008.484375 2.6166992-2.2792969.7973633-2.8925781-.019043-.0068359-.0380859-.0126953-.0571289-.0195313 8.6328125-6.0361328 19.8837891-7.2470703 29.6469727-2.9726563 1.7514648.7666016 3.2807617-1.8173828 1.5141602-2.5908203-1.1694336-.5117188-2.3574219-.9345703-3.5522461-1.3105469 4.6206055-3.6845703 10.1518555-6.2177734 16.0996094-6.7509766 11.3167877-1.0151825 12.6785736 10.8037872 14.2968903 21.2529297 3.5646057 23.01297 8.6886597 50.8076172 8.0996094 74.2724457-.0166016.6611328.1914063 7.8398438-.159668 8.0976563.3349609-.2460938-4.1665039-2.4882813-4.7089844-2.6904297-9.6139526-3.5657654-12.3396759 2.3534851-17.8506012 5.5488281-12.8642578 7.4599609-16.3286133-9.4882813-26.675293-11.8955078-10.328125-2.4033203-18.0454102 6.140625-26.3374023 10.4765625-1.2851563.671875-3.7792969 1.9013672-5.4443359 1.7705078-9.1587982-.7215271-2.6792297-7.5873718 1.1015625-34.8388519 1.7226563-12.4208984 2.2236328-25.5351563-1.1928711-37.7333984-1.7094727-6.1025391-5.8691406-12.2294922-11.7182617-12.7929688 1.8730467-1.5859374 3.8271482-3.0458984 6.1699217-4.0273437zm-35.8559571 15.6064453c4.1567383.6298828 8.1274414.9726563 12.0600586 2.5107422 2.8631592 1.1193695 9.6170807 4.3742676 12.3271484 4.6289063 1.3460999 1.5695801 4.9785309 10.4242554 2.484375 15.5722656-16.8798828 3.2685547-34.2236328 6.6132813-51.3398361 3.0732422-14.4311523-2.984375-28.0664063-10.1992188-39.230957-19.7529297-1.203125-1.0302734-3.0664063-2.4013672-4.1289063-3.8857422 5.0703125.3466797 10.1074219.5332031 15.1152344.5576172 6.765625 2.6344299 26.964447 10.7453156 34.0898438 8.6044922 1.2206955-.3671875 2.603508-.9726563 3.5942307-1.8505859.0917969.1123047.1918945.2197266.28125.3339844 1.1855469 1.5214844 3.2949219-.6152344 2.1210938-2.1210938-.3574219-.4580078-.7255859-.9003906-1.0996094-1.3339844-.1319275-.9479828-.5439911-1.608551-1.4970703-1.6308594-1.4482422-1.4941406-2.9970627-2.8681641-4.6245041-4.1943359 4.4682541-.6269531 8.919426-1.3935547 13.3574142-2.2880859 2.0327148.8203124 4.1821289 1.4277343 6.4902343 1.7763671zm-20.4667892-54.5058594c4.447258 2.1074219 8.681633 4.7285156 12.6298752 7.6611328 4.0698242 3.0224609 15.5825195 11.3144531 14.0307617 17.6552734-3.2371979 5.4475555-21.1462555-4.9627686-26.7504807-8.9355469-2.762207-1.9580078-21.9160156-17.1953125-12.6606445-19.9443359.5673828-.1679688 1.2089844-.2177734 1.8896484-.1923828.4467773.2763672 1.0024414.3496094 1.4423828.1572266 3.3276368.5859375 7.2348633 2.5644532 9.4184571 3.5986328zm-17.4833984 19.4619141c-.0791016-.1416016-.1713867-.2763672-.265625-.4101563.972702-1.1989441.9052887-2.6331329.112793-3.9443359.3261719-.3056641.6000977-.6552734.8007813-1.0400391 1.7026367 1.9443359 3.6450195 3.859375 5.578125 5.6123047-2.0747072-.0898437-4.1499025-.1640625-6.2260743-.2177734zm-30.4716797 7.1005859c.0860901-.2282562.230957-.6123047.3442383-.9130859 6.9052734.9697266 15.2763672 1.0029297 21.75-1.3203125.9023438-.3232422.5131836-1.7734375-.3984375-1.4462891-6.1367188 2.2021484-14.2163086 2.2363281-20.840332 1.3330078.0878906-.7373047-.3911133-1.3710938-1.0859375-1.6201172-.3144379-.1130371-.6290665-.2859039-.6030273-.6191406.4589844-.0576172.815918-.3310547 1.0375977-.6933594 4.1708984.2734375 8.2983398.2265625 12.4536133-.4306641.9506836-.1503906.5473633-1.5966797-.3984375-1.4472656-3.972168.6289063-7.9379883.6494141-11.9262695.3886719-.1391602-.3056641-.402832-.5566406-.8007813-.6923828-.074707-.0537109-.1538086-.1005859-.2368164-.1396484-.3802948-.4781647-.34552-.8586578-.3007813-1.1738281.0748367-.5388336.4701538-.3225708.7744141-1.0410156 6.0297852.6269531 12.0996094.2509766 18.0844727-.6748047.9511719-.1474609.5473633-1.5927734-.3984375-1.4462891-5.8920898.9111328-11.8803711 1.2412109-17.8149414.6083984-.0618515-.1010284-.2030029-.3024445-.3295898-.4257813-.7080078-.6914063-.5097656-2.3515625.578125-2.8935547.2368164-.1181641.4072266-.2695313.5302734-.4394531 7.487793.8466797 14.7719727.9140625 22.2543945-.2714844.9506836-.1503906.546875-1.5966797-.3989258-1.4462891-7.3330078 1.1611328-14.5131836 1.0507813-21.8466797.2197266-.2947311-.5024872-.7224197-.7749786-1.2514648-.8671875-.0004883-.0068359 0-.0136719-.0004883-.0205078.0688477.0048828.0571289-.0068359 0-.0332031-.0053711-1.7050781-.0102539-3.4101563-.015625-5.1142578 8.902832.4365234 17.7807617 1.1894531 26.6977539 1.203125.1953125 1.1113281.6660156 2.3027344 1.3447266 3.5361328-.4980469.1396484-.9916992.2919922-1.4360352.6025391-1.8268738 1.2816315.1018066 3.5799713 1.5141602 2.5908203.0737305-.0517578.1391602-.0888672.2050781-.1269531.4319153.2261505.8524475.0859375.980957.9384766-.1732788.1763458-.3176346.4868317-.8168945.6494141-.6557617.2148438-.9707031.7255859-1.0258789 1.2646484-.1367188.5634766.0263672 1.1875.6757813 1.5673828.2514648.1464844.5668945.5576172.6171875.9082031.0248566.1802063-.2460251.2720795-.4204102.3173828-1.3964844.3829041-1.4996033 2.4759979-.0644531 2.984375-.1982422-.0703125.1816406.2412109.2177734.2871094.09375.1171875.3100586.375.3178711.5117188.0161133.2724609-.2333984.4277344-.4472656.4248047-.5253906-.0078125-.902832.2119141-1.1420898.5322266-.4501953.4199219-.6538086 1.0761719-.234375 1.7607422.4746094.7734375.7470703 1.6503906 1.1303711 2.4707031-5.0693362 8.314453-22.9272464 10.1220702-27.2744143.1972655zm19.0346679-70.6787109c-1.2338867-1.6650391-1.9804688-3.7265625-1.9746094-6.1621094.0112305-4.9072266 3.4658203-.0439453 3.3574219 1.9882813-.0820312 1.5507812-.5917968 2.946289-1.3828125 4.1738281zm.1894532 4.4199219c1.7949219 1.4775391 3.8847656 2.5068359 6.1064453 3.0800781-3.9887695 12.2636719-5.2011719 25.8798828-5.6010742 38.6552734-3.746582-.1279297-7.4882813-.3417969-11.2304688-.5673828 1.4550781-12.4335938.8291016-24.9755859-2.0527344-37.1757813 4.6741333.3840791 9.407547-.9245071 12.7778321-3.9921874zm11.0078125 42.0732422c5.7083054 11.948288 29.6722183 27.089325 40.1821213 27.640625-4.0705872 10.472702-49.9320756-20.9289093-40.1821213-27.640625zm6.8168945-94.3828163c13.947258 7.5927734 21.4252853 23.166996 19.8237228 38.8271523-1.7973633 17.5791016-16.8452072 29.4765625-20.2880783 46.5576172-5.6069412-.420517-7.8009338 2.6350403-7.3115234 6.0322266-1.6264648.6982422-2.628418 1.6318359-3.1279297 2.7353516-1.1386719 0-2.2763672-.0087891-3.4140625-.03125.2949219-8.9755859 1.1967773-17.8925781 2.8662109-26.7236328.7265625-3.84375 1.5507813-7.7431641 2.7382813-11.5078125 9.4684677.7383881 16.9943237-6.1419754 17.4990234-12.0654297.2119141-2.4833984.065918-6.2197266-2.5776367-7.3183594-2.71875-1.1298828-7.1186523 1.2880859-9.1582031 2.9677734-3.7626953 3.1005859-6.0908203 8.4804688-7.7485352 12.9677734-1.8886719-.4472656-3.6650391-1.2451172-5.1503906-2.3759766 1.3032227-1.8623047 2.1269531-4.0498047 2.2177734-6.3496094.1152344-2.9121094-1.0317383-7.2607422-4.3881836-7.9658203-7.7744141-1.6308594-4.4609375 10.875-1.9521484 14.3896484-3.0845184 2.6953201-7.3265457 3.6235199-11.3413086 3.0888672-.9296875-4.0605469-1.9946289-8.4287109-4.2275391-11.7958984-1.2958984-1.9541016-4.0727539-5.4804688-6.7792969-5.0859375-2.3916016.3486328-4.0073242 3.6982422-4.0664063 5.8251953-.1049805 3.7753906 2.7182617 7.7294922 5.4677734 10.03125 2.1455078 1.7958984 4.7612305 3.0263672 7.5244141 3.6660156.9223633 4.3183594 1.4746094 8.7460938 1.9360352 12.6123047.9868164 8.2636719.8842773 16.5634766-.0751953 24.8164063-2.5991211-.15625-5.1992188-.3056641-7.8017578-.421875-.5400391-.0244141-.9233398.1972656-1.1606445.5253906-4.6542969-4.9716797-3.3833008-11.765625-6.0151367-17.8105469-4.746624-10.8999252-19.4315224-31.2235794-13.8852577-51.5166016 2.4047852-8.7978516 8.0185547-16.7666054 15.4565468-22.041996 13.0073242-9.2255859 31.0600586-9.5878906 44.9394531-2.0322265zm-7.6611328 52.8554725c1.0839844-2.8349609 2.4282227-5.5585938 4.1586914-8.0839844 1.2016602-1.7529297 4.909668-6.0478516 7.6220703-5.4101563 2.4599609.5771484 1.6743164 4.5410156 1.1699219 5.9443359-.8530273 2.375-2.9458008 4.3027344-5.0507813 5.6015625-2.3071289 1.4238283-5.1171875 2.0517579-7.8999023 1.9482423zm-26.522461-.2773437c-3.8149414-1.28125-7.559082-4.2587891-8.722168-8.1806641-.5273438-1.7792969-.9570313-5.3027344 2.4174805-4.0185547 1.1928711.453125 2.527832 2.796875 3.097168 3.8310547 1.3662109 2.4804688 2.3984375 5.3535156 3.2075195 8.3681641zm-55.2866249 70.5263672c1.5244141-1.0439453 3.4472656-1.6181641 5.1884766-2.1708984 13.1772461-4.1865234 27.7939453-5.3642578 41.6538124-5.9697266.019043.0234375.034668.0507813.0537109.0732422.4560547.5273438 1.0249023.9589844 1.4169922 1.5351563.5229492.7685547.6831055 1.7177734.9506836 2.6083984 2.1017075 6.9906769 8.9789581 7.8064575 9.5361328 8.1699219 8.527832 2.7236328 19.7861328-.2861328 23.8178711-8.0332031.1975021-.3796692.411377-1.1470795.0268555-1.7753906-.300293-.4902344-.5175781-1.0214844-.734375-1.5537109.5273438-.3779297.9433594-.9023438 1.1914063-1.5146484 3.2333984.0859375 6.4648438.2099609 9.6953125.3798828 2.6279297 2.1542969 4.8881836 3.7832031 6.0068359 4.4736328 4.3632736 2.6943359 26.5673752 13.9384766 27.2665939 2.3691406 1.2133789-.3535156 2.2490234-1.0039063 3.034668-2.0283203 2.4970703.6591797 7.3696289 2.0537109 6.5830078 4.3623047-1.3735046 4.0345306-27.9455109 7.346756-33.6323166 7.9345703-3.0966797-2.4580078-6.3925781-4.3105469-10.1552734-4.0439453-3.2949219.2333984-4.355957 2.5478516-4.3549805 5.1992188-8.5688477.4990234-17.1577148.7001953-25.7270508.6806641-14.6499023-.0332031-29.4077187-.6240234-43.9155312-2.7666016-5.3325195-.7871094-12.4350586-1.4072266-17.1762695-4.3085938-2.1245117-1.3007814-2.8569336-2.161133-.7265625-3.6210939z"/><path d="m47.8787422 41.7750359c2.440918 5.3232422 4.8818359 10.6474609 7.3222656 15.9707031.8037109 1.7529297 3.390625.2294922 2.5908203-1.5146484-2.440918-5.3232422-4.8818359-10.6464844-7.3222656-15.9697266-.8037109-1.7529297-3.3901367-.2304688-2.5908203 1.5136719z"/><path d="m74.5281601 26.301403c-.0634766 5.6767578.5351563 11.2558594 1.7792969 16.7939453.4228516 1.8837891 3.315918 1.0869141 2.8925781-.796875-1.1860352-5.28125-1.7324219-10.5869141-1.671875-15.9970703.0214844-1.930664-2.9785156-1.9326171-3 0z"/><path d="m105.706871 22.9049187c-2.0742188 5.5986328-3.5390625 11.3232422-4.4091797 17.2314453-.2783203 1.8886719 2.6118164 2.703125 2.8925781.796875.8701172-5.90625 2.3349609-11.6308594 4.409668-17.2304688.6713868-1.8134765-2.2270507-2.5957031-2.8930664-.7978515z"/><path d="m126.1643906 51.2838249c3.3012619-4.4628906 6.6025314-8.9267578 9.903801-13.3896484 1.1489258-1.5537109-1.4536133-3.0517578-2.590332-1.5146484-3.3012695 4.4638672-6.6025314 8.9267578-9.903801 13.3896484-1.1489258 1.5537109 1.4536132 3.0517578 2.590332 1.5146484z"/><path d="m138.8284454 71.8453522c2.7314453-2.5898438 5.4624023-5.1806641 8.1938477-7.7705078 1.4038086-1.3310585-.7202148-3.4501991-2.1210938-2.1210976-2.7314453 2.5898476-5.4628906 5.1806679-8.1938477 7.7705116-1.4038085 1.3310547.7202149 3.4501953 2.1210938 2.1210938z"/><path d="m206.7928009 219.2115631c-.2202148 1.9150391 2.78125 1.8984375 3 0 1.2441406-10.8134766-.034668-21.484375-3.7861328-31.6992188-.6601563-1.796875-3.5605469-1.0205078-2.8925781.7978516 3.6640625 9.9785156 4.8935547 20.3466797 3.6787109 30.9013672z"/><path d="m236.7835236 210.5641022c-.4287109 1.8798828 2.4628906 2.6826172 2.8925781.7978516 2.3291016-10.2089844 1.7416992-20.4980469-1.8330078-30.3457031-.6538086-1.7998047-3.5541992-1.0224609-2.8930664.7978516 3.40625 9.3828124 4.0546875 19.0126952 1.8334961 28.7499999z"/><path d="m122.4275742 149.0172272c-2.1253357 1.4872131-3.8767014 6.4680939 9.7792892 7.7666016 2.6870117 2.1074219 5.3642578 4.2275391 8.0258789 6.3671875-1.6093597.4332886-3.5898132-.3145447-4.8203125-1.3339844-.737793-.6113281-1.8051758.4443359-1.0605469 1.0605469 1.3486328 1.1171875 4.9492188 2.0117188 7.4160156 1.5107422.527832.4287109 1.0625.8476563 1.5878906 1.2792969.7402344.6083984 1.8071289-.4472656 1.0605469-1.0605469-.355957-.2929688-.7192383-.5771484-1.0771484-.8681641.7851563-.5859375 1.1508789-1.53125.753418-2.9580078-.6601563-2.3701172-4.0185547-3.6923828-6.0737305-4.359375-1.6342773-.53125-3.3388672-.7568359-5.050293-.9335938-2.5239258-1.9794922-5.0400314-3.9677734-7.5449142-5.9716797.7265625-.0703125 1.4516602-.0371094 1.9960938.0302734.9560471.1171875.9477463-1.3837891 0-1.5-1.0097656-.1240234-2.3154297-.0761719-3.4838867.2705078-.8364258-.6748047-1.6801758-1.3398438-2.5102539-2.0224609-.7402344-.6083984-1.8076172.4472656-1.0605469 1.0605469.6821289.5605469 1.3759765 1.1064453 2.0625 1.6621094zm19.0996017 13.2617187c-2.1123047-1.7001953-4.2333984-3.3886719-6.3652344-5.0634766 3.1883393.6549225 8.0209046 2.2643281 6.3652344 5.0634766zm-11.3271484-7.0751953c-3.0444641-.3475647-8.8007507-1.8120422-7.4755783-4.3320313.2026367-.3847656.527832-.6660156.9179688-.875 2.1767577 1.7470704 4.3618087 3.4843751 6.5576095 5.2070313z"/></g></g></svg>