<svg id="Layer_1" enable-background="new 0 0 300 300" height="512" viewBox="0 0 300 300" width="512" xmlns="http://www.w3.org/2000/svg"><g id="Find_a_Store"><g><path d="m211.7924347 182.20224c-2.71875.2109375-3.2226563.5351563-3.2353516 1.0957031-.0039063.1650391.0615234.3261719.1835938.4550781 1.0769348 1.1278381 10.4667358 1.2568359 12.2480469 1.2568359 1.3126984 0 7.3725891.0574493 7.4052734-1.2519531.0073242-.3427734.0234375-1.3535156-8.6318359-1.6445313 5.4555664-8.7211914 14.2880859-17.0537109 14.4365234-28.0214844.1210938-8.9462891-6.9760742-16.1279297-15.9868164-15.6850586-9.112793.4477539-15.7436523 8.027832-15.3100586 17.1005859.4575195 9.5688477 7.9257813 19.3383789 13.8432617 26.546875-1.8613281-.007324-3.5795898.0429689-4.9526367.1479494zm8.5917969-40.6992188c10.8276367 1.1015625 12.4550781 12.6645508 8.7104492 20.9248047-2.7451172 6.0556641-7.2426758 11.1201172-10.921875 16.6303711-4.112793-5.1679688-7.8564453-10.9018555-10.5107422-16.9248047-4.2646484-9.6777343.7231445-21.8510742 12.722168-20.6303711z"/><path d="m98.2860947 196.1348572c18.803093-15.4917603 20.0710449-44.6880646 4.6430664-61.4550781-10.0439453-10.9165039-24.3173828-15.5058594-38.8295898-12.2758789-30.8172188 8.3856659-39.8637543 45.8305664-21.1328163 68.3964844 13.7514648 16.5668945 38.6777381 19.0463866 55.3193397 5.3344726zm2.3916015-59.4482422c4.7524414 4.7333984 8.050293 10.715332 8.8286133 17.6494141.6748047 13.9389648-6.5380859 29.4975586-17.9150391 37.2402344-25.3417053 15.9629669-58.2356491-12.4244995-46.7192421-48.375 3.1519661-9.8404541 7.3244591-14.4485321 20.0253944-17.9047852 11.194069-2.0282669 24.5522233 1.2106247 35.7802735 11.3901367zm-59.9096718 8.3408203c-1.565918 5.8041992-1.8486328 12.0019531-.9970703 18.0634766 3.2415047 29.7356262 30.6717033 42.6043091 49.6152382 33.1489258 5.6508179-2.50354 11.4824982-7.158844 15.8325195-13.5595703-25.2785949 43.7827453-86.7784118 7.2099151-64.4506874-37.6528321z"/><path d="m207.9237823 125.3877869c-15.9820404 6.0251923-26.6246338 21.7714233-27.9624023 38.5957031-1.3486328 16.9780273 7.4267578 34.4458008 23.4511719 41.2895508 16.0117188 6.8388672 34.3349609.9389648 45.2045898-12.1772461 12.4853668-15.0664063 14.0639801-37.2724609 3.2753906-53.6606445-9.9853515-14.0424805-27.5883789-20.222168-43.96875-14.0473633zm3.0771485 79.137207c-15.7597656-3.2504883-26.5976563-17.4833984-28.0063477-33.1479492-.0102539-.1137695-.0092773-.2280273-.0185547-.3422852 7.3782806 23.6394196 30.630661 34.7321167 49.8530273 26.6176758 17.2890625-7.2978516 24.4008942-25.6186523 22.2626953-42.9472656 6.4070893 28.8594665-18.2436828 55.1507416-44.0908202 49.8198242zm34.258789-68.3291016c.0161133.027832.0249023.0551758.043457.0830078 12.2592926 18.5961914 9.3369141 47.7573242-12.4487305 58.097168-20.9142151 9.9249115-47.7155457-6.2677155-49.0532227-35.7983398 2.3286133-10.9614258 8.8076172-20.9829102 18.4418945-27.0302734 14.1279299-8.8681641 31.6538088-6.6176758 43.0166017 4.6484374z"/><path d="m138.0971222 126.3682556c.7926636 1.587738 6.3985443 12.0729523 8.019043 12.7485352.8428192.3512268 1.6411591.0281219 2.4496765-.7451324 1.6596375-1.5872803 3.3621368-5.0713348 5.5801086-8.5131683 1.0488281-1.6279297-1.546875-3.1333008-2.590332-1.5141602-2.9006653 4.4999695-2.4372253 3.7121124-4.4472656 7.1777344-1.7783203-2.8989258-3.6850586-5.6845703-5.3481445-8.6572266 4.237793-.1044922 8.4770508.1870117 12.7143555-.0893555 1.9169922-.125 1.9311523-3.1259766 0-3-3.4448242.2246094-6.8720703.0581055-10.3188477.0410156-.7852173-.0038528-7.7287446-.7921905-6.0585938 2.5517578z"/><path d="m225.1376495 155.2105408c1.1775818-3.966156-1.624588-7.7588959-4.6904297-8.0375977-3.6777344-.3334961-7.4848633 1.831543-8.0737305 5.6992188-.512207 3.3647461 1.8383789 6.7382813 5.1914063 7.3603516 3.4189453.6342773 6.6171875-1.8027344 7.5727539-5.0219727z"/><path d="m55.5805244 178.3726501c12.1284218 4.7524414 24.2832069.9277344 36.8061562 1.4189453 1.0668945.0415039 1.9643555-1.3344727 1.2949219-2.2573242-1.1413498-1.5736694-.9611816-24.6870422-.5273438-31.5952148.1015625-1.6176758-2.0073242-1.8588867-2.7954102-.7568359-.3823242.5341797-1.7998047.8369141-3.300293 1.015625-1.2470093-6.595459-4.2166977-14.4151611-10.8676758-13.8164063-7.0244751-2.4724274-10.9097366 4.2853699-12.6503944 11.5517578-1.8974609-.3144531-3.8037109-.5786133-5.7314453-.7329102-1.1586914-.0927734-1.6108398.9560547-1.3745117 1.8398438-.0685005.4612427-1.6091461 30.4808044-1.9018555 31.4873047-.2436523.8378906.3012696 1.5527344 1.0478516 1.8452148zm20.3383828-44.4594726c4.2875977 1.9243164 5.7714844 7.4487305 6.3422852 12.5830078-4.5012436.0999603-9.2639542-.8129272-13.9511719-1.6987305.9399414-4.2802734 3.024414-10.1567382 7.6088867-10.8842773zm9.6455078 12.4257812c-.7104492.0522461-1.362793.0834961-1.8486328.1049805-.5200195-4.4204102-1.6772461-9.2226563-4.4248047-12.0522461 3.8481445 1.8408203 5.5097656 7.9140625 6.2734375 11.9472656zm-12.6020508-12.8466796c-3.4433594 2.2099609-5.2617188 7.1557617-6.1210938 11.0297852-.6376953-.1191406-1.2758789-.2353516-1.9145508-.3481445 1.0643235-4.3017427 3.8645554-10.004532 8.0356446-10.6816407z"/><path d="m71.2699814 227.4854431c22.8745728 4.4618378 49.5924988-8.8130798 55.7080078-32.8232422 3.3134689-13.0114746 2.1687851-31.6067352 1.400383-37.6074219 1.199707-3.3779297 2.8310547-6.3896484 5.4121094-7.6132813 4.1030273-1.9462891 9.0810547-2.0771484 13.6118164-2.3891602 4.9375-.340332 10.3603516-.5444336 14.3022461 2.4487305 2.6894531 2.0424805 3.9697266 6.0810547 4.7705078 9.9970703-1.460083 17.7180023 4.5870514 35.7722168 17.9663086 48.1811523 12.8422852 14.65625 31.6098633 21.1533203 48.246582 19.3647461 40.8791656-4.396225 54.1089325-46.924408 41.589859-77.6445313-6.428009-15.7743378-14.5733643-21.9105911-22.5341949-30.6748047-8.5569458-9.4613037-35.9838562-42.5822983-68.0825195-28.0498047-2.3764648-.8291016-7.7587891-2.4345703-11.0205078-3.159668-.4477539-1.3896484-1.4165039-2.5854492-2.7827148-3.2617188-.8554688-3.2304688-3.3442383-5.7094727-6.5898438-6.2880859-1.5493164-3.4443359-5.0595703-5.3300781-8.5444336-4.1279297-3.0224609-3.1210938-7.6679688-2.7724609-10.3935547.2973633-3.2255859-1.7075195-7.0478516-.5400391-9.0839844 2.4458008-3.5302734-.2817383-6.3349609 2.1733398-7.1264648 5.5214844-2.5195236.7270508-4.1669846 2.7167969-4.7729416 5.0795898-2.8696289.5688477-6.8549805 1.4726563-9.2480469 2.3623047-25.8946762-10.419838-58.4143448 9.19664-75.9794922 30.7866211-.1083984.1333008-.1821289.2729492-.2397461.4140625-6.5957031 6.6484375-11.5981445 15.0146484-14.3500977 24.3515625-10.171194 34.5087741 14.028965 75.8140261 47.7407227 82.3891604zm75.1684494-112.6079101c20.4180908 1.1667404 16.8392792 28.1071167 1.2563477 28.7109375-14.8896485.576828-20.957985-24.6264573-1.2563477-28.7109375zm122.9033356 50.7016601c-.7685547 21.9033203-13.6025543 43.1967773-34.9013824 50.5898438-20.3686523 7.0703125-42.6264648-1.1650391-54.9067383-18.5332031-12.8110352-18.1186523-13.6904297-43.2045898-2.4824219-62.3076172 10.8515625-18.4960938 32.4238281-29.2573242 53.6523438-23.9541016 24.3442382 6.0820312 38.9121245 30.0327148 38.6381988 54.2050781zm-108.577652-57.28125c-13.4794159-3.056427-21.418808-1.9643784-28.565918-.0664063 3.6277924-18.043045 25.5297241-17.2545318 28.565918.0664063zm14.9125976 4.1948242c-2.456543-9.1591797-9.824707-15.75-19.1098633-17.0830078-5.5305786-4.3452225-13.5995636-4.8068466-19.7880859-.1816406-.0449219-.0029297-.0859375-.0117188-.1328125-.0112305-9.8476486.1630859-17.4658127 7.7734375-20.2026291 16.9023438-2.3046875.2994766-4.3354568.4265747-6.8510742.0507813-1.9384766-1.4887695-2.0727539-4.3461914-.5087891-6.171875 1.25-1.4589844-.862793-3.5908203-2.1210938-2.121582-1.4018555 1.6367188-2.0200195 3.6254883-1.8837891 5.5429688-.1425781-.0615234-.2875977-.1225586-.4448242-.1806641-5.1884079-1.9195023-5.7302017-10.9637299 3.777832-14.4619141 2.310173 1.2516708 2.3232803 1.5578079 3.1489258 1.3037109 23.6623001-7.2844925 49.4781265-7.0272064 73.021965 1.6254883 1.0540771.3875504 2.1173553-1.4671097 5.4106445-.5068359 3.4912109 3.809082 1.6166992 9.1098633-2.0112305 12.5688477.3256836-1.90625.1601563-3.8637695-.6855469-5.4916992-.890625-1.7133789-3.4804688-.1982422-2.5908203 1.5141602 1.159668 2.230957.0449219 5.7739258-1.5952148 7.5522461-2.4736326.1728514-4.9814451-.2275393-7.4335936-.8500979zm-39.7519531-25.6196289c8.4111328-6.4459229 18.7363586-5.0309601 26.5415039 2.0966797-8.805191-4.4180679-20.5081787-4.3486786-26.5415039-2.0966797zm-6.6362305-1.9755859c.7563477.0083008 1.5537109-.4716797 1.6196289-1.440918.1540375-2.2750778 1.9351196-4.3291931 4.5102539-3.8500977.637207.331543 1.4472656.2553711 1.8603516-.5766602 1.2319336-2.4814453 3.6713867-3.4238281 5.9936523-2.0439453.5004883.918457 1.9609375 1.3066406 2.6147461.1225586 1.5336914-2.7792969 4.5737305-3.2827148 6.7480469-1.1210938.1743164.9223633 1.1572266 1.7172852 2.2026367 1.0908203 2.1811523-1.3061523 4.6889648-.4125977 5.6577148 1.9423828.0039063.0092773.0097656.0166016.0136719.0253906-.1279297.8251953.3466797 1.7705078 1.4272461 1.7871094 2.7758789.0419922 4.6074219 2.1098633 5.1494141 4.699707.1321716.6334534.487381 1.0831146 1.0913086 1.2602539 1.6152344.4741211 1.9853516 2.1176758 1.5371094 3.5556641-.7402344-.1547852-1.4794922-.3183594-2.222168-.4584961-10.5366211-12.6333008-27.4013672-13.2114258-38.1723633-.8422852-1.0839844.152832-2.1635666.3408203-3.244133.5234375-.177246-2.1650388 1.0087891-4.1474607 3.212883-4.6738279zm-27.6538009 7.1772461c-8.9535599 4.1231461-8.2427368 20.3253479 6.8554688 22.956543.2104492.0908203.4150391.1152344.6083984.0947266 11.1626663 1.6232605 22.6159134-5.4811935 35.0175705-5.7202148 9.9902344-.1928711 19.0380859 2.5302734 28.4785156 5.3476563 6.2211914 1.8564453 13.4897461 2.855957 19.0874023-1.25 4.3105469-3.1616211 6.8481445-9.3867188 4.559082-14.4882813-1.1342773-2.527832-3.1904297-4.2485352-5.5527344-4.8999023 15.6274414-8.3852539 31.7578125.8520508 44.7978516 12.4453125-19.4597626-5.77491-43.9677277 5.0076447-56.2749023 20.3662109-4.8486328 6.0512695-8.3427734 12.9897461-10.4741211 20.3154297-1.769043-3.7537079-5.6076508-5.4498138-9.7294922-6.0913086 8.9264679-10.2185211 4.8386383-28.4328842-12.5205078-29.2666016-13.5699463-.6425171-20.5860519 20.0374451-9.9208984 30.597168-6.2317963 1.3967133-9.0322342 1.2604065-11.0991135 5.1489258-4.230957-17.5849609-16.4423828-32.253418-32.6162109-38.8920898-10.1958008-5.4921875-22.5366211-6.9785156-33.7216835-3.9658203 3.0932617-2.2749023 6.272953-4.3920898 9.4785194-6.3339844 9.9658203-6.036133 21.9448242-9.3325197 33.0268555-6.3637697zm-77.2807656 64.2114258c2.7104492-26.3076172 23.9526367-48.5048828 51.0546913-48.3261719 20.581543.7646484 38.0722656 14.6694336 45.1503906 33.7963867 7.1103516 19.2148438 3.5927734 41.7587891-9.7553711 57.4355469-13.8808594 16.3027344-37.1210938 22.3657227-56.7680702 13.0615234-20.9311523-9.9125976-32.005371-33.4155273-29.6816406-55.9672851z"/></g></g></svg>