<svg id="Layer_1" enable-background="new 0 0 300 300" height="512" viewBox="0 0 300 300" width="512" xmlns="http://www.w3.org/2000/svg"><g id="Frequently_Ask_Question"><g><path d="m98.5480499 89.2772446c-1.6083984.7939453-1.7167969 3.7509766-.2460938 6.7324219 1.0553665 2.1375809 3.4921036 4.888382 5.4921875 3.8994141h.0009766c1.6083984-.7939453 1.7167969-3.7519531.2451172-6.7324219-1.4697265-2.9785157-3.8798828-4.6933594-5.4921875-3.8994141zm4.8046875 9.7353515c-.1225586.0605469-.2641602.0859375-.4174805.0859375.6738281-.4013672.9570313-1.7607422.6279297-3.2617188-.3671875-1.6738281-1.3544922-2.8808594-2.2045898-2.6933594-1.1684875.2548904-1.4504318 3.1148071-.1870117 5.0810547-3.1334152-2.7339706-3.7524109-8.1416016-1.7592773-8.1416016 1.0146484 0 2.6171875 1.2792969 3.7314453 3.5371094 1.2851562 2.6035157 1.1416015 4.9316407.2089843 5.3925782z"/><path d="m188.5929718 115.1249008c-1.4579163-.2713852-5.9677124 3.0189972-4.7207031 7.5195313.9649048 3.4829025 5.3227234 5.6370163 8.7558594 3.6962891 4.6313324-1.242363 5.6359711-6.6417999 2.8374023-9.6464844-1.661377-1.7829056-4.551651-2.6113816-6.8725586-1.569336zm.0351563 2.9882813c.1430664-.0605469.6108398-.1865234.7441406-.1894531 3.5649414-.0732422 4.8774414 5.0546875 1.1674805 6.0693359-3.6215821.9912109-5.3588868-4.4335938-1.9116211-5.8798828z"/><path d="m261.6608276 222.4618073c7.4937439-19.1814117 4.085022-47.341217-12.8881683-65.2597656-8.1674805-8.6228333-17.8274689-15.8019104-28.4838867-11.0644531-16.159729-16.2930298-29.4246063-18.3933792-47.4287109 8.7890625-14.440567 21.8007202-18.4332581 55.7801361 1.4580078 72.7939453.9731445 3.5029297 6.3618164 7.5224609 8.6899414 9.0048828 5.0146484 3.1923828 11.8007813 4.8671875 17.6503906 2.578125.8100586 3.7675781 5.4487305 6.8173828 9.0678711 8.8066406 11.7250214 6.4406281 29.8845367 8.3222504 42.3334961 8.0000153 4.6191254-.1201324 11.8056488-1.3476715 16.0600433-2.9843903 11.0430298-4.2483826 12.8158569-14.2452087 5.4145508-22.2714844-3.234375-3.5078125-7.5571289-6.0087891-11.8735352-8.3925781zm-14.493637-62.578125c5.8481445 6.3496094 10.0595551 14.0712891 12.4975433 22.3378906 4.862793 16.4882813 4.1381836 38.3994141-8.4579926 51.4423828-11.5849609 11.9960938-30.4262695 13.9423828-44.1459961 4.4951172-21.9089508-15.0949707-18.4514008-50.2206421-2.8603516-72.5908203 14.5397797-20.8657684 22.3609467-17.2459259 23.8735352-18.0439453 7.1972657.6503906 14.7163086 7.6074218 19.0932618 12.359375zm-83.2016602 29.1982421c.8862305-10.5498047 4.3354492-20.890625 9.7885742-29.953125 11.4064178-18.9533234 23.2272949-29.133255 39.4794922-15.4638672-1.6118164-.0185547-3.25.5839844-5.0776367 2.0537109-4.0537109 3.2597656-7.5634766 7.5058594-10.5444336 11.7412109-20.381958 28.9601288-11.062561 62.5543365.1044922 76.1669922-17.1713104.5096284-36.2585449-14.6899718-33.7504883-44.5449218z"/><path d="m135.8527374 148.5028229c-2.3193359-13.3779297-7.4067383-24.4892502-16.9130859-34.1708908-.7926865-8.3282318-3.9915924-19.5987625-9.6206055-25.6494141 2.3994141-1.0800781 3.871582-3.9013672 3.3769531-6.7197266-.5288086-3.0136719-3.0146484-4.8339844-5.7426758-5.0478516 2.6794434-5.83181-1.3186722-11.1592331-6.2973633-9.9433594-.5859375-3.7382813-5.6782227-4.3398438-8.7592773-3.234375-9.8217773 3.5253906-18.1850586 17.6259766-11.0205078 26.6191406-2.6386719 3.7490234-4.1352539 8.5517578-3.8066406 13.0898438.0029297.0351563.0126953.0664063.0175781.1005859-.6430664.9404297-.6762695 2.0234375-1.0224609 3.2314453-.9687271 3.3324814-.9573593 8.3427048-1.0600586 10.2597656-.0703125 1.3095703.6196289 1.8496094 1.7998047 1.2900391 2.1867294-1.0289459 2.7910156-1.8953171 4.1391602-2.4345703-3.5291824 7.7430496-.1106033 11.9946289 2.7871094 11.5273438-3.050293 5.0644455-7.7036133 8.8115158-12.6943359 12.0117111-7.4033546 1.6741333-13.5499535-4.3635406-20.7299805-3.6621094-3.2387695.3164063-6.5371094 2.4863281-7.0600586 5.6992188-2.3588867-.9667969-5.2099609-.6132813-7.2626953.8984375-2.0522461 1.5126953-3.234375 4.1308594-3.0107422 6.6699219-1.5878925-.2158203-3.2670918.6455078-4.01758 2.0615234s-.5205078 3.2900391.5498047 4.4824219c-4.4111328.7714844-7.4702148 5.9394531-6.0244141 10.1777344 1.8176517 5.3291473 2.6765671 3.2028198-.371582 10.40625-3.2476044 7.6724243.856781 16.6052094 8.9316425 19.0429688-.7324238 4.7578125 1.7836914 9.8466797 6.0092773 12.1523438 1.7638435.9626923 1.2906418 5.526947 8.4726563 11.0019531 2.1445313 1.6347656 8.4228516 5.8544922 13.3110352 5.5927734 3.3959961 1.6025391 7.0649414 2.6904297 10.8686523 3.3085938-.0419998.2519684-.0273438-.4339447-.0273438 8.1660156-5.1171875-.2724609-13.3222656.0683594-14.3496094 6.2597656-1.15625 6.9677734 7.4995117 5.3818359 12.4077148 3.9482422.4223633 3.5771484 2.8676758 7.2363281 6.762207 6.8603516 3.6445313-.3525391 5.8662109-4.1767578 5.7612305-7.6835938 2.6748047.1699219 5.3964844-.3398438 7.7202148-1.7167969 1.440918-.2402344 2.8515625-.5947266 4.0429688-.9414063.425293 3.5654297 2.8828125 7.1923828 6.7617188 6.8193359 3.659668-.3525391 5.8994141-4.2089844 5.7558594-7.7275391 4.3696289.0654297 11.6611328-1.2490234 10.2089844-6.0859375-.6992188-2.3291016-3.5644531-2.8642578-5.6352539-3.2167969-2.5073242-.4257813-5.0742188-.6074219-7.6166992-.4492188-.03125-3.0517578.1972656-6.1044922.1015625-9.15625 9.4311752-4.6197662 17.3941345-12.5094757 22.9545898-21.1708984.0380859-.0117188.0737305-.0166016.112793-.03125 18.4018555-7.0283203 22.7260742-27.9394531 11.2119141-43.0644531-.1372072-3.2128905-.4746095-6.4130858-1.0224611-9.5712889zm-36.305664-42.3964768c-2.1123047 5.7675781-9.7685547 6.0410156-16.0786133 7.5322266 4.3598327-3.5155182 9.457077-6.2906876 16.0786133-7.5322266zm-13.8125-3.1787109c.9697266 0 .9697266 1.5 0 1.5-.959961 0-.959961-1.5 0-1.5zm1.4633789 20.9326172c-1.1443329-4.1771622-.2790985-8.9734192-.4272461-9.5371094 1.7436523-.3496094 3.5185547-.6728516 5.2080078-1.0927734.9995117 4.7519531 5.9619141 10.5595703 2.3178711 15.2402267-3.381836 4.3447266-6.4584961-2.275383-7.0986328-4.6103439zm-5.9042969.165039c-.3242188-.8066406-.3115234-1.7685547-.269043-2.6191406.1703873-3.4448776 1.81707-5.5663757 1.7529297-6.1416016.8125-.2392578 1.6577148-.4443359 2.5195313-.6337891-.2460938 3.0908203-.3671875 6.4316406.4165039 9.5-1.1591797 1.8925782-3.3632813 2.522461-4.4199219-.1054687zm-38.5957031 21.9687424c-.4208984 1.9462891-.4257813 4.0654297-.1469727 6.1533203-1.1830559-1.332428-2.5707512-2.3977509-4.3496094-2.6201172.6328125-1.9326171 2.4042969-3.274414 4.4965821-3.5332031zm33.0415039 103.3945313c-2.6757813.8613281-4.2680664-2.8134766-4.1054688-5.0791016.9838104-1.7049408-1.2348557-3.0487366-2.4467773-1.9541016-1.6645508.5458984-3.3510742.9990234-5.0859375 1.2792969-.6303711.1025391-2.6313477.53125-3.4116211.3203125-2.3017578-.6220703-1.3276367-2.4960938-.3344727-3.5273438 2.6787109-2.7822266 7.9067383-2.1806641 11.3574219-1.9326172.9565506.069046 1.9624023-1.120224 1.9624023-1.9365234 0-2.96875 0-5.9375 0-8.90625.3818359.0371094.7661133.0625 1.1499023.0908203-.0186386.2609406-.053421-.6663208.3808594 8.1298828-.3212891.921875.4702148 2.3125 1.8076172 2.1318359 1.2158203-.1650391 2.4545898-.1816406 3.6889648-.1347656-.3021774 1.3877869-.3297882 2.8496857.5683594 3.9628906-.4889297-.0394745-.9077225-.0914612-1.3964844-.1845703-1.050293-.3349609-2.4077148.4267578-1.9257813 1.7314453.7377931 1.9951173.0385744 5.2851564-2.2089842 6.0087892zm19.2324219-17.3955078c-3.9863281-.2119141-9.8662109-.0488281-12.7456055 2.9716797-1.3608398-.0957031-2.7133789-.1181641-4.0668945-.0361328-.3117676-6.2934418-.3336411-6.8295593-.3554688-7.0478516 5.8022461.0849609 11.6982422-.8105469 17.2304688-2.5380859-.0180665 2.2167968-.0478516 4.4335937-.0625 6.6503906zm5.9326171 2.6298828c3.128418-.3886719 6.4575195-.2626953 9.5366211.4326172.2988281.0664063 1.8925781.2792969 2.0170898.6074219.4697266 1.2421875-1.7988281 1.9492188-2.4282227 2.1650391-1.8722458.6412048-3.9296417.733902-5.8852539.3427734-1.0498047-.3232422-2.3925781.4375-1.9101563 1.734375.7402344 1.9892578.0297852 5.2480469-2.2089844 5.9628906-2.659668.8486328-4.2670898-2.7675781-4.1064453-5.03125.5927734-1.0185547-.1328125-2.6279297-1.4956055-2.2617188-.3486328-.0214844-.6899414.0693359-.9467773.2998047-1.578125.5146484-3.1777344.9414063-4.8173828 1.2216797-.3089752-.0280151-2.6888504.6366577-3.6835938.3691406-2.2978516-.6171875-1.3300781-2.4638672-.3344727-3.4902344 2.6821289-2.7685547 7.9106445-2.1650391 11.3574219-1.9189453.9529037.0688934 1.9610519-1.1150055 1.9624023-1.9335938.0058594-2.9404297.0703125-5.8798828.0830078-8.8193359.5258789-.1992188 1.0473633-.4042969 1.5639648-.6181641.0204929 9.0246125-.7907941 11.1973878 1.296387 10.9375001zm-52.2250976-24.3203125c2.4311523 1.0322266 5.1074219 1.6337891 7.9150391 1.7138672 1.9311523.0546875 1.9291992-2.9453125 0-3-7.8481445-.2226563-14.203125-4.9570313-16.0649414-12.3525391 16.4891472 2.8880463 37.4415894-6.8307495 46.5336914-25.9570313.824707-1.734375-1.7612305-3.2587891-2.590332-1.5146484-17.8448181 37.5406342-66.3865814 25.7033081-53.4599609 8.3847656 1.8247089 1.9160156 4.1757832 3.3544922 6.833498 4.2070313 1.8427734.5908203 2.6318359-2.3046875.7973633-2.8925781-3.7666016-1.2080078-6.7666035-3.7626953-8.0058613-7.6298828-.96875-3.0214844-1.0073242-8.2949219 2.4257832-9.8134766.9204102 2.5791016 2.4619141 4.9804688 4.1733398 6.9521484 1.2675781 1.4609375 3.3818359-.6679688 2.121582-2.1210938-2.090332-2.4082031-4.5541992-6.3457031-4.1206055-9.7392578.40625-3.1787109 4.2006836-2.7382813 5.777832-.9628906.6005859.6757813.9970703 1.6220703 1.5556641 2.3476563 7.1236076 9.2635498 21.035347 9.9728699 29.2368164.2041016 1.2338867-1.4697266-.8779297-3.6025391-2.121582-2.1210938-8.0844803 9.6300049-20.6762199 5.8643341-22.3730469 2.1474609-5.8758087-12.8246002 1.2720337-22.4635315 13.9379883-13.8691406 5.7285156 3.8857422 12.6176758 8.5322266 18.9145508 2.9707031 1.4501953-1.2802734-.6782227-3.3955078-2.1210938-2.1210938-3.3295898 2.9404297-6.9462891 1.90625-10.4467773-.1220703 7.5991211-4.3945313 15.3666992-9.4951172 19.4887695-17.4501877 1.1679688 2.0302658 3.3334961 4.5624924 5.8847656 3.9208908 2.5786133-.6474609 3.8125-4.2578049 3.9960938-6.5556564.3540039-4.4248047-2.6953125-7.9521484-3.5454102-12.0927734 3.8623047-1.1591797 7.0302734-3.0966797 7.9082031-7.5175781 1.377655-1.3512344.361084-2.8879471-1.5961914-3.7900391-5.7291412-2.6684189-12.7887039-2.9544067-19.671875-.0400391.1855469-3.7265625 1.6069336-7.5644531 3.9750977-10.3769531.8334961-.9882813.1450195-2.2753906-.7734375-2.5595703-5.2880859-6.4707031.2695313-16.0439453 6.3354492-20.1533203 3.0039063-2.0351563 8.9082031-4.4208984 6.9121094 2.3818359-.4023438 1.3701172-1.3256836 2.7353516-1.9960938 3.9951172-.3987961.7495728-.6197205.6511993-1.3652344 2.3710938-.5449219 1.2050781.3466797 2.4804688 1.6938477 2.2041016 1.2856445-.2646484 2.0595703-2.6660156 2.5493164-3.6044922.7993164-1.5322266 1.9633789-3.3398438 2.6821289-5.1669922.0522461-.0380859.105957-.0712891.1567383-.1181641 1.7880859-1.6533203 4.168457-.1484375 4.5371094 1.9570313.3154297 1.8017578-.6088867 3.9228516-1.8779297 5.171875-.6074219.5976563-.5336914 1.34375-.1445313 1.8759766.3544922.6943359 1.1943359 1.1884766 2.0952148.7402344 1.8847656-.9384766 4.362793-.0332031 4.8730469 2.0966797.4130859 1.7265625-.7573242 4.2792969-2.8964844 3.8320313-.1103516-.0224609-.2163086-.0322266-.3188477-.0341797-5.8115234-4.4960938-13.5126953-5.8945313-19.4438477.3476563-1.3300781 1.3994141.7880859 3.5244141 2.1210938 2.1210938 4.5209961-4.7578125 11.4067383-3.9501953 16.1367188.1054688 7.1981812 6.1723633 14.1636658 27.3998947 8.9570313 44.0068283-.5786133 1.8466797 2.3164063 2.6367188 2.8930664.7978516 1.4316406-4.5664063 2.0683594-9.4755783 2.0244141-14.4345627 18.793457 21.7724533 19.3505859 55.9101486 4.1318359 80.009758-20.8335591 32.9922024-60.7877789 32.2735287-74.6411152 11.2480466zm79.5073242-13.6015625c5.4541016-10.1210938 8.3994141-21.6416016 8.7270508-33.2080078 6.6333008 11.8574218 3.40625 26.5322265-8.7270508 33.2080078z"/><path d="m161.8839874 118.3006821c.5571289.1337891 1.1669922-.015625 1.5444336-.3720703.0323486-.1019287 2.5852509-8.1451721 2.4213867-7.6289063-1.1097412-2.1264496-6.6438599-10.3271103-9.5361328-22.1708984l-.0283203-.1162109c2.0756836-1.4658203 4.6582031-2.40625 6.8222656-3.7050781 7.2470703-4.3476563 10.7397461-12.3525391 8.1674805-20.5742188-2.7563477-8.8115234-10.9648438-14.7607422-19.925293-16.0019531-10.2714844-1.4228516-19.9868164 3.4736328-26.5410156 11.1826172-.5829315.6889191-.894989 1.3108826-.4379883 2.0849609 1.7133789 2.9023438 3.4272461 5.8037109 5.1411133 8.7050781.2768555.4697266.6831055.6787109 1.1005859.7109375l5.9160156 2.9785156c.1015167-.0764084 4.0913239-3.0061035 6.1083984-3.4267578 4.1870728-.8657532 10.1593018 1.4773102 4.9521484 6.4736328-3.1962891 3.0654297-9.7900391 3.8662109-10.7973633 8.8007813-1.0053711 4.9257813 3.4760742 11.6103516 5.3579102 15.8720703 3.0107422 6.8173828 6.0761719 13.6083984 8.9907227 20.4677734.4121094.9697266 1.3710938.9472656 2.0341797.4433594.352295-.0643082 8.5246278-3.6130371 8.7094727-3.7236328zm-19.6826172-24.5126953c-1.0805664-2.5253906-3.7641602-6.6337891-1.6757813-9.453125.9956055-1.3447266 3.8891602-2.125 5.3041992-2.9638672 11.0629578-6.5570068 9.1530914-16.9229507 2.1958008-19.5-6.2490234-2.3154297-11.831543 1.6835938-16.3374023 5.6181641-1.3959961-2.3642578-2.7919922-4.7275391-4.1879883-7.0917969 9.824707-10.8759766 28.3134766-14.5888672 38.0766602-1.2607422 4.0874023 5.5800781 5.0751953 13.3935547.4311523 18.9912109-4.0322266 4.8603516-11 6.5429688-15.7333984 10.6953125-.3598633.3164063-.5712891 1.0039063-.3857422 1.4599609 3.4638672 8.4970703 6.8261719 17.0351563 10.2773438 25.5371094-2.3242188 1.0019531-4.6489258 2.0029297-6.9731445 3.0048828-3.5893555-8.3789062-7.4067383-16.65625-10.9916993-25.0371093z"/><path d="m163.1198273 140.0057526c1.5966797-.2158203 2.8666992-.8017578 3.8427734-1.6162109 5.2785187-1.9186401 5.9988556-8.3843079 2.4399414-12.0810471-2.0205078-2.0976563-5.2597656-3.0390625-8.2548828-2.4111328-2.265625.4785156-4.8378906 2.1523438-5.5439453 4.7538986-3.3759613 5.3548431 1.4447937 12.1711426 7.5161133 11.3544922zm-5.5458985-6.7929688c-.5594788-2.6921082 1.7900391-4.9189758 3.8339844-5.0605469 5.6254883-.3769455 7.3022461 7.8427734 1.5263672 8.8681641-2.5180664.4472656-4.8530273-1.3671875-5.3603516-3.8076172z"/><path d="m217.287796 53.8641586c-.4726563-1.25-1.065918-2.453125-1.7495117-3.6015625.1958008-.5791016.012207-1.0429688-.3491211-1.3408203.1367188-.6904297-.1494141-1.4365234-1.0375977-1.6367188-5.0224609-1.1289063-10.0444336-2.2578125-15.0664063-3.3876953-1.125-.2529297-1.8588867.6806641-1.8671875 1.5625-.3964844.2304688-.7104492.6191406-.7836914 1.1748047-2.7109375 20.5673828-5.7802734 41.0859375-8.4916992 61.6533203-.0751953.5693359.1425781.9628906.4873047 1.1914063-.0605469.6386719.25 1.2851563 1.0668945 1.46875 1.5615234.3515625 3.1235352.7021484 4.6850586 1.0537109.8120117.1826172 1.4213867-.2539063 1.7016602-.8417969.6132813-.5488281 1.1655273-1.2246094 1.9160156-1.4873047 5.4384766-18.8232421 12.1572266-37.6386718 19.4882813-55.8085937zm-17.9077148-6.828125c4.3583984.9804688 8.7167969 1.9599609 13.0751953 2.9404297-7.652832 19.1171875-13.8818359 38.8486328-19.0024414 58.7890625-.8330078-.1875-1.6660156-.3740234-2.4985352-.5615234 2.6904297-20.4052735 5.7314453-40.7626953 8.4257813-61.1679688z"/><path d="m244.4606476 105.6454086c-2.9814453 9.5507813-5.9624023 19.1025391-8.9438477 28.6533127-.5761719 1.8466797 2.3188477 2.6376953 2.8930664.7978516 2.980957-9.5517502 5.9624023-19.1025314 8.9433594-28.6533127.5766602-1.8476563-2.3183594-2.6376953-2.8925781-.7978516z"/><path d="m259.6149292 124.6834946c-3.8642426 5.2665939-7.7280121 10.5341721-11.5922699 15.8007736-1.1435547 1.5585938 1.4589844 3.0566406 2.590332 1.5146484 3.8642578-5.2675781 7.7280121-10.5341797 11.5922699-15.8017502 1.1435547-1.5576171-1.4589843-3.055664-2.590332-1.5136718z"/><path d="m259.4835815 150.8612213c4.6132813-2.609375 9.2275391-5.21875 13.8408203-7.8291016 1.6806641-.9501953.1704102-3.5429688-1.5136719-2.5898438-4.6142578 2.609375-9.2275391 5.21875-13.8417969 7.8291016-1.6801757.9501954-.1699218 3.5429688 1.5146485 2.5898438z"/></g></g></svg>