<svg id="Layer_1" enable-background="new 0 0 300 300" height="512" viewBox="0 0 300 300" width="512" xmlns="http://www.w3.org/2000/svg"><g id="Gift_Voucher"><g><path d="m161.3168182 243.2939148c2.1635742-7.862793-8.315918-12.2001953-16.2358398-14.3833008 9.9470367-2.1295319 19.1955872-5.8651428 23.8212891-8.5634766 71.7108459-11.6275177 73.3793182-6.7268219 74.7363281-11.5942383.7949219-2.8515625-2.7807617-4.6625977-4.8076172-5.5917969-5.0864258-2.3320313-10.2739258-4.512207-15.534668-6.4233398-.0004883-.0009766-.0009766-.0019531-.0014648-.0029297-2.9620514-5.2555237-2.0781708-7.1355438-3.9399414-7.3305664-16.4199219-1.7148438-32.8535156-3.2958984-49.2734375-5.0112305-9.3911133-9.769043-21.8896484-15.4458008-35.4267578-16.1694336-.418457-1.6591797-1.6040039-3.230957-3.3105469-4.5068359-.277832-.2075195-.5532227-.2900391-.8105469-.2856445-1.456543-2.0483398-4.8452148-3.3364258-7.2724609-4.0424805-3.291893-7.9425049-3.5262909-14.1082458-3.6801758-14.9545898.061615-.1546326.1744461-.4541321.1147461-.7939453-.4101563-2.3037109-4.3276367-2.4741211-6.0561523-2.4291992-1.5214844.0395508-5.4057617.3706055-5.4057617 2.628418 0 .2260742.0473633.4282227.1196289.6166992-.1477432.6253357-.1536102 7.1481018-3.8999023 14.8803711-2.7426758.7641602-6.6904297 2.2319336-7.8515625 4.7114258-.2719727.0351563-.5463867.1445313-.800293.3603516-.7592773.644043-1.3422852 1.3251953-1.7714844 2.0253906-.0541992.0117188-.1054688.0170898-.1611328.0351563-6.7919922 2.1982422-15.0410156 6.8525391-19.0019531 13.3598633-11.0170898-2.4873047-21.3422852-7.9814453-29.5429688-15.7490234-19.1925373-18.1811981-9.3678436-38.5147552 7.7695313-32.8945313 3.6777344 1.2060547 5.7441406 3.7851563 8.9682617 5.6333008.6538086.3745117 1.6435547.1977539 2.0253906-.4980469 1.3686523-.8632813 2.7192383-1.7529297 4.0961914-2.6030273.2304688-.1420898.3271484-.347168.3422852-.5566406.0073242-.0322266.0253906-.0561523.0292969-.0908203 1.4072266-12.2119141-9.7504883-17.8647461-20.3051758-17.7612305-.8569336-.0576172-1.7124023-.0683594-2.5576172-.0166016-12.2797852.7529297-22.940918 10.3671875-24.8183594 22.5087891-2.1835938 14.1245117 5.5537109 28.2158203 14.9326172 38.2016602 10.6298828 11.3178711 24.5717773 18.5483398 38.8564453 24.1757813 4.3530273 14.503418 14.902832 23.2324219 27.9541016 27.5483398-7.7666016 1.4853516-17.1337891 4.4624023-19.3237305 11.5424805-.4575195 1.4785156-.4589844 2.8378906-.1293945 4.0849609-9.831543 16.1035156 25.9692383 20.8828125 34.5166016 21.269043 11.0576172.5 22.9277344-.4521484 33.2836914-4.6391602 8.3192748-3.3634951 15.0780944-8.9818728 10.3525389-16.6899416zm77.1386719-34.9414063c-.8715668.8769836-7.3952179-.2824554-8.640625-.4116211-3.3022461-.3413086-6.4731445-1.0185547-9.6083984-2.0058594 1.0625-.4423828 2.1245117-.8847656 3.1894531-1.3217773.5786133-.2373047 1.1567383-.7426758 1.1010742-1.4462891-.0791016-1.003418-.2724609-1.9853516-.4951172-2.9619141 2.6347656.9931641 5.2470703 2.0380859 7.8374023 3.1513672 1.416504.6088868 8.9111329 2.6767579 6.616211 4.9960938zm-142.3901367-33.8095703c4.9741211 4.0078125 12.5341797 4.9150391 18.6879883 4.7832031 5.8959961-.1264648 13.4555664-1.1708984 17.953125-5.4282227.9116211-.862793 1.5048828-1.7680664 1.8266602-2.6831055 3.5336914.1811523 6.9833984.7358398 10.3188477 1.6220703-.7299805 4.3007813-6.2993164 6.7143555-9.9326172 8.0234375-6.1772461 2.2255859-12.8569336 3.0605469-19.390625 3.2119141-6.6484375.1542969-13.4345703-.4282227-19.8569336-2.2128906-4.2841797-1.1904297-9.7192383-3.0273438-12.3032227-6.9804688 2.9555664-2.1958008 6.4077148-3.8061523 9.8237305-5.015625.1704101 1.6582033 1.1416015 3.2841798 2.8730468 4.6796876zm7.3745117-13.2636718c-.5922852 1.0717773-1.2182617 2.1313477-1.9145508 3.1660156-1.0810547 1.6054688 1.5166016 3.1088867 2.5908203 1.5141602 4.0302734-5.9868164 6.3549805-12.640625 7.050293-19.7719727 1.7353973.3723297 3.9691162.3954468 5.6337891.0380859.8393555 6.9868164 2.9233398 13.597168 6.3217773 19.8037109.9272461 1.6938477 3.5185547.1816406 2.590332-1.5141602-.5825195-1.0629883-1.1098633-2.1425781-1.6123047-3.2294922 2.2563477.8613281 4.5107422 2.152832 5.0927734 3.7075195-.0073242.2382813.0410156.4785156.1450195.7045898.0302734.9985352-.659668 2.0864258-2.4624023 3.2265625-3.6035156 2.2783203-9.0517578 2.6328125-13.1274414 2.6328125-4.2050781 0-9.4291992-.3920898-13.1274414-2.6328125-1.4936523-.9052734-2.2631836-1.7729492-2.512207-2.5869141.4033203-.4736328.375-1.0268555.1064453-1.4750977.6748047-1.5122068 2.9902344-2.753906 5.2250977-3.5830075zm-21.2631836 14.5356445c2.4248047 3.6435547 7.0454102 5.565918 11.050293 6.8725586 8.2304688 2.6850586 17.2612305 3.3046875 25.8535156 2.7275391 6.8647461-.4614258 25.8666992-2.5292969 27.2841797-12.1625977 8.0610352 2.4179688 15.3720703 6.8706055 21.3847656 13.0483398-5.6489258 5.4111328-12.4472656 8.8657227-20.1333008 10.3120117-1.8950195.3569336-1.0922852 3.2485352.7978516 2.8930664 8.2148438-1.5458984 15.5400391-5.3735352 21.5537109-11.1713867.2919922-.28125.4228516-.5966797.4448242-.9077148 14.7792969 1.5419922 29.5688477 2.9873047 44.3500977 4.5107422-2.4799805.6469727-4.9604492 1.2944336-7.4404297 1.9414063-.753418.1967773-1.3032227 1.0825195-1.0478516 1.8452148.5253906 1.5693359 1.0512695 3.1386719 1.5771484 4.7080078-27.3134766 6.0859375-55.5708008 9.0898438-83.543457 9.3901367-13.8227539.1489258-28.402832-.7485352-40.1513672-8.8720703-10.7312469-7.420105-10.843254-17.6838226-1.9799804-25.1352539zm-56.8554687-22.5483399c-3.7734375-11.7939453-1.4155273-24.7524414 9.7275391-31.5039063 14.8543816-8.998764 30.4843979.8568039 27.1201172 11.4072266-.0786133.0107422-.1591797.0200195-.2475586.0209961-3.0512695-2.0395508-5.5791016-4.362793-9.5024414-5.3203125-14.2807198-3.4864502-25.8376999 7.8038635-24.3979492 19.9833984 2.5107422 21.2446289 25.9980469 33.9521484 44.6318359 38.0283203-.3650208 2.7008057.5220718 8.0904236 1.0898438 10.715332-20.3349611-8.2792967-41.3872071-21.3447264-48.4213868-43.3310546zm52.2597656 46.4169922c16.6058807 18.0461884 57.3941498 13.272522 81.5605469 11.1694336 16.9384766-1.4741211 33.7084961-3.9702148 50.2973633-7.703125 8.2062225 5.4564972 8.9260101 5.6203156 13.8623047 6.7138672-13.7612305 1.2978516-27.4995117 2.8374023-41.1318359 5.1459961-21.7373047 3.6811523-43.2563477 7.5483398-65.3144531 4.0712891-1.8886719-.2978516-2.7021484 2.5922852-.7973633 2.8925781 14.1640625 2.2329102 28.2553711 1.6728516 42.2890625-.0917969-28.7304689 11.0136719-71.0375978 9.7089844-80.7656251-22.1982422zm30.6391601 30.1586914c-2.7080078 6.0854492-6.4570313 11.5375977-11.1450195 16.2910156-1.3569336 1.3754883.7631836 3.4985352 2.1210938 2.1210938 5.2553711-5.328125 9.3037109-11.4545898 12.2363281-18.3261719 7.5239258 1.328125 15.5371094 1.4643555 23.4633789.6157227.0249023.1113281.0610352.2236328.1132813.3374023 3 6.5419922 7.1083984 12.3710938 12.2333984 17.4199219 1.3764648 1.3564453 3.4995117-.7636719 2.121582-2.1210938-4.6967773-4.6274414-8.4506836-9.9287109-11.2973633-15.8505859.0356445.0092773.0654297.0239258.1030273.0317383 7.8379669 1.5869751 23.8847656 7.0433807 19.4697266 13.7255859-1.3499756 2.1290436-4.3337555 3.8734131-6.5776367 5.0004883-19.4886169 8.6845093-58.9601212 5.6284332-64.7744141-5.9931641-3.4877929-8.2499999 15.0029297-12.1357421 21.9326172-13.2519531z"/><path d="m237.196701 173.3749695c1.8823242.4052734 2.6870117-2.4858398.7973633-2.8930664-8.4861755-1.8108521-8.4132843-12.7738495.0141602-14.5810547 1.7304688-.3710938 1.215332-2.8442383-.3989258-2.9462891-10.1374054-.6422424-17.2723541-.9500275-22.6601563-9.5405273-.7553711-1.4291992-1.3486328-2.9438477-1.7587891-4.5068359-.1542969-1.4624023.2080078-2.8325195 1.3642578-3.9306641 1.0297852-.9785156-.0297852-3.0683594-1.4594727-2.5073242-9.8144531 3.8515625-20.671875 7.9814453-31.2919922 5.597168-10.4897461-2.3544922-18.5766602-10.0576172-21.7768555-20.2558594-.3027344-.9643555-1.7700195-1.6054688-2.5068359-.6616211-7.859375 10.0644531-22.1474609 11.4414063-32.1689453 3.730957-11.347168-8.7304688-13.1103516-24.1269531-7.5419922-36.6831055.7753906-1.7495117-1.8085938-3.277832-2.5908203-1.5141602-3.1220703 7.0400391-4.1831055 14.8632813-2.8398438 22.1328125 1.1796265 13.578476 9.6453094 24.1061401 19.9765625 27.9155273 9.1333008 3.3676758 20.3071289 1.2490234 26.8876953-5.9238281.2207031 9.996582 10.5273438 18.5820313 20.3540039 20.4316406s20.3515625-.0864258 28.8022461-6.9848633c-.1723633 11.2104492 10.6933594 19.4887695 21.7910156 16.1962891-4.2470703 2.9301758-4.7841797 9.9306641-1.0341797 13.4750977-7.0136719 3.9282227-6.6772461 11.0458984-2.9370117 15.1791992.2988281.5888672.6542969 1.1699219 1.0864258 1.7373047 1.1542969 1.515625 3.7607422.0229492 2.590332-1.5141602-4.2534177-5.5854491.1562502-13.4926757 7.301758-11.9526366z"/><path d="m279.4354858 124.1493835c.4306641-6.4951172-1.4038086-12.0576172-3.8481445-17.9428711-1.9661865-4.7323532 2.5282288-6.4428787.3759766-16.5991211-2.8964844-13.668457-15.2988281-21.5107422-26.8320465-27.4995079-1.7114258-.8886719-3.2299805 1.6992188-1.5141602 2.5903282 10.8027496 5.6098633 22.796402 12.8164063 25.4531403 25.7070313.6806641 3.3017578.6542969 6.8217773-.4106445 10.0385742-.5932617 1.7924805-1.6455078 2.7563477-1.3129883 4.4970703.2124023 1.1113281 1.5039063 2.4760742 2.0073242 3.5043945 6.5452881 13.3678436 2.7033997 29.9007111-10.2988281 38.8242188-1.3706055.9414063-3.1738281 1.703125-3.9692383 3.2709961-1.9098511 3.7635651 3.0437927 8.1191559 3.2158203 13.5351563.2412109 7.5791016-5.2236328 13.3862305-12.3794098 14.8598633-.9150391.1884766-1.4140625 1.4311523-.8964844 2.203125 3.5532227 5.300293.3046875 11.7124023-6.1586914 11.7114258-1.9301758-.0004883-1.9335938 2.9995117 0 3 8.0644531.0014648 12.8623047-7.5883789 9.7060547-14.5053711 9.9751129-3.125 15.5390778-13.9765625 11.2016754-24.0078125-1.1420898-2.6420898-2.59375-4.3632813.152832-7.0678711.441742-.4350434 14.3295288-8.333725 15.5078125-26.119629z"/><path d="m241.4608612 84.5795593c1.0810547.5327148 2.081543-.2832031 2.2529297-1.1772461.012207-.0273438.0288086-.0493164.0400391-.078125 1.0585938-2.6508789 2.1171875-5.3017578 3.1757813-7.9526367.0043945-.0126953.0102539-.0239258.0146484-.0366211.019043-.0483398.0385742-.0966797.0576172-.1445313.2460938-.6162109.0605469-1.1083984-.3120117-1.4223633-.2392578-.3203125-.6025391-.5581055-1.0947266-.6074219-.2866211-.0283203-.5673828-.0712891-.8525391-.1030273-1.722168-.9160156-3.3359375-2.0351563-4.7792969-3.347168-11.1899414-.3623047-21.8051758-4.4829102-32.0649414-9.2534142-16.6982422-8.7802734-32.5986328-19.703125-50.8496094-25.1318359-1.0830078-.3217773-1.7983398.53125-1.8422852 1.4067383-2.8410797 6.6706543-3.1628113 7.4089966-3.2456055 7.6474609-.5136719.75-.3935547 2.0244141.7397461 2.4155273.9545898.3291016 2.7915039 1.5825195 1.9750977 2.8032227-.8398438 1.2553711-3.050293.6772461-4.159668.269043-1.3066406-.480957-2.0717773.8852539-1.7294922 1.9365234-3.4729614 8.1513023-3.4584503 7.7842102-3.2119141 8.534668-.0239258.621582.277832 1.2617188 1.0239258 1.519043.9545898.3291016 2.7915039 1.5825195 1.9750977 2.8027306-.8398438 1.2558594-3.0507813.6777344-4.159668.2695313-1.15625-.4257813-1.8896484.5957031-1.8071289 1.5649414-1.1147461 2.6171875-2.2299805 5.2348633-3.3447266 7.8520508-.2905273.6821289-.0761719 1.3271484.3359375 1.7607422.1669922.2158203.3994141.3959961.715332.5048828.9545898.3291016 2.7915039 1.5825195 1.9750977 2.8032227-.840332 1.2558594-3.0507813.6772461-4.1601563.269043-1.0864258-.3999023-1.7973633.4790039-1.8110352 1.390625-1.0668945 2.5039063-2.1337891 5.0083008-3.2001953 7.5126953-.3730469.8754883.0820313 1.6948242.7260742 2.0766602.1699219.1635742.3950195.2910156.6948242.3515625 1.4008789 2.2084961 2.8017578 4.4169922 4.2021484 6.6254883 9.3378906.1958008 18.2509766 3.6533203 26.4140625 8.1918945 8.1630859 4.5380859 14.8828125 7.6523438 23.237793 11.8266602 5.590332 2.793457 14.1435547 5.8183594 22.7436523 7.90625 4.1220703 1.4692383 8.355957 2.6767578 12.7529297 3.5102539.2695313.0512695.5136719.0307617.734375-.0336914.5234375-.0703125 1.0244141-.3725586 1.2675781-.980957 1.0131836-2.5380859 2.0268555-5.0761719 3.0400391-7.6142578.6269531-.6503906.7456055-1.7543945-.2905273-2.2426758-1.0791016-.5087891-2.894043-1.5839844-2.7700195-3.0263672.1357422-1.5791016 2.394043-1.1914063 3.3491211-.7207031.2436523.1201172.480957.1655273.7075195.1635742.6484375.0517578 1.3476563-.237793 1.6494141-.9931641 1.0581055-2.6508789 2.1166992-5.3017578 3.175293-7.9526367.7368164-.6240234.940918-1.8461914-.1630859-2.3666992-1.0795898-.5092773-2.894043-1.5839844-2.7700195-3.0268555.1357422-1.5786133 2.3935547-1.190918 3.3491211-.7202148.6918945.3408203 1.3466797.1254883 1.7763672-.3051758.7353516-.3448944.4566193-.0212784 3.7851563-8.3564453.9760742-.5029297 1.4013672-1.9853516.152832-2.5737305-1.0791016-.5087891-2.894043-1.5839844-2.7700195-3.0268555.1357422-1.5786134 2.394043-1.1909181 3.3491211-.720215zm-6.0698242-.7104492c-.9296875 2.4262695.5415039 4.7124023 2.4794922 6.1469727-.8574219 2.1474609-1.7148438 4.2949219-2.5722656 6.4418945-6.1694031-1.6539154-9.0775909 4.7795868-3.5395508 8.6708984-.8261719 2.0683594-1.6523438 4.137207-2.4785156 6.2060547-6.154953-1.5909424-8.9989624 4.8708649-3.4086914 8.7314453-.7817383 1.9580078-1.5634766 3.9160156-2.3452148 5.8735352-25.7881165-5.3074036-42.2391205-21.5150833-68.5385742-31.9423828.4526367-1.3017578.9057617-2.6035156 1.3583984-3.9057617.3178711-.9135742-1.1308594-1.3061523-1.4462891-.3984375-.4355469 1.2519531-.8710938 2.503418-1.3061523 3.7553711-5.5307617-2.1196289-11.2236328-3.8535156-17.1445313-5.0878906.7666016-1.7998047 1.5332031-3.5996094 2.2998047-5.3994141 6.767395 1.2649384 9.147049-5.3950882 3.7412109-8.5976563.8720703-2.0478516 1.7446289-4.0957031 2.6166992-6.1430664 2.4912109.4443359 5.355957-.1196289 6.3676758-2.6943359.9765625-2.485836-.6694336-4.7397423-2.7626953-5.9531212.9057617-2.1259766 1.8115234-4.2519531 2.7167969-6.3779297 2.4375.3730469 5.1660156-.2324219 6.1479492-2.7314453.9375-2.3857422-.5415039-4.5581055-2.512207-5.8022461.8530273-2.003418 1.7070313-4.0073242 2.5600586-6.0107422 5.5742188 1.75 10.9291992 3.9775391 16.1523438 6.4848633-.4111328.8188477-.8217773 1.6376953-1.2329102 2.456543-.4316406.8608398.8618164 1.6210938 1.2954102.7573242.4277344-.8525391.8554688-1.7050781 1.2832031-2.5581055 22.5209961 11.0527344 42.7856445 26.8437462 68.3813477 30.1171837-.7314453 1.8320313-1.4628906 3.6640625-2.1948242 5.496582-2.3251955-.5317383-4.9682619-.015625-5.9179689 2.4638672z"/><path d="m157.6537323 82.2748718c-.5751953 1.3793945-1.1503906 2.7592773-1.7255859 4.1386719-.3710938.8901367 1.0795898 1.2783203 1.4462891.3989258.5751953-1.3798828 1.1503906-2.7592773 1.7255859-4.1391602.3710937-.8896484-1.0795899-1.277832-1.4462891-.3984375z"/><path d="m164.9950409 64.8583679c-.9091797 2.0170898-1.8188477 4.0336914-2.7280273 6.0507813-.394043.8730469.8984375 1.6362305 1.2949219.7568359.909668-2.0166016 1.8188477-4.0336914 2.7285156-6.050293.3935546-.8730468-.8984376-1.6367149-1.2954102-.7573242z"/><path d="m167.984787 57.6044655c-.6445313 1.5473633-1.2885742 3.0947266-1.9331055 4.6416016-.3710938.8901367 1.0800781 1.2783203 1.4462891.3989258.6445313-1.5473633 1.2890625-3.0942383 1.9331055-4.6416016.3710937-.8901368-1.0795899-1.2783203-1.4462891-.3989258z"/><path d="m170.8426971 51.0536842c-.5751953 1.2646484-1.1499023 2.5292969-1.7246094 3.7939453-.3964844.8725586.8955078 1.6357422 1.2949219.7573242.5751953-1.2646484 1.1499023-2.5297852 1.7246094-3.7944336.3964844-.8720702-.8955078-1.6357421-1.2949219-.7568359z"/><path d="m189.8656464 67.5458679c2.3422852 11.1279297 3.3037109 22.3813477 2.9033203 33.7421875-.0341797.9658203 1.4663086.9643555 1.5 0 .4052734-11.5-.5874023-22.8828125-2.9570313-34.140625-.1987304-.9443359-1.6450195-.5449219-1.446289.3984375z"/><path d="m183.3939667 78.0907898c-.1171875.0097656-.2192383.0419922-.3076172.0888672-.2094727-.1699219-.5004883-.230957-.8037109-.0498047-7.555069 4.5040359-4.3610382 12.6596832 1.4321289 11.8173828 6.7412109-.9799805 7.1538085-12.4775391-.3208008-11.8564453zm-.9125977 10.3603516c-2.4799805-.2963867-3.5859375-2.7363281-2.9702148-4.9868164.4916992-1.796875 1.9125977-3.0595703 3.4501953-3.9897461.112793.078125.2495117.1318359.4326172.1162109 6.184082-.5136719 4.809082 9.543457-.9125977 8.8603516z"/><path d="m202.3651581 77.7460632c-.1166992.0097656-.21875.0419922-.3071289.0888672-.2094727-.1704102-.5004883-.230957-.8037109-.050293-7.5991974 4.5309372-4.320755 12.6543198 1.4321289 11.8178711 6.7412109-.9799804 7.1538085-12.477539-.3212891-11.8564453zm-.9121094 10.3598633c-2.4799805-.2958984-3.5859375-2.7363281-2.9702148-4.9863281.4916992-1.796875 1.9125977-3.0595703 3.4501953-3.9902344.112793.078125.2495117.1318359.4321289.1166992 6.1845703-.5136718 4.8095703 9.5434571-.9121094 8.8598633z"/></g></g></svg>