<svg id="Layer_1" enable-background="new 0 0 300 300" height="512" viewBox="0 0 300 300" width="512" xmlns="http://www.w3.org/2000/svg"><g id="Goals_and_Milestones"><g><path d="m103.2404709 206.2796326c-.2446289.1357422-.2163086.4072266-.0703125.5683594-1.2919922.3232422-2.5410156 1.0166016-3.6025391 2.1259766-.3339844.3486328.1958008.8789063.5302734.5302734 3.847168-4.0195313 10.2270508-2.0527344 11.2041016 3.40625.0849609.4746094.8076172.2734375.7231445-.1992188-.7392578-4.1318359-4.3486328-6.4267578-7.902832-6.0351563 3.0913086-1.4277344 6.7470703-.5839844 8.9316406 2.0810547.3061523.3730469.8339844-.1601563.5302734-.5302734-2.5156249-3.0693359-6.8842773-3.8681641-10.3437499-1.9472656z"/><path d="m116.2653732 201.9075623c-.3935547-.28125-.7685547.3691406-.378418.6474609 4.0947266 2.9140625 5.6064453 8.1894531 3.7822266 12.8496094-.1762695.4501953.5488281.6445313.7231445.2001953 1.9531251-4.9892578.2226563-10.6025391-4.1269531-13.6972656z"/><path d="m108.4260178 186.8645935c-.4560547-.1611328-.6518555.5625-.1992188.7236328 5.9423828 2.1064453 12.5673828-.34375 15.7368164-5.7841797.2436523-.4179688-.4042969-.796875-.6474609-.3789063-3.0087891 5.1650391-9.2675781 7.4335938-14.8901367 5.4394532z"/><path d="m133.2380219 196.6888123c1.7446289-4.5371094 6.0600586-7.5175781 10.9145508-7.5839844.4819336-.0058594.4833984-.7558594 0-.75-5.2109375.0712891-9.7695313 3.2753906-11.6376953 8.1347656-.1733399.4501953.5517577.6455078.7231445.1992188z"/><path d="m91.6745529 189.5237732c5.4970703 2.140625 8.6811523 8.0429688 7.4829102 13.8076172-.0981445.4716797.6245117.6728516.7231445.1992188 1.2905273-6.2070313-2.105957-12.4326172-8.0068359-14.7294922-.4497071-.1757813-.6450196.5498046-.1992188.7226562z"/><path d="m117.5866623 164.6956482c-.0947266-.4726563-.8178711-.2724609-.7231445.1992188 1.1455078 5.7216797 7.328125 8.3798828 12.2812424 5.3046875.4091797-.2548828.0327148-.9033203-.3789063-.6484375-4.5659104 2.8359374-10.1235275.415039-11.1791916-4.8554688z"/><path d="m99.5954514 178.8704529c3.6333008-3.1904297 3.7363281-8.4091797.3168945-11.8046875-.3432617-.3398438-.8735352.1904297-.5302734.5302734 3.1508789 3.1289063 2.9980469 7.8330078-.3168945 10.7441406-.3637696.319336.1684569.8476563.5302734.5302735z"/><path d="m110.4030685 154.5921326c5.3544922 1.8144531 10.7958984-.8427734 12.6835938-6.1582031.1616211-.4560547-.5625-.6523438-.7231445-.2001953-1.7597656 4.9560547-6.7895508 7.3193359-11.7612305 5.6347656-.4580078-.1552735-.6547852.5693359-.1992188.7236328z"/><path d="m83.2922287 180.1321716c-.40625-.2636719-.7822266.3857422-.378418.6474609 3.0078125 1.9482422 3.9077148 6.0400391 2.0415039 9.0830078-.2529297.4130859.3955078.7900391.6474609.3789063 2.0898438-3.4072265 1.0351563-7.9423828-2.3105468-10.109375z"/><path d="m129.5070648 210.5931091c2.0942383-5.6738281 8.1625977-8.2138672 13.7045898-5.7167969.4365234.1972656.8183594-.4492188.378418-.6474609-5.9799805-2.6953125-12.5297852-.0029297-14.8061523 6.1650391-.1674805.453125.5571289.649414.7231445.1992187z"/><path d="m133.9904633 179.3333435c-1.2607422-2.7880859.2993164-5.7636719 3.2514648-6.4101563.4711914-.1035156.2719727-.8261719-.1992188-.7226563-3.4692383.7587891-5.1474609 4.3095703-3.7001953 7.5117188.1987305.4394532.8452149.0585938.6479493-.3789062z"/><path d="m99.6232834 158.0354919c4.8251953 1.0566406 8.1098633-4.4101563 4.9594727-8.1904297-.309082-.3710938-.8374023.1621094-.5302734.5302734 2.6665039 3.2001953-.1723633 7.8261719-4.2294922 6.9375-.4707032-.1035155-.6713868.6191407-.1997071.7226563z"/><path d="m126.3420334 197.3802185c-4.2719727-.7451172-5.5737305-5.9882813-1.9707031-8.5224609.3916016-.2753906.0175781-.9257813-.3789063-.6474609-4.0629883 2.8574219-2.8041992 9.0292969 2.1499023 9.8935547.472168.0820312.6748047-.6406251.1997071-.7236329z"/><path d="m105.3019943 191.7815857c-.0800781 3.3154297 2.5849609 6.1660156 5.8828125 6.3603516.4819336.0292969.4804688-.7216797 0-.75-2.9003906-.1708984-5.2026367-2.7197266-5.1328125-5.6103516.0117188-.4833984-.7382812-.4833984-.75 0z"/><path d="m107.4274826 174.8655701c-.3759766-.2939453-.9106445.2333984-.5302734.5302734 3.4946289 2.7314453 8.3598633-.2275391 7.4643555-4.6015625-.097168-.4726563-.8203125-.2724609-.7236328.1992188.7353515 3.5908203-3.2939454 6.1513671-6.2104493 3.8720703z"/><path d="m130.5344086 158.0101013c.4179688-.2412109.0405273-.8896484-.3789063-.6474609-1.671875.9638672-3.9335861-.0712891-4.3383713-1.9453125-.1020508-.4707031-.8251953-.2714844-.7231445.2001953.5078125 2.3505859 3.3681564 3.5869141 5.4404221 2.3925781z"/><path d="m105.8898849 164.4739685c.9931641-1.8085938 2.7929688-2.9550781 4.8574219-3.0595703.4799805-.0244141.4829102-.7744141 0-.75-2.3261719.1171875-4.3818359 1.3857422-5.5053711 3.4306641-.2324218.4238281.4150391.8017578.6479492.3789062z"/><path d="m88.4221115 195.1028748c-.4716797-.0898438-.6738281.6328125-.1992188.7226563 3.8393555.7285156 5.4672852 5.0429688 2.909668 8.0791016-.309082.3671875.2192383.9003906.5302734.5302734 2.8823243-3.4218751 1.2084962-8.4892579-3.2407226-9.3320313z"/><path d="m225.4528656 107.1272964c8.222702-6.089386 18.1158447.3606415 25.6333008-8.1308594 2.8886719-3.2636719 5.3530426-9.15625 10.9184723-7.8115234 1.6264648.3925781 2.4414063-1.7275391 1.4047852-2.5947266-4.7109375-17.84375-29.6572418-2.3193359-39.6684723-12.5117188-2.7416992-2.7919922-4.5073242-6.40625-7.0297852-9.3876953-6.8710785-8.1233292-17.480423-12.9891701-29.3442383-12.2753944-1.4790802.089016-1.4002686 1.3580093-1.3969727 2.4335938-.4116211.8027344-.8193359 1.4355469-1.503418 2.5771484-.6533203 49.6279335.2431641 100.6835938 1.3095703 150.4960938-13.5600586.6279297-27.2182617 1.9101563-40.4604492 4.9404297-6.6054688 1.5117188-16.9545898 3.4746094-21.2314377 9.4882813-8.5816727 12.0678558 19.853157 16.6530609 34.356926 18.6669922 56.2141113 7.8107452 137.3115692-2.5209198 117.8637848-20.6728516-6.8310547-6.3759766-19.0200195-7.9433594-27.7519684-9.3974609-16.5698242-2.7597656-33.4448242-3.5273438-50.2241211-3.3789063-.1040039-28.671875-.2055664-57.34375-.2807617-86.0165939 12.0205079 4.5947151 19.194336-10.3447304 27.4047852-16.4248086zm-30.5053711-49.3398475c.0019531 55.479496.2382813 110.9619141.434082 166.4414063-1.8569336.1142578-3.7133789.2294922-5.5703125.3447266-.3399506-77.8972168-.6433563-117.7499237-.8383789-167.1933594 2.0161133-.0322266 4.0126953.0976562 5.9746094.4072265zm-48.8339844 159.9677696c13.0107422-2.9707031 26.4052734-4.2207031 39.7260742-4.8359375.0209961 1.0332031.0400391 2.0683594.0668945 3.0966797-29.6425781 1.2128906-53.1845703 5.6826172-60.0366135 11.3144531.8081056-5.7763672 16.5839769-8.7392578 20.2436448-9.5751953zm120.534195 2.7128906c3.4057617 1.2675781 8.6235352 3.6542969 8.9350586 6.6455078-11.1390686-10.2016907-62.1153717-11.5690308-77.2299957-11.4003906-.0039063-1.0488281-.0083008-2.0976563-.0107422-3.1464844 19.4892273-.1685638 50.1611023 1.1512909 68.3056793 7.9013672z"/><path d="m67.8605881 171.2669373c-15.0605469-9.2636719-29.8271484-18.9941406-44.8881836-28.2578125-1.6489258-1.0146484-3.1577148 1.5791016-1.5141602 2.5898438 15.0610371 9.2636719 29.8271503 18.9941406 44.8886719 28.2578125 1.6489258 1.0146483 3.1572266-1.5791017 1.5136719-2.5898438z"/><path d="m56.261467 116.7718277c8.2319336 10.3310547 16.4638672 20.6621017 24.6958008 30.9931564 1.2026367 1.5097656 3.3129883-.625 2.1210938-2.1210938-8.2319336-10.3310547-16.4638672-20.6621017-24.6958008-30.9931564-1.2026368-1.5097656-3.3129884.6259766-2.1210938 2.1210938z"/><path d="m116.6032639 128.138031c-3.253418-6.6982346-6.5063477-13.3955002-9.7597656-20.0937424-.8432617-1.7363281-3.4311523-.2167969-2.590332 1.5146484 3.2529297 6.6972656 6.5063477 13.3955078 9.7592773 20.0927658.8432617 1.7363282 3.4316406.2177735 2.5908203-1.5136718z"/><path d="m106.6467209 221.2356873c16.6571884 2.8782043 36.1250839-6.9210815 44.435051-21.0595703 7.9511719-13.5283203 6.3696289-30.9208984-3.6860352-42.9023438-16.0777283-19.1556244-45.7628555-16.1156311-59.2490158-4.1630859-25.8581619 22.9197387-12.5625076 62.756958 18.5 68.125zm24.337883-72.1953125c-.4921875 3.4267578 2.3432617 6.2636719 5.8227539 5.7519531.4760742-.0703125.2739258-.7929688-.1992188-.7236328-2.8652344.421875-5.2114258-1.9384766-4.9155273-4.7216797 9.3554688 3.9384766 16.0927887 11.3700256 19.359375 20.2949219-7.5458984 1.8203125-14.4926758-3.7197266-14.2807617-11.5556641.0131836-.4824219-.7368164-.4824219-.75 0-.2260742 8.3554688 7.246582 14.2578125 15.2875977 12.2666016.71875 2.1035156 1.234375 4.2705078 1.5405273 6.4765625-.0415039-.1386719-.1538086-.25-.3422852-.2451172-4.9399414.1308594-7.3891602 5.6513672-4.2338867 9.4277344.3100586.3710938.8378906-.1621094.5307617-.5302734-2.7519531-3.2929688-.5688477-8.0341797 3.703125-8.1474609.2333984-.0058594.3520508-.1865234.359375-.3681641 1.115097 8.283783-.7822113 16.431427-5.4257813 23.3583984-3.2558594-2.1875-2.9501953-6.8203125.6308594-8.5869141.4331055-.2128906.0537109-.8603516-.378418-.6474609-4.0864258 2.0166016-4.3447266 7.3701172-.6796875 9.8486328-6.5766602 9.3681641-17.5942383 15.2167969-29.3461838 15.2636719-26.2991486.1031036-44.4224319-27.9282379-31.4770508-51.0761719.0253906.0292969.0507813.0585938.0888672.0820313 2.9145508 1.7607422 3.796875 5.6855469 1.9550781 8.5371094-.2631836.40625.3862305.7832031.6474609.3779297 2.0673828-3.1992188 1.0292969-7.5976563-2.2236328-9.5625-.0458984-.0283203-.0908203-.0410156-.1347656-.0478516 8.6928712-14.8251954 27.9194337-22.0048829 44.4614183-15.4726563z"/></g></g></svg>