<svg id="Layer_1" enable-background="new 0 0 300 300" height="512" viewBox="0 0 300 300" width="512" xmlns="http://www.w3.org/2000/svg"><g id="Guide_and_Tutorials"><g><path d="m43.2216301 34.0456047c.2387695.3300781.6191406.5620117 1.1518555.5620117h4.7827148c-.0639648.1645508-.1049805.3481445-.1049805.559082v134.6635742c-.8725586 0-1.7456055.0039063-2.6181641.0039063-1.9306641 0-1.9335938 3 0 3 .4204102 0 .8408203-.0019531 1.2607422-.0019531 5.6616211 2.4736328 11.6777344 4.8305664 16.757328 8.2832031 29.0820313-2.5541992 57.2719727-3.7446289 85.2866211-4.7231445.0253906 1.8666992.050293 3.7333984.0913086 5.5996094.0419922 1.9277344 3.0419922 1.9345703 3 0-.0415039-1.9003906-.0668945-3.8017578-.0932617-5.7026367 5.8554688-.2016602 11.706543-.3984375 17.5551758-.5952148 5.2880859 9.1337891 10.6259766 18.1606445 16.0219727 27.0957031-1.9160156 3.1826172-3.1499023 6.7304688-3.6176758 10.375-.7768555 3.8378906-.8686523 9.0834961-.4384766 10.9355469 1.6728516 7.2075195 6.1152344 12.050293 10.3427734 15.4936523-2.3130035.5122223-4.268631 3.4554138-3.222168 5.9936523-.6437073 1.6552429-3.5597382 15.5113678-3.9443359 17.3842621 1.1064453 1.5610352 2.480957 3.6464844 3.5869141 5.2075195 1.1931915-3.5449219 5.000885-16.1887665 4.7231445-19.016098 5.4614258 3.7681427 23.0865173 10.092514 26.8139648 10.8520355-1.4882813 5.6953125-2.3125 11.3920898-4.5795898 16.8818359-.7363281 1.7827148 2.1650391 2.5595703 2.8925781.7973633 2.3222656-5.6225586 3.1274414-11.4648438 4.6870117-17.2988281 2.0473633.0795898 3.8388672-.3022461 4.984375-1.5092773 3.1074219-3.2748871-2.4682617-7.187973-5.5249023-8.516098 9.4711914-8.1977539 15.1342773-21.1538086 15.7939453-33.4355469.3061523-5.699707.5336914-12.2636719-3.121582-17.0395508-1.987793-2.5976563-4.0615234-2.3071289-5.8476563-.8066406-.7456055-6.147995-5.4463196-8.5955963-8.96875-7.2055664-1.6132355-3.6450348-6.2205353-4.9924164-9.340332-3.4892578-.3144531-.6572266-.6875-1.2866211-1.1430664-1.8725586-2.359375-3.0307617-5.6357422-2.1064453-7.746582.9042969-1.4589691 2.0812073-1.9323273 4.6754608-3.3764648 16.5244141-6.3618164-9.5600586-12.7460938-19.0742188-19.1240234-28.5932617 59.6988525-2.0770416 53.1118011-3.0371094 75.0463867-3.0371094 1.9306488-.0004883 1.9335785-3.0004883 0-3-.9580078 0-1.9165039.0043945-2.875.0043945 0-.0996094.0004883-.1987305.0004883-.2983398 1.2587891-1.8339844 2.5175781-3.6674805 3.7763519-5.5014648-1.0297699-41.0351639-.9492035-87.9580154.8613281-129.0537109.4838867-.2265625.7441406-.7060547.7890625-1.2094727 1.659668-3.2622089 1.7143555-6.9834003.1704102-10.2856464.0766602-.800293-.3979492-1.6640625-1.4355469-1.6640625-70.7866058 0-141.5727386 0-212.3593597 0-.4630394 0-1.0188217.2019501-1.4726563.9106445-2.2998047 3.5854492-2.2363281 8.0058594.2456055 11.4853535.0991173.13916.2128868.2456053.3325157.3383787zm159.2983437 167.2778359c.2094727-1.6044922 1.5317383-14.9951172 5.074707-13.5498047 3.4921875 1.4248047 2.1201172 10.5058594 1.6289063 12.9711914-.3754883 1.8852539 2.515625 2.6923828 2.8930664.7973633.6259766-3.1425781 1.0644531-6.8774414.3735352-10.2416992 1.0507813-.5908203 2.4418945-.6181641 3.5605469-.1806641 2.3242188.9082031 2.5444336 3.2226563 2.3676758 5.3847656-.2480469 3.0336914-.6728516 6.0556641-.9384766 9.0898438-.168457 1.9228516 2.8325195 1.9116211 3 0 .2705078-3.0898438 1.4003906-7.222168 1.1020508-10.765625 3.2866211-2.4960938 5.315918 3.7055664 5.3427734 5.9916992.0283203 2.3569336-.4003906 4.7197266-.8012695 7.0317383-.3276367 1.8881836 2.5625 2.6992188 2.8925781.7973633.2626953-1.5146484.5683594-3.1391602.7592773-4.7832031.0800781-.0834961.1552734-.1777344.2226563-.2885742.5952148-.9804688 2.8955078-1.7089844 3.918457-.9785156.7382813.5273438 1.1655273 2.5893555 1.4150391 3.4868164.5883789 2.1181641.5966797 4.362793.5849609 6.5454102-.1030426 18.40065-8.7768097 32.209198-19.0678711 38.5966797-1.637207 1.0166016-.1323242 3.612793 1.5141602 2.5908203.8046875-.4995117 1.5854492-1.034668 2.3476563-1.5961914.1552734.3413086.4404297.6333008.8818359.7905273.0273438.0097656 3.9658203 2.0981445 4.0371094 2.769043.2197266 2.0678558-3.0507813 1.1786957-3.7763672 1.0551605-6.0553894-1.0330353-17.4250488-5.4929047-23.0083008-8.2455902-1.234375-.6083984-2.5991211-1.1289063-3.5795898-2.1318359-3.2724609-3.3476563.1870117-2.9350586 2.9360352-1.5107422.0405273.0209961.0800781.0307617.1201172.0478516.5917969.6977539 1.1953125 1.3891602 1.8305664 2.0629883 1.3261719 1.4082031 3.4448242-.7158203 2.1210938-2.1210938-12.2198334-12.9736023-21.5857086-24.6218567-14.1669922-39.175293.9501953 1.5771484 1.90625 3.1508789 2.8666992 4.7207031-.8095551 1.0932922-1.1145477 9.3008728 3.6499023 11.1508789 3.7080078 1.4394531 5.7910156-1.1787109 6.2802734-4.4521484.7861327-5.2563478.9291991-10.5869142 1.6171874-15.8598634zm-6.7778321 16.9575195c-.4726563-.3271484-1.0424805-.8769531-1.7348633-1.7270508-.3994141-.4907227-.550293-1.2446289-.5854492-2.0576172.7714844 1.2636719 1.5449219 2.5249024 2.3203125 3.784668zm59.4926758-193.9697323c1.0927582 2.3598633 1.0844574 4.9472656-.0131836 7.2963867-70.034668 0-140.0698242 0-210.1049805 0-1.4086914-2.328125-1.4995117-4.8916016-.1992188-7.2963867zm-203.2880897 10.2963886c42.8371544 0 197.5068817 11.7138252 197.6083984 11.722168-.0405273 40.9999962-.2358398 81.9990234-.2416992 122.9990234-24.3671875.0112305-48.734375.0786133-73.1015625.1625977-9.5556641-14.2651367-19.0917969-28.5620117-28.5615234-43.0278397-1.5208588-2.3208466-5.0493317-.2026443-3.7299805 2.2299881 7.4746094 13.7719727 15.0908203 27.3911133 22.8173828 40.8295898-38.2285156.1367188-76.4570313.2851563-114.6865234.3022461 0-44.8862381 0-89.7724686 0-134.6586914-.0000001-.2109374-.0410157-.3940429-.1044922-.559082z"/><path d="m150.9037628 201.7741241c5.2065277.4265289 9.1689301-4.1974182 9.1225586-8.1049805.3442535-3.463501-2.8457336-8.5696564-8.1416016-8.7451172-4.5820313-.1518555-8.5913086 3.543457-8.7451172 8.1416016-.149414 4.4638672 3.3212891 8.3442383 7.7641602 8.7084961z"/><path d="m72.8632355 76.6671829c13.8510742-.4829102 27.7026367-.965332 41.5537109-1.4477539 1.1066055-.039444 3.0557785-1.6717072 1.7475586-3.0078125-4.6977539-4.7988281-9.5732422-9.4199181-14.2709961-14.2182579-1.3530273-1.3818359-3.4736328.7397461-2.121582 2.1210938 4.0302734 4.1166954 8.1850586 8.1088829 12.2524414 12.1879845-12.0698242.4208984-24.1391602.8413086-36.2084961 1.2617188 6.28125-8.034668 12.5629883-16.0698204 18.8447266-24.1044884 1.175293-1.5039063-.9331055-3.6416016-2.121582-2.1210938-6.8486328 8.7597656-13.6967773 17.5195274-20.5454102 26.2797813-.9710007 1.2414703-.6986084 3.1033859.8696289 3.0488281z"/><path d="m175.8690948 69.0695267c-.1762695 6.8666992.1381836 13.7333984-.0366211 20.6005859-.4951172.8779297-.0800781 2.2998047 1.246582 2.3217773 12.3916016.2084961 24.7744141.2094727 37.1665039.0341797.641037-.0086136 1.6214752-.5586014 1.7470703-1.4047852.800293-5.3701172 1.1381836-10.7338867.9555664-16.1625977-.0644531-1.925293-3.0649414-1.934082-3 0 .1640625 4.8862305-.078125 9.7397461-.75 14.5786133-11.4550781.152832-22.9033203.1518555-34.3579102-.0229492.1391602-6.6376953-.140625-13.2749023.0283203-19.9125977 12.8007813.1381836 25.6015625.2763672 38.402832.4145508 1.2131958.0133896 2.9594116-1.6422119 1.7670898-2.9760742-4.4746094-5.0078087-9.1333008-9.8466759-13.6079102-14.8540001-1.2890625-1.4428711-3.4047852.6845703-2.121582 2.1210938 3.8237305 4.2788086 7.7753906 8.4404297 11.6381836 12.6835899-12.0297852-.1298828-24.0595703-.2592773-36.0893555-.3891602 6.3295898-6.7065392 13.684082-12.352047 19.7817383-19.2993126 1.269043-1.4453125-.8447266-3.5756836-2.121582-2.1210938-6.7109375 7.6464844-14.9594727 13.7001953-21.6708984 21.3466759-.9838255 1.1205446-.8153074 3.0260698 1.0219728 3.0415041z"/><path d="m104.2421417 108.7702103c4.1176758 4.2851563 8.0864258 8.7104492 12.1582031 13.0390625-12.1289063.2836914-24.2631836.2822266-36.3916016.6000977 5.6445313-7.0063477 11.5361328-13.809082 17.1308594-20.8569336 1.1879883-1.496582-.9208984-3.6333008-2.121582-2.1210938-6.0878906 7.6694336-12.5415039 15.0371094-18.6298828 22.706543-.8857422 1.1162109.0615234 2.5859375 1.0981445 2.6357422-.0004883.0200195-.0053711.0371094-.0053711.0571289.0400391 6.9785233.0795898 13.9570389.1196289 20.9350662.0031052.5650635.7715302 2.1984711 1.9516602 2.2089844 12.5981445.1142578 25.184082-.472168 37.7768555-.7329102 1.2607422-.0258789 1.6938477-1.3154297 1.3056641-2.1953125.5224609-5.3530273.5268555-10.7319336.121582-16.0947266-.1445313-1.9130936-3.1455078-1.9287186-3 0 .3857422 5.1074219.3896484 10.2285156-.0595703 15.3286133-11.7001953.2666016-23.3955078.7675781-35.1005859.6967773-.0371094-6.5258789-.074707-13.0517578-.1123047-19.5781326 13.0302734-.331543 26.065918-.2895508 39.0952148-.6572266 1.5207672-.0427704 1.8532867-1.9858551 1.0605469-2.8105469-4.8305664-5.0268555-9.4458008-10.2558594-14.2758789-15.2827148-1.3403321-1.3950195-3.459961.7280274-2.1215821 2.1215821z"/><path d="m93.5644073 129.6364288c-.0942383 3.4326172-.1889648 6.8652344-.2832031 10.2978516-.0532227 1.9311523 2.9467773 1.9296875 3 0 .0942383-3.4326172.1889648-6.8652344.2832031-10.2978516.0532227-1.9311599-2.9467773-1.9296951-3 0z"/><path d="m175.2992706 131.7023468c.0551758 7.0136719.2285156 14.0258789.2797852 21.0395508.0059052.9635315.5220947 1.739151 1.5 1.75 12.4790039.137207 24.9526367-.0385742 37.4262695-.4125977.8330078.1479492 1.8056641-.324707 1.8237305-1.4204102.0932617-5.7285156.1660156-11.4570313.2412109-17.1860352.0253906-1.9311523-2.9741211-1.9321289-3 0-.0683594 5.2124023-.1376953 10.4248047-.2197266 15.6367188-11.5942383.3359375-23.1889648.4946289-34.7880859.3896484-.0610352-6.6191406-.2124023-13.2373047-.2636719-19.8569336 12.703125-.2856445 25.4116211-.2119141 38.1132813-.5668945 1.438385-.0399323 1.894989-1.8552246 1.0610352-2.7275391-7.3413086-7.6674881-14.2680664-15.7461014-21.3334961-23.6665115-.8286133-.9287109-1.9946289-.3774414-2.3833008.5146484-6.34375 7.9672852-13.2109375 15.4951172-19.5541992 23.4628983-.921875 1.1587067-.8595276 3.0933076 1.0971679 3.0434571zm19.9042969-23.5620193c5.9501953 6.6967773 11.8427734 13.4648438 17.9716797 20.0000076-11.699707.2626953-23.4042969.2392578-35.1040039.5063477 5.6245117-6.9077225 11.5512695-13.5620194 17.1323242-20.5063553z"/><path d="m203.9120636 136.1642609c-4.6479492.0517578-9.2963867.1035156-13.9448242.1552734-.946167.0105591-1.7668304.5086365-1.7802734 1.5131836-.0341797 2.53125-.0683594 5.0620117-.1020508 7.5927734-.0168304 1.3299103.6636505 1.8932343 1.5014648 1.8842773 4.7104492-.0527344 9.4208984-.1049805 14.1313477-.1572266.8250427-.0089722 1.5841217-.5365601 1.5952148-1.480957.0317383-2.6020508.0629883-5.2041016.0942383-7.8061523.0107269-.920227-.5056763-1.7123413-1.4951172-1.7011718zm-12.7451172 3.1416015c3.7416992-.0415039 7.4829102-.0830078 11.2246094-.1245117-.0200195 1.6621094-.0405273 3.3242188-.0600586 4.9863281-3.7441406.0419922-7.487793.0834961-11.2314453.125.0224609-1.6621093.0449219-3.3242187.0668945-4.9868164z"/><path d="m195.5028839 124.925972c2.9306641.112793 5.2368164-2.0092773 5.6142578-4.7998047.0351563-.1411133.0576172-.2924805.0478516-.4643555.0136719-.2416992-.0214844-.4526367-.09375-.6333008-.4350586-2.6225586-2.565918-4.6420898-5.3530273-4.6420898-2.8842773 0-5.4467773 2.340332-5.4467773 5.2753906-.0000001 2.859375 2.427246 5.15625 5.2314452 5.2641602zm2.6621094-5.2641602c-.1655273 2.9423828-4.8935547 2.9677734-4.8935547 0 0-2.9697265 4.7280273-2.9423828 4.8935547 0z"/><path d="m150.0023956 116.1046829c10.5087891-1.1977539 18.1337891-10.472168 17.4067383-21.0405273-.7363281-10.7041016-10.4804688-18.2797852-20.8842773-17.7412109-.1816406-.7451172-.8588867-1.4052734-1.824707-1.2041016-10.3671875 2.1557617-18.2231445 11.7421875-16.7744141 22.5317383 1.4575195 10.852539 11.1445312 18.7001953 22.0766601 17.4541015zm-5.5297851-13.9248047c.0478516 1.934082-2.9526367 1.9272461-3 0-.1098633-4.4619141-.2202148-8.9238281-.3305664-13.3852539-.0473633-1.9345703 2.9526367-1.9272461 3 0 .1103515 4.4614258.2207031 8.9233399.3305664 13.3852539zm10.0820312.3427735c-.0473633 1.9301758-3.0473633 1.9311523-3 0 .1147461-4.6904297.2294922-9.3808594.3442383-14.0717773.0473633-1.9301758 3.0473633-1.9311523 3 0-.1147461 4.6909179-.2294922 9.3813476-.3442383 14.0717773z"/></g></g></svg>