<svg id="Layer_1" enable-background="new 0 0 300 300" height="512" viewBox="0 0 300 300" width="512" xmlns="http://www.w3.org/2000/svg"><g id="Leadership"><g><path d="m137.3493652 240.021698c.8222656 7.9853516 2.5786133 15.3569336 5.449707 22.859375.6826172 1.7851563 3.5844727 1.0102539 2.8925781-.7978516-2.7744141-7.2495117-4.5458984-14.3291016-5.3422852-22.0615234-.1958006-1.9013672-3.1982421-1.921875-2.9999999 0z"/><path d="m77.6911697 94.63694c5.9648438.6396484 11.9443359 1.2089844 17.9301758 1.6660156 6.4383011 23.6723633 27.8876648 42.4711838 55.1542892 41.372551-1.6060333 5.0828705.162323 12.7865906 1.484375 18.6713867-3.7620087-.5809479-7.0030365 1.9501648-7.8452148 5.3613281-4.6531372-1.5804596-10.0428772 2.2992249-9.2299805 10.4511719-9.0493011-3.982666-9.5680161 8.5012665-7.7216721 18.2675781 2.4433517 12.9248047 3.7143478 28.7954102 14.2421799 38.0058594 1.4472656 1.2666016 3.5776367-.847168 2.1210938-2.1210938-7.9516602-6.9575653-9.6500092-17.1039276-12.9492188-34.0317383.6713867.4433594 1.4077148.7539063 2.2133789.8481445 2.2158203.2587891 4.6352539-1.7783203 4.9970703-3.9555664.3139648-1.8886719-2.5766602-2.7006836-2.8925781-.7973633-.2241211 1.3486328-1.5405273 2.1674805-2.7143555 1.3710938-2.6556091-1.8008118-3.5027771-5.1908875-3.5366211-8.3876953-.0307617-2.8642578 1.9467773-10.269043 6.7231445-5.2060547.7861633.831604 1.1434784 7.775589 4.8691406 10.4829102 2.9091797 2.1137695 6.5810547.9077148 8.8212891-1.5219727 1.3076172-1.4169922-.8085938-3.5439453-2.1210938-2.1210938-5.0874023 5.5161133-7.2451172-3.0537109-8.1435547-6.4296875-.4121094-1.5483398-.7890625-3.0913086-.9101563-4.6938477-.2133789-2.815918.9042969-10.0742188 6.0522461-6.9575195.2050781 2.0258789.878418 4.0917969 1.3876953 6.0625 1.0024414 3.8808594 1.1357422 8.5410156 5.0634766 10.6987305 3.1025391 1.7045898 5.7788086-.1640625 7.6240234-2.7807617 1.1147461-1.5810547-1.4853516-3.081543-2.590332-1.5141602-4.5610352 6.4677734-6.4321289-4.1713867-7.0351563-6.5371094-.3544922-1.3886719-.7724609-2.7641602-1.0786133-4.1645508-.7055664-3.2280273.3183594-9.5878906 5.4492188-6.9755859 1.0043945 4.0048828 2.1499023 7.9750977 3.3095703 11.9365234.5415039 1.8491211 3.4375 1.0625 2.8930664-.7973633-2.6249847-8.9664154-8.161026-25.289917-5.0449219-33.4091797 2.0483398-.2119141 4.0800781-.5429688 6.0878906-.9853516 2.2564392 3.6273651 5.6065369 34.1147614 13.7646484 53.0859375.2807617.652832 1.0898438.7807617 1.6938477.6889648.5585938-.0478516 1.1176758-.0957031 1.6762695-.1435547.6445313-.0244141 1.2885742-.4467773 1.4467773-1.1010742 1.46875-6.0820313 6.2177734-13.0053711 10.8481445-17.2875977 4.2958984-3.9726563 11.3725586-2.2602539 9.2880859 4.4272461-1.2363281 3.96875-3.5917969 7.8149414-5.5126953 11.4707031-4.5929413 8.7420959-18.2913971 34.6497498-26.2143555 40.5380859-1.5317383 1.1391602-.0375977 3.7441406 1.5141602 2.590332 1.3779297-1.0234375 2.6713867-2.1958008 3.9047852-3.4619141 1.2966003.1663513 4.0587616.4918671 4.3295898 1.7714844.704361 3.3325958-6.8831177 4.7637939-14.6274414 6.2949219-8.2570801 1.6322937-23.6707764 3.2296448-23.9199219-5.1782227 1.7431641-.8276367.2226563-3.4145508-1.5141602-2.590332-6.4796143 3.075882-2.1499329 16.2570343 26.2314453 10.6616211 2.4404297-.480957 7.1206055-1.0063477 10.9975586-2.3754883 2.9023438 14.621582 7.7866211 28.9248047 14.4555664 42.2548828.5632629 1.1264954 1.9685211.9081421 2.5419922-.046875.0019531-.003418.0043945-.0068359.0063477-.0107422 1.1918945-1.9819336 2.2089844-3.6240234 3.7021484-5.8193359-6.0717773-10.8974609-9.5532227-22.0649414-13.097168-34.0253906 3.1835938-1.597168 5.1689453-5.3032227 4.734375-8.8388672-.434082-3.5351563-3.2578125-6.6503906-6.7333984-7.4291992-.421875 0 .9111328-4.1464844 2.1328125-7.3808594.9403076-1.5953217 10.926178-19.243515 14.5898438-26.284668 2.1459961-4.1235352 5.503418-9.0888672 5.9824219-13.8535156.6425781-6.3891602-6.4848633-10.1274414-11.8222656-7.2050781-4.2785645 2.3421936-10.6834412 11.7414246-12.5952148 15.4345703-10.6069336-29.4003143-10.1017456-43.9387665-12.7167969-47.5673828 16.0932312-5.2717133 31.9470215-18.5813675 38.8603516-35.4721603 8.4443359-4.3896484 16.1381836-10.3574219 19.3950195-19.2949219.6621094-1.8168945-2.2358398-2.5996094-2.8925781-.7973633-2.5263672 6.9331055-8.2978516 12.0854492-15.0107422 16.0229492 1.7724609-5.4555664 2.7353516-11.1655273 2.8144531-16.9355469 23.2992859-12.5125275 12.3864441-28.4176865 1.1577148-26.6801796-1.9023438.2944336-1.0942383 3.1855469.7973633 2.8925781 8.4854431-1.3128548 15.6275635 10.0794792-2.0068359 20.2968788-1.4344635-29.6609154-26.1711273-53.1290665-55.4042969-53.9262733-36.6431808-.9987946-66.2424088 33.8289604-58.2109299 72.0805664-5.7255859-.449707-11.4560547-.9975586-17.1967773-1.6132813-1.9174801-.2055621-1.9028317 2.7959027.0000003 3.0000043zm65.0346604 17.6879883c8.5717773.5629883 17.1689453.1982422 25.6235352-1.0952148-3.8600464 13.7808533-8.1585999 17.0886307-13.6181641 20.6767502-13.5999146.854187-27.3230972-3.3783569-38.1591721-12.6889572 10.3066406-6.6699219 19.7314377-14.4648438 28.7109299-22.7739258 9.4599609-.862793 18.8745117-2.3637695 28.2128906-4.659668-1.769043 5.1503906-2.9160156 10.7827148-4.3037109 16.2724609-8.7192383 1.4360352-17.5922852 1.8510742-26.4663086 1.2685547-1.9277344-.1264649-1.9199219 2.8740234 0 3zm-27.313469 5.8608398c-6.4975586-5.9243164-11.4101563-13.3569336-14.402832-21.5083008 13.9692383.8945313 27.9570236 1.0737305 41.8588791-.0400391-8.5952148 7.8613282-17.6171799 15.2241212-27.4560471 21.5483399zm43.3466721 13.0507736c6.0478516-5.1601486 8.8549805-12.5571213 10.9277344-20.2206955 9.745163-1.6078262 17.6407013-4.0871735 26.03125-7.5195313.2685547 1.5136719.4570313 3.059082.5776367 4.6303711-12.0246124 18.1408769-33.4656372 24.2986222-37.5366211 23.1098557zm11.753418-23.4033126c1.3117065-5.2487946 2.5837708-11.0235672 4.6411133-16.4433594 4.8833008-1.2524414 9.703125-2.7402344 14.4350586-4.4692383 2.4458008 4.2866211 4.3491211 8.8535156 5.5244141 13.7216797-9.3802186 3.7710495-17.5179597 5.9376602-24.600586 7.190918zm6.1157226-19.9326172c1.7350769-3.7034683 3.9195709-7.0669327 6.8925781-9.8505859 1.6137695 2.0180664 3.1171875 4.1079102 4.4921875 6.2675781-3.743164 1.3481445-7.5429687 2.5390625-11.3847656 3.5830078zm-1.8203125.4663086c-8.924057 2.3125229-17.183548 3.7184753-25.902832 4.6801758 4.3542328-4.1423798 20.8982697-20.4834366 25.1547852-25.1352539 3.0732422 2.8842773 5.9975586 5.9316406 8.659668 9.1577148-3.7387849 3.4758377-6.1690675 7.2298508-7.9116212 11.2973633zm-28.3574218 4.9428711c-15.5234375 1.5307617-30.9794846 1.3505859-46.462883.3115234-1.1782227-3.8989258-1.9238281-7.9316406-2.206543-12.019043 20.7593155-15.3130722 52.327919-1.2731705 65.6323166-22.7026405 3.3238831 2.5302658 6.689682 5.3740349 9.5976563 8.0400429-4.4460755 4.8744812-22.7178345 22.7502517-26.5605469 26.3701172zm51.1450195 12.7583007c-.1259766-1.0639648-.2841797-2.1157227-.4770508-3.1538086.9541016-.4023438 1.9101563-.8178711 2.8657227-1.2514648-.7275391 1.5-1.5249024 2.9697266-2.3886719 4.4052734zm4.1245117-8.375c-1.7197266.8569336-3.46875 1.6469727-5.2143555 2.3774414-1.1982422-4.8422852-3.09375-9.394043-5.5136719-13.6757813 5.2133179-1.9665833 11.4900818-4.792511 14.4658203-6.230957-.270996 6.0048829-1.5429687 11.9296876-3.7377929 17.5292969zm-12.2944336-13.9101562c-1.4589844-2.3178711-3.0654297-4.5551758-4.7919922-6.7143555 5.8334961-4.840332 14.0605469-7.1044922 20.762207-2.9609375.059082.8725586.1025391 1.7456055.1191406 2.6181641-4.1629333 2.1360016-10.3635558 4.9249802-16.0893554 7.0571289zm15.8144531-11.5371094c-7.3125-4.0454102-15.2836914-1.3447266-21.40625 3.8359375-2.6948242-3.2666016-5.6538086-6.3530273-8.7675781-9.2758789 6.1040039-6.8281288 11.3686523-14.2543983 14.1821289-23.2241249.2895508-.9228516-1.1577148-1.3178711-1.4462891-.3984375-2.7192383 8.6694336-7.84375 15.9516602-13.796875 22.6396523-3.0412903-2.7882957-6.4390564-5.6436539-9.8422852-8.2221718 5.934082-11.1889648 1.2436523-25.7314453-9.4902344-33.3364258 26.1559755 1.6154175 47.8573152 21.7463417 50.5673829 47.9814491zm-53.4912109-48.0864296c12.8561096 7.4347095 16.8498993 21.6616096 11.0810547 32.4453125-14.3383789-10.5537109-31.1054688-17.9106445-49.1957932-16.6865234 9.8966294-9.8348484 23.3896561-15.8598004 38.1147385-15.7587891zm-39.6870041 17.3896485c18.428215-1.7480469 35.4946213 5.6157227 50.0165939 16.3481445-12.9784546 20.653019-44.4234695 7.8995934-64.3886642 21.9311562-.5297012-14.737259 5.0275803-28.1987534 14.3720703-38.2793007z"/></g></g></svg>