<svg id="Layer_1" enable-background="new 0 0 300 300" height="512" viewBox="0 0 300 300" width="512" xmlns="http://www.w3.org/2000/svg"><g id="Lets_chat"><g><path d="m33.1532936 73.8622971c4.0203629-1.0681381 17.3317795-3.8444519 32.7177696-9.9379883 1.5887375.769104 2.6362534.9724274 4.2070313 1.7578125l.1474609.0737305c.1565094-.0254211 3.2602539-.5087891 3.7285156-.5834961 1.0020905.6073227 2.1307526.0302734 2.3027344-.8349609.5566406-2.7954102.6044922-6.6289063 1.6171875-9.2539063.625-1.6191406.9804688-1.2036133 3.0146484-1.9492188 2.5341797-.9291992 5.0625-1.8339844 7.6494141-2.609375.7036133-.2109375 1.012207-.7666016 1.1010742-1.4462891.2563477-1.9643555-1.2602539-4.5888672-1.8447266-6.4101563-1.1757813-3.6650391-2.3144531-7.3413086-3.4970703-11.0043945-1.5585938-4.8276367-1.2563477-6.7358398-6.3754883-5.0859375-13.5131836 4.3549805-27.1586876 8.2602539-40.805172 12.1723633-1.8525391.5307617-1.0649414 3.4267578.7973633 2.8925781 2.8086433-.8051529 39.4812737-11.2794037 42.235836-12.7114258.6938477-.4389648.7597656-.3413086.1987305.2944336.7441406.6157227 1.0415039 3.1918945 1.3232422 4.0703125.9067383 2.8266602 1.7929688 5.6606445 2.6933594 8.4897461.4501953 1.4135742 1.8720703 4.2592773 2.2070313 6.2202148-3.4633789 1.1000977-6.8466797 2.4116211-10.2841797 3.5932617-.4594727.1577148-.965332.5253906-1.0478516 1.0478516-.4658203 2.9492188-.9521484 5.8735352-1.4946289 8.8007813-2.3491211-1.6157227-5.0288086-3.6206055-7.3847656-4.2924805-2.2216797-.6333008-4.0966759.546875-6.3759727 1.2973633-.7851563.2587891-1.574707.503418-2.3613281.7563477-5.7514648.8320313-11.8139648 3.034668-16.9702148 4.9321289-.2683678-3.7618828-5.2571106-18.6684189-6.2299805-20.5029297-.1147461-.7089844-.2382813-1.4169922-.3491211-2.1269531-.2976265-1.9035378-3.2252827-1.1100655-2.8818378.8647461-1.791235 1.1610985-3.1907921 4.4858932-4.0009766 5.7373047l-.1181641.1821289c7.0390415 29.6066284 1.5671329 6.8049393 6.08008 25.5664063z"/><path d="m26.369112 143.8535156c2.6054688 7.2084961 7.0546894 12.7895508 12.5273457 15.715332 5.7087059 3.0529175 11.4204903 2.8093109 17.8203125 1.7426758 22.2216682-3.7026672 27.401226-3.0131531 53.1289024-14.0688477 3.6337891-1.5615234 6.4189453-4.6508789 8.1972656-6.8388672 2.4970703-3.0708008 3.8242188-6.5976563 3.7363281-9.9301758l-.0043945-.1625977c4.2338867-7.6254959 3.7993164-18.1894608 2.1928711-26.814949.8169098-.4875031 4.5378265-3.2010651 8.9599609-5.5048828 3.3798828-.8691406 6.5756836-2.2070313 10.1884766-2.4350586 4.684082-.2963867 9.6181641.8149414 13.1635742 3.890625 4.7949219 4.1601563 6.2207031 11.2089844 5.1762695 17.4702148-.7744141 4.6455078-2.6992188 8.9750977-4.9052734 13.1635818-29.2417068 42.6806183-88.8743515 56.5080109-111.0493164 85.9643555-8.7431831 11.6144104-7.9430389 26.6448517 1.777832 38.0029297 4.4194336 6.3720703 10.7246094 11.5620117 17.5371056 14.6123047 13.8178711 6.1865234 27.8857422 7.4145508 41.8183594 1.4916992 6.7275391-2.8603516 14.4365234-8.871582 18.6665039-14.8334961 4.0136719-5.6572266 5.8637695-13.1005859 6.5009766-17.6577148 3.9502716-17.6163177.371933-40.4233856 9.9624023-54.2641602 8.3307495-7.4395905 16.7276611 4.9052887 25.2138672 2.1689453 3.0517578-.984375 5.2226563-3.8754883 6.012207-6.9838867.3618164-1.4238281.659668-3.6401367.8007813-5.9223633.2333984-1.1660156.3554688-2.3657227.3696289-3.5395508.0678711-5.7006836-1.2363281-14.3144531 7.0058594-14.7114258 5.4067383-.2607422 9.5678711 3.6337891 13.1347656 7.2753906-8.357193 7.1585999-17.0665283 17.8769684-15.5209961 28.7294922-1.390625 4.3041992-.3544922 11.2817383 1.269043 14.5249023 4.1381226 8.2722321 30.2850494 36.5623932 30.3955078 36.6757813 8.0615692 8.2737427 15.4130707 15.2358398 26.8154297 15.2358398 8.2324219-.0004883 17.390625-3.4711914 24.7246094-9.6201172 7.8398438-6.5737305 13.3583984-16.4282227 15.5390625-27.7485352l.3828125-1.9863281c1.8862305-6.3540039 1.6386719-12.9980469-3.0170898-18.262207-.2563477-.2890625-.5454102-.4311523-.8339844-.4692383-.0649414-.1137695-.1420898-.2260742-.2470703-.3334961-12.4609375-12.746582-24.8193359-25.5922852-37.2802734-38.3388672-1.3520508-1.3828125-3.4726563.7392578-2.121582 2.121582 10.8447266 11.0932617 21.6206055 22.2529297 32.4453125 33.3657227-7.6381836-1.6435547-15.909668 1.6376953-22.5800781 6.4326172-9.9819336 7.175293-20.074707 18.2695313-21.6083984 30.9633789-.1669922 1.3818359-.1699219 2.730957-.0498047 4.0375977-4.7094727-5.4106445-9.4931641-10.7558594-14.3007813-16.0795898.1611328-.0805664.2978516-.2207031.3662109-.4404297 1.4414063-4.6357422 4.0820313-8.6108398 7.7646484-11.7680664.7338867-.6293945-.331543-1.6860352-1.0610352-1.0605469-3.8066406 3.2636719-6.5288086 7.409668-8.0605469 12.1728516-2.6791992-2.9648438-5.3603516-5.9277344-8.0366211-8.8945313.1279297-.0820313.2426758-.1918945.3105469-.362793 2.0664063-5.203125 5.1411133-9.7895508 9.137207-13.7104492.6899414-.6772461-.3706055-1.7373047-1.0605469-1.0605469-4.0986328 4.0214844-7.2177734 8.7236328-9.378418 14.0332031-2.4638672-2.734375-4.9150391-5.4804688-7.355957-8.2348633.2946777-.6437531 3.7360992-17.2098541 19.3530273-27.3261719.8071289-.5229492.0561523-1.8222656-.7573242-1.2954102-9.7827148 6.3378906-16.5429688 16.1767578-19.769043 27.2949219-4.8007355-5.4377136-7.4596863-8.565567-7.7128906-8.8583984-2.4614258-10.0742188 5.890625-20.0512695 13.2675781-26.6508789 9.8481445-8.8110352 22.4892578-15.1005859 34.8212891-7.1933594 1.6298828 1.0449219 3.1362305-1.5507813 1.5141602-2.590332-12.1323242-7.7792969-24.7094727-3.2578125-35.0249023 4.7924805-4.4887695-4.5498047-9.8935547-9.2617188-16.7407227-8.2402344-6.1083984.9111328-8.7426758 5.8481445-8.9033203 11.6220703-.1064453 3.8168945 1.1933594 9.0444336-1.2944336 12.4023438-3.7495117 5.0595703-10.0693359.2661133-14.4956055-.9272461-6.21875-1.6777344-11.5698242 1.2373047-15.3100586 6.2124023-14.351738 19.0918274-3.4489594 49.3378906-16.2416992 69.3793945-4.6992188 7.362793-12.2514648 12.1640625-20.5288086 14.5913086-16.390625 4.8061523-37.6650391 1.9370117-50.6362267-9.7290039-13.4851532-12.1278687-16.1745377-29.7589874 5.9243164-47.6523438 28.8950157-23.3955078 65.769043-35.8295898 91.1518555-63.7631836 9.7597656-10.7407227 25.0415039-30.783699 14.4526367-45.5200272-10.0332031-13.9619141-29.4819336-5.2294922-40.6953125 2.1894531-2.2070313-9.6142578-6.2578125-18.0712891-14.2016602-22.1420898-.2392578-.3237305-.6171875-.5498047-1.1435547-.5498047-.0053711 0-.0092773.0009766-.0146484.0014648-2.6513672-1.1630859-5.7070313-1.8662109-9.2353516-2.0014648-1.9311523-.0742188-1.9277344 2.9257813 0 3 14.3540039.5512695 19.5307617 11.7114258 22.0878906 24.2685547 1.9316406 9.4873047 2.9228516 23.0229492-4.6879883 29.9326248-.5717773.2792969-1.1489258.546875-1.7314453.8041992-3.4970703.7280273-6.9985352 1.4355469-10.5019531 2.1328125.0180664-.03125.0439453-.0522461.0585938-.0878906 4.4707031-10.814949 4.7724609-22.5044022.8881836-33.5410233-.3183594-.9047852-1.7680664-.5151367-1.4462891.3984375 3.8037109 10.809082 3.487793 22.1567383-.8881836 32.7441483-.1323242.3198242-.0258789.5712891.1762695.7260742-3.8603516.7651367-7.7231445 1.5195313-11.5883789 2.2636719 1.5742188-5.5722656 1.9907227-11.1850662 1.2246094-16.9326248-.1254883-.9428711-1.6274414-.9555664-1.5 0 .7509766 5.6318359.3647461 11.1455154-1.1918945 16.615242-.0664063.2329102-.0249023.4326172.078125.5859375-4.027832.7739258-8.0566406 1.5424805-12.0854492 2.3120117 1.6088867-4.8168945 2.2861328-10.0556641 1.3178711-15.0590897-.1831055-.9467773-1.6289063-.5458984-1.4462891.3989258.9648438 4.9882889.1313477 10.2334061-1.5639648 14.9838943-6.8579102 1.3120117-13.7143517 2.6328125-20.5595665 4.0087891 7.1152344-7.7026367 7.4750977-22.8520584 6.2441406-31.8418045-1.4345703-10.4814453-5.9208984-23.6972656-15.6308594-28.4868164 14.953125-1.8618164 29.9628868-3.2382813 44.8950157-5.2797852 1.9042969-.2602539 1.09375-3.1513672-.7973633-2.8930664-16.7349243 2.2880859-50.6351891 5.6379776-52.2451134 6.2875977-.2753906-.1376953-.6030273-.1967773-.9746094-.1274414-14.9038105 2.7773438-17.0830097 22.7675781-15.3584003 34.7768555.3955078 2.7509766 1.0390625 6.0029297 1.980957 9.3647461-.7807617 1.5859451-.2241211 4.071785.2036133 5.9604568.4787178 2.105072.9482841 6.0588074 2.6923828 10.8862305h.0009767zm200.8305645 83.1997071c.6049347 1.9998474 2.4341888 2.6474609 4.5102539 2.6474609 4.8291016-.0004883 12.6865234-3.5732422 20.5439453-9.706543 10.6269531-8.2939453 16.6923828-17.7133789 13.987793-21.6230469 4.3033752.9960632 6.6807251 3.5328064 7.1953125 3.8066406 7.8735352 10.3115234-2.6928711 25.4624023-10.3237305 32.6279297-8.9412384 8.3960876-23.3939362 18.1329346-33.1835938 10.7207031-1.2626953-.956543-2.2280273-2.0244141-2.9628906-3.1679688-.0901489-.470459-.3327484-.6989594-.5439453-.9448242-2.1538085-4.2236327-1.3383789-9.3857421.7768555-14.3603514zm-190.8691368-140.9863358c.0839844.0083008.1689453.015625.262207.0102539 5.1889648-.3134766 9.2602539 1.5786133 12.4262695 4.6655273-.1894531-.0068359-.3789063-.0029297-.5668945.0224609-4.7919922.6484375-7.1123047 11.7583008-5.28125 25.2924805 1.7753906 13.1225662 6.7060547 23.0097733 11.3730469 23.0097733.4189339 0 .7792587-.072937 1.1757813-.2231445-2.3359375 4.4594727-6.0239258 8.168457-11.3613281 8.1572266-12.9643574-.0273438-17.9975605-18.3129883-19.6982441-28.3891678-1.7661133-10.4658204-.9013672-29.0092774 11.670412-32.5454102z"/><path d="m219.0448914 127.2465744c2.8325195.269043 5.6367188.9057693 8.4633789 1.1474686 2.0952148.1791992 1.8828125-.0888672 2.9755859 1.1645508 1.6611328 1.9042969 2.4072266 6.2016602 3.0878906 8.559082.1772461.6142578.6777344.9770508 1.2270508 1.0566406l-.0126953.0166016c.0047302.0035095 1.5068054 1.044342 2.484375 1.7485352 1.8758698-1.852417 3.9363556-3.9721069 6.53125-5.8466797 10.78125 2.1098633 22.4150391 3.3066406 33.6582031 3.4624023l.5068359.0068359c-.0046082-2.6604309.0157166 9.040802-.0400391-23.0341873-2.8723145-6.7396088-3.9966431-7.2832565-4.3735352-7.8989258-.3203125-1.6665039-3.0410156-1.5947266-2.9648438.2495117.4315796 10.3968887.1860352 3.7927094-.6401367 18.6069336-.1035156 1.8628006-.2021484 3.6396561-.2900391 4.36866-.1030884-.0071106-23.7533875-1.6348114-26.6938477-2.0366211-.5957031-.081543-1.4165039.0380859-1.6938477.6894531-.8027344 1.8833008-3.3359375 3.8769531-5.4047852 5.5419922-.7368164-2.8828125-1.6875-6.4404297-3.4345703-8.2412186-2.1801758-2.2480469-8.2905273-2.2602539-12.0834961-2.4697266-.0537109-1.7724609.7172852-4.2768555.8793945-5.7075195.0307617-.2708206 1.4237671-12.972641 1.484375-13.1494141.1225586-.3579102.1542969-.5961914.1420898-.7597656.199707-.0039063.4760742-.0390625.8779297-.1367188 2.328125-.5664063 6.512207.7387695 8.972168.9990234 11.4018555 1.2055664 22.8310547 2.121582 34.2563477 3.0683594 1.9243164.159668 1.9135742-2.8413086 0-3-14.4321289-1.1958008-28.8232422-2.5942383-43.2285156-4.0673828-4.7265472-.483757-3.6591644.7804871-5.5043945 17.0458984-.2426758 2.1411133-1.3422852 5.40625-.6289063 7.5146484.2309573.6826174.7500003 1.0351565 1.4467777 1.1015627z"/><path d="m48.968235 47.6518478c-1.9306641 0-1.9335938 3 0 3 1.9301758 0 1.9331055-3 0-3z"/><path d="m59.6347389 43.3183517c-1.9301758 0-1.9335938 3 0 3 1.9301758 0 1.9335938-3 0-3z"/><path d="m72.6347351 38.9848557c-1.9301758 0-1.9335938 3 0 3 1.9301758 0 1.9335938-3 0-3z"/><path d="m259.4692078 112.8886642c-10.168457-.8105469-20.3369141-1.6210938-30.5053711-2.4316406-1.9248047-.1533203-1.9150391 2.8476563 0 3 10.168457.8105469 20.3369141 1.6210938 30.5053711 2.4316406 1.9248047.1533204 1.9145507-2.8471679 0-3z"/><path d="m238.3862 118.3442307c-1.8886719-.3144531-2.7006836 2.5761719-.7973633 2.8930664 6.1757813 1.027832 12.3671875 1.527832 18.6298828 1.4584961 1.9291992-.0214844 1.9345703-3.0214844 0-3-5.9907227.0664062-11.9204102-.3676758-17.8325195-1.3515625z"/></g></g></svg>