<svg id="Layer_1" enable-background="new 0 0 300 300" height="512" viewBox="0 0 300 300" width="512" xmlns="http://www.w3.org/2000/svg"><g id="Limited_time_offer"><g><path d="m263.2644348 131.770874c-19.802002-33.487381-59.6121521-50.2298889-97.7724609-41.6806641-3.3139648-8.640625-14.5327148-8.4516602-22.8774414-5.9272461-3.1640625.9570313-6.5244141 2.3637695-9.7729492 4.1640625-5.6796951-7.8974609-11.3593826-15.262207-22.5083084-16.3515625-13.6015625-1.3286591-32.167778 4.0480652-42.9472656-11.6137733 10.8934174 2.7714005 21.603569 2.8863297 21.7207031 2.8955078l-16.8886719-9.7783203 21.8134765-15.2475586c-.6892395.09729-14.4217453.0195236-29.8613281 7.0712891l4.7158203-18.8251953c-.1501541.1537037-10.760437 6.2430954-13.0566406 19.7983398l-17.2529297-15.1352539c.1903076.7534542 1.5903282 10.074131 6.7226563 21.2758789l-27.4199219.140625 24.875 10.8735352c-11.1061516 5.542347-18.211462 13.039135-18.5986328 13.3637733l25.3251953-7.6870117 3.1914063 24.3310547c3.2838898-12.9925537 4.1244545-18.5051422 6.8183594-24.8955078 1.9236946.8024673 3.8514557 4.7436142 5.5742188 6.4111328 1.3900375 1.3463135 6.9265289 3.89505 7.4726563 5.1738281l.0009766.0004883.4589844-.1962891-2.0625-4.8374023c19.8419724 10.6125793 37.4213104-.553154 50.125 10.9067383 2.1142578 1.9072266 3.9052734 4.1010742 5.5908203 6.3896484-5.2851563 4.0981445-9.5683594 9.34375-11.0927734 15.4536133-1.1826172 4.7397461.1552734 8.2709961 2.8017578 10.6542969-35.1523514 41.0892944-27.6795273 104.263916 19.1469803 134.3549805 23.0862732 19.388092 56.5273743 25.9525146 85.152832 16.1967773 30.3867188-10.3554688 53.9296875-38.6542969 58.5849609-70.4179688 3.5076292-23.9363098-3.7202151-48.492691-17.9799807-66.8618164zm-148.4174881 95.359375c-22.7070313-32.5649414-19.8779297-77.0209961 5.9824219-106.9169922 3.1806641 1.6972656 7.2797928 2.328125 11.2011795 1.9365234 12.8994141-1.2900391 26.6254883-9.7612305 32.5888672-21.4267578.8769531-1.7158203-1.7104492-3.2353516-2.5908203-1.5136719-4.8378906 9.4643555-14.8896484 16.1958008-24.9760742 18.9418945-7.887207 2.1469727-22.1079178 1.2133789-18.2988358-10.5556641 1.6181641-4.9985352 5.2915039-9.293457 9.6762772-12.7226563 1.956543 2.7954102 3.8852539 5.6186523 6.1074219 8.1870117-.5517578.0400391-1.1220703.0292969-1.7099609-.0498047-1.9067383-.2558594-1.8881836 2.746582 0 3 1.3457031.1806641 2.6625977.0800781 3.894043-.2543945.2617188.0019531.5283203-.0717773.7807617-.2475586 1.3564453-.4931641 2.578125-1.2841797 3.5917969-2.2978516.2758789-.1694336.4570313-.3852539.5688477-.6201172 1.1113281-1.3208008 1.8969727-2.9438477 2.1918945-4.7724609.3041992-1.8886719-2.5859375-2.7016602-2.8930664-.7973633-.0761719.4726563-.1923828.9213867-.3378906 1.3481445-2.1860352-2.3803711-4.1235352-4.9648438-5.9975586-7.5595703 1.8847656-1.0341797 3.7875977-1.9291992 5.6289063-2.6542969 7.8012695-3.0742188 21.402832-5.5092773 23.0991211 5.6435547.019043.1235352.0493164.234375.0883789.3354492.072876 1.5138702 9.190506 13.4610519 10.152832 14.753418.168457.4453125.3076172.8862305.3930664 1.3164063-1.3601227 6.9759216-7.7368927 13.8244705-13.6513672 17.8745117-6.3554688 4.3515625-20.6274414 11.0454102-28.7021484 6.1079102-1.4381866-1.7661743-2.8491058-3.6943359-3.6196289-4.7866211-.2666092-.4433594-.8759842-1.5952148-1.2163162-1.8974609-.0014648-.0063477-.0029297-.0131836-.0043945-.0195313-.2133789-.9052734-.980957-1.824707-1.4609375-2.5839844-1.0288086-1.6274414-3.6259766-.1240234-2.590332 1.5141602.1770401.2803802.8971176 1.9548645 1.1713867 1.8398438.0947418.7454071.6404953 1.404541 1.1347656 2.1313477.7153473 2.7698059 2.494957 4.8437653 4.8110428 6.2133789 3.5262451 2.0703278 7.4382172 2.5569916 11.5527344 2.1201172 5.0200195.8271484 10.480957 1.0712891 15.2919922 1.2714844 8 .3334961 15.2963867-1.1826172 21.7036133-3.5986328 6.4067383-2.4165039 12.0239258-7.8193359 13.1054688-14.5810547 1.0498047-6.5615234-2.3447266-13.2563477-7.3696289-17.6044922-3.4692383-3.0014648-8.7202148-5.859375-13.0185547-7.3813477-.6098633-.2158203-2.2207031-1.1088867-3.6318359-1.5214844-.4199219-.6499023-.8305664-1.3037109-1.2294922-1.9633789.0083771-.1683121-.0089111-.245903-.0195313-.3486328 32.2826843-7.2343292 66.2799835 4.115799 87.2148438 29.8920898 19.9560547 24.590332 24.8203125 59.1884766 12.4848633 88.3530273-12.0717773 28.5405273-39.387207 49.0830078-70.2363281 52.4580078-31.3471684 3.4291994-62.7968754-10.6547849-80.8618245-36.5624998z"/><path d="m144.7771301 199.9197998c9.3378906-3.8803711 10.2353516-25.1762695-2.1347656-23.652832-.449707-.7661133-1.5322266-1.1982422-2.3549805-.3896484-10.3206787 10.143341-4.355484 27.7184448 4.4897461 24.0424804zm-3.1201172-21.1015625c.3261719.3032227.7763672.4833984 1.3212891.3930664 5.9526367-.9848633 6.4829102 7.125 5.5170898 10.7939453-.8994141 3.4174805-4.5068359 10.0073242-8.8017578 5.6166992-4.2207031-4.3144531-1.5190429-12.6625976 1.9633789-16.8037109z"/><path d="m162.2917786 181.3026123c.3173828-.1230469.6342773-.246582.9516602-.3696289.7548828-.293457 1.2783203-1.0073242 1.0478516-1.8452148-.1982422-.7207031-1.0859375-1.3427734-1.8452148-1.0478516-.3173828.1235352-.6347656.246582-.9516602.3701172-.7548828.2929688-1.2783203 1.0068359-1.0478516 1.8452148.1982421.7202149 1.0859374 1.3422852 1.8452148 1.0473633z"/><path d="m161.2585754 193.5599365c1.9301758 0 1.9335938-3 0-3-1.930664 0-1.9335937 3 0 3z"/><path d="m178.3269348 197.6087646c.3662109-6.7841797.7324219-13.5678711 1.0986328-20.3520508.1044922-1.9291992-2.8959961-1.9233398-3 0-.3662109 6.7841797-.7324219 13.5678711-1.0986328 20.3520508-.1040039 1.9291993 2.8959961 1.9238282 3 0z"/><path d="m192.9065247 196.8685303c.4731445-6.4160156.9458008-12.831543 1.4189453-19.2470703.1416016-1.9262695-2.8588867-1.9169922-3 0-.4731445 6.4155273-.9458008 12.8310547-1.4189453 19.2470703-.1416016 1.9257812 2.8588867 1.9169922 3 0z"/><path d="m205.0422668 183.2054443c1.9301758 0 1.9335938-3 0-3-1.930664 0-1.9335937 3 0 3z"/><path d="m205.6765442 192.4090576c-.784668 0-1.5361328.6899414-1.5 1.5.0366211.8129883.6591797 1.5 1.5 1.5h.3173828c.784668 0 1.5366211-.6899414 1.5-1.5-.0361328-.8125-.6591797-1.5-1.5-1.5-.1054687 0-.2114258 0-.3173828 0z"/><path d="m216.5783997 179.6160889c2.1015625-1.0302734 4.9467773-2.0146484 6.3916016.4077148 2.6517487 4.4454803-4.158905 11.0003967-8.1899414 14.2583008-1.2290039.9936523.1166992 2.8422852 1.4594727 2.5068359 4.7763672-1.1914063 9.5839844-1.8813477 14.503418-2.0634766 1.9243164-.0712891 1.9335938-3.0717773 0-3-3.2841797.121582-6.5258789.4814453-9.7426758 1.0297852 3.2563477-3.2734375 6.0561523-7.3540039 5.4223633-11.824707-.8828125-6.2270508-6.8168945-6.1318359-11.3579102-3.9047852-1.7333986.8500977-.2148439 3.4379883 1.5136718 2.5903321z"/><path d="m247.3591614 210.5457764c2.4750977-.050293 4.6245117-2.4931641 3.6899414-4.7856445-5.5102539-13.5214844-1.5263672-24.7753906-1.0102539-34.0214844-1.2192383-1.4345703-1.1210938-1.8574219-2.230957-3.0258789.3046875-.8056641.1152344-1.9033203-.9116211-2.0429688-4.0869141-.5546875-8.534668-.0688477-12.6611328-.0546875-117.137619.4093018-109.9949951.1011658-110.6269608.8828125-.284668.1020508-.5473633.3007813-.746582.6289063-7.0283203 11.5834961-5.6728516 27.1777344-.1850586 39.0717773.2099609.4550781.8110352.7592773 1.2954102.7431641.5239258-.0175781 1.0483398-.027832 1.5727539-.0444336l5.4941483 4.3413086c38.6567382-.8139649 77.6889647-.9067383 116.3203124-1.6928711zm-126.2055741-24.3320313c.0566406-5.6884766 1.2167969-11.2944336 4.1044922-16.2211914 4.781044-.0165253 102.654274-.3557434 104.9946365-.3637695 4.3842773-.0151367 9.1899414-.5527344 13.659668-.2724609-2.6938477 4.8925781-3.2119141 11.3369141-3.5024414 16.6420898-.2573242 4.703125-.597168 11.9414063 1.7553711 16.8232422-37.180481 1.1471405-74.2602692.8718872-110.2797852 1.8769531-1.621582.0454102-4.2319412.4960938-5.8178787.1743164-2.2675781-.4604492-1.5488281.3935547-2.0551758-2.1342773-1.1284179-5.6372071-2.9179687-10.6274414-2.8588867-16.5249024z"/></g></g></svg>