<svg id="Layer_1" enable-background="new 0 0 300 300" height="512" viewBox="0 0 300 300" width="512" xmlns="http://www.w3.org/2000/svg"><g id="Log_Out"><g><path d="m85.960083 230.8791504c-1.9301758 0-1.9335938 3 0 3 1.9306641 0 1.9335938-3 0-3z"/><path d="m117.2305908 239.2590332c1.9306641 0 1.9335938-3 0-3-1.9301758 0-1.9335937 3 0 3z"/><path d="m122.2745361 260.4421387c1.9301758 0 1.9335938-3 0-3-1.930664 0-1.9335937 3 0 3z"/><path d="m76.8814697 255.3986816c1.9306641 0 1.9335938-3 0-3-1.9301758 0-1.9331054 3 0 3z"/><path d="m155.8985596 255.0622559c.784668 0 1.5361328-.6894531 1.5-1.5-.0361328-.8125-.6591797-1.5-1.5-1.5-.1123047 0-.2241211 0-.3364258 0-.784668 0-1.5361328.6904297-1.5 1.5.0366211.8129883.6591797 1.5 1.5 1.5z"/><path d="m140.4312744 240.2678223c1.9306641 0 1.9335938-3 0-3-1.9301758 0-1.9335937 3 0 3z"/><path d="m179.4356689 260.4421387c1.9301758 0 1.9335938-3 0-3-1.930664 0-1.9335937 3 0 3z"/><path d="m209.6973877 258.4250488c1.9301758 0 1.9335938-3 0-3-1.9306641 0-1.9335938 3 0 3z"/><path d="m192.6773682 245.666748c1.9306641 0 1.9335938-3 0-3-1.9301758 0-1.9331055 3 0 3z"/><path d="m246.6837158 241.2766113c1.9306641 0 1.9335938-3 0-3-1.9301758 0-1.9335937 3 0 3z"/><path d="m254.4176025 265.486084c1.9301758 0 1.9335938-3 0-3-1.930664 0-1.9335937 3 0 3z"/><path d="m196.2476807 275.9094238c1.9301758 0 1.9335938-3 0-3-1.9301758 0-1.9335938 3 0 3z"/><path d="m225.8370361 244.638916c1.9301758 0 1.9335938-3 0-3-1.930664 0-1.9335937 3 0 3z"/><path d="m232.8980713 263.4685059c1.9301758 0 1.9335938-3 0-3-1.9301758 0-1.9335938 3 0 3z"/><path d="m268.5396729 245.6477051c1.9301758 0 1.9335938-3 0-3-1.9301758 0-1.9335938 3 0 3z"/><path d="m274.2559814 262.1237793c1.9301758 0 1.9335938-3 0-3-1.930664 0-1.9335937 3 0 3z"/><path d="m153.2086182 268.2019043c-1.9301758 0-1.9335938 3 0 3 1.9301757 0 1.9335937-3 0-3z"/><path d="m101.7637939 247.6652832c1.9301758 0 1.9335938-3 0-3-1.930664 0-1.9335937 3 0 3z"/><g><path d="m157.0797119 164.0476074c1.9301758 0 1.9335938-3 0-3-1.9301758 0-1.9335937 3 0 3z"/><path d="m164.8057861 180.5632324c1.9306641 0 1.9335938-3 0-3-1.9301757 0-1.9335937 3 0 3z"/><path d="m161.3424072 196.8601074c.5615234.5839844 1.5561523.5654297 2.1210938 0 .5834961-.5834961.5634766-1.5356445 0-2.1210938-.0454102-.0473633-.090332-.0942383-.1357422-.1416016-.5620117-.5834961-1.5566406-.5649414-2.121582 0-.5834961.5839844-.5634766 1.5361328 0 2.121582.0454101.0468751.0908203.0942384.1362304.1411134z"/><path d="m33.0938759 85.607666c3.6376953-1.2158203 6.8359375-2.9458008 10.1694336-4.6518555.0498047 1.8325195.1000977 3.6650391.1499023 5.4980469.0351563 1.2880859 1.6210938 1.9926758 2.5605469 1.0605469.9013672-.8945313 1.5454102-1.9770508 2.2192383-3.0478516.4956055-.7880859 3.0991211-3.9335938 2.0683594-4.4052734 1.3823242.4765625 4.0664063 3.7026367 5.0263672 4.5317383 1.0439453.9018555 2.5380859.1796875 2.5283203-1.1069336 5.0229492 2.7509766 10.0415001 5.5107422 15.1113243 8.1748047 6.09375 3.2021484 12.4936523 5.6982422 17.7490234 10.2719727 14.7202148 12.8100586 14.762207 30.4492188 11.015625 48.2060547-3.2143555 15.2333984-7.6772461 30.6748047-3.5253906 46.2001953 1.8115234 6.7753906 5.1582031 12.9672852 9.7563477 18.0473633 14.8080063 17.234375 38.1067047 22.6634216 58.2016602 15.4511719 28.2866211 14.3266602 68.5449219 12.9990234 91.5991211-1.9794922 6.5048828-3.5551758 11.6308594-8.8945313 13.3320313-16.8330078.0727539-.340332.0356445-.6435547-.0727539-.9042969 3.8349609-5.0629883 6.0893555-11.3066406 5.6782227-17.6958008-.0229492-.359375-.1474609-.6523438-.3334961-.8774414 5.2685547-15.6040192 3.6429749-44.1994781-8.7949219-65.7949219-4.2724609-7.4189453-8.0478516-15.7866211-17.2827148-17.3261719-.0600586-.0629883-.1220703-.1259766-.1962891-.1826172-11.1040039-8.4580078-23.9399414-15.2587891-38.0112305-16.703125-42.0365753-4.3152008-73.0769958 26.9949646-72.5053711 66.2773438.2084961 14.3183594 3.7915039 28.3525391 8.2041016 41.9433594-7.1196289 1.8442383-16.246582-.2583008-20.4438477-6.5732422-4.3505859-6.5449219-3.5942383-15.7763672-2.777832-23.2402344 1.786377-16.3413391 8.0906219-26.1439819 6.3227539-49.8950195-2.4615479-33.0772629-33.1906433-39.4403915-50.2895508-55.1865234-.6923828-5.2783203 4.2856445-9.3393555 5.2504883-14.5273438.2075195-1.1162109-1.0561523-2.5727539-2.2036133-1.6938477-2.3125 1.7719727-4.9121094 4.0922852-7.5444336 5.7646484-.6181641-3.6748047-.3266602-7.2929688.1386719-11.043457.2055664-1.6538086-2.0322266-1.7880859-2.7949219-.7573242-1.4765625 1.9946289-2.9458008 3.9951172-4.4296875 5.9838867-1.5297852 2.050293-3.0878906 5.9375-5.673336 2.0639648-1.359375-2.0371094-.9375-4.3793945-2.9042969-6.3198242-.9160156-.9038086-2.5722656-.25-2.5605469 1.0610352.0136719 1.53125-.6948242 9.5415039-3.0561523 9.0986328-1.7470703-.328125-3.6918945-3.875-5.6040039-4.7382813-.7744141-.3491211-1.5625-.1953125-2.0522461.5380859-3.1180916 4.6686363 4.2181969 9.6155434-1.1679688 10.8286133-3.2705078.7368164-7.1831055-1.3959961-10.3442383.4897461-.6025391.359375-.824707 1.0322266-.6894531 1.6938477.2739258 1.3378906 2.1328125 2.8139648 2.9750977 3.7426758.6030273.6640625 1.2084961 1.2612305 1.8549805 1.7807617-1.3066406.3974609-2.6137695.7949219-3.9204102 1.1923828-.996582.3027344-1.3022461 1.3164063-.8964844 2.203125.671875 1.4682617.9868164 2.5498047 1.7294922 3.4438477-2.3574219 1.9829102-3.7529297 5.1547852-5.2602539 7.7324219-.6333009 1.083496.4257811 2.6274413 1.6943358 2.2036132zm23.9995117-5.9355469c-1.280365-8.4706268 5.6681747-2.8468246 8.4916954-2.2739258.9389648.190918 1.9052734-.4179688 1.8989258-1.4462891-.015625-2.4936523-.3129883-5.1796875-.0478516-7.6572266.2924805-2.7407227-.0493164-1.6293945 2.3452148-.9824219 3.2119141.8681641 6.6005859.7275391 9.7089844 2.0170898.5473633.2275391.9926758.0771484 1.3085938-.2412109 1.9892578 1.6591797 4.0717773 3.1972656 6.2099609 4.6635742-9.2290039-.105957-18 2.7929688-25.4731407 8.3525391-1.4799805-.8120116-2.9614258-1.6220702-4.4423828-2.4321288zm5.8745117 3.2163086c7.7216759-5.5888672 16.9101524-8.1738281 26.4252892-7.5405273 5.5478516 3.6254883 11.3608398 6.9179688 16.8212891 10.7045898-8.9023438-1.1474609-17.8652344 1.0180664-25.4086914 6.2666016-4.0602036-2.0522156-6.4448548-3.1861038-17.8378869-9.4306641zm40.4052696 73.3872071c12.1803207.4060059 18.2538681 7.7552643 18.9594727 7.9257813-.8066406 4.2070313-1.394043 8.4272461-1.4858398 12.6606445-6.6762695-2.9838867-13.7890625-3.737793-20.9907227-2.2163086.7133789-6.1655274 2.1274414-12.2661133 3.5170898-18.3701172zm-3.6679687 19.9331054c7.2539063-1.6464844 14.4326172-.8681641 21.1323242 2.2983398.0396042 3.9543915.5713043 8.9107819 2.1381836 12.5678711-7.6728516-.2949219-14.9755859 1.7026367-21.4619141 5.8569336-2.1567535-6.9248809-2.4925308-13.5618438-1.8085937-20.7231445zm57.1396484-16.9360351c8.9201508 7.7019806 10.3989105 18.4741211 9.5507813 30.0922852-.3291016 4.4995117-1.0834961 10.8564453-7.4628906 6.7021484-2.5063477-1.6318359-4.5219727-3.5917969-6.0805664-5.7631836 4.0508423-.1987762 6.908432-3.9262848 6.4550781-8.7246094-.4575195-4.8369141-4.0244141-11.7871094-9.3212891-11.4628906 1.2827149-3.9995117 3.5932617-7.7675781 6.8588867-10.84375zm6.8847657 41.493164c-.0708008 1.8623047.0063477 3.7148438.2695313 5.6079102.0708008.5087891.331543.8183594.6669922.9707031.1098633.1572266.2558594.3027344.4492188.4248047 3.9052734 2.472168 7.9624023 4.5966797 12.1328125 6.425293-2.0122681 12.6737061-1.8926544 11.8150482-1.8813477 12.0717773-2.9916992-.7705078-5.9335938-1.6386719-8.7036133-2.6176758.1166992-.2700195.1484375-.5698242.1098633-.8598633 6.2023926-.2443542 7.2216949-10.4097595-.4858398-13.215332-.4511719-.1640625-.8383789-.1083984-1.1381836.0776367-2.4907227-.0249023-4.7182617 1.6210938-5.4770508 4.0751953-3.2823639-2.1419983-5.3161926-4.7683105-6.8447266-8.2075195-2.515625-7.3388672-4.8603516-14.9916992-6.6362305-22.7460938 2.9118804 11.9302979 12.4976043 18.6174317 17.5385742 17.9931641zm-14.1796875 4.425293c.5808716 1.7042847.5884399 1.8520508.8662109 2.1645508 2.2399597 4.8025665 6.117157 8.3925781 9.1767578 9.7983398.5209961 2.0771484 2.0283203 3.862793 3.9731445 4.8623047-.2080078.0673828-.4169922.1347656-.6254883.2026367-9.5205078-3.9829101-15.9711913-9.5039062-13.3906249-17.027832zm38.0932617 23.703125c-3.0649414-.5419922-6.253418-1.1811523-9.4291992-1.9277344.0717468-.2179413-.0997314.7963715 1.8662109-11.5927734 3.2587891 1.3081055 6.5800781 2.4443359 9.9521484 3.4174805-2.5708007 10.4367828-2.4322052 9.6970367-2.3891601 10.1030273zm-28.6650391-5.4267578c-7.3317566 2.2163849-13.5210876 3.443222-20.6992188 2.6240234-.0844727-8.1020508 2.8129883-15.496582 8.3359375-21.3222656-2.1621093 8.2788086 4.9628907 15.1855469 12.3632813 18.6982422zm31.5102539 5.9091797c.0980072-.2402802.6539917-2.5533142 2.4375-9.7905273 13.034668 3.3886719 26.7226563 4.519043 40.2016602 4.3208008 11.9656525-.1761017 24.4740295-1.3066559 33.4746094-9.1020508-9.8660584 20.8573455-53.3004609 18.2741546-76.1137696 14.5717773zm68.2026367-12.9731445c-9.8823242 4.7119141-21.5395508 4.6972656-32.2617188 4.4887695-20.8056641-.4042969-41.7446289-4.3730469-59.5639648-15.5712891-.2675781-2.0742188-.2792969-4.1845703-.050293-6.2641602 2.9594727-3.4858398 2.7998047-11.2783203 2.7944336-15.043457-.0112305-7.4033203-1.4794922-14.6469727-5.2832031-20.6508789 3.8227539-4.1572266 7.8974609-8.0200195 12.1967773-11.6064453-1.9282227 3.0395508-3.390625 6.3959961-4.2084961 10.1381836-.0820313.1416016-.1484375.3046875-.1806641.503418-3.5029297 21.4233398 9.6132813 39.9360352 29.1733398 47.668457 11.7768555 4.65625 24.7929688 5.3647461 37.3037109 4.4370117 13.8314972-1.0256042 27.4467468-4.3383789 34.6206055-16.215332-1.6210936 7.8168945-7.3134764 14.6699219-14.5405272 18.1157227zm2.7397461-53.6826172c.9169922-9.9853516-1.5200195-19.425293-7.1743164-27.7104492-1.0917969-1.6005859 1.5087891-3.0996094 2.590332-1.5141602 5.9121094 8.6635742 8.5429688 18.7788086 7.5839844 29.2246094-.1757812 1.9101562-3.1767578 1.921875-3 0zm.5351563 10.7338867c-1.9335938 0-1.9301758-3 0-3 1.9335937 0 1.930664 3 0 3zm-1.6552735-54.1899414c-9.3295898-5.3334961-21.9370117-1.5336914-31.5151367 1.1762695-14.6173553 4.1357422-28.3821869 10.7845154-38.6669922 17.890625-10.2026367 6.2250977-19.4379883 13.7626953-27.5751953 22.5419922-.8227539-1.0307617-1.7265625-2.015625-2.7211914-2.9458008 3.504364-3.6044769 33.2980499-44.5954056 82.8876953-46.7651367 10.0782166-.4414215 13.5248719 1.8861237 17.5908203 8.1020508zm-100.8471679-6.4360352c10.9042969-11.4853516 25.6704102-17.6914063 41.3916016-18.5258789 16.1972656-.8598633 30.6420898 4.6347656 43.6552734 13.621582-23.1419373-.5350342-58.7089996 13.1060333-86.6967773 47.7783203-.0976563.1206055-.1660156.246582-.222168.3740234-.527832-.3149414-1.2250977-.3657227-1.8173828.1347656-7.3548431 6.2195892-11.7704163 16.1728668-9.7626953 25.78125-5.4458008-24.3349608-5.1303712-49.5903319 13.4521484-69.1640624zm-13.4038086 90.3691406c-6.0664063 6.1152344-9.3251953 14.0830078-9.2792969 22.7133789-6.8948822-1.0358734-14.7192154-3.9589081-20.4433594-8.0478516 4.0087891-7.0512695 9.8959961-12.5615234 17.2275391-16.0854492.0625-.0297852.0991211-.0727539.1455078-.1108398 3.7890625 1.6313477 8.0834961 2.2055664 12.3496094 1.5307617zm-13.9936524-2.3227539c-7.1455078 3.6137695-12.9506836 9.1352539-16.9331055 16.0786133-6.1508789-4.7763672-10.5673828-11.2480469-13.1254883-18.5556641 6.5629883-4.2753906 13.8930664-6.2270508 21.7089844-5.7807617 1.9208985 3.584961 4.862793 6.394043 8.3496094 8.2578125zm-9.4165039-38.2768554c-5.2910156-4.8125-11.8061523-7.5009766-18.9404297-7.809082 1.3916321-6.1517487 2.842041-12.934082 3.2094727-19.265625 8.0620117 2.1640625 14.637207 7.4926758 18.4472656 14.9780273-.9038086 4.0219726-1.8930664 8.0537109-2.7163086 12.0966797zm3.2080078-14.3354492c-4.1289063-7.1391602-10.8520508-12.2231445-18.8798828-14.2709961.1542969-4.9326172-.3378906-9.7055664-1.5776367-14.2182617 8.8740234-.2495117 16.9985352 3.2939453 22.8657227 9.9438477-.2952881 7.5111693-1.1894455 12.8695067-2.4082032 18.5454101zm2.4711915-20.6933594c-6.1323242-6.3393555-14.4711914-9.6689453-23.3842773-9.2885742-1.5522461-4.9248047-4.0068359-9.5229492-7.46875-13.6660156 9.9174805-2.4511719 20.0639648-.7460938 28.6708984 4.7998047 1.78936 5.6822356 2.2801666 12.1974715 2.1821289 18.1547851zm-2.9956055-20.4145508c-8.7978516-5.105957-19.0581055-6.4614258-28.9677734-3.8046875-3.4078369-3.7592697-6.6729584-6.4487915-14.0371094-10.2509766 7.980957-5.2607422 17.418457-7.0327148 26.6762695-5.03125 6.6011734 4.9465866 13.1728973 11.3935776 16.3286133 19.0869141z"/><path d="m46.5172157 108.6174316c.6054688-5.1376953.7026367-10.2612305.2919922-15.4174805-.0761719-.9560547-1.5766602-.9638672-1.5 0 .4106445 5.1567383.3134766 10.2802734-.2919922 15.4174805-.1127929.956543 1.3881836.9487305 1.5 0z"/><path d="m32.111454 102.7800293c1.9516602-2.6293945 3.9033203-5.2587891 5.8549805-7.8876953.5756836-.7758789-.7255859-1.5244141-1.2954102-.7573242-1.9516602 2.6293945-3.9033203 5.2583008-5.8549805 7.8876953-.5756835.7758789.725586 1.524414 1.2954102.7573242z"/><path d="m28.9000282 88.6086426c-2.8764648 1.1166992-5.4750977 2.671875-7.8120117 4.6870117-.7324219.6318359.3325195 1.6884766 1.0605469 1.0605469 2.1337891-1.8398438 4.5229492-3.28125 7.1503906-4.3012695.8901367-.3457032.5029297-1.7963868-.3989258-1.4462891z"/><path d="m89.1217041 50.8254395c4.8510742-2.1791992 9.3959961-4.8735352 13.6367188-8.0830078.7602539-.5751953.0131836-1.878418-.7573242-1.2949219-4.2402344 3.2094727-8.7856445 5.9033203-13.6367188 8.0830078-.8789063.3950195-.1171875 1.6879883.7573242 1.2949219z"/><path d="m84.9718018 42.0065918c1.828125-2.6166992 3.6557617-5.2333984 5.4838867-7.8505859.5541992-.7929688-.7456055-1.543457-1.2949219-.7568359-1.828125 2.6166992-3.65625 5.2333984-5.484375 7.8505859-.5541992.7929687.7456055 1.543457 1.2954102.7568359z"/><path d="m74.4234619 37.9069824c-.1313477-1.918457-.2626953-3.8369141-.394043-5.7553711-.0654297-.9580078-1.565918-.965332-1.5 0 .1313477 1.918457.2626953 3.8369141.394043 5.7553711.0654297.9575196 1.565918.9648438 1.5 0z"/><path d="m130.0079346 49.6184082c1.9301758 0 1.9335938-3 0-3-1.9301758 0-1.9335938 3 0 3z"/><path d="m133.3702393 76.5178223c1.9306641 0 1.9335938-3 0-3-1.9301758 0-1.9335938 3 0 3z"/><path d="m175.0645752 68.1120605c1.9301758 0 1.9335938-3 0-3-1.9306641 0-1.9335938 3 0 3z"/><path d="m147.4923096 112.8322754c1.9306641 0 1.9335938-3 0-3-1.9301758 0-1.9335938 3 0 3z"/><path d="m152.1998291 47.9372559c1.9301758 0 1.9335938-3 0-3-1.9301758 0-1.9335937 3 0 3z"/><path d="m226.8458252 51.6359863c1.9301758 0 1.9335938-3 0-3-1.9306641 0-1.9335938 3 0 3z"/><path d="m157.9161377 95.3474121c1.9301758 0 1.9335938-3 0-3-1.9306641 0-1.9335938 3 0 3z"/><path d="m185.8243408 39.8674316c1.9301758 0 1.9335938-3 0-3-1.930664 0-1.9335937 3 0 3z"/><path d="m221.1295166 84.5876465c1.9301758 0 1.9335938-3 0-3-1.9301758 0-1.9335937 3 0 3z"/><path d="m256.0987549 76.1818848c1.9301758 0 1.9335938-3 0-3-1.9306641 0-1.9335938 3 0 3z"/><path d="m61.7506142 114.5393066c-1.9301758 0-1.9335938 3 0 3 1.930664 0 1.9335937-3 0-3z"/><path d="m78.5626221 107.8146973c-1.9301758 0-1.9331055 3 0 3 1.930664 0 1.9335937-3 0-3z"/><path d="m93.0211182 135.0241699c1.9306641 0 1.9335938-3 0-3-1.9301758 0-1.9335938 3 0 3z"/><path d="m70.8292236 160.5783691c1.9306641 0 1.9335938-3 0-3-1.9301757 0-1.9335937 3 0 3z"/><path d="m39.5587196 144.8015137c-1.9301758 0-1.9335938 3 0 3 1.9306641 0 1.9335938-3 0-3z"/><path d="m61.7506142 138.7487793c-1.9301758 0-1.9335938 3 0 3 1.930664 0 1.9335937-3 0-3z"/><path d="m57.7159462 95.3737793c-1.9306641 0-1.9335938 3 0 3 1.9301758 0 1.9335937-3 0-3z"/><path d="m35.5240517 118.9104004c-1.9306641 0-1.9335938 3 0 3 1.9301757 0 1.9331054-3 0-3z"/><path d="m41.239872 165.6218262c1.9306641 0 1.9335938-3 0-3-1.9301758 0-1.9335938 3 0 3z"/><path d="m54.689579 194.2287598c-1.9301758 0-1.9335938 3 0 3 1.9306641 0 1.9335938-3 0-3z"/><path d="m81.2530518 192.1853027c1.9301758 0 1.9331055-3 0-3-1.9306641 0-1.9335938 3 0 3z"/><path d="m88.3140869 151.8620605c-1.9306641 0-1.9335938 3 0 3 1.9301758 0 1.9331055-3 0-3z"/><path d="m31.8253212 187.4777832c1.9301758 0 1.9335938-3 0-3-1.9306641 0-1.9335938 3 0 3z"/><path d="m59.3970985 174.364502c1.9301758 0 1.9335938-3 0-3-1.9301757 0-1.9335937 3 0 3z"/><path d="m53.3448524 227.5168457c-1.9306641 0-1.9335938 3 0 3 1.9301758 0 1.9335938-3 0-3z"/><path d="m33.8428993 218.0759277c1.9301758 0 1.9331055-3 0-3-1.930664 0-1.9335937 3 0 3z"/><path d="m89.3223877 211.3508301c1.9306641 0 1.9335938-3 0-3-1.9301758 0-1.9335938 3 0 3z"/><path d="m67.8028564 214.3771973c1.9306641 0 1.9335938-3 0-3-1.9301757 0-1.9331054 3 0 3z"/><path d="m275.2647705 220.4558105c-1.9306641 0-1.9335938 3 0 3 1.9301758 0 1.9331055-3 0-3z"/><path d="m104.1173096 62.4221191c-1.9306641 0-1.9335938 3 0 3 1.9301758 0 1.9335937-3 0-3z"/><path d="m103.7808838 31.4616699c1.9306641 0 1.9335938-3 0-3-1.9301758 0-1.9335938 3 0 3z"/><path d="m138.7501221 27.7629395c1.9306641 0 1.9335938-3 0-3-1.9301758 0-1.9335938 3 0 3z"/><path d="m196.5841064 79.880127c1.9301758 0 1.9331055-3 0-3-1.930664 0-1.9335937 3 0 3z"/><path d="m205.9986572 57.6882324c1.9301758 0 1.9335938-3 0-3-1.9301758 0-1.9335937 3 0 3z"/><path d="m213.3961182 27.0905762c1.9301758 0 1.9335938-3 0-3-1.9306641 0-1.9335938 3 0 3z"/><path d="m241.0177002 87.0378418c-.1123047.2246094-.2241211.4487305-.3364258.6728516-.3618164.7241211-.1928711 1.6245117.5380859 2.0522461.6650391.3886719 1.6884766.1889648 2.0522461-.5380859.1123047-.2241211.2241211-.4487305.3364258-.6728516.3623047-.7241211.1928711-1.6245117-.5380859-2.0522461-.6650391-.3886719-1.6884766-.1889649-2.0522461.5380859z"/><path d="m252.0635986 37.513916c1.9306641 0 1.9335938-3 0-3-1.9301757 0-1.9335937 3 0 3z"/><path d="m270.8931885 103.7536621c1.9306641 0 1.9335938-3 0-3-1.9301758 0-1.9331055 3 0 3z"/><path d="m241.303833 62.7321777c1.9306641 0 1.9335938-3 0-3-1.9301758 0-1.9335937 3 0 3z"/><path d="m265.8497314 61.0505371c.8125-.0361328 1.5-.6586914 1.5-1.5 0-.1118164 0-.2241211 0-.3359375 0-.784668-.6899414-1.5361328-1.5-1.5-.8125.0361328-1.5.6591797-1.5 1.5v.3359375c0 .784668.6899415 1.5366211 1.5 1.5z"/><path d="m277.2818604 122.2468262c1.9306641 0 1.9335938-3 0-3-1.9301758 0-1.9335938 3 0 3z"/></g></g></g></svg>