<svg id="Layer_1" enable-background="new 0 0 300 300" height="512" viewBox="0 0 300 300" width="512" xmlns="http://www.w3.org/2000/svg"><g id="login"><g><path d="m244.0762177 146.5236511c1.0454102-.578125.7714844-2.6733398-.8034668-2.8603516-.7668457-.0913086-1.595459-.0268555-2.4309082.1499023-10.0625-11.5493164-21.2324219-22.0595779-32.2680664-32.6635818.8649902-1.0336914.0803223-3.0039063-1.449707-2.4326172-1.0209961.3808594-2.1025391.8706055-3.1347656 1.4716797-.0808563-.1000214-43.1928558-41.2693176-43.8000488-41.4824219-14.7287598-13.2529259-31.1867676-24.3862267-49.0756836-32.9350548-7.4769211-3.5889206-15.4342346.4574928-19.4960938 7.684082-5.2351074 9.3144531-4.6171875 21.8178673-4.8796387 32.161129-.3847656 15.1748047 1.9599609 29.7211914 4.9550781 44.3496094-5.8984375 1.5004883-11.6298828 5.8154297-11.7089844 12.3271561-.0820313 6.7568359 5.5734863 11.0839844 11.8413086 10.6347656-.315918 2.3618164-.4851074 4.7358398-.4724121 7.1337891.0070801 1.3037109 1.8183594 1.4248047 2.175293.3779297.269043-.0107422.5085449-.0224609.6320801-.0380859l-.0957031-.7441406c-.0932617.012207-.2612305.0209961-.4543457.0288086.0061035-3.2412109.309082-6.4345703.9494629-9.6176758.2841797-1.4140625-1.8840332-2.0185547-2.1696777-.5981445-.0778809.3876953-.1352539.7763672-.2045898 1.1645508-7.112793.9926758-12.4382324-6.2265625-8.7253418-12.574707 1.8535156-3.1694412 5.1564941-5.0317459 8.6877441-5.8916092.1369629.6557617.2756348 1.3120117.4143066 1.9682617-3.873291.8310547-7.793457 2.7919922-8.265625 6.7182693-.5830078 4.8491211 3.9152832 7.3012695 7.5756836 4.0634766 5.3272781-2.7170868 8.9871902.8641052 12.1450195-.0717773 1.7705078-.5253906 3.5830078-2.5097656 3.8867188-4.3486328.6203613-3.759285-3.6708984-5.740242-7.3710938-6.5000076.2624512-.6298828.4711914-1.3071289.6010742-2.0039063 4.1630859.8188477 8.3273926 3.0166016 8.4560547 7.7607498.1582031 5.8364258-5.4140625 8.8876953-10.2490234 10.4033203-.1276855-.2949219-.2536621-.5898438-.394043-.8818359-.6274414-1.3046875-2.5683594-.1645508-1.9428711 1.1357422 1.3972168 2.9042969 2.0336914 5.9760742 1.9855957 9.1875-.3186035-.0947266-.6589355-.0566406-.9333496.09375-.5895996.0283203-1.0961914.0517578-1.2211914.0517578v.75c.0908203 0 .3813477-.0117188.7556152-.0288086-.0551147.9242249 1.4918213 18.4437561 2.8608398 48.265625-1.3481445.4399414-2.8034668.6103516-4.1931152.3383789-.1315918-1.355957-.251709-2.7124023-.3833008-4.0683594-.0864563-.9038849-1.1183929-1.2891998-1.7832031-.9238281-2.9672852.2314453-5.9296875.5166016-8.9016113.6762695-.0588379-.8481445-.1257324-1.6962891-.1867676-2.5444336 1.8996582-.1137695 3.7971191-.2636719 5.697998-.3579102.5544434-.0273438.8920898-.378418 1.0209961-.7949219.3502197-.5748596.0596924-1.279068-.0534668-3.1181641.189209-.6494141-.1479492-1.4814453-1.0283203-1.4916992-1.9720383 0-3.6873627.0640564-5.8430176.2714844-.0715332-.9169922-.1484375-1.8354492-.270752-2.746582 2.7177734-.1674805 5.4370117-.2167969 8.1591797-.3173828 1.4436035-.0532227 1.4506836-2.3032227 0-2.25-3.0900879.1142578-6.1762695.1542969-9.2607422.3862305-.6833496-.0541992-1.4741211.5126953-1.293457 1.4033203.3442764 1.6975098.4088669 4.1730194.5610352 4.6235352-.1188965.6435547.2116699 1.3364258 1.0332031 1.2407227 1.9155273-.222168 3.8347168-.3183594 5.7595215-.3374023.0354004.3168945.0720215.6337891.1020508.9506836-.1004257.006073-5.5479813.3564911-5.7124023.378418-.626709-.0908203-1.2844238.2436523-1.2033691 1.0449219.1484375 1.4682617.1972656 2.9443359.3237305 4.4145508-.2751465.6757813.043457 1.5981445.9814453 1.5610352 3.5651627-.162796 6.4911346-.4540558 9.7753906-.715332.3233261 3.5063934.2636871 3.6332855.5454102 4.03125.0976563.3095703.3286133.5791016.7297363.7001953 2.1977539.6621094 4.7180176.3994141 6.8200684-.4775391.2436523-.1015625.4213867-.2592773.5424805-.4443359.6230469-.4350586 1.2373047-1.034668 2.189209-1.8808594-.5146484-17.9853516-1.9169922-37.2412109-2.4316406-55.2265625 3.5-1.1503906 5.625-2.0449219 8.125-5.7519531 1.3581543-2.0136719 1.8059082-4.3461914 1.5830078-6.6987305.2693863-4.9377823-2.7582169-9.465126-10.5800781-10.8754959-.1601563-2.4770508-1.4675293-4.612793-4.5939941-4.6123047-.9650879 0-.9667969 1.5 0 1.5 2.2651367-.0004883 3.1218262 1.2734375 3.2133789 2.9052734-2.5271683-.3013-5.0672607-.2473373-7.5439453.293457-4.7868347-22.3757858-6.0868607-34.9391785-4.0183105-60.4150352.873291-10.7583008 7.3920898-29.4799805 21.7355957-23.2573242-.1669922.3183594-.1313477.7202148.2880859.9208984 1.232666.5888672 2.4570313 1.1928711 3.6762695 1.8061523 42.414032 33.5626183 76.09552 75.0724945 111.9645996 115.8129883-2.4520111.4704895-4.5252838 1.77388-5.5776367 3.0175781-7.3495026 3.1269836-12.1465607 13.0628967-8.3464355 25.7929688-1.762207 1.3364258-3.5249023 2.6728516-5.2685547 4.0332031-1.5664063 1.2226563-2.6635742 1.7978516-2.7453613 3.9169922-.1355591 3.5174866 2.1019592 5.2133636 4.0786133 5.1362305 1.4152832.7514648 4.4587402-.5932617 6.8327637-1.8935547 1.2937012 1.2080078 3.4672852 2.668457 4.34375 3.1665039 9.0985413 5.1688995 18.3990326 5.3272095 24.875-2.5566406 2.2614441-2.7536316 3.6338959-4.9449615 5.1079102-11.6181641 1.706543 3.7519531 5.2753906 10.7275391 7.7256012 12.7324219 7.3218994 5.9912109 20.2420654.516037 20.3867188-7.8046875 2.8131714-3.7830811 2.4372864-7.5545197.5830078-9.8579102.0170898-.3574219-.0976563-.730957-.4091797-1.0649414-10.4252934-11.166012-21.1743169-22.1044886-33.5073399-31.1621058zm-155.6516114-18.2539062c1.4518127-.9310074 2.9461823-1.5274887 4.6032715-1.9248123.8972931 4.1496658.8888168 4.1085281 1.1569824 5.3442459-1.6627655.344696-3.6374664 1.253067-4.003418 1.6362305-4.430664.6235351-5.0202636-1.0590821-1.7568359-5.0556641zm16.5595703 1.2597656c1.1022949 4.8339844-4.8754883 2.3271484-7.4226074 2.0141602-.9145508-.1123047-1.7900391-.097168-2.6411133.0170898-.1582031-.722168-.3164063-1.4448242-.4755859-2.1669922 1.8961487.5758972 3.8978958-1.7948914 5.0004883-3.4306717 2.5036621.2700195 4.9895019 1.1582031 5.5388183 3.5664139zm-10.557373-3.4580154c.9666214-.1431961 1.9286346-.2202988 3.1972656-.2104492-.9069824 1.1147461-2.0048828 2.8154373-2.9980469.8554688-.0974121-.1923829-.149414-.4160157-.1992187-.6450196zm5.2109375-4.3188477c-.175293.6865234-.4255371 1.3623047-.7128906 1.9863281-1.8782349-.2239532-3.8079147-.0813599-5.6689453.2558594-.1445313-.659668-.2885742-1.3198242-.4321289-1.9799805 2.328453-.479866 4.5856018-.5348739 6.8139648-.262207zm172.1328277 54.1284256c-6.3824768-.4380646-11.6477661 3.9521637-13.5576172 9.9526367-7.1640778-10.0541992-14.2046051-20.1835938-22.3088531-29.5092773.0859375-.2392578.119873-.5087891.0651855-.8100586-.5991211-3.2910156 1.0715332-6.9262695 3.9760742-8.3139648 11.7592774 8.2167968 21.9892731 18.2890624 31.8252106 28.680664zm-50.5371246 11.5917969c1.1848145 2.3457031 3.4980469 3.5356445 5.8574219 3.2470703 1.2138672 1.2084961 1.6311035 2.8061523 1.8479004 4.4501953-4.2478027.0927734-7.6914063-2.402832-10.3112793-5.5854492.8676758-.7055664 1.737793-1.4072266 2.605957-2.1118164zm-1.1652832-19.7719727c-1.144043-1.7944336-1.376709-3.9506836-.5876465-5.9418945 2.2668457-1.7021484 5.0690918-2.5449219 7.8808594-1.3632813 1.2255859.515625 2.3156738 1.421875 3.3076172 2.453125-1.9594727.6381836-3.5300293 2.1064453-4.3374023 4.0727539-2.0322419-.6395721-4.2208405-.4722747-6.2634278.7792969zm14.126709-8.7836914c2.7595215 3.2021484 5.4069824 6.4887695 7.9641113 9.8442383.036377.1074219.0852051.2158203.1520996.3256836 3.6806641 6.0527344 6.1223145 11.065918 2.5957031 17.9072266-1.498291 2.9067383-3.7543945 5.1044922-6.4333496 6.5307617 6.2848511-8.528717.36409-25.4343262-2.8081055-29.3725586-2.4633789-3.0571289-5.2619629-5.578125-8.3173828-6.6640625 2.5015107-.2706604 4.5682984.3979034 6.8469239 1.4287109zm42.1855621 24.3110352c.0317383 3.6650391-3.3696289 6.0537109-6.3671875 7.5014648-3.6484375 1.7612305-8.3842773 2.8500977-9.2241211-2.3676758-.0195313-.121582-.0498047-.230957-.0888672-.3305664.6132813-3.0869141 2.4892578-6.1264648 5.1591797-7.7553711 3.390625-2.0698242 10.4726563-2.5375976 10.5209961 2.9521485zm-43.539566-8.9511719c1.4199219-.5014648 2.949707-.2011719 4.1030273.7548828 1.276062 5.0322418 1.1761627 10.1776581.5446777 12.9624023-.8532715-1.6308594-2.392334-2.8603516-4.2504883-3.230957.989502-3.2924805.6237794-7.2460937-.3972167-10.4863281zm-1.6162109-10.8237305c.3416901.3834229 1.5832367 1.8323059 1.8447266 2.2768555 1.5493164 2.6240234 2.7475586 5.3598633 3.5710449 8.1865234-1.2272949-.6796875-2.6691895-.8041992-4.0354004-.340332-1.0487366-2.9440002-2.713089-5.2064972-5.5766602-6.3964844.7468262-1.8486328 2.3032226-3.227539 4.1962891-3.7265625zm1.770996 22.0214844c1.9960938.3837891 3.5327148 1.8154297 4.1677246 3.6772461-1.9805908 5.8610992-7.3791199 5.9385834-7.4802246 5.9814453-.2207031-1.6704102-.6293945-3.3007813-1.7304688-4.590332 2.4151765-.6696167 4.1532746-2.6899414 5.0429688-5.0683594zm4.8525391-40.5185547c-2.4610901 1.3667297-4.0914612 3.3070831-4.7365723 6.9863281-9.7058105-12.4682617-20.3605957-24.177742-29.6318359-36.9873123-.1149902-.1586914-.2478027-.2783203-.3881836-.3759766.7087402-.784668 1.6811523-1.4453125 2.6635742-1.9780273 10.9467774 10.5292969 22.0439453 20.9497147 32.0930176 32.3549881zm-90.6142578-77.8520584c-.2561035-.2480469-.5114746-.496582-.7680664-.7441406-.665741-1.1492615.092865-2.5474625 1.435791-2.7954063.9226074-.0043945 1.7819824.6186485 1.9697266 1.5507774.2604217 1.2912674-1.1473847 2.7958831-2.6374512 1.9887695zm-1.7570801-1.7016602c-4.7790527-4.5800743-9.65625-9.0668907-14.6381836-13.4550743 1.1364746-.1416016 1.916748-1.1865234 1.9785156-2.324707 6.1987305 4 12.1772461 8.3354492 17.9211426 12.9824219-.1009521.0526085-.0129547-.0236969-.9511719.9379883-1.8414916-1.6643563-4.255249-.1614914-4.3103027 1.8593711zm-16.3139648-14.9433555c-.5534668-.8833008-.1560059-2.2231445.9858398-2.5332031.6418457.4003906 1.2775879.8105469 1.9147949 1.2177734.2572479 1.290741-.9334869 2.6140251-2.328125 1.8237305-.1921386-.1679688-.3798828-.3403321-.5725097-.5083008zm.2133789-3.0058594c-.7592773.4619141-1.1918945 1.293457-1.206543 2.1279297-3.5290527-3.0571289-7.1379395-6.0390625-10.7873535-8.9833984 4.0795898 2.1489257 8.0778809 4.4375 11.9938965 6.8554687zm18.8693847 20.6303673c1.7875671-.1624985 3.0737152-2.2531586 2.0205078-3.9580078.992569-1.0159798.9636536-.9551773.9946289-1.102047 2.4675293 2.0097618 4.8867188 4.0820274 7.2651367 6.2055626-.4499512.5332031-.5664063 1.3212891.0922852 1.9399414 14.3925781 13.5102539 28.5310059 27.2871094 42.9213867 40.7998047-1.6284027 1.5030289-3.5198212 4.3499298-1.3515625 5.0429688 8.5917969 11.5454178 18.5620117 25.2670975 29.3193359 37.5087967-.8840332-.074707-1.7670898-.0717773-2.6342773.027832-25.8459472-29.3398514-50.7299804-59.3378983-78.6274414-86.4648514zm70.2004395 94.5424881c-.4104004 1.8842773-.078125 3.8359375 1.0029297 5.4951172-1.6818848 1.2871094-2.7275391 3.21875-3.2365723 5.3417969-.1978149-.0112305-1.2086792.3350677-2.440918-.3901367.2946778-3.9896699 1.7288819-7.6937409 4.6745606-10.4467774zm-4.7121582 11.2578125c.7053223.3344727 1.5039063.4624023 2.3239746.3349609-.3642578 2.0424805-.2666016 4.1948242.2106934 6.074707-.5427246.4189453-1.0888672.8334961-1.6337891 1.2495117-.6376953-2.4609374-.9934082-5.0810546-.9008789-7.6591796zm-6.3125 16.9506836c.0763397-.1853333 9.9437103-7.5373688 14.315918-11.0498047 1.5048828-1.2089844-.6296387-3.3198242-2.1213379-2.1210938-.6755371.5424805-1.3601074 1.0732422-2.0427246 1.6069336-.5283203-2.5478516-.309082-5.2915039.9682617-7.6005859 2.2556152-4.078125 7.1132813-4.6416016 10.3181152-1.3833008 2.3806152 2.4204102 3.0737305 5.9316406 3.2883301 9.2416992.1054688 1.625.0852051 3.4194336-.4213867 4.9902344-1.0544434 3.2709961-6.7026367 8.3017578-9.2714844 2.0864258-.0131836-.0317383-.0368652-.050293-.0527344-.0791016 1.1870117-.9550781 2.380127-1.9023438 3.5942383-2.8227539 1.5192871-1.1513672.026123-3.7578125-1.5141602-2.590332-3.5582886 2.6970215-7.3989258 5.9660492-11.0654297 8.8325195-.6252441.4887695-3.4367676 3.2167969-4.4382324 3.277832-.9470214.0576172-1.9848632-1.3520507-1.557373-2.3886718z"/><path d="m100.3064423 203.490448c-10.486084.2363281-20.0368652 2.8466797-29.6906738 6.8183594-7.1877403 2.9570313-14.1528282 8.050293-17.2758751 15.4140625-.7451172 1.7568359 1.8383789 3.2875977 2.590332 1.5141602 3.4086914-8.0375977 11.0163536-12.324707 18.7546349-15.3583984 8.3366699-3.2685547 16.6257324-5.1855469 25.621582-5.3881836 16.1025391-.3632813 37.0310059 1.3447266 47.4504395 15.4765625 1.1335449 1.5375977 3.7382813.0429688 2.590332-1.5141602-11.1413575-15.1113282-32.7038575-17.354004-50.0407715-16.9624024z"/><path d="m151.917038 237.7048035c-7.0803223 6.2954102-16.28125 9.4897461-25.4731445 11.203125-19.9670792 3.7227478-41.6415482 4.1917267-60.6225586-2.8276367-7.6755333-2.8378906-19.9282188-9.2661133-16.0783653-19.3945313.6867676-1.8066406-2.2124023-2.5878906-2.8928223-.7978516-.2233887.5878906-.3830566 1.1699219-.512207 1.7485352-3.3507767 7.5057373-1.7605438 16.7438049 7.2788086 24.8154297 16.9172401 15.1034546 85.2998199 23.8237 100.6308594-12.0952148.1452637-.340332.2207031-.7382813.1948242-1.1137695.4472617-1.2329103-1.2895547-2.6372071-2.5253945-1.538086z"/><path d="m108.1780243 215.571991c-15.342041-1.0527344-33.1057129 3.4023438-43.0229492 15.9624023-1.1838341 1.4990234.9250488 3.6362305 2.1213379 2.1210938 9.4790039-12.0048828 26.2485352-16.0888672 40.9016113-15.0834961 1.9270019.1323242 1.9189453-2.8686524 0-3z"/><path d="m88.8271942 240.9269714c-1.8439941-.5869141-2.6333008 2.3085938-.7973633 2.8925781 10.175293 3.237793 22.4841309 3.0986328 32.484375-.8544922 6.965332-2.7529297 13.7595215-9.9003906 8.7080078-17.4287109-1.0703125-1.5952148-3.670166-.0952148-2.590332 1.5141602 5.9243164 8.8291016-7.6611328 13.8183594-14.0444336 14.9794922-7.9621582 1.4487304-16.0197754 1.3598633-23.7602539-1.1030274z"/><path d="m109.9412079 229.6965027c-4.9077148 2.1689453-10.4104004 2.3325195-15.5270996.8457031-1.8574219-.5400391-2.6508789 2.3540039-.7973633 2.8925781 5.9428711 1.7270508 12.1787109 1.3535156 17.838623-1.1479492 1.7619629-.7792969.2373047-3.3647461-1.5141601-2.590332z"/><path d="m138.9788055 237.4855652c5.8321075-5.2342682 5.0252838-13.1804657-4.5119629-17.1611328-1.779541-.7431641-2.5561523 2.1586914-.7976074 2.8925781 5.4685059 2.2822266 8.1828613 7.6650391 3.1882324 12.1469727-1.4399414 1.2919921.6872559 3.4082031 2.1213379 2.121582z"/><path d="m79.9790497 241.5954285c-3.9282227.6186523-8.4013672-.1806641-11.3334961-3.0224609-1.387207-1.3442383-3.5109863.7749023-2.1213379 2.121582 3.7568359 3.640625 9.2316895 4.5844727 14.2521973 3.793457 1.9018554-.2993164 1.0942382-3.1904297-.7973633-2.8925781z"/><path d="m125.665329 216.6271667c1.736084.8193359 3.2607422-1.7661133 1.5141602-2.590332-3.7878418-1.7880859-7.807373-2.5776367-11.9880371-2.1943359-1.9067383.175293-1.9250488 3.1767578 0 3 3.6462402-.3344727 7.1545409.2177734 10.4738769 1.7846679z"/><path d="m150.7524872 227.5680847c.7971191 1.2836914.9230957 2.6640625.4311523 4.0883789-.6318359 1.828125 2.2651367 2.6142578 2.8928223.7973633.7365723-2.1323242.4543457-4.4868164-.7336426-6.3999023-1.0163574-1.6367188-3.612793-.1323243-2.590332 1.5141601z"/><path d="m51.8105965 219.7272644c1.8652344-3.1333008 4.6411133-5.5571289 8.0688477-6.8427734 1.7910156-.671875 1.0151367-3.5727539-.7976074-2.8925781-4.1757813 1.565918-7.5773926 4.3842773-9.8615723 8.2211914-.9899903 1.6630859 1.602539 3.1733398 2.590332 1.5141601z"/><path d="m96.3144989 179.0798035c-.5029297-8.2260742-1.1638184-16.440918-1.666748-24.6665039-.0878906-1.4384766-2.3383789-1.4487305-2.25 0 .5029297 8.2255859 1.1638184 16.4404297 1.666748 24.6665039.0878906 1.4384765 2.338623 1.4487304 2.25 0z"/><path d="m172.4863739 191.9538269c-3.0058594-2.5517578-8.4006348 1.0073242-10.7109375 2.9946289-4.9427185 4.2503357-8.194931 12.4524841-8.246582 12.8217773-.0646973.1547852-.1328125.3095703-.1967773.4643555-.7358398 1.7827148 2.1652832 2.5600586 2.8928223.7973633.0554199-.1337891.1137695-.2680664.1696777-.4023438 3.0976563-4.5849609 10.3852539-4.2988281 14.5717773-7.5742188 2.484375-1.9433593 4.4719238-6.595703 1.5200195-9.1015624zm-1.8041992 3.965332c.0454102.8789063-.2631836 1.6225586-.9265137 2.2314453-2.3401642 2.647522-6.8353424 3.1174469-10.6152344 4.8129883 1.8020325-3.1014709 4.2127228-6.02742 7.3815918-7.6772461 1.0314941-.5371094 2.1655273-1.1733398 3.3237305-.6835938 1.050293-.0878905 1.3291016.3510743.8364258 1.3164063z"/><path d="m62.8174324 198.3927917c-.113739-.2753601-.2765503-.4297638-.4711914-.590332-2.9887695-3.7587891-6.3774414-7.3959961-10.7768555-9.4770508-3.2097168-1.5180664-8.145752-2.4438477-10.7895508.7290039-2.2370605 2.6845703-.0234375 5.8828125 2.5688477 7.2294922 5.1179199 2.6591797 12.322998-.0864258 16.894043 3.6557617.168457.2128906.3378906.425293.5043945.6381836 1.1757469 1.5049744 3.3334618-.5740814 2.0703125-2.1850586zm-14.6665039-8.192871c2.8058167.6797028 5.9042702 3.0374451 7.9785156 5.065918-3.1547852-.4423828-8.1645508.3300781-10.7773438-1.4350586-3.8937988-2.6303712-.7226562-4.4833985 2.7988282-3.6308594z"/><path d="m21.1558113 212.9118347c-1.7587891 2.800293.5966797 5.503418 3.246582 6.5009766 5.5382404 2.0841217 14.2098923-2.4150085 18.0786133 1.046875 1.4348145 1.2841797 3.5634766-.8305664 2.1213379-2.121582-6.9869156-6.2398835-18.4379291-13.4019776-23.4465332-5.4262696zm16.1425781 3.3706055c-4.036171.1567535-9.3152714 1.6053314-12.7570801-.09375-.8491573-6.1012116 7.5698052-3.4711456 12.7570801.09375z"/><path d="m156.4541473 230.337616c-.7358398 1.7827148 2.1652832 2.5600586 2.8928223.7973633 1.616394-3.9111023 8.6469727-3.8682098 14.6115723-8.5317383 2.5402832-1.9863281 4.7348633-5.6923828 1.2651367-8.1616211-3.371582-2.3999023-8.1953125.65625-10.7116699 2.9394531-3.7876892 3.437149-6.0915375 8.1833191-8.0578614 12.956543zm12.3022461-12.4379883c.520752-.3100586 1.9116211-1.2490234 2.4829102-1.0849609.6809082.8095703 1.3618164 1.6186523 2.0424805 2.4282227-2.7062683 2.8050079-7.537323 4.0869446-10.9665527 5.7182617 1.5735625-2.6867677 3.8124541-5.4958497 6.441162-7.0615235z"/></g></g></svg>