<svg id="Layer_1" enable-background="new 0 0 300 300" height="512" viewBox="0 0 300 300" width="512" xmlns="http://www.w3.org/2000/svg"><g id="Mail_us"><g><path d="m29.9478245 104.5933075c8.6103535 15.7524414 19.2324238 29.8115234 32.0239258 42.4052734 1.3769531 1.355957 3.4995079-.7641602 2.1210899-2.121582-12.6230431-12.4277344-23.0590782-26.2548828-31.5546837-41.7978516-.9262695-1.6943359-3.5175781-.1821289-2.590332 1.5141602z"/><path d="m27.4253635 162.2197723c1.4555664 2.0097656 3.7456055 4.2880859 5.4594746 6.0825195 1.4604492 1.5283203 3.3261719 2.5307617 4.3637695 4.2929688.9643555 1.637207.0361328 3.6230469 1.5083008 5.34375 1.1489258 1.3427734 2.9448242 2.0473633 4.7119141 2.0488281 1.3989258.0004883 3.4921875-1.6416016 4.8144531-1.0820313 1.3139648.5556641 1.7421875 4.1665039 2.2202148 5.4536133 3.7016602 9.9716797 11.1591797 19.0639648 19.6660118 25.4506836 5.3012695 3.9799805 11.7490234 6.7358398 18.3754883 6.5742188 1.9442825-.0475616 3.9695129-.4157867 4.9506836-2.1054688.7133789-.9077148.8173828-2.1328125.5585938-3.4624023 1.347168.6181641 2.7641602 1.0014648 4.2495117 1.0229492.0009766.0849609 0 .1694336 0 .2543945 0 .6787109.5170898 1.3305664 1.1806641 1.4711914.475563.3188171.7777176.2383118 2.7329102.2368164 1.2260742 2.2275391 2.0268555 5.4101563 3.4067383 7.3017578 5.6767578-.2104492 9.3876953.3505859 14.7299805.2792969v5.4506836c0 .7294922.4287109 1.1831055.9619141 1.3613281.5135498.4283142.9720535.3178253 2.6708984.3164063 1.3012695 1.9428711 3.4731445 5.246582 4.3872147 6.5922852.4969788.7193604 62.7186737-2.760849 68.1298828 1.1098633 1.9299927 1.3873291 4.2902374 1.9526978 6.5200195 1.0703125.7299805-.2900391 1.8999023-1.6704102 2.5400391-1.6401367.5657196.0298157.8549042.9713287 3.0600586 1.9799805 1.159668.5297852 2.4296875.8500977 3.7099609.75 2.5498047-.2001953 5-1.4799805 6.6298828-3.4501953 2.5498047 2.1103516 6.2001953 1.9902344 9.1098633.4003906 2.9101563-1.590332 5.0102539-4.3300781 6.7802734-7.1401367 5.2709961-8.3466797 8.4194336-18.0053711 9.1816406-27.8476563.8081055-5.8222656.6943359-11.7485352-.5283203-17.3701172 3.1806641.9013672 10.2983398 1.0112305 9.7827148-3.5478516-.6982117-6.1738434-13.4819794-8.9252319-18.7260742-10.6572266 0-13.4521484 0-26.9047852 0-40.3574219 7.128418-21.3583984 9.8452148-43.5429688 1.1464844-65.7885742-.6958008-1.7783203-3.5976563-1.0043945-2.8930664.7973633 8.2361145 21.0616226 6.602951 41.1531906-.121582 61.7714844-44.2553711.0092773-88.5087891.4741211-132.7641602.4814453-.2382813 0-.4467773.0463867-.6264648.1269531-.5507813.168457-1.0014648.6230469-1.0014648 1.371582 0 16.3303986.0186234 20.2692719.0581055 29.0620117-8.1108398-.9160156-16.2460938-1.2060547-24.315918-.3037109 1.7045898-2.5600586 2.6806641-5.7485352-.1547852-7.199707-5.7856445-2.9614258-15.0219688 6.4550781-18.8618126 9.6254883-3.9010429 3.2214661-7.836132 6.7702179-11.1455078 10.6459961-.5669975-1.1014862-8.554184-7.0908508-18.4350605-20.6098633-1.1279297-1.5429688-3.7324219-.0478516-2.590332 1.5146484.1943359.265625.3959961.5249023.5917969.7895508-.7314453 2.2817383-.8935547 3.2988281-1.1591797 5.1611328-.1171953.8183594 4.6201094 5.6606446 5.1342695 6.3706055zm77.5629864 44.722168c5.1551666 1.6026917 8.2784348-1.4935608 7.8076172-7.0244141 1.3369141.2304688 2.6894531.2548828 4.0307617-.0229492 4.1328125-.8569336 3.0063477-5.3320313 1.3237305-8.1328125-3.6272736-6.040451-11.3835754-10.3782043-16.7807617-14.918457.5063477-3.1513672.0473633-6.6899414.0371094-9.8608398-.0151367-4.6992188-.0395508-9.3979492-.0600586-14.097168-.0205078-4.6948242-.0175781-9.3896484-.0234375-14.0844727 1.5166016 1.734375 3.4589844 3.3286133 5.0507813 4.8027344 5.9794922 5.5195313 9.40625 9.0517578 13.9799805 13.1162109v54.0654297c-6.034668.0019531-12.0688477.0136719-18.1030273.0166016 1.4062498-.8696289 2.4033201-2.2260742 2.7373045-3.8598633zm116.5756912-52.4682617c-1.1328125 0-13.7032166.0294189-20.1196289.0556641 9.8916016-7.8549805 19.7563477-15.7460938 29.3808594-23.9277344-4.3912506 12.0723419-10.4275818 23.8720703-9.2612305 23.8720703zm-4.7641601 10.3583984c3.2840271-2.9265137 3.7725677-3.3791962 5.9941406-5.4130859v5.7832031c-2.0957031-.4082031-4.1538086-.5932617-5.9941406-.3701172zm-1.7944336 8.8022461c-5.2075195 1.6875-10.1518555 3.90625-15.2084961 5.9995117 4.5372314-3.8958588 7.2342682-6.2099152 11.706543-10.1235352.3696289 1.5209962 1.8613281 3.0146485 3.5019531 4.1240235zm-17.6049805 30.5869141c-1.3339844-1.652832-2.6254883-3.3378906-3.8789063-5.0527344 2.9522705-.757843 6.4540558-1.9495697 7.4838867-2.3520508-.875534 2.4726868-2.369873 5.0599976-3.6049804 7.4047852zm-7.0512695-4.3295899c1.7563477 2.4404297 3.5830078 4.8286133 5.4897461 7.1542969-.561554.9817047-2.2290802 3.9124756-2.9814453 5.4824219-1.8007813 3.7573242-5.0585938 8.4135742-4.6479492 12.8505859-20.769043.0693359-41.5385742.1225586-62.3076248.1298828 9.5644608-9.7919922 19.1709061-19.6552734 29.3501053-28.8217773 3.2792969 2.9912109 6.6035156 5.9892578 10.0419922 8.996582 2.859375-.8481445 4.6279297-1.5810547 5.6201172-2.2348633.2446289.0825195.4921875.0859375.7285156.0395508.4448242.1201172.9458008.0439453 1.3818359-.3540039 1.4077148-1.3032227 2.828125-2.5922852 4.2504883-3.8789063 4.085678 2.2452851 8.5813598 1.5324097 13.0742187.6362305zm-66.9951248-32.3632812c10.3632889 9.1152344 19.8261795 18.0898438 29.674324 27.1279297-10.2924805 9.2773438-20.0009766 19.265625-29.674324 29.168457 0-18.765625 0-37.5307617 0-56.2963867zm50.5781326 23.6357422c-.7006836 2.6318359-.1865234 4.6582031 1.0063477 6.1660156-1.0805664.9863281-2.1611328 1.9726563-3.2421875 2.9589844-24.9067535-22.4563141-21.0850067-18.8574982-46.4111404-42.4238281 26.4244308-.0195465 64.8988266-.3563995 95.0971756-.3823242-6.8021088 5.9518433-27.2625275 23.8458252-28.9389648 25.3120117-5.3583986 1.6176757-15.8222658 2.0249023-17.5112306 8.3691406zm22.6992188-36.6171875c-21.9311523.1015625-43.862793.2636719-65.7944336.3046875-9.6333084-8.296875-19.8896561-17.4755859-29.5297928-25.7822266 0-.1357422-.0009766-.2714844-.0009766-.4072266 42.580574-.0161133 85.1596756-.4375 127.7397537-.4702148-10.6044922 9.0283203-21.5073242 17.6967774-32.4145507 26.3549805zm-97.969246 19.965332c-3.292244-2.8618164-3.5206833-2.7327271-4.5678711-3.8139648.8261719-.6113281 3.3251953-.5664063 4.6147461-.6474609.0634766 1.5205077.069336 3.0263671-.046875 4.4614257zm147.6962967 1.9882813c1.449707.8227539 5.1298828 2.0942383 1.6484375 3.8139648-.9516602.4702148-3.21875-.0483398-4.1655273-.3837891-.4301758-.1523438-.7998047-.1025391-1.0942383.0634766-.2700195-.918457-.5693359-1.8271484-.9033203-2.722168-.6689453-1.7929688-3.5698242-1.0170898-2.8930664.7973633 6.2120056 16.6505585.381012 38.2704163-10.6728516 49.9052734-1.5844727 1.6674805-7.6640625 6.5766602-7.6591797.0395508 0-.0839844-.0126953-.1601563-.0234375-.2368164.8232422-1.4995117 1.5366211-3.0454102 2.2138672-4.456543.831543-1.7324219-1.7543945-3.2558594-2.590332-1.5141602-1.1948242 2.4887695-2.3930664 5.0878906-4.0830078 7.2861328-1.6835938 2.1904297-6.7675781 5.1699219-7.8955078.9570313 1.6792145-2.2681274 3.9097443-6.7793732 5.8188477-10.059082.9731445-1.671875-1.6186523-3.184082-2.590332-1.5141602-1.9321289 3.3193359-3.7675781 6.6982422-5.7055664 10.0087891-.3642578.3657227-1.2426758 1.0063477-1.284668 1.0317383-2.3442383 1.4067383-4.987793-.1694336-5.6914063-2.6889648-.0336914-.1196289-.0771484-.2270508-.1289063-.3251953 2.7255859-2.8886719 5.0708008-6.5268555 5.7910156-8.1025391.796875-1.7431641-1.7880859-3.2695313-2.5908203-1.5136719-1.5615234 3.4155273-3.7109375 7.9692383-7.3549805 9.609375-6.8745117 3.09375-.2524414-9.9272461.9443359-12.4536133 2.2097778-4.6565552 9.2260742-15.2629395 9.2260742-20.4291992 0-1.9301758-3-1.9331055-3 0 0 .2218018-12.5075989 4.1088715-18.2861328 4.2299805-5.7583008.1210938-9.5419922-5.8691406-3.1645508-8.8120117 2.6098633-1.2045898 5.9594727-1.5219727 8.7402344-2.3232422 11.9931946-3.4500275 22.4573822-10.0231476 34.9291992-12.2382813 1.8974609-.3369141 1.09375-3.2285156-.7973633-2.8925781-1.3081055.2324219-2.5888672.515625-3.8515625.8344727-1.1577148-.3266602-5.6220703-2.1850586-4.1430664-3.8754883.7529297-.8603516 5.1171875-.3286133 5.6079102-.2592773 5.0166932.7109832 20.186966 5.1231536 25.6499024 8.2236328zm-14.7944336-8.7583008c-1.7392578-.6025391-3.7202148-1.2724609-5.7700195-1.8330078 0-3.3120117 0-6.6240234 0-9.9355469 0-.8110352-.6875-1.5-1.5-1.5-.1220703 0-.2441406.0009766-.3662109.0009766 2.7207031-5.8325195 5.3193359-11.7558594 7.6362305-17.7548828-.0000001 10.3408203-.0000001 20.6816406-.0000001 31.0224609zm-184.4106483 2.0795898c4.2633972-4.8175964 14.3106995-13.3966675 19.2641563-16.3520508 1.1210938-.6689453 3.2163086-2.2807617 4.4897461-1.9082031 3.0712891.8979492.1762695 3.8969727-1.2626953 4.9736328-1.394043.2348633-2.7856445.5078125-4.1743164.8227539-1.8818321.4272461-1.0854492 3.3203125.7973633 2.8930664 10.6074219-2.4082031 21.3803711-2.2402344 32.1074219-1.0244141.0205612 4.6552429-.0118103 4.7161407.1738281 7.8457031-2.5825195.2001953-7.6098633.0297852-8.1147461 2.7724609-.5078125 2.7573242 4.5581055 5.3955078 6.2480469 6.875 5.0419922 4.4135742 10.3867188 8.4609375 15.4379883 12.8691406 1.887207 1.6464844 6.9731445 6.5571289 2.5351563 7.359375-3.9443359.7124023-9.1152344-3.6723633-11.6264648-6.0151367-1.4106445-1.315918-3.5366211.8012695-2.121582 2.121582 2.3295898 2.1733398 5.3994141 4.5688477 8.7246094 5.9326172 1.3043594 5.1670837-2.3338547 6.4936218-7.1025391 3.1142578-2.7514648-1.949707-5.3330078-4.1757813-8.0385742-6.1933594-1.5483398-1.1542969-3.0458984 1.4482422-1.5141602 2.590332 2.5415039 1.8950195 5.7412109 5.171875 9.1694336 7.1650391.6254883 5.0761719-6.7075195 2.6010742-8.6142578 1.3569336-1.9692383-1.2856445-3.7382813-2.8510742-5.4946289-4.40625-1.4414063-1.2758789-3.5708008.8383789-2.121582 2.1210938 1.2241211 1.0839844 2.5385742 2.2924805 3.9423828 3.4033203.0317383.1254883.074707.2529297.1445313.3818359 3.9614258 7.3354492-7.9794922 2.5429688-10.7124023.8554688-4.1987305-2.5927734-8.1928711-5.4833984-11.6049805-9.0698242-7.7431602-8.1381836-13.6127892-19.3066406-14.0771446-30.6401367-.0786133-1.9238281-3.0791016-1.9335938-3 0 .043457 1.0512695.1352539 2.1010742.2592773 3.1479492-.3916016-.0512695-.8110352.0512695-1.1831055.390625-.4858398.4438477-3.8671875 2.5063477-4.5683594 2.203125-2.4677736-1.0664061 1.4609373-4.9340819 2.0375975-5.5859374z"/><path d="m67.1026077 113.3682098c5.5 5.1669922 11 10.3334961 16.5 15.5 1.40625 1.3212891 3.5322266-.7958984 2.121582-2.1210938-5.5004883-5.1669922-11.0004883-10.3334961-16.5004883-15.5-1.4062499-1.321289-3.5317382.7958985-2.1210937 2.1210938z"/><path d="m96.4551468 112.4976044c-3.4267578-8.362793-6.8544922-16.7260742-10.28125-25.0893555-.722168-1.762207-3.6259766-.9907227-2.8930664.7973633 3.4272461 8.3632813 6.8544922 16.7265625 10.2817383 25.0893555.7221679 1.7626953 3.6254882.9912109 2.8925781-.7973633z"/><path d="m118.1680374 76.3555145c-1.4248047 10.6181641-2.1206055 21.2807617-2.0878906 31.9941406.0058594 1.9296875 3.0058594 1.9335938 3 0-.0327148-10.7133789.6630859-21.3764648 2.0878906-31.9941406.2558594-1.9072265-2.746582-1.8886718-3 0z"/><path d="m262.0855103 148.6992645c-2.9838867 7.7797852-6.0673828 15.5175781-9.4003754 23.1552734-.5131836 1.1757813.4814453 2.2460938 1.4243164 2.2924805.1719208.0926514.4528656-.044754.6318359-.1499023 5.1415863-2.4619141 6.9028168-7.434082 8.3827972-10.1479492 3.4907227-6.3994141 5.5317383-14.3276367 7.4516602-21.3598633 1.8666992-6.8364258 4.7617188-18.8588867 5.6303711-27.2919922 2.8740234-16.8862305 1.3105469-34.4243164-1.987793-51.1240234-.3740234-1.8925781-3.2661133-1.0913086-2.8930664.7973633 8.9326172 45.2271957-1.4215087 63.4504547-9.239746 83.8286132z"/><path d="m245.6519318 162.4385223c-1.6948242 1.0380859-2.2387695 3.0766602-1.4663086 4.8496094.7373352 1.6853485 3.3106995 2.4231567 5.1962891 1.2631836 1.6679688-1.0268555 2.0292969-3.2182617 1.0161133-4.8369141-.9965821-1.5922851-3.0839845-2.2939453-4.7460938-1.2758789zm2.0649414 3.6108399c-.3398438.1694336-.6616211.0825195-.9042969-.1733398-.0126953-.0336914-.0219727-.0683594-.0366211-.1020508-.0779724-.1803284.5004578-1.4933624 1.1264648-.3862305.1796875.3193359.0991211.5195312-.1855468.6616211z"/></g></g></svg>