<svg id="Layer_1" enable-background="new 0 0 300 300" height="512" viewBox="0 0 300 300" width="512" xmlns="http://www.w3.org/2000/svg"><g id="Mail_us_1_"><g><path d="m44.7478447 25.410141c4.8041992 6.7631836 9.6088867 13.5258789 14.4130859 20.2890625 1.1088867 1.5610352 3.7119141.0644531 2.590332-1.5141602-4.8041992-6.7631836-9.6088867-13.5258789-14.4130859-20.2890625-1.1088867-1.5610351-3.711914-.0639648-2.590332 1.5141602z"/><path d="m202.7883759 74.9199066c-6.7744141 6.809082-13.5488281 13.6181641-20.3232422 20.4277344-1.3632813 1.3701172.7573242 3.4921875 2.121582 2.1210938 6.7744141-6.809082 13.5483398-13.6181641 20.3227539-20.4272461 1.3632813-1.3706055-.7573242-3.4926758-2.1210937-2.1215821z"/><path d="m215.8914032 93.9750824c-8.4677734 2.7319336-16.9355469 5.4633789-25.4033203 8.1953125-1.8295898.590332-1.046875 3.487793.7978516 2.8930664 8.4677734-2.7319336 16.9350586-5.4638672 25.402832-8.1953125 1.8300781-.590332 1.0473633-3.4882812-.7973633-2.8930664z"/><path d="m196.9221649 111.1728363c-1.9199219-.1884766-1.9067383 2.8129883 0 3 5.0532227.4960938 10.105957.6669922 15.1811523.5151367 1.9257813-.0581055 1.934082-3.0581055 0-3-5.0751953.1518555-10.1284179-.0195312-15.1811523-.5151367z"/><path d="m119.4851532 132.3359222c-10.0595703 2.2211914-20.2050781 3.6611328-30.4863281 4.3217773-1.9169922.1230469-1.9311523 3.1240234 0 3 10.5419922-.6777344 20.9677734-2.1508789 31.2836914-4.4287109 1.8842773-.4165039 1.086914-3.309082-.7973633-2.8930664z"/><path d="m118.2873993 147.3857269c-5.3964844 5.8237305-10.4365234 11.940918-15.1381836 18.3383789-1.1445313 1.5571289 1.4580078 3.0551758 2.590332 1.5141602 4.550293-6.1918945 9.4467773-12.0957031 14.6689453-17.7314453 1.3110352-1.4145508-.805664-3.5410156-2.1210937-2.1210938z"/><path d="m31.7717724 73.9985199c.3041973 3.0605469 2.0673809 6.1777344 5.0346661 7.1464844 2.9677734.9682617 6.4755859.0654297 8.5795898-2.2094727.0458984 6.46875 1.0463867 15.4072266 3.9189453 21.2260742 3.1860352 6.453125 8.140625 12.7241211 13.5405273 17.5454102 5.4003944 4.8217773 11.2119179 7.3676758 18.4428749 8.3022461 1.8632813.2407227 4.9135742-.1118164 6.6904297-.7114258 1.7773438-.6000977 3.5361328-3.4228516 3.9580078-5.2236328 4.7259216 2.6273804 10.729454.0807037 12.0449219-5.0859375 1.8935547 1.0537109 4.5004883.6513672 5.9755859-.9208984 1.3500977-1.4389648 1.6157227-3.7211914.7197266-5.4570313.1621094-.5581055.2548828-1.1450195.2753906-1.7539063.2871094.0664063.5742188.1274414.8637695.1708984 2.1777344 4.4960938 4.3974609 8.9707031 6.6723633 13.4189453.3764648.7368164 1.0668945.8764648 1.6640625.6640625.1679688-.0117188.3413086-.0522461.5180664-.1279297 2.0410156.8686523 5.331543 2.5986328 6.8740234 3.1235352 4.1123047-1.7973633 7.265625-3.2617188 11.1289063-5.53125 2.2583008 4.3740234 6.3710938 6.2285156 11.3535156 6.4492188s8.7666016-3.3842773 10.9477539-7.7954102c1.5092773-3.0527344 1.5161133-6.7563477.1728516-9.8603516 2.9130859-1.1044922 6.3017578-2.5532227 9.1025391-3.9887695 1.3198242-.5581055 3.2260742-1.6870117 4.1499023-2.1411133-2.7539063-6.3603516-5.7246094-14.1933594-8.4785156-20.5537109-.8730469-.6220703-2.4941406-1.2695313-3.8012695-1.9067383-.4407501-1.0170898-.3323822-.7785416-.4370117-.9604492-.2709961-.8339844-1.1738281-1.4638672-2.1269531-.8588867-1.043457.6621094-2.1699219 1.1000977-3.3120117 1.331543-10.9942017-1.6245728-7.1359406-15.4894753 1.5253906-16.6152344-1.8320313-4.2363281-5.3320313-12.7900391-5.6806641-13.0214844-3.0043945-1.9941406-3.8657227-2.4321289-4.7250977-2.9692383-.3716736-.6497192-1.2987976-1.0886459-2.1386719-.6953125-12.0830078 5.6635742-24.3037109 11.1645508-36.3222656 17.0224609-7.8918152-6.4212074-27.1697006-7.1851921-37.1796875-6.5727539 2.5126953-2.7431641 4.3393555-6.3789063.1035156-7.6230469-2.8486328-.8369141-6.6508789.7763672-9.0859413 2.0898438-4.9516602 2.6704102-9.6772461 6.0332031-14.1665039 9.4091797-2.4072266 1.8105469-7.3237305 4.9257813-10.7089844 8.5009766-.5277557-.9418411-6.3098183-5.949852-12.7241192-16.3295898-1.0131836-1.6391602-3.609375-.1342773-2.590332 1.5141602.1733398.2807617.3510742.5498047.5263672.8266602-.359375 2.4404297-.7182617 4.8813477-1.0776367 7.3217773 2.9575196 4.3378906 6.2211914 8.9663085 9.7719727 12.8500976zm84.6469745 22.6738281c-3.1474609-4.2954102-7.4394531-8.3320313-11.690918-11.9648438-2.081543-4.706543-4.1293945-9.4321289-6.0483398-14.2080078 15.2387695-7.909668 30.9960938-14.949707 46.5517578-22.2172852 1.612793 3.9482422 3.2304688 7.8950195 4.8413086 11.8447266-5.4741211 2.5361328-8.5883789 8.6953125-6.0371094 14.5976563 2.6704102 6.1767578 9.7416992 8.2719727 15.5214844 5.6298828 2.4628906 5.6875 4.925293 11.375 7.3881836 17.0625-3.59375 1.7504883-7.4462891 2.940918-10.9780273 4.8261719-1.168457.6240234-.8237305 2.0371094.0576172 2.5712891 3.9692383 4.9516602 2.6020508 12.1738281-3.8173828 14.0864258-6.0087891 1.7905273-11.1113281-1.8730469-12.4370117-7.8759766-.1113281-.503418-.4013672-.8105469-.7558594-.9614258-.4101563-.2592773-.9379883-.34375-1.4882813-.0874023-5.6601563 2.6357422-11.3603516 5.1835938-17.0268555 7.8056641-1.8242188-3.5844727-3.6132813-7.1870117-5.375-10.8027344 5.0551758-.9868165 3.4965821-7.3007813 1.2944336-10.3066407zm-20.4643554-24.9624023c1.1879883 2.9458008 2.4204102 5.8740234 3.6811523 8.7900391-2.1831055-1.71875-4.9882813-3.8671875-6.265625-6.0141602-.4443359-.7470703-1.1450195-2.2504883-.1342773-3.0209961.7993164-.6088867.4858398-.121582 1.3959961-.1020508.4384765.0092774.8774414.1860352 1.3227539.347168zm-54.3886757-2.6948242c6.0409164-5.7017746 15.5814896-12.4641113 21.2216797-15.652832 1.2788124-.7231445 5.7465858-3.6376953 7.4980507-2.6708984 2.2756271 1.2553711-1.4352951 3.8527336-3.6850586 5.1894531-1.0976563.1289063-2.1933594.2749023-3.2841835.4448242-1.9018555.2954102-1.0942383 3.1870117.7978554 2.8925781 10.3108215-1.6037827 33.1820831-1.5438728 41.7910156 4.2705078-.5614624.2773972-9.9023056 4.8900604-10.3291016 5.3325195-2.512207-.4438477-4.2841797-1.5307617-5.5844727 2.2753906-1.5097656 4.4199219 3.0366211 7.3911133 5.8544922 10.0883789 4.8583984 4.6499023 10.0385742 8.9580078 14.862793 13.6704102 1.6318359 1.5947266 3.9423828 3.4604492 4.5683594 5.7397461.9875717 3.599762-2.4901428 3.412384-2.3901367 3.3789063-.3720703-.0039063-.7661133-.0493164-1.1743164-.1411133-4.2529297-.9580078-7.7021484-4.2265625-10.578125-7.2646484-1.3300781-1.4047852-3.4492188.7192383-2.121582 2.121582 2.3618164 2.4946289 5.5458984 5.4848633 9.0810547 7.1591797-.0834961.1845703-.1313477.3999023-.1274414.6484375.0732422 4.7451172-4.9345703 4.8447266-7.8759766 2.6606445-1.4214859-1.0553589-1.440979-1.458252-8.4501953-7.5175781-1.4541016-1.2568359-3.5849609.8564453-2.1210938 2.121582 2.2451172 1.940918 4.4384766 3.934082 6.640625 5.9228516 1.0048828.9077148 2.0087891 1.8525391 3.1147461 2.605957.3071289 3.4160156-3.3261719 4.0581055-5.6020508 3.5302734-1.7822266-.4140625-3.2412109-1.4790039-4.6420898-2.5859375-1.9248047-1.5205078-3.6484375-3.269043-5.3618164-5.019043-1.3530273-1.3818359-3.4736328.7402344-2.1210938 2.121582 1.2460938 1.2724609 2.5893555 2.6923828 4.0410156 4.0102539.1212311 1.0911102 1.5520248 2.214386.4931641 4.1513672-.96875 1.7734375-2.7246094 1.1855469-4.5864258.7094727-5.9570465-1.5253448-15.2367935-9.4835968-19.3125038-14.2558594-8.2568359-9.6689453-14.027832-22.7993164-13.5546875-35.6245117.0712891-1.9306641-2.9291992-1.9277344-3 0-.0444336 1.199707-.0322266 2.402832.0224609 3.6064453-.4638672-.1469727-.9970703-.1010742-1.4682617.269043-.7207031.5654297-5.4091797 2.7866211-6.199707 2.1669922-1.9082031-1.4951172 2.6772461-5.5009766 3.5830078-6.355957z"/><path d="m84.8415985 234.5497894c-.293457.762207-.0605469 1.6669922.9648438 1.8164063.0888672.0126953.1767578.0283203.265625.0410156 2.0878906 2.8989258 6.7338867 8.8144531 7.8276367 10.5400391 9.6508789 1.5981445 13.4389648 2.78125 22.1206055 3.9526367 2.1113281 5.3144379 4.6142578 8.5659027 9.8417969 11.5302582 5.2280273 2.9643555 13.0390625 3.2426758 18.7246094 1.2319336 3.15625-1.1162109 5.9667969-3.5869141 7.8847656-6.5268555 2.6885071.9396973 37.7885742 6.6177368 37.7836914 6.5175781-.2470703-5.9555664 5.3212891-13.085434 11.2602539-13.5912933 4.0090485-.3420715 8.4824371 2.3356628 10.4223633 9.2880707.1603088.5725403 3.8200989 9.8511963 4.1977539 10.637207 15.2470703 2.8251953 24.609375 4.6552734 39.168457 6.7768555 2.2167816-13.8671875 5.5243988-29.8642426 8.3051605-43.9721527 11.6103516-1.3066406 14.2856445-11.9282227 14.3896484-19.8984375.0664063-5.1015625-2.2685547-10.7402344-6.480957-14.6162109-.4702148-.5639648-.9882813-1.0883789-1.5288086-1.5922852 2.0581055-12.1225586 4.152832-24.8144531 6.2080078-36.8896484-1.1738281-2.5087891-3.3022461-5.7509766-4.8037109-8.5107422.0341797-.3193359-.0219727-.6044922-.1469727-.8466797.0561523-.6323242-.2568359-1.2592773-1.0727539-1.4189453-12.0913086-2.3652344-24.2241058-4.5117188-36.3159027-6.8735352 1.5390625-8.5527344-4.137207-16.4604492-12.9399414-18.2651367-8.3735352-1.7172852-16.0546875 3.1015625-19.1689453 10.6645508-9.2851563-1.855957-18.5419922-3.8535156-27.8305664-5.6928711-.6816406-.1352539-1.21875.1586914-1.5419922.6035156-.2236328.1762695-.3950195.4414063-.4672852.8144531-1.0273438 5.3291016-1.9658203 10.6748047-2.9936523 16.0039063-.0541992.2827148-.0292969.5375977.043457.7666016-.1049805.6665039.1938477 1.3461914 1.0600586 1.4936523 13.5688477 2.3129883 7.0073242 23.3676758-4.2890625 16.9692383-1.0883789-.6162109-2.1103516.2011719-2.2568359 1.2954102-.7314453 5.4501953-1.8251953 10.8481445-2.5986328 16.2929688-21.9173279-3.0534821-32.3259735-5.2306366-59.6196289-8.9047852-1.8833389-.2393341-1.9705582 2.7610931.1206055 3.0161133.6445313 1.8916016 1.362793 4.7714844 1.9003906 5.8823242.7094727 1.4692383.1987305 1.2480469.8242188 2.2470703 5.5991211.4780273 7.1430664 2.5771484 7.3676758 5.2529297.3588867 4.2749023-1.8496094 7.3100586-4.5649414 9.25-3.6289063 2.0595703-8.2241211 2.8125-12.1445313 1.9897461-.4257813-.0893555-.7924805-.0048828-1.0893555.1748047-.4018555.1303711-.7373047.4482422-.8554688 1.0043945-2.2392578 10.5532227-5.706543 20.7651367-7.9462891 31.3183594-.0166015.0791014-.0195312.1528319-.0253906.2275389zm182.7919769-79.6318359c-2.5463867 12.8481445-5.1455078 25.6860352-7.6767578 38.5371094-.2250977 1.1420898.7460938 1.8837891 1.6298828 1.8735352 6.706543 1.890625 11.5063477 7.8339844 10.7041016 15.0151367-.9033203 8.0820313-7.9404297 13.7001953-15.9213867 11.6625977-1.1415863-.2915039-1.8793793.6708984-1.859848 1.574707-.5107117 1.5677643-5.0896912 28.8990936-7 39.0790863-12.7797852-21.0590668-23.706543-43.1616058-35.8876953-64.5624847 19.4921874-13.8745118 38.2763671-29.4902345 56.0117034-43.1796876zm-113.681137 30.8408203c.123703.153244 21.5334778 28.2645264 21.9174805 28.7993164 3.0751343 4.2698517 4.5915527 4.2538605 7.5683594 2.4921875 6.59729-3.8589172 15.1384583-9.7787781 25.7246094-17.2070313 12.2114258 21.4760742 23.1689453 43.6538086 36.0161133 64.7670746-9.7041016-1.9160156-19.4033203-3.8574219-29.1079102-5.7729492 3.3305664-8.4936371-3.2524414-17.6327972-12.0219727-19.3115082-9.1333008-1.7480469-17.7910156 3.9345703-19.105957 12.9711914-31.5252075-6.2000122-29.1796265-5.7656097-29.4960938-5.7519531-.659668-.0776367-1.3657227.2207031-1.6206055 1.0322266-2.4682617 7.8608398-10.5927734 12.2988129-18.5771484 10.5395355-7.6352539-1.6831055-13.4257813-8.5239105-11.0375977-16.4125824.0014648-.0039063.0014648-.0073242.0024414-.0112305.4121094-.7929688.2304688-1.8408203-.8808594-2.0029297-10.934082-1.5927734-21.7246094-4.0024414-32.6264648-5.7783203 20.9731445-15.7670898 41.7001953-31.8579102 62.6914063-47.6020508.2817382-.2114257.4594726-.4731445.5541992-.7509765zm12.1987304-16.8100586c6.1259766 2.1152344 12.5917969-1.6210938 14.4018555-8.1860352 1.8198242-6.5986328-2.1694336-13.1079102-8.527832-14.8496094.8798828-4.6191406 1.7119141-9.2475586 2.59375-13.8662109 8.9223633 1.7836914 17.8188477 3.6943359 26.7426758 5.4731445.6665039.8066406 2.2631836.8432617 2.6665039-.4790039.1169434-.2445374.2220459-.3639221.2631836-.7495117 2.2895508-6.3569336 8.3608398-10.6342773 15.277832-9.5698242 8.078125 1.2436523 13.3149414 8.5068359 10.9765625 16.3994141-.3881836 1.3105469.9414063 2.0854492 1.9492188 1.777832.70047.2730713 22.1794891 4.1802521 34.0287933 6.4658203-28.7250824 20.2583008-56.6640472 41.6835938-87.0273285 59.4892578-6.8999023-8.7089844-14.6875-16.6787109-21.7709961-25.2041016 1.3535156.1928711 2.7055664.3916016 4.0595703.5771484 1.2070313.1650391 1.972168-.9555664 1.871582-1.8544922.0317383-.0966797.0576172-.1982422.0722656-.3071289.678711-5.0576171 1.6635743-10.0708007 2.4223633-15.1166991zm-70.7070312 36.0112305c9.2949219 1.1674805 20.6459961-4.3666992 20.7910156-14.7441406.0571289-4.0532227-1.6640625-8.293457-4.1367188-11.5439453 12.9555664 1.8676758 25.8701172 4.0336914 38.8149414 5.980957-20.9077148 15.6982422-41.5625 31.7290039-62.4663086 47.4321289 2.1269532-9.0986328 4.9794922-17.9956055 6.9970704-27.125z"/></g></g></svg>