<svg id="Layer_1" enable-background="new 0 0 300 300" height="512" viewBox="0 0 300 300" width="512" xmlns="http://www.w3.org/2000/svg"><g id="Maintainability"><g><path d="m159.3345184 79.0806046c-3.3722229.112114-2.822998 4.5562592-1.0498047 7.4414063 1.7283173 2.8082047 4.6439362 2.7023392 5.8056641 1.0527344.6347656-.9003906.6914063-2.78125.0390625-3.7294922.1894531-.0332031.3798828-.0615234.5776367-.0898438l1.081543 8.9560547.3408203-.2353516c1.6498718-1.1431656 3.1134186-1.3929672 3.3134766-1.4619141-.196106-.3240662-.2974396-.6365814-1.8291016-2.9394531-2.2375031-3.3648148-2.3236084-4.0659866-2.4931641-4.3886719.1518555-.0244141.3017578-.0439453.4550781-.0761719.5322266 1.1523438 1.1494141 2.4179688 2.2236328 3.2392578 1.1152344.8544922 2.9326172 1.0576172 3.9257813-.1054688 2.028244-2.3786011-1.1481781-9.4856033-5.2724609-8.6865234-.375.0722656-.8408203.3320313-1.2255859.6787109.6615448-5.5404282-2.3547058-8.8922119-5.4443359-9.2333984-.9648438-.1054688-1.8144531.1191406-2.3867188.6416016-.8242188.75-.9638672 1.9726563-.9365234 2.8662109.0732421 2.3076172 1.1826171 4.5595704 2.8749999 6.0703126z"/><path d="m170.1724091 111.9057999c.0732422 2.3085938 1.1835938 4.5605469 2.875 6.0712891-.734375.0244141-1.3876953.3017578-1.8105469.7734375-1.6830139 1.8754959.1062775 7.9319611 3.4072266 8.7861328 1.2061615.3106842 2.5024414-.130867 3.1591797-1.0664063.6347656-.9003906.6914063-2.78125.0390625-3.7294922.1894531-.0332031.3798828-.0615234.5776367-.0908203l1.081543 8.9570389c.3184204-.1875458 2.7365875-1.2819519 3.6542969-1.6972656-3.1528015-5.2102356-1.6964417-2.3310318-4.3222656-7.3281326.1518555-.0244141.3017578-.0439453.4550781-.0761719.53125 1.1513672 1.1484375 2.4169922 2.2236328 3.2402344 1.1181641.8544922 2.9335938 1.0537109 3.9257813-.1064453.8320313-.9736328.6728516-2.3964844.5048828-3.1582031-.5078125-2.2988281-1.6728516-4.1015625-3.2783203-5.0751953-.6884766-.4179688-1.7177734-.6054688-2.4980469-.4521484-.3759766.0722656-.8417969.3310547-1.2265625.6777344.6615448-5.5404282-2.3537292-8.8922119-5.4433594-9.2333984-1.9960023-.2255785-3.4039918.9010618-3.3242188 3.5078123z"/><path d="m142.9731903 39.746624c-.734375.0244141-1.3876953.3027344-1.8105469.7734375-1.3516235 1.5092545-.4090118 4.7673378.7617188 6.6679688 1.6678009 2.7098961 4.5794373 2.7972069 5.8056641 1.0527344.6337891-.9003906.6904297-2.78125.0380859-3.7294922.1894531-.0332031.3798828-.0615234.5771484-.0898438l1.0820313 8.9560547c.5872803-.2755318.0088654-.4399643 3.6542969-1.6972656-.1878967-.3106613-.3074799-.652668-1.8291016-2.9404297-2.2375031-3.3672714-2.330307-4.0762901-2.4941406-4.3876953.1523438-.0244141.3022461-.0439453.4560547-.0761719.5322266 1.1523438 1.1494141 2.4179688 2.2236328 3.2392578 1.1171875.8535156 2.9345703 1.0566406 3.9267578-.1054688.8310547-.9755859.6728516-2.3984375.5048828-3.1591797-.5078125-2.2978516-1.6728516-4.1005859-3.2792969-5.0751953-.6894531-.4179688-1.7148438-.6044922-2.4990234-.4521484-.375.0722656-.8398438.3310547-1.2255859.6777344.4148254-3.4741707-.6508331-6.0342216-2.1680756-7.5771141-2.6671143-2.7122345-6.7296906-2.2812939-6.598526 1.8525047.0722656 2.3076172 1.1816406 4.5595703 2.8740234 6.0703125z"/><path d="m117.1675186 182.8862762c-.4140625 2.4609375-.4990234 4.9550781-.2529297 7.4130859.1210938 1.2158203.3564453 2.5996094 1.1806641 3.6484375.8463287 1.0775299 2.4245605 1.6478882 3.6132813.9277344 1.1464844-.6933594 1.5195313-2.2021484 1.1103516-4.4863281l1.4248047-.5478516c.554657 2.926651 3.3079071 3.9142609 4.8886795 2.5878906.7138672-.5976563 1.0732422-1.6582031.9404297-2.7675781-.3183899-2.6292572-3.9751053-7.2580261-5.5507889-9.2255859-1.7070313-2.1396484-3.6152344-4.4111328-4.7363281-4.4111328-1.6330644 0-2.2722245 5.3573303-2.6181642 6.8613281z"/><path d="m123.9468155 190.1665497-.4882813.1005859c.4944458 4.5581665.0655212 8.0491028.0507813 8.421875.2673798-.1822815 1.5857544-1.6533203 4.0478516-2.0976563l.4697342-.0849609-.3369217-.3378906c-1.8447266-1.8515625-3.069336-3.8154297-3.7431641-6.0019531z"/><path d="m117.7339249 161.1821747-.3369141-.3378906c-1.8447266-1.8515625-3.0693359-3.8154297-3.7431641-6.0019531l-.4882813.1005859c.4944458 4.5581665.0655212 8.0491028.0507813 8.421875.2580032-.175827 1.5858154-1.6529999 4.0478516-2.0976563z"/><path d="m88.7817764 120.3579483c.6867676 3.3514252 6.5774612 2.7836304 7.4833984-3.234375.4486237-2.9809418-.5959702-7.2497787-.7714844-10.2734375-.1563187-2.8110123-.5611191-2.6848755-.6464844-2.9716797-.2147751.1654053-.5987701-.0620956-2.6064453 2.3027344-1.4897232 1.7549438-5.145195 5.1695251-8.234375 10.2822266-.5333252.8787537-1.0436859 1.8084717-1.2109375 2.8173828-.5371398 3.2708282 3.2670747 5.5801391 5.9863282 1.0771484z"/><path d="m117.3159561 116.7661514c.2816315 1.5959244 2.0030441 2.4128189 3.9628906 1.2119141 2.1601563-1.3222656 3.4775391-4.3037109 3.5244141-7.9765625.0313568-2.4628525-.4574738-5.416481-.4414063-7.03125.0039063-.5878906.0078125-1.0957031-.3349609-1.2792969-.2861328-.1533203-.6308594.0361328-.8632813.1933594-.8455276.5711441-7.0833969 5.8873062-10.2353516 10.6572266-.5595703.8466797-1.1025391 1.7773438-1.2832031 2.8398438-.5570296 3.283821 2.8812867 5.2599563 5.6708985 1.3847655z"/><path d="m237.3237762 235.2153778c-9.1882782-31.7697449-18.4602814-63.2815247-31.3242188-95.1542969.4148407-.149353 3.4615936-.9985657 8.3759766-2.578125 1.0693359-.34375 1.2426758-1.4707031.8383789-2.234375.0439453-.6347656-.2602539-1.2910156-1.0400391-1.53125-4.3936615-1.3524628-3.4193115-1.0568542-3.6293945-1.109375-.3291931-2.167038-38.2103119-99.8134613-38.2504883-99.9169922-1.9980469-5.1474609-3.8237305-9.6640625-9.8032227-10.6513672-7.3916016-1.2201576-5.1795654-.2984581-48.0571365-.8720703-3.2190094-.0511532-4.4501724.5146751-5.934082 3.4072266-.0518036.1010113-35.5157394 97.5282135-36.7553711 101.2626953-.6386719 1.9257813-1.4824219 4.052742-1.1757813 5.8154373-1.4350586.484375-1.015625 2.5791016.3222656 2.8476563.2361603.1066437.0976028.0664978 3.7045898.7724609-.3916016.1396484-.7290039.4433594-.8823242.9570313-11.2941437 37.8861389-20.9244041 76.4923248-24.5405235 93.0390625-1.8996086 8.690094.8247948 9.1174774 8.9667969 6.3398438 6.9902306-2.3876953 13.9809532-4.7744141 20.9711876-7.1611328 9.6958008 6.2744141 19.3911133 12.5478516 29.0864258 18.8222656.3208008.9287109.6333008 1.8613281.9550781 2.7890625-.1806641.7382813-.2841797 1.4853516-.237793 2.2363281.4486847 7.2541351 10.074852 2.9918823 19.8471756-.3105469 17.7915039 4.3466644 37.4921875 12.4111176 55.2089844 17.4033051 4.2244415 13.2784729 10.2423248 10.3072815 20.6699219 4.7011719 2.1772461-1.1708984 4.3647461-2.3271484 6.5532227-3.4833984 12.4875336-.5918274 38.7223816-8.7882385 38.8232422-8.8134766 3.0439453-.7607422.3774414-4.6904297-1.2758789-7.1103363-2.6855468-3.9296952-7.5131836-13.5927812-11.4169922-19.4668046zm-81.9228515-210.5390663c11.8560791.3073082 10.8773651.7216606 15.0776367 11.6035156 37.7282715 97.7591248 40.2919464 98.8965149 33.9741211 101.1005859-16.4341125 4.8284302-37.06073 9.1533203-38.6894531 9.1533203-5.1274414-.0351563-7.9750977-5.6582031-9.9560547-9.7177734-4.0011444-8.1996002-3.44104-13.3034363-16.7299805-51.2265701-7.2802734-20.7783203-15.4472733-41.2304649-24.3564529-61.3623009 13.5576248.3798867 27.1225662.095707 40.6801834.4492226zm-44.6074295 220.9345741c-3.3335571-9.6754608-33.7798233-99.2759094-32.2260742-109.5566406 9.9008789 1.9414063 19.7983398 3.9033203 29.6933594 5.8759766-.7824402 1.7223206-1.228035 4.8305054-1.3862305 5.6318359-.4140625 2.4609375-.4990234 4.9550781-.2529297 7.4130859.4366837 4.3844452 3.0437317 5.6327057 4.7939453 4.5751953 1.1464844-.6923828 1.5195313-2.2001953 1.1103516-4.4853516l1.4257813-.5478516c.5543442 2.9249878 3.3051682 3.9165192 4.8876953 2.5869141 1.6310654-1.363678.9559631-3.585495-.0712891-5.4589844-1.7337265-3.1636505-3.2695313-4.947937-4.5390625-6.5332031-.6582031-.8251953-1.3457031-1.6669922-2.0073242-2.3935547 11.5874023 2.3115234 23.1767654 4.6132813 34.771492 6.890625-28.9929505 70.2422334-31.5609284 84.254242-36.1997147 96.0019532zm-32.2973633-112.6210937c16.034668-3.3828125 32.1704102-6.2841873 48.4135742-8.4726639 8.8680496 6.2918472 17.27108 17.4157028 23.9502029 22.8017654-24.1313552-4.7236328-48.2329177-9.6005859-72.3637771-14.3291015zm70.0810623-7.6123123c-6.6508789-1.6621094-13.4335938-2.671875-20.1552734-4.0087891 3.3642578-9.5839844 6.5415039-19.2333984 9.8740234-28.828125 5.3187409 15.5633926 6.1459351 19.6941681 10.28125 32.8369141zm-44.571785-79.4706994c5.8357773-16.8762455 5.9976273-19.1994762 7.8344727-20.8232422 1.8193359 4.1035156 3.6000977 8.2236328 5.3540039 12.3554688-.3833008.4023438-.6010742 1.0654297-.5556641 1.6318359-.0522461-.6503906-.1064453-1.3095703-.3339844-1.9208984-.6218033-1.6670189-2.2647095-2.1681747-4.09375-.6279297-2.4775391 2.0869141-3.3525391 5.5644531-3.2802734 8.8027344.0663528 2.9713287.8057327 5.9113274 1.3398438 9.5214844.0532227.3583984.5009766.5.7490234.2363281 2.8590317-3.0320168 8.2188873-10.8375664 8.6889648-11.6728516 6.0996094 14.6806641 11.7861404 29.5283165 17.0190506 44.5419884-.0097656.0234375-.0229492.0419922-.0317383.0673828-3.9624023 11.2148438-7.621582 22.5332031-11.5815506 33.7490234-17.1987305 2.3701172-34.2753906 5.4931641-51.2451172 9.1552811-.8515166-5.9179992 7.1052247-18.4058456 30.1367188-85.0166054zm-49.4853477 187.7724648c-4.2299805-.0957031-2.2504883-4.5166016-1.5722656-7.4404297 6.5059547-28.0253143 13.8761864-56.087204 22.5380821-85.4130859.5332336 6.9924469 18.4781723 63.7326965 23.0839844 77.8125-48.4075356 16.5294952-42.3994408 15.0780334-44.0498009 15.0410156zm57.5585899 17.0566406c1.9000626-3.1120453 9.2391129-30.8876495 37.3051834-99.0957031 5.5527344 21.40625 11.4711914 42.7158203 17.7963867 63.90625 2.9501495 9.8911438-1.1289063 18.3952942-5.1743164 20.9033203-4.2018127 2.6057587-38.591217 14.1654968-40.4003983 14.7392578-5.7398528 1.8208161-9.5088195.984314-9.5268554-.453125zm52.0791092-12.0078125c4.0325623-2.8027802 5.5032043-6.8906097 6.4658203-11.8408203 1.3530273 4.4277344 2.7260742 8.8496094 4.1132813 13.2666016-4.1152344-1.5634766-7.4838867-1.8603516-10.5791016-1.4257813zm32.3217774 36.3124848c-6.5952148 2.2460938-7.7583008-1.546875-9.3051758-6.1171875-10.4608612-30.9183197-23.5166626-74.182724-34.9521484-118.2861176 3.579834.6962128 3.7140503.8426361 4.3325195.5263672.0268555-.0029297.0512695 0 .078125-.0039063 15.715332-2.4443359 31.2226563-5.8828125 46.4882813-10.2705078 14.9915314 37.1468658 33.3456268 100.1868896 34.378418 105.7714844.8173828 4.4179688-.2529297 6.1191406-3.5566406 8.2490234-.2998811.1932984-37.192093 20.0384064-37.463379 20.1308442z"/><path d="m184.6211395 158.0210419c-.6938477 7.8310547-1.1162109 10.2021484-3.6274414 15.5429688 4.6928711 3.4462891 7.5405273 6.5654297 11.7001953 11.2509766.637207-5.34375 1.628418-10.0800781 3.4663086-15.4335938-4.046875-2.6386719-7.75-6.6503907-11.5390625-11.3603516z"/><path d="m203.4497528 222.1968231c-.6938477 7.8300781-1.1162109 10.2011719-3.6274414 15.5429688 4.6928711 3.4453125 7.5405273 6.5644531 11.7001953 11.2509766.637207-5.3447266 1.628418-10.0800781 3.4663086-15.4335938-4.0463867-2.6386719-7.75-6.6513672-11.5390625-11.3603516z"/></g></g></svg>