<svg id="Layer_1" enable-background="new 0 0 300 300" height="512" viewBox="0 0 300 300" width="512" xmlns="http://www.w3.org/2000/svg"><g id="Mission"><g><path d="m71.3852997 160.553894c-3.3144531 2.6210938-4.5634766 8.1821289-5.6655273 11.9990234-1.121582 3.8857422-3.5825195 10.5849609-2.0078125 14.6186523.7963867 2.0405273 2.2167969 2.7563477 3.8681641 3.0195313-.6582031 7.2617188-.4091797 14.4130859.7314453 21.3510742-6.6264648.5844727-2.6186523 9.7509766-1.6289063 13.3920898.6435547 2.3671875 1.0703125 5.6098633 3.2285156 7.1777344 1.5263672 1.1088867 3.3466797 1.1342773 4.7890625.1499023 2.6313477 5.6123047 5.972168 10.9580078 9.9775391 15.9819336-2.6591797 2.1513672-5.2363281 4.4838867-4.9067383 8.0649414.4458008 4.8364258 7.0932617 8.9599609 10.5 11.6118164 3.4077148 2.6523438 9.0219727 7.4287109 13.809082 5.8447266 2.2119141-.7324219 4.2324219-3.0205078 6.0014648-5.5615234 15.6714096 7.3955688 42.7706299 13.4723511 63.4682617 7.784668.5708008.8110352 1.3911133 1.4716797 2.4726563 1.8745117 3.5097656 1.3061523 7.7460938-.7304688 10.831543-2.2963867 4.0224609-2.0419922 12.234375-6.6264648 9.7084961-11.0375977 6.1518555-4.559082 11.6254883-10.0292969 16.4882813-16.2700195 1.0249023-1.3154297 1.9775391-2.6777344 2.8979492-4.0600586 1.4628906-.6621094 2.8959961-1.4458008 4.1469727-2.3276367 5.0820313-1.0810547 8.0126953-9.527832 10.0825195-14.5283203 1.9492188-4.7084961 5.6401367-11.9521484 4.1474609-17.2314453-.8378906-2.9638672-3.2255859-4.1791992-5.8833008-4.6616211.7068939-11.5635376-.747757-22.7667999-4.4208984-33.6113281 3.9721222-5.778717 1.8715057-8.9863586-1.3061523-15.2119141-1.0112305-1.980957-2.003418-4.1040039-4.2529297-4.8886719-1.5200195-.5302734-3.0205078-.3256836-4.4414063.2060547-2.5063477-3.5942383-5.3110352-6.9506836-8.3881836-10.0444336 6.1210938-5.574707-7.4921875-12.2900391-11.3085938-14.5224609-3.7949219-2.2197266-14.0327148-8.4204102-17.4541016-3.4799805-4.6943359-1.4414063-9.4521484-2.1274414-14.519043-2.5014648 0-7.6469727 0-15.293457 0-22.9404297 9.9044037-9.4404678 15.0044098-14.5173798 28.7973633-15.699707.1152344.015625.2304688.0332031.3457031.0507813-.0385742.1079102-.0678711.2231445-.0839844.3476563-.8637695 6.6240234.2875977 14.199707 6.7348633 17.7163086 6.4824219 3.5361328 14.762207 4.315918 21.7124023 1.9477539 4.2892456-1.4608841 7.6478424-3.8720322 10.4238281-7.7836914 2.8808594-4.0585938 4.0371094-8.5942383 4.875-13.5 1.4663086-8.5800781 2.125-24.9584923 1.25-26.6249962-.9541016-1.8168945-1.6044922-3.3862305-2.2006836-5.2001953-.0102539-.4858398-.0166016-.9736328-.0283203-1.4589844-.0297852-1.2338867-1.659668-2.0639648-2.5605469-1.0605469-6.2421875 6.9511719-17.0991211 8.5600586-24.2797852 2.0678711-.734375-4.6645508-2.40625-9.1171875-5.9741211-12.4394531-11.6147461-10.8164082-27.7392578-3.4638672-39.0117188 3.9785156 0-.980957 0-1.9619141 0-2.9423828 4.2421875-.137207 7.2910156-3.7939453 6.5849609-8.0742207-.7651367-4.6425781-5.0571289-7.4375-9.4863281-7.9658203-5.2212372-.622961-10.7953491 1.8477325-12.2304688 6.9663086-2.4386597 6.1240902.7973022 10.7706203 4.5766602 11.2592793.9729462 33.0070457.8197632 59.7218666.8261719 73.8354492-8.6801758-2.0449219-31.9345703-2.7504883-28.6123047 9.1923828-5.5727539 1.6933594-10.9482422 3.9169922-16.0268555 6.6474609-2.6318359-5.9912109-11.3857422 1.3369141-14.4287109 3.3857422-2.3217773 1.5629883-6.2114258 3.3515625-7.1328125 6.2910156-.6582031 2.0996094.2436523 4.003418 2.0244141 4.9311523-4.3540039 4.4428711-8.1811523 9.4335938-11.3676758 14.9291992-1.9584958-.3393592-3.9208982-.0996131-5.6928708 1.301754zm1.90625 68.9956055c-2.0151367 2.0849609-4.090332-6.7890625-4.2382813-7.3344727-.253418-.9321289-2.5981445-7.5463867-.6245117-7.6865234.1494141-.0107422.2832031-.0439453.409668-.0864258 1.0395508 5.1362305 2.574707 10.1425781 4.6103516 14.9741211-.0527344.0424805-.1064454.0805664-.1572266.1333008zm18.8120117 35.9970703c-1.5371094-1.1977539-3.0078125-2.4648438-4.4648438-3.7578125-1.7705078-1.5708008-2.5415039-2.0585938-2.9008789-3.4619141 6.2285156 2.5732422 11.6967773 6.4516602 16.1328125 11.6484375.1772461.2070313.371582.3364258.5708008.4125977-3.2553711-.0288086-6.7143554-2.7973633-9.3378906-4.8413086zm67.2475586-229.3515587v98.6586914c-1.2348633 1.0004883-2.4746094 1.3413086-3.7202148 1.0380859-.0014648-33.3125-.0395508-66.6254883-.0395508-99.9379883zm27.7861328 235.8066368c-1.4541016.8496094-2.9707031 1.6132813-4.546875 2.2089844-.9296875.3515625-4.1264648 1.4287109-5.8642578.8056641 5.364502-1.7961426 11.3132935-4.6621704 16.8930664-8.3999023-.4858398 2.1503906-5.2827148 4.6845703-6.4819336 5.3852538zm43.8833008-56.4458007c-.6171875 2.890625-1.6606445 5.7504883-2.7333984 8.4975586-1.1499023 2.9453125-4.3149414 13.7304688-9.0107422 14.6303711 4.9521484-9.1831055 7.8623047-19.4433594 8.8999023-29.9077148 2.4907227 1.0410155 3.5742188 3.3618163 2.8442383 6.7797851zm-11.5712891-58.7285157c.8647461 1.0551758 1.4155273 2.746582 1.9838867 3.9624023 1.3245087 2.8323364 2.508316 4.6846313 1.2822266 7.4511719-1.8588867-4.7456055-4.1401367-9.2402344-6.8041992-13.4472656 1.171875-.0302734 2.3081055.5327149 3.5380859 2.0336914zm-26.6386718-26.859375c1.5761719.921875 12.8867188 6.5893555 10.5664063 9.7675781-7.0755768-6.5640717-15.5209045-11.7167053-23.1738281-14.6894531 3.2216796-1.3842773 10.8559569 3.897461 12.6074218 4.921875zm38.4174804-78.3081016c.4944 34.3544807-1.3043671 42.5159645-8.7060547 46.7343712-6.1274414 3.4921875-13.1015625 3.3984375-19.6323242 1.1821289-2.4174805-.8203125-4.2495117-2.0317383-5.5991211-3.5395508-.5537109-1.3994141.5664063-2.7617188 1.7924805-2.9907227 2.8554382-.533844 7.4263458-1.0173569 7.6381836-6.277832.3854675-9.6102753 1.4697418-25.951519 1.0390625-33.4741173 7.2802734 4.6694336 16.7519531 3.7680664 23.4677734-1.6342773zm-68.8427734-7.2797852c10.5698242-7.2421875 30.0258789-17.2543964 39.3535156-2.3984375 4.2945099 6.839119 3.235611 13.6994171 2.0898438 42.1040001-13.9628906-8.3740234-30.8549805-4.9702148-41.4775391 7.0263672 0-15.5708008 0-31.142086 0-46.7133751.0112305-.0073242.0224609-.0107422.0341797-.0185547zm-9.762207 72.6103478c.0004883 1.1357422.0009766 2.2714844.0014648 3.4077148-8.6499023-.7792969-17.2329102-.2426758-25.7231445 1.6679688-1.3959961-8.3427735 19.5029297-6.6191407 25.7216797-5.0756836zm-55.834961 17.5429687c1.0341797-.6967773 7.3164063-5.8256836 8.5249023-3.3188477-5.3032227 3.1035156-10.2348633 6.784668-14.6933594 10.9916992-.1655273-.2026367-.3901367-.3720703-.6928711-.4750977-3.0416717-1.0364379 4.1973496-5.4036101 6.8613282-7.1977538zm31.4316406-9.5483398c.1948242-.0507813.359375-.1328125.4990234-.2348633 7.9111328-1.6699219 15.8652344-2.0805664 23.9067383-1.3535156.0014648 3.6606445.0043945 7.3212891.0043945 10.9814453-.4711914-.6611328-.8530273-1.4179688-1.1015625-2.2744141-.5361328-1.8505859-3.4321289-1.0634766-2.8925781.7973633 2.1000977 7.2446289 10.472168 9.6064453 16.1660156 4.7763672 1.4746094-1.2504883-.65625-3.3632813-2.1210938-2.1210938-.1074219.0908203-.2202148.1630859-.3295898.246582 0-3.6108398 0-7.2216797 0-10.8325195 33.8222656 7.8720703 59.4306641 35.8066406 60.9106445 71.2270508 2.3118134 55.352066-54.364624 96.4075012-111.5283203 69.4785156 1.0839844-1.7416992 2.046875-3.4052734 2.862793-4.5800781 1.1040039-1.5893555-1.4956055-3.0908203-2.590332-1.5141602-1.9116211 2.7519531-3.8320313 5.5014648-5.8330078 8.1894531-1.1264648 1.5136719-2.3759766 2.2729492-3.6772461 2.5205078.7729492-.4272461 1.2519531-1.5527344.496582-2.4379883-5.0292969-5.8916016-11.3857422-10.1508789-18.5664063-12.8623047-.0776367-2.9926758.3427734-2.9648438 2.7983398-4.9082031 1.2226563-.9672852 2.3540039-1.8999023 3.3876953-3.0737305 1.2714844-1.4438477-.8422852-3.5737305-2.121582-2.1210938-.4428711.5024414-.9594727.9863281-1.5087891 1.4638672-12.8369141-16.0234375-18.2202148-35.6098633-16.4160156-55.9892578 1.3051758.0214844 2.6147461.065918 3.7768555.472168 1.8261719.6381836 2.6113281-2.2587891.7973633-2.8925781-2.0391922-.7127838-3.9028931.0558014-5.9926758-.5068359 3.2473984-5.4362488 5.3147964-11.4638062 6.1743164-17.9067383.2539063-1.9077148-2.7485352-1.8891602-3 0-.7617188 5.7089844-2.6225586 10.9716797-5.4760742 15.887207-.9858398-2.4394531.3217773-6.2822266.862793-8.5952148.612793-2.6186523 1.3740234-5.2045898 2.2832031-7.7358398.4755859-1.3227539.7973633-3.5234375 1.8901367-4.4985352 2.9228516-2.6083984 6.2695313-2.1772461 9.3325195-.5825195 1.7104492.8901367 3.2294922-1.6977539 1.5141602-2.590332-.8564453-.4458008-1.7597656-.890625-2.6870117-1.2695313 10.588379-17.824707 28.2089845-29.9399413 48.178711-35.1591796z"/><path d="m80.4033661 206.6754761c-.9077148 3.8051758-.1699219 8.9760742.527832 12.2231445 1.0400391 4.840332 3.1801758 9.4501953 6.3198242 13.2802734 1.2998047 1.5800781 2.9199219 3.1196289 4.9599609 3.3398438 2.7202148.2900391 5.0400391-2.9199219 6.25-5.3701172.6391602-1.2944336 1.0805664-2.4052734 1.5229492-3.5302734 7.1684875-7.0599213.8511429-22.4942627-6.4692383-27.9521484-6.8593062-5.1143342-13.2093581-1.3970338-13.111328 8.0092773zm8.1772461-7.2949219c5.4106445.8603516 8.7626953 8.5854492 10.2441406 13.0268555 1.144043 3.4291992 2.0493164 7.3320313.03125 10.5688477-.8178711 1.3120117-1.7216797 2.0366211-2.6542969 2.3208008.5854492-7.1245117-2.2788086-15.4501953-9.5576172-17.5751953-1.8569336-.5419922-2.6499023 2.3520508-.7973633 2.8930664.1547852.0449219.2958984.1113281.4458008.1645508-.5527954 4.0685425 4.0708313 10.8836823 6.9956055 11.6079102.0478516.8457031.0405273 1.6806641-.0249023 2.487793-1.7504883-.9548035-5.8035812-5.1454468-7.9389648-10.3950195-1.4082032-3.4609377-4.522461-16.336426 3.2563476-15.0996096z"/><path d="m176.2812958 227.5700073c.0205078.3417969.1357422.6206055.3056641.8413086-.3549805 2.440918-.5092773 5.1459961-.0883789 7.059082.65625 2.9829102 2.6362305 7.796875 4.8364258 9.9155273 4.2861328 4.1264648 11.3696289 5.0522461 16.324707 1.7592773 3.9418945-2.6201172 6.4106445-7.0507813 7.1831055-11.7475586 5.799118-10.6835632-1.6803436-23.6700134-13.5019531-23.9360352-8.9145509-.2006834-15.5830079 7.3925783-15.0595704 16.1083986zm27.477539-1.0996094c.4580078 5.9868164-3.1567383 12.2197266-9.1889648 13.84375-5.3769531 1.4472656-10.5004883-.7138672-13.15625-4.859375.0991211-.1455078.1796875-.3173828.2255859-.527832.3076172-1.4125977.7753906-2.8417969 1.3862305-4.203125.28125.878418 1.0644531 1.5888672 2.6020508 1.9306641 3.7841797.8417969 8.5922852-2.2626953 10.6196289-5.2080078.8110352-1.1777344 1.4023438-2.7905273.625-3.9907227-.0249023-.0385742-.0639648-.0620117-.0908203-.0981445.3652344.1572266.7329102.3305664 1.1064453.5375977 1.6899414.9365234 3.2050781-1.6533203 1.5141602-2.5908203-8.9047852-4.9350586-16.6000977 1.375-19.6967773 9.5981445-.320694-2.0102692.0001526-2.2042389-.4873047-2.8037109.0478516-.1577148.0751953-.3305664.0634766-.5288086-.9897462-16.4848634 23.2602538-17.0004884 24.4775389-1.0996095z"/><path d="m105.0561981 159.8810425c-1.4394531-1.2773438-3.5688477.8369141-2.1210938 2.121582 5.090332 4.5170898 11.3354492 1.9609375 16.2407227-1.5727539 5.8334961-4.2026367 9.9897461-10.1137695 9.6611328-17.5249023-.0849609-1.9233398-3.0854492-1.9335938-3 0 .0927734 2.0922852-.2172852 4.0375977-.8598633 5.8432617-2.3983002.0926819-9.4152985 3.3447266-13.1479492 7.5229492-2.3828125 2.6665039-3.6459961 5.8212891 1.1455078 4.4169922-2.6992187 1.109375-5.5463867 1.2978515-7.918457-.8071289z"/><path d="m138.9477997 185.6686401c-4.5605469.612793-7.9404297 4.1567383-9.7729492 8.1689453-.7963867 1.7436523 1.7880859 3.2700195 2.590332 1.5141602 1.1455078-2.5078125 2.7929688-4.8486328 5.3681641-6.0537109 10.5092163-4.9184418 16.0510559 13.7391205-3.1357422 12.9707031-1.9306641-.0771484-1.9272461 2.9228516 0 3 4.628418.1855469 9.6503906-.6850586 12.887207-4.3085938 2.5566406-2.8613281 3.6313477-7.230957 1.7421875-10.722168-1.8388672-3.399414-5.9350586-5.0727538-9.6791992-4.5693359z"/><path d="m216.0913544 190.3478394c.8334961-1.7319336-1.7524414-3.2553711-2.590332-1.5141602-4.1371765 8.5953217-20.412262.4987488-17.9052734-10.9384766.4125977-1.8818359-2.4790039-2.6855469-2.8925781-.7978516-3.3088685 15.0930329 17.8139342 24.8322449 23.3881835 13.2504884z"/><path d="m176.2407684 248.0475464c-5.8999023-2.4150391-12.2885742.2763672-15.4057617 5.6416016-.972168 1.6723633 1.6196289 3.1845703 2.590332 1.5136719 5.6538086-9.7304688 21.6982422-3.2011719 15.7211914 7.6411133-.9326172 1.6918945 1.6572266 3.2070313 2.590332 1.5141602 3.4794923-6.3115236 1.4331056-13.473633-5.4960937-16.310547z"/><path d="m89.8452606 174.0617065c3.7231445 2.9057617 4.5415039 7.5229492 1.9072266 11.5029297-1.0683594 1.6147461 1.5288086 3.1186523 2.590332 1.5141602 3.2919922-4.9736328 2.3525391-11.4472656-2.3764648-15.1386719-1.5043946-1.1743164-3.6420899.9345703-2.1210938 2.121582z"/><path d="m138.0415497 228.8317261c-13.8453369-2.1683655-20.8927994 14.1755524-18.4858398 22.3574219-.1137695 5.7358398 3.4716797 12.159668 8.6474609 14.2880859 5.7919922 2.3813477 11.6518555-.2617188 15.7275391-5.0166016 1.2661133-1.4770508 3.0107422-5.3676758 4.0683594-8.8310547 5.4899139-9.8558197-.3936768-21.2989196-9.9575196-22.7978515zm8.8935547 16.8120117c-1.2124023 6.9008789-7.394043 12.4082031-14.5551758 12.2001953-8.3939209-.2431641-11.0962296-7.5916443-9.5786438-14.4424133 1.3703384-6.1860657 6.1813965-11.9663239 13.3496399-11.7431335 7.1206055.2211913 11.9711914 7.2280273 10.7841797 13.9853515z"/><path d="m98.8799286 176.4845581c2.4121094 1.6015625 8.4711914.9648438 11.1933594-.0229492 6.6235352-2.4042969 7.1269531-2.9912109 12.7368164-7.2553711 4.0385742-3.0698242 8.4384766-8.237793 11.5908203-13.5205078 2.5077362-3.3124847 4.517868-6.3331146 4.8476563-10.2768555 1.4179688 1.1196289 3.0678711 1.9619141 4.7797852 2.4628906 1.8569336.543457 2.6499023-2.3505859.7978516-2.8925781-2.152832-.6298828-4.3330078-1.96875-5.5830078-3.8686523-.1665039-.253418-.3740234-.421875-.597168-.5322266-1.5200195-4.2241211-5.6479492-7.2172852-11.6821289-6.9467773-10.1625977.4555664-19.9267578 6.7280273-25.4013672 15.0454102-1.0644531 1.6171875 1.5322266 3.1220703 2.590332 1.5141602 3.9204102-5.9560547 9.3579102-9.800293 16.0864258-12.0429688 4.078125-1.359375 9.3657227-2.7197266 13.2519531.0058594 4.9584961 3.4785156 2.8730469 9.5698242.0068359 13.5922852-4.0039063 5.6196289-9.5234375 11.0415039-15.5029297 14.4819336-3.0600586 1.7607422-6.9550781 3.5830078-10.5800781 3.2050781-7.84375-.8173828-7.9960938-8.9970703-6.0498047-14.6606445.6289063-1.8295898-2.2675781-2.6157227-2.8925781-.7973633-.6923828 2.015625-1.0380859 4.1088867-1.0371094 6.1313477-.8212891 3.2631836-1.5043945 6.9350586-1.4179688 9.4316406.090332 2.6030272.6918945 5.5058592 2.8623047 6.9462889z"/><path d="m162.4126434 161.5895386c1.6206055-2.4282227 4.2387695-3.9360352 7.152832-4.1157227 1.9179688-.1181641 1.9311523-3.1191406 0-3-4.0195313.2475586-7.5078125 2.2514648-9.7431641 5.6015625-1.0747069 1.6103516 1.522461 3.1142578 2.5903321 1.5141602z"/><path d="m152.5371552 171.9039917c.9356842 7.2767029 4.7815399 11.144516 11.8696289 11.9985352 6.2919922.7578125 12.8691406-1.2758789 17.6352539-5.4526367 3.1318359-2.7446289 4.6591797-6.1337891 5.3632813-9.9311523 5.9497528-10.3909149-3.4493561-19.3138733-10.6918945-20.4018555-10.556488-1.5880127-21.6997681 2.2343292-23.3095703 12.7324219-1.2304689 3.0034179-1.0585939 9.5605468-.8666993 11.0546874zm4.078125-11.7910156c2.2880859-8.2036133 11.5908203-10.1435547 18.9257813-9.1489258.6215973.3713074 15.3978271 4.6589203 9.4838867 15.6875-3.2788086 6.1157227-11.2587891 9.6811523-18.0244141 8.3613281-6.6689454-1.3012695-12.3461914-7.8696289-10.3852539-14.8999023z"/></g></g></svg>