<svg id="Layer_1" enable-background="new 0 0 300 300" height="512" viewBox="0 0 300 300" width="512" xmlns="http://www.w3.org/2000/svg"><g id="Updates_1_"><g><path d="m262.3137817 162.2476807c-6.7060394-6.0317383-14.9951019-8.7094727-23.8740082-9.5400391-.4570313-.0424805-.8007813.0981445-1.0395508.3344727-.2402344-.2460938-.5820313-.4067383-1.0336914-.3984375-15.96875.3076172-31.0175781 9.8115234-37.152832 24.7529297-6.4238281 15.6430664-2.3925781 34.2768555 10.3613281 45.4726563 12.0830078 10.6069336 29.171875 13.222168 43.7700195 6.3969727 15.503891-7.2490234 25.0419769-23.8432617 22.522934-40.9296875-1.4243163-9.6616212-6.2470703-19.51709-13.5541992-26.0888673zm-34.2919769 66.5971679c-5.3139648-1.3310547-10.2915039-3.8193359-14.5683594-7.2006836 1.8530273-3.3271484 6.284668-3.0146484 9.3549805-1.3530273 1.9838867 1.0737305 8.5600586 5.8071289 5.2133789 8.5537109zm42.4428558-21.5688476c-1.9013672.6376953-3.9589844-.9360352-3.2963867-2.9926758.6694336-2.078125 3.3637695-2.2333984 4.4780273-.4516602.0141602.0219727.0336914.03125.0483398.0507813-.3383789 1.1489258-.7348633 2.2792969-1.1850586 3.3881836-.0156249.0043945-.0283202 0-.0449218.0053711zm1.697754-5.1196289c-1.9731445-1.7412109-5.2875977-1.2919922-6.3374023 1.4404297-1.0756836 2.7988281 1.2363281 5.4838867 3.96875 5.3276367-6.8445129 14.7106018-23.2346649 23.6808014-40.050766 20.3066406 2.2250977-3.1523438-2.519043-7.9418945-5.2719727-9.6938477-3.9135742-2.4907227-9.644043-2.9741211-12.1767578 1.1518555-9.8574219-8.4272461-15.5522461-21.7626953-12.128418-36.4482422 3.9038086-16.7436523 19.215332-28.2700195 36.2006836-28.597168.4594727-.0087891.8066406-.1889648 1.0473633-.453125.2387695.2749023.578125.4755859 1.0258789.5170898 16.1879883 1.5136719 28.1664886 11.3237305 33.0546722 26.9213867 2.043457 6.5195314 2.1860352 13.2509767.6679688 19.5273439z"/><path d="m253.8943634 170.4644775c-.2089844-.2392578-.5400391-.359375-.8930664-.144043-3.1386719 1.9165039-4.4135742 5.9619141-2.4194336 9.1889648 1.909668 3.090332 5.882309 4.0585938 9.0458832 2.3505859 3.1601563-1.7060547 4.487793-5.8554688 2.7709961-9.0585938-1.6401367-3.0620115-5.5747071-3.9980467-8.5043793-2.3369139zm4.9765472 10.100586c-5.753891 3.0742188-10.6318207-5.1235352-5.4267426-8.7368164.2084961.234375.5336914.3461914.8774414.1220703 2.2787933-1.4853516 5.4633636-.8837891 6.7822113 1.6079102 1.3217774 2.4970703.1992189 5.7070312-2.2329101 7.0068359z"/><path d="m242.5833282 207.9293213c-.1420898.0317383-.2446289.097168-.328125.1757813-1.0567169-.6278229-3.526474 2.3560638-1.9804688 5.0341797 1.078125 1.8691406 3.6176758 2.4926758 5.5786133 1.8256836 1.8974609-.6455078 3.4116211-2.5986328 2.7270508-4.6420898-.8447265-2.5219728-3.7592773-2.8935548-5.9970703-2.3935548zm2.5122071 5.6982422c-1.1816406.2988281-2.7236328-.0332031-3.4394531-1.097168-.6962891-1.0356445-.4321289-2.4887695.6459961-3.1274414.0561523-.0327148.0874023-.0771484.1293945-.1166992.1499023.0917969.3334961.1381836.5507813.0893555 1.4052734-.3139648 3.331543-.3203125 4.0766602 1.1918945.7070311 1.4345703-.6645509 2.7314453-1.963379 3.0600586z"/><path d="m217.3396759 169.0718994c.0878906-.5449219-.4858398-1.1689453-1.1064453-.8037109-14.9868469 8.8203735-7.9353638 25.7850647 3.3100586 23.734375 13.9824219-2.5488281 10.2866211-27.2773438-2.2036133-22.9306641zm-.815918 21.4838867c-7.8089142-1.1307983-11.6916809-13.3780365-.0698242-20.6625977-.0292969.4814453.3325195.972168.8989258.7509766 11.7294922-4.5874023 14.362793 22.1108399-.8291016 19.9116211z"/><path d="m216.1238556 201.3897705c-.9658203-.015625-.9658203 1.484375 0 1.5 1.2641602.0205078 2.2954102 1.1157227 2.2773438 2.3710938-.0136719.965332 1.4863281.9658203 1.5 0 .0297851-2.0761719-1.7109376-3.8378907-3.7773438-3.8710938z"/><path d="m243.8987579 161.7125244c.7563477-.578125.0102539-1.8818359-.7573242-1.2949219-1.0766602.8232422-2.6992188.6713867-3.4638672-.5097656-.5229492-.8076172-1.8222656-.0566406-1.2954102.7568359 1.1694337 1.8061524 3.7656251 2.3867188 5.5166016 1.0478516z"/><path d="m250.0930939 192.6724854c.1171875.7495117-.4370117 1.4912109-1.137207 1.6967773-.9243164.2709961-.53125 1.7192383.3984375 1.4462891 1.5498047-.4545898 2.4301758-1.9750977 2.1855469-3.5419922-.1262055-.8018341-1.62706-.7593689-1.4467774.3989258z"/><path d="m257.5794067 215.0797119c-1.2128906.3178711-2.1069183 1.1762695-2.5717621 2.324707-.305603.7532959 1.00383 1.491745 1.4462738.3984375.2646484-.6538086.8569336-1.1020508 1.5244141-1.2768555.9331055-.2441405.5375977-1.6914062-.3989258-1.446289z"/><path d="m118.9705353 90.8311768c12.0830078 10.6069336 29.1723633 13.222168 43.7700195 6.3969727 15.5039063-7.2485352 25.0419922-23.8432617 22.5229492-40.9291992-1.4243164-9.6621094-6.2470703-19.5170898-13.5541992-26.0893536-6.7060547-6.03125-14.9951172-8.7094727-23.8740234-9.5395508-.4570313-.0424805-.8007813.0981445-1.0395508.3344727-.2402344-.246582-.5820313-.4072266-1.0336914-.3984375-15.96875.3076172-31.0175781 9.8110352-37.152832 24.7524395-6.4238282 15.6435546-2.3925782 34.2768554 10.3613281 45.4726562zm18.4467773 5.9760742c-5.3139648-1.3310547-10.2915039-3.8193359-14.5683594-7.2011719 1.8530273-3.3271484 6.284668-3.0146484 9.3549805-1.3525391 1.9838867 1.0737305 8.5600586 5.8071289 5.2133789 8.553711zm22.0712891-36.1728516c-.1829224-1.1738091 1.3243866-1.1760559 1.4467773-.3984375.2446289 1.5664063-.6357422 3.0874023-2.1855469 3.5419922-.9296875.2724609-1.3227539-1.175293-.3984375-1.4467773.7001954-.2050782 1.2543946-.9472657 1.1372071-1.6967774zm.3139648-15.7333984c-.3500977-2.3398438.8798828-4.8496094 2.9697266-5.9697266l.5703125.3300781c2.1098633-1.5703125 5.4101563-1.1103516 7.1298828.8798828 1.7202148 2 1.75 5.2001953.1801758 7.3198242-1.4101563 1.9101563-3.9902344 2.8803711-6.300293 2.340332-2.2998047-.5302733-4.199707-2.5600585-4.5498047-4.9003905zm4.600586 40.465332c.4648438-1.1479492 1.3588867-2.0063477 2.5717773-2.324707.9365234-.2451172 1.3320313 1.2021484.3989258 1.4467773-.6674805.1748047-1.2597656.6225586-1.5244141 1.2768555-.4507751 1.1123886-1.7390442.3236313-1.446289-.3989258zm11.5292968-11.0849609c-.6699219-1.4902344.0400391-3.4604492 1.5102539-4.1899414 1.2807617-.6411133 2.96875-.2412109 3.9042969.8320313-.472168 1.7724609-1.0766602 3.5053711-1.8100586 5.184082-1.4199218.2724609-3.0092773-.4931641-3.6044922-1.8261719zm-18.5297851 4.9199218c.0800781 1.4897461-1.2602539 2.75-2.7099609 3.1098633-1.5600586.3901367-3.3901367-.1098633-4.2900391-1.4399414s-.5200195-3.4399414.9199219-4.1499023l.8598633-.1103516c3.1917419-.8037643 5.1254424.8390961 5.2202148 2.590332zm-8.3295899-51.3310527c.7646484 1.1811523 2.387207 1.3330078 3.4638672.5092773.7675781-.5864258 1.5136719.7167969.7573242 1.2954102-1.7509766 1.3388672-4.347168.7583008-5.5166016-1.0478516-.5263671-.8134766.772461-1.5644531 1.2954102-.7568359zm-39.5117187 24.3330059c3.9038086-16.7441406 19.215332-28.2700176 36.2006836-28.5971661.4594727-.0087891.8066406-.1889648 1.0473633-.453125.3570709.4111042.7606201.4961796 1.2285156.5429688-.9736633 3.7623196-1.4396057 20.617506-5.5117188 74.0170898-1.1401367-.1196289-2.2695313-.2954102-3.3876953-.5200195 2.2250977-3.1518555-2.519043-7.9414063-5.2719727-9.6938477-3.9135742-2.4907227-9.644043-2.9736328-12.1767578 1.1523438-9.8569335-8.427248-15.552246-21.7631855-12.1284179-36.4482441z"/><path d="m128.938797 59.9649658c13.9824219-2.5493164 10.2866211-27.277832-2.2036133-22.9306641.0878906-.5454102-.4858398-1.1694336-1.1064453-.8037109-14.9829483 8.8166657-7.9388657 25.7847786 3.3100586 23.734375zm-3.0893555-22.109375c-.0292969.4814453.3325195.972168.8989258.7504883 11.7294922-4.5874023 14.362793 22.1108398-.8291016 19.9116211-7.7107849-1.1157951-11.7606735-13.3333588-.0698242-20.6621094z"/><path d="m125.5193634 69.3521729c-.9658203-.015625-.9658203 1.484375 0 1.5 1.2641602.0200195 2.2954102 1.1157227 2.2773438 2.3706055-.0136719.9658203 1.4863281.9663086 1.5 0 .0297851-2.0756837-1.7109375-3.8374024-3.7773438-3.8706055z"/><path d="m173.6331329 216.8204346c-.2089844-.2392578-.5400391-.359375-.8930664-.144043-3.1386719 1.9165039-4.4130859 5.9614258-2.4194336 9.1889648 1.909668 3.090332 5.8823242 4.0581055 9.0463867 2.3505859 3.1601563-1.7060547 4.4873047-5.8554688 2.7705078-9.059082-1.6401367-3.0615234-5.5742187-3.9975585-8.5043945-2.3364257zm4.9765625 10.1000976c-5.7539063 3.074707-10.6318359-5.1230469-5.4267578-8.7363281.2084961.234375.5336914.3461914.8774414.1220703 2.2788086-1.4853516 5.4633789-.8837891 6.7822266 1.6079102 1.3217773 2.4970703.1992187 5.7070312-2.2329102 7.0063476z"/><path d="m162.3220978 254.2852783c-.1420898.0317383-.2441406.097168-.328125.175293-1.0579376-.6259613-3.5257111 2.3558044-1.9804688 5.034668 1.078125 1.8686523 3.6176758 2.4926758 5.5786133 1.8256836 1.8974609-.6455078 3.4116211-2.5986328 2.7270508-4.6425781-.8447266-2.5214844-3.7592774-2.8935548-5.9970703-2.3930665zm2.512207 5.6982422c-1.1816406.2988281-2.7236328-.0336914-3.4389648-1.097168-.6967773-1.0356445-.4326172-2.4892578.6455078-3.1274414.0561523-.0332031.0874023-.0771484.1293945-.1166992.1499023.0917969.3334961.1376953.5507813.0893555 1.4052734-.3139648 3.331543-.3203125 4.0766602 1.1914063.7070312 1.4350585-.6645509 2.7319335-1.963379 3.0605468z"/><path d="m163.6375275 208.0684814c.7563477-.5786133.0102539-1.8818359-.7573242-1.2949219-1.0766602.8232422-2.6992188.6713867-3.4638672-.5097656-.5229492-.8076172-1.8217773-.0566406-1.2954102.7568359 1.1694336 1.8061524 3.765625 2.3867188 5.5166016 1.0478516z"/><path d="m169.8318634 239.0279541c.1171875.75-.4370117 1.4916992-1.137207 1.6972656-.9243164.2709961-.53125 1.71875.3984375 1.4462891 1.5498047-.4545898 2.4301758-1.9750977 2.1855469-3.5419922-.126297-.8087158-1.6274567-.7610626-1.4467774.3984375z"/><path d="m177.3181915 261.4356689c-1.2128906.3178711-2.1069336 1.1762695-2.5717773 2.3242188-.3061981.7557678 1.0041962 1.4913025 1.4462891.3989258.2646484-.6538086.8569336-1.1020508 1.5244141-1.2768555.9331054-.2446289.5375976-1.6918945-.3989259-1.4462891z"/><path d="m158.1785431 199.0635986c-.4570313-.0424805-.8007813.0981445-1.0395508.3344727-.2402344-.2460938-.5820313-.4072266-1.0336914-.3984375-15.96875.3076172-31.0175781 9.8115234-37.152832 24.7529297-6.4233398 15.6430664-2.3925781 34.2768555 10.3613281 45.4726563 12.0830078 10.6069336 29.1723633 13.2216797 43.7700195 6.3969727 15.5039063-7.2490234 25.0419922-23.8432617 22.5229492-40.9296875-1.4243164-9.6621094-6.246582-19.5170898-13.5541992-26.0893555-6.7060547-6.0312501-14.9951172-8.7089845-23.8740234-9.5395509zm-19.6757813 65.5278321c2.7900391.1699219 5.2998047 1.7397461 7.4599609 3.5 1.3598633 1.1098633 2.6899414 2.409668 3.159668 4.0996094.2939453 1.0732422.0854492 2.3178711-.5356445 3.2075195-5.9877472-1.3554688-11.4882355-4.1653748-16.0214844-7.9033203 1.1430664-1.9370118 3.6235352-3.053711 5.9375-2.9038086zm-2.6401367-16.8457032c2.0664063.0332031 3.8071289 1.7949219 3.7773438 3.8706055-.0136719.9663086-1.5136719.9658203-1.5 0 .0180664-1.2548828-1.0131836-2.3500977-2.2773438-2.3706055-.9658203-.015625-.9658203-1.515625 0-1.5zm-11.2382812-17.8183593c-1.0336914.7817383-1.0932617 2.2797852-.3720703 3.2744141.5683594.7836914-.7338867 1.53125-1.2949219.7573242-1.2460938-1.71875-.7290039-4.0869141.9101563-5.3271484.7705077-.5825196 1.5170898.7202148.7568359 1.2954101zm-1.0200196-8.8032227c.5297852-.9389648 1.0996094-1.8500977 1.7075195-2.7324219-.5952148.8901368-1.1689452 1.8061524-1.7075195 2.7324219zm63.3027344 29.5151367c.596817-1.8527222 3.026413-2.4508057 4.5263672-.4008789-.3383789 1.1489258-.734375 2.2792969-1.1845703 3.3881836-2.2938385.6255951-3.938385-1.1355591-3.3417969-2.9873047zm4.3261719-21.6542968c2.043457 6.5195313 2.1865234 13.2509766.6679688 19.5273438-1.9731445-1.7412109-5.2871094-1.2919922-6.3374023 1.4404297-1.0756836 2.7988281 1.2368164 5.4838867 3.96875 5.3276367-4.3316956 9.3099365-12.2725372 16.0740051-21.6796875 19.2001953-11.7084961-3.2734375-23.9189453-14.3823242-28.2304688-27.1894531-1.5395508-4.5698242-1.9897461-9.7998047-2.1396484-14.7397461-7.0821228.0349274-7.4763794-9.7275238.0097656-11.3901367.4176636-10.2256775 1.6352539-12.838623 1.2539063-14.6621094 5.2573242-2.7817383 11.1962891-4.3808594 17.3588867-4.4995117.4594727-.0087891.8066406-.1889648 1.0478516-.453125.2382813.2749023.5776367.4755859 1.0253906.5170898 16.1879882 1.5136718 28.1665038 11.3237304 33.0546874 26.9213867z"/><path d="m75.810379 217.2315674c-.1420898.0317383-.2441406.097168-.328125.1757813-1.0613937-.6306-3.5321732 2.3448639-1.9804688 5.0341797 1.078125 1.8691406 3.6176758 2.4926758 5.5786133 1.8256836 1.8974609-.6455078 3.4116211-2.5986328 2.7270508-4.6420898-.8447265-2.5219728-3.7592773-2.8935548-5.9970703-2.3935548zm2.5122071 5.6982422c-1.1816406.2988281-2.7236328-.0332031-3.4389648-1.097168-.6967773-1.0356445-.4326172-2.4887695.6455078-3.1269531.0561523-.0332031.0874023-.0776367.1298828-.1171875.1494141.0917969.3330078.1381836.550293.0893555 1.4052734-.3139648 3.331543-.3203125 4.0766602 1.1918945.7070311 1.4345703-.6645509 2.7314453-1.963379 3.0600586z"/><path d="m83.3201447 201.9747314c.1171875.7495117-.4370117 1.4912109-1.137207 1.6967773-.9243164.2709961-.53125 1.7192383.3989258 1.4462891 1.5493164-.4545898 2.4296875-1.9750977 2.1850586-3.5419922-.126053-.8070983-1.6276094-.7629241-1.4467774.3989258z"/><path d="m90.8064728 224.381958c-1.2128906.3178711-2.1069336 1.1762695-2.5717773 2.324707-.305603.7532959 1.0038223 1.491745 1.4462891.3984375.2646484-.6538086.8569336-1.1015625 1.5244141-1.2768555.9331053-.2446288.5375975-1.6914062-.3989259-1.446289z"/><path d="m109.095047 197.6387939c-1.4243164-9.6616211-6.246582-19.5170898-13.5541992-26.0888672-6.7060547-6.0317383-14.9951172-8.7094727-23.8740234-9.5395508-.4570313-.0429688-.8007813.0976563-1.0395508.3339844-.2402344-.2460938-.5820313-.4072266-1.0336914-.3984375-15.9687538.3076172-31.0175819 9.8115234-37.1528358 24.7529297-6.4233398 15.6430664-2.3925781 34.2768555 10.3613281 45.4726563 12.0830078 10.6069336 29.1723671 13.222168 43.7700233 6.3969727 15.5039062-7.2490235 25.0419922-23.8432618 22.5229492-40.9296876zm-45.5688515 41.006836c-5.4526367-1.0073242-10.6142578-3.2358398-15.1123047-6.40625 1.6630859-3.8852539 6.3876953-3.6293945 9.6123047-1.8837891 1.9213867 1.0400391 8.1528359 5.5141602 5.5 8.2900391zm-16.3476562-7.3120117c-.0307617-.0234375-.0620117-.0458984-.0922852-.0693359.0834961-.0703125.1650391-.1416016.2480469-.2119141-.0512695.0942382-.1074219.1821289-.1557617.28125zm2.1723633-20.6416016c2.0668945.0332031 3.8071289 1.7949219 3.7773438 3.8710938-.0136719.9658203-1.5136719.965332-1.5 0 .0180664-1.2553711-1.0131836-2.3505859-2.2773438-2.3710938-.9658204-.015625-.9658204-1.515625 0-1.5zm-1.9785157-10.6508789c-4.1699219-1.8198242-6.3798828-6.8798828-5.6098633-11.3701172.7700195-4.4897461 4.0703125-8.2797852 8.0800781-10.449707l.5400391 1c3.0317841-1.6326294 7.5856895-.2141266 9.8398438 5.0097656 1.7402344 4.0102539 1.4599609 8.9599609-1.1699219 12.4501953-2.6298828 3.4897461-7.6699219 5.1098633-11.6801758 3.3598633zm24.1772499-3.5083008c1.2529297-.1035156 2.2788086-1.4155273 2.0605469-2.6586914-.1665039-.9458008 1.2792969-1.3481445 1.4462891-.3989258.3955078 2.2504883-1.2250977 4.3686523-3.5068359 4.5576172-.963379.0800781-.9550782-1.4204101-.0000001-1.5zm.0595704-26.5654297c-.5263672-.8139648.7724609-1.5649414 1.2954102-.7573242.7646484 1.1811523 2.387207 1.3330078 3.4638672.5097656.7675781-.5869141 1.5136719.7167969.7573242 1.2954102-1.7509766 1.3383789-4.3471681.7578125-5.5166016-1.0478516zm28.7861328 43.6181641c.5836029-1.8116913 2.9649582-2.4827423 4.5263672-.4008789-.3383789 1.1489258-.734375 2.2792969-1.1845703 3.3881836-2.293892.6256103-3.9383851-1.1355591-3.3417969-2.9873047zm4.9941406-2.1269531c-1.9731445-1.7412109-5.2871094-1.2919922-6.3374023 1.4404297-1.0756836 2.7988281 1.2368164 5.4838867 3.96875 5.3276367-6.6475906 14.2897339-22.0694885 22.8504791-37.8261719 20.6835938 1.6162109-3.1445313-2.8627968-7.6264648-5.5058632-9.309082-2.6538086-1.6889648-6.144043-2.4521484-8.9086914-1.4887695 12.9697266-11.2763672 24.8032265-23.4257813 36.842289-35.5810547-2.4283447-2.5290375-1.5213394-6.4825592 1.0800781-7.9501953l.4599609.2900391c1.6601563-1.2900391 4.1704102-1.0200195 5.6201172.4702148 1.5180664-1.5180664 3.0556641-3.0273438 4.5942383-4.5375977 5.9155578 8.649002 8.6632004 19.6999206 6.0126953 30.6547851z"/><path d="m211.7229767 96.4053955c13.9824219-2.5488281 10.2871094-27.2773438-2.2036133-22.9306641.0878906-.5449219-.4858398-1.1689453-1.1064453-.8037109-15.0706329 8.8696899-7.8585205 25.7712174 3.3100586 23.734375zm-3.0893555-22.109375c-.0292969.4819336.3330078.972168.8989258.7509766 11.7299805-4.5874023 14.362793 22.1108398-.8291016 19.9116211-7.7141418-1.1170655-11.760849-13.3337403-.0698242-20.6625977z"/><path d="m208.3035431 105.7926025c-.9658203-.015625-.9658203 1.484375 0 1.5 1.2641602.0205078 2.2954102 1.1157227 2.2773438 2.3710938-.0136719.965332 1.4863281.9658203 1.5 0 .0297851-2.0761719-1.7104493-3.8378906-3.7773438-3.8710938z"/><path d="m201.754715 127.2720947c12.0830078 10.6069336 29.1723633 13.222168 43.7700195 6.3969727 15.503891-7.2490234 25.0419769-23.8432617 22.522934-40.9296875-1.4243164-9.6616211-6.246582-19.5170898-13.5536957-26.0888672-6.7060547-6.0317383-14.9956055-8.7094727-23.8740234-9.5395508-.4570313-.0429688-.8012695.0976563-1.0400391.3339844-.2402344-.2460938-.5820313-.4067383-1.0336914-.3984375-15.9682617.3076172-31.0175781 9.8115234-37.152832 24.7529297-6.4233399 15.6435547-2.3925782 34.2768554 10.3613281 45.4726562zm32.7270507-13.4658203c.0561523-.0332031.0874023-.0776367.1298828-.1171875.5110931.314003 1.0335236-.2262726 2.5654297-.0327148-.5444336 1.4780273-1.1621094 2.9165039-1.8540039 4.3154297-2.3025817-.7061692-2.3614654-3.2656937-.8413086-4.1655274zm10.0991211-16.2353515c-.1842804-1.1733704 1.3246307-1.1774368 1.4462891-.3984375.2451172 1.5664063-.6357422 3.0874023-2.1850586 3.5419922-.9296875.2724609-1.3232422-1.175293-.3989258-1.4467773.7001953-.2050782 1.2548828-.9472657 1.1376953-1.6967774zm-1.9980468-16.2294922c-.3500977-2.340332.8896484-4.8500977 2.9794922-5.9702148l.5600586.3300781c2.1103516-1.5703125 5.4101563-1.1098633 7.1303711.8798828 1.7299805 2 1.75 5.2001953.1796875 7.3198242-1.4101563 1.9101563-3.9799805 2.8803711-6.2900391 2.340332-2.3095703-.5302734-4.209961-2.5600586-4.5595703-4.8999023zm4.6044922 40.4658203c.4648438-1.1484375 1.3588867-2.0068359 2.5722656-2.324707.9360352-.2451172 1.331543 1.2021484.3984375 1.4462891-.6674805.175293-1.2597656.6230469-1.5244141 1.2768555-.4506531 1.1135405-1.7384643.3217772-1.446289-.3984376zm11.5351409-11.0859375c-.6699219-1.4902344.0302734-3.4599609 1.5-4.1899414 1.2905273-.640625 2.9804688-.2407227 3.9086914.8334961-.472168 1.7719727-1.0761719 3.5039063-1.8095703 5.1826172-1.4135742.2734375-3.0034179-.4926758-3.5991211-1.8261719zm-20.0097503 19.5200195c.3798828 1.0097656.0898438 2.2797852-.800293 2.8798828s-2.3100586.2900391-2.7299805-.7001953l-.5097656-.2998047c-.6699219-.6201172-.7900391-1.7299805-.3203125-2.5102539.9870606-1.658432 3.5711517-1.4021454 4.3603516.6303711zm-18.5112305 3.0063477c-5.3139648-1.3310547-10.2915039-3.8193359-14.5678711-7.2006836 1.8525391-3.3271484 6.2841797-3.0146484 9.3549805-1.3530273 1.9833984 1.0737304 8.5595703 5.8071288 5.2128906 8.5537109zm-27.855957-44.6035157c3.9042969-16.7441406 19.2158203-28.2705078 36.2006836-28.5976563.4599609-.0087891.8066406-.1884766 1.0478516-.453125.4576416.5279884.93396.5161324 2.140625.659668.21521.8956871.3206024.8342628 1.8276367 5.0668945.6088867.0566406 1.2456055-.1069336 1.7587891-.4995117.7675781-.5869141 1.5136719.7167969.7573242 1.2954102-.5961914.4555664-1.2910156.6728516-1.9936523.7114258 1.6464844 4.8266602 3.1767578 9.9765625 4.5576172 14.6640625 2.6584778 9.0174484 2.1432343 21.4255676-.9736328 30.7680664-.9575195-.1772461-1.9863281-.1328125-2.9057617.0727539-.1420898.0317383-.2446289.097168-.328125.1757813-.199707-.1186523-.4477539-.1523438-.7099609.0029297-2.5038605 1.4823914-2.4866791 5.539093.9179688 6.7895508-2.9296875 5.4638672-7.0175781 10.1582031-12.2739258 13.3999023.8955078-3.097168-3.2250977-7.1733398-5.7182617-8.7602539-3.9130859-2.4907227-9.644043-2.9736328-12.1762695 1.1518555-9.8574221-8.4272461-15.5527346-21.7626954-12.1289065-36.447754z"/><path d="m37.6609612 138.1881104c12.0830078 10.6069336 29.1723671 13.222168 43.7700233 6.3969727 15.5039063-7.2485352 25.0419922-23.8432617 22.5229492-40.9291992-1.4243164-9.6621094-6.2470703-19.5175781-13.5537109-26.0893555-6.706543-6.03125-14.9956055-8.7094727-23.8745117-9.5395508-.4570313-.0424805-.8007813.0976563-1.0395508.3339844-.2402344-.2460938-.5820313-.4067383-1.0336914-.3979492-15.9687538.3071289-31.0175819 9.8110352-37.1528358 24.7524414-6.4238282 15.6435546-2.3925782 34.2768554 10.3613281 45.4726562zm34.3237342-61.15625c-1.7509766 1.3388672-4.347168.7583008-5.5166016-1.0478516-.5263672-.8134766.7724609-1.5644531 1.2954102-.7568359.7646484 1.1811523 2.387207 1.3330078 3.4638672.5097656.7675781-.5869141 1.5136719.7163086.7573242 1.2949219zm4.1079102 49.5292968c.0800781 1.4902344-1.2597656 2.75-2.7099609 3.1098633-1.5600586.3901367-3.3901367-.1098633-4.2900391-1.4399414s-.5200195-3.449707.9199219-4.1601563l.8598633-.0996094c3.0675888-.8032836 5.1225891.7692109 5.2202148 2.5898438zm-31.3999062-42.3300781.5498047 1.0102539c3.0325279-1.6501083 7.6001778-.2052536 9.840332 5.0097656 1.7397461 4 1.4599609 8.9599609-1.1704102 12.4399414-2.6298828 3.4902344-7.6796875 5.1201172-11.6796875 3.3701172-4.1704102-1.8300781-6.3803711-6.8901367-5.6103516-11.3798828.7700197-4.4902344 4.0703126-8.2700195 8.0703126-10.4501953zm4.8686524 38.8549805c-.8154297-.9355469-2.2851563-1.1694336-3.2744141-.3417969-.7358398.6157227-1.8017578-.440918-1.0605469-1.0605469 1.5830078-1.3242188 4.0083008-1.25 5.3955078.3417969.631836.7250977-.4252929 1.7895508-1.0605468 1.0605469zm-8.6303711 13.387207c1.1342773-1.9428711 3.5966797-3.0639648 5.9116211-2.921875 2.7900391.1699219 5.2998047 1.7397461 7.4697266 3.5097656 1.3603516 1.1000977 2.6904297 2.3999023 3.1503906 4.0898438.2978516 1.0722656.09375 2.3217773-.5239258 3.2119141-5.8808594-1.3305665-11.3793945-4.0776368-16.0078125-7.8896485zm37.2480507-28.4819336c-.1833878-1.1768494 1.3246307-1.174057 1.4467773-.3989258.2446289 1.5673828-.6357422 3.0878906-2.1855469 3.5424805-.9296875.2724609-1.3227539-1.175293-.3984375-1.4467773.7001954-.2050782 1.2543946-.9472657 1.1372071-1.6967774zm4.8637695-10.8300781c-2.300293-.5400391-4.2001953-2.5600586-4.550293-4.8999023-.3500977-2.3500977.8901367-4.8603516 2.9702148-5.9702148l.5698242.3300781c2.1098633-1.5698242 5.4101563-1.1201172 7.1298828.8798828 1.7202148 1.9902344 1.75 5.2001953.1801758 7.3198242-1.4101562 1.9003906-3.9902343 2.8701171-6.2998046 2.340332zm3.0214844 34.684082c-.6674805.1748047-1.2597656.6225586-1.5244141 1.2768555-.4495544 1.109375-1.7398376.325592-1.4462891-.3989258.4648438-1.1479492 1.3588867-2.0063477 2.5722656-2.3242188.9360352-.2456054 1.331543 1.2016602.3984376 1.4462891zm8.5581054-10.2041015c-.6699219-1.5.0400391-3.4599609 1.5102539-4.1899414 1.2807617-.640625 2.96875-.2412109 3.9042969.8320313-.472168 1.7714844-1.0761719 3.503418-1.8095703 5.1816406-1.4208984.2670898-3.0092773-.4907227-3.6049805-1.8237305zm-63.4751014-12.9438477c-.6992188-.6689453.3632813-1.7280273 1.0605469-1.0605469 1.0737305 1.0288086 1.2783203 2.777832.4018555 3.9975586-.559082.777832-1.8598633.0283203-1.2954102-.7568359.4970703-.6914063.4589843-1.5800781-.1669922-2.1801758z"/><path d="m192.1214142 153.3365479c-.965332 0-.9667969 1.5 0 1.5.9648437 0 .9667969-1.5 0-1.5z"/><path d="m201.1214142 229.8365479c.9648438 0 .9667969-1.5 0-1.5-.965332 0-.9667969 1.5 0 1.5z"/><path d="m228.454422 263.5030518c.965332 0 .9667969-1.5 0-1.5-.9648438 0-.9667969 1.5 0 1.5z"/><path d="m253.454422 249.8365479c.965332 0 .9667969-1.5 0-1.5-.9648438 0-.9667969 1.5 0 1.5z"/><path d="m255.204422 145.0865479c0-.1113281 0-.2226563 0-.3334961 0-.965332-1.5-.9667969-1.5 0v.3334961c0 .9648437 1.5.9667968 1.5 0z"/><path d="m219.454422 146.0030518c-.9648438 0-.9667969 1.5 0 1.5.965332 0 .9667969-1.5 0-1.5z"/><path d="m199.7879181 48.8365479c.965332 0 .9667969-1.5 0-1.5-.965332 0-.9667969 1.5 0 1.5z"/><path d="m233.1214142 28.5030537c.9648438 0 .9667969-1.5 0-1.5-.965332 0-.9667969 1.5 0 1.5z"/><path d="m259.7879028 57.1695557c.965332 0 .9667969-1.5 0-1.5-.965332 0-.9667968 1.5 0 1.5z"/><path d="m266.7879028 33.8365479c.965332 0 .9667969-1.5 0-1.5-.965332 0-.9667968 1.5 0 1.5z"/><path d="m89.7879181 50.8365479c.965332 0 .9667969-1.5 0-1.5-.965332 0-.9667969 1.5 0 1.5z"/><path d="m42.4544182 64.1695557c.965332 0 .9667969-1.5 0-1.5-.9648438 0-.9667969 1.5 0 1.5z"/><path d="m29.7879143 31.5030537c.965332 0 .9667969-1.5 0-1.5-.9653321 0-.9667969 1.5 0 1.5z"/><path d="m60.7879143 33.8365479c.965332 0 .9667969-1.5 0-1.5-.9653321 0-.9667969 1.5 0 1.5z"/><path d="m32.1214104 152.6695557c-.965332 0-.9667969 1.5 0 1.5.9648437 0 .9667968-1.5 0-1.5z"/><path d="m86.454422 157.6695557c-.9648438 0-.9667969 1.5 0 1.5.965332 0 .9667969-1.5 0-1.5z"/><path d="m24.4544182 187.5030518c.965332 0 .9667969-1.5 0-1.5-.9648438 0-.9667969 1.5 0 1.5z"/><path d="m30.7879143 238.8365479c.965332 0 .9667969-1.5 0-1.5-.9653321 0-.9667969 1.5 0 1.5z"/><path d="m33.7879143 267.1695557c.965332 0 .9667969-1.5 0-1.5-.9653321 0-.9667969 1.5 0 1.5z"/><path d="m75.454422 270.5030518c.965332 0 .9667969-1.5 0-1.5-.9648438 0-.9667969 1.5 0 1.5z"/><path d="m96.704422 241.4195557v.3334961c0 .965332 1.5.9667969 1.5 0 0-.1113281 0-.222168 0-.3334961 0-.9648438-1.5-.9667969-1.5 0z"/><path d="m107.7879181 265.1695557c.965332 0 .9667969-1.5 0-1.5-.965332 0-.9667969 1.5 0 1.5z"/><path d="m111.454422 229.8365479c.965332 0 .9667969-1.5 0-1.5-.9648438 0-.9667969 1.5 0 1.5z"/><path d="m204.7879181 261.8365479c.965332 0 .9667969-1.5 0-1.5-.965332 0-.9667969 1.5 0 1.5z"/><path d="m224.7879181 240.5030518c.965332 0 .9667969-1.5 0-1.5-.965332 0-.9667969 1.5 0 1.5z"/><path d="m251.0379181 273.4195557v.3334961c0 .965332 1.5.9667969 1.5 0 0-.1113281 0-.222168 0-.3334961 0-.9648438-1.5-.9667969-1.5 0z"/><path d="m268.1213989 233.1695557c.9648438 0 .9667969-1.5 0-1.5-.965332 0-.9667968 1.5 0 1.5z"/><path d="m272.4544067 155.5030518c.965332 0 .9667969-1.5 0-1.5-.9648437 0-.9667968 1.5 0 1.5z"/><path d="m270.4544067 127.1695557c.965332 0 .9667969-1.5 0-1.5-.9648437 0-.9667968 1.5 0 1.5z"/><path d="m271.7879028 75.5030518c.965332 0 .9667969-1.5 0-1.5-.965332 0-.9667968 1.5 0 1.5z"/><path d="m192.7879181 29.8365498c.965332 0 .9667969-1.5 0-1.5-.965332 0-.9667969 1.5 0 1.5z"/><path d="m102.9851837 29.6168232c.1108398-.1113281.222168-.222168.3330078-.3334961.6835938-.6835938-.3769531-1.7446289-1.0605469-1.0605469-.1113281.1108398-.222168.222168-.3334961.3334961-.6831054.6831055.3769532 1.7441406 1.0610352 1.0605469z"/><path d="m51.4544182 47.1695557c.965332 0 .9667969-1.5 0-1.5-.9648438 0-.9667969 1.5 0 1.5z"/><path d="m188.1214142 202.1695557h.3330078c.965332 0 .9667969-1.5 0-1.5-.1108398 0-.222168 0-.3330078 0-.965332 0-.9667969 1.5 0 1.5z"/><path d="m110.1214142 99.1695557c.9648438 0 .9667969-1.5 0-1.5-.965332 0-.9667969 1.5 0 1.5z"/><path d="m182.7879181 88.0030518c-.965332 0-.9667969 1.5 0 1.5.965332 0 .9667969-1.5 0-1.5z"/></g></g></svg>