<svg id="Layer_1" enable-background="new 0 0 300 300" height="512" viewBox="0 0 300 300" width="512" xmlns="http://www.w3.org/2000/svg"><g id="Newsletter_1_"><g><path d="m151.5361328 200.6271515c.4665527.8452148 1.7624512.0893555 1.295166-.7573242-3.8110352-6.9038086-8.076416-13.2993164-13.097168-19.3813477-.6149902-.7446289-1.6708984.3217773-1.0605469 1.0610352 4.9458009 5.9907226 9.1115724 12.2827148 12.8625489 19.0776367z"/><path d="m89.9480057 219.8908234c.5163574.8125 1.8149414.0610352 1.295166-.7568359-2.3056641-3.6269531-4.5307617-7.3041992-6.8364258-10.9311523-.5163574-.8125-1.8149414-.0610352-1.295166.7568359 2.3056641 3.626953 4.5307617 7.3041991 6.8364258 10.9311523z"/><path d="m187.7084961 158.4743195c.6098633.7485352 1.6655273-.3183594 1.060791-1.0610352-3.0317383-3.7216797-5.9943848-6.793457-9.9267578-9.5712891-.7900391-.5581055-1.5402832.7416992-.7573242 1.2949219 3.8305664 2.7060547 6.6752929 5.7177735 9.623291 9.3374024z"/><path d="m183.5568848 105.9215851c-.0737305.465332.1916504.9580078.7231445.9492188.1019745-.0016556 11.0413513-.1211243 11.2856445-.2587891.2727051-.0810547.4848633-.3041992.4543457-.6811523-.0080872-.1000214-.2330475-7.9424667-.6115723-8.2177734-.9765015-.7106171-2.4189758-.2062759-11.8483887.0078125-.5144043.0117188-1.0065918.6499023-.6477051 1.128418.2453767.327072.6603395 6.9721449.6445314 7.0722655z"/><path d="m211.2683105 115.9430695c-.9521484-.0431747-5.2341766-.2973099-6.0366211.2299805-.2055664.1347656-.3999023.3828125-.371582.6474609.3751526 3.4947586.474762 3.1709137.3967285 3.5209961-.1037598.4658203.2158203.956543.7231445.9492188 6.1925354-.0872879 6.2277222.0741653 6.9504395-.5097656.2841797-.2294922.3071289-.5224609.1867676-.7666016-.6966095-3.2411576.758728-3.9528046-1.848877-4.0712891z"/><path d="m186.6870117 129.5998077c-.3590546-.0115356-.7772827.2873535-.7717285.7485352.0305176 2.5136719.0712891 5.0273438.1022949 7.5410156-.0778809.3618164.0739746.7875977.5002441.9174805.1043091.0318756-.5209808-.005188 9.1809082.4331055.5161133.0234375.8156738-.4956055.7231445-.9492188-.3054657-1.4977722.3913727-7.9825592.3486328-7.565918.046875-.4570313-.3652344-.715332-.7668457-.7250977-3.0913085-.4033202-6.2077636-.298828-9.3166503-.3999023z"/><path d="m183.267334 113.9225616c3.954834.1611328 7.909668.3222656 11.864502.4833984.9650879.0390625.9633789-1.4609375 0-1.5-3.954834-.1611328-7.909668-.3222656-11.864502-.4833984-.965332-.0395507-.9636231 1.4609375 0 1.5z"/><path d="m193.5268555 120.2350616c.9650879 0 .9667969-1.5 0-1.5-2.3503418 0-4.7004395 0-7.0507813 0-.9650879 0-.9667969 1.5 0 1.5z"/><path d="m200.7668457 98.037796c3.8759766-.652832 7.7485352-.8164063 11.6665039-.5288086.9631348.0703125.9584961-1.4296875 0-1.5-4.0554199-.2978516-8.0568848-.0927734-12.0651855.5820313-.9499512.1601562-.5471192 1.605957.3986816 1.4467773z"/><path d="m211.4833984 100.5807648c-2.5646973.2036133-5.1296387.4067383-7.6943359.6103516-.9558105.0756836-.9641113 1.5761719 0 1.5 2.5646973-.2036133 5.1296387-.4067383 7.6943359-.6103516.9558106-.0756836.9638672-1.5766602 0-1.5z"/><path d="m206.026123 105.5949249c-.9550781.0795898-.963623 1.5805664 0 1.5 1.2817383-.1069336 2.5637207-.2133789 3.8457031-.3203125.9550781-.0795898.963623-1.5805664 0-1.5-1.2819823.1069336-2.5639648.2133789-3.8457031.3203125z"/><path d="m212.1115723 131.9059601c-2.6708984-.3198242-5.3417969-.6391602-8.0124512-.9589844-.956543-.1147461-.9482422 1.3862305 0 1.5 2.6706543.3198242 5.3415527.6391602 8.0124512.9589844.9565429.1147461.9482422-1.3862305 0-1.5z"/><path d="m200.2565918 137.2282257c3.1005859.2944336 6.2009277.5888672 9.3015137.8833008.9604492.0908203.9543457-1.409668 0-1.5-3.1005859-.2944336-6.2009277-.5888672-9.3015137-.8833008-.9604492-.0913086-.9543457 1.409668 0 1.5z"/><path d="m207.3078613 141.7077179c.965332 0 .9667969-1.5 0-1.5-.7478027 0-1.4956055 0-2.2434082 0-.9650879 0-.9667969 1.5 0 1.5z"/><path d="m214.3586426 138.5031281c.9614258.1064453 1.9230957.2133789 2.8845215.3203125.9580078.1064453.9504395-1.3945313 0-1.5-.9614258-.1069336-1.9230957-.2138672-2.8845215-.3203125-.9580078-.1064454-.9501953 1.3945312 0 1.5z"/><path d="m151.1643066 152.5021515c1.3518066.8442383 2.7519531 2.9501953 3.8547363 4.1606445.3294525.4646759.9635315.3296356 1.2216797-.0991211.003418.0063477-.003418-.0058594 0 0 1.2753906-2.152832 3.6708984-3.5454102 6.1296387-2.7709961.8713379.2744141 1.213623-.8959961.578125-1.3706055-1.7661133-1.3198242-3.5544434-2.6088867-5.3203125-3.9282227-.1420898-.1064453-.2797852-.1328125-.4108887-.128418-3.9107513-.9987944-7.5130004 3.2261964-6.0529785 4.1367189z"/><path d="m104.7590408 177.0050812c1.7470703-1.9355469 4.3190918-2.5073242 6.6416016-1.371582.7712402.3769531 1.4753418-.5229492.9089355-1.1777344-4.5101089-5.2151031-4.202652-4.9061584-4.4213867-4.9970703-1.3069534-1.1249695-4.7917099-1.1037903-6.7392578.9399414-.7893066.8286133-.6860352 1.1875-.1445313 2.121582.6482925 1.1178284 1.5502548 3.214325 2.4196396 4.1970062.4695359.530716.9295731.736557 1.3349991.2878571z"/><path d="m162.184082 157.7199249c-.6516113-.7148438-1.7102051.3481445-1.0605469 1.0605469 1.6291504 1.7871094 3.2583008 3.5742188 4.8874512 5.3608398.6518555.715332 1.7102051-.3481445 1.0605469-1.0605469-1.6291504-1.7871093-3.2583008-3.5737304-4.8874512-5.3608398z"/><path d="m160.7597656 162.1876984c-.6804199-.6865234-1.7412109.3740234-1.060791 1.0605469.9038086.9125977 1.8076172 1.824707 2.7114258 2.7368164.6806641.6870117 1.7412109-.3740234 1.060791-1.0605469-.9038086-.9121094-1.8076172-1.8247071-2.7114258-2.7368164z"/><path d="m172.2717285 163.3292999c.6462402.7197266 1.7041016-.34375 1.060791-1.0605469-2.0710449-2.3081055-4.1418457-4.6162109-6.2126465-6.9238281-.6459961-.7202148-1.7041016.34375-1.0605469 1.0605469 2.0708009 2.3081055 4.1416016 4.6157227 6.2124024 6.9238281z"/><path d="m208.1445313 147.9416046c-6.3994141-1.5380859-12.7990723-3.0761719-19.1984863-4.6147461-.9382324-.2250977-1.3383789 1.2207031-.3989258 1.4467773 6.3996582 1.5380859 12.7993164 3.0761719 19.1987305 4.6142578.9379882.225586 1.3383788-1.2202148.3986816-1.446289z"/><path d="m202.6669922 154.1706085c-3.1091309-1.996582-6.4001465-3.6240234-9.864502-4.90625-.9067383-.3354492-1.2978516 1.1137695-.3989258 1.4467773 3.3479004 1.2387695 6.5041504 2.8266602 9.5063477 4.7548828.8146973.5229493 1.567627-.7749023.7570801-1.2954101z"/><path d="m194.3850098 155.0001984c-.7519531-.5874023-1.8208008.4667969-1.0605469 1.0605469 1.2294922.9609375 2.4587402 1.9208984 3.6879883 2.8813477.7521973.5874023 1.8210449-.4663086 1.060791-1.0605469-1.2292481-.9604493-2.4587402-1.9208985-3.6882324-2.8813477z"/><path d="m111.7407303 180.4748077c2.0192871 2.8540039 4.0388184 5.7080078 6.0578613 8.5620117.5532227.7817383 1.8544922.0332031 1.2954102-.7573242-2.0195313-2.8535156-4.0385742-5.7080078-6.0581055-8.5615234-.5529785-.7822266-1.854248-.0336914-1.295166.7568359z"/><path d="m109.7253494 182.7238312c-.4316406-.8637695-1.7260742-.1049805-1.2949219.7568359.6943359 1.3886719 1.3886719 2.777832 2.0830078 4.1665039.4318848.8637695 1.7260742.1049805 1.295166-.7573242-.6943359-1.3886719-1.3886718-2.7773437-2.0832519-4.1660156z"/><path d="m112.7634354 189.4030304c-.9650879 0-.9667969 1.5 0 1.5.965332 0 .9667968-1.5 0-1.5z"/><path d="m156.4013672 160.3473663v.1606445c0 .9648438 1.5.9663086 1.5 0 0-.0537109 0-.1069336 0-.1606445 0-.9648437-1.5-.9667968-1.5 0z"/><path d="m53.995369 216.5436554c.306591.4279327.984478.4061279 1.2949219.1157227 1.2624512-1.184082 3.2983398-2.7768555 5.1052246-2.9130859.5688477-.0429688.9313965-.6030273.6474609-1.128418-4.364769-8.0766144-4.0138931-7.9805145-4.6643066-7.9726563-2.744873.0332031-4.996582 1.262207-6.6755371 3.3461914-.3669434.1640625-.6308594.5849609-.3835449 1.0458984 1.399414 2.6054688 2.9526366 5.1025391 4.6757812 7.5063477z"/><path d="m61.8623123 224.6388702c.3133163.4943695.9510956 1.675827 2.451416 3.609375.2458496.3164063.5673828.3076172.8222656.1455078.3461761-.0996094 1.4620667-1.325943 2.6184082-1.4067383.5549316-.0385742.9504395-.6108398.6477051-1.128418-.0685349-.1172028-1.9905014-3.4480438-2.0483398-3.5483398-.0002441.0004883-.0004883.0014648-.0007324.0019531-.1159668-.2172852-.328125-.3808594-.6306152-.3774414-1.4074707.015625-2.6750488.5859375-3.5922852 1.644043-.3731156.2020874-.5463715.6195679-.2678223 1.0600586z"/><path d="m58.6115799 217.9225616c.8017578 1.2817383 1.6035156 2.5629883 2.4052734 3.8447266.5109863.8164063 1.8093262.0644531 1.2954102-.7568359-.8017578-1.2817383-1.6037598-2.5634766-2.4055176-3.8447266-.5109863-.8168945-1.8093262-.0644531-1.295166.7568359z"/><path d="m55.3464432 221.6105499c.5339355.6411133 1.0681152 1.2822266 1.6022949 1.9228516.6186523.7426758 1.6748047-.3237305 1.060791-1.0605469-.5341797-.6411133-1.0683594-1.2817383-1.6025391-1.9228516-.6186523-.7421874-1.6748046.3237305-1.0605468 1.0605469z"/><path d="m67.9282303 229.9816437c-.4580078-.8500977-1.7536621-.09375-1.295166.7568359.3740234.6943359.748291 1.3886719 1.1225586 2.0830078.4580078.8500977 1.753418.0932617 1.295166-.7573242-.3742676-.6938476-.748291-1.3881836-1.1225586-2.0825195z"/><path d="m73.6079178 229.1833038c.532959.7993164 1.8327637.0493164 1.295166-.7568359-2.3500977-3.5253906-4.7004395-7.0507813-7.0507813-10.5761719-.532959-.7993164-1.8327637-.0493164-1.295166.7568359 2.3503418 3.5253907 4.7004395 7.0507813 7.0507813 10.5761719z"/><path d="m76.5149002 226.6017609c.4694824.8432617 1.765625.0878906 1.295166-.7573242-1.0698242-1.921875-2.1396484-3.8442383-3.2094727-5.7661133-.4694824-.84375-1.765625-.0878906-1.295166.7568359 1.0698243 1.9223633 2.1396485 3.8442383 3.2094727 5.7666016z"/><path d="m106.9599686 196.1574249c.4997559.8242188 1.7973633.0712891 1.295166-.7573242-2.982666-4.9194336-5.9650879-9.8388672-8.9477539-14.7583008-.4997559-.8242188-1.7973633-.0712891-1.295166.7573242 2.982666 4.9194336 5.9650879 9.8388672 8.9477539 14.7583008z"/><path d="m99.5305252 190.7296906c-.6135254-.7460938-1.6694336.3208008-1.060791 1.0610352 1.4941406 1.8173828 2.9882813 3.6342773 4.482666 5.4516602.6132813.7460938 1.6691895-.3203125 1.0605469-1.0605469-1.4941406-1.8173829-2.9882813-3.6347657-4.4824219-5.4521485z"/><path d="m156.2272949 175.0705109c.6013184.7548828 1.6564941-.3129883 1.0605469-1.0605469-3.4101563-4.2802734-6.8200684-8.5600586-10.2302246-12.840332-.6013184-.7543945-1.6564941.3129883-1.0605469 1.0610352 3.4099121 4.2797851 6.8200684 8.5595702 10.2302246 12.8398437z"/><path d="m58.3159256 239.0856476c-3.7751465-5.4111328-7.1594238-11.0483398-10.1606445-16.9243164-.439209-.8598633-1.7338867-.1015625-1.295166.7573242 3.0009766 5.8754883 6.385498 11.5131836 10.1606445 16.9243164.5483398.7861328 1.8491211.0371094 1.295166-.7573242z"/><path d="m47.7819901 234.4875031c-.4404297-.859375-1.7348633-.1015625-1.2954102.7568359 1.7644043 3.4443359 3.5285645 6.8891602 5.2929688 10.3334961.4401855.859375 1.7348633.1015625 1.295166-.7573242-1.7644043-3.444336-3.5285645-6.8886719-5.2927246-10.3330078z"/><path d="m124.0524979 173.5910187c-5.4389267-3.7514038-8.5834961-9.0678711-14.3310547-11.2226563-8.7998047-3.2983398-17.0827637 3.6274414-20.557373 11.3032227-4.0175552 8.8751373-2.4475708 22.6988831-8.5603027 27.0947266-2.0478516 1.4726563-5.5578613 1.8017578-8.467041 1.7744141-8.1049805-3.640625-15.6623535-7.1123047-24.1650391-2.1010742-11.1630173 6.5782776-11.6241798 24.8345032-11.0861816 25.9716797 4.9594727 17.8183594 11.3669434 35.3090973 18.817627 52.2329254.2722168.6181641.7668457.8256836 1.2612305.7675781.2041016.027832.4289551.0102539.6745605-.074707 1.119873-.3876953 1.9086914-1.0976563 2.4907227-1.980957 3.2714844-1.1386719 4.8710938-2.8803711 8.6408691-3.8398438-.861084-6.737793-.9121094-12.1362305-.5-18.9165192 1.5755539-25.9141235 26.3743057-9.5484619 37.4980469-27.0820313 3.5456543-4.3310547 7.1437988-12.4189453 8.1374512-14.8837891 4.8379364-12.0007629 16.5282364-3.7788239 22.1977463-2.0341797 9.3192291 2.8672638 22.7977448.1670227 27.9138184-10.4282227 2.3218384-4.8130951.9353943-14.0604095 4.2321777-20.5717773 5.0468445-9.9693604 11.1239624-5.8323975 19.520752-3.8334961 6.4858093 1.5445404 13.9644012.2340393 20.1296387-4.4858398v20.6425781c-1.0900879-1.1074219-2.3476563-2.105957-3.8012695-2.9213867 1.7524414 5.6904297 3.7460938 8.5141602 3.369873 16.2285156-2.2172852-4.9301758-6.921875-9.1494141-12.8718262-11.5439453 6.1073914 6.7629852 7.9074097 12.3005371 10.1101074 20.3681641.1451569.5304565 13.0998993.1845703 31.5358887-.0810547.7133789-5.1875 3.855957-10.1508789 8.7023926-13.7446289-4.0715332 1.2866211-7.6970215 3.3886719-10.520752 6.0131836 1.5392151-3.0939331 2.0398407-7.1362 1.6081543-10.6279297-.3596191 3.1567383-1.6630859 6.2392578-3.7382813 8.9628906.557373-3.2836914 1.0336914-6.5854492 1.2070313-9.8666992.2583008-4.8911133 3.270752-11.4111328 1.019043-18.4438477.310791 3.199707-.640625 7.3588867-1.9467773 11.5292969-.0515137-15.7324219-.2145996-31.4633789-.2199707-47.1958008-.0002441-.965332-1.5002441-.9667969-1.5 0 .0058594 17.2021484.2036133 34.402832.232666 51.6049805-.7160645 2.0102539-1.4355469 3.934082-2.0595703 5.6689453-.2092285.2368164-.4233398.4692383-.6320801.706543.0708008-3.7924805-.3664551-7.1479492-2.0817871-13.9072266 0-15.5009766 0-31.0019531 0-46.5024414 9.1298981-2.9736023 10.6784363-3.3704834 31.3752441-10.0141602.5992737-2.3195648 1.0210266-3.7553101 1.2856445-5.0874023.8745117-.3066406 1.7504883-.6079102 2.6240234-.9174805.7158203-.0400391 1.4023438-.5166016 1.4023438-1.440918 0-29.0824509 4.178833-64.5054398-21.2124023-70.8789063.0068359-5.5429688.0136719-11.0859375.0219727-16.6289063 2.7998047-.4907227 5.5927734-1.0107422 8.3347168-1.7939453.2363281-.0673828.4755859-.2714844.5236816-.5239258.6054688-3.1777344.8623047-6.3398438 1.0268555-9.5742188.0270996-.5327148-.4985352-.7949219-.9494629-.7231445-7.2407532 1.1500034-14.4619751 3.379343-15.9255371 3.440918-.8100586.0317383-1.5004883.6611328-1.5 1.5.003418 7.6230469.041748 15.2460938.0766602 22.8696289-8.9677734-.8295898-18.0317383-1.0703125-27.019043-1.6791992-43.8178864-9.4647751-37.4869995 52.8859444-36.0361328 82.222168.0397949.8046875.5898438 1.2695313 1.2080078 1.4018555.5441742.4500275.5692749.2735748 5.4277344.3730469.151123 2.097168.1601563 4.1923828-.1547852 6.1850586-2.2416534 5.0069275-7.4869385 8.5321808-14.1665039 7.7885742-4.3985291-1.4964752-10.8798523-4.78125-16.9550781-.0883789-3.1057129 2.3984375-4.8222656 6.0893555-5.3325195 9.9155273-.4578094 3.431366.4385834 8.3664551.1264648 9.8964844-1.9215854 9.4337312-8.5342258 12.6566621-16.4423755 9.1777345zm-84.2949219 51.9516601c.3605957-10.284668 3.7529297-22.6333008 15.4213867-24.6860352 8.9614258-1.5766602 16.0170898 7.7802734 24.8847656 6.3891602 9.857666-1.5463867 8.5898438-15.4794922 9.4763184-22.7324219.8208008-6.7158203 2.9912109-13.7124023 8.8842773-17.7265625 5.829834-3.9702148 11.4753418-1.796875 16.1843262 2.4458008 6.1264648 5.5195313 12.8742676 13.3452148 22.0820236 9.3959961 9.0458984-3.8793945 6.1118164-14.4648438 6.515625-22.1987305.3911133-7.4897461 5.7646484-12.7211914 13.3908691-10.6611328 4.6889648 1.2661133 9.529541 4.6108398 14.5817871 3.0883789 9.1337891-2.7524414 9.1113281-13.8896484 8.3286133-21.4921875-1.97435-19.1774368-3.5906677-24.9205093-2.2756348-34.2109375 12.7521973.0043945 25.5043945.0395508 38.2565918.0595703-2.6969452 6.0363922 1.8120117 15.5381546 3.5087891 21.9863281 3.1218262 11.8637695 4.0166016 25.3896484-1.1469727 36.8476563-5.2207031 11.5854492-17.0117188 17.956543-29.5400391 16.7763672-8.661377-.8154297-17.7927246-6.4604492-23.5913086 3.2109375-5.3977051 9.0024414 1.8659668 21.8896484-5.7485352 29.8125-4.7302246 4.9213867-12.3269043 6.5043945-18.6716309 4.2089844-4.6203461-1.6717529-27.2919846-22.920929-33.0700607 2.0258789-1.4038086 6.0605469-.5751953 12.7929688-4.1762695 18.184082-5.3168945 7.9594727-13.2897949 7.1699219-21.623291 5.8833008-9.2353516-1.4257813-16.2375488 1.4296875-18.7336426 10.8110352-1.1835938 4.4487305-1.6525879 9.1240234-2.0087891 13.7046051-.2146301 2.7590942-1.2086258 16.9194336-2.9748535 19.1132813-7.1013182-16.2875977-13.1940916-33.1186677-17.9543455-50.2358552zm186.3364181-151.8999023c-.7556152 1.4472656-1.4208984 2.9614258-2.2436523 4.3666992-.9780273 1.6694336 1.6140137 3.1806641 2.590332 1.5141602.4931641-.8417969.9274902-1.7270508 1.3608398-2.6123047.640686 3.1461868 1.1024017 7.3379745 1.3803711 10.5385742-.5053711.5317383-1.0524902 1.0219727-1.6035156 1.5087891-1.2529297-2.1674805-2.5595703-4.3051758-3.8666992-6.4394531-.1826172-.2978516-.4179688-.4892578-.6738281-.5981445-.2287598-.1801758-.5275879-.2929688-.9001465-.2929688-16.3967285-.0024414-32.793457-.0673828-49.1901855-.0727539.2080078-1.6699219.4750977-3.3554688.8151855-5.0356445 2.1590729-5.6348649 50.0413208-3.2533875 52.3312988-2.8769532zm-6.8535156 19.5766601c2.3613281.0029297 4.7229004.0112305 7.0844727.0112305.4702148.1762695 1.0161133.1147461 1.4711914-.3686523.5244141-.5576172 1.097168-1.0668945 1.671875-1.5742188.7844238 12.6591797.1337891 25.6352539-.3586426 38.1357422-1.5803223-.0219727-3.1608887-.0488281-4.7409668-.0791016-1.0877228-18.4229126-9.4455872-28.8683319-5.1279297-36.125zm3.1201172 55.2060547c.3684082-1.2138672.6865234-2.4448242.9523926-3.6899414v54.4150391c-.3395996.9008789-.6950684 1.7797852-1.0720215 2.6230469-.0756836.0004883-.151123.0014648-.2265625.0019531-1.8671875-8.8725586-3.9299316-18.0117188-10.2709961-25.5092773 1.8037109 7.0512695 3.447998 14.3725586 3.2329102 21.519043-1.6970215-3.0742188-2.4709473-6.4594727-2.1862793-9.800293-1.2556305 3.8170471-1.3131714 7.8340149-.5358887 10.6176758-.4038086-.9169922-.8408203-1.824707-1.3540039-2.7084961 0-9.0698242 0-18.1391602 0-27.2089844 5.9812164-5.7684327 9.665802-11.5832978 11.4604492-20.2597657zm13.8984375-83.7524414c.2353516-.003418.4411621-.0527344.6191406-.1337891 2.067627.2783203 1.9440918 4.9111328-.1279297 4.9458008-.9587402.015625-1.6535645-1.3598633-1.7443848-2.1572266-.0798339-.6997069.300293-2.6401366 1.2531739-2.6547851zm-2.8522949-13.2744102c.0674896 16.176403-.0170441 10.0210152.0449219 11.4775391-2.6477051 2.8134727-1.385498 9.6000938 3.298584 9.6088829 6.0488281.0107422 6.0761719-11.0624962-.0861816-10.9721642-.0793457.0009766-.1503906.0146484-.2233887.0253906-.0092773-9.1171875-.059082-18.2338867-.0915527-27.3505859.8186035-.1611328 1.6386719-.3125 2.4599609-.4584961-.0114746 7.3608398-.027832 14.722168-.0290527 22.0834961-.0002441 1.9301758 2.9997559 1.9335938 3 0 0-.9643555.0029297-1.9282227.0039063-2.8925781 20.832489 6.0280304 18.2711182 34.785656 18.2192383 66.6176758-9.2348633 3.2592773-18.5085449 6.3813477-27.8713379 9.2524414.5812988-15.0917969 1.1203613-30.5571289-.3928223-45.5791016-1.3117065-13.0233231-5.567215-26.129734-16.6608887-32.9882774 6.1184081.3178672 12.2453612.6132774 18.3286132 1.1757774zm-7.331543 19.157711c-1.8188171-.2749786-45.7589417-1.5478592-50.9077148.4228516 8.8673095-28.85038 40.7624054-30.07864 50.9077148-.4228516zm-52.7990723 57.1108399c-.6352539-12.5473633-1.4619141-25.4614258-.925293-38.0507813.4975586.9155273.9865723 1.8359375 1.3999023 2.7939453.0629883.1455078.1416016.2612305.2263184.3637695-1.0775146 9.2610474 1.2549896 22.8703079 2.7043457 34.9360352-1.1352538-.0209961-2.2702636-.0356445-3.4052734-.0429687z"/></g></g></svg>