<svg id="Layer_1" enable-background="new 0 0 300 300" height="512" viewBox="0 0 300 300" width="512" xmlns="http://www.w3.org/2000/svg"><g id="Newsletter_2_"><g><path d="m250.1095276 59.6794014c-.3222656.0268555-3.1386719.1889648-4.2265625.2456055-.349411-.973568-3.6437225-2.9727287-2.2373047-11.105957.0004883-.0029297 0-.0063477.0004883-.0097656.3256836-.9067383-.1137695-2.074707-1.3349609-1.9833984-1.7470703.1313477-3.5424805.1767578-5.3408203.230957-2.4228516-1.6279297-2.7011719-4.9038086-2.6489258-7.5673828.0292969-1.5141602-2.0415039-2.0063477-2.7954102-.7573242-.140625.2329102-4.5224609.9453125-5.6357422 1.1523438-2.2089844.4111328-4.4360352.7329102-6.640625 1.1650391-6.0463867 1.1865234-10.815918 5.1904297-16.375 7.5361328-2.8637695 1.2080078-5.5825195 1.9980469-7.980957 4.0654297-3.1113281 2.6816406-6.0849609 5.1743164-9.4702148 7.5444336-11.4628448 8.0260658-26.997406 21.9525642-33.3720703 28.9028282-3.9057617-5.4482422-7.8183594-10.8876953-11.9819336-16.1396484-2.1225586-2.6767578-3.1708984-5.8115234-5.1904297-8.5136719-1.6606445-2.2221642-3.9506836-3.8769493-5.7514648-5.9731407-2.6039963-3.0317383-3.6401291-6.7402344-5.5815353-10.1381836-1.3662109-2.3901367-3.1088867-4.1591797-5.1132813-6.0219727-5.4541016-5.0693359-9.5136719-11.5605469-13.8383789-17.5991211-.0175781-.0654297-.0371094-.1313477-.0546875-.1967773-.4946289-1.8642578-3.3896484-1.0732422-2.8925781.7973633 2.3533554 9.010006 6.8610535 18.7386017 4.5625 28.3378906-.862793-.5874023-1.7324219-1.1655273-2.6142578-1.7265625-2.7041016-1.7202148-5.8305664-2.4189453-8.7163086-3.7548828-3.3032227-1.5288086-5.5605469-4.0141602-8.3706055-6.1943359-2.8989258-2.2485352-6.453125-3.9418945-9.6489258-5.7280273-2.15625-1.2050781-5.4384766-1.9648438-7.0302734-3.8486328-.9433594-1.1166992-3.0415039.074707-2.5068359 1.4594727 1.1738281 3.0410156 1.2832031 5.5175781.3964844 8.5395508-3.449707-.953125-6.9506836-1.737793-10.6499023-2.3525391-1.2211914-.2026367-2.4228516.9921875-1.6938477 2.2036133 1.9018555 3.1611328 4.0458984 6.8862305 2.6933594 10.6367188-2.7192383-.3193359-5.4492188-.5844727-8.1923828-.7788086-1.6137695-.1142578-1.8642578 1.9663086-.7783203 2.7270508.0698242.1665039.1704102.3300781.3198242.4838867 8.4179688 8.6728516 6.1020508 22.301754 10.3789063 32.8339806 1.7426758 4.2915039 4.84375 7.7954102 6.7573242 11.9838867 2.4672852 5.4008789-.284668 10.9672852 1.7675781 16.2714844.6069336 1.5693359 1.7207031 2.7578125 2.7460938 4.0483398 2.4873047 3.1303711 2.4326172 6.1899414 2.9956055 9.9897461 1.2170868 8.2133942 2.8397141 7.2519989 4.2290039 23.2373047-4.6142578 3.921875-9.4711914 7.6264648-13.5737305 12.1025391-.284668.3105469-.3989258.6547852-.4008789.9887695-.128418.2099609-.2104492.4633789-.2104492.7719727v.0244141.0004883c.0058594 32.5810547.3808594 65.1601563.3886719 97.7412262-.1381836.793457.2885742 1.6938477 1.2719727 1.7807617 3.7651367 2.5092773 9.8813477 6.3935547 13.3095703 8.7055664 55.8217697.3666992 108.4247971.3925781 164.1533203.7495117 1.3608398.0087891 2.4741211-1.09375 2.4702148-2.4545898-.0922546-32.6869965-.1152802-40.7769775-.1987305-70.4843903-.0151367-5.3842773.8837891-10.9433594-.4926758-16.2368164-1.5803375-6.0800934-15.8668976-28.6428223-16.6660156-29.0839844.7061615-13.5044403.493454-25.2670288 3.8027344-34.3505859 1.5507813-4.2568359 1.2392578-7.8505859 1.0112305-12.3183594-.2441406-4.7939453 1.7290039-9.6435547 2.7861328-14.2944336 1.6708984-7.3520508 3.8422852-14.5898438 6.4477539-21.6494141 1.137207 2.0078125 2.4580078 5.65625 4.9013672 5.0463867 2.2836914-.5703125 2.2861328-4.3867188 2.4306641-6.2319336.1704102-2.1801758-.5405273-3.5512695-.8144531-5.6567383-.4404297-3.3901367 1.2758789-4.3271484 2.4956055-6.8964806.4423748-.9311527-.0634846-2.3598636-1.2949299-2.2568363zm-83.7260742 19.9243126c7.9501801-6.5863266 16.5116882-12.0706406 25.9086914-16.5561485 8.0063477-3.8222656 15.2387695-6.6337891 23.980957-7.9731445 4.2768555-.6552734 7.6108398-2.902832 11.7055664-4.0410156 3.8452148-1.0688477 8.3701172-.9321289 12.5048828-1.1044922-.3886719 3.5771484-.0634766 7.1757813 1.8969727 10.1918945-26.5595703 1.5825195-53.5566406 5.6176719-75.9970703 19.4829063zm32.6416015-26.2485314c2.9199219-1.6367188 6.199707-2.456543 9.1386719-4.1357422 5.5805664-3.1875 10.2758789-4.9833984 16.46875-6.0732422 1.6186523-.2851563 4.5380859-.4042969 6.7802734-1.125.1806641 1.8696289.6469727 3.6899414 1.6064453 5.2114258-1.1767578.0795898-2.3417969.1904297-3.480957.3666992-4.6464844.7207031-8.5712891 3.6206055-13.2070313 4.465332-4.5761719.8334961-8.6274414 1.1523438-13.0200195 2.8916016-4.6562958 1.8438911-10.1875153 4.3376007-13.8051758 6.1279297 3.6259766-2.490364 6.1046601-5.8152198 9.519043-7.7290039zm-91.7363205-19.465332c2.1132813 3.0302734 4.3266602 5.9907227 6.8520508 8.546875 2.4057617 2.4345703 5.0751953 4.3833008 6.8149414 7.4116211 1.7363281 3.0224609 2.7290039 6.3803711 4.8110352 9.2236328 1.6523438 2.2578125 3.8622971 3.934082 5.709465 6.0063438 2.2456055 2.5185547 3.1987305 5.7099609 5.1806641 8.4003906 3.8525391 5.2319336 7.8359375 10.3666992 11.6801758 15.6132813-23.395546-17.2031021-21.5897064-20.5976181-39.5268478-33.6079063 2.1342773-7.2050781.5512694-14.4741211-1.5214845-21.5942383zm-36.0820312 2.9091797c3.9626923 1.721817 7.8493118 3.926487 11.3203125 6.1323242 2.5791016 1.6386719 4.6083984 3.8696289 7.0708008 5.6538086 2.7211914 1.9711914 5.6308594 2.9101563 8.7133789 4.1210938 3.6613159 1.4382629 5.3466568 3.215023 12.4042969 8.4018555-3.9374924-2.2814636-8.4490433-2.4430771-13.4506836-5.5664063-13.3676529-8.3485374-5.8828964-4.8227615-18.9658203-9.6884766-2.6000977-.9672852-5.1464844-1.8383789-7.6992188-2.6176758.684082-2.2729492.8989258-4.3271484.6069336-6.4365234zm-11.6953125 6.715332c5.6352539 1.0561523 11.0209961 2.4233398 16.4326172 4.5878906 15.7650909 6.3060379 4.2934723.3431969 19.8066406 10.0297852 11.2882385 7.0479317 7.2728729.21241 25.2270508 14.0346642-18.7421875-9.5859337-38.9370117-16.0869102-59.9296875-18.9086876.934082-3.4121094.0297851-6.6220703-1.5366211-9.7436524zm97.0463791 186.2050743c.2421875 2.4208984.4838867 4.8422852.715332 7.2646484.1816406 1.9052734 3.1835938 1.9238281 3 0-.2412109-2.5273438-.4931641-5.0537109-.7460938-7.5800781 23.9296875-19.5859375 47.8637695-38.3657227 74.7929688-53.6621094.0727539 28.9824219 1.0302734 57.9521484 1.1166992 86.9340973-18.1904297-13.0561676-36.7612305-25.3564606-54.3505859-39.2671051-1.4985352-1.1850586-3.6352539.9238281-2.1210938 2.1210938 17.4091797 13.7685547 35.7602539 26.0019531 53.7802734 38.8960114-54.1083984-.0175781-108.2172775-.2944336-162.3261719-.3129883 20.2485352-18.0327301 43.2104492-32.3359528 64.5703049-48.9663239 7.1152421 4.9633789 14.2793046 9.8588868 21.5683671 14.5727539zm-24.1235352-16.359375c-21.5268478 16.7119141-44.6303635 31.0908203-64.9453049 49.3496246-.0249023-30.8574371-.3520508-61.7138824-.3754883-92.5713043 22.8608399 12.7773438 43.9243165 28.2309571 65.3207932 43.2216797zm100.616211-116.8330078c-.8862305 3.8925781-2.3881836 7.8828125-2.8374023 11.8491211-.2998047 2.6425781.2900391 5.1791992.3173828 7.8125.0317383 3.0688477-.8237305 5.5664063-1.828125 8.4116211-1.4731445 4.1728516-1.4589844 8.5253906-1.8461914 12.8955078-1.5423889 17.4105377-1.5742798 22.9012756-2.1020508 33.3095703-17.315918 13.012207-35.0415039 26.480957-52.4189453 39.5615234-.2319183.0113678.5923309-.1692963-4.8393555 1.105957-.9394531.2207031-.5419922 1.6674805.3984375 1.4467773.5063477-.1191406 1.0126953-.237793 1.519043-.3569336-1.7783203 1.3369141-3.5585938 2.6767578-5.3271484 4.0029297-1.2241211.9179688-3.5922852 3.1547852-5.4511719 4.0791016-4.8376923-46.6847076-5.4280548-46.9572449-3.0751953-50.8754883 1.3583679-2.2615356 4.8155365-4.5546112 1.7705078-8.9467773-1.6928711-2.4438477-5.0678711-4.019043-1.6958008-6.7050781 2.6000977-2.0712891 4.8422852-3.5463867 3.2890625-7.1166992-5.9064941-13.5774231-3.3310089 3.9032898-6.4726563-45.78125-.1210938-1.9174805-3.1220703-1.9311523-3 0 2.2378387 35.3811951 1.042572 36.471344 3.4760742 41.8115234.6181641 1.3564453 1.706543 2.4116211 2.3452148 3.7231445 1.6191406 3.3242188-.0634766 3.6928711-2.1567383 5.5385742-.9863281.8696289-2.340332 1.8691406-2.5991211 3.284668-.9731445 5.3168945 6.3046875 4.581543 3.4814453 11.3173828-.909668 2.1704102-2.2382813 3.3720703-2.6391602 5.8842773-.5587158 3.5023346-.2332916 4.2898254 4.3134766 48.2304688-1.4394531-.1894531-2.8037109-.7568359-4.1245117-1.4926758-19.1550446-10.6758728-55.4957123-35.5275879-67.8622971-43.1577148-.0048828-.0444336-.003418-.0864258-.012207-.1323242-2.1748047-11.1445313-1.8027344-22.5981445-3.7539063-33.7753906-.9985352-5.7207031-2.5444336-11.1738281-3.3286133-16.9414063-.7504883-5.519043-5.7241211-8.4584961-5.9624023-14.0898438-.1987305-4.6870117.590332-8.3901367-1.4838867-12.7988281-2.4912109-5.2954102-6.2089844-9.4960938-7.7841797-15.2749023-2.5473633-9.3461914-2.0795898-19.9916954-7.9858398-27.9555626 53.3535919 4.8668137 84.1463699 31.2703133 96.7402267 38.7831993.5102539.6245117 1.465332.9077148 2.2099609.1791992 19.7280273-19.2880859 45.4379883-26.5839844 71.8525391-29.675293.5881653.51828-.2768402-.4048691 5.8945313 2.3896484 1.25 1.3691406 2.3945313 2.8959961 2.5927734 3.2685547 2.7696075 5.1956787 2.7030792 10.4718475 2.949707 16.3256836-.9497069 3.2622072-1.8090819 6.551758-2.5634764 9.8652345zm12.5678711-28.4394531c.2788086 2.0966797 1.2402344 3.8295898 1.1425781 6.0263672-.0390625.8696289-.1831055 1.7631836-.34375 2.6259766-1.1142883-5.0470963-10.8830261-10.0823059-15.2861328-12.2944336 5.3754883-.4990196 10.7480469-1.0351524 16.1254883-1.5126915-1.034668 1.4794883-1.9428711 2.864254-1.6381836 5.1547813z"/><path d="m168.1334534 137.4372101c.0441742.385849.5427399 1.0358582 1.1201172.887207 14.6220703-3.7631836 29.3876953-6.515625 43.4643555-12.128418.2993164-.1191406.5664063-.3701172.5507813-.7231445-.6235352-13.8569336-1.5112305-27.690918-2.2807617-41.5405273-.0224609-.4042969-.3251953-.75-.75-.75-8.9261322 0-40.6605072 26.9368362-41.0488281 27.2587891-4.985672 4.1375198-4.1196899 1.0152359-2.9873047 10.6269531.6435545 5.4565429 1.2983397 10.9116211 1.9316405 16.3691406z"/><path d="m218.6974182 135.529007c-12.1132813 3.7431641-24.2270508 7.4863281-36.340332 11.2294922-.9194336.2841797-.5273438 1.7329102.3984375 1.4467773 12.1137695-3.7436523 24.2270508-7.4868164 36.3408203-11.2299805.9194336-.2841797.5268555-1.7324219-.3989258-1.446289z"/><path d="m214.124176 151.6774445c-7.6235352 1.7802734-15.1396484 3.90625-22.5683594 6.3754883-.9116211.3032227-.5209961 1.7519531.3984375 1.4462891 7.4287109-2.4692383 14.9453125-4.5952148 22.5683594-6.3754883.9399414-.2192384.5419922-1.6660157-.3984375-1.4462891z"/><path d="m206.3927307 165.9503937c-2.78125.8110352-5.5625 1.621582-8.34375 2.4326172-.9248047.2700195-.53125 1.7177734.3989258 1.4467773 2.78125-.8110352 5.5625-1.6220703 8.3432617-2.4331055.925293-.2695312.5317383-1.7177734-.3984375-1.446289z"/><path d="m73.2438126 73.2458038c-.4238281-.1645508-1.0014648.265625-.9492188.7236328.9355469 8.2001953 2.1298828 16.3779297 2.7958984 24.6069336-.159668.3847656-.0561523.8525391.4663086.9331055 8.1894531 1.2670898 16.3261719 2.7700195 24.4042969 4.6230469.4912109.112793.9248047-.2236328.9492188-.7231445.3129883-6.3574219.0097656-12.9785156-.2084961-19.3427734-.0380173-1.107132-.0349808-.1579591-27.4580078-10.8208009z"/><path d="m110.2858047 149.6100616c-.0483398.3310547.0932617.6699219.5219727.7504883.1048508.0196991 24.9256668 4.2853851 25.0263596 4.2905273.3945313.0200195.7641602-.3603516.75-.75-.2597656-7.1367188-.1630859-14.2802734-.4228516-21.4169922-.012207-.3422852-.2260742-.6196289-.5507813-.7231445-10.4009552-3.3082428-11.7768478-3.6964111-20.9648361-6.3706055-8.4513245-2.4601974-7.1310577-3.9000702-6.0424805 6.9355469.3309785 3.2957459 1.5932618 16.8791199 1.6826172 17.2841797z"/><path d="m178.6603088 178.9396515c-5.1210938 1.8574219-10.4008789 3.5634766-15.668457 4.965332-.40625-.0463867-.840332.1816406-.8232422.7075195.1230469 3.8168945.5273438 7.7006836.3901367 11.5195313-.0175781.4926758.4931641.8452148.9492188.7231445 4.4039612-1.1811676 8.4113159-2.3198547 12.9003906-3.7016602 3.5353546-1.0879974 2.9959259-.3094788 3.0654297-4.5283203.0488281-2.9882813.0205078-5.9755859.1362305-8.9624023.0175781-.4599609-.4980469-.8867187-.9497071-.7231445z"/><path d="m110.3429337 95.5211945c9.0893555 3.2353516 18.178215 6.4711914 27.2675705 9.706543.9111328.324707 1.3032227-1.1245117.3989258-1.4462891-9.0893555-3.2353516-18.1787033-6.4711914-27.2675705-9.706543-.9111329-.3242188-1.3032227 1.1245117-.3989258 1.4462891z"/><path d="m129.030426 110.6501007c-4.8647385-1.1489258-9.7289963-2.2978516-14.5937424-3.4472656-.9389648-.2216797-1.3393555 1.2246094-.3989258 1.4467773 4.8647461 1.1489258 9.7294922 2.2978516 14.5942307 3.4467773.9384766.222168 1.3388672-1.224121.3984375-1.446289z"/><path d="m119.4454727 116.4328156c-.9423828-.190918-1.3457031 1.2543945-.3989258 1.4462891 1.5991211.324707 3.1982422.6489258 4.7973633.9731445.9423828.1914063 1.3457031-1.2539063.3989258-1.4462891-1.5991211-.3242188-3.1982422-.6489258-4.7973633-.9731445z"/><path d="m97.3453751 136.5919952c-4.5581055-.6035156-9.003418-1.659668-13.3613281-3.1196289-.9174805-.3076172-1.3110352 1.140625-.3989258 1.4462891 4.4946289 1.5058594 9.0625 2.5517578 13.7602539 3.1733398.9541015.1264649.9448242-1.375 0-1.5z"/><path d="m95.7980118 144.0626984c-2.4541016-.6264648-4.9077148-1.2524414-7.3613281-1.878418-.9355469-.2392578-1.3349609 1.2070313-.3984375 1.4462891 2.4536133.6259766 4.9072266 1.2524414 7.3608398 1.878418.9355469.2387695 1.3349609-1.2075196.3989258-1.4462891z"/><path d="m140.0362854 180.1598663c-11.1821289-4.0195313-22.3642502-8.0385742-33.5463791-12.0581055-.9101563-.3271484-1.3017578 1.1220703-.3989258 1.4467773 11.1821289 4.019043 22.3642502 8.0380859 33.5463791 12.0576172.9101563.3271485 1.3017578-1.1220702.3989258-1.446289z"/><path d="m132.4005432 187.2497101c-5.9492111-2.5390625-11.9980392-4.8354492-17.947258-7.375-.8779297-.3745117-1.6430664.9169922-.7573242 1.2954102 5.949707 2.5390625 11.9980469 4.8354492 17.947258 7.3745117.8779297.375 1.6430664-.9169922.7573242-1.2949219z"/><path d="m127.0577774 192.4367218c-1.972168-.8789063-3.9443359-1.7578125-5.9165039-2.6367188-.8740234-.3896484-1.6381836.9023438-.7573242 1.2954102 1.972168.8789063 3.9443359 1.7578125 5.9165039 2.6367188.8745117.3896484 1.6381836-.9028321.7573242-1.2954102z"/><path d="m178.6114807 200.397171c-4.5820313 1.0185547-9.1333008 2.1523438-13.6572266 3.4013672-.9296875.2563477-.534668 1.7041016.3984375 1.4462891 4.5244141-1.2490234 9.0756836-2.3828125 13.6577148-3.4008789.9418946-.2094727.5429688-1.6557618-.3989257-1.4467774z"/><path d="m96.9205704 157.6061554c-.7524414-.2001953-1.5053711-.4003906-2.2578125-.6000977-.934082-.2480469-1.3325195 1.1982422-.3989258 1.4462891.7529297.199707 1.5053711.3999023 2.2583008.6000977.9335937.2480468 1.3320312-1.1987305.3984375-1.4462891z"/></g></g></svg>