<svg id="Layer_1" enable-background="new 0 0 300 300" height="512" viewBox="0 0 300 300" width="512" xmlns="http://www.w3.org/2000/svg"><g id="not_found"><g><path d="m43.6460419 161.5084839c5.6271667 22.1659393 39.1008377 36.6166992 70.3466797 8.2709961 4.78125-4.3369141 9.1254883-9.6308594 10.1879883-16.1850586 1.1459961-7.0678711-1.6010742-14.2304688-5.3261719-20.1225586-3.1992188-5.0610352-7.1142578-8.521965-13.4311523-7.66259-13.8493347 1.8831558-38.8128128 15.4449234-50.9145508 22.5869064-3.9741211 2.3452148-12.1166992 6.6943359-10.8974609 12.5043945-.0268556.1870117-.0209962.3891602.0346679.6079102zm69.8793945-30.2172852c5.6655273 5.7910156 9.5297852 15.9790039 7.21875 23.9013672-1.8774414 6.4350586-7.2890625 11.6323242-12.684082 15.7460938-.35923-.9220123-2.0542908-1.8563843-2.5771484-6.8813477-.0620117-.5917969-.3955078-1.0009766-.8198242-1.2265625-.2143555-.6992188-.8608398-1.2475586-1.7646484-.9697266-4.5209961 1.3896484-9.0419922 2.7792969-13.5629883 4.1689453-1.222168-2.0424805-2.4448242-4.0854492-3.6674805-6.128418.0623703-3.3056793-.6114044-9.6838379-2.2026367-15.6376953 5.2050781 1.6074219 10.480957 2.8867188 15.8603516 3.8032227 1.090332.1860352 1.8178711-.6992188 1.8745117-1.5429688.2207031-.237793.3515625-.5712891.3110352-1.012207-.8167419-8.8563232 1.0697479-15.3277893.9414063-16.2480469 4.2456053-.9223632 8.3247068-.7812499 11.0727537 2.0273438zm-58.2802734 20.1547852c19.8282394-11.7512512 37.3453827-19.2110138 44.1113281-21.3491211-.8623047 4.9038086-1.2792969 9.7827148-.890625 14.7636719-5.4926758-1.0117188-10.8896484-2.3652344-16.2050781-4.1044922-1.4384766-.4707031-2.2275391 1.1958008-1.6303711 2.2319336-.2758789.3208008-.4121094.7626953-.262207 1.2978516 1.3388672 4.7763672 2.090332 9.605957 2.2700195 14.550293-4.1293945-.5424805-8.4780273-1.4824219-12.5996094-1.4628906-1.8173828.0083008-3.109375.1259766-4.1459961 1.8173828-1.5625 2.5493164-.3754883 6.0581055-1.4663086 8.6953125-1.8574219 4.4892578-8.871582-.5483398-12.0356445-1.9702148-1.7470703-.7851563-3.2744141 1.7993164-1.5141602 2.590332 3.6694336 1.6489258 7.4833984 3.9321289 11.3334961 5.0834961 1.9326172.578125 3.3242188.5834961 4.4619141-1.2832031 1.8271484-2.9980469-.3676758-8.3193359 1.6123047-11.0766602 1.7236328-2.3999023 12.2421875.3286133 15.1025391.7021484 4.0335388 6.741333 3.7947311 6.557251 4.4384766 6.7768555.3178711.4199219.8413086.6650391 1.5058594.4609375 4.4267578-1.3608398 8.8535156-2.7216797 13.2797852-4.0820313.4867096 3.4751282 1.6968994 5.9987793 3.1176758 7.5717773-6.8836823 4.9274292-14.5548325 8.6662445-23.0839844 9.6503906-14.9379883 1.7236328-31.8984375-5.9418945-36.0087891-21.2583008.019043-.1791992.0097656-.371582-.0478516-.5795898-1.0698243-3.8735352 6.0854491-7.5024414 8.6572265-9.0258789z"/><path d="m251.2891083 146.8864136c-10.7973328-6.3936005-32.2845306-16.1581116-48.5219727-20.4687424-6.2348633-1.6552734-12.7426758-3.15625-17.5410156 2.2480392-9.0493164 10.1914063-10.5400391 25.6835938-1.230957 35.9399414 9.887207 10.894043 25.5395508 18.8886719 40.3945313 18.5273438 15.3769531-.3745117 31.1875-10.0273438 34.3486481-25.784668.0478516-.237793.043457-.4575195-.0009766-.6577148.6162109-4.3461914-4.1464997-7.8491211-7.4482575-9.8041992zm-63.0039063-17.0917969c6.0717773-5.1943283 19.1582031.9331055 25.753418 3.2802734 1.828125.6508789 3.6420898 1.3398438 5.4467773 2.050293-1.53125 2.5258789-3.1254883 5.0131836-4.652832 7.5419922-.6220703 1.0307617.1459961 2.003418 1.0556641 2.1943359.1960449.18573 1.809845 1.5239258 7.7680664 6.4902344-.4736328.5527344-.9472656 1.1049805-1.4208984 1.6577148-3.1801758-.9663086-6.3608398-1.9326172-9.5410156-2.8984375-.9736328-.2958984-1.6484375.3652344-1.8066406 1.1391602-4.4970703 3.0678711-8.5439453 6.6665039-12.0844727 10.8007813-7.641571-12.083725-7.0756683-11.3222656-7.5234375-11.5859375-.3222656-.4560547-.8647461-.7666016-1.5541992-.6469727-3.0332031.5268555-6.0664063 1.0537109-9.0991211 1.5810547-.854004-7.2685547 2.3198241-17.0371094 7.6586913-21.6044922zm8.4184571 41.418457c-6.1821289-4.0893555-13.2006836-9.4848633-15.4672852-16.8886719 2.7431641-.4765625 5.4858398-.953125 8.2285156-1.4296875 2.5522461 4.0356445 5.1040039 8.0712891 7.65625 12.1069336.5405273.8544922 1.5102539.8413086 2.1621094.402832.3491211.0107422.7080078-.1347656 1.0136719-.5029297 4.9514923-5.9721222 8.6269226-8.4844818 12.7832031-11.5380859 3.1982422.9711914 6.3959961 1.9428711 9.5942383 2.9145508 1.0522461.3193359 1.7602539-.4780273 1.8378906-1.3286133.4804688-.5610352.9609375-1.121582 1.4418945-1.6821289 2.7573242 2.2993164 5.5151367 4.5981445 8.2724609 6.8969727-8.5758057 9.410614-8.0794373 8.7771454-8.2236328 9.2197266-.3881836.4321289-.5776367 1.0615234-.2875977 1.7236328 1.3134766 3.0029297 3.0834961 5.7260742 5.2138672 8.1992188-12.2517547 2.5571288-23.7021026-1.1324464-34.2255858-8.0937501zm37.3432617 7.3105469c-.2387085-.7052917-2.767807-2.7245026-5.262207-7.9404297 2.7895508-3.0605469 5.5795898-6.1210938 8.3691406-9.1811523.5576172-.6118164.4833984-1.3515625.1162109-1.8852539.043457-.3793945-.0874023-.777832-.4887695-1.112793-6.1928711-5.1625977-12.3852539-10.3251953-18.5776367-15.487793 1.1542816-1.8781891 3.8370514-6.1595917 4.0825195-6.6445313 4.9472656 2.0375977 9.8222656 4.2509766 14.628418 6.6025391 3.71875 1.8193359 20.1152496 7.8017578 18.8696289 13.4399414-.0458984.2089844-.0458984.4018555-.0185547.5820313-2.3745117 11.0698242-11.3203125 18.5375977-21.71875 21.6274414z"/><path d="m239.4468231 89.6207962c-6.7905273-.7001953-14.8286133-1.6069336-21.5541992-.0288086-5.1098633 1.1987305-7.2651367 5.5917969-9.0107422 10.1166992-1.0629883 2.7558594-3.1689453 7.1455078.7480469 8.4335938.862793.2836914 1.8193359.277832 2.7705078.1611328 1.7773438 2.0854492 4.1958008 4.8598633 5.0976563 6.0043945 12.0224609-2.4223633 20.2744141-6.7041016 32.5361328-6.4760742 1.015625 10.1225586 3.0952148 20.1362305 6.1772614 29.8310471-24.8291168-14.5385666-51.4028473-27.4423752-80.0512848-29.6606369-.534668-1.3417969-2.9057617-1.1606445-2.8896484.5610352.0009766.0981445-.0097656.1967773-.0107422.2949219-1.8920898-.1166992-4.6171875.0629883-4.793457.0756836.1884766 1.9692383.3764648 3.9379883.5649414 5.9067383-3.0649414.3735352-6.1293945.746582-9.1938477 1.1201172-.956543 5.2705078-1.668457 11.4321289 2.0205078 15.3163986 1.0053711 1.0585938 3.9975586 1.9697266 4.6401367 3.2807617 1.1538086 2.3535156-1.9326172 5.0043945-3.0043945 7.3959961-4.6049805 10.2802734-6.9101563 26.8496094.7543945 35.1040039 8.6669922 9.3334961 20.3334961 16.0834961 30 19.75 10.5322266 3.9951172 19.0908203 4.7841797 30.25 3.25 4.6542969-.6396484 10.2841797-3.4233398 14.6938477-6.8916016 16.5880737-6.3540955 26.719162-26.6122894 37.5488434-39.8852539.7851563.046875 1.5727539-.4257813 1.5073242-1.4345703-.9516602-14.7045898-4.2358398-29.1669846-10.5102539-42.541008-6.742096-14.3689958-11.3569642-17.9385072-28.291031-19.6845704zm-26.2001953 7.5014648c4.112793-7.5136719 17.0395508-5.3022461 24.375-4.6743164 9.2329102.7905273 18.0092773 2.3066406 23.3916168 10.5996094 8.6645508 13.3505859 12.6967773 30.2021408 14.0244141 46.0068283-4.4887695-2.7695313-9.0366211-5.5615234-13.644043-8.3203125.0268555-.1645508.034668-.3378906.0039063-.5258789-1.3686523-8.3144531-2.487793-16.6640549-3.7529297-24.994133-.4663086-3.0717773-.2524414-8.0253906-2.3100739-10.628418-1.6186523-2.0483398-4.7749023-2.1464844-7.109375-2.4819336-15.9243164-2.2854385-29.5159607 1.9822464-34.5498047 2.9360352-5.1923828.984375-1.7197265-5.559082-.4287109-7.9174805zm-13.9101562 88.9780198c-6.7788086-2.984375-13.1933594-6.765625-19.2700195-10.9882813-7.1293945-4.9541016-13.1420898-10.0874023-12.6625977-19.5742188.3613281-7.1572266 4.3129883-13.2387695 5.1411133-20.215332.5292969-4.4604492-.2172852-5.8969727-3.5541992-7.903801-.1051483-.3658066.0597687.1625214-2.7817383-6.2324219 2.5283203-.0336914 5.0629883.1831055 7.5854492-.0566406 1.0331726-.0976257 1.5682983-1.0975189 1.4462891-1.8984375-.311203-2.0378189.4741364-3.8406067.9042969-8.2299805 35.6430664 2.7578125 68.0742188 22.5512619 97.8452301 40.9311447-18.3574677 22.9623414-28.9164124 54.3028413-74.6538239 34.1679689z"/><path d="m115.7554169 80.7155228c1.7495117 5.1176758 3.4990234 10.2353516 5.2480469 15.3530273.6210938 1.8164063 3.5200195 1.0361328 2.8930664-.7978516-1.7495117-5.1176758-3.4985352-10.2348633-5.2480469-15.3525391-.6210938-1.8164062-3.5195313-1.036621-2.8930664.7973634z"/><path d="m150.0029755 81.5739212c-1.1704102-10.5668945-2.3413086-21.1337929-3.512207-31.7001991-.2104492-1.8979492-3.2124023-1.9194336-3 0 1.1708984 10.5664063 2.3417969 21.1333046 3.512207 31.7001991.2104492 1.8974609 3.2128906 1.9189453 3 0z"/><path d="m165.9858856 93.8976517c6.5244141-7.7397461 12.8046875-15.671875 18.8496094-23.7910156 1.1538086-1.5498047-1.4492188-3.046875-2.590332-1.5141602-5.8925781 7.9145508-12.0209961 15.6396484-18.3803711 23.184082-1.2368164 1.4672852.8745117 3.5996094 2.1210937 2.1210938z"/><path d="m21.7480927 171.5578003c6.6542969 9.2543945 13.1386719 13.003418 21.5 20.75 9.1852608 8.5098877 20.9775925 15.1556549 33.3334961 13.4165039 22.5-3.1665039 31.8334961-9.8330078 48.8334961-22.1665039 5.7714844-4.1870117 11.0620117-12.0146484 11.9960938-21.6376953 2.2268524-10.5539246-3.9484253-19.9285431-5.7441406-26.246582 1.5820313-2.3754883 8.7304688-1.8759766 7.9414063-4.6738281-.4990234-1.7685547-2.6240234-2.7075195-3.1020508-4.481926-.8422852-3.1235352 2.0532227-6.0146484 4.3388672-8.3046875 1.402832-1.4052734-3.2480469-5.5463867-6.5258789-6.0888672-1.4765625-.2446289-6.6508789-2.3344727-8.7573242-2.5751953-.0375977-.190918-.0883789-.378418-.1201172-.5708008-.1679688-1.0214844-1.0805664-1.2558594-1.8408203-.9648438-29.2729492 3.8183594-55.7329102 18.7265625-80.3154297 35.0312424 1.0983849-10.2268982 2.3034859-25.2400894 2.8071289-27.9936447 9.940918-3.4150391 20.2290039-2.0458984 30.1552734 1.7568359 2.7915039-1.7602539 6.8125-5.2089844 9.7836914-7.7832031.3129883.0249023.6264648.0537109.9389648.0654297 4.5473633.1699219 5.1469727-3.2880859 3.7802734-6.96875-1.4321289-3.8564453-3.7192383-8.1723633-7.7524414-9.7495117-5.9663086-2.3325195-14.6264648-.6171875-20.784668.184082-15.1063766 1.9647827-22.1364441 4.16716-28.2773438 17.4750977-7.609375 12.9873047-11.9731445 27.8290939-11.894043 42.8911057.6318359.7954102 1.2636719 1.5908203 1.8955078 2.3862305-.0146484.5722656-.0336914 1.1450195-.0405273 1.7177734-.0126953 1.0083008.7988281 1.4853516 1.581543 1.4404297.0473633.0527344.0952148.1054688.1425781.1582031-1.3686523 3.5996093-2.3759766 10.5141601-3.8735351 12.9331054zm101.0849609-60.4345627c.4208984 1.7915039 1.0151367 3.5424805 1.3149414 5.362793.0317383.1923828.0957031.3505859.1743164.4892578-.0195313.6049805.2954102 1.1943359 1.0688477 1.3686523 2.2114258.4985352 4.5043945.4106445 6.7456055.6665039-.6469727.6225586-1.2373047 1.2924805-1.6904297 2.0288086-.8774414.7290039-1.7944336 1.4365234-2.3891602 2.5083008-1.1279297 2.0317383.4111328 3.4765625 2.2128906 4.4863205-1.9316406 1.4394531-2.2788086 2.5566406-1.831543 5.824707 1.7981873 13.1332855 15.812973 24.6594391-4.1245117 40.4741211-18.468956 14.6494751-46.110527 28.4533997-65.8925781 15.4584961-12.5561523-8.2485352-20.4179688-21.762207-30.2631836-32.8291016 28.5073242-19.7197265 59.6181641-41.0121993 94.6748047-45.8388595zm-64.75-14.9375c4.7084961-.8164063 9.4726563-1.3012695 14.2470703-1.4951172 4.4702148-.1811523 9.3544922-.9155273 12.5605469 2.855957 1.1240234 1.3227539 1.8852539 2.9169922 2.5820313 4.4951172 1.5693359 3.5546875-.262207 3.5419922-3.1499023 3.5444336-3.8793945.0029297-8.0185547-1.1899414-11.9311523-1.3793945-7.8803711-.3813477-16.0610352.2094727-23.7119141 2.2265625-6.4853516 1.7089844-5.5756836 7.5869141-6.1450195 13.3388672-.0099297.1003113-2.4548874 25.3093491-2.4506836 25.4096603-4.4316406 2.9775391-8.8027344 5.9853516-13.1191406 8.96875.5117188-15.5014648 3.6279297-31.4838791 10.8535156-45.2773361 4.3818358-8.3652344 11.3876952-11.1484375 20.2646483-12.6875z"/><path d="m265.2481079 152.5578003c-1.9301758 0-1.9335938 3 0 3 1.9306641 0 1.9335938-3 0-3z"/><path d="m34.6875458 160.1183472c.574707.574707 1.546875.574707 2.121582 0l.5-.5c.5727539-.5727539.5727539-1.5483398 0-2.1210938-.5751953-.574707-1.546875-.574707-2.121582 0-.1665039.1665039-.3330078.3334961-.5.5-.5727539.5727539-.5727539 1.5483399 0 2.1210938z"/><path d="m142.9551239 222.4259644c-13.5604706-17.6523895-12.5635986-16.6167297-13.3740234-16.7880859-.4791412-.3106384.2648315-.1780396-12.440918-1.0004883-.0771484-.0048828-.1459961.0029297-.2163086.0078125-.6611328-.4882813-1.609375-.5029297-2.0297852.453125-.6083984 1.3847656-1.2392578 2.7597656-1.8598633 4.1396484-1.8886719-.9892578-3.7480469-2.0341797-5.6557617-2.9873047-.7138672-.769043-2.2382813-.7758789-2.5712891.5415039-1.7260742 6.8261719-3.7734375 13.5654297-5.4995117 20.3916016-.1396484.5522461.0175781 1.0078125.3154297 1.3320313-.074707 2.4995117-.5561523 8.2597656-.5415039 10.0419922 3.5014648 4.9985352 7.5795898 8.7919922 12 13 6.5581055-.4316406 14.5410156-1.4438477 22.3334961-1.8334961 1.5170898-3.2392578 2.9824219-8.0932617 4.5-11.3330078 1.7421875-.3701172 4.5908203-1.296875 6.3330078-1.6669922 1.6669922-3.5 2.1533203-3.8671875 3-7.1665039-.7075195-.9936523-2.8085938-4.1689453-4.1176758-5.847168.1860352-.3720704.1777344-.8256837-.1752929-1.284668zm-25.9228516-14.8061524c.2172012.0289612-1.1802444-.065155 11.3671875.7460938 1.2753906 1.6601563 2.5507813 3.3203125 3.8261719 4.9804688-4.8657227 2.9003906-9.3100586 6.4589844-14.1025391 9.4736328-.4350586-3.831543-1.4223633-7.4916992-2.9492188-11.0644531.6103517-1.3823243 1.2397462-2.756836 1.8583985-4.1357423zm-9.8417968 1.9033203c1.7148438.8994141 3.4082031 1.8388672 5.1333008 2.71875-.046402.95224 2.4387741 4.7894592 2.9604492 12.3344727.0297852.4350586.2119141.7670898.4677734 1.0053711.2724609.8227539 1.1821289 1.4575195 2.1508789.8901367 1.7973633-1.0532227 3.5317383-2.2045898 5.246582-3.3862305.862793.6347656 1.7255859 1.2695313 2.5888672 1.9042969-.315918 1.9541016-.9155273 3.7875977-1.8862305 5.5268555-.9418945 1.6875 1.6484375 3.2016602 2.590332 1.5141602 1.1293945-2.0234375 1.890625-4.1894531 2.2314453-6.4804688.6724396-.657486.5557098-1.6963196-.3095703-2.3330078-.8769531-.6450195-1.753418-1.2900391-2.6298828-1.9345703 2.7280273-1.9233398 5.4521484-3.8540039 8.3295898-5.5439453 1.9892578 2.5893555 3.9785156 5.1787109 5.9682617 7.7675781-.4165039 1.8706055-.8896484 3.7275391-1.3081055 5.5976563-1.2641602.315918-2.5175781.6748047-3.7900391.9575195-.7241211.1606445-1.0493164.6879883-1.0712891 1.2514648-1.296875 2.4892578-2.7607422 4.887207-3.996582 7.4072266-5.2880859.5834961-10.5366211 1.4711914-15.8242188 2.0566406-3.8696289-4.5605469-7.7387695-9.1210938-11.6079102-13.6821289 1.5107425-5.8774414 3.2211917-11.7006836 4.756348-17.5717774z"/><path d="m177.7480927 228.3912964c-.390625-.2973633-1.1342773-.8789063-1.8193359-1.3759766-.058609-.730896-.171051-1.3546448-.7709961-1.7783203-10.6900482-7.5341949-9.4691315-6.9604645-10.6416016-6.6733398-2.081543.5029297-4.1635742 1.0058594-6.2456055 1.5087891-.8628693-.1554108-1.6183777.4437714-1.7353516 1.4741211-.0576172.5097656-.1210938 1.0185547-.1850586 1.527832-.6483002-.1249237-2.2156219-.4346619-2.8359375-.512207-.9018555-.3378906-2.09375.1005859-2.0273438 1.331543.7023163 13.0010223-.196106 12.0671234 1.5917969 13.2036133.1713867 1.6171875.2490234 4.1669922.5029297 4.9604492 2.6816406 2.0727539 6.628418 3.3310547 9.6665039 4.8334961 3.4067383-1.3110352 6.5-3.1669922 10.3334961-6 .2700195-1.9682617.8964844-3.6982422 1.1665039-5.6669922.8632813-.4833984 1.9707031-1.0161133 2.8334961-1.5-.0952148-1.888672.2622071-3.4438478.166504-5.3330079zm-12.9614258-6.8076172c2.722168 1.9189453 5.4438477 3.8378906 8.1655273 5.7563477.0356445.4755859.0727539.9511719.1030273 1.4272461-3.6132813-.6835938-7.8515625.6865234-11.2128906-.0766602-.7416992-1.4389648-1.6318359-2.7851563-2.6821289-4.0473633.0668945-.5839844.1391602-1.1679688.2119141-1.7514648 1.8051758-.4360352 3.6098633-.8720703 5.4145508-1.3081055zm-4.7934571 10.1904297c.5654297 1.4658203 2.6230469 1.2006836 2.9516602.0576172 2.6601563.1308594 5.5253906-.4658203 8.0673828-.3164063-.0629883.190918-.0898438.3920898-.0761719.5932617-.2592773 1.3852539-.5878906 2.7563477-.8188477 4.1464844-2.4882813 1.0888672-4.9189453 2.3027344-7.3989258 3.409668-2.6079102-1.6552734-5.2158203-3.3110352-7.8237305-4.9663086-.1401367-2.9692383-.2016602-5.9418945-.3242188-8.9121094.6660156.1293945 1.3339844.25 2.0024414.3686523.2562563.4127045 2.13295 2.2844391 3.4204103 5.6191407z"/></g></g></svg>