<svg id="Layer_1" enable-background="new 0 0 300 300" height="512" viewBox="0 0 300 300" width="512" xmlns="http://www.w3.org/2000/svg"><g id="Notifications"><g><path d="m278.8044128 44.804081c-7.4267578-23.9482422-43.5366364-30.0463867-59.9199371-11.8374023-7.8652344 8.7416992-8.8647461 23.2055664 1.722168 30.0932617 1.6230469 1.0556679 3.128418-1.5405273 1.5141602-2.5908203-13.0024414-8.4589844-4.1723633-25.6884766 6.6743164-31.2714844 11.7250977-6.0356445 27.261734-4.7856445 37.7671051 3.2172852 10.5698242 8.0514565 14.6268005 24.450264 5.1147461 34.5283241-10.8862305 11.5356445-28.820816 8.5390625-41.5136871 2.215332-.7285156-.362793-1.4174805-.1069336-1.84375.3706055-2.2407227 1.3808594-4.5214844 2.6953125-6.7861328 4.0361328.2856445-1.3393555.5712891-2.6787109.8598633-4.0175781.4057617-1.8823242-2.4858398-2.6865234-2.8930664-.7973633-.5375977 2.4951172-1.0644531 4.9926758-1.6025391 7.4882813-.25 1.1601563.9038086 2.2734375 2.0205078 1.7709961 3.2490234.1347656 8.8959961.7802734 9.2416992.6845703.7719727-.2143555 2.6660156-2.0566406 3.3334961-2.5 6.6665039 6.5 20.6264648 10.1767578 31.0830231 5.9165039 11.5336914-4.6987305 15.4003906-12.3208008 15.7856445-23.8740273.9853515-4.2895508.8457031-8.9072266-.5576173-13.4326172z"/><path d="m233.2150421 49.7371864c1.7319336.1103516 3.440918-1.1328125 3.8720703-2.8139648.6477814-2.5242195-1.6695557-4.9446144-3.2973633-4.4355469-1.2779236-.8273735-4.2659912.9857445-4.0947266 3.7084961.116211 1.8486328 1.6650391 3.4228516 3.5200196 3.5410156zm.3061524-4.5585937c.0009766.0004883.0014648.0009766.0019531.0014648.6826172.3183594 1.0454102 1.5273438-.0600586 1.5668945-.9813995.0353737-1.0157623-1.2364349.0581055-1.5683593z"/><path d="m249.291214 50.9481239c.6557312-2.5551834-1.7004395-4.9363098-3.2973633-4.4355469-1.277298-.8282928-4.2652588.9857445-4.0947266 3.7084961.1162109 1.8486328 1.6650391 3.4228516 3.5205078 3.5410156 1.7314454.1103516 3.4404297-1.1328124 3.8715821-2.8139648zm-3.5654297-1.7446289c.0004883.0004883.0009766.0009766.0019531.0014648.6826172.3183594 1.0454102 1.5273438-.0605469 1.5668945-.988388.0356446-1.0083465-1.2444648.0585938-1.5683593z"/><path d="m262.1828308 54.8919716c.6484985-2.5264015-1.6714478-4.9497375-3.300293-4.4389648-1.2780151-.8294792-4.2699127.9864807-4.0986481 3.7114258.1166992 1.8505859 1.6670074 3.4257813 3.5234528 3.5444336 1.7333985.1103515 3.4438477-1.1342774 3.8754883-2.8168946zm-3.5688476-1.7485352c.0009766 0 .0019531.0009766.0029297.0014648.6860352.3198242 1.0478516 1.5341797-.0615234 1.5737305-1.0112611.036316-.9933167-1.2746467.0585937-1.5751953z"/><path d="m174.5041046 99.1678543c-5.3818359 5.7817383-10.7626953 11.5634766-16.1445313 17.3452148-1.3139648 1.4116211.8027344 3.5380859 2.121582 2.1210938 5.3813477-5.7817383 10.7626953-11.5634766 16.144043-17.3452148 1.3144532-1.4116211-.8027343-3.538086-2.1210937-2.1210938z"/><path d="m190.3649445 130.0042725c-7.3779297.5678711-14.7558594 1.1352539-22.1337891 1.703125-1.9125977.1469727-1.9287109 3.1484375 0 3 7.3779297-.5678711 14.7558594-1.1352539 22.1337891-1.703125 1.9125976-.147461 1.9282226-3.1484375 0-3z"/><path d="m167.7951202 154.1697998c-1.7026367-.9091797-3.2197266 1.6796875-1.5141602 2.590332 4.5610352 2.4365234 9.1220703 4.8730469 13.6831055 7.3095703 1.7026367.909668 3.2197266-1.6791992 1.5146484-2.590332-4.5615233-2.4365234-9.1225585-4.8730469-13.6835937-7.3095703z"/><path d="m59.0094795 153.2406006c1.1318359-3.375 1.8735352-8.081543.2260742-11.4267578-1.0874023-2.2075195-4.4321289-3.0986328-5.6787109-.5058594-.8330078 1.7319336 1.7529297 3.2553711 2.590332 1.5141602.2301407-.4785614 2.0561981 3.3950043-.0302734 9.6206055-.6157227 1.8344726 2.2807617 2.621582 2.8925781.7978515z"/><path d="m20.7189522 253.6820068c.2089844.125.4174805.25.6259766.375.7128906 3.1303711 1.059082 6.3442383.9814453 9.5537109 4.6342773 3.0097656 9.7856445 5.8388672 14.6591797 8.4433594 1.7451172.9331055 3.5849609 1.8603516 5.5634766 1.8959961 2.262207.0405273 4.7456055-.6113281 6.5273438-2.0058594 1.9169922-1.5 3.5200195-2.9199219 4.5834961-4.9169922 14.4199181 11.215332 32.8647423 14.2319336 48.9999962 5.6669922 1.8642578-.9897461 5.4360352-4.6630859 6.6762695-6.3710938.934082-1.2866211 1.4560547-2.9516602 1.2480469-4.4990234.2851563-.5561523.4589844-1.1118164.5258789-1.6601563 2.7192383-.6787109 5.1186523-2.6005859 6.3149414-5.140625 1.3383789-2.8408203 1.1333008-6.3540039-.5263672-9.0195313 1.8955078-1.1777344 3.6582031-5.0791016 3.5947266-7.3095703-.0546875-1.8979492-1.4936523-4.7353516-3.1289063-6.1982422 4.6242905-3.4422607 4.1457291-7.3784485-.7514648-9.6176758-3.6425781-1.6645508-8.6337891-1.5268555-13.296875-1.1308594.5004883-9.3803711 1.237793-18.7485352 2.2211914-28.0908203 1.297966-12.3241882 2.3425064-19.2387848 3.7001953-27.6416016 3.0743256-.284317 18.531456-1.5047455 22.487793-1.8183594-3.4609375 9.1254883-8.828125 16.7910156-16.7099609 23.6079102-1.4624023 1.2651367.6669922 3.3789063 2.121582 2.1210938 8.5771484-7.418457 14.3085938-15.8759766 17.8837891-25.9912109 1.125-.0898438 2.2504883-.1796875 3.3754883-.2695313 2.9199219-.2397461 5.4301758-.4296875 10.0600586-1.6796875.2431641-.0634766 2.7714844-3.9858398 4.7402344-7.7602539.9125977-.2280273 1.6816406-.5952148 2.4985352-1.5146484 4.2000427-4.7250366 5.5129852-18.4440765.0234375-24.3017578-.8349609-.8911057-2.5576172-2.3217697-3.753418-2.6396408-2.109375-.5610352-5.5063477.0830078-7.6625977.144043-1.0825195.0307617-2.1650391.0673828-3.2475586.0996094 1.0893555-16.2109375 3.8881836-31.9770508 16.3369141-43.6049805 12.9384766-12.0854492 33.0957031-15.2958984 48.4702148-5.8818359 17.9721832 11.0048447 24.2878418 31.1425552 27.2324219 51.9272385 3.0931091 21.8301849 6.6937561 53.6872864 25.8110504 66.7856445-50.2597809 0-100.5195465 0-150.7793121 0-1.9301758 0-1.9335938 3 0 3h.3710938c3.125 3.0869141 10.4912109 8.7836914 12.8291016 11.1220703 15.6669922.1665039 20.6928711.7661133 35.3334961-.1665039 6.1665039 6.5 9.359375 8.3608398 16 10.1665039s13.9594727.4189453 19.8334961-3.1665039c2.2397461-1.3676758 4.2456055-3.3818359 5.9516602-5.7216797 18.7807617.7705078 37.5888672.2363281 56.3813477-.2783203 1.5249176-2.5917969 5.8315582-9.3574219 7.7675934-12.6621094 1.4762268.5168152 2.9889221-1.7129822 1.0449219-2.8339844.0073242-.0014648.0136719-.0024414.0209961-.0039063-12.7465973-9.902832-17.0112457-30.8413086-19.8354645-46.7333984-2.824707-15.8920898-3.7973633-32.4130783-10.4384766-47.1249924-6.7890625-15.0390625-20.0537109-25.9384766-35.3095703-32.2250977-.2919922-3.8588867-.5-5.5000038-3.75-8.5000038-1.828125-1.6875-5.3554688-2.6713867-8.4956055-2.5883789-1.0698242-.2167969-2.1411133-.2788086-3.1572266-.1542969-4.9018555.6000977-10.4711914 7.2509804-8.4838867 12.3159218-6.2890625 1.7631836-12.2270508 4.8637695-17.2514648 9.1254883-14.3237305 12.1474609-17.6918945 29.5039063-18.8881836 47.2949219-31.3621368 1.0267334-39.728447 2.5151596-69.2636719 3.6508713-1.9243164.0737305-1.934082 3.0742188 0 3 25.1967773-.9692383 50.3066406-3.1293945 75.5161133-3.8422852 2.7636719-.078125 6.0981445-1.0859299 8.3603516.7749023 2.9306641 2.4101563 3.6274414 6.6748047 3.6645508 10.2700195.0327148 3.1611328-.418457 6.9667969-2.1611328 9.7021484-1.2207031 1.9155273-2.7470703 1.9179688-4.9091797 2.2529297-.1010132.0156403-74.968811 5.4729309-84.9902344 5.9702148 1.9282227-4.5839844 2.0195313-11.1762695 1.5493164-14.4951172-.7866211-5.5473633-3.9492149-13.9121094-10.5356407-13.8095703-.2202148-.0512695-.4643555-.0551758-.734375.0180664-6.9160156 1.878418-7.4233398 13.9975586-6.4960938 19.5976563.7456055 4.5024414 5.8442383 15.8081055 12.2114258 13.2490234.3754883-.1503906.7260742-.3466797 1.0576172-.5751953 2.550293 1.574707 6.7275352 4.1416016 9.2573204 5.6176758 10.0991211-.4663086 14.9160156-1.0405273 24.5683594-1.3862305-.8769531 12.4536133-2.0849609 24.878418-3.2949219 37.3041992-.1342773-.012207-.2734375-.0136719-.421875.0107422-8.3076172 1.3618164-16.0102539 3.472168-22.8364258 8.5444336-5.3164024 3.9506836-10.2241173 8.465332-14.6010704 13.4404297.0180664-1.2963867-.2333984-2.5742188-.9916992-3.7944336-1.184082-1.9057617-2.9663086-2.8491211-5.0717773-1.7734375-.4550781.2324219-.8818359.5541992-1.28125.9375-7.9824219-3.8608398-15.9643555-7.7216797-23.9467773-11.5825195-1.7304688-.8369141-3.253418 1.7490234-1.5141602 2.590332 7.8774414 3.8100586 15.7548828 7.6206055 23.6323242 11.4306641-.8164063 1.425293-1.4238281 2.9912109-1.8149414 4.199707-2.1466179 6.6319275-4.8444633 24.8872375-3.8486328 33.8320313-5.6401367-3.3828125-11.2802734-6.7651367-16.9199219-10.1474609-1.6601567-.9956053-3.1704106 1.5971682-1.5146489 2.5903322zm160.2724571-41.1352539c-7.8505859-.6552734-15.0771484-7.8901367-19.5229492-14.3081055h39.7348633c-3.3574219 7.8261719-11.1494141 15.0644532-20.2119141 14.3081055zm-3.8857422-143.6464767c-1.5737305-2.8061523 2.4335938-7.679203 5.0175781-8.397953 3.6894531-1.0268555 11.9248047 2.8696289 9.7348633 7.8002968-.0151367.0341797-.0209961.0678711-.0336914.1025391-4.8950195-.6699219-9.8676758-.453125-14.6914063.5576172-.0107421-.0209962-.0156249-.041504-.0273437-.0625001zm-60.0444336 164.2241134c-.0810547-.0849609-.1669922-.1669922-.253418-.2485352.0463867-.0307617.0927734-.0625.1391602-.09375.0395508.1103517.0786133.2216798.1142578.3422852zm-12.7138672-75.0844726c-1.9013672 21.3789063-3.6708984 42.7724609-5.6640625 64.1430664-.6547852.0605469-4.3583984.3857422-5.6621094.5146484 1.9272461-21.3798828 4.3535156-42.7143555 5.6064453-64.1499023 1.5880128-.1411285 4.1577759-.3531647 5.7197266-.5078125zm-18.5698242 64.644043c-.5991211.0463867-1.1982422.0874023-1.7978516.1230469-.4648438-1.3681641.109375-2.2983398 1.7231445-2.7905273 1.5844727-1.0839844 3.0869141-1.4160156 4.7226563-1.7182617-.1435547 1.5419922-.2866211 3.0839844-.425293 4.6264648-1.4643554.0590819-2.902832.0195312-4.2226562-.2407227zm-34.9565391-75.2827149c-.359375-3.5830078-.0629883-13.3242188 4.3125-14.8256836 8.0954666-.2174988 10.7106895 21.0014496 4.7426758 25.5229492-2.1635551.0992737-2.6008492.0312042-3.0952148.4672852-3.2617189-1.4238281-5.685547-8.4296875-5.959961-11.1645508zm-2.4477539 76.21875c3.3017578-2.0878906 2.1328125 4.6708984 1.6396484 6.5532227-.0058594.0234375-.0053711.0449219-.0107422.0683594-.7114258.9321289-1.4072266 1.8759766-2.0805664 2.8359375-1.1113281 1.5834961 1.4882813 3.0844727 2.590332 1.5141602 5.5400391-7.8945313 12.5908203-15.0522461 20.4516563-20.671875 6.1875-4.4233398 13.2036133-6.2509766 20.5927734-7.4995117-.284668 2.9316406-.5673828 5.8637695-.8452148 8.7958984-3.949707.862793-10.0947266 2.4941406-10.7348633 7.2172852-.960556 7.0944672 29.654213.3092041 34.8041992 2.9321289 4.0986328 2.0869141 1.3261719 4.7929688-1.6723633 5.9936523-3.3417969 1.3388672-6.8393555 1.543457-10.3808594 1.5102539-1.9311523-.0185547-1.9326172 2.9814453 0 3 3.6118164.0336914 7.7973633-.1967773 11.3745117-1.6000977.0771484.190918.2041016.3764648.3999023.546875 1.3642578 1.1865234 1.8256836 3.1435547.9956055 4.7807617-1.6795349 3.3139343-5.2421036 2.5549927-15.6425781 3.5107422-1.9067383.1748047-1.9248047 3.1767578 0 3 4.874794-.4478302 10.4345551-.6328125 12.8569336-1.1206055 4.2368164 3.1835938-1.8979492 7.0371094-4.7070313 7.6762695-2.8774414.6547852-5.9628906.6015625-8.8979492.6274414-1.9291992.0170898-1.934082 3.0170898 0 3 1.7744141-.015625 3.7358398.0029297 5.7021484-.1289063.1142578.0898438.2392578.1713867.3896484.2329102 5.5893555 2.2895508 2.4580078 4.925293.5869141 6.0898438-4.8798828 3.0378723-19.1588135 4.3902588-25.7827148 3.715332-11.9829102-1.2202148-24.4555626-5.8208008-32.9467735-14.5683594-1.3466797-1.3876953-3.4672852.734375-2.1210938 2.1210938.9052734.9331055 1.8662109 1.8100586 2.8530273 2.6601563-.2841797 1.6254883-1.0341797 3.828125-2.0732422 5.125-.5087891.6347656-1.9291992 2.4716797-3.0551758 1.6499023-.4570313-.3330078-.5366211-2.5078125-.5913086-2.9824219-.8138501-7.0825195 2.1945117-33.9872741 6.3051761-36.5854492z"/></g></g></svg>