<svg id="Layer_1" enable-background="new 0 0 300 300" height="512" viewBox="0 0 300 300" width="512" xmlns="http://www.w3.org/2000/svg"><g id="Online_Application"><g><path d="m196.993515 252.7671661c-1.4199219-.7958984-2.840332-1.5917969-4.2602539-2.3876953-.8427734-.4726563-1.6000977.8232422-.7568359 1.2949219 1.4199219.7958984 2.8398438 1.5917969 4.2602539 2.3876953.8427734.4726563 1.6000976-.8222656.7568359-1.2949219z"/><path d="m239.0501556 163.6109161c2.6259766-.4150391 5.2519531-.8300781 7.8779297-1.2460938.9506836-.1494141.5473633-1.5957031-.3984375-1.4462891-2.6264648.4150391-5.2524414.8300781-7.878418 1.2460938-.9506835.1503907-.5468749 1.5957032.3989258 1.4462891z"/><path d="m250.7674408 161.4556427c.965332 0 .9667969-1.5 0-1.5-.9648438 0-.9667969 1.5 0 1.5z"/><path d="m200.1297455 179.6079865c1.1083984-.3710938 1.8876953-1.4433594 1.65625-2.6308594-.3671265-1.8817291-2.6752319-2.5518951-3.1943359-1.6757813-.2192383-.0546875-.4609375-.0322266-.6791992.1386719-.8896484.6953125-1.1005859 2.0136719-.6323242 3.0117188.5043944 1.0751953 1.7412108 1.5283203 2.8496093 1.15625zm-.5385742-1.4033204c-1.0913086.28125-1.3510742-1.1308594-.6176758-1.7041016.0341797-.0273438.0458984-.0585938.0732422-.0869141.0458984.0048828.0830078.0214844.1347656.0175781 1.1181641-.0869139 1.621582 1.4619142.409668 1.7734376z"/><path d="m61.6468353 98.7075882c2.902832.3417969 5.3378906-1.09375 8.1699219-1.1367188.9643555-.0146484.9672852-1.5146484 0-1.5-1.7758789.0263672-3.2207031.6357422-4.9287109 1.0058594-2.9985352.6494141-6.065918-.2050781-8.3051758-2.28125-.7070313-.65625-1.7705078.4023438-1.0605469 1.0605469 1.7260742 1.6005859 3.7739258 2.5742187 6.1245117 2.8515625z"/><path d="m94.3445892 68.9556351c5.4047852-3.1464844 2.0058594-13.7021446-4.4194336-10.7431602-.4160156.1914063-.6425781.484375-.7299805.8076172-1.8447266 1.6660156-2.4296875 4.6865234-1.6035156 6.9746056.9672852 2.6787108 4.0947266 4.5078124 6.7529297 2.9609374z"/><path d="m91.3455658 72.4810257c-3.6938477 1.46875-5.4350586 5.3935547-6.6240234 8.9492188-.5017624.6625824-.3204956 3.5529633 1.3862305 3.5019531 12.8735733-.3917923 13.2871704.0492706 14.5268555-1.0039063 2.4038086-2.0419922-.2895508-6.7021484-1.5507813-8.5908203-1.7832032-2.6699219-4.6259766-4.09375-7.7382813-2.8564453z"/><path d="m78.3899994 67.2954788c-3.0688477 3.2832031-7.2915039.5585938-10.7919922-.1914063-2.6884766-.5751953-5.2705078-.4072266-7.9287109.2021484-.9404297.2158203-.5424805 1.6621094.3989258 1.4462891 6.8338623-1.5659943 10.2017517 1.1608734 13.4980469 1.5566406 2.2875977.2753906 4.3041992-.2617188 5.8842773-1.9521484.6586914-.7050781-.3994141-1.7685546-1.0605469-1.0615234z"/><path d="m62.0106049 78.3950882c-.7353516-.6152344-1.8017578.4404297-1.0605469 1.0605469 4.5771484 3.8320313 9.9384766-2.6376953 14.4165039.3769531.8027344.5400391 1.5541992-.7587891.7568359-1.2949219-4.5219726-3.0439453-10.1352539 3.1875-14.1127929-.1425781z"/><path d="m48.1732025 122.8257523c-.8242188-.5087891-1.5786133.7890625-.7573242 1.2949219 5.3789063 3.3173828 11.2290039 6.4619217 17.5805664 3.9775467 4.4477539-1.740242 7.5375977-4.0009842 12.5541992-3.615242 4.4584961.34375 8.5307617 1.53125 13.034668.9814453.9462891-.1152344.9575195-1.6162109 0-1.5-6.5102539.7939453-13.1821289-2.4101563-19.5898438-.4326172-2.8022461.8652344-5.109375 2.9267578-7.9511719 3.6787109-5.4345702 1.4375076-10.4628906-1.6660156-14.8710937-4.3847656z"/><path d="m86.6360931 166.1109161c-1.9858398-.5292969-3.5878906-.1123047-5.480957.6484375-3.0170898 1.2128906-5.6601563 1.6054688-8.659668.0458984-.8554688-.4443359-1.6152344.8496094-.7573242 1.2958984 1.9042969.9892578 3.8930664 1.4990234 6.0498047 1.2470703 2.9155273-.3417969 5.3955078-2.6054688 8.449707-1.7910156.9335938.2490235 1.3320313-1.1972655.3984375-1.446289z"/><path d="m116.3987885 197.3853302c4.8881836 1.0185547 9.8398438-1.828125 11.1938477-6.7041016 1.4604492-5.2568359-2.472168-10.1484375-7.5332031-11.2177734-5.0860825-1.0821533-10.3079605 1.7876892-11.3979492 6.9228516-1.0927736 5.1474609 2.7929686 9.9677734 7.7373046 10.9990234z"/><path d="m87.5799408 146.8853302c-8.9174805-2.859375-15.612793 9.5068359-24.6132813 2.3701172-.7490234-.59375-1.8173828.4609375-1.0605469 1.0605469 2.7983398 2.21875 5.9541016 3.0585938 9.5288086 2.5546875 5.4755859-.7714844 9.9858398-6.3857422 15.7460938-4.5390625.9213867.2949218 1.315918-1.1523438.3989258-1.4462891z"/><path d="m45.337265 75.0347366c2.434082 5.2412109 3.4267578 11.2607422 2.7749023 16.9882813-4.6279297 11.5908203-15.3720703 20.6269531-17.227541 33.4316406-.6918945 4.7744217.1118164 8.9834061 1.8554707 12.7900467 4.3329163 12.7231903 17.7787209 18.7525177 24.7949219 29.7822266 6.7353516 10.5888672 6.4780273 25.09375-.9448242 35.2128906.8496094 2.3369141 1.980957 4.5673828 3.3364258 6.6533203-.2675781.7939453-.0244141 1.8085938.9487305 1.9658203 7.979332 1.2852173 10.6841812-9.0884705 71.1987305-4.7470703 1.1303711.0820313 1.8764648-1.3359375 1.2949219-2.2568359-.3710327-.5882568 12.3047943-26.7603302-9.9301758-54.3642578 3.2388.8199463 17.7328949-1.5483704 28.6386719-9.5722656.0229492 1.8681641.0161133 3.7373047.0078125 5.6074219-.0131836 2.9140625-.862793 8.0380859.1762695 10.8076172.498764 1.3304443 7.7261505 6.2136841 7.9052734 6.3271484.0800781.0507813.1728516.0771484.2675781.0771484.1020813 0 13.3966064-.4008636 13.7333984-.4160156-.4132385 9.8988342-.4282227-3.1633911-.4282227 22.3388672 0 .1001587.0809326.929657.309082 1.0869141 7.1037292 4.9179688 6.6074829 4.5771484 6.8056641 4.5791016 4.3252411.0505981 9.3332672.346817 14.046875.4365234 0 18.6673279.0083771 17.1091156-.0195313 17.6835938-5.6801758 10.2001953-11.2797852 20.4453125-16.7792969 30.7490234-.5490723.3322906-1.4693756 2.6288757-1.2915039 3.2509766-.7724762 5.807251 3.2850342 7.920166 28.644043 21.9745941 4.6899567 2.6003723 11.3089294 1.466217 16.5180664.171875 3.262207-6.0898438 6.6455078-11.9394379 10.0644531-17.7314301 14.6918945 3.0166016 27.4404144 5.2490234 39.6699066 7.6142578 1.5957031.7001801 3.1860352 1.4130707 4.769043 2.1454926 1.3984375.6474609 2.6542969-.8925781 2.1870117-1.9443207-.0144958-.1000214-22.8557129-49.1587982-22.9560394-49.2324219 6.6088715-12.1376953 12.7338715-23.7236328 19.2372894-36.8066406-.5205078-2.7089844-.5527344-5.8632813-.9194336-8.8027344 1.1103516-3.6142578.7348633-6.9238281-3.8881836-8.0087891-4.0679932-.9554291-30.2493134 2.8413544-31.5951996 3.0546875-15.2999573 2.4281616-12.3039856-.9959869-20.3984375 12.8242188-1.5620117 2.6679688-3.097168 5.3496094-4.6479492 8.0224609-1.2457123-1.6872101-2.699295-3.3143158-3.8222656-5 0-1.14711-.6946106-1.7470703-1.5-1.7470703-5.2773438 0-10.5541992.0683594-15.8310547.109375-.0717773-3.1425781.0039063-6.3408203.0805664-9.4394531.0791016-3.2148438.1621094-6.5400391.0761719-9.8095703l-.0039063-.1240234-3.8701172-6.8945313c-.1923218-1.057785-.4652557-2.411377-1.5083008-2.6875-.5795593-.0813446.8293457-.1242371-16.6738281.8857422-.0132599-.5270691-.0859222-7.0105133-.0864258-7.1152344-2.9836884-3.3505096-1.3574371-1.7275391-3.2646484-4.203125-.6455078-2.6953125-2.2807617-5.2431717-4.7373047-6.2656326.6289063-10.9960938-2.8935547-21.3212891-9.8256836-29.8955078-.3393555-.4199219-.9726563-.4912109-1.4594727-.3857422-14.8576355 3.219368-23.7824326 12.8591766-23.8652344 14.7470703-6.1118164-2.1220703-12.2841797-4.0693359-18.4526367-6.0351563 5.5820313-8.1005859 10.3427734-15.2275391 8.1157227-25.7529297-2.1889648-10.3476563-9.359375-20.2265587-16.4394531-27.973629-.0131836-.6308594-.3461914-1.2333984-1.0546875-1.3349609-25.6025391-3.6660156-51-8.5634766-76.1298828-14.6806641-1.3084946-.3170471-1.8540249-.0655251-1.97756 1.8689575-.1509151 2.3632431.3279552 7.2381401.8149624 16.6564331 9.7153302 5.09375 18.6372071 13.4335899 23.256836 23.3837852zm40.7460938 26.3183594c-.5322266 2.6455078-1.6762695 5.0830078-3.6040039 6.9394531-1.4552536-1.2041016-2.3743439-2.544693-3.6054688-4.1582031.84375-1.8164063 2.3085938-3.6142578 2.7490234-5.4560547 1.5888672-.0488281 3.1655273-.0283203 4.6948242.1152344 1.7990723.1689987 41.0526428 13.3365326 42.1962891 13.7431641-1.8823242 3.9384766-3.7675781 8.0478516-4.3491211 12.3994141-40.7215652-15.5293579-38.8160629-14.7467194-40.4428711-15.7548828 2.0117188-1.9990234 3.246582-4.6416016 3.8081055-7.4296875.1894531-.9423829-1.2558594-1.3457032-1.4467773-.3984376zm78.2045898 31.0468826c-.0068359 1.9941406-1.7368164 3.0908203-3.78125 3.7255859-8.4981537 2.6403961-6.987381-7.8586578-1.4731445-9.0673904 3.1216888-.6840362 4.6704254 2.2022324 5.2543945 5.3418045zm-12.5834961-1.3222656c-5.5441132 0-9.6047363-.0496674-15.4882813-1.0087891 2.7278748-1.8638 5.9260559-10.4161224 4.9985352-13.4658279 4.6889648 2.7431641 9.0014648 6.0400391 12.6743164 10.2998047-1.0664062 1.1914139-1.8466797 2.6425858-2.1845703 4.1748123zm-13.2651367-14.7587967c-2.4101715 2.3323059-4.9279785 9.0654297-4.5986328 12.3134842-.1731567-.0805359-8.127533-3.1074371-8.2275391-3.1455154.4897461-4.3740234 2.4379883-8.5224609 4.3173828-12.4482422 2.8564453 1.0341797 5.6933594 2.125 8.5087891 3.2802734zm-20.8300781 9.3154297c-.5379715 1.0025864 1.2952118 13.414299 4.5878906 23.3369217-7.3920898-8.9257813-15.8579102-17.3134766-18.1542969-28.5293045 4.5214844 1.7324219 9.0439453 3.4628906 13.5664063 5.1923828zm7.2617187 21.8593826c-1.9897461-6.1376953-3.3505859-12.3457031-4.1313477-18.7382813 9.8188477 4.1083984 20.2163086 5.5351563 30.894043 5.3193359.0708008.4335938.2710266 1.4673004.3413086 3.1474609-7.7451172 6.2890627-17.1303711 9.7626955-27.1040039 10.2714845zm81.4497071 47.6298829c.0161133 1.8417969.2104492 3.6162109.8266602 5.1162109.3256836.7929688.965332 1.2236328 1.8452148 1.0478516 1.6762695-.3349609 3.3417969-.7177734 5.0063477-1.1035156-3.2143707 4.9484558-6.0475616 10.9845428-7.6220703 16.7207031-8.8963165-4.3098145-8.4755859-2.7300415-8.4755859-6.8183594 2.7822264-5.0009766 5.5839842-9.991211 8.4194335-14.9628906zm31.0463867 43.7558593c1.9514313 3.4718475 2.0720062 3.6176605 2.3662109 3.8457031.0014648.0019531.0029297.0029297.0039063.0048828-1.8549805.5595703-3.878418 1.3398438-5.9072266 2.1044922 1.1777344-1.9843749 2.3569336-3.9697265 3.5371094-5.9550781zm36.8373871 14.4423828c-10.637207-4.7226563-21.5356293-8.7695313-32.4409027-12.8427734-.9077148-1.5117188-1.7744141-3.046875-2.6264648-4.5898438 5.219101-8.8213959 7.2804108-12.4495544 14.8632813-26.3164063 6.2831877 14.8183595 12.9238127 29.4023439 20.2040862 43.7490235zm-50.1616059-88.84375c1.7480469-2.8535156 3.4057617-3.6201172 6.6826172-4.3164063 7.6646729-1.6282806 24.6390839-3.5055847 33.6093597-4.2324219.7988281-.0654297 2.0537109-.3857422 2.8349609-.2207031 1.512207-.4208984 2.4077148.3164063 2.6860352 2.2119141 1.5527344 1.0742188 1.8339844 2.2197266.8442383 3.4355469-.3901367 2.0527344-2.4399414 4.4960938-3.4912109 6.3564453-57.9255066 102.4817047-51.5081177 91.4335175-53.9853363 94.9130707-2.0849609.0683594-4.1694336.1367188-6.2543945.2060547-.1002502-.0267334-28.2560425-14.0624237-27.0654297-19.6620941 5.1103516-9.5976563 10.2929688-19.15625 15.5522461-28.671875.0229492.0361328.0366211.078125.0615234.1132813 1.2029877 1.6883698 3.3779297 1.997345 10.1655273 5.2724609-.7666473 3.8925476-1.3511505 10.3181458 2.2016602 12.0830078 2.9128876 1.4484863 6.6965485-1.306076 9.0625-3.5546875 3.46875-3.2958984 6.9326172-8.2373047 9.7539063-13.9140625 6.6554413-13.3869019 6.5784607-23.3506622 2.5639954-25.5350037-2.7146454-1.4770813-7.2297974.6031494-12.6811829 7.587738-.6552734.1435547-1.3105469.2890625-1.9658203.4375-.0689697-5.6897125.2714691-10.9378662.2045898-16.6298828 11.0076446-18.9487915 8.9504089-15.4393768 9.2202148-15.8798828zm-37.03125 8.6494141c6.5541992 0 13.1074219-.1181641 19.6616211-.1357422 0 15.6573181.015976 14.427124-.0400391 15.6162109-2.9316406 5.1259766-5.8432617 10.2626953-8.7319336 15.4121094 0-6.1679688 0-12.3369141 0-18.5048828 0-.8115234-.6875-1.5-1.5-1.5-6.5541992 0-13.1074219.1171875-19.6616211.1357422 0-1.4021301.1877136-26.6352081-.3237305-27.9355469-.2333984-.5927734-.7456055-1.1416016-1.4462891-1.1015625-21.6947937 1.2381744-19.3277588 1.2936249-19.8701172 1.1757813.0921021-.3083344.1663818-11.5521698-.0551758-17.4208984 3.021759 1.4754791 7.1749268.2870026 9.6069336-1.4443359-.0112305 2.3779297-.1791992 4.7080078-.1425781 6.5087891.0263672 1.2626953 1.3027344 1.6962891 2.1821289 1.3046875 6.315918-.3623047 12.6318359-.7314453 18.9477539-1.09375.8168945 3.6162109-.1269531 8.9306641-.1269531 12.3583984v15.125c.0000001.8105468.6875001 1.4999999 1.5000001 1.4999999zm-39.6723633-74.9267654c2.6884766-.8408203 3.3652344-1.0371094 5.2705078 1.3798828 5.2749023 6.6904297 7.1748047 16.0244141 6.7753906 24.4150391-1.1210938.0976563-2.1962891.4560547-3.1738281 1.0136719-6.7392578-7.9326172-15.6279297-12.6611328-25.0488281-16.6279297 4.309021-4.7001725 9.4909973-8.0892258 16.1767578-10.1806641zm-33.7460937-21.8642579c2.8032227 10.5390625-2.2294922 17.4960938-7.8183594 25.5810547-1.6020508-.5146484-3.2026367-1.0332031-4.8007813-1.5595703-10.95858-3.60952-10.2812347-6.1153412-28.6152344-3.8310547-.9780273.1210938-2.0639648 1.2353516-1.2954102 2.2568359 2.3188477 3.0820313 4.6713867 6.1376953 7.0039063 9.2080078 4.4577103 5.8677826 3.2753983 3.7782822 11.8427734 7.0449219 3.2438354 1.2355881 7.296051 2.7855377 10.9038086 4.1679688 4.7236099 30.0401382 40.1437836 28.83358 29.5913086 84.7744217-18.6827011-1.4803772-33.4524536-4.7127228-65.8955078 4.6054688 5.8261719-8.5380859 7.703125-19.2216797 5.1123047-29.3740234-3.5141602-13.7714844-14.9570313-20.9804688-24.7602539-30.1113281-5.8525391-5.4511719-11.2924805-12.2880859-11.2358398-20.6787109.0522461-7.7353592 4.9365234-14.5781326 9.0664063-20.7392654 7.7744141-11.5996094 12.9179688-22.5166016 9.0776367-36.6523438-3.890625-14.3183556-14.2270508-23.9062462-24.3964863-33.8417931 23.224123 5.4980469 46.6704102 9.9667969 70.2939453 13.3759766 6.5561543 7.0654295 13.411623 16.319332 15.9257832 25.7734335z"/><path d="m157.3387299 151.2447052c-.8364258-.1339874-1.877243 1.4628906-1.1801758 2.9882813.4428711.9677734 1.5229492 1.4140625 2.5327148 1.1054688 1.0126953-.3105469 1.7241211-1.2832031 1.5927734-2.3505859-.223999-1.8227998-2.3703765-2.5504304-2.9453124-1.7431642zm.8300781 2.6806641c-.8166504.1587372-.943512-.9194183-.3408203-1.5048828.0258789 0 .0444336.0107422.0712891.0087891.9326171-.0722657 1.2675781 1.3037109.2695312 1.4960937z"/><path d="m182.2308197 145.068924c-.8358154-.1335754-1.8780518 1.4628906-1.1801758 2.9882813.4428711.9677734 1.5224609 1.4140625 2.5322266 1.1044922 1.0126953-.3095703 1.7241211-1.2822266 1.5932617-2.3496094-.223938-1.8222199-2.3722382-2.5511018-2.9453125-1.7431641zm.8295898 2.680664c-.8148499.1584778-.9491425-.9299011-.340332-1.5048828.0253906 0 .0439453.0107422.0708008.0087891.9326172-.0722657 1.2675781 1.3027343.2695312 1.4960937z"/><path d="m178.9549408 178.7622833c-.8356018-.1379242-1.8763885 1.464447-1.1796875 2.9873047.4428711.9677734 1.5224609 1.4140625 2.5322266 1.1054688 1.0126953-.3105469 1.7241211-1.2832031 1.5927734-2.3505859-.2236786-1.8264466-2.3737488-2.5493775-2.9453125-1.7421876zm.8300781 2.6806641c-.8156433.1577148-.9478302-.9321136-.340332-1.5058594.0253906 0 .0439453.0107422.0708008.0087891.9326172-.0722656 1.2675781 1.3037109.2695312 1.4970703z"/></g></g></svg>