<svg id="Layer_1" enable-background="new 0 0 300 300" height="512" viewBox="0 0 300 300" width="512" xmlns="http://www.w3.org/2000/svg"><g id="Online_Chat"><g><path d="m81.1345291 277.9805298c21.9376297-1.2773132 42.3737564-15.9684753 50.8746567-45.4917297 7.8530121-27.2716064-10.1564407-77.2509003-61.6567383-71.8164063.4404297-1.9570313.9672852-3.8964844 1.5498047-5.8271484.3701172-.7509766.7519531-1.4990234 1.152832-2.2412109.9174805-1.6982422-1.671875-3.2148438-2.590332-1.5136719-1.9423828 3.5976563-3.5507813 7.2958984-4.8349609 11.1240234-.7963867 1.0498047-1.1728516 2.78125-1.4433594 4.3212891-1.112793-.8378906-2.3120117-1.7509766-3.4897461-2.2167969-1.8642578-1.3447266-3.668457-2.7724609-5.4301758-4.2607422-.2509766-.7919922-1.1782227-1.4130859-2.1938477-.9755859-4.112793 1.7714844-8.0385742 3.8632813-11.9829102 5.9628906-4.4047852-8.4462891-8.9394531-16.9794922-14.1376972-24.9697266 18.2070332-9.5507813 36.6616211-18.5341797 55.6850586-26.3486328 3.6923828 8.4423828 7.2973633 16.9238281 10.9956055 25.3642578-1.4174805.9082031-3.8676758 1.5517578-5.015625 2.0878906-3.1992188 1.4921875-6.3613281 3.0302734-9.6259766 4.3818359-1.4887695.6162109-1.1611328 2.7841797.0566406 2.9882813-.0961914.0605469-.1933594.1152344-.2900391.1757813 5.4970703-.75 11.2666016-1.9013672 16.7631836-2.6523438.3881836-1.9150391.7763672-3.8300781 1.1645508-5.7451172.2905273-.4853516.3056641-.9882813.0595703-1.5478516-4.0576172-9.2285156-7.9794922-18.5166016-12.0297852-27.75-.2382813-.5419922-1.137207-.9160156-1.6938477-.6884766-20.0117188 8.1582031-39.4023438 17.5800781-58.5239258 27.6337891-.9506836.1640625-1.7573242 1.1425781-1.0727539 2.1689453 5.8647461 8.7978516 10.8608418 18.3242188 15.7402363 27.6904297.3330078.6396484 1.1030273.8242188 1.7524414.6318359 1.2680664.2890625 2.2094727.4287109 3.5146484.7353516 3.3706055-1.2988281 7.394043-3.390625 10.9731445-5.1455078.3100586.2490234.6308594.4833984.9438477.7285156-2.8017578 1.2402344-5.8828125 3.6464844-7.8378906 5.0419922-44.8287962 32.0009766-27.5229528 111.6558533 32.6233904 108.1538392zm-29.2986832-36.2026673c.8691406 4.3183594 3.3642578 7.5888672 8.0297852 7.6679688 2.9272461.0498047 5.7856445-1.1367188 8.690918-1.2246094 11.2229233 2.1412964 9.7677383 11.0613708 5.6948242 14.8994141-20.8514709-3.1439819-38.9878616-17.4445801-43.8911133-38.9658203 5.6397038 5.2089233 11.9265156 2.3094482 16.9179707 5.5615234 4.2153301 2.7460938 3.6874981 7.7412109 4.5576152 12.0615234zm57.3081055-11.6035156c4.065979 3.7519073 7.475914 3.8028412 11.0283203-1.8027344 1.0493164-1.6542969 5.0317383-10.4423828 8.6040039-4.6992188.027832.0439453.0649414.0673828.097168.1025391-.6767578 3.8154297-1.7905273 7.5742188-3.3691406 11.1953125-6.1977539 13.0361328-17.5249023 23.2910156-31.2177734 27.1279297 2.2651367-1.9404297 4.1274414-4.4140625 3.7509766-7.4550781-.7723007-6.2365265-11.112793-6.927063-2.0161133-22.0595703 1.1108398-1.8476563 2.4355469-4.3710938 4.4882813-5.3876953 4.4052733-2.1816406 6.1733397.7089844 8.6342772 2.9785156zm6.2192383-51.6357422c1.3349609 1.4169922 2.5810547 2.9023438 3.737793 4.4462891-4.0620117-2.2207031-9.1938477-3.53125-8.800293 2.2519531.4243164 6.234375 4.3798828 10.9960938-.800293 16.8574219-3.2280273 3.6533203-8.6147461 4.7539063-13.206543 3.4570313-6.0117188-1.6972656-11.9038086-8.9160156-4.543457-14.0087891 3.0678711-2.1220703 6.7763672-2.5908203 7.5463867-6.8232422.5146484-2.8291016-.7939453-5.9208984-2.9980469-7.7226563-2.9750977-2.4326172-7.4663086-3.0859375-11.097168-2.0976563-2.0932617.5693359-3.4125977 2.2714844-5.3061523 2.9941406-6.7749023 2.5859375-7.6713867-5.2958984-6.7412109-8.7666016.5800781-2.1640625 1.8105469-4.2138672 2.9003906-6.1455078 14.8256989-.0337523 27.6543732 3.1961061 39.3085938 15.5576173zm-41.0454102-15.5253906c-2.2724609 4.1083984-4.519043 9.0146484-1.9707031 13.4960938 1.9269638 3.3894196 5.7200394 4.7294617 8.996582 2.1884766 9.2166977-2.096817 14.6344528 5.0717926 12.0195313 10.4501953-3.8227539 2.2626953-7.5 3.8896484-6.4892578 9.3378906 1.7045898 9.1894531 14.9614258 11.296875 21.5947266 6.5439453 3.6357422-2.6054688 5.8129883-7.1894531 5.3891602-11.6611328-.0787048-.8308716-.552269-2.6952515-.3789063-3.4316406.2973633-1.2558594.8662109-2.4355469 2.0063477-3.1357422 1.734375-1.0654297 4.0893555-.5234375 5.6831055.7431641 6.371727 5.0653534 9.5537415 23.0622101 8.0117188 34.2753906-2.2504883-2.1533203-5.3798828-.9013672-7.4633789 1.2988281-6.3687286 4.0986328-7.0443497 9.1694031-13.956543 3.6337891-1.746582-1.4052734-3.4799805-2.1474609-5.7421875-1.7050781-5.8945313 1.1533203-10.2055664 10.4765625-11.0874023 15.7207031-.5632782 3.3465729 1.2468262 10.0411682 1.6171875 11.9189453.4604492 2.3369141-.253418 4.7822266-1.4726563 6.828125-.8413086 1.4130859-1.9145508 2.6621094-3.0473633 3.859375-3.5192947.4520264-7.2629623.5218506-11.8740234-.0107422 3.2633057-3.6459045 3.8996582-8.8226776.644043-12.9228516-1.6831055-3.2529297-9.0644531-6.5380859-13.3984375-6.6943359-1.6660156-.0605469-3.5981445-.3339844-5.1811523-.8564453-1.7680664-.5830078-3.1533203-2.0185547-4.0639648-3.6416016-.8137703-1.4506836-1.7502251-6.8044281-4.3251953-9.4121094-4.9013672-4.9599609-16.2285156-2.1347656-19.9614277-8.0927734-1.6803303-9.535553-.6272964-19.1790009 3.349123-28.3730469 4.6485634.051712 9.5842247-1.5798645 12.5556641-5.1064453 1.4296875-.4501953 5.0253906-4.3564453 5.965332-5.0839844 1.4589844-1.1289063 3.2011719-1.2939453 4.8149414-2.0869141 1.0966797-.5390625 3.140625-2.4443359 3.2924805-3.7832031 1.1049805-2.9882813-.8930664-6.9707031-.621582-9.9990234 1.2288361.1450806 1.0022888.586792 5.2592773 3.0820313.7291031.4270172 1.7334442.1009674 2.0883789-.5917969.6054001-.3575745 1.6186523-.9560547 2.4213867-1.4306641.1948242-1.5361328.4423828-3.0546875.7207031-4.5634766 1.297363-.5390625 2.9453123-.7333984 4.6044919-.7939453zm-20.6000976 6.9882813c.9238281-.5498047 2.6586914-1.8457031 4.0639648-2.4296875.0883789 3.6650391 2.2260742 10.1621094-1.6645508 10.9169922-2.0683594.4013672-3.1040039-.9306641-5.0703125.3525391-.6927643.2389526-1.1713562.5968018-1.6064453 1.5869141-1.4584961 1.9375-2.5683594 4.7109375-3.9663086 6.2636719-3.0341797 3.3681641-7.2109375 5.0341797-11.5996094 5.1660156 4.3205567-9.1557313 11.2426835-16.7360536 19.8432618-21.8564454z"/><path d="m55.238678 192.0464172c-7.2612305 7.2685547-7.8911133 19.9951172-1.4790039 28.0527344 5.0878906 6.3935547 19.1367188 12.25 25.5605469 4.3544922.8901367-1.09375 1.2861328-2.2119141 1.3408203-3.3251953.7128906-2.2597656.6577148-4.7626953-.355957-6.9111328-1.7667313-3.7426147-5.1711197-5.5960999-4.1113281-10.578125.9116211-1.2773438 1.8032227-2.4931641 1.8442383-4.2705078.105957-4.6201172-4.4951172-7.5185547-8.2080078-9.1005859-5.3525392-2.279297-10.0366212-1.8408204-14.5913087 1.7783202zm18.9038086 2.5234375c5.5649414 5.4697266-.5039063 7.5771484-1.4550781 12.4765625-1.0473633 5.3964844 5.4438477 7.7246094 6.3632813 12.3916016 1.5161133 7.6972656-9.8056641 7.5908203-14.2109375 6.2880859-4.2285156-1.2509766-8.0776367-3.8427734-10.6098633-7.4873047-5.2124023-7.5029297-4.3793945-18.6767578 2.0693359-25.1308594 5.2895507-4.2031249 13.0268554-3.2724609 17.8432617 1.4619141z"/><path d="m70.4881897 129.8227844c-9.4199219 4.1474609-18.8398438 8.2939453-28.2592773 12.4404297-1.7631836.7753906-.2382813 3.3613281 1.5141602 2.5898438 9.4194336-4.1464844 18.8393555-8.2929688 28.2592773-12.4394531 1.7631835-.7763673.2377929-3.3613282-1.5141602-2.5908204z"/><path d="m65.8299866 140.5991516c-3.503418 1.0996094-6.8208008 2.6328125-9.9135742 4.6132813-1.6210938 1.0380859-.1181641 3.6357422 1.5141602 2.5908203 2.8852539-1.8476563 5.9267578-3.2851563 9.1972656-4.3115234 1.8354492-.5761719 1.0517577-3.4736329-.7978516-2.8925782z"/><path d="m178.6859436 35.8940735c-.3168945-.4443359-.855957-.7177734-1.5424805-.5283203-2.6625977.7353516-5.4443359 2.5332031-5.3930664 5.6376953.0463867 2.7939453 2.6518555 4.6845703 5.2666016 4.7568359.7583008.1777344 1.6333008.2841797 2.0776367.3046875 2.0175781.0917969 4.1416016-.4980469 4.809082-1.4179688.5444336-.75-.0463867-1.6455078-1.3134766-2.1318359.2016602-.4228516.3666992-.8681641.4458008-1.3583984.444336-2.7568359-1.5751953-5.2197266-4.3500976-5.2626953zm-3.8769531 4.5976562c.2646484-1.1679688 1.5249023-1.7373047 2.6054688-2.0771484.2412109.2900391.6079102.4833984 1.105957.4736328 1.4453125-.0283203 1.9790039 1.453125 1.2719727 2.5859375-1.3744508 2.2022438-5.5199128 1.3842468-4.9833985-.9824219z"/><path d="m218.1019592 39.5102844c-.3168945-.4443359-.8554688-.7177734-1.5419922-.5283203-7.1520691 1.9752426-6.6303253 8.5416603-1.7709961 10.1123047.5878906.4482422 2.5380859.7207031 3.2802734.7539063 2.0180664.0927734 4.1420898-.4970703 4.8095703-1.4169922.5009766-.6894531.0507813-1.5097656-1.0117188-2.0146484 1.8074342-3.2578393-.4027708-6.8541871-3.7651366-6.9062501zm-3.8769531 4.5976563c.2646484-1.1679688 1.5253906-1.7373047 2.605957-2.0771484.2407227.2900391.6079102.4833984 1.1054688.4736328 1.4453125-.0283203 1.9790039 1.453125 1.2724609 2.5859375-1.3715515 2.1975784-5.5207367 1.3878669-4.9838867-.9824219z"/><path d="m198.4256897 37.808136c-.3173828-.4453125-.855957-.71875-1.5424805-.5292969-2.6625977.7353516-5.4443359 2.5332031-5.3930664 5.6376953.0439453 2.6679688 2.421875 4.5097656 4.9130859 4.734375.8276367.2929688 2.1611328.4677734 2.7460938.4951172 2.0180664.0917969 4.1420898-.4980469 4.8095703-1.4179688.5917969-.8144531-.1474609-1.8085938-1.6513672-2.2529297 1.5913697-3.2557334-.6449127-6.6180076-3.8818359-6.6669921zm-3.8769531 4.5966797c.2641602-1.1679688 1.5249023-1.7363281 2.6054688-2.0771484.2407227.2910156.6079102.484375 1.105957.4736328 1.4448242-.0283203 1.9785156 1.4541016 1.2719727 2.5869141-1.3781281 2.2081222-5.5182954 1.3761138-4.9833985-.9833985z"/><path d="m42.019928 75.9194641c.965332 0 .9667969-1.5 0-1.5-.9653321 0-.9667969 1.5 0 1.5z"/><path d="m59.8045959 41.4985657c-.965332 0-.9667969 1.5 0 1.5.9653321 0 .9667969-1.5 0-1.5z"/><path d="m114.6722717 41.1069641c.965332 0 .9667969-1.5 0-1.5-.965332 0-.9667968 1.5 0 1.5z"/><path d="m147.9715881 56.2563782c-.965332 0-.9667969 1.5 0 1.5.9648438 0 .9667969-1.5 0-1.5z"/><path d="m117.6996155 84.2446594c.965332 0 .9667969-1.5 0-1.5-.9653321 0-.9667969 1.5 0 1.5z"/><path d="m146.407135 31.7534485c-.965332 0-.9667969 1.5 0 1.5.9648438 0 .9667969-1.5 0-1.5z"/><path d="m95.0736389 54.4194641c-.965332 0-.9667969 1.5 0 1.5.965332 0 .9667969-1.5 0-1.5z"/><path d="m147.2147522 99.7583313c.9648438 0 .9667969-1.5 0-1.5-.965332 0-.9667969 1.5 0 1.5z"/><path d="m55.2635803 108.4751282c-.9648438 0-.9667969 1.5 0 1.5.9653321 0 .9667969-1.5 0-1.5z"/><path d="m74.9403381 72.1489563c-.9648438 0-.9667969 1.5 0 1.5h.378418c.965332 0 .9667969-1.5 0-1.5-.1259766 0-.2519531 0-.378418 0z"/><path d="m105.5907288 117.1655579c.965332 0 .9667969-1.5 0-1.5-.9648438 0-.9667969 1.5 0 1.5z"/><path d="m261.4911194 214.0483704c-.965332 0-.9667969 1.5 0 1.5.9648437 0 .9667969-1.5 0-1.5z"/><path d="m26.8836956 47.5395813c.965332 0 .9667969-1.5 0-1.5-.9648437 0-.9667969 1.5 0 1.5z"/><path d="m176.723053 254.5307922c0-.1259766 0-.2529297 0-.3789063 0-.9648438-1.5-.9667969-1.5 0v.3789063c0 .9648438 1.5.9667969 1.5 0z"/><path d="m180.1351624 206.8589172c-.9648438 0-.9667969 1.5 0 1.5.965332 0 .9667968-1.5 0-1.5z"/><path d="m173.7401428 171.7534485c-.9648438 0-.9667969 1.5 0 1.5.9653321 0 .9667969-1.5 0-1.5z"/><path d="m162.407135 222.4194641c-.965332 0-.9667969 1.5 0 1.5.9648438 0 .9667969-1.5 0-1.5z"/><path d="m236.138092 183.776886c-.9648438 0-.9663086 1.5 0 1.5.9653321 0 .9667969-1.5 0-1.5z"/><path d="m249.7606506 160.3159485c-.965332 0-.9667969 1.5 0 1.5.9653321 0 .9667969-1.5 0-1.5z"/><path d="m200.9471741 174.6958313c-.9648438 0-.9667969 1.5 0 1.5.965332 0 .9667968-1.5 0-1.5z"/><path d="m208.1366272 236.7524719c-.9648438 0-.9667969 1.5 0 1.5.965332 0 .9667969-1.5 0-1.5z"/><path d="m139.2752991 276.4780579c0 .9648438 1.5.9667969 1.5 0 0-.1259766 0-.2529297 0-.3789063 0-.9648438-1.5-.9667969-1.5 0z"/><path d="m199.4403381 272.6938782v.3779297c0 .9658203 1.5.9667969 1.5 0 0-.1259766 0-.2519531 0-.3779297 0-.9648438-1.5-.9667969-1.5 0z"/><path d="m140.5555725 244.4653625c.1259766-.1259766.2519531-.2519531.378418-.3779297.6831055-.6835938-.3769531-1.7441406-1.0610352-1.0605469-.1259766.1259766-.2519531.2519531-.378418.3779297-.6831054.6835938.3769532 1.7451173 1.0610352 1.0605469z"/><path d="m86.5589905 95.4116516c.1259766-.1259766.2524414-.2519531.378418-.3779297.6835938-.6835938-.3769531-1.7451172-1.0605469-1.0605469-.1264648.1259766-.2524414.2519531-.378418.3779297-.6835937.6835938.3764648 1.7441407 1.0605469 1.0605469z"/><path d="m242.5711975 249.6186829c-.965332 0-.9667969 1.5 0 1.5.9648438 0 .9667969-1.5 0-1.5z"/><path d="m234.2464905 210.6430969c-.965332 0-.9667969 1.5 0 1.5.9648437 0 .9667969-1.5 0-1.5z"/><path d="m209.7401428 203.0864563c-.9648438 0-.9667969 1.5 0 1.5.9653321 0 .9667969-1.5 0-1.5z"/><path d="m239.7860413 85.0522766c-6.9868164-9.5-17.4038086-16.2275391-29.7680664-18.5439453.565918-.8642578 1.128418-1.7304688 1.6665039-2.6132813 4.1962891.3681641 8.5097656.546875 12.671875.96875 1.2548828-.7294922 2.5097656-1.4589844 3.7646484-2.1884766.0063477.0009766.0126953.0009766.019043.0019531.8774414.0986328 1.4047852-.7734375 1.5-1.5 1.4462891-11.0419922 3.4130859-21.9648438 5.5961914-32.8808594.265625-1.3271484-1.0849609-2.1142578-2.0419922-1.8076172-23.1884766-2.4931641-46.3969727-4.2763672-69.7241211-4.5810547-.847168-.0117188-1.4511719.6972656-1.5 1.5-.659668 10.8125-.8496094 21.6464844-1.5 32.4599609-.0361328.5947266.3056641 1.0341797.7651367 1.2724609 1.609375 2.1435547 3.684082 3.3867188 5.65625 5.3535156 1.1315613-.3620644 16.3493195-4.70858 15.1069336-5.0986328.6030273-.8642578.2177734-2.4101563-1.168457-2.4277344-8.2541656-.1046791-16.4893188-.9714012-17.2641602-.9697266.5375977-9.6826172.7719727-19.3789063 1.324707-29.0605469 22.4423828.3505859 44.777832 2.0507813 67.0917969 4.4257813-1.9780273 10.0175781-3.7382813 20.0498047-5.1088867 30.1708984-4.9594727-.5664063-9.9047852-1.1640625-14.9033203-1.2763672-.9682617-.0214844-1.5185547.9042969-1.4663086 1.7275391-2.0288086 3.5273438-4.2382813 6.9462891-6.7485352 10.1474609-.7885742-1.2666016-1.7470703-2.6757813-2.7597656-3.34375-2.8520508-3.4667969-5.9990234-6.6572266-9.4848633-9.5615234-1.4731445-1.2275391-3.6069336.8828125-2.1210938 2.1210938.4555664.3798828.8994141.7685547 1.34375 1.1572266 1.2529297 2.1425781 2.456543 4.3212891 3.6557617 6.5029297-6.4399414.9648438-12.6484375 3.1259766-18.1098633 6.7041016-9.7363281 6.3798828-16.5742188 16.6367188-19.2192383 27.9267578-.4975586 2.1240234-.8461914 4.2802734-1.046875 6.4492188-7.3491211 4.1582031-14.7084961 9.1669922-19.9106445 15.90625-7.7893677 10.0934448-5.4351654 18.7475739 9.840332 21.7128906 5.6386719 1.0947266 11.4433594 1.3037109 17.2124023 1.0751953 19.9945526 29.2653961 71.3353424 21.9089661 84.1191406-21.0214844 4.8530273-1.828125 8.7636719-3.7109375 12.9853516-5.9443359 4.4702148-2.359375 7.1000977-4.5390625 11.3500977-8.5097656 3.7001953-3.4501953 6.1704102-8.9599609 4.8701172-13.8398438-3.8418273-14.5681761-26.4305419-12.5293425-36.6938475-12.4150389zm3.8984375 42.0341797c-3.8876953 10.9609375-11.7866211 20.0917969-22.2973633 25.1533203 2.0384979-2.5053406 4.3978729-7.4050751 6.7314453-11.8085938.328125-.6191406-.3701172-1.4746094-1.0258789-1.0263672-12.2241211 8.3554688-27.4936523 12.4033203-42.1826172 13.2822266-3.8701172-1.7158203-7.5307617-3.9785156-10.8540039-6.7705078 24.8735962-2.8005371 43.4744263-9.528717 69.628418-18.8300781zm-29.0615235 27.7177734c-8.9023438 2.5556641-18.1206055 2.1318359-26.5371094-.8554688 12.9399414-1.1630859 26.109375-4.7578125 37.1831055-11.578125-2.868164 4.6582032-6.5200195 8.8466798-10.6459961 12.4335938zm29.6420899-54.2314453c-12.6254883 10.21875-27.2670898 12.734375-42.9267578 13.9404297 13.9257813-6.6347656 27.4018555-14.1513672 36.7714844-26.7158203 2.6782226 3.8320312 4.7656249 8.125 6.1552734 12.7753906zm4.4033203 6.2060547c-.6049805-4.0224609-1.6665039-7.8681641-3.1435547-11.4785156 8.3061523.4707031 10.7490234 1.3242188 11.4106445 1.9501953-.9018554 3.7597656-4.8071289 7.0761719-8.2670898 9.5283203zm-55.9511719-36.4482422c.7070313-.1386719 1.90625-.4882813 3.1142578-.7285156.6748047 1.1865234 1.362793 2.3632813 2.0854492 3.5136719 1.1723633.125 2.7822266.0761719 4.2070313.1005859.0523071.0760193.0656891.0950775.2294922.3134766.5262299.7075653 1.6843262 1.0144119 2.3173828.2578125.9442749-1.1285629 1.9621735-2.2889862 3.6660156-4.5371094 11.9072266 2.0234375 22.0644531 8.2636719 28.8564453 17.2773438-10.0087891 13.7119141-25.1049805 21.3417969-40.1733398 28.3691406-.6713867.3134766-.3442383 1.4453125.3789063 1.3974609 11.8698883-.7757568 38.3117981-3.8688736 48.0395508-10.8828125.1948242 1.0546875.3466797 2.1289063.4711914 3.2128906-16.6335754 10.9498596-39.4033203 18.4537582-58.8432617 22.2402344 1.1870117-.6523438 2.3359375-1.3740234 3.4287109-2.171875.5229492-.3818359.4453125-1.4941406-.378418-1.3974609-9.918457 1.1660156-20.1494141.8945313-29.6123047-2.5517578-1.3779297-4.8955078-1.8969727-9.9746094-1.5786133-14.9960938 27.8784027-4.0550385 47.5735931-11.6631012 68.4179688-26.3046875.6552734-.4599609.284668-1.6435547-.5776367-1.3710938-19.7587891 6.2607422-40.5180664 12.0019531-61.1381836 6.7714844.2861328-.4560547.5639648-.9169922.8676758-1.3632813 6.0259399-8.8609771 14.928482-14.9396209 26.2216796-17.149414zm-28.7163086 63.1572266c-1.2784882-1.0440826-2.0871124-4.3510284-2.9448242-6.9677734 8.3681641 2.8496094 17.3208008 3.3339844 26.0961914 2.5742188-6.3655548 3.7444457-14.6816406 4.3568114-23.1513672 4.3935546zm.8129883-43.3046875c19.3251953 5.0458984 38.7651367.5830078 57.4345703-5.1318359-31.4541473 20.2190552-61.5197906 19.6073303-62.7646484 19.9716797.8818359-5.1923829 2.6665039-10.2294923 5.3300781-14.8398438zm-10.4936524 30.2529297v.0009766c.0501862 6.4885788 1.0911255 9.8163757 2.1103516 12.765625-4.605957-.4160156-10.5649414-1.6113281-11.7792969-5.640625 2.4595795-2.5516434 6.0166932-3.9258195 9.6689453-7.1259766zm-14.0576171 20.4511718c-9.9609375-4.5957031-4.8774414-12.7070313 2.5712891-19.5175781-1.644043 2.6806641-2.1201172 5.65625-.2246094 8.8730469 2.4433594 4.1455078 8.3261719 5.2578125 12.6582031 5.7978516 15.7899628 1.9647064 38.8853607-2.9030457 54.1669922-7.7324219 10.6982422-3.2646484 21.2719727-7.4072266 31.0063477-12.8535156 1.777832-.9775391 3.5288086-2.0019531 5.2412109-3.0869141 5.1932831-3.2921524 11.2265625-7.3179779 13.7197266-12.953125 1.6552429-3.7411118.6267395-8.9690399-2.9589844-11.4492188 6.2722168.7279739 14.7747192 3.3866653 14.6303711 9.7207031-.5142823 22.5179292-100.6640931 57.1103974-130.8105469 43.2011719z"/></g></g></svg>