<svg id="Layer_1" enable-background="new 0 0 300 300" height="512" viewBox="0 0 300 300" width="512" xmlns="http://www.w3.org/2000/svg"><g id="Online_Feedback"><g><path d="m23.709589 245.8213196c-2.101038 4.3807831 7.9880581 8.9542999 9.7138653 5.8330078 9.2739258-16.7636719 18.6689453-33.4619141 28.0083008-50.1894531 4.6513672 1.4140625 9.4077148 1.5722656 13.9228516.668457 13.2724609 16.4296875 31.6225586 26.7202148 51.1757813 30.2802734 17.0068436 4.222168 35.4609451 5.2177734 52.1279373.8637695 7.9868164-2.0854492 15.3930664-5.6352539 22.0615234-10.2836914 1.9311523.1401367 3.8564453.0722656 5.753418-.1669922 5.3364258 17.9536133 10.9975586 35.8447266 15.9931641 53.894043.027832.215332.0732422.4335938.1552734.6557617 1.8713226 5.0903015 11.9083252.2595825 10.9628906-2.8779297-5.527832-18.3676758-10.9301758-36.7739258-16.390625-55.1621094 12.8851624-7.1026917 18.1386414-22.0254974 13.3676758-35.4521484.5698242-1.5209961 1.112793-3.0512695 1.5966797-4.6069336 8.6455078-27.828125 3.3901367-58.7451248-12.6713867-82.9003983 1.1748047-4.0664063 1.4956055-8.3125.9140625-12.4702148 17.684082-5.8100586 35.4873047-11.5195313 53.0698242-17.4726563.1235352-.034668.3212891-.0654297.2363281-.0791016.0273438-.0092773.0551758-.0185547.0825195-.027832.2128906-.0307617.4277344-.0786133.6459961-.1616211 5.0252991-1.9171371.0439148-11.9178734-3.1162109-10.8945313-18.2470703 5.9033203-36.4375 11.9887695-54.6513672 17.9936523-8.520813-14.3650398-27.3205719-18.4993515-40.8364258-10.0136719-25.0138397-8.1262169-49.4420547-.3124733-50.7338943 1.3466797-10.2696915-10.0046844-26.0911102-11.5776443-37.8271484-3.2304688-42.0512888-42.0856206-40.0130617-40.1463811-40.0190431-40.1523435-1.9135742-1.9145508-5.0161133-.034668-6.5141602 1.4609375-2.1061859 2.1044807-2.899231 5.1719437-1.8598633 6.2124023 13.5600586 13.5600586 27.105957 27.1342773 40.6606445 40.699707-4.6098633 7.3955078-5.847168 16.7514648-3.012207 25.4926758-12.0727539 14.7783203-18.8579102 32.6811523-19.5917969 51.755867-19.6230469 9.5556641-21.0571289 36.5629883-5.4584961 49.3295898zm3.0112305 1.6904297c-.0678711-.1000977-.1069336-.222168-.1430664-.3144531.2729492.0517578.7871094.0942383.9106445.1220703.6655273.1499023 1.3061523.4594727 1.8740234.8330078.4462891.293457 1.4213867.9716797 1.5253906 1.5800781-.5488281.1557617-2.5170898-.8251953-2.8588867-1.0498047-.4760742-.3134766-.9814453-.6923828-1.3081054-1.1708984zm51.8290996-46.2119141c5.8334961-1.8671875 11.0878906-5.534668 14.9384766-10.5541992 8.0214844 2.5898438 16.1875 4.4858398 24.4262695 5.6630859 3.0014648 11.6069336 7.2626953 22.8979492 12.8437576 33.637207-19.7739334-2.7006835-38.542488-12.508789-52.2085037-28.7460937zm-12.0004883-84.1386795c14.5405273 8.5639648 30.3647461 14.5747147 46.7055664 18.0210037-1.8286133 19.4428711-.6240234 39.1357422 3.8774414 58.0620117-7.3632813-1.1181641-14.6674805-2.8183594-21.8637695-5.0859375 5.6469574-9.1698303 5.7449875-23.6822815-2.8964844-33.909668-7.8569336-9.2993164-20.9755859-12.7460938-32.3759766-8.6899414.5312501-9.8833007 2.7416993-19.464363 6.5532227-28.3974685zm50.3647461-5.2573242c-1.4824219 6.6948242-2.6098633 13.4707031-3.3608398 20.2846756-15.987793-3.4116211-31.4638672-9.3256912-45.6762695-17.7236404-.03125-.0185547-.0625-.0273438-.09375-.0439453 2.699707-5.7407227 6.0791016-11.1850586 10.0898438-16.2514648 7.4023437 14.3940429 24.3500976 20.4453124 39.0410155 13.7343749zm-.7128906 23.8593826c14.9472733 2.8603516 30.2812576 3.5932617 45.4296951 2.175293 2.5893555 18.3037109 3.1049805 36.7548828.5986328 54.8818359-13.918457 2.3886719-28.0068359 2.6606445-41.9213943.8666992-4.6289062-18.8569336-5.9052734-38.5190429-4.1069336-57.9238281zm45.5800858 60.1738281c-1.8344727 11.6088867-4.9501953 23.0703125-9.5957031 34.2617188-5.9345703.7363281-11.9091797.8071289-17.8203125.2612305-5.7607422-10.7138672-10.1538162-22.0146484-13.2548904-33.6489258 13.5068435 1.6254883 27.1728591 1.3476562 40.670906-.8740235zm-6.1860352 33.7661133c4.5258789-11.2026367 7.5610352-22.6762695 9.3261719-34.300293 2.8759766-.5385742 5.7402344-1.1850586 8.5947266-1.9013672-.0112305 1.4311523.0805664 2.8706055.2856445 4.3066406 1.1762695 8.2597656 5.8828125 15.4790039 12.515625 20.0668945-9.6147461 6.1298829-20.0615235 10.0502931-30.722168 11.8281251zm18.1337891-39.3432617c-2.7802734.71875-5.5708008 1.3520508-8.3701172 1.8974609 2.3881836-18.046875 1.8349609-36.4150391-.7397461-54.6347656 18.6831055-2.1015625 37.0141602-7.4760742 53.9052734-16.1543045 5.28125 14.7133865 6.3095703 30.6001053 2.8974609 46.0742264-.0297852.0180664-.0625.0283203-.0908203.0498047-.7280273.5405273-1.4682617 1.0644531-2.2070313 1.5893555-9.409668-5.9975586-21.4052734-6.722168-31.2954102-.8261719-7.9301756 4.7280273-13.0566405 13.0327148-14.0996092 22.0043945zm38.8979492-81.755867c1.8408203 3.265625 3.4672852 6.6147461 4.8398438 10.043457-16.6787109 8.6381836-34.809082 13.9648514-53.2900391 16.0273514-3.5136719-22.9292068-10.1269531-45.5752029-17.9707031-66.9956131 7.1523438.4311523 14.3081055 1.7724609 21.1274414 3.9536133-8.809082 13.4663086-6.2617188 33.859375 10.1054688 42.6035156 11.7333984 6.269043 25.9658202 3.6699219 35.1879882-5.6323242zm-79.3310547-40.6875c-.8579102 1.5917969-1.6914063 3.1962891-2.4995117 4.8134766-.7080078-1.4418945-1.496582-2.8271484-2.4018555-4.1630859 1.6181641-.2714845 3.2539063-.4853516 4.9013672-.6503907zm-.9814453 8.4824219c1.4321289-2.9638672 2.9418945-5.8862305 4.5366211-8.765625 2.0307617-.1098633 4.074707-.1333008 6.1235352-.0888672 7.9453125 21.5649414 14.6674805 44.3642578 18.2109375 67.4428787-14.9033203 1.3759766-29.9887695.6279297-44.6875076-2.2158203.8369141-7.6767654 2.1572266-15.3032303 3.9365234-22.814949 10.9614334-7.5854493 15.6787185-20.7416993 11.8798904-33.5576172zm94.1523437 200.0293045c-.2988281.0161133-.5913086-.0205078-.8774414-.1064453.2280273-.1479492.612793-.5205078.7431641-.6049805.9442291-.6127625 3.3222351-1.2877197 4.097168-.7573242-.2410126.3259887-2.2631684 1.4862976-3.9628907 1.46875zm3.1635743-4.6928711c-1.6967773-.0527344-3.6166992.4970703-5.0473633 1.4277344-4.7763672-17.0180664-10.0927734-33.9072266-15.1318359-50.8491211 1.7177734-.3969727 3.3891602-.9614258 5.0068359-1.6508789 5.0546875 17.0249023 10.0688476 34.0625 15.1723633 51.0722656zm-5.1269532-62.7670899c-8.6162109 12.1777344-26.1323242 14.6318359-37.8530273 5.5029297-11.2451172-8.7587891-13.3657227-25.3842773-4.8212891-36.7436523 8.1991425-10.9008789 19.7059326-12.7736664 29.3981018-9.2961121 14.878769 5.3385163 25.4811554 23.2858124 13.2762146 40.5368347zm48.8393555-145.7876052c-.0009766.0019531-.0009766.0024414-.0024414.0039063-1.8591919-2.3926773-1.8296204-4.2737732-1.5302734-4.7597656.5722656.3731879 1.9467163 2.975643 1.5327148 4.7558593zm-4.7016601-3.8837891c-.012207 1.7211914.6020508 3.6523438 1.5917969 5.0620117-16.7358398 5.6391602-33.6162109 11.0668945-50.4169922 16.5854492-.4223633-1.6962891-1.003418-3.3632813-1.7470703-4.9863281 16.8549804-5.5585937 33.692871-11.1777344 50.5722656-16.6611328zm-56.7734375 45.7197266c-.0410156.0527344-.0688477.1079102-.1020508.1621094-.0888672.1010742-.1586914.2148438-.2167969.3349609-.1171875.0712891-.2324219.1557617-.3413086.2729492-8.8945313 9.5649414-23.4438477 11.9321289-34.4897461 4.5288086-11.8413086-7.9365234-15.2910156-24.2460938-7.625-36.300293 19.4871826-30.638958 65.8560944 1.3371658 42.7749024 31.0014649zm-166.9145585-81.4941407c-.1868019 1.2874298-2.0850449 3.1053848-3.3828125 3.4091797.4232636-1.6232777 1.9970704-3.1021843 3.3828125-3.4091797zm-1.3720703 5.8291016c1.4425011-.7322922 2.8536644-2.0435944 3.7587891-3.7089844 12.5253906 12.5288086 25.0415039 25.0673828 37.5634766 37.6000977-1.3339844 1.1791992-2.5400391 2.4702148-3.6166992 3.8505859-12.569336-12.5795898-25.1323243-25.1655273-37.7055665-37.7416992zm81.15625 39.2265625c1.9814453 2.5292969 3.4028397 5.0644531 4.5346756 8.0678711 3.7426758 11.8535156-.4545898 24.1616211-10.846199 31.0751953-.1142578.0478516-.2226563.1098633-.3203125.1914063-14.2016602 8.1982422-32.1025391 2.3979492-38.4609375-12.934082-9.9875412-28.497284 25.3622131-49.1009179 45.0927734-26.4003907zm-77.9570312 91.8169021c7.0141602-12.6040039 23.3769531-17.2504883 35.9750977-10.2441406 12.8256836 7.1333008 16.9555664 23.2260742 10.2436523 35.9746094-7.359375 12.456543-23.0966797 17.3276367-35.9746094 10.2441406-12.6347656-6.949707-17.2270508-23.4267578-10.2441406-35.9746094zm11.7998047 40.022461c-8.6464844 15.484375-17.331543 30.9487305-25.9301758 46.4604492-1.1611309-1.2495117-2.9194317-2.2338867-4.5991192-2.5957031 8.6069317-15.4296875 17.2373028-30.8808594 25.8564434-46.3168945 1.4365234.9370117 3.0019531 1.7519531 4.6728516 2.4521484z"/><path d="m58.1993332 156.9214172c5.0664063-1.6918945 9.9941406.2817383 12.4350586 5.034668.8818359 1.7177734 3.4716797.2021484 2.590332-1.5141602-3.0170898-5.8754883-9.5629883-8.5039063-15.8232422-6.4135742-1.8217773.6083985-1.0410156 3.506836.7978516 2.8930664z"/><path d="m80.2178879 166.5176086c4.8637695-.2197266 8.7207031 2.8769531 9.609375 7.6445313.3530273 1.8955078 3.2451172 1.0927734 2.8925781-.7973633-1.1210938-6.0195313-6.4023438-10.1225586-12.5019531-9.847168-1.9228516.0869141-1.9331055 3.0874024 0 3z"/><path d="m56.8052902 173.3179016c-1.2539063 1.456543.8588867 3.5874023 2.1210938 2.121582 6.1655273-7.1611328 17.331543-1.0390625 14.4316406 8.0219727-.5898438 1.8432617 2.3056641 2.6323242 2.8930664.7973633 1.6333008-5.1035156-.3037109-11.0219727-5.0698242-13.7397461-4.7504883-2.7094727-10.9086914-1.2280274-14.3759766 2.7988281z"/><path d="m211.0318604 193.5161438c1.8123169 9.0615997-10.6253204 13.2807159-15.4482422 5.6142578-1.0258789-1.6303711-3.6225586-.1264648-2.590332 1.5141602 7.0499115 11.2082672 23.0866852 4.6015778 20.9755859-7.6416016-.3563843-2.3418884-3.3091126-1.3482666-2.9370117.5131836z"/><path d="m196.1212158 182.3213196c-7.5096283-2.2773132-14.3210144 2.6027832-15.6362305 6.765625-.8822632 1.7644958 1.7319336 3.3025055 2.5688477 1.5537109 2.2963867-4.7963867 7.1430664-6.980957 12.2700195-5.4267578 1.8515625.5615234 2.6430664-2.3330078.7973633-2.8925781z"/><path d="m218.9815674 177.3999329c-5.2327118-3.4144287-11.7301331-2.4610901-15.7978516 2.0405273-1.2929688 1.4287109.8222656 3.5566406 2.1210938 2.121582 2.5364227-2.7975464 7.5650482-4.5717926 12.1625977-1.5717773 1.621582 1.0581055 3.1264648-1.5380859 1.5141601-2.590332z"/><path d="m115.7398605 92.0752182c6.4482422-1.2475586 10.8178711-6.925293 10.4692383-13.4726563-.1020508-1.9204102-3.1030273-1.9326172-3 0 .2827148 5.3066406-3.0615234 9.5727539-8.2670898 10.5795898-1.8930664.3666993-1.0917969 3.2583009.7978515 2.8930665z"/><path d="m107.9556808 97.1592026c-1.1176758 4.7358398-5.1679688 7.5761719-9.9882813 7.1425781-1.9223633-.1728516-1.9106445 2.828125 0 3 6.105957.5498047 11.4775391-3.3974609 12.8813477-9.3452148.4428711-1.8774414-2.4492187-2.678711-2.8930664-.7973633z"/><path d="m90.8926926 90.861351c6.15625-5.5024414 12.3120117-11.0053711 18.4677734-16.5083008 1.4423828-1.2895508-.6850586-3.4052734-2.1210938-2.121582-6.15625 5.5029297-12.3120117 11.0058594-18.4677734 16.5087891-1.4423828 1.2895507.6850586 3.4052734 2.1210938 2.1210937z"/><path d="m187.4644775 110.8593979c1.7495117.7753906 3.277832-1.809082 1.5141602-2.590332-4.8530273-2.1503906-7.2412109-6.8994141-5.8344727-12.0839844.5063477-1.8657227-2.387207-2.6616211-2.8925781-.7978516-1.7231445 6.3486328 1.152832 12.7866211 7.2128906 15.472168z"/><path d="m177.1221924 88.4248276c1.4609375 1.246582 3.5927734-.8657227 2.1210938-2.1210938-3.7070313-3.1625977-4.5297852-7.9355469-1.9814453-12.1035156 1.0097656-1.6518555-1.5839844-3.1606445-2.5908203-1.5141602-3.2119142 5.2539063-2.2500001 11.7285157 2.4511718 15.7387696z"/><path d="m191.5714111 75.3623276c1.2919922.9013672 2.5888672 1.7963867 3.8847656 2.6923828-1.2407227 1.7875977-2.4736328 3.5810547-3.7329102 5.3554688-.4682617.6591797-.1157227 1.6743164.5380859 2.0522461 1.8837891 1.0893555 3.7670898 2.1811523 5.6518555 3.2734375-.0317383.0371094-.0644531.0732422-.0957031.1108398-.0043945.0053711-.0073242.0112305-.0117188.0166016-1.3535156 1.5869141-2.7104492 3.1713867-4.0581055 4.7631836-.5771484.6821289-.628418 1.8974609.3037109 2.355957 3.1513672 1.5507813 6.3037109 3.0996094 9.4599609 4.6401367 1.7280273.8432617 3.2504883-1.7426758 1.5141602-2.590332-2.612793-1.2753906-5.2216797-2.5581055-7.8305664-3.8408203.987793-1.1591797 1.9750977-2.3183594 2.9624023-3.4770508.1142578-.1323242.2270508-.2646484.3417969-.3964844.0087891-.0097656.0146484-.0214844.0229492-.0317383.2524414-.2958984.5053711-.5913086.7568359-.8881836.6142578-.7246094.5874023-1.8398438-.3037109-2.355957-1.6665039-.9648438-3.3291016-1.9277344-4.9921875-2.8916016-.2265625-.2080078-.4570313-.4140625-.7045898-.605957 1.1894531-1.7001953 2.3666992-3.4091797 3.5551758-5.1098633.4887695-.6992188.0844727-1.6230469-.5380859-2.0522461-1.7392578-1.199707-3.4770508-2.4018555-5.2099609-3.6103516-1.5874023-1.1064453-3.0883788 1.4931641-1.5141601 2.5903321z"/></g></g></svg>