<svg id="Layer_1" enable-background="new 0 0 300 300" height="512" viewBox="0 0 300 300" width="512" xmlns="http://www.w3.org/2000/svg"><g id="Performance"><g><path d="m199.84552 94.7875366c-1.757019 1.2755585-1.9063721 4.3005905 1.2944336 6.2836914-.982666.6171875-1.4348145 1.5957031-1.2402344 2.7275391-.2692871.5800781-.2111816 1.550293-.111084 1.9472656.2519531 1.0004883.9191895 1.8442383 1.6459961 2.5761719 8.9376678 9.0030823 27.2326202 10.5211945 30.887207-3.4829102.6210938-2.3789063.3344727-5.2016602-.4880371-7.519043-.6782227-1.9101563-2.5300293-3.7202148-3.5-5.5-1.8379517-3.3710556-.442215-6.240097-1.4182129-11.1201172-.3359375-2.7895508-1.3710938-5.9980469-4.2287598-6.0078125-2.2359314-.0074005-4.3880005 4.8252487-4.0056152 7.2407227.2575684 1.6254883.3000488 3.3564453.5224609 5.0219727.0602112.4582825-.1098175 1.143013-.2636719 1.4682617-2.6425629 5.5875931-16.0587463-8.0600433-18.7460938-1.96875-.6015625 1.3632813-.2670898 2.5053711.5175781 3.453125-1.5889585 1.0082932-2.1493681 3.2012558-.8659666 4.8798828z"/><path d="m77.0837936 130.9037476c1.9304199 0 1.9333496-3 0-3-1.9304199 0-1.9335937 3 0 3z"/><path d="m86.3337936 122.4037476h.25c.7844238 0 1.5361328-.6899414 1.5-1.5-.095871-2.1413574-3.3336029-1.8616943-3.25 0 .036377.8129882.6589356 1.5 1.5 1.5z"/><path d="m82.91436 138.4672241c5.8659668.8779297 10.642334-3.9135742 9.7312012-9.7797852-.1474609-.9511719-1.5932617-.5473633-1.4462891.3984375.7246094 4.6655273-3.2094727 8.6347656-7.8862305 7.9350586-.9443359-.1416015-1.3515624 1.303711-.3986816 1.4462891z"/><path d="m102.8337936 177.9037476s.9592285-.1923828 4.0532227-3.7675781c.5876465 1.3012695 1.0495605 2.6230469 1.4050293 4.184082 2.4638672-1.2607422 4.1547852-1.9741211 6.666748-3.125.1242676-1.0537109.4240723-2.1728516.6018066-3.2470703.1523438-.2192383.3015137-.4418945.4296875-.6811523.2402344-.4482422-.0080566-.8637695-.361084-1.0385742-.1025238-.1961365.1488571.0584717-3.5932617-3.2431641 6.4465332-5.421875 7.8469238-16.1333008 8.6008301-23.8842773.9746094-10.0224609.1220703-20.5083008-3.7180176-29.8510742.2819824-.1137695.5637207-.2280273.8730469-.3510742.7993164 1.6049805 1.3959961 3.1655273 1.8334961 5.0883789 2.4641113-1.2612305 4.1550293-1.9741211 6.666748-3.125.1108398-.9404297.3666992-1.9350586.5473633-2.9013672.0678711-.0849609.144043-.1601563.2089844-.2490234.4580078-.6259766-.2873535-1.2182617-.8925781-1.0336914l-2.9418945-3.4223633c5.8042221-3.448349 8.7897415-11.0632629 10.8540115-17.6054688 1.8139648 3.4355469 4.034668 7.6030273 5.6455078 9.8178711 4.0698242 5.6298828 8.0600586 11.3701172 13.2199707 15.5600586 2.4172363 1.9628906 7.487793 5.7016602 10.6870117 6.1855469-.0822754.1333008-.1455078.2714844-.2397461.4018555-.1557617.215332-.1623535.4243164-.0900879.6035156-.1647949.3198242-.135498.7358398.2658691.9672852.0415039.0239258.0856934.0390625.1271973.0620117.5446777.8520508 1.0893555 1.7036133 1.6337891 2.5556641 2.762207-.0600586 5.4628906.1420898 8.2299805.2026367-.3554688-1.5361328-.5522461-3.03125-.6342773-4.5380859.0317383.0092773.0693359.0253906.0871582.0185547 1.25-.5 2.706543-1.0927734 3.6191406-1.6020508 1.8303223-1.0224609 3.7558594-2.1757813 4.9023438-3.8691406 1.3835449 8.3881836 4.2365723 16.8959961 10.2897949 22.6210938-.0952148.078125-.1796875.1743164-.2346191.3081055-.5385742 1.3164063-1.5935059 2.3046875-2.8791504 2.8779297-.2443848.1088867-.3525391.2885742-.3762207.4814453-.2971191.1982422-.4743652.5727539-.2431641.9716797.0227051.0395508.0522461.0732422.0759277.1123047.2260742 1.1381836.4523926 2.2763672.6787109 3.4145508 2.5944824.949707 5.036377 2.1206055 7.5917969 3.184082.2607422-1.7856445.6918945-3.4467773 1.2739258-5.0766602.3959961.4633789.6911621.7373047.8015137.7431641 3.166748.1665039 6.916748.3334961 10.5834961-.25 6.7141113-1.0678711 10.4279785-1.9648438 16-4.5 3.1794434-1.4462891 7.6826172-3.934082 10.5-6 11.4108887-8.3676758 18.822998-22.6303711 19.75-36.75 1.1059875-16.8483276-7.7957611-30.8438263-18.4714355-38.4208946-10.9472656-7.7700195-26.8122559-6.7451172-38.0400391.0639648-2.9276276-18.0250092-17.7527008-31.1883144-33.2089844-33.2373047-13.3657227-1.7719727-26.7539063 6.5498066-33.5236816 17.8593769-14.3869247-27.7133045-53.1467133-30.1932449-65.8759842-1.6918945-8.2960815 13.6244087-7.1043434 31.6365547 1.0224609 45.7539024-12.8815346 4.4367065-20.8522987 16.597702-22.230957 28.8974609-.263916 1.4838867-.4177246 2.7978516-.4282227 3.7539063-.0734863 6.6264648.892334 17.2958984 3.7568359 23.2714844 6.0534668 12.6279297 17.7038574 20.8105469 30.5 26.5 8.333252 3.7055642 22.25 7.2499978 24 6.9999978zm11.53125-6.8676758c-.9733887 1.4291992-2.5014648 2.296875-4.2277832 2.4042969.1333008-1.6079102-.2177734-3.1542969-1.1271973-4.5151367.5022125-.2388153 1.0828247-.1850281 1.5168457-.8291016.097168-.0620117.1831055-.1362305.2783203-.2001953 1.1865235 1.046875 2.3732911 2.0932617 3.5598145 3.1401367zm11.3789063-60.0703125c-1.1254883 1.5302734-2.9733887 2.3422852-4.8439941 2.1870117.3601074-1.590332.0991211-3.1132813-.6455078-4.5776367.9188766-.2881012 1.5504456-.1258316 1.9902344-.7895508.1791992-.0883789.3508301-.1855469.5244141-.2802734zm41.7827225 6.65625c.166748-.0097656.3349609-.0107422.5007324-.0263672.5507813 1.4677734 1.1020508 2.9360352 1.652832 4.4042969-1.5351563.8012695-3.2695313.8618164-4.8535156.1420898.8859863-1.3320313 1.2832031-2.9169922 1.1154785-4.5126953.5921631.0321579.9487915.2704391 1.5844727-.0073242zm25.3679199 22.0019531c.5097961.320694.7017212.7271729 1.4204102.7856445.1899414.0913086.3791504.184082.5722656.2666016.0854492.1630859.1723633.324707.2612305.4848633-.2838745 1.8156738-.3772583 2.4769745-.6342773 4.1113281-1.9291992.1020508-3.703125-.7324219-4.8183594-2.2763672 1.4458007-.7172851 2.5336913-1.9116211 3.1987304-3.3720703zm41.7854004-77.7807579c16.9307709 11.3942299 24.667511 43.4474754-5.3688965 65.206543-5.373291 3.8920898-11.3271484 7.0532227-17.5537109 9.3388672-5.3549805 1.9658203-11.7199707 3.8696289-16.9741211.8642578-8.1125488-7.0424805-10.4492188-19.2241211-11.2180176-29.4770508.012207-.1074219.0112305-.2177734-.0012207-.3310547 4.3793945-5.3701172 7.8051758-11.7929688 10.0297852-16.4907227 4.1105957-8.6806641 6.4257813-18.3730469 5.6401367-27.8505821 10.1672363-6.682621 25.0356445-8.2661171 35.4460449-1.2602577zm-67.7971192-32.0512714c12.0578613 2.39258 22.4316406 11.4834003 26.9208984 22.8388691 4.7446289 11.9999962 2.5844727 25.4072227-2.800293 36.8090782-4.1230469 8.730957-13.2368164 25.3535156-24.6616211 25.2001953-14.3894043-2.8710938-24.6765137-18.8374023-30.6164551-31.0668945 2.7247009-12.0327377 2.6656799-24.5052605-2.0749512-35.7880821 6.0927736-11.6835938 19.768799-20.6645528 33.232422-17.993166zm-34.7534179 55.7363262c-1.8461914 7.0600586-4.7299881 17.4101563-12.4536209 20.065918-14.5068359 2.2885742-30.3725586-9.6118164-39.8674316-19.1757813-9.9760742-10.0488281-17.357666-25.2558556-12.0917969-39.3842735 2.779541-7.456543 7.6398926-14.0283203 14.5339355-18.1709003 20.7802353-12.486374 62.8503189 7.0572719 49.8789139 56.6650371zm-63.259285 5.621582c9.8122787 14.7875671 29.008049 24.2110138 41.5432129 24.5883789.2585449.0087891.1384277.0849609 3.7175293-1.359375 3.2451172 7.8969727 4.1821289 16.6049805 3.7636719 25.1650391-.404541 8.2792969-1.5268555 21.9462891-9.8056641 26.5029297-10.0810547 3.0957031-21.5100098-1.2895508-30.4177246-5.9580078-20.9876785-10.9989624-35.9370193-29.5024109-27.3312988-51.3618164 3.4975585-8.8842774 10.2016601-14.8901368 18.5302734-17.5771485z"/><path d="m91.6633835 79.6483765c4.119873 2.0795898 8.7399902 2.9799805 13.3400879 3.3999023 6.260231.549263 6.7997971-.6131058 8.7099609-4.0200195 2.9096298-5.2813492 4.3562622-14.4858704 3.5297852-20.2001915-1.1661148-8.0655251-6.5544739-12.5345535-11.6599121-12.7299805.5800781-.0600586 1.1901855 0 2.130127.2900391-6.109024-2.4009094-12.8439255 1.9739418-13.0932617 8.565918-5.1533203-.8417969-11.3764648 1.6943359-12.1171875 6.8369141-3.1472169 7.3666953 2.6394042 14.5532187 9.1604003 17.857418zm-3.2802735-22.3876915c3.4169922-1.3564453 7.7756348-1.5639648 10.4199219 1.4277344.640625.7246094 1.697998-.3393555 1.060791-1.0605469-.6367188-.7202148-1.4191895-1.2939453-2.2919922-1.7353516-.4243164-5.5341797 5.1679688-9.465332 10.15625-7.5258789 4.4609375 1.734375 6.4589844 6.3320313 6.8647461 10.8046875.6186523 6.8251915-2.0932617 12.7451134-4.979248 18.7275352-.0134277 0-.0268555-.0004883-.0402832-.0004883-7.0708008-.355957-16.7578125-2.5317383-21.9455566-7.5795898-3.9003907-3.7949219-5.0412598-10.7578087.755371-13.0581016z"/><path d="m149.3914185 59.816349c.1760254 1.1035156.4182129 2.1958008.7756348 3.2539063 1.6164551 1.1874962 3.0688477 2.4540977 4.6853027 3.6415977-.5083008 2.4980469-1.0686035 5.1152344-1.5769043 7.6137695.222168.5859375.6877441 1.1464844 1.123291 1.6601563-.1323242.5522461.4538574 1.2241211 1.0957031.8535156.0407715-.0234375.0817871-.046875.1225586-.0708008.8898926-.0996094 1.9370117-.1787109 2.7583008-.28125.666748-.0834961 3.802002-2.0195313 5.5290527-3.1337891 2.0219727 1.4760742 4.3308105 2.6835938 6.6772461 3.5556641.5749512-.1054688 1.1899414-.2084961 1.7897949-.3125.1773376.0846481.3509827.2031403.7004395.0771484.0041504-.0014648.0078125-.0039063.0117188-.0053711.4543457-.1709366.5953369-.6243057.4846191-.9462891-.6584473-3.1025391-1.3166504-6.2050781-1.9750977-9.3076172 5.99263-6.3529396 7.4208374-6.1304893 7.1787109-7.0234337-.0068359-.2817383-.166748-.5385742-.5375977-.5991211-3.0935059-.5073242-6.1801758-1.0527344-9.2731934-1.5615234-1.4179688-2.8061523-2.8359375-5.6123047-4.2539063-8.4179688-.1691895-.3349609-.4672852-.4204102-.7441406-.3549805-.8335419.0568771-.5558014 1.1936989-4.862793 8.730957-6.9753876.7636375-9.2724915 1.0090866-9.5129395 1.0522461-.5771484.0253906-1.0710449.7568359-.5310059 1.262207.0959933.0898326.3025058.2829364.3352054.3134768zm20.8239746 5.8662072c-.3586884.3849945-.3275299-.0887451 1.5947266 8.9692383-7.1069946-3.5397797-7.4974365-4.5695114-8.2138672-4.2080078-.2142792.1055832-1.1389618.6448822-7.409668 4.2641602 1.1513672-6.2261429 1.5244141-8.221199 1.5517578-8.4399414.1352539-.2529297.1320801-.5678711-.1425781-.824707-2.1010742-1.9667931-4.2019043-3.9335899-6.3027344-5.9003868 2.7211914-.2978516 5.4423828-.5957031 8.1635742-.8935547.2705078.0507813.5612793-.0385742.7404785-.3486328 1.3972168-2.4150391 2.652832-4.9033203 3.8850098-7.4047852 1.2333984 2.4404297 2.4667969 4.8813477 3.7001953 7.3217773.0795288.2485504.2959747.4178391.5891113.4267578 2.6276855.4311523 5.2512207.8862305 7.8774414 1.3266602-2.1359863 1.767578-4.140625 3.6811522-6.0334472 5.7114219z"/><path d="m84.8337936 151.3202515c6.0626144.3966064 13.9677429-3.1555481 16.583252-9.5 1.2695313-3.0791016 1.7910156-5.8974609 1.5964355-9.2226563-.1499023-2.5649414-.815918-5.6455078-2.1484375-7.9511719-3.2677078-9.907402-14.2031784-14.4987717-23.7106934-10.1552734-2.8840332 1.3173828-5.1762695 3.3813477-6.8242188 5.8525391-9.2070578 11.5468444-3.7118224 29.7857666 14.5036622 30.9765625zm-5.8713379-35.9619141c7.5771484-2.8105469 15.7346191.2714844 19.5163574 7.3994141 3.9277344 7.4033203 1.4074707 17.7304688-6.5236816 21.2485352-9.6025085 4.1817474-19.0180435-.1614838-22.0292969-8.0893555-3.1044921-8.1733399.7856446-17.4980469 9.0366211-20.5585938z"/><path d="m249.5117798 223.4349976c-8.6779785 1.2871094-17.3562012 2.5742188-26.0344238 3.8608398-2.4342041-3.4886932-5.6409912-3.4097443-8.0456543 2.9077148-2.6386719-5.5351563-5.8461914-10.8129883-9.5400391-15.6835938-5.4331207-7.1634216-12.2055206-11.0727081-20.2126465-14.7387695.3470764-3.5969543.3904266-5.8538666.0559082-9.7431641.3457031-6.5576172-.4462891-11.6367188.2653809-18.3842773.3828125-3.6279297 2.0834961-5.8334961 3.8986816-12.5341797.4570313-1.6870117 1.1040039-5.659668.8781738-7.425293.3413239-1.0852661-1.1368408-1.3766022-1.416748-.4897461-2.4594727 7.7915039-6.453125 15.7338867-6.4499512 24.0561523.0031586 8.3365021 2.2675171 13.4167023 1.3366699 23.8945313-2.840332-1.1782227-6.2670898-2.1494141-8.4841309-.7666016-6.2773132-19.2041626-12.5188904-32.4013062-7.5773926-51.1757813 1.684082-6.3999023 2.7202148-12.081543.4545898-18.5083008-.3188477-.9042969-1.7685547-.5151367-1.4462891.3984375.3417969.9702148.6003418 1.9189453.7890625 2.8515625-.0356445 2.2094727-.4470215 4.4379883-.9536133 6.5458984-2.0162964 8.3888245-4.4545746 11.4605408-2.098877 25.4174805.961319 12.1955566 5.9599609 24.2000275 9.6608887 35.6171875-2.4063568 3.5387573-.0407867 7.2897949 2.9187012 10.2719727.2878418 1.2290039.5444336 2.4672852.7766113 3.7119141-2.6934967-6.0658569-9.0155334-8.0874481-11.7854004-20.0805664-2.2023926-9.5361328-4.6003418-17.6152344-10.0925293-25.8549805-11.0471191-16.5732422-24.4084473-31.0625-30.2685623-50.5458984-.2773438-.921875-1.7255859-.5288086-1.4462891.3989258 3.0227051 10.0498047 8.0068436 18.8842773 13.679451 27.3481445 6.6645508 13.9169922 19.8552246 24.6469727 23.5917969 39.6499023 1.4130859 5.6733398 1.4089355 11.7900391 4.0739746 16.9941406 1.3442383 2.625 3.2990723 4.8491211 5.2971191 6.9912109.932373.9995117 4.0893555 5.8544922 6.0949707 7.159668-21.7143707-8.8067932-23.8151398-16.8061066-33.6289063-23.8701172-8.7280273-6.2817383-20.8566971-6.5429688-27.6882401-15.3359375-.5915527-.7612305-1.6462402.3071289-1.060791 1.0605469 2.2963867 2.9555664 5.1674805 4.9501953 8.2944336 6.5375977 4.4970779 3.94133 10.3984299 5.7844696 15.6164627 8.7167969 4.3918457 2.4682617 6.6618652 3.6601563 11.4821777 6.8217773 2.6538086 2.6025391 5.2683105 5.2524414 8.2070313 7.5288086 1.5402832 1.1938477 3.1381836 2.2861328 4.777832 3.3046875-2.6777344-.7524414-5.3344727-1.1806641-7.7480469-.8652344-4.203125.5488281-6.515625 3.0488281-4.456543 7.0039063.3962402.7612305.8808594 1.4541016 1.4228516 2.0986328-2.0529785.5083008-3.8813477 1.9238281-4.8188477 3.8261719-.7602539 1.5424805-.9174805 3.359375-.4970703 5.0224609.2988281 1.1806641 2.020752 2.9077148.9445801 4.0283203-1.7236328 1.7944336-1.885498 3.8349609-1.4443359 6.4458008.2646484 1.5664063 1.3012695 2.9833984 2.5 4 .4567871.3876953.8117676.7182617 1.0969238 1.1948242.40625.6791992-.0876465 2.0571289-.2106934 2.7646484-2.4494629 14.079071 23.7536774 32.2222595 52.4147949 22.4892578.7163086-.2436523 1.4775391.1259766 1.7407227.8349609 2.659317 7.164856 7.6784973 9.250885 14.2275391 8.0146484 5.1362305-.96875 10.5710449-2.0537109 15.6328125-3.4140625.4638672-.125.8171387-.4863281.953125-.9472656 1.7229004-5.8483276 3.1848755-6.2188721 2.2919922-7.4536133.5961914-.1420898 1.1921387-.284668 1.7883301-.4272461 1.8769531-.4487305 1.0822754-3.3422852-.7976074-2.8930664-6.3208008 1.5107422-12.6418457 3.0214844-18.9628906 4.5322266 2.338089-5.4821167 3.39505-11.6649933 4.2441406-17.5429688.6520996-4.5161133 2.7109375-13.1225586 1.0227051-18.9414063 8.5112305-1.262207 17.0224609-2.5244141 25.5336914-3.7866211 1.9030765-.2822262 1.0939944-3.1733395-.7976071-2.893066zm-71.9562988-21.1669922c1.0856934-2.0800781 1.7390137-1.4750977 3.8129883-.9082031.8395996.2290039 1.6916504.5209961 2.5463867.8374023-.3552246 2.7387695-.8364258 5.4677734-1.3435059 8.1870117-1.8348083-1.5710602-3.1077576-2.6435089-4.5407715-4.5-.2546387-.9311523-.519043-1.859375-.7941895-2.784668.0686036-.2612304.1635743-.5332031.3190919-.8315429zm2.7517089 14.434082c-.2402344-1.71875-.5366211-3.4208984-.890625-5.1064453 2.0084076 1.7800446 2.0862274 1.8725433 2.5593262 1.9716797-.0588989.3148956-.6048584 3.193985-.6123047 3.5073242-.3527832-.1171875-.704834-.2441406-1.0563965-.3725586zm3.0805664-2.5566406c1.1699219.6298828 2.4423828 1.3300781 3.1420898 2.1918945 2.003418 2.46875.3710938 1.8183594-1.2072754 1.6547852-.8479004-.0878906-1.7077637-.2666016-2.5705566-.5.1054078-.2734833-.0896453.5565033.6357422-3.3466797zm29.7214356 50.8598633c-.6428223-1.4135742-.7443848-3.6411133-.5842285-5.1923828 1.1884766-.5053711 2.3615723-1.0439453 3.5-1.6494141 1.7055664-.9067383.1914063-3.4975586-1.5141602-2.590332-11.1484375 5.9277344-25.380127 6.4897461-37.5336914 3.6132813-6.7744751-1.6034851-15.7296295-5.8459778-19.0834961-8.1269531-2.6513672-1.8037109-7.1083984-6.8681641-.4140625-7.4545898.1489258-.0131836.2822266-.0483398.407959-.0932617 1.8518066.6762695 3.7451172 1.2075195 5.4621582 1.7280273 1.8515625.5615234 2.6430664-2.3330078.7973633-2.8925781-2.8300781-.8579102-5.7495117-1.7070313-8.3693848-3.1049805-2.4978027-1.3330078-7.1032715-6.5908203-2.4438477-8.234375 1.7874908.9323273 6.8467102 2.6025543 12.0898438 4.6650391 1.7971191.7070313 2.5766602-2.1933594.7976074-2.8930664-9.8837433-3.8869476-12.5583954-4.0523376-13.7312012-6.6616211-.8991699-2-.0239258-4.1323242 1.9973145-5.0039063.2092285-.0898438.3691406-.2070313.4912109-.3398438 3.0656738 2.3227539 7.0400391 3.6962891 10.4960938 4.6806641 1.8601074.5292969 2.6542969-2.3642578.7973633-2.8930664-3.6152344-1.0292969-7.4829102-2.3706055-10.3518066-4.9584961-2.3425293-2.112793-2.7883301-4.5317383.8737793-5.2133789 1.8054199-.3364258 4.4907227.8212891 6.1762695 1.3540039 6.9990234 2.2109375 13.8876953 4.722168 20.8813477 6.9370117 2.4082031.7631836 6.5505371 2.6635742 7.1237793-1.2373047.597168-4.0644531-4.0705566-6.6308594-7.0117188-8.3930664.5134277-2.7583008 1.0014648-5.5234375 1.3725586-8.3012695 3.6782227 1.5351563 7.3474121 3.6987305 10.3933105 5.8120117 8.3886719 5.8203125 14.4968262 16.3583984 18.4912109 26.0976563-.0500488.3183594-.0861816.6074219-.1040039.8481445-.0576172.7866211.4106445 1.2446289.9919434 1.3876953.2756348.7192383.5402832 1.4331055.7922363 2.1362305.6459961 1.8046875 3.5458984 1.0263672 2.8928223-.7973633-.4768066-1.3320313-.9992676-2.6484375-1.5429688-3.9570313.2990723-2.1782227 1.1491699-5.9931641 3.3422852-5.5981445 1.1560059.2080078 1.4902344 6.2231445 1.4936523 6.5717773.0861512 8.7721862-4.460617 39.687622-8.977539 29.7548828z"/></g></g></svg>