<svg id="Layer_1" enable-background="new 0 0 300 300" height="512" viewBox="0 0 300 300" width="512" xmlns="http://www.w3.org/2000/svg"><g id="personal_Profile"><g><path d="m23.1650314 136.4227753c2.9287109 23.7749023 13.1274414 46.9604492 29.8535156 61.6621094-22.8055153 40.6416779-21.5009079 37.7982178-21.2954102 38.6264648-.0385742.4750977.1762695.940918.777832 1.1958008 27.2758789 11.5732422 55.027832 22.0171051 83.3544922 30.7309723.6586914.4824219 1.6137695.4975586 2.0576172-.4462891.0517578-.1088867.1040039-.2172852.1552734-.3261719 3.5385742-.4130859 4.2265625-.7416992 8.1479492-1.1660156 3.2709885-6.5654297 8.2827072-16.749527 14.6303635-29.7041168 16.442215 6.3136444 34.2609558 8.0291748 45.3969727 9.6201172 27.1038971 2.1593933 41.4510193-6.9386902 34.4882813-40.0039063 8.6414032-11.2456512-38.345932-23.4726105-51.980957-26.7197266 1.7011719-3.4863281 3.4335938-7.0375977 5.1948242-10.6474609 2.2866211 1.074707 4.7675781 2.0976563 7.0634766 2.4213867.105957.2207031.3115234.3867188.6367188.3720703 13.8706055-.628418 23.7006836-10.7758789 31.684082-21.4663086.1889648.4765625.6235352.8154297 1.3149414.7290039 8.9755859-1.1230469 17.2236328-7.5629883 23.9995117-13.1879883 4.1035156-3.40625 8.543457-7.2358398 11.8549805-11.4365158 1.2734375-1.6157227 2.065918-3.3217773 2.0229492-5.0869141 2.3032227-.1616211 4.4350739-2.9775391 6.0488434-4.4545898 4.4995117-4.1166992 8.7695313-8.5361328 12.2236328-13.5820313 8.5830383-12.5364914 9.4904175-26.3524551 4.9960938-35.8208008-4.9619141-10.4516602-15.706543-16.3115234-25.8164215-20.8378906-14.6447296-6.5564232-27.361496-9.4269943-40.7104492-11.0600586-43.7193756-6.8311539-89.0027924-8.2203388-130.0439453 8.402832-17.1938401 6.9643556-35.3071214 16.7856447-46.8461839 31.7382814-13.0994511 16.9751205-11.6429062 46.1807632-9.2089844 60.4477463zm234.0927811-52.3056565c-2.1686859 2.4330215-2.7473907 2.7183838-33.3725739 26.6054688-8.9750977-2.6259766-17.6992188 4.690918-24.2382813 9.980957-1.3833008 1.1191406-3.3876953 2.6118164-5.3984375 4.3427734-.1767578-2.7109375-.4238281-4.0961914-.9326172-6.9155273.0317383-.1328125.0419922-.2617188.0366211-.387207.2490234-.7412109.0087891-1.6665039-.9550781-1.9570313-2.8632813-.8632813-5.7329102-1.7060547-8.5996094-2.5571289-5.2646484-9.7480469-11.5561523-19.112793-19.0532227-27.2929688.2329102-.3759766.3168945-.8618164.2045898-1.3041992-.1660156-.8554688-1.0664063-1.4648438-1.8305664-1.3125-5.0473633-1.6640625-10.1572266-3.0795898-15.3481445-4.2319336-1.3203125-.2929688-2.1049805 1.0424805-1.8056641 2.0107422-1.7949219 6.9946289-3.0712891 14.1098633-3.7045898 21.2910156-10.0732422-2.5820313-20.2143478-4.8774414-30.4023361-6.9604492-.8276367-.1689453-1.4467773.2939453-1.7211914.8989258-7.6992188 13.6386719-15.3696289 27.293457-23.0322266 40.9531174-6.8100586-6.2480469-13.8989258-12.8862228-17.296875-21.6718674-4.1279297-10.675293-.9233398-20.4584961 7.1708984-28.1455078 13.4848633-12.8061523 31.9892578-18.9658203 49.8452148-22.6279297 19.9086838-4.0834961 40.3935471-5.8979492 60.6977463-6.1870117 19.3564453-.2758789 40.2524414-.2685547 58.5371094 6.8686523 5.5777435 2.1773834 13.1378326 5.1873856 14.023941 11.1108398-.5292966 2.5639649-1.4765623 5.163086-2.8247068 7.4887696zm-64.4331207 52.7827072c8.1650391.9316406 16.0932617 3.2822266 23.3530273 7.1450195-2.0268555 2.9057617-4.1875 5.925293-6.5249023 8.84375-.0786133.0366211-.1567383.081543-.2290039.15625-5.8930664 6.0561523-17.2216797.875-22.1162109 8.0493164-1.578125-2.1386719-4.1850586-3.9472656-6.7954102-5.3110352 1.6811523-3.4458008 3.3803711-6.9301758 5.1030273-10.4614258 2.6513672-2.5903319 5.0361328-5.4189452 7.2094727-8.4218749zm25.2460937 71.7475586c.7182617 4.0688477.8510742 8.1069336.5561523 12.2797852-.795105 11.2402954.9163361 19.7998352-26.5063477 17.7402344-15.5786133-1.1694336-31.8398438-5.4516602-46.7441406-10.9233398 3.3833008-6.9135742 7.0629883-14.4418945 10.9985352-22.5 19.2659454 6.1846161 39.2339325 7.464386 55.300293 5.0517578 1.9042969-.2856446 4.371582-.6860352 6.3955078-1.6484376zm-182.8408127 27.1772461c25.7866211-45.6943359 51.2905273-91.5473633 77.0791016-137.2402344 20.7288895 4.2757645 28.7742538 6.7227325 29.7275314 6.8164063-.0561523.9008789-.1074219 1.8017578-.1420898 2.7041016-3.0957031-.9848633-9.6635742-2.6621094-10.4702148 1.8110352-.8730469 4.8388672 10.2504883 6.7700195 12.8022461 7.4165039 4.4267578 1.1210938 9.1157227 2.621582 13.659668 3.125 1.6743164.1855469 4.4277344.1103516 5.5668945-1.4414063 2.6166992-3.5629883-3.9755859-6.3974609-6.5185547-6.9277344-.0019531-.0004883-.0029297 0-.0048828 0 .253418-1.1601563.5117188-2.3222656.7724609-3.487793 10.7397461 3.2338867 21.5107422 6.362793 32.2519531 9.5893555-25.9448242 48.4633713-50.644043 97.5834885-74.0727463 147.3120117-27.3881836-8.4584808-54.2539062-18.5166015-80.6513672-29.6772461zm42.1333008-81.1660156c-6.7369614-10.7340851-9.129631-25.1987457-10.3647461-38.0478439 3.6547852 9.3999023 11.2719727 16.6288986 18.6005859 23.3559494-2.7460937 4.8969726-5.4916992 9.7939453-8.2358398 14.6918945zm71.372551-72.2621994c4.2822266 1.0019531 8.5126953 2.1782227 12.6972656 3.53125-3.5948944 8.3823471-5.6318817 17.3089294-7.6030273 26.3164063-2.9506836-.894043-5.9316406-1.7304688-8.9926758-2.0761719.1884765-9.3916016 1.5966797-18.6689453 3.8984375-27.7714844zm11.1098633 32.5649414c-.0961914 1.3725586-1.3920898 2.4174805-2.7402344 2.6914063-1.7986603.3659821-2.3639832.0445404-17.0449219-3.4345703-1.3496094-.3198242-2.9726563-.9291992-3.1342773-2.3066406-.0922852-.7832031.3808594-1.5488281 1.0185547-2.0117188.4462891-.3237305 1.4462891-.46875 1.7353516-.9204102.7285156.1450195 1.4760742.4228516 2.1713867.6743164-.0073242.2963867-.0200195.5927734-.0244141.8891602-.6152344.8447266-.2314453 2.4169922 1.1582031 2.4746094 3.9121094.1621094 7.6923828 1.3984375 11.409668 2.534668.698349.2124329 1.7776337-.0010834 2.0068359-1.0478516.0693359-.3164063.1391602-.6362305.2084961-.953125 2.9862976.6234818 3.1113892 1.0199203 3.8696289 1.4160156-.2055664-.0444336-.4174805-.0600586-.6342773-.0058594zm-.3095703-13.9980469c.0854645.1054535 4.0549164 5.1321716 5.2124023 6.6020508-2.1245117-.6318359-4.2514648-1.2558594-6.3735352-1.8950195.3676758-1.5727539.753418-3.1425781 1.1611329-4.7070313zm10.1381835 8.0668946c-.1327209-.2217712.5982513.7387314-7.5-9.5341797.7269287-.3981018 5.7002716-3.0132904 6.7495117-3.8891602 3.9804688 5.1923828 7.5537109 10.7133789 10.7626953 16.4003906-3.3388671-.9873046-6.6733398-1.9892578-10.012207-2.9770507zm-105.1674728 12.1347656c1.4404297 12.5244064 3.9609375 25.8442307 11.2080078 36.4340744-2.2910156 4.0888672-4.5849609 8.1757813-6.8754883 12.2641602-.8966217-1.3850098-31.6869431-14.7003784-41.2363281-45.1220627 5.4257813-19.9287109 20.9750977-39.2841797 39.1010742-49.565918-4.7445831 14.0722046-3.8704033 31.4426651-2.1972656 45.9897461zm3.0478516 50.9897385c-3.3320313 5.9467773-6.6655273 11.8925781-9.9995117 17.8378906-19.6489258-14.8149414-30.8745117-39.0825195-32.5463867-63.494133 9.7590446 29.3052597 41.077156 45.6975326 42.5458984 45.6562424zm145.5732345 26.0253906c2.9438477 1.7548828 7.0566406 6.7636719 1.6196289 8.4326172-2.4628906.7563477-5.0874023 1.2568359-7.7895508 1.5776367-18.9324341-7.0899658-45.0859985-13.9828796-45.1860352-13.9990234 1.840332-3.7695313 3.7294922-7.6411133 5.6577148-11.5917969 21.1757204 4.8047638 41.7478944 13.2262268 45.6982423 15.5805664zm-33.9609375-39.6391602c4.1455078 2.2138672 8.3413086 5.6245117 5.5009766 8.9013672-2.2807617 2.6318359-6.0800781 1.234375-9.5595703-.581543 1.336914-2.7407226 2.6904297-5.5151367 4.0585937-8.3198242zm53.46875-19.5727539c-5.2211914 3.7963867-11.0390625 8.2998047-17.5942383 9.2685547.5461426-.7580566 2.3508606-3.2912598 2.765625-3.9272461.3188477-.3173828.3930664-.8891602-.1142578-1.168457-.3662109-.2016602-.7421875-.3798828-1.1118164-.5737305.7421875-.7114258 1.3979492-1.7758789 1.3637695-2.6645508-.0810547-2.1132813-3.277832-2.8603516-4.7871094-3.5004883-5.1459961-2.1831055-12.0620117-6.1401367-16.4321289-.6660156-.0522461.0654297-.0771484.1347656-.1054688.2036133-.3431396-.0574036-3.9615784-.6259613-4.2568359-.5732422-.2861328.0141602-.4765625.1723633-.5522461.3969727-.4667969.652832-.9594727 1.2836914-1.4477539 1.918457-.2172852-.4677734-.3085938-.9663086-.296875-1.4868164.8398438-1.7216797 1.6835938-3.4511719 2.53125-5.1894531 3.3393555-4.0580978 9.0185547-8.0942307 11.0258789-9.6284103 5.0776367-3.8789063 11.6870117-9.277832 18.449707-7.9931641.1040039.2006836.2578125.3813477.4443359.53125.1591797.3271484.4638672.5878906.9448242.6870117.3945313.081543.7841797.1748047 1.1767578.2612305-.6811523.6064453-1.1220703 1.3647461-.8344727 2.3920898.5092773 1.8168945 3.3916016 2.121582 4.8413086 2.6040039 5.2099609 1.7338867 10.2143555 4.6352539 14.4160156 1.1826172 2.5713959 1.1865845 1.872757 1.3693771 5.7866211-1.2299805.0043945.0039063.0087891.0073242.0131836.0112305.0205078.0390625.0336914.0771484.0581055.1162109 3.1826174 5.046875-13.2124021 16.7949143-16.2841795 19.0283127zm40.5068512-49.2436447c-5.255188 11.8113174-17.0678101 22.043396-28.0683746 28.9575195-5.8470459-2.7420731-11.8173523-4.8857346-18.3066406-6.4140625 8.905014-6.8954086 27.3468018-20.7350311 31.3613434-24.8725586 7.0299072-5.1892242 10.3578796-11.7565308 10.7060547-16.6416016.2875977-4.0415039-.6806641-7.5913086-2.6499023-10.7006836 8.2094726 7.5869142 11.7968749 18.7929688 6.9575194 29.6713868zm-25.2431793-40.7226562c3.2612305 2.4887695 6.1494141 5.4448242 8.352066 8.8955078 2.4775391 3.8803711 4.0395508 8.4072266 4.2724609 12.984375-5.6811676-6.940918-17.0771637-9.9082031-25.3506012-11.7695313-10.5859375-2.3813477-21.503418-3.0268555-32.3193359-3.3466797-23.9473724-.7076988-48.7795868.920948-73.190918 5.4736328-10.681633 1.140625-30.4863205 5.2119141-37.7402267 7.0341797-8.0161133 2.0141602-18.0805664 7.3647461-23.9003906 13.5014648 1.7104492-7.8813477 4.934082-15.3779297 10.6665039-21.2612305 8.6704102-8.8984375 20.9379883-13.4233398 32.7470703-16.3525391 26.2548752-6.512207 53.9428635-8.4306641 80.9023361-6.8349609 18.6298829 1.1030275 38.2309571 3.9672853 55.5610352 11.6757814zm-213.8964767 29.7631836c11.1191406-15.2016602 29.6967773-25.100586 46.8193359-31.9609375 17.8637695-7.1577148 37.0595703-11.2739258 56.2343674-12.6455078 9.3706055-.6699219 18.7441406-.6459961 28.1015625-.1660156-14.9428711.5483398-29.8432617 2.2543945-44.4853439 5.0927734-22.258545 4.3143577-43.0535279 11.1582946-52.2890626 31.7983398-.0268555.012207-.0532227.0170898-.0800781.0307617-18.668457 9.359375-35.1333008 28.2724609-42.1386719 48.3515625-2.9482422-13.9125976-.8022461-28.6889648 7.8378907-40.5009765z"/><path d="m134.8515472 129.2670135c-8.6621094-2.2192154-17.1320038 3.4160156-19.2084885 10.6811523-2.3413086 8.190918 2.5078125 16.5620117 10.4536133 19.2529297 8.6435471 2.9267578 18.4321213-.9379883 20.8525314-10.0688477 2.5112306-9.4721678-2.7836913-17.5068358-12.0976562-19.8652343z"/><path d="m121.4584885 162.5135956c-19.9741211-5.0947266-38.0791016 8.027832-46.675293 25.3818359-.4550781.918457.0683594 1.7739258.7841797 2.1162109.7391281.4307251 27.2115021 11.1244812 55.6957932 21.140625.906662.3184814 1.696167-.3665619 1.9526367-.9819336 3.8735352-9.2875977 7.2949219-19.09375 5.1157227-29.2529297-1.9536134-9.1079101-7.7578126-16.0791015-16.8730393-18.4038085z"/><path d="m108.1030197 219.6830292c-9.3686523-4.7548828-19.1259766-8.480957-29.2885742-11.1542969-1.8691406-.4916992-2.6660156 2.4013672-.7978516 2.8925781 9.9130859 2.6079102 19.4296875 6.2119141 28.5722656 10.8520508 1.7177735.8720703 3.2382813-1.715332 1.5141602-2.590332z"/><path d="m94.0805588 228.0668182c-4.6342773-1.7329102-9.269043-3.465332-13.9033203-5.1982422-1.8105469-.6772461-2.5922852 2.2216797-.7973633 2.8925781 4.6342773 1.7329102 9.2685547 3.4658203 13.9033203 5.1987305 1.8105469.6767579 2.5922852-2.2216796.7973633-2.8930664z"/><path d="m150.2372894 91.2738571c.8286133 1.5639648 2.9335938 2.1796875 4.4863281 1.3564453 1.5473633-.8198242 2.2001953-2.9453125 1.3564453-4.4863281-.9892426-1.8071823-3.3241577-2.0130692-4.4868164-1.3564453-.0004883.0004883-.0004883.0009766-.0014648.0009766-1.2325744.5374069-2.297699 2.7055664-1.3544922 4.4853515zm3.2109375-1.496582c-.0361328.0932617-.0576172.1650391-.1708984.2280273-.0117188 0-.0136719-.0009766-.0322266-.0004883-.1054688-.0048828-.1108398.0009766-.015625.0175781-.0537109-.0131836-.1079102-.0263672-.1621094-.0395508.1606445.0205078-.1845703-.0976563-.0668945-.0068359-.1079102-.0830078-.1142578-.0644531-.1381836-.1240234.0052032-.1298981.0052338-.1997528-.0170898-.0717773.0131836-.0541992.0263672-.1083984.0395508-.1625977-.0200195.1611328.0976563-.1845703.0068359-.0668945.1313477-.1704102.0205078-.0620117.2158203-.1728516h.0004883s0 0 .0004883 0c-.2055664.0888672.0878906.0297852.1186523.0419922.1103516.0424805.1923828.0561523.2626953.2382813-.0825195-.2133789-.0327148.0952148-.0415039.1191406z"/></g></g></svg>