<svg id="Layer_1" enable-background="new 0 0 300 300" height="512" viewBox="0 0 300 300" width="512" xmlns="http://www.w3.org/2000/svg"><g id="project_kickoff"><g><path d="m204.271225 195.1948242c2.9844208.2668457 4.9589081-2.9876709 5.0146484-5.5332031.2524261-2.3223114-1.2793732-5.8576508-4.2675781-5.9511719-2.940918-.0927734-4.671875 2.9648438-4.8154297 5.5595703-.1401367 2.5341797 1.230957 5.6708985 4.0683594 5.9248047z"/><path d="m259.2721863 81.3950195c10.8803711 0 19.7304688-8.8496094 19.7304688-19.7197266 0-10.8798828-8.8500977-19.7304688-19.7304688-19.7304688-10.8696136 0-19.7197113 8.8505859-19.7197113 19.7304688 0 10.8701173 8.8500976 19.7197266 19.7197113 19.7197266zm3-33.2197265c0-.8398438.6904297-1.4599609 1.5-1.5.8100586-.0400391 1.5.7197266 1.5 1.5v.1601563c0 .8398438-.6796875 1.4697266-1.5 1.5-.8095703.0400391-1.5-.7099609-1.5-1.5zm-17.8495941 12.2597656c-.050293-7.6201172 5.8598633-13.5898438 13.4697113-13.6796875 1.9301758-.0205078 1.9301758 2.9794922 0 3-5.9897308.0693359-10.5097504 4.7099609-10.4697113 10.6796875.0097656 1.9404297-2.9902344 1.9296875-3 0z"/><path d="m23.5583344 239.1967773c-1.2583008-1.46875-3.3720703.6621094-2.1210938 2.1210938 1.6914063 1.9736328 4.0024414 3.1982422 6.1923828 4.5283203.2751484.1671753.4493332.2196198 1.3071289.3066406 10.2477913 1.0470734 27.0075722-2.8847809 27.472168-3.2714844 6.3696289.6523438 12.7368164 1.328125 19.0751953 2.2470703.0683594.8144531.1455078 1.6113281.2304688 2.3671875.0941315.7530365.6495514 1.3236694 1.4677734 1.4150391.4787979.2344513 15.0276871 8.5072937 18.8642578 8.8291016 4.6416016.3886719 31.7871094-.8867188 39.074707-4.7646484 10.6894073-5.6855011 15.2393799-11.6665649 29.0263672-23.4746094 1.4848633 2.0498047 3.1049805 4.0039063 4.8803711 5.8320313 7.8012695 8.0322266 18.2294922 12.6396484 29.4179688 11.7529297 3.2319336 6.4892578 9.9174805 10.9697266 17.6464844 10.9697266 10.7451172 0 19.4946289-8.6416016 19.7011719-19.3378906 3.4770508 3.0664063 8.0253906 4.9433594 13.0146484 4.9433594 10.8740082 0 19.7206879-8.8466797 19.7206879-19.7207031s-8.8466797-19.7207031-19.7206879-19.7207031c-2.6318359 0-5.1401367.5273438-7.4375 1.4677734 6.4393616-30.6473083-7.4104767-69.8102264-36.796875-72.5722656 1.5712891-1.1787109 3.1552734-2.6845703 4.0351563-3.5185547 5.2646484-4.9873047 10.3613281-9.4375 15.5805664-14.4765625 1.9638672-1.8964844 3.6870117-3.4912109 5.3208008-5.0537109 10.0450897 1.3045578 16.137207-19.1799774 1.4658203-38.1132813-14.4038239-18.5899658-37.9753723-12.1189308-34.7202148-3.2011719-16.1987305 11.7275391-33.1083984 21.40625-51.6679688 29.328125-1.7700195.7558594-.2436523 3.3408203 1.5141602 2.5908203 19.0048828-8.1123047 36.2797852-18.0673828 52.8320313-30.1777344 21.3546448-1.4803925 33.6135559 25.6413956 32.6533203 33.7285156-12.6489258 8.2773438-24.6083984 17.5654297-35.4487305 28.1171875-.065918.0644531-.1166992.1318359-.1674805.1992188-8.3896484-.0371094-15.8583984 2.9140625-22.1206055 7.7412109-9.2817383-19.5839844-25.6523438-43.8037109-50.5810547-36.8056641-.0229492-.1992188-.0913086-.40625-.21875-.6152344-1.828125-3.0087891-7.0737305-1.53125-9.8789063-.4951172-2.2988281-3.6591797.3041992-10.9892578-1.2363281-15.0498047-1.5205078-4.0058594-4.5810547-6.6904297-8.4545898-8.3085938-1.7788086-.7441406-2.5556641 2.1582031-.7973633 2.8925781 3.3691406 1.4072266 6.074707 4.2792969 6.9086914 7.8964844 1.0425797 4.5221252-1.9511108 9.1106415.6801758 13.8222656-4.5108261 2.3095703-3.9645157 3.927002-3.9536133 5.7470703.0024414.8242188.0449219 1.6445313.1000977 2.4628906-2.9345703 1.6513672-5.6503906 4.1464844-7.9033203 6.5957031-5.8647461 2.2177734-10.7563477 7.1113281-12.0297852 13.3681641-.1000977.4921875.0263672.9082031.2695313 1.2246094-8.0742188 11.546875-10.4868164 26.3945313-6.1083984 40.0283203-.2392578.8183594.2470703 1.765625.9863281 1.9921875-1.3994141.8291016-2.4702148 2.1337891-2.7036133 3.7382813-6.4707031-1.7939453-13.6098633.6523438-16.512207 7.1904297-2.9453125 6.6337891-.3154297 14.2744141 5.9599609 17.6396484-5.0263672 7.6894531-9.9580078 15.4003906-17.5996094 20.7978516-.7148285.5061493-3.0224266-.566391-2.8676758-3.8173828.0371094-.7783203-.7177734-1.5439453-1.5-1.5-6.632843.3757324-18.3616333-2.6516266-21.840332-.5449219-4.0703125 2.4658203-3.4804688 10.1865234-3.5722656 14.3164063-.0429688 1.9316406 2.9570313 1.9306641 3 0 .090332-4.0644531-.4614258-10.3945313 3.8408203-11.7402344-1.1625977 6.9238281-1.472168 13.9453125-.7319336 20.9189453-1.2963868-.7978516-2.5400392-1.6611328-3.5483399-2.8369141zm179.5517578-175.453125c5.3244324-2.543766 18.335907-.1245461 26.4160156 11.2587891 5.8932037 8.3046112 10.2065277 20.6132355 5.4628906 28.3486328-.0888672-.0966797-.1870117-.1806641-.2949219-.25 1.7788086-19.6865234-11.2368164-38.2539062-31.5839843-39.3574219zm-127.8085938 178.3554688c-13.2050781-1.859375-26.5273438-2.7099609-39.7260742-4.6191406-.2670898-1.3955078-.1958008-2.7167969.0756836-4.078125 13.2324219 1.4199219 26.465332 2.8398438 39.6982422 4.2607422-.0927735 1.4902343-.0996094 2.9814453-.0478516 4.4365234zm9.2910156 6.4970703c-2.0180664-.7373047-4.0844727-1.3847656-6.0083008-2.3330078-.5541992-5.5292969-.7685547-12.7558594 2.1630859-17.3828125 2.7827148-4.3925781 6.8759766-4.8798828 10.9970703-3.8242188-1.0424805.1269531-2.0737305.3349609-3.0786133.6386719-6.2091445 1.8752594-4.5888671 16.0561829-4.0732421 22.9013672zm44.8764649-3.9814453c-12.7211914 6.9326172-27.8330078 5.9375-41.8222656 4.7773438-.3815765-4.6719666-1.8143616-19.2599335 2.5263672-20.9873047 2.5493164-1.0146484 6.0639648-.5664063 8.6196289.2041016 4.0415039 1.2167969 6.8691406 5.0898438 11.0839844 5.7353516 3.0449219.4658203 5.8945313-.9257813 8.2143555-2.7822266 14.515625-11.6152344 16.6958008-33.9970703 34.1376953-42.6103516-.1606445 10.7041016 1.8994141 21.5449219 6.3852539 31.125-10.1528321 7.6064453-17.9072266 18.4140625-29.1450196 24.5380859zm-3.7734375-38.6376953c-5.0449219-.5595703-10.1020508-.9912109-15.1655273-1.2539063 4.4167175-5.6492157 4.3073502-5.3815155 4.4013672-5.9433594 5.1660156.4375 10.3920898.2167969 15.5834961-.6845703-1.366623 1.8579865-2.3777009 3.1989899-4.819336 7.881836zm27.0390625-24.7851563c-.1713867 1.4726563-.3012695 2.953125-.3876953 4.4404297-20.9657288 9.4221191-22.2606049 33.1378174-36.2666016 43.6308594-2.487793 1.8642578-4.6552734 1.9648438-6.7353516 1.3027344 17.1079636-6.4712677 13.4418335-29.7824707 43.3896485-49.3740235zm-28.4995117 27.631836c-.6655273 1.3115234-1.3364258 2.6308594-2.027832 3.9355469-8.9165039-1.2636719-17.8847656-2.078125-26.8945313-1.7509766-.3549805-1.1630859-.7431641-2.3125-1.1591797-3.4501953 10.0478516-.3574219 20.0864258.2050781 30.081543 1.265625zm-19.8891602 5.2050781c5.4580078.2167969 10.8999023.7734375 16.3212891 1.5234375-3.4824219 6.0341797-7.7353516 11.2763672-14.6269531 12.9033203-.2084961.0498047-.3789063.1328125-.5234375.234375-2.0925674-1.2436981-5.0907974-3.5117493-9.5439453-5.3769531 2.7861328-2.8603516 5.1884766-6.0908203 8.065918-8.8632813.1386718-.133789.2338866-.2753906.3071288-.4208984zm95.5141602 13.1337891c-8.4816437-.0348816-16.6957397-4.2019653-21.8603516-9.9404297 12.1130981-10.1647644 15.9571075-11.7999115 16.5322266-12.8720703 1.9780273 2.5673828 4.6445313 4.4248047 8.0615234 4.875-.2543945 5.1767578-.5092773 10.3535156-.7641602 15.5302734-.715332.7509766-1.3779296 1.5507812-1.9692382 2.4072266zm13.5439453-54.3271485c-2.1532288-2.0414429-4.8072357-3.190033-7.9760742-3.2275391-.1264648-7.5283203-.5058594-15.0400391-1.1376953-22.5429688 5.0271149.6152344 11.4173584 3.6924744 16.8388672 9.5908203 1.2856445 1.7490234 2.4306641 3.5976563 3.425293 5.5322266-3.838379 3.4218751-7.557129 6.9677735-11.1503907 10.647461zm12.480957-7.8154297c3.0144958 7.0616455 4.0836945 14.365448 3.8066406 21.8574219-11.8557129-.7038727-10.2532043-.6152344-10.4936523-.6152344-.425293-3.8759766-1.6445313-7.9726563-3.8417969-11.1357422 3.3984375-3.4863281 6.9111328-6.8505859 10.5288086-10.1064453zm-19.9609375 7.5957032c8.2900391.6279297 10.6582031 11.0800781 10.4345703 17.6933594-.637207 6.7177734-4.5039063 16.4941406-12.7939453 16.0068359-8.121582-.4765625-10.8759766-11.1738281-10.4345703-17.6933594.4501953-6.6445313 4.644043-16.6240234 12.7939453-16.0068359zm-10.637207 2.1601562c-4.3588867-5.3408203-8.7177734-10.6806641-13.0766602-16.0214844 4.8608398-5.7158203 11.5507813-11.2871094 19.0742188-11.7695313.6450195 7.640625 1.0307617 15.2900391 1.1513672 22.9570313-2.8779297.7148438-5.2636719 2.5-7.1489258 4.8339844zm-1.7587891 2.5654297c-1.7128906 2.9521484-2.7944336 6.3691406-3.2246094 9.5488281-6.3662109-.0400391-12.7177734-.3173828-19.0634766-.8339844.7817383-8.984375 3.7158203-17.7197266 9.0654297-24.9150391 4.4077149 5.4003907 8.8149415 10.7998048 13.2226563 16.2001954zm-3.4370117 12.5458984c-.0253906 3.9541016.9194336 8.4873047 2.9545898 12.1855469-1.3959198.3265228-13.9833832 10.369873-16.8481445 12.765625-2.9999084-5.8363037-5.484314-15.6527863-5.1367188-25.7949219 6.334961.5195313 12.675293.7988282 19.0302735.84375zm15.9833984 56.8300782c-4.887207-4.6337891-5.6469727-11.7832031-1.7050781-17.2773438 1.1166992-1.5566406 3.7177734-.0576172 2.590332 1.5136719-3.1845703 4.4394531-2.7495117 9.8632813 1.2363281 13.6425781 1.4042969 1.3320313-.7207031 3.4492188-2.121582 2.1210938zm5.9697266 3.0146484c-1.9335938 0-1.9301758-3 0-3 1.9335937 0 1.9301758 3 0 3zm6.690918-30.9189453c-5.1227112-.6926422-9.9006348.5998535-13.7739258 3.2587891.2104492-4.2724609.4208984-8.5449219.6313477-12.8173828 4.1757813-.4638672 7.3427734-3.0537109 9.5893555-6.4833984 2.8886719 2.8154297 5.7773438 5.6298828 8.6660156 8.4453125-1.3969727 2.7705077-3.088379 5.3486327-5.112793 7.5966796zm-2.0419922-18.7382813c1.7514648-3.6776276 2.6929779-8.0602264 2.6777344-10.8105469 3.3779297.2001953 6.7563477.4013672 10.1347656.6025391-.52005 6.1058655-1.9493866 12.7819214-4.3217773 18.4628906-9.3167725-9.0806274-8.2939912-8.0943908-8.4907227-8.2548828zm21.8505859 32.2353516c-1.9335938 0-1.9301758-3 0-3 1.9335938 0 1.9306641 3 0 3zm3.5546875-19.5244141c-3.9111328 3.1982422-5.3901367 7.8427734-3.9482422 12.71875.5493164 1.8583984-2.3466797 2.6445313-2.8930664.7978516-1.7192383-5.8154297.0097656-11.7861328 4.7202148-15.6386719 1.4829102-1.2128906 3.616211.8984375 2.1210938 2.1220703zm-33.1547851-75.868164c26.027832 7.2162933 35.4854584 43.5855255 29.0234375 70.5664063-5.2426758 3.4658203-8.7304688 9.3632813-8.8598633 16.0742188-.9501953-.8378906-1.9794922-1.5839844-3.078125-2.2285156 10.6215668-15.9323425 12.1812744-39.0439148 4.199707-56.6259766-6.3828125-13.0693359-23.1733398-26.71875-38.0209961-18.1386719-36.2711182 20.960907-29.3518982 81.1827393 4.5605469 87.8339844-.6431274 3.1622314-.4815063 6.1938477.3183594 9.1220703-26.1249084-4.5106201-43.9201355-44.0208588-29.5546875-79.9042969 6.5698242-16.4111329 22.3349609-31.9873048 41.4116211-26.6992188zm-37.4624024 5.3378906c-7.4457245 6.6254425-12.9776611 15.9456482-15.9980469 25.78125-7.9529724-25.7268219-27.294632-43.6761703-40.6240234-49.0332031 5.0708008-.6005859 9.7670898-2.9228516 13.3896484-6.8544922.6841583-.7458725.6320953-1.392601.234375-1.9169922-1.0581055-1.3945313-2.0898438-2.8193359-3.1748047-4.1982422 23.0107422-5.4267578 37.6899415 18.1708984 46.1728516 36.2216797zm-46.2163086-31.3486328c-4.1464844 3.9882813-9.7001953 5.9179688-15.4794922 5.1386719-.0568008-.6135788-.3670273-4.0497284-.418457-5.1640625 3.4257202.3483276 10.0295105-1.8283081 12.5351563-4.1816406.3748626.1518401 3.0615158 3.8030929 3.3627929 4.2070312zm-13.9580078-4.4121094c.3452148-.2070313.7109375-.3779297 1.074707-.5527344.3637695.2519531.75.4833984 1.1816406.6738281 1.4008789.6181641 2.6552734-.9130859 2.1962891-1.9482422 1.4575195-.4335938 3.5249023-.9238281 4.3818359-.5439453-.6835938 1.2695313-4.1762695 2.5146484-4.965332 2.7861328-3.4111786 1.178154-4.4379578.791748-5.9321289.9882813.0419922.1083985 1.6542969-1.1582031 2.0629883-1.4033203zm-4.6015625 8.6757813c.16082 1.6683884.1475067 1.6690674.1899414 1.9746094-.9277344-.0517578-1.8696289-.0361328-2.8227539.0371094.8427734-.7265626 1.722168-1.4052735 2.6328125-2.0117188zm46.9013672 60.3945312c-.1108398.5732422-.2143555 1.1484375-.3125 1.7255859-7.5766602 4.6328125-14.3120117 10.40625-19.9604492 17.2041016-.6773071.0774078-5.7717133 1.5181274-13.28125 1.5214844 7.2763672-12.078125 2.1513672-26.3173828-6.4926758-36.2763672-6.6010742-7.6054688-19.6230469-20.0380859-30.0649414-13.4521484 12.9595795-40.9531861 52.1609497-16.9181061 70.1118164 29.2773437zm-72.0117188-19.1220703c.1930389.0021057 16.1275635-3.8196411 24.5732422 4.4375 23.2460022 22.7302551 10.764267 32.4391022 10.6176758 35.0439453-6.8125-.3808594-13.5385742-1.953125-19.8959961-4.6757813 11.3953476-9.5539093-.0954056-26.4229889-13.684082-20.1484375-1.4003906-4.8242187-1.9238281-9.7792968-1.6108399-14.6572265zm2.1376954 17.7685547c11.0175552-6.0478821 20.5406265 8.0336914 10.7338867 15.1396484 2.2359161-5.1319122-4.5569687-16.5025329-10.7338867-15.1396484zm5.633789 9.9433594c-.9101563.4003906-1.6962891 1.0166016-2.3422852 1.7597656-.7294922-1.5556641-1.7373047-2.9853516-2.9838867-4.1914063.637207-.5742188 1.2749023-1.1484375 1.9125977-1.7226563.71875-.6474609-.3447266-1.7060547-1.0605469-1.0615234-.6660156.6005859-1.3320313 1.2001953-1.9980469 1.8007813-.3188477-.2480469-.6479492-.4833984-.9902344-.703125-.0191345-1.8372498 1.2933044-2.844696 2.8300781-2.9511719 2.9412384-.2053223 6.3088379 5.6746216 6.9018555 7.5595703.4113617 1.3061676.2048416 7.0974884-3.5742188 4.4023438-.1049805-.5029297-.2382813-.9980469-.3974609-1.4873047.5976563-.9355469 1.418457-1.6523438 2.4589844-2.1103516.881836-.3876953.1191407-1.680664-.7568359-1.2949218zm-24.8334961 4.7441406c1.6845703-6.4677734 8.8598633-9.4042969 14.840332-6.8691406 11.0058594 5.7607422 4.7060547 23.4130859-7.4858398 19.8095703-5.5708008-1.6464844-8.8208008-7.3115235-7.3544922-12.9404297zm-33.7705078 32.8222656c1.5897293-.0391693 14.1070595.4311981 14.2075195.4394531.8476563 6.6240234 9.5151367 6.0488281 14.1577148 2.9970703 9.8135452-6.450531 20.0288544-19.6593323 20.4570313-20.8652344 3.3203125-1.2734375 6.1601563-3.8164063 7.6914063-7.2861328.6376953-1.4453125.9672852-2.9550781 1.050293-4.4658203 1.3217773.3525391 2.7324219.1523438 3.9194336-.5683594.097168.3037109.3154297.5800781.7050781.7675781 5.9858398 2.8828125 12.2954102 4.7832031 18.7329102 5.6748047-1.6040039 2.0507813-3.2080078 4.1005859-4.8120117 6.1513672-4.796875-.1660156-9.5991211-.1689453-14.4033203.0517578-1.0800781-.3955078-2.5161133.3671875-1.9780273 1.6865234.8554688 2.0996094 1.5732422 4.2041016 2.2080078 6.3798828.1958313.6688385 1.043541 1.3807983 1.8149414 1.3466797 1.9550781-.0859375 3.9086914-.1083984 5.8603516-.0927734-.0944595.1012726-7.4152603 8.1868744-7.496582 8.2871094-4.1030273-1.1484375-8.3198242-1.0527344-11.9692383 1.953125-3.1069336 2.5605469-4.609375 6.4013672-5.2446289 10.5185547-13.5219727-1.4521484-27.043457-2.9033203-40.5654297-4.3544922-.7568359-.3085938-1.7436523-.0878906-2.0234375.9277344-.6743164 2.4492188-.9023438 4.8076172-.3334961 7.2724609-.2177734.7314453.046875 1.5449219 1.0131836 1.6884766 4.3774414.6523438 8.7695313 1.1748047 13.1669922 1.6542969-5.5234375 1.015625-11.1611328 1.7509766-16.6635742 1.375-.9560549-7.1425781-.6982424-14.4404297.5048826-21.5390625z"/></g></g></svg>