<svg id="Layer_1" enable-background="new 0 0 300 300" height="512" viewBox="0 0 300 300" width="512" xmlns="http://www.w3.org/2000/svg"><g id="Protection"><g><path d="m158.0433502 251.9513855c26.2553711 4.9858398 52.4770508 10.1547852 79.0654297 13.0537109.4624023.050293.809082-.0888672 1.0473633-.3271484.381134-.133728 10.4027557-5.4746094 15.4389648-8.7944336.3237305-.2133789.5161133-.4897461.6113281-.7856445 1.5351868-1.9118805-.3331299.1785126 4.1318512-4.0722656-1.203125-26.5732422-1.2124023-53.7070313 1.3125-80.1875.1660156-1.7441406.234375-2.4995117.3125-4.25-3.125-1.5625-9.9375153-4-13.2500153-5.125-.1728516-.0585938-.3339844-.1079102-.4921875-.1547852 2.0947266-1.8022461 4.1894531-3.6040039 6.2578125-5.4365234.0997925-.0889893 3.6971893-6.0078888 3.758316-6.1079102-.3183746-18.4492188.8154297-35.5590744.8154297-54.0107346 0-1.5-5.746109-14.5576172-12.5268707-27.9150391-1.4233398-.1816406-2.2773438-.746582-3.5151367-1.2529297-.1035156-.6630859-.5722656-1.3037109-1.4018555-1.4135742-33.7939453-4.4819374-67.5454102-9.295414-101.3833008-13.4428749.0780029-.3171234.050293 1.5169449.050293-28.390625 0-1.9301758-3-1.9335938-3 0v28c0 .0097656.0024414.0180664.0024414.0273438-2.4942627-.3016472-2.2099609-.2893562-2.4951172-.2822266-.3291016-.3476563-.8144531-.5541992-1.40625-.4414063-10.5685806 2.0119705-76.2910919 15.1108208-85.9155273 19.2675819-5.4662285 2.361412-6.455616 6.7895966-4.5014648 9.5498047-.0415497.2599716-.1018906-1.2525101 1.215332 23.4160156.034668.6430664.4272461 1.2382813 1.0625 1.4277344-.1122169 1.3792572.6522636 3.0511703 2.3613281 4.0693359-.7392578 10.9550781-.1489258 21.525383 1.3969727 32.5312424.2670898 1.9038086 3.1582031 1.09375 2.8925781-.7973633-1.4614258-10.40625-1.9780273-20.3886642-1.3486328-30.7065353 5.8580551 1.0852356 14.0728455.3552551 21.3222618-2.8071289-1.7055664 12.5439453-.4648438 25.4741135 3.5668945 37.4731369-7.5761719 6.4829102-18.254879 7.9160156-27.2661095 3.5463867-1.0555153-.5118866-2.5796585.3918304-2.5541992 1.5595703.1386719 6.3720703-.0712891 12.9301758.4970703 19.2739258 1.1029205 12.3134155 12.7770348 11.3008881 24.3896446 7.2714844 7.097168-2.4619141 13.8369141-5.8496094 20.7436523-8.7807617.3420258-.1453705 1.4118729-.8628998 1.4467773-1.7617188.0917969-2.3759766.184082-4.7519531.2763672-7.1279297.0820313.0683594.1757813.1362305.3305664.2011719 3.2744141-.7363281 6.5488281-1.4731445 9.8237305-2.2094727.1108398.8334961.0478516 1.7998047.1591797 2.6333008 1.0761719-.0102539 2.2446289-.137207 3.3676758-.2075195.3076172.7646484 1.203125 1.3583984 2.1655273.8876953 8.2333984-4.0258789 16.6938477-7.5229492 25.3925781-10.4067383.3237305.0195313.6508789-.0483398.9238281-.2094727.7045898.1757813 1.4111328.3461914 2.1166992.5180664-.2797852.2412109-.4663086.6025391-.4663086 1.0844727 0 122.0541687-.032608 116.7503967.0585938 117.0869141-.1318359.6870117.1567383 1.4213867 1.0424805 1.6098633 12.9804688 2.7583008 26.0649414 5.0253906 38.75 9 1.8466797.578125 2.6367188-2.3168945.7973633-2.8930664-12.3266602-3.8618164-25.0297852-6.1152344-37.6484375-8.7705078 0-124.7900543.039444-116.1526489-.0830078-116.5249023 7.6137695 1.8007813 15.2749023 3.3676758 22.9814453 4.7016602-3.2226563 1.5932617-5.7666016 4.1811523-4.7250977 8.0195313-.0027771.101593.9688416 87.8638306 1.0209961 87.9648438-.0595663.6347655.253422 1.2631835 1.0732462 1.4189452zm82.2924805-73.7851563c.3891602.2016602.8671875.2373047 1.3632813-.0327148 3.5893555-1.9511719 7.1298828-3.9902344 10.7001953-5.9750977-1.3134766 27.1484375-1.5405273 54.3325195-.9101563 81.5048828-4.0371094 2.6132813-8.2719727 4.8930664-12.5 7.1811523.4213867-24.8530273 2.1259766-49.6601563 2.7866211-74.5063477.0512695-1.9311523-2.9487305-1.9296875-3 0-.6699219 25.1875-2.4165039 50.3349609-2.8071289 75.5302734-25.6020508-2.8554688-50.8662109-7.8178711-76.15625-12.625.1796875-27.5385742.0820313-55.0820313-.753418-82.6098633 1.0595703.6679688 2.2631836 1.1523438 3.4672852 1.5146484 7.3081817 2.1967166 43.1079864 8.6109927 77.8095703 10.0180666zm-70.4316406-80.7241134c3.3427734-.6875 10.0693359 1.7768555 10.3466797 5.7973633-.0507813-.0019531-.0966797-.0097656-.1503906-.0068359-7.8579102.4199219-21.8061523 3.4707031-24.2788086 12.4365234-2.4785156-.7548828-7.2998047-2.4775391-7.6606445-4.7978516-.5097656-3.2783203 6.9980469-6.75 9.2324219-7.9697266 7.1513365-3.9025268 11.7311858-4.9255828 12.5107421-5.4594726zm-24.2705078 14.8876953c1.4814453 2.7119141 5.2958984 4.8149414 7.9765625 5.7988281 18.7385254 6.8788528 44.8934784 1.4785767 61.1533203-5.8891602 2.5043945 2.3647461 4.4101563 5.4516602 5.6845703 8.6381836-5.5289001 1.4375153-50.4511566 18.1948013-69.8027344 6.3081055-5.4916992-3.3725586-7.4614258-9.7294922-5.0117187-14.855957zm53.0644531-3.1352539c2.2890625.8779297 4.5195313 1.9799805 6.6689453 3.28125-4.2490234 1.4106445-8.5712891 2.6289063-12.9433594 3.5766602 1.0556641-3.1660157 3.3955078-5.5170899 6.2744141-6.8579102zm-23.663086 26.0102463c.0644531-.3959961-.0166016-.7407227-.1796875-1.0268555 3.8686523-.1572266 7.7109375-.5839844 11.5317383-1.206543-1.0756836 8.4692383-1.0874023 17.0029297-.6088867 25.5234375.0234375.4165039.1875.737793.4223633.9746094-3.9985352 1.1396484-9.175293.5688477-12.9633789-1.3867188.184082-.230957.2983398-.5351563.2895508-.9189453-.1674805-7.3764648.3159179-14.6748046 1.5083007-21.9589843zm13.5957032 20.2978515c-.3349609-7.6987305-.2558594-15.434082.8173828-23.0727539 9.4296875-1.7880859 18.7333984-4.6547775 27.9765625-7.4960861 1.9707031 1.277832 4.059082 2.8413086 5.0161133 4.5029221.7630463 8.2272949-.8097534 11.0061951-.7949219 34.078125-11.0092774-2.6542969-22.0063477-5.3583985-33.0151367-8.0122071zm30.8701172-42.3945236c-4.1040039-5.359375-10.4790039-9.0444336-17.3745117-8.0322266-8.7856445 1.2891617-13.2313538 8.9552231-12.8950195 11.6166992-4.1601563.7641602-8.3603516 1.265625-12.5825195 1.4116211 2.8535156-9.2099609 9.8808594-17.9975586 19.065918-21.3354492 10.2617188-3.7294922 22.5371094-.6337891 30.1098633 7.1098633 16.4272461 16.7973633 9.3823242 43.7338791 10.7285156 64.6166916.0053711.0878906.0234375.1679688.0405273.2480469-3.7158203.9726563-8.2089844.8808594-12.0058594-.0703125.0454102-.1455078.0771484-.3017578.0756836-.4799805-.0732422-10.3974609.4467773-20.7133789.8291016-31.0961914.3124999-8.4814453-.6835939-17.056633-5.9916993-23.9887619zm-172.4902306 50.6967697c-.0546875-4.2407227-.2333984-8.4794922-.3500977-12.7192383 10.0083008 3.9589844 21.2631798 1.9995117 29.3793907-5.3071289.5321655-.4795685.6393509-1.639389.5722656-2.0161133-2.6445313-14.8374023-3.1928711-29.8325119-1.7163086-44.8276291.1152344-1.1704102-1.3476563-1.8188477-2.2568359-1.2949219-8.4916992 4.8896484-18.0502892 6.2792969-27.5278282 4.0371094-.3583984-6.7099609-.7167969-13.4204102-1.0751953-20.1303711 1.4643555.4663086 3.1225586.5761719 4.5952148.5195313 13.2875977-.5102539 25.7436485-6.8911133 38.392086-10.3378906.3525391.8798828.5566406 1.800293.5854492 2.7768555.0181198.5995636 1.2455215 2.6885223 2.5898438 2.1767578 4.6674805-1.7763672 9.3344727-3.5532227 14.0014648-5.3295898 1.1074219-.4213867 1.2290039-1.6953125.7324219-2.4399414.065918-1.5351563.1323242-3.0708008.1987305-4.605957.2802734-.2426758.5751953-.4692421.8876953-.6743202 28.1136017-9.4828758 26.404892-8.6578979 26.7470703-9.6015625.3291779.094326-8.0638123-1.1257324 105.6567383 13.9824257.0832062.2480469-.9157257-1.7526093 13.2797852 26.2631836-.0399323.2479401.0422516-2.7103043-1.4458008 59.5620041-2.2495117 1.9912109-4.5263672 3.9506836-6.8032227 5.9101563.0571289-3.2426758.4414063-7.8530273.4125977-10.859375-.0898438-9.4746094-.5126953-18.7661133-3.090332-27.8837814-1.671875-5.9135742-4.1279297-11.3686523-8.1669922-16-8.5336151-9.7878418-26.6742554-17.956604-43.1621094-7.9975586-12.6163788-8.8210907-31.1118469-1.8162613-42.1264648 8.7270508-4.8178711 3.78125-7.2783203 10.2021484-5.0366211 16.1269531 2.668457 7.0517502 9.8969727 10.0854416 16.8378906 11.3144455 4.3930664.7783203 8.7460938 1.0942383 13.065918 1.0615234-.3134613 1.1362915-1.5781708 9.8278046-1.6767578 18.8691406-12.3720703-1.8398438-24.6289063-4.2744141-36.7651367-7.3076172-.5126953-27.3251877-.6503906-54.6332932-.1367188-81.9609375.0366211-1.9311523-2.9633789-1.9311523-3 0-.5166016 27.4853554-.375 54.9511757.1450195 82.4345703-7.8798828 2.6430664-15.5756836 5.7861328-23.0825195 9.3496094.0013199-1.9217377-.4818878-3.7315063-.8530273-4.4111328.0888672-.9697266-.6445313-2.0009766-1.8085938-1.5805664-5.5541992 2.0048828-11.1079102 4.0102539-16.6616211 6.0151367-1.3237305.4780273-1.2524414 2.1660156-.4003906 2.769043-.0766602 1.9780273-.1533203 3.9560547-.2299805 5.934082-5.3334961 2.2636719-10.5551758 4.7993164-15.9375 6.9462891-14.6656036 5.8494413-24.5716591 7.9561766-24.7695274-7.4902346zm114.6591759-6.4296875c1.6479492-1.1982422 3.5751953-1.4541016 5.5268555-1.7573242.4545898.0703125.9091797.1376953 1.3637695.206543-.7475586.4628906-1.152832 1.5219727-.3457031 2.3242188 5.1166992 5.0854492 15.5205078 6.4448242 21.8178711 2.9848633.894043-.4912109.8896484-1.4428711.4404297-2.097168 31.901413 7.7132111 30.6971283 7.501358 31.184082 7.5405273.0019531.3745117.0019531.7495117.0043945 1.1245117-.1254883-.0537109-.2568359-.1025391-.3789063-.1582031-1.7436523-.7949219-3.2700195 1.7895508-1.5141602 2.590332 6.1020508 2.7822266 14.8930664 3.1645508 21.0141602.25 1.6601563-.7905273.3579102-3.1694336-1.2700195-2.6782227-.0146484-.2607422-.0288086-.5214844-.0405273-.7841797.4524078-.0973358.655014-.311264 1.2104492-.8012695.1041412.0626831 9.8947754 3.5249634 9.9990234 3.5615234-3.3061523 1.8413086-6.5932617 3.7182617-9.9130859 5.5356445-.1000061-.0239258-55.2027283-2.9551544-77.4443359-9.9619141-3.881836-1.2226561-5.2275391-5.2807616-1.6542969-7.8798827z"/><path d="m242.8670807 254.3420105c1.7988281-.2060547 2.9907227-2.4580078 4.5371094-3.230957.2246094-.1123047.3818359-.3999023.371582-.6479492-.5893555-13.8564453.0317383-27.7119141.5-41.5625.0194092-.5767975-.7116089-.974823-1.137207-.8481445-1.4091797.4204102-2.8925781.7192383-4.2412109 1.3110352-.2324219.1015625-.3740234.4077148-.371582.6474609.1479492 14.5292969.0014648 29.0566406-.4086914 43.5810547-.0107423.3720702.3535155.7954101.7499999.7499999z"/><path d="m173.3162994 191.837616c.1513672 11.7431641-.5620117 23.440918-2.1962891 35.0712891-.265625 1.8881836 2.6245117 2.7045898 2.8925781.7978516 1.6728516-11.902832 2.4589844-23.8496094 2.3037109-35.8691406-.0249022-1.9291994-3.0249022-1.9345704-2.9999999-.0000001z"/><path d="m186.2684479 212.337616c.4912109-4.5009766.9829102-9.0019531 1.4741211-13.5029297.2094727-1.9165039-2.7924805-1.9018555-3 0-.4912109 4.5009766-.9829102 9.0019531-1.4741211 13.5029297-.2089844 1.9165039 2.7924804 1.9018554 3 0z"/></g></g></svg>