<svg id="Layer_1" enable-background="new 0 0 300 300" height="512" viewBox="0 0 300 300" width="512" xmlns="http://www.w3.org/2000/svg"><g id="secure_payment"><g><path d="m58.7108498 202.8676453c-29.8768311-41.7412415-17.4171181-98.5841064 25.267086-123.690918 1.6630859-.9780273.1552734-3.5722656-1.5141602-2.590332-20.4497032 12.0283203-35.4570274 32.4013672-40.8637657 55.5239258-5.7993164 24.8037109-.2734375 51.6035156 14.5205078 72.2714844 1.1142578 1.5566405 3.7172852.0600585 2.5903321-1.5141602z"/><path d="m123.7372131 68.9223328c52.6985168 6.5650177 58.023407 92.1095123 10.5317383 129.5454102-1.5151367 1.1943359.6206055 3.3041992 2.121582 2.1210938 36.518158-28.7860413 43.0656433-85.8070145 19.6738281-116.5107422-8.3081055-10.9052734-18.8349609-16.4750977-32.3271484-18.1557617-1.9111328-.2377931-1.8935547 2.76416 0 2.9999999z"/><path d="m80.3539124 109.8251648c6.7626953-5.7514648 15.2783203-9.5458984 24.1733398-6.6630859 6.9956055 2.2666016 11.9506836 7.831543 14.1616211 14.7460938 4.5385742 14.1948242.6972656 30.4980469-9.6816406 41.1132813-5.4677734 5.5917969-13.3588867 10.6689453-21.4916992 10.2036133-7.4179688-.4243164-13.9936523-5.2548828-18.0654297-11.2436523-8.9414024-13.1499023-5.9726524-29.5292969 3.8686523-41.0961914 1.2441406-1.4624023-.8676758-3.5942383-2.121582-2.1210938-8.7939415 10.3364258-12.7182579 23.4116211-8.2988243 36.6674805 3.8500938 11.5488281 14.8793907 21.9492188 27.7343712 20.7041016 27.2695313-2.6420898 42.9428711-42.5839844 26.4404297-63.7651367-10.2763672-13.1889648-27.4067383-10.3901367-38.8408203-.6669922-1.4726563 1.2524412.658203 3.3657224 2.121582 2.1215818z"/><path d="m76.0643616 154.5370789c-1.4819336-1.2138672-3.6162109.8964844-2.121582 2.1210938 12.9833984 10.6381836 29.7099609 1.5302734 35.6958008-12.3017578 5.7094727-13.1943359 2.875-33.8076172-14.2797852-35.7202148-1.9160156-.2133789-1.9008789 2.7885742 0 3 14.9746094 1.6694336 16.2875977 20.581543 11.5073242 31.5498047-5.0810547 11.6596678-19.3857422 20.705078-30.8017578 11.3510741z"/><path d="m81.9476624 120.5961609c1.5463867-1.1245117.0507813-3.7285156-1.5141602-2.590332-9.3115234 6.7719727-14.3549805 27.2695313-.6542969 32.6508789 11.7084351 4.5985107 26.2249985-9.8105927 21.4941406-27.7294922-.4921875-1.8647461-3.3867188-1.0737305-2.8925781.7978516 2.5131836 9.5200195-3.0424805 27.8574219-16.2753906 24.5424805-12.6289063-3.1640626-7.7592773-22.1425782-.1577148-27.6713868z"/><path d="m78.6644592 76.8456726c1.9301758 0 1.9335938-3 0-3-1.9301758 0-1.9335937 3 0 3z"/><path d="m103.3744202 65.3139343c1.9301758 0 1.9335938-3 0-3-1.9301758 0-1.9335938 3 0 3z"/><path d="m130.372467 63.6664734c1.9301758 0 1.9335938-3 0-3-1.9301757 0-1.9335937 3 0 3z"/><path d="m153.0233459 76.3749695c1.9306641 0 1.9335938-3 0-3-1.9301757 0-1.9335937 3 0 3z"/><path d="m169.7254944 98.2616882c1.9306641 0 1.9335938-3 0-3-1.9301758 0-1.9335938 3 0 3z"/><path d="m175.9032288 129.0917664c1.9301758 0 1.9335938-3 0-3-1.9306641 0-1.9335938 3 0 3z"/><path d="m126.254303 215.0517273c-1.9306641 0-1.9335938 3 0 3 1.9301758 0 1.9335937-3 0-3z"/><path d="m96.2816467 223.9945984c-1.9301758 0-1.9335938 3 0 3 1.9306641 0 1.9335938-3 0-3z"/><path d="m69.5126038 219.7582703c-.8129883.0366211-1.5.6591797-1.5 1.5v.2353516c0 .784668.6899414 1.5366211 1.5 1.5 2.1385879-.0951081 1.8635635-3.3184815 0-3.2353516z"/><path d="m48.2342873 204.460907c-1.9301758 0-1.9335938 3 0 3 1.930664 0 1.9335937-3 0-3z"/><path d="m35.0658302 180.3085632v.2353516c0 .784668.6899414 1.5366211 1.5 1.5.8125-.0361328 1.5-.6591797 1.5-1.5 0-.078125 0-.1567383 0-.2353516 0-.784668-.6899414-1.5361328-1.5-1.5-.8129883.0366211-1.5.6591797-1.5 1.5z"/><path d="m34.0487404 153.0966492c2.1402588-.0951233 1.8617325-3.3183899 0-3.2353516-2.1386032.0963898-1.863945 3.3196106 0 3.2353516z"/><path d="m41.8280373 123.2079773c.8125-.0361328 1.5-.6586914 1.5-1.5 0-.078125 0-.1567383 0-.2353516 0-.7841797-.6899414-1.5361328-1.5-1.5-.8125.0366211-1.5.6591797-1.5 1.5v.2353516c0 .784668.6899414 1.5366211 1.5 1.5z"/><path d="m58.6576271 94.6435242c-.0961685-2.1336746-3.3123817-1.8691788-3.2290039 0 .096386 2.1398086 3.3119965 1.8617859 3.2290039 0z"/><path d="m74.3631897 177.1278992c-2.9448242 9.4448242-3.3149414 19.1416016-1.1772461 28.7973633.4174805 1.8842773 3.3100586 1.0869141 2.8930664-.7973633-2.0307617-9.1704102-1.6191406-18.2353516 1.1772461-27.2026367.5756836-1.847168-2.3193359-2.6376954-2.8930664-.7973633z"/><path d="m61.0526466 124.058075c-3.815918.1787109-7.2832031-.8168945-10.4511719-2.9521484-1.6049805-1.081543-3.1083984 1.5161133-1.5141602 2.590332 3.5605469 2.3999023 7.6743164 3.5625 11.965332 3.3618164 1.9218751-.0903321 1.9331056-3.0908204.0000001-3z"/><path d="m109.1039124 96.276825c2.5688477-7.3896484 7.0727539-13.6533203 13.2270508-18.4731445 1.5185547-1.1894531-.6176758-3.2988281-2.1210938-2.1210938-6.5668945 5.1425781-11.265625 11.9345703-13.9990234 19.796875-.6347657 1.8271484 2.262207 2.6123047 2.8930664.7973633z"/><path d="m146.0057678 151.301239c-7.1806641-.4824219-13.8920898-2.4960938-20.1826172-5.9838867-1.6904297-.9370117-3.2050781 1.6533203-1.5146484 2.590332 6.7490234 3.7421875 13.9990234 5.8764648 21.6972656 6.3935547 1.9272461.1293945 1.9189453-2.8710937 0-3z"/><path d="m141.3983459 228.3617859c-.4736328.8422852.8212891 1.5991211 1.2949219.7568359 60.9091034-108.3145981 37.0507965-65.8419189 74.5600586-132.7197266.4726563-.8432617-.8222656-1.6000977-1.2949219-.7573242-29.1981048 52.0601044-54.4631805 96.9754639-74.5600586 132.7202149z"/><path d="m234.0853577 213.9560242c-2.2764435 2.2064819-1.4400024 5.8409271 1.8720703 7.3046875.9238586 1.0251923 6.1408691.9059906 6.4145508.9111328 2.331543 2.2802734 4.6503906 4.5722656 6.949707 6.8842773-1.1982422.5068359-2.7792969.3911133-3.9692383-.8452148-.6708984-.6962891-1.730957.3652344-1.0610352 1.0610352 1.559082 1.6196289 4.3984375 2.0117188 6.3754883 1.1401367.4267578.434082.8623047.8598633 1.2861328 1.296875.6738281.6933594 1.7338867-.3676758 1.0610352-1.0610352-.3613281-.3720703-.7324219-.734375-1.0957031-1.1044922 1.9041901-1.9836731 1.070816-6.0043488-4.0561523-7.9345703-1.5014648-.5654297-3.0859375-.6865234-4.6738281-.737793-2.2573242-2.2070313-4.5039063-4.4243164-6.7348633-6.6572266.5795898-.2089844 1.2045898-.3032227 1.78125-.2802734.965332.0385742.9633789-1.4614258 0-1.5-.9873047-.0390625-2.0068359.1977539-2.8989258.6533203-.7070313-.7133789-1.4223633-1.4179688-2.1220703-2.1386719-.6733398-.6938477-1.7333984.3671875-1.0605469 1.0605469.637207.65625 1.2890625 1.2973633 1.9321289 1.9472657zm15.9995117 10.7421875c1.2548828 1.2675781 1.1708984 2.5546875.4526367 3.4536133-1.9345703-1.9477539-3.8828125-3.8818359-5.8442383-5.8027344 1.944336.3164062 3.9633789.9072265 5.3916016 2.3491211zm-9.1044922-3.8925782c-2.8860931-.1207733-3.4749298-.5457153-4.2524414-.8266602-2.2278137-.8081055-3.2947998-3.3217926-1.5898438-4.9614258 1.9360352 1.9414064 3.8833008 3.8706056 5.8422852 5.788086z"/><path d="m242.6688538 187.2104187c.6455078.0605469 1.2919922.1079102 1.9375.1650391-.7098389 2.1716614 1.063385 4.2289886 4.7270508 3.4384766 1.1483765.1667023 5.6031494-2.4387512 5.9077148-2.6030273 2.5766602.1870117 5.1523438.3837891 7.7270508.59375-.6459961 1.0229492-1.6386719 1.2875977-3.2348633 1.159668-.9624023-.0766602-.9570313 1.4233398 0 1.5 2.1020508.168457 4.5771484-.6162109 5.8134766-2.4399414.5942383.0522461 1.1894531.0957031 1.7836914.1518555.9604492.090332.9541016-1.4101563 0-1.5-.3774414-.0356445-.7558594-.0625-1.1333008-.0966797.2167969-1.0083008-.0390625-1.9970703-1.0317383-2.6123047-3.0708008-1.9023438-6.7802734-.1333008-10.2148438 1.722168-2.5161133-.1821289-5.03125-.3730469-7.5454102-.5756836.3813477-.2856445.7817383-.5253906 1.1235352-.6992188.8603516-.4379883.1020508-1.7329102-.7568359-1.2954102-.7861328.4003906-1.6743164 1.0405273-2.3344727 1.8271484-.9228516-.0791016-1.8461914-.1489258-2.7685547-.2358398-.9604492-.0908204-.9545898 1.4096679.0000001 1.4999999zm19.8618164-1.2739258c1.5014648-.2460938 1.8764648.2358398 1.1518555 1.4287109-1.8823242-.15625-3.7641602-.3076172-5.6474609-.4467773 2.2797545-.8886261 3.1227111-.868164 4.4956054-.9819336zm-13.034668 3.3417969c-.0688477-.0004883-.1357422-.0068359-.2119141.0141602-1.966095.5397339-3.9767609.0701141-3.1103516-1.7836914 2.1074219.1762695 4.2158203.3442383 6.324707.4985352-1.0659179.5532226-2.0766601 1.0151366-3.0024413 1.270996z"/><path d="m278.5262756 188.6808014c.0449219-.362793-.027832-.6552734-.1748047-.8798828-2.078125-7.8251953-17.9863281-7.9511719-23.8847656-7.9589844-3.9541016-.0048828-15.6381836.1542969-21.1352539 3.9135742.3442383-1.2651367.1572266-2.6772461-.7241211-4.2416992 1.203125-1.0957031 2.0288086-2.3974609 2.0634766-3.9399414.0898438-3.9853516-4.5869141-6.3808594-8.7563477-7.7792969 3.340332-1.4921875 6.2797852-3.7988281 6.7260742-7.5493164.0371094-.3139648-.0185547-.5708008-.1289063-.78125-.2143555-1.0273438-.5942383-1.8046875-1.152832-2.5996094 4.7119141-5.4086914-1.6157227-9.7333984-7.0283203-11.6279297-5.0043945-1.7509766-10.4379883-2.4775391-15.7094727-2.8115234-1.0849609-.0688477-2.6420898-.3261719-4.1411133-.4111328 8.0258789-14.2363281 16.090332-28.4511719 24.3095703-42.5771484 3.7236328 1.2729492 13.5107422 4.4248047 14.0087891-.3276367.1772461-.1826172.3237305-.4047852.4277344-.6518555.7197266-1.7124023 1.4853516-3.4204102 2.4897461-4.987793 1.3378906.7211914 2.9951172-1.1455078 1.7475586-2.3935547-2.7216797-2.7231445-8.6640625-6.7773438-10.6000977-8.0732422.0004883 0 .0014648.0004883.0014648.0004883 4.2919922-8.2978516 8.6606445-16.7114258 12.9526367-25.0087852 1.734375.1030273 3.3007813-.7822266 4.25-2.237793s1.0512695-3.4238281.2573242-4.9697266c2.159668-2.5600586 3.8481445-5.253418 5.5400391-8.1445313-.2856445-1.184082-.3916016-2.0258789-.5424805-2.7358398.6889648-.7841797.3564453-1.7714844-.3022461-2.2563477-2.940918-5.7636719-9.3676758-8.3618164-15.5317383-6.347168-.8452148.2758789-1.1269531 1.0424805-1.0087891 1.7290039-1.3720703 3.565918-3.1972656 6.8759766-5.4331055 9.9711914-2.1743164 1.1650391-3.1455078 4.0390625-1.0664063 5.8901367.0004883.0004883.0009766.0009766.0014648.0014648-5.3613281 8.4316406-10.0048828 17.235836-14.1801758 26.3144493-5.5317383-2.2397461-11.1572266-3.4541016-17.3598633-2.515625-1.4321289.2163086-1.3271484 1.9072266-.3813477 2.6088867-1.0727539 1.4145508-2.1728516 2.8056641-3.3081055 4.1738281-4.2197266 2.796875 3.7080078 8.1616211 7.1748047 10.3183594-5.8188477 10.5756836-11.6928711 21.121582-17.6010742 31.6489258-2.8701172-25.2597656-14.9863281-50.0561523-38.0473633-62.5766563-24.7792969-13.4526367-54.4257813-8.1577148-76.8183594 7.5659142-9.3579102 6.5703125-17.6523476 14.9448242-24.6015663 24.4907227-13.8564453 14.6865234-22.7534161 33.8251953-26.8525372 53.6669922-10.6323242 51.4824219 13.5639629 92.1635742 44.3999023 103.5400391 16.8652344 6.2148438 37.7617188 5.1206055 54.4082031-4.1679688-2.0541992 6.3730469-7.8364258 27.1430817-.309082 25.2944489.4921875-.1210938 1.0029297-.3125 1.5185547-.5307617 4.8041992 1.3544922 19.1591797-4.0952148 22.4326172-5.2158203 8.3095703-2.8500977 16.3198242-6.5698242 23.8496094-11.1201324 1.4003906-.8398438 2.9301758-1.9399414 3.1201172-3.5600586.2001953-1.7299805-1.3198242-3.2900391-3.0097656-3.7299805-1.6801758-.4399414-3.4599609-.0400391-5.1503906.3999023-7.8554688 2.0444336-16.5268555 5.1132813-24.5029297 9.2607422 5.625351-7.0864868 11.9568024-19.0702667 16.0639648-26.9770508.2495117.7451172.6616211 1.4267578 1.2099609 2.050293-5.1274414 8.746582 11.1586914 12.5019531 20.8105469 13.7158203 11.4316406 3.7075195 24.5805664 6.1005859 36.1606445 2.8969727 3.9794922-1.1010742 6.7314453-2.515625 8.0175781-6.0302734.8378906-2.2915039-.0576172-4.296875-1.9438477-6.0307617-1.3105469-1.2045898-3.1899414-2.4941406-5.0917969-2.9487305-.1972656-.5932617-.4946289-1.2114258-.9135742-1.8588867 2.527832-2.8842773 2.1030273-5.6738281-.4682617-8.0922852 1.3037109-.6088867 2.5361328-1.3129883 3.699707-2.1020508 3.0898895 5.5476532 9.2098541 13.8054657 13.6821289 17.8129883-1.5228424-.6616974-3.4352417-1.4519653-4.9926758-1.2368164-1.109375.1533203-2.2070313.8935547-2.456543 1.9858398-.3217773 1.4086914.7973633 2.7124023 1.8911133 3.6567383 3.4643555 2.9926758 7.6289063 5.1367188 12.0390625 6.3388672 2.0756836.5654297 8.6220703 2.4335938 10.9135742.5703125 4.3950195 1.4882813 8.1225586 1.0454102 9.3007813-3.6948242 1.2148438-.0083008 2.3813477-.3022461 3.4194336-1.0146484.1933594-.0761719.3823242-.203125.5551758-.4013672 2.6645508-3.0551758 1.4135742-7.328125.0454102-10.7075195-2.8251953-6.9790039-7.7543945-13.2109375-12.8662109-18.6494141-5.0854492-5.409668-11.0517578-10.7666016-17.8334961-13.9760742-2.9902344-1.4145508-7.6269531-3.2075195-10.5268555-.6206055-.7729492.6889648-1.2988281 1.4887695-1.6367188 2.3662109-2.0786133-1.5283203-4.3779297-2.5224609-6.9042969-3.3173828.5102539-1.4091797.3920898-2.9995117-.6699219-4.7753906.1621094-.1640625.3212891-.331543.4755859-.5048828 5.5151367-.6630859 13.4882813-2.4736328 17.8208008-5.7880859-.3857422 1.6142578-.0517578 3.1645508.9477539 4.4833984-2.4790039 4.6240234 1.4501953 7.8647461 7.9370117 9.7070313 4.9746094 4.5424805 20.5136719 6.1005859 24.7612305 5.5043945 4.9145508-.6899414 8.9946289-2.2338867 11.1225586-4.1386719 1.6625977-1.4882813 2.4135742-3.828125 1.9614258-5.9443359.9619141-1.4848633 1.0415039-3.2299805-.0546875-5.2338867.5068359-.6674805.8896484-1.4106445 1.1113281-2.2431641.1479518-.2246094.2207057-.5175782.1757838-.881836zm-66.4814453-20.5493164c-7.078125.8662109-14.4838867.7211914-21.8203125-.6357422.503418-1.1176758.4555664-.9907227 1.2626953-2.4213867 1.4702148-2.1518555 4.2939453-1.0961914 6.5791016-.9682617 9.0756836.5058594 23.2109375-.2470703 30.9741211-4.9238281.1879883.4199219.3754883.8398438.5634766 1.2597656-.909668 5.3505859-12.2226563 7.0351562-17.5590821 7.6894531zm-5.2373047-22.8027344c3.5429688.1479492 7.0839844.5102539 10.5649414 1.1918945 3.1948242.6259766 16.8950195 3.5927734 11.0527344 9.0688477-.2270508.2128906-.3540039.4462891-.4160156.6821289-9.2709961 6.0146484-23.2612305 5.7016602-34.0932617 4.4970703 2.7597656-4.8989258 5.5185547-9.7993164 8.2783203-14.6987305 1.4082031-1.1909179 2.7363281-.8198242 4.6132812-.7412109zm38.534668-111.4213829c4.4780273-1.0146484 8.6743164.8769531 10.9199219 4.9453125-2.2094727 2.5712891-4.0141602 5.3896484-5.440918 8.4506836-2.4179993-2.8578644-6.2009583-4.6748619-9.7119141-4.9448242 1.6967774-2.6635742 3.0932618-5.4863281 4.2329102-8.4511719zm-14.2250977 29.2524414c2.6289063-.609375 5.2412109-.5288086 7.871582.2509766.9277344.2749023 1.3237305-1.1723633.3989258-1.4462891-2.4296875-.7207031-4.8896484-.8881836-7.3354492-.5131836 1.2504883-2.2797852 2.5415039-4.5375977 3.8798828-6.7705078 2.3081055-.5405273 4.5932617-.4702148 6.8925781.2207031.9267578.2783203 1.3227539-1.1689453.3989258-1.4462891-2.065918-.6210938-4.1611328-.7856445-6.2475586-.4995117 2.1751404-3.5448608 2.4162445-3.8062668 2.7329102-4.3491211 2.1650391-.1357422 4.2202148.7792969 5.6357422 2.5087891.6118164.7475586 1.6674805-.3193359 1.0605469-1.0605469-1.6791992-2.0517578-4.1953125-3.0800781-6.7675781-2.934082-.3085938-.3989258-.8261719-.652832-1.3481445-.6435547.6118164-.8969727 1.4086914-1.2592773 2.3950195-1.0751953 2.682312.1295624 5.5331879 1.3068581 7.5634766 3.5361328.4638672.4926758.8525391 1.0375977 1.1655273 1.6342773.6118164.9267578.5214844 1.6201172-.253418 2.0849609.5610352-1.5976563-1.8217773-2.8969727-2.6899414-1.2734375-3.7680664 7.0444336-7.4233398 14.1479454-11.1293945 21.2246056-.0805664-.1503906-.2041016-.2836914-.3979492-.359375-2.5336914-.9887695-5.1416016-1.4174805-7.8139648-1.2998047 1.2836913-2.6220702 2.6093749-5.220703 3.9882811-7.7895469zm-4.7348632 9.3354454c2.8017578-.2270508 5.5131836.1669922 8.1616211 1.2001953.074707.0292969.1401367.0292969.2075195.0351563-1.0795898 2.0576172-2.1655273 4.1118164-3.2592773 6.1616211-1.966568-1.0498199-4.8405151-2.5180969-6.9501953-3.4931641.6035156-1.3071289 1.2167968-2.6083984 1.840332-3.9038086zm-18.6254883 2.8574219c7.1928711-.3100586 13.7197266 2.6699219 20.0625 6.019043 5.3857422 2.8432617 11.0258789 6.0146484 15.6538086 10.0786133-.6572266.7333984-1.7373047 2.9873047-2.2338867 4.1064453-6.7615967-6.9510803-27.492981-15.775032-36.0537109-16.8129883.8789062-1.112793 1.739746-2.2392578 2.571289-3.3911133zm-155.4116249 143.8095703c-33.4721661-35.2729492-27.1499005-104.0327148 15.2319374-142.5927734 19.5195313-17.7597618 47.2900391-27.9843712 73.2333984-19.4213829 29.4873047 9.7319298 44.8886719 39.4731407 46.9350586 68.9018555-1.6337891 2.9057617-3.2724609 5.8081055-4.9086914 8.7124023.6098633-29.621582-13.1943359-59.855957-41.2939453-72.597168-1.7451172-.7910156-3.2719727 1.793457-1.5141602 2.5903282 29.0864258 13.1884766 42.1035156 45.4160156 39.4956055 75.8852539-42.7246094 75.7519531-36.9702148 65.9394531-41.9047852 74.324707-19.6547852 13.7392578-45.0737305 18.6445313-67.3867188 8.2397461-1.7387695-.8110352-3.2641602 1.7744141-1.5141602 2.590332 21.4584961 10.0063477 45.7080078 6.7944336 65.4995117-5.0541992-2.1206055 3.6240234-4.2045898 7.2822266-6.109375 11.0024414-25.5913084 11.7060548-55.8823241 8.3701173-75.7636755-12.5815429zm72.0302772 45.6655426c-2.0776367 1.1889648-2.1152344 1.6459961-2.4277344-.9047852-.7915039-6.4594727 2.0668945-15.0195465 4.328125-21.0727692 3.25-8.7006836 57.9794922-103.5634766 86.8549805-156.2729492.9282227-1.6938477-1.6611328-3.2094727-2.590332-1.5141602-.3891602.7109375-.7856445 1.4179688-1.1757813 2.128418-2.0097656-1.1547852-4.3056641-2.4570313-5.5922852-4.1811523-1.3623047-1.8256836-1.3525391-.7583008-.0791016-1.2412109.8447266-.3203125 2.2382813.2172852 3.0800781.3769531 5.9526367 1.1254883 11.7802734 3.5644531 17.2294922 6.1254883 4.7075195 2.2119141 10.0517578 4.7348633 13.9067383 8.3198242.1455078.1352539 2.0649414 1.8027344 1.8935547 2.0893555-.0639648.1069336-2.4311523-.2416992-2.578125-.2607422-2.3486328-.3017578-4.6308594-.9375-6.8852539-1.6523438.2548828-.4360352.5063477-.8740234.7612305-1.3105469.9765625-1.6699219-1.6152344-3.1816406-2.590332-1.5136719-88.1570434 150.7516481-82.7381439 158.6422425-104.1352539 170.8842927zm69.5083008-67.6381988c-6.7607422.8339844-13.6582031.796875-20.4194336-.0756836 1.0732422-1.9233398 1.3945313-2.503418 4.1186523-7.3701172 1.5439453 2.1762695 7.2172852 4.1972656 8.559082 4.5107422 6.3393555 1.4794922 13.0522461 1.3120117 19.3168945-.4526367.7070313-.027832 1.4101563-.0610352 2.1044922-.1054688-3.9921874 2.3110351-9.614746 2.9916992-13.6796874 3.4931641zm16.043457-1.553711c.4707031 1.0092773.3706055 1.9267578-.1538086 2.7563477-.546875.6005859-1.4243164 1.3735352-2.4248047 2.0996094-5.1606445 2.9702148-15.5766602 4.3120117-17.3081055 4.4550781-6.7753906.559082-13.6245117.2099609-20.2788086-1.1704102.7172852-1.2910156 1.4335938-2.5830078 2.1523438-3.8730469 8.2514648 1.1567383 16.6640625 1.1972656 24.9018555-.1083984 4.3486328-.6894531 9.3085938-1.6625977 13.1113281-4.1591797zm-44.8745117 22.074707c-1.3305664.4555664-2.7358398 1.152832-4.0151367 1.9916992.8266602-1.5727539 1.6640625-3.1352539 2.5083008-4.6904297.2739258 1.0122071.8076172 1.9028321 1.5068359 2.6987305zm-4.6342773 14.0620118c7.0136719 4.2700195 28.7158203 7.046875 44.8237305 2.7050781 2.3662109-.6376953 5.1918945-1.5004883 7.4750977-2.9384766 5.4409179 12.5209961-56.5429688 11.8583985-52.2988282.2333985zm41.2006836.477539c-9.8804321 2.0512238-23.817276 1.9134827-33.449707-.8823242-1.6435547-.4770508-4.4125977-1.0605469-5.6992188-2.28125-1.4008789-1.3295898-2.2358398-4.328125-1-5.8066406.7983398-.9545898 3.5263672-1.9628906 4.3666992-2.2348633 1.2338867-.3994141 2.4741211-.4003906 3.7172852-.1884766 2.9697266 1.3803711 6.4101563 2.2099609 9.6118164 2.8271484 2.6225586 1.9731445 6.7329102 3.3017578 9.2900391 4.046875 8.0737305 2.347168 23.3232422 1.862793 24.4750977-3.6787109.3701172.3959961.6577148.9594727.8447266 1.7207031-1.2519533 4.3544923-8.4936525 5.7163087-12.1567384 6.4775391zm9.1762695-12.5200195c-1.5146484-.0087891-2.9736328.6782227-4.7211914.8813477-10.3676758 1.2060547-41.0566406 1.9677734-38.7631836-8.0844727 6.043457 3.7392578 14.1855469 4.487793 20.9697266 4.8476563 9.0605469.4804688 18.9169922-.0634766 27.4663086-3.4912109.3291016.9208984.7255859 1.8666992 1.1806641 2.828125-1.8647462 1.2651366-3.9291993 2.2612304-6.1323243 3.0185546zm12.4638672-17.6323242c4.1213074-5.2311249 25.388916 11.3494568 34.4936523 27.3129883 1.4594727 2.5595703 5.2583008 8.8466797 2.8374023 11.793457-.8374023.5395508-1.8173828.6933594-2.8540039.5859375-.175293-.0561523-.3544922-.0830078-.5297852-.0805664-2.3793945-.4233398-4.9370117-1.9804688-6.5571289-2.9370117-8.6793671-5.1240997-18.9463196-15.6407776-24.4160156-25.2177734-1.3881835-2.4306641-5.1821288-8.6538087-2.974121-11.4570313zm-3.6831055 4.3125c1.4145508 7.7451172 10.3027344 17.8012695 13.296875 21.1259766 5.1269531 5.6943359 11.1386719 11.2392578 17.9975586 14.8056641 1.3657227.7099609 3.019043 1.503418 4.7255859 1.9980469-3.081543 6.5742188-19.0322266-6.8916016-21.581543-9.3056641-4.0786133-3.862793-7.7949219-8.1582031-10.8579102-12.8720703-2.6049803-4.010254-7.9199217-13.7490235-3.5805663-15.7519532zm-4.7241211-4.0126953c.9921875.4350586 1.9443359.9345703 2.8432617 1.5546875-2.6713867 1.3266602-3.3266602 3.8916016-2.75 7.0371094-7.6962891 3.2270508-16.6220703 3.7226563-24.8383789 3.4624023-6.5419922-.2075195-15.1225586-.6899414-21.1152344-4.3911133 1.2949219-.9272461 3.6108398-2.4526367 5.1972656-2.4677734 5.0532227.703125 10.2578125.9086914 15.3686523.5209961 7.1313477 1.5786133 16.5766602 1.6860352 22.6484375-1.7734375 1.5673829-.8549805 2.8808595-2.1748047 2.6459962-3.9428711zm-34.9023437-16.8867188c.4829102-.8662109.496582-.8867188 1.6132813-2.8735352 17.0043945 6.59375 39.0200195 3.9648438 48.5629883-1.3798828 3.2626952 8.6816407-35.4584962 13.9794922-50.1762696 4.253418zm47.7915039-6.4580078c-4.3793945 2.425293-9.9370117 3.2709961-14.8369141 3.7875977-9.8222656 1.0341797-20.5756836.7490234-29.8769531-2.8066406 1.3032227-2.2885742.4174805-.0849609 4.9819336-8.7949219.190918-.3378906.3823242-.6757813.5732422-1.0136719 1.6352539.3261719 3.2866211.5932617 4.9492188.8129883 7.996582 3.4677734 17.6772461 5.2836914 25.0668945 5.6479492 2.0820313.1025391 4.6547852-.4643555 6.5336914-1.3681641 1.3427734-.6464844 2.4570313-1.9165039 2.796875-3.3227539.234375.1279297.46875.2563477.6987305.3964844 3.6162109 2.2055664 2.2216796 4.9399414-.8867188 6.6611328zm6.3510742 15.0273438c7.8261261 4.4829865 32.5369873 4.8381653 40.5874023-.0458984.265625 7.9077148-41.0659179 8.1479491-40.5874023.0458984zm40.6357422-3.8710938c-.3706055.1347656-.6899414.3862305-.8671875.706543-1.9018555 1.2470703-4.9316406 1.8676758-6.4697266 2.2412109-12.5243835 3.0450287-27.9552917.516861-32.3935547-2.3149414-.1811523-.3115234-.4995117-.5556641-.8676758-.6855469-5.2106323-5.1934052 18.0111542-9.642395 33.2612305-5.9521484 2.1943359.53125 7.7817383 1.6347656 8.1352539 4.4765625-.0722656.5800781-.3671875 1.0839844-.7983398 1.5283203z"/></g></g></svg>