<svg id="Layer_1" enable-background="new 0 0 300 300" height="512" viewBox="0 0 300 300" width="512" xmlns="http://www.w3.org/2000/svg"><g id="Servises"><g><path d="m29.1833382 204.1229248c.4086914 15.9863281.0249023 31.9824219.6088867 47.9648438.0341396.9321289.8906345 1.4855194 1.4760742 1.5654297 31.3113403 4.301178 20.8690567 3.8774719 52.6206093 8.7421875 6.5820313-5.0976563 12.8261719-10.3994141 19.3867188-15.5097656.050293-.0244141.1010742-.046875.1513672-.0712891.879776-.4215088.7378387-1.4303589.7353516-2.1972656.8774414-1.359375 1.7871094-2.8505859 2.5078125-3.5576172-.1435547-12.2246094-.277832-24.4482422-.4116211-36.6728516 1.6958008-.7900391 3.3920898-1.5800781 5.0888672-2.3691406.3452911 46.9224854.2724075 43.8907166.4189453 44.2880859-2.9599915 1.911972-5.6186142 4.2503052-7.1547852 5.5214844 80.7021866.7087708-11.2305069.0652618 97.244133.8154297.63797-1.595108 1.1676788-3.2915039 2.800293-5.6035156.0078125.8701172.0019531 1.7402344.0141602 2.6103516.0068359.5175781.277832 1.0419922.7426758 1.2949219 3.6938477 2.0097656 7.4692383 3.8369141 11.3364258 5.4902344 2.2421875.9580078 5.1015625 2.7148438 7.5810547 2.7148438 1.2182617 0 1.7602539-1.2539063 1.2949219-2.2568359-6.8842773-14.8388672-11.9794922-30.0263672-17.1313477-45.4824219.8344727-.1035156 1.6713867-.1972656 2.5112305-.28125.362793.1113281.7548828.0615234 1.0986328-.1054688 3.1657867-.2878876 24.7855682-1.68573 28.9345703-1.3662109 5.8085938 14.3964844 10.6264648 29.1748047 16.6284332 43.4921875-7.8872223.6318359-15.7778473 1.2197266-23.6665192 1.8300781-1.9125977.1474609-1.9287109 3.1494141 0 3 .5610352-.0439453 1.1220703-.0859375 1.6835938-.1289063 9.5737305.78125 22.4980621 2.5556641 31.8872223 3.2822266 4.2111511.802124 4.8959961 1.8321533.6289063-5.8037109-14.5686646-26.061264-14.3045807-32.4412079-16.4199371-34.5400391 1.0800781-.8398438 2.0698242-1.7392578 2.6000977-2.3896484 3.7002106-4.5996094 6.3300934-9.6904297 6.9199371-15.5595703 1.4473267-15.5394897-5.0387573-29.8116455-20.242691-33.8447266-15.4208984-4.0908203-28.690918 5.4580078-33.0678711 18.3769531-.8735352.0166016-1.7470703.0322266-2.6210938.0439453-.2792969-18.1396484.0087891-36.2851563-.1982422-54.4267578-.0426025-3.8347626-8.6270599-4.8837433-12.4672852-5.2773361 4.1103516-4.3203125 6.5927734-10.2910156 6.8071289-16.7919922.1670837-5.3466949-2.3271027-12.5183182-7.3710938-17.5390625 5.9262695-.1220703 11.8530273-.2216797 17.78125-.2314453 1.2978516-.0019531 1.980957-1.640625 1.0605469-2.5605469-9.0810547-9.0810547-17.015625-19.3789063-25.25-29.2099609-.1911163-.2285461-.8082428-.6472893-1.4404297-.5693359-3.1142578.3828125-6.234375.7060547-9.3549805 1.0244141-.8640594-2.1760712-3.5431213-2.875061-5.8842773-2.9345703.9462891-4.2150154-2.242157-8.3591614-6.5488281-8.4589844.3005524-4.2924194-4.1656952-8.3403168-10.769043-6.4746094.9887695-2.4423828.7973633-4.8349609-2.6445313-5.8720703-10.9633026-3.3064613-38.8211517 10.3491783-47.7963791 35.0488281-2.3671875-2.6513672-8.4223633-6.9199219-10.612793-2.671875-1.1069336 2.1474609.1586914 5.1835938 1.1381836 7.1298828 3.2169571 6.3917999 14.2506638 19.6923752 19.5249023 24.2324219-7.4291992 6.3916016-15.4423828 12.0673828-22.8662109 18.4648438-1.2260742 1.0566406.065918 2.7021484 1.3735352 2.4775391 3.2401505 1.8330307 4.3892517 2.1109467 4.8759766 2.3173828.2753601-.2375031.3863373-.3232803 3.2763672-2.8320313 6.0966797-5.2929688 15.0712891-13.0810547 21.5107422-16.8291016 2.6276245-.4707947 4.7331009-1.4583969 4.1865234-4.1162109 8.2974319 2.5297318 22.554451 3.1366882 30.0014572-1.2099609-1.75 3.5751953-2.6459961 7.5546875-2.5170898 11.5654297.1950989 6.0743713 2.6377716 12.1278229 7.2680664 16.6923752-3.3983917.5618591-11.1422577 2.0086365-11.1020508 5.4462891.0708008 6.0253906.1196289 12.0537109.1679688 18.0810547-7.328125-8.3632813-13.5410156-17.9550781-20.0927658-26.8779221-.500473-.681778-1.5121689-.8788986-2.0239258-.8095703-13.1485672 1.7808609-13.6088715 1.1123734-15.3295898 1.9199219-1.1811523.5537109-1.9526367 1.9560471-2.7333984 2.9755783-5.4282227 7.0908203-10.5952148 14.4228516-15.8364258 21.6582031-1.4331055-.0996094-2.8764648-.4248047-4.3022461-.3671875-3.3769913.1352692-5.1360092 1.6819916-22.7680664 8.4033203-.8135338.3097992-1.2980728 1.1841583-.8183632 2.4501953.2617188 10.1445313.1586914 20.2919922.3076172 30.4375-2.4335938-.3212891-5.1733398-.8476563-7.4101563-.5048828-2.4614258.3789063-5.0493164 1.8496094-7.3652344 2.7705078-6.4047852 2.546875-12.7700195 5.1894531-19.2138672 7.6367188-1.0857469.4124142-1.240719 1.6641842-.748047 2.5400387zm71.4047889-.6884766c-1.465332-.1855469-3.5263672-.8320313-4.0981445-.9072266-9.9349365-1.3047333-19.1584702-2.359726-29.4135742-3.7529297-.3642578-12.1542969-.1572266-24.3144531-.4404297-36.4697266 10.015625 1.0898438 20.0791016 1.6025391 30.1025391 2.6103516 3.1391602.3154297 3.5566406.2304688 3.5751953 3.4052734.0403213 6.6499482.2733841 35.0062257.274414 35.1142579zm-13.5786132.9824219c4.5092773.7509766 9.1743164 1.7011719 13.5986328 1.7783203.3589859 29.6286011.7977295 36.4963379.9893417 37.9260406.0611877.4565125.2715683.1157074-.1609116.478363-2.4447556 2.0500488-21.8675613 8.2088318-23.5320435 8.817276-.0626907-12.6350708-.3704376-26.298233-.4614258-38.9980469-.0170898-2.3955078.3637695-4.4257813.0424805-5.9169922 9.7040101-3.8988951 8.622284-3.8241118 9.5239259-4.0849608zm-12.5532227 11.6992188c.3996353 46.3092651.9694061 34.0413666.7709961 38.3164063-.3432617.1328125-.6918945.2587891-1.0332031.3935547-13.3496132-3.3769531-27.342289-4.4804688-41.4389687-3.9863281-.5087891-15.2109375-.1933594-30.4326172-.5488281-45.6455078 10.9848633 1.21875 22.0170898 1.8535156 33.0244179 2.8349609 11.2094192.9993896 9.1499557-.9098512 9.2255859 8.086914zm29.234375-13.8720703c.0066681-.1008911-.1476746-37.34758-.1694336-37.4511719 23.1469803-9.3444977 14.6489105-6.7452698 18.0712891-7.7050781.0253906 12.0439453-.0205078 24.1523438.3896484 36.1884766-3.657814 2.502304-18.1884766 8.9308776-18.2915039 8.9677734zm98.4990158-65.8535157c.1396484 17-.0830078 34.0029297.1782227 51.0009766-25.6594086 6.2747955-34.9350586 3.6146088-51.2421875-.2314453-.0498047-.0146484-.0976563-.0302734-.1513672-.0410156-.3764648-16.7109375-.4174805-33.4394531-.59375-50.1552734 7.4338836 3.562622 42.1476898 3.6697539 51.809082-.5732423zm-54.6337891 20.09375c.0844727 10.203125.1884766 20.4072266.4179688 30.6044922-18.2409668-.008255-16.0597229-.180542-22.9951096 4.2197266-.0556641-11.4667969-.3544922-22.9316406-.3847656-34.3984375 7.6528244-.1904297 15.3061447-.3964844 22.9619064-.4257813zm47.9570313 44.6611328c.1098633 14.5517578.2998047 29.1064453.3125 43.6582031-27.0566406-.0166016-54.1103516-.4619141-81.1664963-.4882813-.1069336-14.5009766-.2138672-29.0029297-.3203125-43.5039063 27.0580979.0214845 54.115715.3164064 81.1743088.3339845zm15.2387695 49.2226563c-2.6459961-1.3300781-3.1118164-2.0400391-3.1264648-4.9951172-.0087891-1.7910156-.0058594-3.5820313.0048828-5.3740234.0419922-7.0927734.1103516-14.1845703.1552734-21.2763672 4.1826172 12.4169922 8.5239258 24.6533203 13.8974609 36.6650391-5.9376373-2.676117-7.0582275-3.0723572-10.9311523-5.0195313zm29.5083008-78.4804688c7.5087891 1.9873047 12.7070313 6.9072266 15.5004883 12.9179688 1.6059723 4.578125 1.8359528 9.6494141.5298004 14.3242188-1.6108551 5.7792969-5.5576324 10.8554688-10.6884918 13.9414063-.6796875-1.7480469-1.3676758-3.4931641-2.0751953-5.2304688-.2783203-.6835938-.7167969-1.0224609-1.4462891-1.1015625-5.4596558-.5930328-29.6604767 1.2980347-29.7607422 1.3066406-9.7475586-18.6308594 6.7788086-41.7578125 27.9404297-36.1582032zm-33.2758789 19.2792969c-1.7041016 1.1152344-3.4868164 2.1103516-5.190918 3.2275391-1.6083984 1.0537109-.1074219 3.6523438 1.5136719 2.5898438 1.0507813-.6884766 2.1279297-1.3349609 3.2026367-1.9863281-.2431641 4.421875.5424805 8.9863281 2.6040039 13.3662109-.7861328.0869141-1.5717773.1767578-2.3530273.28125-.929306-.1669464-1.9301758.4659729-1.9301758 1.5039063 0 9.7041016-.1845703 19.4130859-.2094727 29.1191406-1.9140625 1.3769531-3.8500977 2.7246094-5.7998047 4.0517578-.0249023-14.5566406-.2167969-29.1152344-.3208008-43.6708984-.0058594-.8105469-.6826172-1.5-1.5-1.5-23.9731445-.0068359-47.9453125-.2314453-71.9179611-.3076172 3.0454025-.7978516 6.0771408-2.5068359 8.7978439-3.5419922-2.9247437-.1945953-6.4882584-.4532013-7.16259-.4902344 5.9354477-3.7271118 4.2406387-3.6200562 16.8251877-3.7021484 5.1898346 9.434906 49.9971771 8.3092804 59.0131836.6123047.1777344-.0878906.3452148-.1904297.5180664-.2861328 1.3530273-.0048828 2.706543-.0224609 4.0595703-.046875-.0571288.2578124-.099121.5205077-.149414.7802733zm-.5859375-100.9951095c-50.159317.3577805-42.4320374.2083206-43.1694336.3173828 6.6811523-9.0126953 13.1611328-18.0302734 21.3286133-25.8476563 7.144043 8.5810547 14.1147461 17.4501953 21.8408203 25.5302735zm-31.3442383-25.3496094c1.8735352-.1914063 3.7456055-.3925781 5.6171875-.5996094-8.1259766 8.1757813-14.6113281 17.5039063-21.4941406 26.7197266-4.3461914.0703125-8.6870117-.2255859-13.0317383-.2646484 1.190918-6.703125 6.0131836-9.9628906 11.9775391-12.7519531 5.8866119-2.7517549 15.4756927-6.9496919 16.9311523-13.1035157zm-79.1362228 13.7919922c-5.0289459-8.009201.7014923-6.7253494 3.2211914-3.4335938.3452148.4511719.8188477.6308594 1.2832031.6259766-.3222656 1.09375-.612793 2.1953125-.8452148 3.3046875-.3945313 1.8837891 2.496582 2.6894531 2.8925781.7978516 6.5948715-31.4900017 49.9194717-48.0579758 44.7270432-33.9970703-1.6494141.9052734-3.2207031 1.9335938-4.6738281 2.8447266-1.6318359 1.0244141-.1279297 3.6210938 1.5141602 2.5908203 2.0410156-1.2802734 4.105957-2.5878906 6.3041992-3.5898438 2.9414063-1.3398438 10.7851563-2.2275391 9.0175781 3.2929688-2.074646.7951508-5.5521851 2.9317169-10.9897461 5.7421875-1.7158203.8867188-.2001953 3.4765625 1.5141602 2.5908203 9.550354-4.9355621 10.2675476-5.9643173 12.1972656-5.9755859 5.1802216-.032093 3.9337921 5.6235809 3.9633789 5.7685547-3.6557617.7177734-7.2431641 2.7119141-10.0668945 4.5888672-1.6005859 1.0634766-.1000977 3.6630859 1.5141602 2.5898438 2.6767578-1.7783203 5.3974609-3.2480469 8.5561523-3.9980469 1.0800781-.2558594 3.6933594-.9345703 4.8129883-.1855469 2.4399414 1.6328125.5258789 3.8964844-.9169922 5.1972656-3.8325195 3.4541016-9.331543 6.0849609-13.9819336 8.2607422-6.6928711 3.1318359-11.2329102 7.1025391-12.6723633 14.1982422-.5366211.5839844-1.1616211 1.1962891-1.3149414 1.9628906-.1855469.9248047.4135742 1.921875 1.4462891 1.8984375 4.2216797-.0966797 8.4384766.1787109 12.6582031.2480469-7.3754883 11.0353012-29.41185 4.1750107-41.6352463-1.0048828-1.7573242-.7451172-3.2880859 1.8388672-1.5141602 2.5898438.9702148.4111328 1.9453125.7919922 2.9228516 1.1572266.0058594.0048828.0087891.0107422.0146484.015625.5996094.5683594 4.8369141 4.8798828 2.2954102 5.6875-1.0625.3378906-4.7973633-2.7548828-5.1582031-3.0732422-3.7864534-3.3456194-12.385811-13.2160876-17.0859376-20.6953127zm58.2670822 31.5419922c.3538666-7.9825516 5.0335999-14.4132004 8.4360352-15.8251953 4.6700287 2.0162506 12.9114227 2.5974579 32.4624023 8.8564453.8896484 2.5449219 1.34375 5.2470703 1.4267578 7.7324219-.3691406 11.1845703-8.3408203 20.6142502-19.8574219 20.6718674-6.8916016.0341797-13.0473633-1.5263672-17.5683594-7.0058517-3.3164062-4.0185548-5.1313476-9.201172-4.899414-14.4296876zm7.3916016 20.7617111c2.5175781 1.6748047 5.2304688 2.6503906 8.1796875 3.1669922 10.1977997 4.6314392 23.3280945 1.0075684 25.2685547-2.1191406.1674805-.2695313.2548828-.5498047.2539063-.8359375 5.9017029.9643555 8.1268921 1.6718445 3.9355469 2.9941406-10.0253754 3.1623383-32.6232147 3.2585297-43.3173828 1.1201172-.5146484-.1035156-5.3891602-.9248047-5.4501953-1.8330078-.0527345-.7822266 9.2216795-2.2119141 11.1298827-2.4931641zm-16.6289063 22.586914c-13.1404419.1148682-24.8117676.6378479-37.8950119.7099609 1.9757996-2.9810333 4.862587-9.1936035 18.9916992-26.0166016 6.1274338 8.4638673 12.044426 17.3955079 18.9033127 25.3066407zm-34.606926-23.3925781c1.6572266-1.6025391.2382813-1.1386719 3.9589844-1.5498047 2.7983398-.3085938 5.5932617-.6533127 8.3862305-1.0117111-6.9412766 8.3338699-13.8630447 17.3076859-19.128418 26.7246017-3.6025391.0585938-7.199707-.2070313-10.800293-.2617188.7701111-.8939971 17.5829773-23.9008635 17.5834961-23.9013671zm-22.2026367 23.2666016c-2.7856445 1.9785156-6.2763672 5.0703125-6.3076172 5.0703125 8.4472656.9189453 20.9580078 1.7490234 28.6230469.2871094-2.9067383 1.2041016-5.8154297 2.4033203-8.7353516 3.5761719-2.5480194-.9560699 2.3900146.66362-31.4121094-2.6230469 14.563057-5.7884827 15.1717377-6.4430848 17.8320313-6.3105469zm-32.104496 41.0859375c2.1318359-.4609375 4.6928711-.1484375 7.0795898.1367188-.3031654.3052216-7.5474358 6.1890717-8.7827148 7.0478516 1.6338081.2562103 23.4281654 2.4756012 26.2387733 2.3837891-5.4249191 2.2185669-5.0232315 2.013092-5.2666016 2.1699219-2.8753586-.9356995-26.714241-2.3471832-39.6416054-3.640625 4.1875-1.6494141 8.3549805-3.3486328 12.5332031-5.0234375 2.5214845-1.0107424 5.1899416-2.5019533 7.8393556-3.0742189z"/><path d="m51.2277718 112.5389481c11.171875-10.9492188 23.7353554-20.6533203 36.0000038-30.3330078 1.5146484-1.1953125-.6210938-3.3056641-2.1210938-2.1220703-12.2646484 9.680664-24.8281288 19.3847656-36.0000038 30.3339843-1.3813476 1.3535156.7402344 3.4736328 2.1210938 2.1210938z"/></g></g></svg>