<svg id="Layer_1" enable-background="new 0 0 300 300" height="512" viewBox="0 0 300 300" width="512" xmlns="http://www.w3.org/2000/svg"><g id="Setting"><g><path d="m60.7585831 247.3502502c-1.2900391.7783203-2.9248047 1.3432617-3.6416016 2.7724609-.8999634 1.7999268-.3449593 4.3121796-.2255859 6.2446289.3173828 5.1269531.8613281 10.2397461 1.6303711 15.3183594 1.2988281-.003418 2.597168-.0068359 3.8955078-.0102539.8525391.2133789 1.9208984-.2470703 1.9545898-1.3920898.1567383-5.300293-.0947266-10.5532227-.7133789-15.7958984 14.6933594 6.2612305 29.9692383 10.7807617 45.7373047 13.4243164-.0732651.2674561-.0439682.0826111-.3339844 3.8149414-.0634766.8085938.734375 1.5 1.5 1.5.8637695 0 1.4365234-.6889648 1.5-1.5.3029709-3.8991089.2811432-3.4576111.2607422-3.6694336 13.9980469-8.3745117 28.4614334-15.8901367 43.353035-22.5415039.1469727.984375.2749023 1.9711914.3818359 2.9604492-1.5571289.8447266-3.1123047 1.6928711-4.6679688 2.5390625-.8017273.4356079-.6845703 1.2481537-.8110352 1.7119141-.3046875 1.1054688-.8085938 2.3920898-.3183594 3.5004883.8663483 1.9562378 4.4303131 3.4075012 6.4165039 4.1899414.0151367 3.5576172-.0942383 7.1137695-.3842773 10.6645508-.1572266 1.9243164 2.84375 1.9140625 3 0 .262207-3.2143555.3754883-6.4326172.3857422-9.652832 6.8203735 1.8598633 12.6812134.1200562 18.4604492-4.1020508 4.2861328-3.1308594 5.940918-8.1508789 9.75-11.875 4.9545898-4.84375 13.1533203-6.6601563 19.7626953-8.3632813 6.609375-1.7026367 13.4223633-2.2143555 20.1933594-2.7192383 11.8309937-.881897 4.0103149-1.2913818 24.6972656.3901367 3.4116211.2773438 6.8637543.5532227 10.2602386-.0205078 5.5066223-.9293823 10.3536682-4.2677155 11.0957031-9.7124023 4.4637756-9.9621582-6.4227905-22.174469-17.0341797-19.0825195-3.9975433 1.1645508-7.2055511 4.0654297-10.9438324 5.7880859-5.4217224 2.4985352-6.4064484 2.3800812-53.4125977 10.7270508-7.3955078 1.3134766-13.8623047 2.3720703-20.6757813-1.5024414-4.0161133-2.2832031-7.597168-4.4936523-12.3925781-4.2456055-9.7836914.5058594-16.3007813 8.4858398-19.8110352 16.9287109-.2402344.5776367-.09375 1.046875.2338867 1.3608398.2314453 1.0009766 1.8217773 2.0483398 2.6020508 2.4799805 3.4883881 1.9295502 7.5124207-.4139099 10.6162109-1.4506836 2.5439453-.8496094 7.3535156-2.1923828 9.6611328-.1914063 1.7861328 1.5488281 3.0942383 4.3105469 2.7163086 6.7294922-1.6077728 1.8531647-3.6444092 2.7769012-6.5751953 4.371582-.1181641-.9526367-.253418-1.902832-.4067383-2.8510742.6499023-.8398438-.1538086-2.2275391-1.3076172-2.3066406-.6163635-.4689178-27.5553131-7.1765747-45.1626053-11.8544922-1.8681641-.4960938-2.6650391 2.3969727-.7978516 2.8930664 13.8051758 3.6674805 27.6630936 7.1303711 41.4755936 10.7680664-14.2431641 6.4291992-28.0918045 13.6538086-41.5146561 21.6650391-1.2379227-.5939941-21.1409988-2.5480652-47.3696289-13.9384766 14.1079102-5.9047852 28.0327148-12.2041016 41.4331055-19.5966797 1.6494141-.9101563.2509766-3.3886719-1.3896484-2.644043-4.1381531.3254089-13.897644 4.6363068-18.4052734 6.328125-8.4090726 3.1569825-16.7076413 7.1373903-24.6782223 11.9472657zm107.9946365-13.7885742c-5.5200195-10.3994141-15.7905273-5.8344727-24.6479492-2.3686523 4.5058594-8.0151367 12.9140625-14.6108398 22.3066406-9.9243164 5.7871552 2.8885498 8.2195587 6.868866 21.034668 5.0727539 8.9038086-1.2490234 17.7558594-3.1118164 26.6064453-4.6914063 15.4786377-2.7623444 27.3233337-3.6881561 36.1411133-8.7958984 4.7124023-2.7294922 9.2333832-6.1259766 14.8535004-3.237793 4.8414307 2.4884491 8.5517273 8.8361206 6.3330078 14.15625-7.8842773 11.9924316-20.8343506 3.5258331-45.7802582 6.5322266-7.7388.5104218-18.4031677 1.6474609-25.9013672 3.6821289-19.2407837 5.2210693-21.5009918 14.1829834-28.3203125 18.4824219-.1329956.0187988-7.4815521 2.6945496-15.7363281-.262207 8.0283203-3.9355469 18.5717773-8.3579102 13.1108398-18.6455079z"/><path d="m104.1975479 67.7589417c-1.8898087-1.1279602-4.2028809-.142334-4.5961914 1.0908203-1.0020599 1.1403885-.498291 3.7199326 1.4394531 4.6606445 1.5805664.7670898 3.4208984.0566406 4.2392578-1.4643555.800293-1.4863281.4038086-3.4008789-1.0825195-4.2871093zm-1.7539062 3.0849609c.0024414-.0004883.0014648.0004883.0043945-.0004883-.0126953.0112305-.012207.0097656-.0043945.0004883zm.0371093-.0302734c-.0019531-.0014648-.0073242-.0009766-.0107422-.0019531.0371094-.0429688.0087891-.0322266-.027832-.0058594-.0429688-.0024414-.0893555.0092773-.0400391.0385742-.0004883 0-.0009766.0004883-.0009766.0004883-.2807617-.152832-.3168945-.3222656-.269043-.5229492.0146484-.0175781.0239258-.0302734.0283203-.0380859.0180664-.0053711.0463867-.0166016.1025391-.0449219-.121582.0610352-.0322266.0424805.0273438.0234375.0419922.0014648.1040039-.0029297.0966797-.0136719.1142578.0327148.3144531.0898438.1621094.0244141.1899414.081543.0922852.0004883.1425781.0751953.0009766.0043945.0009766.003418.0019531.0083008.0087891.0322266.0136719.0419922.0170898.0449219-.0029297.0083008-.0063477.0307617-.0087891.1113281.0068359-.2324219-.1035156.1806641-.012207.0195313-.078514.1379851-.0172652.1001738-.2089843.2812499z"/><path d="m125.9617081 57.1651878c.800293-1.4868164.4033203-3.4008789-1.0825195-4.2875977-1.875267-1.1185913-4.1972504-.1569901-4.5961914 1.0908203-1.0024261 1.1403465-.4989395 3.7205811 1.4394531 4.6606445 1.5800781.76709 3.4204101.0566407 4.2392578-1.4638671zm-2.8369141-1.2021484c.0024414-.0009766.0019531.0004883.0048828-.0004883-.0126953.0112305-.012207.0097656-.0048828.0004883zm-.1533203-.581543c.0419922.0014648.1040039-.003418.0966797-.0141602.1142578.0332031.3149414.090332.1625977.0249023.1894531.081543.0917969.0004883.1420898.0751953.0014648.0043945.0009766.0029297.0024414.0078125.0083008.0322266.0136719.0424805.0166016.0454102-.0029297.0083008-.0063477.0302734-.0087891.1113281.0068359-.2324219-.1035156.1806641-.0117188.019043-.0828857.14608-.0183334.0995636-.2089844.2817383-.0024414-.0014648-.0078125-.0014648-.0107422-.0024414.0366211-.0424805.0083008-.0317383-.0283203-.0058594-.0429688-.0019531-.0888672.0092773-.0400391.0385742 0 .0004883-.0004883.0009766-.0009766.0009766-.2807617-.152832-.3164063-.3227539-.2685547-.5234375.0146484-.0175781.0234375-.0297852.027832-.0375977.0180664-.0058594.0463867-.0170898.1025391-.0449219-.1215819.0610353-.0317381.0424806.0273439.0234376z"/><path d="m157.0300751 43.2857933c.800293-1.4868164.4033203-3.4008789-1.0825195-4.2875977-1.8752747-1.1185913-4.1967926-.1584625-4.5961914 1.0908203-.9967804 1.1339111-.5036011 3.7176781 1.4394531 4.6606445 1.5805664.7670899 3.4204101.0566407 4.2392578-1.4638671zm-2.8369141-1.2021484c.0029297-.0009766.0019531 0 .0048828-.0009766-.0126953.0112305-.012207.0097656-.0048828.0009766zm-.1533203-.5820313c.0419922.0014648.1040039-.0029297.097168-.0136719.1137695.0332031.3144531.090332.1621094.0244141.1894531.0820313.0917969.0004883.1425781.0756836.0009766.0039063.0004883.0029297.0019531.0078125.0087891.0322266.0136719.0424805.0166016.0454102-.0029297.0078125-.0063477.0302734-.0087891.1113281.0068359-.2324219-.1035156.1801758-.0117188.019043-.0986328.1738281-.0170898.0717773-.0922852.1640625-.015625.0195313-.0727539.0756836-.1166992.1171875-.0019531-.0009766-.0073242-.0009766-.0107422-.0019531.0371094-.0424805.0087891-.0322266-.027832-.0058594-.043457-.0024414-.0893555.0092773-.0405273.0385742 0 .0004883-.0004883.0004883-.0004883.0009766-.2807617-.152832-.3168945-.3227539-.269043-.5234375.0146484-.0175781.0234375-.0297852.027832-.0380859.0185547-.0053711.046875-.0166016.1030273-.0449219-.1215819.0610351-.0322264.0424804.0268556.0234374z"/><path d="m25.8699112 80.0831604c7.6615028 3.1400223 16.7570572-3.9461594 16.6245117-15.46875 4.3369141 1.7602539 8.1870117 4.9711914 10.6967773 8.8007813 5.2993164 8.0869141 5.3911133 18.2685547 3.4848633 27.4277344-3.8542976.4354095-7.3894539 2.9378433-9.1416016 6.8344727-1.6977539 3.7768555-1.6201172 8.1289063-.8598633 12.1992188.0942383.5039063.269043 1.0620117.5512695 1.4882813-2.4394531 2.4213867-4.6391602 5.0571289-6.5112305 7.8608398-2.3540039 3.5244141-6.0483398 8.612793-5.137207 13.1523438.5634766 2.8061523 2.5224609 3.5058594 4.6831055 3.2304688-2.2676926 4.972168.1099052 9.1315308 3.815918 9.7436523-.3994141 3.5883789 2.4179688 6.7714844 6.0126953 6.7329102-.4319458 4.000824 1.4696617 6.4296112 5.5629883 5.9892578.2954102-.0317383.5800781-.0869141.8574219-.1582031 3.0966797 16.331543 12.1503906 30.7661133 20.9755859 44.4912109 2.1894531 3.4047852 5.2958984 8.3110352 10.1845703 6.862793 3.6577148-1.0834961 5.4194336-5.1894531 2.652832-7.9785156-.1806641-.1821289-.375-.2993164-.5727539-.3681641-9.6294327-13.0087891-14.3814163-19.955719-18.6196289-31.6762695-.3793945-1.53125-.7363281-3.2246094-1.1245117-5.222168-.2177734-1.121582-.3803711-2.3295898.9145508-2.7929688 2.1964798-.7852936 3.878212.2315826 5.5327148-3.1977539.4975586-.355957.7714844-1.097168.5888672-1.6459961-1.0053711-3.0273438-1.7456055-6.0717773-2.2353516-9.1591797 6.6079102-.2802734 12.2900391-5.8364258 14.9960938-11.5620117 2.5258789-5.3457031 2.6635742-11.7451172.4682617-17.2255859 2.2695313 1.5351563 4.9926758 2.3193359 6.3886719-.2983398.543457-1.0195313.644043-2.1694336.4384766-3.3842773.4952774-.3657455 7.3863373-6.230629 10.972168-9.671875.3616409.7011948 1.1367722 3.500679 1.8217773 4.9951172 1.4702148 3.2001953 2.9101563 7.590332 4 9.75 8.8103714 17.5023651 22.8230515 59.2439423 42.2500076 64.25 12.7802734 3.2900391 28.9702148-9.9897461 38.75-19.25 8.1801758-7.75 16.5302734-20.909668 19.1503906-33.6196289 0-.0004883 0-.0004883 0-.0009766 13.3813477-1.1040039 21.2880859-2.730957 32.8461914-13.8842773 2.3748322-2.2913437 7.3824921-11.3126831 8.1445313-15.4902344 2.2866058 2.9790039 7.1122894 6.9316406 9.5776215 3.1660156.5722656-.8745117.7353516-1.9804688.6782227-3.1298828.8920593-.1740036 7.8383789-5.5017242 13.7734375-9.2504883 1.6279297-1.0283203.1245117-3.6254883-1.5141602-2.590332-4.3828125 2.7685547-8.53125 5.8598633-12.828125 8.7490234-2.2071838-7.5683365-12.4949646-24.7385788-17.3368988-29.5336914 4.3486328-2.5874023 8.7529144-5.050293 13.0121918-7.7915039 1.6186523-1.0415039.1157227-3.6396484-1.5141602-2.5908203-6.1405029 3.952095-13.3432617 7.8031693-13.9208832 8.4018555-3.9615173-2.5194168-8.0004578-1.1299744-6.328125 5.9038086-11.3076172-5.8833008-25.3793945-10.3525391-36.2875977-4.0283203-5.7314453-12.6728516-11.7133789-25.3486366-18.6132813-37.2700233-3.8051758-6.574707-8.8989258-11.6557617-16.3647461-13.7436523-18.8328857-5.2673569-49.9104385 5.3279266-64.8247147 22.8710938-6.7374191 7.9247742-8.4640579 17.1439934-6.2016602 25.6865273-6.4125977 6.2900391-13.0991211 12.2807617-19.8583984 18.1948242-1.4560547 1.2739258.6728516 3.3886719 2.1210938 2.121582 6.3745117-5.5776367 12.6767578-11.2304688 18.7539063-17.1308594.9853516 2.6542969 2.2675781 5.2553711 3.6801758 7.9672852.8920898 1.7128906 3.4819336.1977539 2.590332-1.5141602-3.4082031-6.5439453-5.9174805-12.3818359-5.0551758-19.9130859.8139648-7.1074257 5.1098633-12.9091835 10.2973633-17.5742226 11.097168-9.9799805 26.5185623-17.0595703 41.3544998-18.659668 7.2963867-.7866211 15.5473633-.690918 22.0092773 3.2255859 6.9399414 4.206543 10.237793 12.3603516 13.7055664 19.3041992 6.8212891 13.6606483 13.5131836 27.3847694 19.793457 41.3032265-3.9975586 1.5795898-8.1982422 2.7607422-12.1381836 4.3208008-3.746582 1.4829102-11.2758789 2.840332-13.3261719 6.75-1.8221283 3.4747314-.7113953 7.5434418 4.1347656 8.4990234-1.1440582 3.9606247.9874268 8.5206604 5.3857422 9.3994141-1.0131683 4.3429565 2.9698944 9.2712555 10.5288086 8.0097656-1.2687836 4.2018127 1.9402771 8.7286072 10.8886719 7.8398438-.8745117 1.8706055-1.8295898 3.7001953-2.8637695 5.4853516-7.4790039 10.1166992-17.4604492 18.9130859-27.5498047 25.2070313-12.0227356 7.5007172-22.8419952 9.0937805-33.6401367-.7001953-2.0717773-1.8793945-3.9067383-4.0170898-5.574707-6.3017578-1.0102539-1.8481445-1.9575195-3.7226563-2.8735352-5.5405273-3.8261719-7.5947266-8.0493164-14.9760742-12.1176834-22.4404297 6.3451004-2.971756 41.5626144-25.0643921 59.8505936-35.2475586.8710938-.1933594 1.6601563-1.1791992 1.1572266-2.2504883-7.3701172-15.6938477-15.4824219-31.0087891-24.324707-45.9233437-.4360352-.7353516-1.1879883-.8466797-1.8046875-.6000977-.2548828-.0136719-.5258789.0375977-.8041992.190918-17.6420898 9.7392578-35.0087967 19.8789101-51.9506912 30.7968788-1.6176758 1.0424805-.1152344 3.6401367 1.5141602 2.590332 16.6743164-10.7456055 33.7612381-20.7343788 51.1162186-30.3325233 8.3032227 14.0820351 15.9555664 28.5205116 22.949707 43.2959023-19.9451294 11.1470108-39.0343781 23.6939011-59.1269608 34.8564453-1.152832-2.1464844-2.2807617-4.3066406-3.3837891-6.4799805 1.6005859.0551758 3.2006836.1162109 4.800293.2099609.3408203.1054688.7319336.0786133 1.1333008-.1606445 15.5112381-9.2275391 31.5034256-17.6132813 47.1084061-26.6782227.7094727-.4116211.8408203-1.1162109.6333008-1.7167969.1599884-1.2509003-5.6970673-12.1254807-8.8696289-19.6616211-.737793-1.7524414-3.6420898-.9824219-2.8925781.7973633 2.5009766 5.9418945 5.5527344 11.6225586 8.137207 17.5239258-3.7939453-.0078125-7.5864258.046875-11.3779297.1884766-4.5058594-8.1020508-8.3554688-16.4936523-11.5429688-25.1992188 3.9560547.3056641 7.9013672.7338867 11.8603516 1.0004883 1.9272461.1293945 1.9194336-2.8710938 0-3-4.4780273-.3017578-8.9375-.8198242-13.4160156-1.1210938-.903183-.0616913.8676758-.9434509-34.2182693 20.9165039-3.5048828 2.1835938-7.8740234 4.1831055-11.0244141 6.8686523-3.6625977 3.121582-1.1132813 5.9233398.8369141 9.7172852 1.2304688 2.394043 2.4614258 4.7880859 3.6918945 7.1816406-3.3706055 3.2993164-6.9853516 6.3618164-10.5737305 9.4213867-2.0678711-4.2612305-6.4106445-8.6762695-8.2382813-10.8774414-2.9677734-3.5756836-9.6333008-13.2802734-15.4067383-12.3017578-4.4506836.7539063-2.1171875 6.6049805-.1943359 9.3134766-2.0053711.3671875-3.9799805.8955078-5.9174805 1.5478516-.6538086-3.8945313-2.9916992-7.3510742-6.7319336-7.7993164 3.507309-16.9104919-.7748642-34.7627411-17.3037109-39.9892616-1.1479492-8.347168-6.4389648-16.777832-12.0302734-21.7485352-1.4384766-1.2792969-3.5673828.8349609-2.1210938 2.1210938 5.4355469 4.8330078 9.644043 11.5253906 10.8115234 18.7875977-7.7055664-1.4536133-16.0146484.3237305-18.3378906 8.588871-1.2753906 4.5385736.9438477 8.9414057 5.2749024 10.716308zm134.2026443 18.855957c.0053711-.0019531.0107422-.003418.0161133-.0053711.0556641.003418.1074219.0126953.1665039.0102539 2.8740234-.109375 5.7480469-.159668 8.6230469-.1831055-14.0507813 8.0253906-28.3427734 15.6269531-42.2583084 23.887207-3.0737305-.1806641-6.1518555-.2485352-9.2285156-.3657227 13.708992-8.7075194 27.9453201-16.5024413 42.6811599-23.3432616zm47.7143555-7.6743164c1.230957-.050293 2.4804688-.1254883 3.699707-.0087891-.9726563.5742188-1.9746094 1.0952148-3 1.5737305-.2329101-.5205078-.4667968-1.043457-.699707-1.5649414zm-1.3417969 44.3344727c-2.4067383-.0742188-3.1743164-1.8759766-2.3022461-5.40625.0805664-.0888672.1474609-.1801758.2026367-.2734375 1.7158203-.597168 3.3745117-1.309082 4.8964844-1.934082 1.7617188-.7226563.9902344-3.6264648-.7973633-2.8925781-2.4233398.9941406-4.8774414 2.012207-7.4311523 2.6264648-2.9331055.7050781-10.5019531-.0424805-8.0986328-4.6650391 4.0439453-.4946289 8.4907227-2.8613281 11.8168945-3.9145508 1.8334961-.5805664 1.050293-3.4780273-.7978516-2.8925781-9.9057465 3.1357117-11.9294128 4.5649948-14.3481445 3.5073242-2.0458984-.8945313-3.1738281-3.6733398-2.1806641-5.777832.0219727-.0463867.0317383-.0917969.0493164-.1381836 3.8676758-.0620117 7.7949219-1.4736328 11.199707-2.9438477 1.7675781-.7631836.2412109-3.3486328-1.5141602-2.590332-3.3862305 1.4619141-10.9399414 4.5942383-13.7460938 1.1547852-3.4477539-4.2236328 6.3095703-6.2949219 9.0463867-7.3881836 7.7006836-3.0761719 16.6499023-4.9433594 23.3291016-10.0771484.8100586-.6230469 1.1206055-2.0341797 0-2.590332-2.8476563-1.4140625-5.5380859-1.2011719-8.578125-1.1162109-.2553711.0073242-.4746094.0688477-.6625977.1655273-.9755859-2.1816406-1.9550781-4.3671875-2.9394531-6.5556641 10.9521484-6.4853516 25.8452148-.5708008 36.7792969 5.6289063.104599.0931244.3942871.6613617 1.1972656.6889648 1.1669922.6811523 2.2832031 1.3603516 3.3374023 2.0209961 1.640625 1.0288086 3.1479492-1.565918 1.5141602-2.590332-1.2358398-.7749023-2.5454102-1.5649414-3.909668-2.3500977-1.1010742-1.8457031-2.5893555-5.1625977.7797852-5.387207 1.5175781-.1015625 3.7314453 3.4125977 4.5644531 4.5424805 4.2810059 5.805191 10.7890472 16.5335846 13.3261566 23.3139648.6416016 1.7133789 2.8505859 6.1152344-1.4150391 4.4814453-1.1181641-.4282227-2.5039063-2.28125-3.0483398-3.2880859-.2524414-.4672852-.6323242-.6850586-1.0302582-.7294922.5141449-1.050293.9994965-2.112793 1.4243011-3.1977539.7041016-1.7983398-2.1952972-2.5776367-2.8930511-.7973633-4.8409119 12.3586273-18.4215088 25.5982819-36.8564453 30.1088867-2.9680784.727127-7.9711912 1.9942932-10.9140623 1.2568359zm-95.1884842-42.3603516c11.5908203-7.2211914 23.1816483-14.4428711 34.7724686-21.6645508 3.1899414 8.715332 7.0161133 17.137207 11.4946289 25.2646484-14.9257813 6.9848633-29.3413086 14.940918-43.2075272 23.8457031-2.40625-4.6816406-4.8129883-9.3623047-7.2192383-14.0439453-.7729492-1.503418-3.9970703-5.7983398-3.8154297-7.4223633.279297-2.493164 5.9731446-4.7319335 7.9750977-5.9794921zm-23.8359375 122.8540039c-.8447266-.0849609-1.6894531-.1704102-2.5341797-.2553711.0182648-1.8797913 1.1602631-3.0303497 2.3759766-3.2607422.3190384.4319916.478157.7090454.9174805.9106445-.2529297.8681641-.5058594 1.7368165-.7592774 2.6054688zm-.8012695-4.3862304c-1.5056915.5144043-2.6754074 1.9648285-2.7338867 4.0224609-1.6006012-.8212128-3.4577484-4.3878479-5.7539063-7.690918-8.3431778-11.9968872-16.2925453-27.3481903-18.862793-41.5830078 2.2944336-1.8881836 3.9384766-4.9760742 5.7973633-7.0048828 2.1362305-2.331543 4.0717773-4.9511719 6.1616211-7.4106445.2807617 4.6074219 1.0786133 9.0913086 2.421875 13.5390625-2.7094727.4165039-5.4189453.8334961-8.1279297 1.2504883-.7802734.1201172-1.2729492 1.1420898-1.0478516 1.8452148 5.8943711 18.4093323 7.1960832 22.820694 22.1455079 43.0322266zm-11.737793-105.2773438c-.8349609-.9536133-2.9975586-4.1665039.1499023-4.1137695.7993164.0136719 2.3125 1.7988281 2.8950195 2.3251953 6.0439453 5.4601669 13.9117584 15.9311371 14.9790039 18.1049805 1.4438477 2.9394531-.9780273 4.3295898-3.2714844 1.1547852-.03125-.043457-.0673828-.0756836-.1010742-.1142578-.1499023-1.0961914-.3305664-2.1772461-.5463867-3.2324219-.3857422-1.890625-3.2783203-1.090332-2.8925781.7973633.9433594 4.6176758 1.2641602 9.9946289.5063477 15.0996094-1.6206055-1.9926758-3.5107422-3.675293-5.6987305-5.1538086-1.6040039-1.0839844-3.1069336 1.5141602-1.5141602 2.590332 2.5053711 1.6928711 4.5541992 3.7060547 6.2011719 6.2475586.0571289.0883789.1210938.1640625.1870117.234375-3.0596466 11.0710449-10.3812485 13.0364227-11.3662109 13.7705078-.175293-1.71875-.277832-3.4526367-.2973633-5.2075195 1.2119141-1.1762695 2.5053711-2.2592773 3.9453125-3.168457 1.6289063-1.0273438.125-3.6245117-1.5141602-2.590332-5.4057617 3.4111328-8.9448242 8.9155273-13.0898438 13.6230469-1.4267578 1.6210938-6.6074219 8.8305664-8.4067383 8.3344727-3.097168-.8535156-1.5273438-4.5302734-.6503906-6.2197266 1.0517578-2.0258789 2.3959961-3.6293945 3.9838867-5.2675781 1.3447266-1.3867188-.7744141-3.5102539-2.1210938-2.1210938-2.0327148 2.0966797-4.2255859 4.6860352-5.3886719 7.5620117-.1088867-.0151367-.2255859-.0195313-.3510742-.0092773-2.9873047.2456055-4.1655273-2.621582-2.815918-5.0654297.7013092-1.269928.9897652-1.1179657 6.0913086-7.6743164 1.1713867-1.5058594-.9370117-3.644043-2.121582-2.1210938-1.8774414 2.4130859-5.0385742 5.2319336-6.6420898 8.2543945-1.9658203.1166992-2.7866211-1.7749023-2.6635742-3.4208984.2170258-2.8936615 3.7127113-6.576828 5.6875-8.7226563 1.3056641-1.4189453-.8105469-3.5458984-2.1210938-2.121582-.9755859 1.0600586-2.0610352 2.1992188-3.065918 3.4179688-.1157227.0302734-.2333984.0717773-.3520508.1333008-1.0966797.5703125-3.4316406.8666992-4.0458984-.7246094-.7046013-1.8238525 4.8429413-11.7797699 10.8505859-17.6625977 7.496582-7.340332 18.0478516-12.7646484 28.6171875-13.1416016 1.9248047-.0683594 1.934082-3.0688477 0-3-.894043.0317383-1.7851563.0991211-2.6723633.1923828-.0009763-.3330079-.109863-.6767579-.3837888-.9892579zm-11.4257812 4.0483399c-4.1176758 1.7016602-8.0136719 3.9941406-11.5473633 6.7504883-.1499023-3.8632813-.0419922-8.2260742 2.8833008-11.0043945 1.8881836-1.793457 4.9399414-2.3657227 6.9345703-.4296875 1.2158203 1.180664 1.6103516 3.0136718 1.7294922 4.6835937zm-33.9584961-46.1860352c3.1826172-1.2714882 6.5205078-1.3950233 9.7202148-.6958046.0395508.8183632.0532227 1.6401405.0097656 2.4668007-.2993164 5.7124023-4.4345703 13.4257813-11.3798828 11.5400391-8.1669921-2.2172852-3.9135742-11.088379 1.6499024-13.3110352z"/><path d="m42.4109268 220.2731018c11.6699219.8535156 23.2807617 2.1977539 34.8354492 4.0473633 1.8886719.3027344 2.7016602-2.5878906.7978516-2.8925781-11.8188477-1.8920898-23.6958008-3.2817383-35.6333008-4.1547852-1.9262695-.1411133-1.9174804 2.8598633 0 3z"/><path d="m74.1150284 231.2242737c-6.7924805 1.8422852-13.5849609 3.684082-20.3774414 5.5263672-1.8608398.5048828-1.0712891 3.3999023.7978516 2.8930664 6.7924805-1.8422852 13.5849609-3.6845703 20.3769531-5.5263672 1.8613281-.5048828 1.071289-3.3999024-.7973633-2.8930664z"/><path d="m112.9421768 189.0084534c-5.6469727 5.7236328-10.6767578 11.956543-15.0927734 18.6743164-1.0634766 1.6181641 1.5332031 3.1225586 2.590332 1.5141602 4.2773438-6.5073242 9.1552734-12.5244141 14.6240234-18.0673828 1.3569336-1.3754884-.7626953-3.498047-2.121582-2.1210938z"/><path d="m127.8494034 207.8624573c1.814949-.6245117 1.0351639-3.5234375-.7973633-2.8930664-5.8466797 2.0107422-11.6933594 4.0209961-17.5400391 6.0317383-1.8144531.6240234-1.0351563 3.5234375.7978516 2.8930664 5.8466797-2.0107422 11.6933594-4.0214844 17.5395508-6.0317383z"/><path d="m91.3196182 192.787262c-.3955078 3.5043945-.7910156 7.0087891-1.1865234 10.5131836-.2158203 1.9155273 2.7856445 1.8999023 3 0 .3955078-3.5043945.7910156-7.0087891 1.1865234-10.5131836.2163086-1.9150391-2.7856445-1.8999024-3 0z"/><path d="m73.7668839 249.4044495c-.7155533.1985168-1.1446686 2.0013885-.0200195 3.1103516.847168.8354492 2.1567383.7490234 2.9951172-.0532227.8217773-.7866211.9418945-2.0761719.1782227-2.9423828-1.0805208-1.2263337-2.9591905-.8229981-3.1533204-.1147461zm1.9140625 1.996582c-.6264648.5883789-1.4140625-.2475586-1.0371094-.9086914.0302734-.0532227.034668-.1044922.0512695-.1567383.059082-.0146484.1166992-.019043.1767578-.050293.6987305-.3583984 1.4228516.5395508.8090821 1.1157227z"/><path d="m108.2751846 233.3360901c-1.0812225-1.2262878-2.9590759-.8230591-3.1538086-.1147461-.7155533.1985168-1.1446686 2.0013885-.0200195 3.1103516.847168.8354492 2.1567383.7490234 2.9951172-.0532227.8217773-.7866211.9418945-2.0761719.1787109-2.9423828zm-1.2392578 1.8818359c-.6264648.5883789-1.4145508-.2470703-1.0375977-.9082031.0302734-.0537109.034668-.1049805.0517578-.1572266.0585938-.0146484.1162109-.019043.1767578-.0498047.6987306-.3588867 1.4223634.5390626.8090821 1.1152344z"/><path d="m144.7971649 245.9596252c.8222656-.7866211.9418945-2.0766602.1787109-2.9423828-1.078949-1.2236938-2.9600067-.8262024-3.1533203-.1152344-.7169037.20047-1.1446991 2.002594-.0205078 3.1103516.8476563.8354492 2.1572266.7490235 2.9951172-.0527344zm-2.0981445-1.9692382c.0307617-.0537109.0351563-.1044922.0517578-.1572266.059082-.0146484.1162109-.0185547.1767578-.0498047.6987305-.3583984 1.4223633.5390625.809082 1.1152344-.6264648.5888672-1.4145507-.2470703-1.0375976-.9082031z"/><path d="m112.1423721 263.0094299c.8217773-.7866211.9418945-2.0761719.1782227-2.9423828-1.0805206-1.2263489-2.9591904-.822998-3.1533203-.1147461-.7155533.1985168-1.1446686 2.0014038-.0200195 3.1103516.8471679.8354492 2.1567382.7490234 2.9951171-.0532227zm-1.0610351-1.0605468c-.6264648.5883789-1.4140625-.2475586-1.0371094-.9086914.0302734-.0532227.034668-.1044922.0512695-.1567383.059082-.0146484.1166992-.019043.1767578-.050293.6987305-.3583984 1.4228516.5395508.8090821 1.1157227z"/><path d="m260.7580872 224.5480042c2.4248047-.0258789 4.5478516-2.0654297 4.8369141-4.4331055.413208-3.3767853-2.9949341-5.877243-4.7666016-5.2983398-1.6210632-.5243683-5.131424 1.8144073-4.8813324 5.2255859.1786956 2.4375 2.3359222 4.5322265 4.8110199 4.5058594zm.0786132-6.881836c2.2329102.4165039 2.3764648 3.8051758-.0786133 3.8818359-.9023438.0283203-1.7524414-.8046875-1.8305664-1.6889648-.1020507-1.1606445.8759766-1.9907226 1.9091797-2.1928711z"/><path d="m71.0930557 213.8390198c1.6889648.9389648 3.2036133-1.6508789 1.5141602-2.590332-1.9404297-1.0791016-3.8803711-2.1577148-5.8208008-3.2368164-1.6889648-.9389648-3.2036133 1.6508789-1.5141602 2.590332 1.9399415 1.0791015 3.8803711 2.1577148 5.8208008 3.2368164z"/><path d="m127.7942276 104.0699768c1.6977615.9199219 3.2138748-1.6694336 1.5141678-2.590332-3.2519608-1.762207-6.283699-3.8300781-9.0849686-6.2470703-1.4550781-1.2558594-3.5864258.8574219-2.1210938 2.1210938 2.9921876 2.5820312 6.2158204 4.8325194 9.6918946 6.7163085z"/><path d="m119.8777237 110.6114807c1.6977539.9199219 3.2138672-1.6694336 1.5141602-2.590332-3.2519531-1.762207-6.2836914-3.8300781-9.0849609-6.2470703-1.4550781-1.2553711-3.5864258.8574219-2.121582 2.121582 2.9926757 2.581543 6.2163085 4.8325195 9.6923827 6.7158203z"/><path d="m126.8884659 93.365387c2.4209061 1.7021484 4.8422928 3.4042969 7.2631912 5.1064453 1.5825195 1.112793 3.0830078-1.4873047 1.5141602-2.590332-2.4208984-1.7021484-4.8422852-3.4042969-7.2631836-5.1064453-1.5825272-1.112793-3.0835038 1.4873046-1.5141678 2.590332z"/></g></g></svg>