<svg id="Layer_1" enable-background="new 0 0 300 300" height="512" viewBox="0 0 300 300" width="512" xmlns="http://www.w3.org/2000/svg"><g id="Spotlight"><g><path d="m234.127533 108.2707443c-1.992981-1.0718689-4.6599121-.4268341-5.8270111 1.8375702-.9602356 1.8639069-.3233337 4.472702 1.8565063 5.6502686 2.4396973 1.3179321 4.8756256-.0882721 5.8434753-2.1155548.8539734-1.7887803.564972-4.0611115-1.8729705-5.372284z"/><path d="m247.5046234 45.5926857c-12.0356445 15.1386719-23.5561523 30.7705116-36.2099609 45.4082069-5.890625.4931641-10.6069336 3.7431641-10.6108398 9.7773438-4.3842773 4.2149734-17.1887054 15.8551559-17.668457 17.2763672-3.40625 4.3222656-1.9228516 9.5351563 1.4794922 14.431633-18.3325195 15.8916016-35.2758789 33.3144531-54.4750977 48.0322266-3.7006836-.0830078-7.4033203-1.0214844-11.168457-.9277344-7.8868561.196228-16.203186 2.3141174-20.9472656 8.5341797h-46.336422c-15.9408684 0-28.8398457 12.8972778-28.8398457 28.8398438 0 15.9082031 12.9375019 28.8496094 28.8398457 28.8496094h82.9848633c22.2536163 12.0162048 57.6154785 19.7082214 65.387207 0h45.4677734c15.9532623 0 28.8506012-12.8928833 28.8506012-28.8496094 0-15.9023438-12.9423828-28.8398438-28.8506012-28.8398438h-41.2880859c5.0913086-11.4746094 10.3979492-22.8554688 15.453125-34.3183594 3.3544922.4130859 6.5527344.2695313 9.1235352-.7841797 2.1616211.0498047 4.2832031-.2880859 6.3120117-1.5878906 4.4101563-2.8300781 7.2597656-9.3398438 8.0996094-14.2695313 5.6000977-9.3105392 6.9404297-20.2900314 13.0102692-29.0107346 1.3011169-1.8760452 20.0092163-32.4142456 20-32.5195313-.7401428-8.2269669.9946899-12.4674988.512207-12.7724648.0537109-.1484375.1030273-.3095703.1499023-.4833984 4.8129233-8.0215491-27.2050363-28.3450888-29.2754098-16.7861327zm-12.1630859 74.7255898c-.6181641.0585938-1.2407227.0742188-1.8666992.0458984-4.3759766-.2705078-8.7939453-2.3916016-12.4282227-4.7802734-1.0083008-.671875-1.9628906-1.3632813-2.8339844-2.0429688-1.8041992-1.4072266-5.2749023-4.6337891-7.5649414-8.0712891-.3193359-.5332031-.6147461-1.078125-.8793945-1.6367188-.7104492-1.4970703-1.4829102-3.5292969-1.1713867-5.2763672.0756836-.0576172.1503906-.1220703.2216797-.2011719.8974609-.9960938 1.769043-2.0146484 2.6542969-3.0214844.2382813-.15625.4023438-.3486328.4936523-.5615234 11.8837891-13.578125 22.7319336-28.0664063 33.8691406-42.2685585 4.7358398 8.9736328 13.4477692 14.9677773 23.5078278 16.2998085-32.5499268 52.6779557-30.6326752 50.9460679-34.0019684 51.5146486zm35.9848785-54.7480469c-.3730469.609375-.7373047 1.2177734-1.1123047 1.828125-10.1171875-1.0810547-18.7846832-7.1582069-23.3496246-16.1943398.3833008-.4873047.7695313-.9716797 1.1533203-1.4570313 2.9605408 7.4346352 16.811142 15.7069817 23.308609 15.8232461zm-64.5415191 29.7382812c-.0043945.0058594-.0083008.0126953-.0126953.0185547-.2358398.3222656-.4545898.6630859-.6259766 1.0556641-.8920898 2.0449219-.6586914 4.3349609-.0219727 6.4169922 1.3994141 4.5791016 4.765625 8.5322266 8.4765625 11.6982422 5.4057617 4.8076172 13.1381836 9.3378906 20.3193359 8.9179688 1.7023621-.0593872 2.9302216-.3836212 4.2666016-.8955078 1.4637756-.5548935 2.8766785-2.9365311 3.5556641-4.34375.9863281 14.4833908-20.2646484 5.4228516-26.2675781 1.1328125-4.1826172-2.9902344-8.081543-6.8183594-10.5771484-11.3466797-1.0805664-1.9609375-2.0581055-4.1884766-2.222168-6.4599609.0004883-.0566406-.0014648-.1113281-.0083008-.1669922-.1606446-2.9599611 1.1425781-4.8837892 3.1176758-6.0273439zm-5.6010743 9.1386719c2.9819031 11.7143555 20.5278625 25.3840714 34.2705078 24.6621017.9091797-.0478516 1.7685547-.1767578 2.5800781-.3710938-2.1972656 4.5742188-4.137207 9.2421875-6.1313477 13.875-.0141602.0166016-.0317383.0234375-.0454102.0410156-1.9140625 2.4736328-2.8505859 3.7148438-6.3227539 4.1533203-12.1291962 1.5267029-34.7518463-10.1435547-38.7729492-28.5351486 4.6191408-4.8085936 9.5815431-9.2451171 14.4218751-13.8251952zm-67.5488281 137.3915939c-14.0566406-8.1103516-30.1381836-20.5878906-34.9941406-36.8339844-3.4820404-11.6484222 2.1394806-21.6094818 19.3657227-22.3945313 3.3505859-.1523438 6.5991211.5029297 9.8720703.7900391.5687866 2.3220978 3.0968475.456131 3.7626953-.3730469 19.2363281-14.7587891 36.2924805-32.2080078 54.6728516-48.1582031 8.5341034 10.2777557 21.273468 16.9591064 30.1777344 18.5117188-4.1240234 9.28125-8.9306641 19.6728516-13.3261719 29.4306641-5.3519592 11.8804932-10.7375031 24.5797424-15.2241211 36.9746094-.6287842 1.7335815 2.1631775 2.8350983 3.015625.4648438 24.0804748 33.6354827-14.2077027 46.4690856-57.3222657 21.5878905z"/><path d="m238.9318695 101.9452286c-1.0522461-.8125-2.2929688-.9160156-3.371582-.4804688-1.9921112-1.3243484-4.726593 3.6114502-1.5473633 6.4091797 2.5384369 2.2889938 7.1395111.2753906 5.9672852-1.8037109.6142578-1.4316406.2451171-3.1259766-1.0483399-4.125zm-.2412109 3.2802734c-.3666992-.0253906-.7514648.0917969-1.0932617.4179688-1.1006775 1.050972-2.7421265-.6547089-1.6787109-1.828125.2954102-.3291016.4052734-.6933594.3930664-1.0439453 1.3398437-.3105469 2.7714843 1.0214843 2.3789062 2.4541015z"/><path d="m183.5363617 146.6805725c-8.2631836 8.921875-16.5263672 17.8427734-24.7900391 26.7646484-1.3105469 1.4150391.8061523 3.5410156 2.121582 2.1210938 8.2631836-8.9208984 16.5263672-17.8427734 24.7895508-26.7646484 1.3105469-1.4140625-.805664-3.5410157-2.1210937-2.1210938z"/><path d="m196.7931976 149.1327209c-8.7407227 11.7626953-14.7958984 25.2353516-22.75 37.5-1.0537109 1.625 1.5424805 3.1298828 2.590332 1.5146484 7.9541016-12.265625 14.0092773-25.7373047 22.75-37.5 1.1523438-1.5507812-1.4506835-3.048828-2.590332-1.5146484z"/><path d="m198.4338226 164.7596741c-2.137207 5.40625-4.2744141 10.8134766-6.4116211 16.2197266-.7099609 1.7949219 2.1899414 2.5742188 2.8925781.796875 2.137207-5.40625 4.2749023-10.8125 6.4121094-16.21875.709961-1.7958985-2.1904296-2.5751954-2.8930664-.7978516z"/></g></g></svg>