<svg id="Layer_1" enable-background="new 0 0 300 300" height="512" viewBox="0 0 300 300" width="512" xmlns="http://www.w3.org/2000/svg"><g id="Suggestion_Box"><g><path d="m150.6689301 62.5343895c11.4648438 1.421875 22.847168.5341797 33.956543-2.6181641 1.8544922-.5258789 1.0664063-3.4213867-.7973633-2.8925781-10.8608398 3.081543-21.9628906 3.8994141-33.1591797 2.5107422-1.9116211-.2373047-1.894043 2.7651367 0 3z"/><path d="m172.2797699 75.1046982c-5.625 1.6484375-11.2978516 1.5742188-16.8920898-.0698242-1.8564453-.5458984-2.6489258 2.3486328-.7978516 2.8925781 6.1338654 1.8029022 12.5990753 1.7958679 18.487793.0698242 1.8486328-.5415039 1.0620117-3.4375-.7978516-2.8925781z"/><path d="m111.6733322 41.8742332c-8.2368698-2.784771-28.8999557 21.0201225-31.9438477 25.5424767-5.5917969-4.8178673-9.7363281-10.4843712-14.3134766-16.2641563-1.1982422-1.5126953-3.3085938.6230469-2.121582 2.121582.1416016.1787109.2792969.3554688.4199219.5341797-.2602539 2.4951172-.6850586 5.0307617-.8754883 7.5083008 4.125 3.9999962 7.6005859 7.3784142 11.2451172 11.0053673-.7084961 3.5449219 1.3266602 7.4013672 4.6298828 8.8696289 3.375 1.5 7.0317383.7099609 9.7919922-1.625 1.8339844 7.9750977 6.0507813 15.5527344 11.7636719 21.7861328-9.2172852 13.6577148-14.1777344 30.1821365-8.4306641 52.2138748 3.0332031 11.6269531 15.7119141 26.8017578 23.6669922 35.6665039 6.2314453 6.9448242 12.4941406 14.2216797 16.0273361 22.6611328 1.7953339 9.0007019.187439 14.9875946 4.3144531 19.1269531 1.6337891 1.6386719 4.171875 2.9296875 4.2075195 5.2431641.0341797 2.2348633-2.4619141 4.0454102-2.0776367 6.2470703.2636719 1.5112305 1.8544922 2.6640625 1.7290039 4.1933594-.1513672 1.8447266-2.7080078 2.8408203-2.7255859 4.6918945-.0151367 1.6328125 1.6938477 2.2617188 2.2900391 3.5668945.8388672 1.8364258-.78125 3.3183594-.7558594 5.3164063.0356445 2.8085938 2.7827148 2.6381836 2.2670898 5.3681641-2.9215851 15.4888 41.4644775 21.5925598 51.543457.7006836.1529236-.3162537.4332275-1.2658081.0400391-1.9072266-.5849609-.9545898-.9682617-2.0117188-1.4023438-3.0424805 2.3099518-1.1980591 3.4214935-4.3804932 1.0380859-7.1552734 1.8223114-1.7211304 1.6336517-4.049408.1635742-6.0234375 1.2060547-.9257813 2.1098633-2.2583008 1.9658203-3.7939453-.1191406-1.2709961-.6679688-2.4946289-1.5483398-3.3706055.5390625-.3188477 1.0131836-.7529297 1.3632813-1.4165039.6962891-1.3212891.2666016-3.3173828-.9370117-4.2617188-.3369904-3.1266479-.314209-3.0184631-.3813477-3.2612305.8325195-.8251953.5073242-2.6259766-.9960938-2.5932617-3.5673828.078125-7.1289063.0522461-10.6875-.0273438.5395508-19.4941406 2.3076172-40.4243164 8.6601563-59.1147461 6.6635742.6772461 13.6240234-1.2553711 18.9033203-5.5786133 4.4160156-3.6166992 7.6098633-8.4291992 7.2426758-14.2641602-.2451172-3.8930664-.6665039-8.2133789-5.484375-8.1435547-12.1689453.1757813-18.9736328 13.9189453-22.6635742 24.5991211-3.3881836-.7714844-6.5742188-2.3076172-9.15625-4.5185547 6.3479309-8.4801788 3.385498-19.19133-2.1166992-20.815918-4.6943359-1.3862305-6.5507813 2.9262695-6.8427734 6.8144531-.3867188 5.144043 1.4755859 10.2700195 4.8056641 14.1582031-1.5166016 1.4477539-3.315918 2.6308594-5.2695313 3.4956055-4.2094727 1.862793-8.9272461 2.3984375-13.4433594 1.7055664-2.0513153-8.4371948-5.6191559-21.6660156-13.6738281-24.9882813-3.6796875-1.5175781-6.6884766 2.6899414-7.4707031 5.8671875-1.6687012 6.7764893 5.5041046 18.5502472 18.559082 21.6567383 4.5512695 18.9736328 5.8671875 38.4702148 3.4775391 57.9545898-4.1401367-.2456055-8.2822266-.4838867-12.4296875-.6660156-.953125-.0415039-1.4326172.6689453-1.4438477 1.4091797-7.4980469-7.1362305-6.1347656-16.5239258-9.2451172-25.7514648-2.1433105-6.3562469-5.9458389-9.9237976-13.7148361-27.2255859-4.769043-10.6201172-8.7163086-21.9160156-9.7739258-33.5776367-.7687073-8.466217.3887939-16.752327 3.4624023-24.8676834.7416992-1.621582 1.5913086-3.1728516 2.5546875-4.6430664 3.8256836 1.8222656 7.859375 3.1074219 11.9868164 3.722168 2.4550705.3662109 5.119133.4980469 7.2582932-.7612305 1.2089844-.7119141 2.1074219-2.0234375 2.3779297-3.3769531.4370117-1.012207.375-2.2475586.0053711-3.5400391 2.6985016 1.1931839 5.1423798 1.4670486 6.9667969 1.1972656 1.0478516.8100586 2.0737305 1.6479492 3.0717773 2.519043.4414063.3852539 1.0385742.5224609 1.5629883.3447266 5.7681274-.7111359 27.4410706-6.0131149 69.0395508-3.5664063.9023438.0532227 1.3754883-.5766602 1.4326172-1.2724609.1352539-.4526367.059082-.9663086-.3676758-1.40625-5.5268555-5.6987305-11.7905273-10.6977539-18.4008789-15.0810547-.3691406-.2446289-.7304688-.2910156-1.0517578-.2143555-2.3794098-.4210968-2.2690887-.3689346-3.59375-.6235352.3652344-2.5249023.7348633-5.0683594 1.105957-7.628418 27.8974609 11.8457031 42.8295898 42.2719727 34.8803711 71.8388748-5.564209 20.6970367-23.6108093 35.7971497-28.1279297 56.5830078-1.2919922 5.9418945-1.015625 14.2612305-6.8759766 17.800293-1.6503906.9970703-.144043 3.5917969 1.5146484 2.590332 8.5927734-5.1899414 7.2158203-18.3110352 10.3847656-26.7026367 4.6894531-12.4155273 13.456543-22.671875 19.7431641-34.2402344 17.3899078-32.0005493 7.9755402-74.8300552-31.0786133-90.9218826.2792969-1.9423828.5566406-3.8935547.8310547-5.8520508 2.7875977-13.1010704 5.6489258-26.0434532 8.3222656-39.3681602-1.2700195-1.6166992-2.5400391-3.2402363-3.8100586-4.8579121.0092773-.2041016.0214844-.4082031.0302734-.6123047.0483398-1.1586914-1.3041992-1.8398438-2.2573242-1.2949219-19.4277344 11.1005878-41.7631836 16.7700214-64.0942383 13.3486347-1.012207-.1552734-2.2822266.652832-1.8452148 1.8452148.7363281 2.0092773 1.4257813 4.0322266 2.090332 6.0625-8.4428711-.9726563-16.8056564-1.2866211-25.0932541-.0161133 2.1132815-2.8266598 3.5141604-6.380859-.2158201-7.6420895zm78.028801 190.6645546c.3298492 3.0549164.3926392 3.6311493.4038086 3.734375-.097168.6621094.2041016 1.3378906 1.0620117 1.4960938.0263672.0048828.1396484.2226563.1162109.3886719-.1262512.8749237-3.1190186 1.0496979-4.5957031 2.0722656-1.5771484 1.0917969-.0791016 3.6933594 1.5136719 2.5908203.2451172-.1699219.5048828-.309082.7729492-.4296875.1708984.171875.3979492.309082.7021484.3774414.7949219.1787109 1.4453125.9526367 1.4487305 1.815918.0039063.8857422-1.0097656 1.5751953-1.7788086 1.8261719-1.217926.3976898-1.5010986 2.2017365-.3457031 2.8774414 1.2944336.7568359 1.9438477 2.7563477.1142578 3.2358398-1.3716278.3592072-1.5828857 2.5037079-.0961914 3.0292969 1.4526367.5146484 1.9375 3.3671875-.0688477 3.3369141-1.0179138-.0151367-2.1265259 1.155426-1.4179688 2.3105469.7978516 1.3022461 1.2270508 2.7915039 1.9238281 4.1445313-7.3491211 13.8125-36.4916992 16.0932617-42.796875.2651367.1029663-.1990662.0401001-.0559692.7202148-1.8642578 8.1409912 1.1610718 25.5032806 1.01297 33.2944336-1.8725586.8979492-.3320313.5092773-1.7827148-.3984375-1.4462891-9.4399414 3.4956055-22.2802734 3.4199219-32.3867188 1.9008789.2148438-.7299805-.0322266-1.6381836-.949707-1.9672852-1.1494141-.4130859-1.8447266-1.565918-1.1611328-2.4169922.6474609.0771484 1.1445313-.2495117 1.4189453-.7177734 6.4516602.4555664 12.8374023.4248047 19.2602539-.5913086.9506836-.1503906.5473633-1.5957031-.3984375-1.4462891-6.2495117.9887695-12.4814453.9897461-18.7583008.5463867-.1425781-.2939453-.4057617-.5327148-.793457-.6645508-.1699219-.1494141-.371582-.2583008-.5917969-.3198242-1.0858612-1.0566254-.7931061-3.2924194-.3549805-3.4360352.5214844-.1704102.8237305-.5302734.9560547-.9404297 9.2451172 1.0483398 18.5917969.4882813 27.769043-.9399414.9506836-.1484375.546875-1.59375-.3989258-1.4467773-9.1298828 1.4213867-18.4423828 1.934082-27.6362305.859375-.2304535-.2948608-.225708-.3047485-.3374023-.4135742-1.5073242-1.4697266-.8422852-4.6225586 1.0244141-5.5522461.2431641-.121582.4165039-.2792969.5395508-.4545898 11.4326172 1.3549805 22.6625977 1.515625 34.0698242-.3271484.9501953-.1538086.546875-1.5996094-.3989258-1.4467773-11.2880859 1.8237305-22.3798828 1.6152344-33.6835938.2729492-.2792053-.4647827-.7546387-.8411865-1.4023438-.9013672.2880859.0268555-.0327148-.0527344-.0180664-.027832-.102478-.046051-.4762421-.2520599-.5551758-.2973633-.0092773-2.9902344-.0185547-5.9804688-.027832-8.9711914 14.7587893.6909179 29.4565432 1.998535 44.2412112 1.811035zm19.4916992-86.9716796c5.3823242-.3569336 3.6298828 9.0097656 1.9599609 11.8339844-3.4756012 5.8772278-11.3406372 10.9037018-20.5073242 10.0693359 3.3222046-8.9620056 8.9554749-21.2676545 18.5473633-21.9033203zm-36.7353516 3.5888671c.1381836-2.9243164-.2983398-3.0048828 2.7651367-2.9057617 2.8334961.0913086 2.7451172.1577148 3.4316406 2.9116211.8044128 3.2244568.2311096 7.5305634-2.359375 11.1616211-2.7483062-3.2988129-4.0203246-7.2927399-3.8374023-11.1674805zm-34.7089843 4.3413086c-.6582031-2.4365234-.7006836-8.9389648 4.3911133-6.8730469 4.0141602 1.628418 6.4433594 8.262207 7.6005859 11.9487305.8852539 2.8198242 1.6967773 5.6547852 2.4379883 8.5019531-7.9391785-2.3973541-13.0570832-8.4968719-14.4296875-13.5776367zm20.0800781 24.7954102c-.4682617-2.4179688-.9716797-4.8720703-1.5205078-7.3291016 7.2913208.84021 14.9790344-1.1858368 20.1303711-6.2045898 2.9707031 2.5952148 6.4902344 4.2905273 10.2128906 5.1240234-5.9176788 18.8123932-8.1442261 39.7212524-8.7055664 59.5317383-6.1679688-.1948242-12.3286133-.5454102-18.4907227-.9135742 2.0776367-16.7280274 1.5830078-33.6450195-1.6264648-50.2084961zm50.0239258-72.21241c-2.8603516-2.1196289-5.5375977-4.5039063-8.1816406-6.8774414.2041016-1.3876953.4086914-2.7753906.612793-4.1630859 4.9985352 3.3833008 9.7578125 7.1376953 14.1303711 11.3012695-2.185547-.1069336-4.373047-.1923828-6.5615235-.2607422zm-8.9829102-11.6606445c-.2045898 1.3891602-.4086914 2.7783203-.6132813 4.1669922-1.0605469-.0742188-2.121582-.1347656-3.1831055-.1967773.2216797-1.5229492.4458008-3.0454102.6669922-4.5688477 1.0439454.1347656 2.1113282.3886718 3.1293946.5986328zm1.0737305-62.2368126c-1.0926361 21.3713989-4.5115814 43.34412-8.9868164 73.7939453-13.5717773.2749023-27.1191406 1.4604492-40.4770508 3.8579102-.0307617-2.0273438-.1015625-4.0537109-.2128906-6.078125 4.4980469-.1523438 6.4287109-4.1035156 6.2387695-8.0761719 1.2827148.1962891 2.5795898.2124023 3.8725586-.0356445 4.5878906-.8803711 4.4560547-5.6757813 2.2504883-9.0444336-2.0395508-3.1152344-5.6303711-5.1484375-8.465332-7.4375-2.5371094-2.0488281-5.1630859-3.9663086-7.840332-5.8300781-1.9799805-9.6581993-4.4941406-19.1806602-7.7666016-28.4785118 21.3740234 2.6396446 42.5493164-2.4545937 61.387207-12.6713906zm-58.8354492 31.7182617c.5825195 2.333004 1.1333008 4.6748009 1.6459961 7.0268517-1.9316406-1.2597656-3.8701172-2.5341797-5.6000977-4.0268555-2.0102539-1.734375-3.5546875-4.2968712.2055664-3.735836 1.1574707.1728477 2.8863678.7997017 3.7485352.7358398zm-37.1747971-12.6459961c-1.8505859.5356445-1.0634766 3.4316406.7978516 2.8930664 10.9282227-3.1640625 21.9799805-2.8603516 33.1655197-1.5112305.0263672.0029297.0483398-.0004883.0742188.0014648.8393555 2.7163086 1.6201172 5.449707 2.347168 8.1977539-3.5483398-.5078125-8.3012695-2.5620117-8.5268555 3.1259766-.1630859 4.117672 5.6279297 7.0375938 8.5209961 9.0273399 8.4562531 5.8150101 22.9721222 15.083725 20.815918 18.7016602-1.1806641 1.9790039-4.6308594.9633789-6.2016602.4472656-3.2036896-1.0521011-6.015686-3.0296326-8.5981445-5.1982422-1.4692383-1.2338867-3.6020508.8779297-2.1210938 2.121582 2.5595703 2.1494141 5.7661133 4.5073242 9.2050781 5.7963867 1.4111786 7.5078583-4.9570923 5.5557785-5.0571289 5.5678711-1.7390289-.6992111-3.5839996-2.3976746-11.0200195-7.4301758-1.6035156-1.0849609-3.1064453 1.5131836-1.5141602 2.590332 8.5845642 5.8135681 8.4409027 6.1159744 10.53125 7.1870117 1.3208008 5.0888672-4.5883789 4.8740234-7.9589844 3.3466797-2.84375-1.2885742-5.3457031-3.3579102-7.7631836-5.2983398-1.4916992-1.1972656-3.6274338.9121094-2.1210938 2.121582 1.4375 1.1538086 2.9501953 2.3837891 4.5424805 3.5043945.0361328.1484375.0898438.2993164.1835938.4526367 1.8442383 3.0117188 1.8037109 5.0771484-2.5654297 5.1782227-3.1371994.0722656-6.4965744-1.7451172-9.1611252-3.2133789-4.9389648-2.7211914-9.6518555-5.8066406-13.6987305-9.7636719-8.7460938-8.5517578-15.7109375-20.4116211-16.8261719-32.7275391-.1728516-1.9072266-3.1743164-1.9257813-3 0 .0751953.831543.190918 1.6611328.3129883 2.4902344-.0063477.0063477-.0131836.0102539-.019043.0170898-1.2963867 1.4448242-3.8310547 4.5898438-5.9780273 4.4213867-3.8500977-.3017578.8481445-5.5366211 1.5449219-6.4057617 4.7893448-5.9719391 11.9311752-12.755867 17.7587891-17.4877892 1.5581055-1.2651367 4.965332-4.8115234 7.2456055-4.3979492 4.1049805.7441406-.2260742 4.1879883-1.7573242 5.3325195-.0551758.0410156-.0976563.0874023-.1450195.1318359-1.0048829.2363285-2.0097657.4892582-3.0131837.7797855z"/><path d="m98.4111252 41.3283348c1.3017578 1.4316406 3.4179688-.6948242 2.121582-2.121582-5.6025391-6.1635742-11.2045898-12.3271503-16.8071289-18.4902363-1.3012695-1.4321289-3.4179688.6943359-2.1210938 2.1210938 5.6020508 6.1635742 11.2045899 12.3271503 16.8066407 18.4907245z"/></g></g></svg>