<svg id="Layer_1" enable-background="new 0 0 300 300" height="512" viewBox="0 0 300 300" width="512" xmlns="http://www.w3.org/2000/svg"><g id="Support"><g><path d="m23.2669754 234.7923889c2.925293-6.2177734 5.7451172-12.5419922 9.3417969-18.4111328 3.8203125-6.2333984 8.4238281-11.9804688 12.8505859-17.7841797 1.1704102-1.534668-1.434082-3.0307617-2.590332-1.5146484-4.4267578 5.8037109-9.0302734 11.5512695-12.8505859 17.784668-3.5966797 5.8691406-6.4169922 12.1933594-9.3417969 18.4116211-.8173828 1.7368163 1.7685547 3.2617187 2.590332 1.5136718z"/><path d="m71.4134598 223.2308655c.1049805-1.9472656-1.3339844-4.0209961-3.3271484-4.2949219-.2285156-.0317383-.453125-.019043-.6694336.0200195-.2167969-.0395508-.4423828-.050293-.6708984-.0087891-1.9541016.3510742-3.3188477 2.3525391-3.215332 4.2861328.112793 2.0932617 1.9306641 3.5942383 3.9868164 3.5517578 2.0131835-.0415038 3.7841796-1.4794921 3.895996-3.5541991zm-3.9707031-1.3544922c1.1040039.2915039 1.3813477 1.8515625.074707 1.9086914-1.3198242.0576172-1.2216797-1.6025391-.074707-1.9086914z"/><path d="m150.6751709 143.7113342-.1352539.0170898.1391602.1079102c.0537109.8803711.8149414 1.2822266 1.5615234 1.2099609l7.5844727 5.8759766.2001953-.0219727c46.4500885-5.0462494 65.254715-3.1919708 68.6601563-3.2763672.4367371-9.6745911 2.9724121-39.9339294 1.6728516-78.3979568l-.0068359-.1967773-.1396484-.1396484c-.9121094-.9121094-1.8583984-1.9775391-2.7744141-3.0078125-.909668-1.0244141-1.8505859-2.0805664-2.769043-3.0024414-.0161133-.4750977-.0258789-.949707-.0429688-1.4243164-.0566406-1.5854492-2.0986328-1.8676758-2.7792969-.8383789-.0463867-.0053711-.0883789-.0166016-.137207-.0180664-6.949707-.2270508-13.8925781-.5766602-20.8374023-.8959961-.1683807-17.1212387-2.2131805-26.6315231-2.402832-29.6342754-.0532227-.8476563-1.1967773-1.0136719-1.4731445-.1992188-.6538086 1.9272461-1.5175781 5.5151348-3.2050781 6.8979473-.5668945 1.7617188-1.3549805 1.7509766-2.3642578-.0317383-.9658203-1.7670898-1.5014648-3.6557617-1.6074219-5.6669903-.0771484-.7485352-.953125-1.0092773-1.3974609-.378418-1.7480469 2.4819317-2.9936523 4.9785137-3.9042969 7.7753887-2.5024414-3.5737305-5.0024414-7.1484356-7.5004883-10.725584-.5454102-.7807617-1.8305664-.0449219-1.3012695.7436523-.1699219.1186523-.293457.3051758-.2963867.5751953-.0952148 9.6469707-.1943359 19.2939434-.2924805 28.9409161-.1889648-.1113281-.4091797-.1884766-.6674805-.2109375-8.1367188-.7099609-16.2568359-1.5600586-24.3701172-2.5-.5986328-.0693359-1.0087891.1767578-1.2314453.5546875-.6035156.2792969-1.0878906.8964844-.9755859 1.7192383 6.4165037 47.0271607 2.8480375 82.5469132 2.7934568 86.1489334zm33.4663086-103.174324c.3574219.5102539 1.1899414.4799805 1.3706055-.1791992.7294922-2.6625977 1.7456055-5.0068359 3.1308594-7.2685547.5566406 2.6376953 1.6533203 4.9091797 3.4458008 7.1293945.3359375.4165039.9189453.1904297 1.1777344-.1518555 1.5668945-2.0703125 2.8349609-4.2158203 3.8735352-6.5102539.7050781 14.9243164.0073242 29.6850586-.050293 44.6020508-1.9492188-1.9511719-3.8974609-3.9033203-5.8505859-5.8505859-.315918-.3149414-.9702148-.2939453-1.1777344.1518555-1.2646484 2.7138672-2.5356445 5.4248047-3.8056641 8.1357422-.8217773-2.8266602-1.9057617-5.4672852-3.3491211-8.0957031-.3413086-.6210938-1.144043-.3779297-1.3710938.1791992-1.2851563 3.1586914-2.5703125 6.3178711-3.8564453 9.4765625-.6494141-3.0683594-1.0644531-6.1494141-1.2641602-9.2915039.0931702-.2026215.0482635 2.2923279.4926758-42.6708984 2.4091797 3.4492186 4.8198242 6.8979491 7.2338867 10.3437499zm-9.0424805 20.1728516c-.0366211 3.5483398-.0688477 7.097168-.1079102 10.6455078-.0957031.1171875-.1611328.2617188-.1523438.4428711.2124023 4.4399414.8295898 8.737793 1.9067383 13.0498047.1967773.7856445 1.1884766.6323242 1.4467773 0 1.3818359-3.3896484 2.7597656-6.7807617 4.1391602-10.1713867 1.3261719 2.6601563 2.3164063 5.3569336 3.0141602 8.28125.1420898.5947266 1.0942383.7695313 1.3710938.1791992.6767578-1.4458008 2.8164063-8.1152344 4.2597656-8.4243164 1.3325195-.2851563 5.2983398 4.7519531 6.3222656 5.7758789.3671875.3671875.9584961.2192383 1.184082-.1850586 1.7368164-.8642578 1.9345703-3.7631836 2.0258789-5.4350586.230957-4.1201172.3413086-8.1552734.3603516-12.1660156 6.9394531.3188477 13.8769531.6679688 20.8212891.8950195.8266602 24.7807617.6064453 49.5708008-1.1269531 74.3086014-22.3286133-.3295898-44.6210938.9350586-66.7695313 3.8007813 1.8178711-27.8193436.8549805-55.6840897-2.8085938-83.3198318 7.8154297.8989258 15.6362305 1.7177734 23.4736328 2.4013672.2451173.0214842.4580079-.0097658.6401368-.0786134z"/><path d="m170.2611084 109.0780258c5.3798828 4.3476563 12.2231445 7.4907227 18.4594727 10.5654297-.3360443 1.2702408 1.3061371 2.7640686 2.5708008 1.375.6209259.6560669 2.434021.4659348 3.3066406.0327148.7138672-.3549805 1.2431641-.987793 1.7504883-1.6030273 5.4858398-6.6538086 11.0712891-13.4785156 14.0322266-21.578125 1.5050964-4.1164398 1.493927-7.095253-1.7607422-9.9521484-2.4985352-3.5966797-7.3237305-4.6611328-11.3520508-3.4414063-5.6948242 1.7246094-9.0166016 6.8959961-11.6542969 11.9125977-2.8945313-2.765625-5.6049805-5.3618164-10.0668945-5.6025391-4.0283203-.2167969-8.4726563 2.0444336-9.9790039 5.9316406-1.8491212 4.7719727 1.0561523 9.4204102 4.6933593 12.3598633zm7.5717773-14.7172851c3.1972656 1.03125 4.8173828 3.4145508 7.1386719 5.5439453.6713867.6162109 1.8999023.5957031 2.355957-.3037109 2.0878906-4.1152344 4.2905273-8.6826172 8.4052734-11.1464844 2.6738281-1.6015625 5.6640625-2.1035156 8.3701172-.4160156 4.0517578 2.5268555 3.050293 6.199707 1.1694336 9.8334961-3.6411133 7.0341797-9.1953125 13.5083008-14.5927734 19.3881836-3.2207031-1.6171875-6.4155273-3.2792969-9.5634766-5.0341797-3.640625-2.0302734-8.2016602-4.0751953-10.8676758-7.3427734-5.0297851-6.1635743.5585938-12.7885743 7.5844727-10.522461z"/><path d="m105.7860184 57.2201157c3.5170898-1.0488281 7.0336914-2.0976563 10.550293-3.1464844 1.8457031-.5507813 1.0600586-3.4472656-.7973633-2.8930664-3.5166016 1.0488281-7.0332031 2.0976563-10.550293 3.1469727-1.8457031.5502929-1.0595703 3.4467773.7973633 2.8925781z"/><path d="m109.5999832 72.9310532c3.6308594.4785156 7.262207.9570313 10.8930664 1.4360352 1.9082031.2514648 1.8896484-2.7509766 0-3-3.6308594-.4790039-7.262207-.9575195-10.8930664-1.4360352-1.9082031-.2514649-1.8896484 2.7509765 0 3z"/><path d="m107.8319168 94.2308578c-1.9277344-.1206055-1.9208984 2.8798828 0 3 3.1845703.1992188 6.0839844 1.2397461 8.7250977 3.0205078 1.6049805 1.0825195 3.1079102-1.515625 1.5141602-2.590332-3.0776368-2.0756836-6.5410157-3.1992187-10.2392579-3.4301758z"/><path d="m48.8172684 161.2464905c1.8837891 8.5893555 3.1323242 17.0288086 5.6264648 25.2905273-3.3642578-1.6713867-7.5986328-2.5419922-8.628418 1.2807617-1.9838867 7.3652344 11.6347656 16.3193359 16.0263672 19.8618164 4.0319977 3.2522888 12.9172211 9.9549408 17.6479492 11.5532227-12.0991211 16.3515625-23.612793 33.2719727-33.4145508 51.1079102-.9205322 1.6753235 1.6431656 3.2597046 2.6279297 1.4477539 4.6071091.2381592 9.2773056 1.1567078 13.4814453-.4887695.9380951-.3669128 1.9107361-3.5182495 2.3847656-4.6157227.8662109-1.984375 1.9052734-4.0205078 3.1787109-6.2236328 11.4709473-19.8398285 13.5182571-22.8942108 15.0205078-28.0532227 1.2929688-4.440918 1.1865234-8.7539063-.2563477-12.2480469.1030273-.1386719.2041016-.2788086.3071289-.4174805.3657227-.0253906.7290039-.0776367 1.0859375-.1728516 5.6645508-1.5063477 1.1816406-8.4609375-1.9042969-11.4101563 1.1184387.1236572 2.365448.1079712 4.2260742-.2495117 11.1577148 12.0249023 23.3632813 24.1503906 38.90625 30.0239258.0405273.0205078.0805664.0419922.1210938.0625-3.550293 1.0302734-6.7890625 2.8310547-6.5795898 6.1518555.0947266 1.5083008 1.1425781 2.9711914 2.734375 3.8173828 1.3681641.7275391 2.9306641.9575195 4.4140625 1.1303711 9.4346237 1.102417 18.9711533.7151642 28.4580002-.1381836 1.5244141-.1376953 3.4208984-.3085938 5.1035156-1.0336914 1.8691406-.8066406 3.2314453-2.2641602 3.6425781-3.8994141.6933594-2.7636719-1.3408203-5.4775391-3.6074219-6.6279297-2.1704102-1.1010742-4.6455078-1.2392578-6.9023438-1.2924805 2.3847656-1.71875 4.5927734-3.7861328 6.6225586-6.0639648 13.7827148 10.7539063 35.2158203 22.7910156 52.1367188 11.4814453 7.1225586-4.7602539 11.0883789-12.9467773 12.9121094-21.0991211 7.5556641-1.2353516 14.9545898-5.2163086 19.684082-10.6010742 6.2172852-7.0786133 9.6206055-16.0766602 10.953125-25.3144531.8852539-6.1386719 1.3466797-13.0556641.8745117-19.7304688 6.6391602-1.7993164 12.9106445-6.1499023 16.2348633-11.3989258 7.7441406-12.2270508 5.5283203-31.9233475-3.7802734-43.7963943 8.7568359-6.9716263 10.217041-19.5633774 11.3168945-30.4248047.1938477-1.9194336-2.8071289-1.9057617-3 0-1.0336914 10.2089844-2.7211914 21.7602539-10.4277344 27.9941406-1.1196289-1.1586914-2.3193359-2.2143555-3.5981445-3.1430664-3.7578125-2.7294922-13.0263672-8.5449219-17.2016602-3.7480469-3.8833008 4.4624023-.5454102 13.015625 4.9116211 14.2749023 4.8120117 1.1103516 10.8500977-.4697266 15.4516602-3.1967773 6.9443359 8.8164063 9.574707 22.3105545 7.0810547 32.5102615-2.0405273 8.3461914-8.9516602 15.9169922-17.2475586 18.1640625-.3427734-3.043457-.8925781-6.0073242-1.7143555-8.7861328-1.9379883-6.5546875-8.7216797-13.5-16.1235352-10.0322266-5.9580078 2.7915039-5.4912109 10.203125-2.4233398 15.0087891 3.9995117 6.2646484 10.5561523 8.1396484 17.1738281 7.2509766.8457031 13.4814453-.2080078 27.6972656-8.1430664 39.0952148-4.5395508 6.5200195-11.7382813 11.5219727-19.4472656 12.9453125 1.265625-7.4604492 1.1152344-16.043457-3.9853516-21.9379883-4.4121094-5.0996094-12.9443359-7.5541992-18.565918-2.9472656-5.5302734 4.5322266-4.7495117 12.8432617-1.3325195 18.4003906 4.6879883 7.6245117 12.5478516 10.3208008 20.5717773 9.7363281-2.4814453 9.3452148-8.5541992 17.9262695-16.9750977 20.8081055-15.3017578 5.2363281-31.6904297-4.6196289-43.3300781-13.7236328-.0302734-.0234375-.0620117-.0375977-.0927734-.0585938 3.8598633-4.847168 6.9750977-10.3808594 9.2802734-15.5048828.2890625-.6416016.2539063-1.2851563-.234375-1.8178711-9.9863281-10.8945313-20.53125-19.3916016-34.0854492-25.5419922-2.4975586-1.1328125-5.4477539-2.9150391-8.3051682-2.2670898-2.8320313.6420898-4.6088867 3.440918-6.2958984 5.5830078-1.9824219 2.5170898-3.8227539 6.7768555-6.3276367 8.6572266-4.7104492 3.5356445-6.9780273-1.6401367-8.1938477-4.5273438.0600586-.078125.1206055-.1523438.1806641-.2314453l-.3984375-.3022461.4677734.2114258c3.8134918-5.0171356 7.5665131-11.699234 9.0683594-15.409668 1.5375977-3.378418 3.1157227-8.1499023 3.046875-13.3447266.3583984-1.7709961.5566406-3.5356445.5327148-5.2602539-.0698242-4.9956055-3.6162109-7.6049805-7.6586914-6.5664063 2.5182419-7.9978638-2.2097015-13.105484-7.1289063-12.5634766-.0852585-4.8598938-4.7488785-8.3779449-9.4970703-7.1132813-.03125-1.300293-.2324219-2.5932617-.6679688-3.8593826-1.5263672-4.4306641-6.909668-4.2255859-9.9213867-1.2280273-1.5297852 1.5224686-2.5678711 3.4448318-3.5229492 5.4018631-.3583145.4384613-.4972458.5926208-.9316406 1.1186523-3.0786133-6.4116287-6.8847656-13.2221756-8.309082-20.1562576-2.6313477-12.8076172 14.0698242-7.7763672 21.0708008-5.980957 1.8710938.4799805 2.6694336-2.4125977.7978516-2.8925781-4.2290039-1.0844727-12.1108398-3.5712891-17.9736328-2.6235352 1.9160156-15.453125.6176758-30.9394531-3.800293-45.8623047 5.1748657-1.9147911 10.4133835-2.6579323 14.3129883-2.4682617 2.6489258.128418 2.8994141.1772461 4.8134766 2.7060547 9.8212891 12.9750977 11.2470703 29.6503906 3.5107422 43.9448242-.9189453 1.6982422 1.6699219 3.2143555 2.590332 1.5141602 6.1206055-11.3081055 7.3051758-24.1831055 2.4838867-36.2138672-1.7602539-4.3935547-4.6743164-11.3681641-8.8168945-14.0683594-3.8500977-2.5102539-11.6411133-.6206055-15.8066406.4614258-10.3261719 2.6826172-21.3847656 9.5766602-25.4125977 19.8862305-1.3164063 3.3701172-1.9765625 6.9404297-2.2119141 10.6000977-2.1000023 11.7932281-.6183548 26.6250381 1.453125 38.4243164.6375427 3.6326294.9512787 7.6648636 2.6567383 11.1333084-2.40625-.546875-4.9604492.1235352-7.3891602 2.8515625-4.8391797 5.4338839 1.2314304 12.4021914 4.3867191 26.7861331zm208.7792892-50.1518631c-4.0874023.8896484-9.0620117 1.7055664-10.4379883-3.4013672-2.6381836-9.7895508 8.0717773-4.7436523 12.0810547-2.2080078 1.5219727.9624023 2.9272461 2.1162109 4.21875 3.4160156-1.7075195.9599609-3.6445312 1.7104492-5.8618164 2.1933594zm-13.421875 50.4755935c-5.1572266-1.8789063-13.7036133-13.0048828-4.6166992-15.9492188 9.6943359-3.1416016 12.0029297 10.3896484 12.5908203 16.9868164-2.6049805.2377931-5.2949219-.0615233-7.9741211-1.0375976zm-34.8408203 53.4003907c-5.5361328-3.171875-10.1123047-10.3461914-7.4765625-16.831543 4.0805664-10.0400391 16.5678711-3.2866211 19.2592773 3.9638672 1.7407227 4.6889648 1.9882813 10.253418.9868164 15.7319336-4.2958984.3178711-8.6718749-.5166016-12.7695312-2.8642578zm-76.3164062-28.1357422c5.0688782 2.1786804 11.181488 5.3478546 16.4101563 8.8378906 6.8374023 4.5639648 12.3334961 10.1499023 17.840332 16.128418-2.6464844 5.8178711-5.5405273 11.5258789-9.8237305 16.2392578-9.6899414-13.7495117-22.6542969-24.6191406-37.9418869-31.6489258 4.5416641-5.9245453 6.3562927-12.6324615 13.5151291-9.5566406zm-22.9287034 14.0605469c2.8535156 1.0478516 5.2739258-.1367188 7.3647461-2.1640625 15.2836838 6.9135742 28.2929611 17.6577148 37.8564377 31.4594727-2.8121033 2.5855865-5.8303833 4.4888306-9.0483398 5.8115234-5.9477539-.0449371-10.4851837.1381378-16.09375.9697266-8.1147232-2.5244446-15.3989029-9.9044952-21.3134689-15.8242188-2.3930664-2.3955078-4.6982422-4.8676758-6.9257813-7.40625-2.2773743-3.2915039-4.1753998-6.6038666-6.5883789-9.668457 3.0869751-2.0497894 7.0595093-6.2336578 9.4443359-9.0854492 1.2486115 2.4251861 2.6304245 4.9259032 5.3041992 5.9077148zm-20.4350585-73.2387772c6.9082031.4116287.0332031 14.1123123-1.7700195 17.0546951-1.0117188 1.6503906 1.5820313 3.159668 2.590332 1.5141602 2.0483398-3.3422852 4.1503906-7.3920898 4.8188477-11.5170898.2446289.0751953.5229492.0874023.8349609-.003418 3.1030273-.9047852 5.8896484 1.2075195 5.9042969 4.5649414.0102615 2.2047729-1.0823441 3.0064697-6.2685547 13.7714844-.8339844 1.7314453 1.7519531 3.2548828 2.590332 1.5141602 3.1455002-6.5289459 5.3537445-10.3511353 6.0859375-12.4750977 5.2426758-1.6337891 5.9174805 5.2753906 4.5957031 8.9697266-1.0493164 2.9331055-2.6982422 5.6591797-4.2719727 8.3310547-.9814453 1.6674805 1.6103516 3.1787109 2.590332 1.5141602.9604492-1.6303711 2.0493164-3.4038086 3.0043945-5.2617188.0688477-.0356445.1381836-.0698242.2075195-.1201172 2.5473633-1.8291016 5.4594727-1.9682617 6.2236328 2.5009766.2753906 1.6118164-.4042969 3.8964844-.7832031 5.4482422-.5844727 2.3945313-1.5170898 4.699707-2.4228516 6.9858398-1.1411133 2.8793945-2.5356445 5.4130859-4.0498047 7.8525391-2.1303711 2.7270508-5.0361328 5.1962891-6.8344727 7.8974609v.0097656c-1.9896774 3.0604553-4.6988983 6.4971771-7.8740234 9.7744141-6.0303268 4.7749481-11.9491577 8.6443481-20.5551758 10.6791992-1.8779297.4443359-1.0825195 3.3374023.7978516 2.8930664 1.2954102-.3066406 2.574707-.6914063 3.8457031-1.1103516-.0712891.5283203.0913086 1.0957031.6225586 1.4887695.8432617.625 4.4438477 4.7832031 4.0195313 5.8417969-.5483398 1.3662109-4.1704102.1938477-4.9863281-.1879883-1.9484177-.9126129-8.5581589-5.0149841-15.9995117-11.1674805-3.5107422-2.9023438-7.1611328-5.8881836-10.2568359-9.2397461-1.0180664-1.1015625-4.2099609-4.7294922-3.0512695-6.2685547 1.4194336-1.8847656 5.3525391.9106445 6.675293 2.1103516.5415039 1.4741211 1.1313477 2.9418945 1.7866211 4.4038086.7890625 1.7583008 3.375.234375 2.5908203-1.5141602-6.362793-14.1860352-6.734375-29.7041016-11.7202148-44.2685547-1.1289063-3.2973633-4.9379883-10.2338867-1.7001953-13.4487305 5.362793-5.324707 10.144043 2.3671875 12.050293 6.4174805 1.9050446 4.0482178 4.0402565 9.7258606 4.9013672 13.8232422.2016602.9584961.3974609 4.2480469.8427734 3.8027344-1.3671875 1.3671875.7539063 3.4887695 2.1210938 2.121582 5.840332-5.840332 8.8540039-13.6728516 12.859375-20.8686523 1.802246-3.2373047 5.9370116-14.0752029 9.9848632-13.833992zm-20.1992188-70.8217773c7.3095169 24.9998016 3.3653793 44.493187 3.5424805 45.6464844-1.8295898.8994141-3.234375 2.3969727-3.9091797 4.7587891-1.2148438 4.2524414.71875 9.1699219 2.2993164 13.0478516 2.35392 5.7755127 6.9291992 15.3971329 7.0820313 15.6557693-1.6201324 2.424408-2.5648499 5.595932-6.8676758 10.4780273-1.5718918 1.7823029-4.0743103 3.2335663-5.6572266 5.1323242-4.1542969-11.5991211-7.8393555-23.3657227-10.4990234-35.4907303-1.5859375-7.2280273-3.8701172-15.815918-4.6962891-24.2597656-.1523438-3.1210938-.2158203-6.2514648-.1928711-9.3881836.2861328-4.0249023 1.1240234-7.8769531 2.7885742-11.3691406 3.0791054-6.4614182 9.5449944-11.205082 16.1098633-14.2114258z"/></g></g></svg>