<svg id="Layer_1" enable-background="new 0 0 300 300" height="512" viewBox="0 0 300 300" width="512" xmlns="http://www.w3.org/2000/svg"><g id="Task"><g><path d="m196.4680176 234.5554962c2.5512695-10.0883789 2.9443359-25.7753906-.8730469-35.0454102-4.3242188-10.5014648-12.6074219-20.5507813-23.2177734-25.4345703.1157227-1.34375.5898438-2.5161133.7060547-3.8598633-1.4580078-1.6054688-2.9155273-3.2104492-4.3730469-4.8154297.0039063-.074707.0068359-.1494141.0107422-.2236328.0449219-.8022461-.7236328-1.5112305-1.5-1.5-1.7836914.0249023-3.5678711.0498047-5.3515625.074707.269043-2.8554688.2470703-5.9023438.3637695-8.734375.3300781-7.9819336.5522461-15.9697266.6845703-23.9575195 2.1098633.6000977 4.5473633-1.0546875 4.1733398-3.5688477-.3271484-2.2026367-2.2822266-3.1274414-4.0898438-2.7734375.0112305-1.1669922.0239258-2.3334961.03125-3.5004883 6.7763672-.2202148 13.0786133-1.8959961 19.9794922-2.706543 1.1855469-2.3574219 2.449707-5.0141602 3.3842773-7.5883789.2509766-.2373047.4897461-.480957.7060547-.7358398 2.9541016-3.4858398 1.7041016-11.2504883-.4418945-14.9140625-2.5761719-4.3979492-7.8354492-6.0395508-12.7001953-5.722168-6.965332.4541016-12.4521484 4.9667969-19.0625 6.5493164-8.0561523 1.9287109-12.4443359-7.9213867-19.1762695-10.9555664-5.4443359-2.4541016-11.831543-2.9536133-17.5629883-1.2246094-4.5390625 1.3691406-10.6005859 4.777832-7.6069336 10.230957.0761719.1386719.1660156.2480469.2612305.3452148.0620117.0742188.1313477.1420898.2109375.199707.3925781.5556641.7954102 1.0991211 1.206543 1.6328125 1.1508789 2.2807617 2.4550781 4.4277344 3.2817383 7.1826172 6.1665039 5.3334961 10.5 8.6665039 16.8330078 12 6.4423828 3.390625 12.8457031 4.9648438 19.9677734 6.4238281-.050293.7998047-.1005859 1.5996094-.1508789 2.3999023-.9536133-.4355469-2.0244141-.5825195-3.0322266-.1669922-1.0141602.4179688-1.840332 1.3974609-1.8505859 2.5307617-.0102539 1.1621094.8188477 2.1459961 1.8178711 2.644043.8564453.4272461 1.7973633.4697266 2.7314453.3725586-.6738281 11.0283203-1.2470703 22.0864258-1.4155273 33.1274414-.0634766-.0019531-.1240234-.0087891-.1923828-.0029297-2.5991211.21875-5.1796875.1972656-7.7670898-.159668-.9609375-.1328125-1.878418.3720703-1.8984375 1.4462891-.0756836 4.0297852-.1508789 8.0595703-.2260742 12.0893555-.0048828.2451172.0405273.4584961.121582.6416016-30.5493164 13.1601563-46.972168 57.7304688-27.2436523 86.0361176 10.6103516 15.2236328 29.9003906 20.1738281 47.0571289 13.8969727 13.9174805-5.0917969 24.9267578-16.0322266 31.4296875-29.1899261.5537109.3662109 1.1020508.7392578 1.6542969 1.1069336-.1367188.0073242-.2739258.0195313-.4106445.0258789-1.543457.0717773-1.965332 1.9443359-.7568359 2.7949219 1.8955078 1.3344727 3.8369141 3.5483398 6.2006836 3.6005859 4.2021484.0927734 8.7128906-.8920898 12.8808594-1.425293 1.0561523.0673828 1.8505859-1.175293 1.4482422-2.128418-.1176758-.434082-.4204102-.7802734-.9111328-.8681641-1.6171875-.9863281-3.1958008-2.034668-4.8144531-3.0195313-.2607422-.2602539-.6040039-.4267578-.9975586-.3896484-2.6240234.2495117-5.2680664.6484375-7.9101563.9702148-1.6933594-1.1489258-3.3945313-2.2856445-5.1015625-3.4135742 1.4550779-3.3305661 2.6293943-6.7807614 3.4926756-10.2978513zm-1.3706055-9.8999023c-.5507813 6.3540039-2.1640625 12.6274414-4.6743164 18.5170898-2.3305664-1.5253906-4.6645508-3.0458984-7.0029297-4.5600586 1.9145508-4.7641602 3.175293-9.7895508 3.6845703-14.9082031.6801758-6.9199219.0097656-14.0498047-2.6796875-20.4599609-2.6801758-6.3999023-7.5-12.0297852-13.7705078-15.0097656-.8666992-.4140625-1.769043-.7475586-2.6835938-1.0444336.0737305-3.2041016.1572266-6.4082031.2597656-9.6113281 19.6269532 6.3588866 28.5742188 27.3857421 26.8666993 47.0766601zm-71.6821289-6.2988282c4.96875-14.7036133 17.9169922-29.3676758 34.4692383-28.7602539-.0615234 11.5161133.027832 23.0361328-.7084961 34.5361328-.0253906.3969727.0859375.7070313.2729492.9399414-.8242188.875-1.4785156 1.9282227-1.8881836 3.0986328-1.3554688 3.8701172.034668 8.7348633 4.4580078 9.6035156 3.9169922.7695313 7.0488281-1.8095703 8.4697266-5.1020508.1894531.0351563.3789063.0717773.5683594.1069336.0112305.0078125.0195313.0175781.03125.0258789 1.8076172 1.2119141 3.628418 2.4042969 5.4492188 3.597168-6.1635742 13.753418-20.5019531 28.1987152-36.6469727 23.9282074-3.1025391-.8203125-5.7011719-2.1982422-7.8691406-3.9750977-4.6977539-4.3525238-7.043457-10.4594574-8.5605469-16.835434-1.0541993-7.1943358-.1469727-14.9453123 1.9545898-21.1635741zm29.9628906-44.977539c-.2226563-18.6401367 1.0493164-37.3764648 2.2207031-55.9736328 1.3754883.1743164 2.7578125.277832 4.144043.3227539-1.4467773 15.7753906-.8945313 31.7109375-1.2729492 47.5317383-.0043945.1967773.0292969.3681641.0810547.5244141-.1552734 2.4316406-.2753906 4.8642578-.3662109 7.2973633-1.625.0141601-3.2280274.114746-4.8066407.2973632zm-38.4262695-78.390625c6.7578125.8740234 11.8813477 6.4750977 16.9614258 10.9350586 1.9736328 1.7329102 3.9960938 3.3432617 6.1113281 4.7866211-9.0366211-2.8842774-17.112793-8.1342774-23.0727539-15.7216797zm49.1147461 129.0083008c.1704102.0263672.3149414-.0112305.4458008-.0712891.1582031.0688477.3291016.1103516.5058594.125 2.199707 1.0571289 3.0102539 3.2231445 2.8120117 5.4545898-.84375-.159668-1.6899414-.3100586-2.5351563-.4624023-.3730469-1.0214844-1.2753906-1.7441406-2.3637695-1.9643555-.2851563-.144043-.6303711-.1958008-1.0283203-.0859375-1.5532227.4282227-2.5126953 1.9165039-2.3203125 3.5063477.1987305 1.6435547 1.5258789 2.9277344 3.2402344 2.6665039.784668-.1196289 1.4814453-.5649414 1.9677734-1.1777344.7426758.1352539 1.4858398.2670898 2.2275391.4077148-1.1801758 2.440918-3.5019531 4.3251953-6.3398438 3.9404297-7.6445313-1.0361328-3.5922852-13.4238281 3.3881836-12.3388671zm6.5356445 6.2177734c-.0151367-.0097656-.0302734-.0146484-.0454102-.0239258-.1655273-.137207-.3754883-.2431641-.6464844-.293457-.2167969-.0405273-.4335938-.0820313-.6503906-.1225586.2744141-2.5351563-.4960938-5.0537109-2.6748047-6.5522461.0849609-.1748047.140625-.3754883.1533203-.6054688.5375977-9.8710938.7641602-19.7524414 1.0039063-29.6328125 12.6650391 8.7333984 12.8857422 27.2304688 7.949707 40.5908203-1.699707-1.1152343-3.4013671-2.227539-5.0898437-3.3603515zm-6.8569336-7.7407227c-1.2280273-.0717773-2.4213867.1606445-3.5112305.6328125.6889648-11.5126953.5844727-23.0444336.65625-34.5717773.0224609-.105957.0341797-.2192383.034668-.340332.0048828-4.5375977.0805664-9.0751953.2294922-13.6103516.0024414-.0605469-.0078125-.1186523-.0141602-.1772461.0854492-2.5507813.2006836-5.1010742.3540039-7.6503906 1.3837891-.0195313 2.7680664-.0390625 4.1523438-.0581055-.977539 18.5786133-.8955078 37.1953125-1.9013672 55.7753906zm1.8637696-94.7827148c.2460938 1.5473633-1.4453125 2.4638672-2.6616211 1.7490234.015625-1.0800781.027832-2.159668.0400391-3.2392578 1.0971679-.3515625 2.4121093.175293 2.621582 1.4902344zm-41.5605469-41.7685547c3.1293945-.1625977 6.2915039.3330078 9.2241211 1.4360352 3.8564453 1.4511719 6.5551758 3.9204102 9.2724609 6.9008789 1.6118164 1.7680664 3.2148438 3.5234375 5.4570313 4.4819336 5.2792969 2.2568359 10.9111328-.8457031 15.6875-2.9423828 6.3647461-2.7939453 16.9814453-6.0585938 20.652832 1.5708008-6.9755859 4.2456055-14.9272461 5.4272461-22.8798828 3.3754883-.9350586-.2412109-1.3344727 1.2050781-.3989258 1.4462891 8.2568359 2.1303711 16.5830078.9487305 23.8432617-3.409668.0996094.3129883.190918.6386719.2709961.9804688.3066406 1.3027344.6152344 3.9609375.4233398 5.4213867-.4770508 3.6381836-2.0791016 4.1142578-4.6518555 5.2617188-4.1376953 1.8457031-8.6113281 3.1704102-13.0942383 3.8432617-8.3662109 1.2558594-17.1948242.1601563-24.7172852-3.8310547-10.1875-5.4052734-17.7998047-18.9614258-30.2993164-18.5800781-1.0893553-4.1528322 8.7651369-5.8281252 11.2099611-5.9550783zm24.7880859 41.1337891c-.2792969-.8701172.6098633-1.5639648 1.3867188-1.6376953.6694336-.0634766 1.2856445.2177734 1.8359375.5698242-.0458984.7353516-.0913086 1.4707031-.1367188 2.206543-1.227539.15625-2.6860351.1064453-3.0859375-1.1386719zm-5.3129883 38.7270508c2.2270508.2104492 4.4423828.2451172 6.6967773.0551758.0527344-.0048828.0986328-.019043.1484375-.0273438-.0214844 2.6103516-.0234375 5.2197266.0097656 7.8271484.0009766.0654297.0131836.1235352.0209961.1850586-2.4199219.4453125-4.7758789 1.0844727-7.0615234 1.8969727.0620118-3.3125.1235352-6.625.1855469-9.9370117zm21.4873047 105.6450042c-15.1933594 7.9560547-34.4487305 6.7915039-46.3427734-6.4443359-12.4829102-13.8906097-13.3110352-34.8661957-7.1455078-51.7309418 7.1601563-19.5854492 24.8842773-36.8500977 46.5615234-37.1660156-.0961914 3.3642578-.1459961 6.7294922-.1757813 10.0952148-.7910156.0942383-1.6303711.2250977-2.4853516.3979492-27.184082.9682617-44.6049805 37.8950195-34.7236328 61.5756836 1.0761719 3.5913086 2.7548828 6.9868164 5.0551758 9.9584808 5.6801758 7.3598633 15.2099609 11.7998047 24.4399414 10.6899414 6.6303711-.7998047 12.7099609-4.25 17.800293-8.5800781 6.0390625-5.1450043 10.8725586-11.6362152 14.2070313-18.8295746 2.328125 1.5078125 4.652832 3.0214844 6.9731445 4.5415039-5.2114258 10.7289887-13.527832 19.9228364-24.1640625 25.4921723z"/><path d="m70.4094238 153.4417267c8.2080078.3925781 14.3125-5.9746094 14.9482422-13.8110352.0322266-.1362305.0527344-.2817383.0439453-.4467773.0087891-.1625977-.0112305-.3061523-.0429688-.440918-.6103516-7.5615234-6.3120117-13.8544922-14.2524414-13.8544922-7.7504883 0-14.3300781 6.5205078-14.2954102 14.2954102.0341798 7.5234375 6.0708009 13.8979492 13.5986329 14.2578125z"/><path d="m59.763916 66.3489532c.0336914 7.5229492 6.0703125 13.8979492 13.5981445 14.2578125 8.83461.4225464 15.3485336-7.5953903 14.9926758-14.2578125.3005829-5.8879128-5.1999893-14.295414-14.2954102-14.295414-7.7504882.0000001-14.3305663 6.5205079-14.2954101 14.295414z"/><path d="m143.9416504 20.5574455c-7.7504883 0-14.3305664 6.5200195-14.2954102 14.2949219.0336914 7.5234375 6.0703125 13.8979492 13.5981445 14.2578125 8.8522797.4233932 15.3467712-7.6086311 14.9926758-14.2578125.3015137-5.8882256-5.1994323-14.2949219-14.2954101-14.2949219z"/><path d="m213.8239746 37.2898674c-7.7504883 0-14.3305664 6.5200195-14.2954102 14.2949219.0336914 7.5234375 6.0703125 13.897953 13.5981445 14.2578163 8.2080078.3925781 14.3125-5.9746132 14.9482422-13.811039.0327148-.1362305.0532227-.2817383.0444336-.4467773.0087891-.1621094-.0117188-.3061523-.0429688-.440918-.6108397-7.5610351-6.3120116-13.8540039-14.2524413-13.8540039z"/><path d="m219.213623 112.6092072c.0336914 7.5229492 6.0708008 13.8974609 13.5981445 14.2578125 8.2080078.3925781 14.3125-5.9750977 14.9482422-13.8110352.0327148-.1367188.0532227-.2822266.0444336-.4467773.0087891-.1625977-.0112305-.3061523-.0429688-.4414063-.6103516-7.5610352-6.3120117-13.8540039-14.2524414-13.8540039-7.7504882 0-14.330078 6.5200195-14.2954101 14.2954102z"/><path d="m71.8166504 164.529129c3.0351563 6.1044922 6.7182617 11.7729492 11.0092773 17.0668945 1.2158203 1.5004883 3.3271484-.6337891 2.1210938-2.1210938-4.1274414-5.0922852-7.6225586-10.5922852-10.5395508-16.4594727-.8598633-1.7290038-3.4482422-.2109373-2.5908203 1.513672z"/><path d="m89.4821777 174.5042267c-1.3193359-2.1831055-2.6381836-4.3662109-3.9575195-6.5493164-.9970703-1.6503906-3.5922852-.144043-2.590332 1.5141602 1.3188477 2.1831055 2.6381836 4.3662109 3.9575195 6.5493164.9970703 1.6503906 3.5922852.1445312 2.590332-1.5141602z"/><path d="m52.8508301 93.9046173c-.9228516 6.9482422-.8569336 13.8012695.090332 20.7416992.2597656 1.9042969 3.1508789 1.0932617 2.8930664-.7978516-.9086914-6.6542969-.8671875-13.2905273.0166016-19.9438477.2534179-1.9077147-2.7490235-1.88916-3 .0000001z"/><path d="m64.435791 91.5457306c-.6035156 3.1835938-.7773438 6.3579102-.4501953 9.5849609.1933594 1.9023438 3.1953125 1.9223633 3 0-.2993164-2.9521484-.2104492-5.8691406.3427734-8.7871094.3574219-1.8867187-2.5332031-2.6953124-2.8925781-.7978515z"/><path d="m106.7941895 23.7732658c-9.6450195 4.6220703-17.7651367 11.2983398-24.2919922 19.7583008-1.1782227 1.5273438 1.4267578 3.0229492 2.590332 1.5141602 6.1982422-8.0336914 14.0751953-14.3012695 23.215332-18.6821289 1.7407227-.8339844.2207032-3.4213867-1.5136718-2.5903321z"/><path d="m108.4143066 32.9173088c-3.746582 1.7041016-7.1362305 3.9833984-10.1650391 6.7675781-1.4243164 1.3095703.7016602 3.4267578 2.121582 2.121582 2.8452148-2.6157227 6.0419922-4.699707 9.5576172-6.2988281 1.7548829-.7983398.2319337-3.3847656-1.5141601-2.590332z"/><path d="m190.6252441 29.3035393c-6.3740234-3.0629883-13.0620117-4.8867188-20.1074219-5.4863281-1.9233398-.1635742-1.9125977 2.8369141 0 3 6.5087891.5541992 12.7055664 2.2475586 18.5932617 5.0766602 1.7319337.8325194 3.2553712-1.7534181 1.5141602-2.5903321z"/><path d="m236.638916 87.0174103c.2880859-6.3359375-1.7236328-12.2026367-5.675293-17.1386719-1.206543-1.5068359-3.3168945.6279297-2.1210938 2.121582 3.4575195 4.3188477 5.046875 9.5092773 4.7963867 15.0170898-.0878905 1.9301759 2.9121095 1.9257813 3.0000001.0000001z"/><path d="m228.1193848 88.9866486c-.3198242-3.8598633-1.3603516-7.4960938-3.1577148-10.9277344-.8959961-1.7109375-3.4858398-.1958008-2.590332 1.5141602 1.5444336 2.949707 2.4726563 6.0942383 2.7480469 9.4135742.158203 1.9106445 3.1596678 1.9272461 2.9999999 0z"/></g></g></svg>