<svg id="Layer_1" enable-background="new 0 0 300 300" height="512" viewBox="0 0 300 300" width="512" xmlns="http://www.w3.org/2000/svg"><g id="Updates"><g><path d="m22.8655262 159.465744c13.2202129-2.8867188 26.4331036-5.8071289 39.640625-8.7529297 2.725029 3.1317444 32.5106506 29.3268433 45.0961914 41.3745117.7944336.7607422 1.8237305.3999023 2.3056641-.2983398 6.2700195.4589844 9.0717773.5649414 15.3046875 2.2167969 43.5298309-32.8805542 43.2745209-31.7540283 52.5307617-37.0327148 1.3886719 1.3491211 2.7666016 2.7089844 4.1699219 4.0424805.4575195.4345703 1.262207.6098633 1.8178711.234375 29.5031586-19.9313965 86.9822845-53.6726913 94.8042145-60.5126953.6132813-.5361328.5864258-1.2192383.246582-1.7387695-.0336914-.1074219-.0795898-.2163086-.1425781-.3261719-2.9135742-5.1030273-5.4077148-10.4169922-8.4580078-15.4467773-.4838867-.7973633-1.3383789-.8530273-1.9804688-.5146484-21.8022614-.6621094-43.6069489-1.2382813-65.4184723-1.4633789 8.1801605-23.6796684-5.1776276-48.2774963-26.9916992-56.1455078-17.5327148-6.3232422-37.7485352-.6191406-49.487793 13.8085938-11.5136719 14.1513672-13.1655273 34.4833984-4.0771484 50.2724609-7.4863281 1.9907227-14.9726563 3.9804688-22.4589844 5.9716797-.0576172.015625-.1054688.0395508-.1586914.0595703-.4711914-.0151367-.9462891.1899414-1.2612305.7148438-4.3242188 7.2133789-8.2563477 14.6367188-12.0048828 22.1630859-.3320313.6665039-.1459961 1.300293.253418 1.7299805 1.1557617 2.7856445 2.6660156 5.3803711 4.0151367 8.0639648-13.3754883 2.8774414-26.7568359 5.7270508-40.1518555 8.5087891-.309082-.0600586-.6518555-.003418-1.0014648.2387695-9.3759766 6.4990234-18.2665997 13.6650391-27.8002911 19.9404297-1.3829574.9101865-.4851017 3.2605588 1.2084942 2.8916013zm27.8813457-20.0834961c12.0199432-1.6323395 132.4843903-29.91745 216.968277-44.7495117-1.0493164 1.3422852-2.0117188 2.7529297-2.8232422 4.2089844-79.572937 20.9281464-155.6831665 38.6362305-235.640152 56.1523438 7.2285157-5.1147462 14.2211915-10.557129 21.4951172-15.6118165zm38.8061524-20.2177734c16.9921875-4.6884766 34.1225586-8.8266602 51.3725586-12.4511719 4.527832 2.2573242 9.4277344 3.7553711 14.4790039 4.3979492-13.3401794 2.6551895-51.702919 10.2887497-63.3642578 13.0546875-.8842774-1.6396484-1.7617188-3.2822265-2.4873047-5.0014648zm103.6572266-21.8583985c25.3374023-3.8500977 50.7919922-6.8203125 76.3047028-9.2250977.5478516.984375 1.0834961 1.9750977 1.612793 2.9692383-28.9904633 4.2167892-59.8049011 9.4126053-88.6811676 14.8178711 4.0395507-2.2832031 7.6577147-5.1865234 10.7636718-8.5620117zm79.2763824-3.7050781c.6025391 1.1450195 1.2119141 2.2866211 1.8251953 3.4262695-1.1660156-.4804688-2.3222656-.9853516-3.4697266-1.5239258.8129578-.9745483 1.5006409-1.6698226 1.6445313-1.9023437zm-205.0005035 57.7084961c7.859726 1.8459473 27.5860825 6.1563416 28.1293945 6.3017578 5.0261459 1.3902588 3.1242142.0073547 61.2563477-20.1030273 4.9208984 6.5209961 11.347168 13.7216797 15.0141602 19.328125-20.6083984 11.6030273-41.6674805 22.3974609-63.2280273 32.1245117-13.4750978-12.8212891-27.6406251-24.8911133-41.1718751-37.6513672zm115.6694336 6.7324219c-7.5302734-7.1923828-14.8354492-14.6147461-22.2485352-21.9267578 20.4584961-7.0458984 50.2758789-17.0854492 95.8945465-32.0693359 3.0864258-.8056641 6.1767578-1.5966797 9.2612305-2.4082031.5401306-.0263672.9579468-.3946228 1.1455078-.8120117.5244141-.9882813 1.1381836-1.949707 1.7924805-2.8876953 1.7617188.8432617 3.5454102 1.6020508 5.3496094 2.328125-6.5798341 4.9145278-86.8810425 54.9095305-91.1948395 57.7758788zm81.0634918-72.4472656c-22.777359 2.2192383-45.5039215 4.9121094-68.1406403 8.2773438 2.2285156-2.9619141 4.0976563-6.2016602 5.5595703-9.6401367 20.8652344.2031249 41.7246094.739746 62.58107 1.3627929zm-139.2519684-39.5307618c8.7841797-14.996582 26.515625-23.0922852 43.6064453-19.8325195 30.1607361 5.7537155 45.3942719 43.3147659 22.9902344 68.5219727-.0581055.0522461-.109375.1083984-.1533203.1694336-17.0213928 18.9435883-46.4889679 17.4283981-62.1557617-.9404297-11.3334961-13.2885742-13.1274415-32.8266602-4.2875977-47.9184571zm-24.3779297 51.9770508c7.7661133-2.0654297 15.5322266-4.1293945 23.2983398-6.1948242 3.4858398 5.1538086 7.9770508 9.4291992 13.1005859 12.6577148-15.4589844 3.3066406-30.8217773 7.0253906-46.0727539 11.1884766 3.0498048-5.9790039 6.237793-11.8813476 9.6738282-17.6513672z"/><path d="m137.9841766 86.6996307c-11.980957-17.3666992-3.0083008-41.0297852 16.9516602-45.9873047.206543 2.222168.5927734 4.4262695 1.1459961 6.5478516.2651367 1.0180664 1.2460938 1.2412109 2.0048828.9331055.6331024.0474815.5705109.0448265 8.1694336-5.7402344 1.5126953-1.1518555 3.9960938-2.28125 4.9135742-3.9799805.4956055-.9165039.019043-1.8525391-.8964844-2.2036133-13.829895-5.305006-13.1701355-5.074255-13.3339844-5.1015625-.956543-.1728516-1.6069336.378418-1.7924805 1.0585938 0-.0004883-.0004883-.0009766-.0009766-.0019531-.0874329.8293304-.4146881 2.545517-.3769531 5.5102539-21.9868164 5.3110352-32.7705078 31.0615234-19.375 50.4790039 1.0893556 1.5791016 3.6904298.0805664 2.5903321-1.5141602z"/><path d="m165.6633759 93.7040253c-.3291016-2.1782227-.8334961-4.3261719-1.4824219-6.3598633-.3720703-1.1665039-1.6782227-1.2700195-2.4291992-.7177734-.25.0405273-.5004883.1376953-.7358398.3242188-2.2563477 1.7890625-4.4316406 3.6723633-6.6230469 5.5390625-1.4135742 1.2041016-3.9990234 2.6176758-4.7905273 4.2919922-.4238281.8964844-.0834961 1.8867188.8964844 2.2036133 4.5283203 1.4628906 9.0605469 2.9145508 13.5888672 4.3774414.0014648-.0102539.0029297-.0200195.0043945-.0297852 1.2281647.3726425 1.8934937-.4455032 1.8242188-1.4414063.0058594.0058594.012207.012207.0180664.0180664.1738281-1.6933594.1821289-3.4301758.065918-5.1704102 21.7197266-6.3354492 30.9355469-32.9238281 16.6557617-51.4106445-1.1630859-1.5058594-3.7705078-.0141602-2.590332 1.5141602 13.0341795 16.8745117 5.1874998 40.6826171-14.4023439 46.8613281z"/><path d="m66.9016571 190.5292206c3.3334961-3.5 6.6669922-6.9995117 10.0009766-10.4995117 1.3310547-1.3979492-.7866211-3.5224609-2.121582-2.1210938-3.3334961 3.4995117-6.6674805 6.9995117-10.0009766 10.4990234-1.331543 1.3979493.7866211 3.522461 2.121582 2.1215821z"/><path d="m54.439743 205.6576385c-2.1855469 3.5336914-3.6865234 7.3779297-4.4521484 11.4619141-.3535156 1.887207 2.5371094 2.6958008 2.8930664.7978516.722168-3.8564453 2.0849609-7.4072266 4.1499023-10.7456055 1.0180665-1.6464844-1.5756835-3.1547852-2.5908203-1.5141602z"/><path d="m48.2668915 234.0028534c-.1538086 2.6674805-.3076172 5.3349609-.4614258 8.0024414-.1108398 1.9287109 2.8896484 1.9223633 3 0 .1538086-2.6674805.3076172-5.3349609.4614258-8.0024414.1108398-1.9287109-2.8896485-1.9223633-3 0z"/><path d="m54.3694305 255.516037c-1.2773438-1.4526367-3.3925781.675766-2.121582 2.1210785 2.4956055 2.8374023 4.9907227 5.6748047 7.4858398 8.512207 1.2773438 1.453125 3.3925781-.6757813 2.121582-2.1210938-2.4956054-2.8374023-4.9907226-5.6748046-7.4858398-8.5121917z"/><path d="m92.7830048 274.9554749c1.8613281-.5043945 1.0712891-3.3994141-.7973633-2.8930664-3.3408203.9057617-6.7124023.6494141-9.8442383-.8476563-1.7333984-.828125-3.2573242 1.7573242-1.5141602 2.5908203 3.8710938 1.8500977 8.0048829 2.2753906 12.1557618 1.1499024z"/><path d="m120.5920868 264.231842c4.4814453-3.0268555 8.9633789-6.0541992 13.4448242-9.0815277 1.5913086-1.0751953.0917969-3.675293-1.5141602-2.590332-4.4814453 3.0268555-8.9628906 6.054184-13.4448242 9.0815277-1.5913086 1.0751953-.0913086 3.675293 1.5141602 2.590332z"/><path d="m159.924118 244.0502167c3.3173828-3.3149414 7.2993164-5.5048828 11.8652344-6.5644531 1.8798828-.4365234 1.0844727-3.3295898-.7973633-2.8930664-5.0419922 1.1704102-9.5292969 3.6787109-13.1889648 7.3364258-1.3676758 1.3662109.753418 3.4882812 2.1210937 2.1210937z"/><path d="m198.274704 227.9349823c4.2402344-1.6611328 8.5717773-2.2973633 13.1088867-1.9169922 1.9238281.1616211 1.9130859-2.8393555 0-3-4.7856445-.4013672-9.4350586.2724609-13.9067383 2.0244141-1.7773437.696289-1.0039062 3.5986328.7978516 2.8925781z"/><path d="m245.040329 235.2899628c.8730469 1.7226563 3.4624023.2055664 2.590332-1.5141602-2.3789063-4.6933594-7.0175781-7.6293945-12.237793-7.9799805-1.9267578-.1298828-1.9189453 2.8710938 0 3 4.1992188.2817383 7.7587891 2.7680664 9.647461 6.4941407z"/><path d="m261.3308716 256.6112366c-.871582-3.7397308-2.4301758-7.2255707-4.6513672-10.3583832-1.1074371-1.5625-3.7099762-.0654297-2.5903473 1.5141602 2.0888824 2.9467773 3.5283356 6.1225586 4.3486481 9.6415863.4384765 1.8793945 3.3315429 1.0839843 2.8930664-.7973633z"/><path d="m265.8494263 276.0121155c-.1743164-2.6660156-.3491211-5.3325195-.5239258-7.9985352-.125-1.9165039-3.1259766-1.9306641-3 0 .1748047 2.6660156.3496094 5.3325195.5239258 7.9985352.1254883 1.9165039 3.1264648 1.930664 3 0z"/></g></g></svg>