<svg id="Layer_1" enable-background="new 0 0 300 300" height="512" viewBox="0 0 300 300" width="512" xmlns="http://www.w3.org/2000/svg"><g id="We_x2019_re_Hiring"><g><path d="m177.5627441 184.2417908c-9.0527344-.0019531-16.7133789 7.5175781-16.7197266 16.5795898-.0058594 9.0952148 7.8583984 16.3964844 16.8022461 16.4174805 12.5271912 1.6518402 23.6355286-9.1497955 19.0610352-21.2436523-2.5426483-6.7173463-8.7048034-11.753418-19.1435547-11.753418zm-13.7197265 16.5795898c-.0365143-8.9400787 6.8785553-13.3119507 13.7973633-13.1664886 6.6797638.1404419 13.3629913 4.4914703 13.7973633 13.007309-.3486786 8.5919342-7.074234 13.007309-13.7975311 13.1624298-6.8816377.1587676-13.7608949-4.1457368-13.7971955-13.0032502z"/><path d="m258.642334 265.5240173c0-5.8840027-26.2221985-9.1502991-31.9848633-9.8398438-.5493011-2.7682343-3.9376526-9.0233459-5.2861328-11.5078125-7.7561646-14.2947083-25.8476105-22.2847748-42.6210938-22.2714844-10.8286133-.6445313-21.9824219 2.3515625-31.465332 9.6586914-8.8229065 6.7985229-12.6496582 13.9961853-15.6777344 22.8217773-26.9423828 2.1455078-45.2446289 6.3256836-45.2446289 11.1386719 0 6.9897461 38.5698242 12.6499023 86.1396484 12.6499023 47.5703126.0000002 86.1401368-5.6601561 86.1401368-12.6499022zm-124.2192383-9.7084961c.3857422-3.3369141 2.5849609-7.3579102 4.2607422-10.2148438 8.40625-14.3295898 25.387207-22.3305664 41.7553711-20.9052734 17.4404297 1.5185547 32.699707 13.9741211 38.2368164 30.5004883 1.4534302 5.3016052 4.3016815 7.460144-4.1708984 7.6621094-8.784729.2108459-51.3527069.2828979-75.6835938-1.8789063-3.1748047-.2817382-4.9726562-.2006835-4.3984375-5.1635742z"/><path d="m153.9299316 198.0811462c-2.9643555-3.1489258-5.9282227-6.2983398-8.8920898-9.4477539-1.3261719-1.4086914-3.4448242.7158203-2.121582 2.121582 2.9643555 3.1494141 5.9282227 6.2983398 8.8920898 9.4477539 1.3261719 1.4086915 3.4443359-.715332 2.121582-2.121582z"/><path d="m164.501709 175.9717712c-1.987793-2.34375-4.012207-4.65625-6-7-1.2504883-1.4746094-3.3637695.65625-2.121582 2.1210938 1.987793 2.3442383 4.0126953 4.65625 6 7 1.2504882 1.4746094 3.3637695-.65625 2.121582-2.1210938z"/><path d="m187.5090332 169.4859314c-1.2963867-2.7788086-2.5932617-5.5576172-3.8901367-8.3364258-.8154297-1.7480469-3.4023438-.2260742-2.590332 1.5141602 1.296875 2.7788086 2.59375 5.5576172 3.8901367 8.3364258.8159179 1.7480468 3.402832.2265625 2.590332-1.5141602z"/><path d="m83.5412598 96.6885681c-.1669922.75-.8500977 2.0107422-1.0170898 2.7607422 4.284668 5.940918 8.4355469 12.1977539 12.6772461 18.2402344-6.228714 6.5344543-11.9337997 11.7623444-15.2050781 22.5180664-2.71875 8.940918-2.3461914 18.7900391 1.0410156 27.4995117 2.1767578 5.597168 5.546875 10.7421875 7.515625 16.3764648-.105957 2.7988281.8168945 5.4868164 3.4643555 7.4360352 13.131073 9.6684418 59.4154968-20.1093445 73.9228516-31.1948242 7.7568359-5.9272461 15.2744141-12.362793 21.5205078-19.9038086 3.1049805-3.7485352 7.059082-9.2368164 2.7456055-13.5698242-2.1210938-2.1308594-5.3544922-2.4335938-8.8251953-1.9047852-9.550766-20.2125549-29.2952271-29.9062653-57.4414063-20.0151367.0587006-1.0408173.1481323-.2981491-11.2744141-14.6499023-1.2016602-1.5102539-3.3120117.625-2.1210938 2.1210938 2.0019531 2.515625 4.0239258 5.0146484 6.0458984 7.5141602-5.7467499.9420853-16.80616 15.2122345-17.1591797 17.3608398-10.7817535-19.0572663-10.008522-17.8049394-10.3569336-18.0805665 3.5625-7.4956055 10.5371094-11.9194336 18.940918-11.7563477 1.9311523.0371094 1.9311523-2.9628906 0-3-.7338867-.0146484-1.4575195.0141602-2.1757813.0625-12.7558593-20.0727539-25.8608398-39.9209022-38.6079101-59.9995136-1.0322266-1.6254883-3.6293945-.1220703-2.590332 1.5141602 11.7675781 18.5351543 23.8295898 36.8803692 35.6508788 55.3808613-6.6206741-1.5418015-11.8943253 9.1526642-12.0708008 11.3012695-5.057785-7.219017-43.6117058-70.0598602-43.6748047-70.1630859-.8994141-1.4716797-3.0644531-.4199219-2.7875977 1.0019531-.215332 3.453125.1171875 2.9331055-.4008789 6.3271484 13.3769532 20.7460899 28.8066407 46.0766602 42.1835939 66.8227539zm105.1083984 35.2900391c-.3491211 4.2177734-4.3955078 7.6982422-7.1899414 10.659668-15.3206787 16.2335968-50.9342651 41.7517548-78.9926758 47.2998047-5.0073242.9902344-10.6391602.1904297-10.9785156-6.1694336-.2588806-4.843277 5.4091263-10.4550171 10.2163086-14.9458008-3.523468 4.158493-7.2488632 8.5643005-6.6958008 12.5693359.5732422 4.1523438 5.0249023 5.2954102 8.5976563 5.1738281 19.0569763-.648407 66.9059296-31.8960876 77.5087891-46.3452148 2.4018555-3.2734375 3.6518555-6.8730469-.6289063-8.9008789-2.0253906-.9594727-4.2470703-1.2270508-6.5249023-1.1376953 2.1816406-.640625 4.371582-1.2177734 6.5708008-1.7006836 3.3720702-.7407227 8.5014647-1.1450196 8.1171874 3.4970703zm-84.7441406 51.5615234c-6.2694168-.8584595-8.7456512-9.8603821 10.7314453-20.7900391 15.705658-8.8136444 34.8721924-15.8117218 45.9731445-18.6762695 16.634491-4.2921295 17.2145538-3.6444092 19.4335938-4.449707-1.7236328 2.2402344-4.2661133 4.4628906-5.6357422 5.7763672-2.7568359 2.6430664-5.7558594 5.0151367-8.8110352 7.3007813-12.2540283 9.1671905-46.5134811 32.9204406-61.6914062 30.8388671zm47.2163086-79.0996094c12.9213867 2.269043 21.6777344 9.9106445 27.2456055 21.1396484-4.3798828 1.1459961-8.7436523 3.137207-11.434082 4.0961914-20.3423004 7.2498169-65.9908447 28.9614105-76.2128906 47.315918-4.0714111-9.835434-10.5883179-18.6481323-5.8823242-34.3876953 3.84375-12.8564453 13.9936523-22.1875 25.5141602-28.3964844 11.7119139-6.3124999 27.3061522-12.1313476 40.7695311-9.7675781z"/></g></g></svg>