<svg id="Layer_1" enable-background="new 0 0 300 300" height="512" viewBox="0 0 300 300" width="512" xmlns="http://www.w3.org/2000/svg"><g id="Work_Schedule"><g><path d="m245.1358795 143.0116119c2.1254883-.6728516 4.2509766-1.3457031 6.376709-2.0175781.4580078-.1455078.262207-.8701172-.199707-.7236328-2.1254883.6728516-4.2509766 1.3457031-6.3764648 2.0185547-.4584962.1445312-.2626954.8691406.1994628.7226562z"/><path d="m251.1810455 142.4315338c-1.1992188.4306641-2.3981934.8613281-3.597168 1.2910156-.4509277.1621094-.2563477.8876953.1994629.7236328 1.1989746-.4306641 2.3981934-.8603516 3.5969238-1.2910156.4506837-.1621093.2563477-.8867187-.1992187-.7236328z"/><path d="m250.4539948 145.2674713c-.5273438.2646484-1.0751953.4433594-1.6550293.5527344-.4736328.0908203-.2729492.8134766.1994629.7236328.6435547-.1220703 1.2495117-.3349609 1.8344727-.6289063.4311522-.2167968.0517577-.8642578-.3789063-.6474609z"/><path d="m242.6649323 157.4344635c-.0263672 0-.0529785 0-.0793457 0-.482666 0-.4833984.75 0 .75h.0793457c.4824218 0 .4833984-.75 0-.75z"/><path d="m247.8167877 156.0868073c-.4824219 0-.4833984.75 0 .75.482666 0 .4833985-.75 0-.75z"/><path d="m255.0296783 154.5809479c-.4824219 0-.4833984.75 0 .75.4824219 0 .4833985-.75 0-.75z"/><path d="m260.1815491 154.1844635c-.4824219 0-.4833984.75 0 .75.4829101 0 .4833984-.75 0-.75z"/><path d="m245.6493073 158.8123932c-.0263672.0263672-.0527344.0527344-.0791016.0791016-.3417969.3417969.1884766.8720703.5302734.5302734.0263672-.0263672.0527344-.0527344.0793457-.0791016.3415528-.3417968-.1884765-.8720703-.5305175-.5302734z"/><path d="m251.9383698 156.5623932c-.0527344 0-.1054688 0-.1582031 0-.4829102 0-.4833984.75 0 .75h.1582031c.4824218 0 .4833984-.75 0-.75z"/><path d="m257.9623108 156.7205963c-.4824219 0-.4833984.75 0 .75.4824219 0 .4833984-.75 0-.75z"/><path d="m262.8763733 155.8495026c-.4824219 0-.4833984.75 0 .75.4829101 0 .4833984-.75 0-.75z"/><path d="m34.9872055 171.0995026c.0690918 0 .3129883 0 .3605957.0087891 3.15625 2.6835938 6.2475586 3.1005859 9.9528809 1.8515625 2.5372887-.8537598 1.8169441-2.1147766-.6340332-2.9326172-.7478027-.2490234-1.2458496-.5556641-1.7338867-.5097656.9558105-1.8232422 1.6008301-4.2949219 1.7844238-7.1064453 13.4020233-.1155701 12.3236885-.0497131 12.685791-.1591797.2457848 3.784668 1.8590622 9.9631805 5.5578613 10.3408203 1.3425293.4482422 2.8862305.3652344 4.1123047-.3369141.706543.1015625 1.4260254.203125 2.1315918.0957031 2.4275284-.3695831 3.4849548-1.4116211 1.1623535-2.7802734-.2807617-.1650391-.5625-.2099609-.8457031-.1962891 1.4067383-1.7910156 2.3251953-4.9365234 2.3251953-8.5976563 0-3.8387604-1.4747162-10.430069-5.2348633-10.1650391-.9619141-1.3330078-2.1081543-2.0429688-3.3344727-2.0429688-3.1293945 0-5.6210938 4.6601563-5.911377 10.8134766-.3136101-.0831451.4387856-.0876923-12.6274414.0283203-.322998-6.0625-2.7907715-10.6357422-5.885498-10.6357422-1.1586914 0-2.2258301.6523438-3.1293945 1.7724609-7.3636474-1.9871672-7.8152599 20.551758-.7363281 20.551758zm35.859375-10.3222657c0 4.9765625-1.8632813 9.1816406-4.0693359 9.1816406s-4.0703125-4.2050781-4.0703125-9.1816406 1.8642578-9.1816406 4.0703125-9.1816406 4.0693359 4.2050781 4.0693359 9.1816406zm-7.5693359-11.2080078c.720459 0 1.3364258.3623047 1.8369141.8310547-5.8219109 1.6332092-5.579422 19.0746765-.4213867 20.7285156-.0041504.0029297-.0083008.0068359-.012207.0097656-6.8671609 4.8208466-8.900982-21.5693359-1.4033204-21.5693359zm-24.4243164.2060547c2.4645996 0 4.5717773 4.2949219 4.8806152 9.6425781-1.1477051.0087891-2.295166.0214844-3.4431152.0244141-.2085648-.7059021-.6342316-1.7688141-1.3486328-1.5908203-1.5689621.4173126-1.7203178 6.59375.1083984 6.59375.8139572 0 1.210743-1.2007904 1.3691406-2.0039063 1.0976563-.0029297 2.1953125-.0146484 3.2927246-.0234375-.3701172 5.2060547-2.4416504 9.3388672-4.8591309 9.3388672-2.6689453 0-4.9233398-5.0332031-4.9233398-10.9912109 0-5.9570313 2.2543945-10.9902344 4.9233399-10.9902344zm-4.173584 1.6904297c-3.4622135 3.5808563-3.0514832 16.2641296.0334473 18.5996094-4.8760338-.7788697-5.2207089-17.6881714-.0334473-18.5996094z"/><path d="m241.7494049 96.2928696c-2.9321289 1.6650391-5.8647461 3.3300781-8.796875 4.9951172-1.6787109.953125-.1689453 3.5458984 1.5141602 2.5908203 2.9321289-1.6650391 5.8647461-3.3300781 8.796875-4.9960938 1.6787109-.953125.1689453-3.5458984-1.5141602-2.5898437z"/><path d="m199.313858 57.3290024c-1.2685547 2.3779297-2.5371094 4.7558594-3.8056641 7.1337891-.9084473 1.7021484 1.6801758 3.2197266 2.590332 1.5136719 1.2685547-2.3779297 2.5371094-4.7548828 3.8056641-7.1328125.9084473-1.7031251-1.6801757-3.2197266-2.590332-1.5146485z"/><path d="m97.7787094 65.9266586c-1.748291-2.6123047-3.4963379-5.2255859-5.2443848-7.8378906-1.0683594-1.5966797-3.6682129-.0966797-2.5905762 1.5136719 1.748291 2.6132813 3.4963379 5.2255859 5.2443848 7.8388672 1.0683594 1.5966797 3.6682129.0966797 2.5905762-1.5146485z"/><path d="m51.6100082 101.2401352c2.6989746 1.0996094 5.3979492 2.1992188 8.0969238 3.2988281 1.7871094.7285156 2.5646973-2.1728516.7976074-2.8925781-2.6989746-1.0996094-5.3979492-2.1992188-8.0969238-3.2988281-1.7871093-.7285157-2.5646972 2.1728515-.7976074 2.8925781z"/><path d="m63.8600082 199.9159088c-3.1706543 1.6650391-6.3410645 3.3291016-9.5114746 4.9941406-1.7102051.8974609-.1953125 3.4873047 1.5141602 2.5898438 3.1704102-1.6640625 6.3408203-3.3291016 9.5114746-4.9931641 1.7102051-.8974609.1953125-3.4873047-1.5141602-2.5908203z"/><path d="m96.6698227 243.6629791c1.3991699-2.2363281 2.7983398-4.4726563 4.1977539-6.7089844 1.0268555-1.6416016-1.5678711-3.1494141-2.5905762-1.5146484-1.3991699 2.2363281-2.7983398 4.4726563-4.1975098 6.7099609-1.0268554 1.6416016 1.567627 3.1484376 2.5903321 1.5136719z"/><path d="m202.157608 244.2694244c-1.4931641-2.3857422-2.986084-4.7714844-4.479248-7.1572266-1.0219727-1.6328125-3.6186523-.1289063-2.5905762 1.5136719 1.4931641 2.3857422 2.9863281 4.7714844 4.4794922 7.1582031 1.0219727 1.6328126 3.6186523.1279298 2.590332-1.5146484z"/><path d="m238.6458893 207.3231354c1.6826172.9521484 3.1962891-1.6386719 1.5141602-2.5898438-2.378418-1.3466797-4.7573242-2.6923828-7.1357422-4.0380859-1.6826172-.9521484-3.1962891 1.6376953-1.5141602 2.5898438 2.378418 1.3466796 4.7573242 2.6923828 7.1357422 4.0380859z"/><path d="m180.4935455 47.4432602c-.6452637 2.2158203-1.2905273 4.4316406-1.9355469 6.6484375-.2705078.9287109 1.1767578 1.3251953 1.4462891.3984375.6452637-2.2158203 1.2905273-4.4326172 1.9355469-6.6484375.2705078-.9287109-1.1767578-1.3251953-1.4462891-.3984375z"/><path d="m112.0811996 49.3045883c.8479004 2.0068359 1.6958008 4.0136719 2.5437012 6.0205078.3742676.8857422 1.6665039.1220703 1.2949219-.7568359-.8476563-2.0068359-1.6955566-4.0136719-2.543457-6.0214844-.3742676-.8857422-1.6667481-.1220703-1.2951661.7578125z"/><path d="m42.0492172 129.9793854c-.9558105-.1181641-.9470215 1.3828125 0 1.5 1.690918.2109375 3.3818359.4208984 5.072998.6308594.9555664.1191406.9470215-1.3818359 0-1.5-1.691162-.209961-3.38208-.4199219-5.072998-.6308594z"/><path d="m50.1754379 120.8006821c-1.690918-.4228516-3.3818359-.8457031-5.0727539-1.2685547-.9367676-.2333984-1.3361816 1.2128906-.3986816 1.4472656 1.690918.4228516 3.3818359.8447266 5.0727539 1.2675781.9365234.234375 1.3361816-1.211914.3986816-1.446289z"/><path d="m181.0335846 253.5194244c-.5551758-1.7880859-1.1105957-3.5761719-1.6657715-5.3642578-.2854004-.9189453-1.7338867-.5273438-1.4465332.3984375.5551758 1.7880859 1.1105957 3.5761719 1.6657715 5.3652344.2854004.9189453 1.7338867.5263672 1.4465332-.3994141z"/><path d="m251.7313385 118.5614243c-1.902832.6328125-3.8056641 1.265625-5.7084961 1.8984375-.9116211.3027344-.5209961 1.7519531.3989258 1.4462891 1.9025879-.6328125 3.8051758-1.265625 5.7080078-1.8974609.9116211-.3037111.5209961-1.7529298-.3984375-1.4472657z"/><path d="m130.4803619 225.457901c.6066895 11.7333984.7333984 23.4716797.3811035 35.2158356-.0256805.8640442.8636475.7537842 1.630127.6347656.5478516.359375 1.1103516.8515625 1.3442383 1.2958984 8.7019043-1.1484375 17.1245117-1.7041016 25.8793945-1.0761719-.0537109-10.5625153.3503418-20.7002106.296875-31.261734-.0024414-.4765625-.6379395-1.0185547-.9890137-1.4648438.0058594-.1064453.0090332-.2128906.0148926-.3193359.0546875-.9638672-1.4455566-.9609375-1.5 0-.576416 10.1962891-.328125 20.3867188-.2602539 30.5908356-8.3505859-.9130859-16.6083984-.5234375-24.8994141.7470703.3186035-11.3652496.1933594-22.7246246-.3862305-34.0800934 8.8579102.4921875 17.7138672.6318359 26.5839844.4003906.9633789-.0244141.9672852-1.5253906 0-1.5-9.1542969.2382813-18.2937012.0908203-27.435791-.4414063-.8314056-.0479735-.6865997.7319948-.6599121 1.2587892z"/><path d="m133.3578033 232.5096588c.0366211 2.4462891.0625 4.8925781.0991211 7.3388672.0046539.3329315.3895569 1.046463.9331055 1.0224609 3.744873-.1660156 7.4897461-.3330078 11.234375-.4990234.9614258-.0419922.9667969-1.5419922 0-1.5-.0661621.0029297-.1323242.0058594-.1984863.0087891.0161133-1.0830078.0302734-2.1660156.0446777-3.2490234.9833984-.0390625 1.967041-.0644531 2.9509277-.078125-.1491699 1.3408203-.2980957 2.6816406-.4472656 4.0224609-.1066895.9580078 1.3942871.9511719 1.5 0 .1767578-1.5898438.3537598-3.1796875.5305176-4.7705078.0573578-.5159149-.4012146-.7740936-.8823242-.7705078-1.2109375.0097656-2.4211426.0488281-3.6311035.0957031.0227051-1.7324219.045166-3.4658203.0715332-5.1992188.0078125-.5244141-.4309082-.7539063-.8364258-.7080078-.6255798-.1610413-5.0083313-.2899323-5.9526367-.3046875-.3824768-.0074921-.9678802.2365112-.9304199.796875.064209.9580078.1281738 1.9169922.1921387 2.875-1.2536621.0263672-2.5058594.0791016-3.7568359.1689453-.5185853.0427704-.9291078.1977387-.9208986.75zm6.6806641 6.6103516c-.2158203-3.2275391-.4311523-6.4550781-.6467285-9.6826172 1.5554199.0341797 3.1091309.1054688 4.6611328.2128906-.045166 3.0996094-.0817871 6.1982422-.1279297 9.2978516-1.2954101.0566406-2.5910644.1142578-3.8864746.171875zm-1.4956055.0664062c-1.1977539.0527344-2.3952637.1064453-3.5927734.1591797-.0292969-2.0400391-.0537109-4.0800781-.0825195-6.1191406 1.0883789-.0703125 2.1774902-.1171875 3.2680664-.1386719.1357422 2.0332031.2714844 4.0654297.4072265 6.0986328z"/><path d="m154.8773346 243.9276276c-4.0649414-.3173828-8.1257324-.3808594-12.1984863-.1923828-.9611816.0439453-.9665527 1.5439453 0 1.5 4.072998-.1884766 8.1337891-.125 12.1984863.1923828.9624023.0742187.9577637-1.4257813 0-1.5z"/><path d="m154.1085358 248.0370026c-2.782959-.0419922-5.5656738-.0849609-8.3486328-.1279297-.9655762-.0146484-.9658203 1.4853516 0 1.5 2.782959.0429688 5.5656738.0859375 8.3486328.1279297.9655761.015625.9658203-1.484375 0-1.5z"/><path d="m149.1937408 252.5955963c-.9550781.0791016-.9633789 1.5800781 0 1.5.6743164-.0556641 1.3295898-.0253906 1.9912109.1171875.9411621.2041016 1.3432617-1.2412109.3989258-1.4462891-.7895507-.1708984-1.5844726-.2373046-2.3901367-.1708984z"/><path d="m160.5128326 56.8719711c.4353027-.4365234.8708496-.8740234 1.3061523-1.3105469.6821289-.6845703-.3781738-1.7460938-1.060791-1.0605469-.4353027.4365234-.8706055.8740234-1.3061523 1.3105469-.6821289.6845704.3781739 1.7451172 1.060791 1.0605469z"/><path d="m156.8707428 55.3260727c.4975586-1.7177734.7800293-3.46875.8598633-5.2548828.0429688-.9658203-1.4570313-.9628906-1.5 0-.0739746 1.6552734-.3452148 3.2646484-.8063965 4.8554688-.269043.9287109 1.1779785 1.3261718 1.4465332.399414z"/><path d="m152.9825592 53.0272446c-.1357422-2.8486328-.4672852-5.6679688-.989502-8.4716797-.1762695-.9482422-1.6223145-.546875-1.4462891.3984375.4975586 2.6728516.8066406 5.3583984.935791 8.0732422.0456544.9609375 1.5461427.9667968 1.5000001 0z"/><path d="m237.3180084 151.0643463c1.90625-.5546875 3.7253418-1.2529297 5.4897461-2.1621094-.5305176-1.75-1.1635742-3.5400391-2.0031738-5.1630859-.2158203-.0322266-.4309082-.0810547-.6430664-.1416016-.0056152-.0136719-.0112305-.0283203-.0170898-.0419922-.0949707-.2353516-.3422852-.2871094-.5283203-.2197266-.0673828-.0273438-.1442871-.0390625-.2355957-.0078125-1.8059082.5986328-3.6420898 1.0458984-5.5212402 1.34375-.0947266.015625-.1557617.0605469-.2001953.1152344-.2561035-.1171875-.6391602.1904297-.4887695.5429688.706543 1.6552734 1.4133301 3.3115234 2.1201172 4.9667969.0788574.1845703.2363281.2207031.3806152.1738281.0803223.0888672.1989746.1376953.3505859.0869141.0212402-.0068359.0427246-.0136719.064209-.0214844.4106444.1767578.821289.3525391 1.2321776.5283203zm-3.3117676-5.6708984c.0180664-.0009766.0334473.0048828.0522461.0019531 1.8671875-.296875 3.6921387-.7402344 5.4868164-1.3339844.5366211 1.3271484 1.0734863 2.6542969 1.6101074 3.9824219-1.7543945.5888672-3.5087891 1.1777344-5.2631836 1.7675781-.628662-1.4726562-1.25708-2.9453125-1.8859863-4.4179687z"/><path d="m220.390274 77.7928696c-1.2250977 1.3984375-2.6369629 2.6054688-3.8344727 4.0332031-.7507324.8945313-.3522949 2.6777344 1.0605469 2.5605469 3.0749512-.2548828 6.1496582-.5107422 9.2243652-.765625.9160156-.075386 1.3942261-.8334045 1.4909668-1.6074219.1032715-.8212891.2062988-1.6416016.3093262-2.4619141.0981445-.7822266-.7600098-1.5332031-1.5-1.5-.8964844.0400391-1.3947754.6621094-1.5 1.5-.0493164.3935547-.098877.7871094-.1484375 1.1816406-1.3793945.1142578-2.7587891.2285156-4.1381836.3427734 2.6989746-2.8378906 5.3518066-6.0634766 3.5793457-10.0380859-1.7663574-3.9609375-7.2641602-4.1132813-8.6740723.1464844-.6083984 1.8369141 2.2878418 2.6240234 2.8925781.796875 3.6245729-2.4376754 4.4624177 2.1307831 1.2380372 5.8115235z"/><path d="m213.8375397 219.6385651c-.0964355-1.921875-3.0969238-1.9326172-3 0 .1235352 2.4570313.2524414 4.9140625.3757324 7.3720703.0501709.9990387.9305573 1.5201111 1.6958008 1.4453125 1.6679688-.1630859 3.3388672-.2949219 5.0083008-.4423828.03125 1.6386719.0627441 3.2783203.0942383 4.9169922.0371094 1.9277344 3.0371094 1.9345703 3 0-.0769043-4.0107422-.1538086-8.0205078-.230957-12.0302734-.0368652-1.9287109-3.0371094-1.9345703-3 0 .0263672 1.3730469.0527344 2.7460938.0791016 4.1191406-1.2436523.1083984-2.4873047.21875-3.7312012.3291016-.0969239-1.9033204-.1953126-3.8066407-.2910157-5.709961z"/><path d="m73.4928207 230.0877838c.4416504 2.6054688 2.8181152 4.4648438 5.4462891 4.2451172 2.5595703-.2148438 4.5349121-2.2626953 4.7365723-4.8037109.244873-3.0810547-2.0444336-4.2587891-3.6950684-6.2900391 1.8166504-2.3212891 3.6682129-5.0654297 2.748291-8.1484375-.7963867-2.6679688-3.657959-4.2470703-6.3415527-3.8974609-2.6401367.3447266-4.8620605 2.5117188-4.9072266 5.2451172-.0510254 3.0986328 2.1975098 5.3515625 4.458252 7.1699219-1.4055176 1.8115234-2.84375 4.1289062-2.4455567 6.4794921zm6.0856934.9833985c-1.4289551.7988281-3.1860352-.2138672-3.1601563-1.8779297.019043-1.2451172.9921875-2.6416016 1.7687988-3.6298828 1.6860352 1.6884765 4.0729981 4.008789 1.3913575 5.5078125zm-3.3833008-16.7802735c1.7758789-.6650391 3.7949219.6513672 3.7717285 2.5654297-.0200195 1.6425781-1.2128906 3.1367188-2.1928711 4.3720703-2.1835937-1.9003906-5.4555664-5.4853515-1.5788574-6.9375z"/><path d="m66.4427719 85.5624008c.8029785-.1123047 1.2421875-1.1367188 1.0476074-1.8457031-.1952057-.7102051-.7747879-1.1478653-1.8762207-1.0429688.0681152-4.1347656.1364746-8.2695313.2045898-12.4052734.0209961-1.2636719-1.6787109-2.0263672-2.5605469-1.0605469-1.8388672 2.0146484-3.1052246 4.2480469-3.8620605 6.8701172-.536377 1.8583984 2.357666 2.6523438 2.8928223.7978516.1281738-.4443359.2817383-.8632813.4418945-1.2773438-.0410156 2.4990234-.0825195 4.9970703-.1235352 7.4960938-.5625.078125-1.1247559.1572266-1.6870117.2353516-.8032227.1123047-1.2421875 1.1367188-1.0476074 1.8457031.2375488.8642578 1.0395508 1.1601563 1.8452148 1.046875 1.5749513-.2197266 3.1499024-.4394532 4.7248536-.6601563z"/><path d="m70.0985336 82.8338852c-.8029785.1123047-1.2421875 1.1367188-1.0476074 1.8457031.2375488.8642578 1.0395508 1.1601563 1.8452148 1.046875 1.5749512-.2197266 3.1499023-.4404297 4.7248535-.6601563.8029785-.1123047 1.2421875-1.1367188 1.0476074-1.8457031-.2375488-.8642578-1.0395508-1.1601563-1.8452148-1.046875-.0102539.0009766-.020752.0029297-.0310059.0039063.0683594-4.1347656.1364746-8.2695313.204834-12.4052734.020752-1.2636719-1.6787109-2.0263672-2.560791-1.0605469-1.8388672 2.0146484-3.1052246 4.2480469-3.8618164 6.8701172-.5366211 1.8583984 2.3574219 2.6523438 2.8925781.7978516.1281738-.4443359.2817383-.8632813.4418945-1.2773438-.0410156 2.4990234-.0825195 4.9970703-.1235352 7.4960938-.5624999.0781249-1.1245116.1572265-1.6870116.2353515z"/><path d="m33.7823715 187.6825104c7.8544922 4.9697266 18.3588867 5.4277344 26.6164551 1.1611328 12.7968979-6.6114197 22.8344803-23.9238892 14.713623-39.8652344-5.1518555-10.1132813-16.3625488-16.0283203-27.6015625-14.71875-23.6504459 2.7574463-37.5038929 38.3796082-13.7285156 53.4228516zm-1.3337402-42.4033203c8.8110352-9.9316406 24.4824219-10.9306641 34.4343262-2.1025391 10.1130371 8.9707031 10.6848145 24.265625 2.1032715 34.4335938-8.9590187 9.5239258-24.6993866 11.8088837-35.7385254.8378906-8.6750489-9.0009766-9.2373047-23.6552735-.7990723-33.1689453z"/><path d="m154.5619049 271.1766663c9.4446411-4.8181458 24.3134003-22.8365936 15.0002441-41.1201324-5.2036133-10.2148438-16.5270996-16.1904297-27.8798828-14.8691406-18.4821701 2.1528625-26.3645706 22.1898041-26.6806564 31.2734375-.7067871 20.295761 21.1729813 34.0973662 39.5602951 24.7158355zm-28.119133-44.877945c8.9116135-10.0449219 24.7617111-11.0537109 34.8266525-2.125 10.2285156 9.0732422 10.8051758 24.5419922 2.1259766 34.8261871-9.1821289 9.7607422-24.5664063 11.2753906-34.8269043 2.1259766-10.0241623-8.9384918-11.0717697-24.7422027-2.1257248-34.8271637z"/><path d="m239.3861237 126.1112289c-12.2924805 4.0576096-20.0258789 15.7353439-19.722168 28.4619064-5.1435547-.0683594-11.3635254-.3447266-13.6496582-1.53125 3.5722656-1.9726563 7.9165039-5.5380859 9.3220215-8.9628906 1.4560547-3.5478516-1.9660645-6.6962891-5.5742188-6.7773438-4.3655396-.0984802-25.0668945 17.2322235-27.7314453 20.6787109.2363281-.6191406.1376953-1.3857422-.5454102-1.8691406-8.0836945-5.7198792-8.6385498 15.2808838-3.5195313 22.8154297-5.3630371.2363281-10.7265625.4589844-16.090332.6767578-1.6120605-.1933594-3.2231445-.3945313-4.8347168-.5957031 2.201416-2.7763672 3.5256348-6.2392578 3.5256348-10.0039063 0-2.3505859-.5195313-4.5839844-1.439209-6.609375.0092773-.8515625.0187988-1.71875.0285645-2.5996094 3.8432617.0136719 7.6887207.0625 11.5397949.1484375 1.9311523.0429688 1.9306641-2.9570313 0-3-3.8400879-.0859375-7.6743164-.1337891-11.5063477-.1484375.098877-8.7529297.215332-18.3466797.2878418-25.7988281 1.359375-1.6005859 1.5058594-3.6865158.9907227-5.7861252-.5-2.0390625-1.7922363-4.0390625-3.8740234-4.3095703.505127.0664063 2.364502-5.7119141 2.5703125-6.3427734 1.3641968-4.1867752 2.3384247-8.5684814 2.1757813-12.9677734-.0859375-2.3203125-.0900879-4.8046875-1.0820313-6.9248047-.5454102-1.1669922-1.3256836-2.2392578-2.3005371-3.0839844-1.0639648-.921875-2.126709-1.1240234-3.3649902-1.6308594-1.0048828-.4111328-1.6740723-1.5449219-2.7890625-2.0361328-.3515625-.1542969-.7216797-.2617188-1.0976563-.3427734-1.0456543-.7470703-2.3305664-1.0107422-3.5549316-.7236328-.1740723-.3525391-.3908691-.6738281-.6367188-.9667969 4.6665039.1142578 9.425293-.9501953 13.6733398-3.2314453 8.5900879-4.6201172 14.7900391-13.9804688 15.6999512-23.7402344 1.5639496-16.7704887-11.1776581-24.7343559-11.4228516-25.0380859-16.0976563-16.0419941-44.5947189-6.73633-47.9741135 15.7763672-1.2827148 8.5449219 1.4382324 16.7392578 6.7932129 22.8271484 2.5562592 3.71595 6.3961716 7.168045 10.2717209 9.6113281-.5270996 5.765625-1.4335938 16.4316406-3.3024902 19.5859375-1.8457031-3.875-5.3273849-8.8886719-8.8713303-10.1787109-3.2543945-1.1855469-6.1450195 2.2607422-6.5185547 5.3125-.5310745 4.3360901 15.0059128 25.8231125 18.5761642 29.0488281-.4985352-.2714844-1.1123047-.2470703-1.5913086.3398438-2.0888672 2.5576096-.7416992 5.0371017 1.9785156 6.525383 4.046875 2.2148438 9.6098633 1.5644531 13.9377441.7431641 1.4084473-.2675781 3.5100098-.7519531 5.4379883-1.5263672-.1599121 7.7744141-.2072754 15.5498047-.2851563 23.3251953-2.684082-1.7197266-5.8945313-2.7285156-9.3464355-2.7285156-3.8427734 0-7.3796387 1.2568359-10.2297363 3.3486328.2229004-6.0722656.5644531-12.1298828 1.1235352-18.2285156.1760254-1.921875-2.8249512-1.9091797-3 0-.6491699 7.0830078-1.0163574 14.1083984-1.2265625 21.1679688-2.2866135 2.8056641-3.6633224 6.3378906-3.6633224 10.1826172 0 11.6082001 12.0955124 19.5726166 23.2182541 15.3115234 9.9526367.0820313 17.3110352.5966797 30.1191406-.1796875 3.3684082-.4160156 8.9609375.0449219 8.5192871-1.1142578 7.4855957 2.8779297 16.104248 3.3232422 23.9885254 1.8554688 2.067627-.3847656 4.1933594-.9628906 5.7641602-2.3613281 1.5710449-1.3984375 2.4018555-3.8271484 1.3984375-5.6757813 1.6105957-.5107422 2.8959961-1.9355469 3.2382813-3.5908203.4996948-2.4174042-.631546-3.9646149-.7807617-4.4462891.5407715-.3261719 1.0080566-.7529297 1.3828125-1.2402344.1889648.3203125.3945313.625.5939941.9355469 2.295166 5.4492188 7.4504395 10.2167969 11.9663086 13.1767578 7.7736816 5.0966797 18.4440918 5.4140625 27.0373688.8027344 32.7349853-17.5625763 8.4224548-66.9479065-23.6338043-56.3662034zm4.2678222 1.985344c13.6911774-2.5771408 27.197525 6.8017578 29.8947906 20.4003906 1.7304688 8.7236328-1.4238281 17.5390625-7.5512695 23.4541016-3.9453125 3.5761719-8.8681641 6.0195313-13.9448395 6.8837891-10.9311523 1.5878906-21.892334-4.2275391-26.8505859-14.1816406 3.715332.1875 7.548584.0830078 10.0788574-.7832031 5.8656616 4.2590637 7.1747589 5.1999817 7.5362091 5.3734589.1291504.0619812.1373291.026001.1891327.0083771 9.4501953-3.203125 18.9008942-6.40625 28.3510895-9.609375.1699219.0273438.3564453-.0410156.4233398-.25.2558594-.796875.5112305-1.59375.7666016-2.390625.2128906-.265625.2651367-.640625-.0639648-.9365234-2.3520508-2.1074219-5.0942383-3.7353516-7.5439453-5.7226563.5048828-.1933594.5166016-.7919922.2119141-1.1474609-1.9267578-5.1640625-3.6796875-10.3720703-5.1469727-15.6855469.1069336-.4814453-.2680664-1.0927734-.9047852-.9414063-10.2710114 2.4394531-20.3886871 5.421875-30.1391754 9.4941406-.27388.116745-.3026733.1112213-.4938965.4296875-.4992676.7138672-.998291 1.4287109-1.4975586 2.1425781-.1020508.1455078-.0771484.2880859.0070801.390625.9006348 3.2636719 1.7226563 6.5478516 2.6079102 9.8144531-2.8580475-.2810669-3.6989899-.2348938-6.9150391-.2441406-.2663574-12.6982423 8.166748-24.0869141 20.9851074-26.4990235zm-10.2766113 27.4404297c-1.1245117-4.0957031-2.2141113-8.2011719-3.3759766-12.2861328 9.282959-3.8261719 18.8925781-6.6806641 28.6469879-9.0283203 1.4067383 5.0507813 3.0693359 10.0078125 4.8930664 14.921875-9.1928864 2.0009766-18.15065 4.7509766-26.8772125 8.2587891-.8764648-.8935548-2.0270996-1.4775392-3.2868652-1.866211zm10.3222656 9.915039c-1.875-1.2783203-3.786377-2.5019531-5.6967773-3.7265625.39151-1.0139618.0853271-2.1218719-.4272461-3.0800781 8.3095703-3.3085938 16.8291016-5.9296875 25.5595856-7.8740234 2.2724609 1.9746094 4.8701172 3.5498047 7.2099609 5.4414063-8.8955078 3.0410155-17.7470856 6.2070312-26.6455231 9.2392577zm-63.7285156-6.7509765c.5620117.3984375 1.1113281.3203125 1.5187988.0107422-.348877.4882813-.6838379.984375-.9882813 1.4970703-.9885254 1.6630859 1.6040039 3.1738281 2.5905762 1.5136719 3.9938965-6.7216797 12.4111328-11.8554688 18.5412598-16.3828125 1.5683594-1.1582031 3.2043457-2.6464844 4.9526367-3.5126953 2.0063477-.9951172 7.3823242-2.9091797 4.845459 2.6337891-1.1572266 2.5283203-6.4428711 5.8652344-8.5083008 6.7832031-.6230469.2763672-.8173828 1.0947266-.6894531 1.6933594.1064453.4970703.2128906.9941406.3190918 1.4912109.1022949.4785156.5673828.9482422 1.0476074 1.0478516 7.7780762 1.6181641 15.4995117 1.6142578 23.3928223 2.1650391 1.4321289.1005859 7.1391602.0849609 7.4658203 1.9882813.2924805 1.7041016-2.4768066 1.953125-3.4084473 2.0712891-5.1635742.65625-10.7282715-.3779297-15.8164063-1.1074219-1.8884277-.2705078-2.7041016 2.6191406-.7973633 2.8925781.8886719.1279297 3.5332031.5439453 6.7475586.8613281 1.4533691 2.3271484-3.0817871 2.0976563-4.2661133 1.9609375-1.5803223-.1835938-3.1625977-.3417969-4.7475586-.4785156-1.9233398-.1660156-1.9121094 2.8349609 0 3 2.0585938.1777344 4.690918.8691406 7.0029297.7519531.9824219 1.6318359-2.3476563 2.5058594-3.4682617 2.5234375-1.5400391.0234375-3.0888672-.2558594-4.5996094-.5126953-1.8884277-.3222656-2.699707 2.5683594-.7973633 2.8925781 4.0283051.6882019 2.4525757.2802124 3.3010254.8339844 3.2546387 2.1269531-2.2966309 2.8505859-3.5654297 2.8632813-2.6523438.0253906-5.3618164-.234375-8.0053711-.4013672-5.605957-.3535156-11.4924316-.2910156-16.0498047-4.0322266-1.4807129-1.2158203-3.6149902.8955078-2.1213379 2.1210938.5097656.4189453 1.0268555.7900391 1.5483398 1.1396484-7.3213957 7.858795-10.633972-21.9802401-5.444824-18.3085939zm-59.0527268-114.1288987c4.3999023-11.1943359 16.5949631-17.79883 28.3666916-15.5156269 17.1420441 3.325304 26.0034027 23.1387119 16.8378906 37.8720703-.3583984-.2490234-.7631836-.4287109-1.1982422-.4931641-2.0239258-.3017578-5.0732422 3.6015625-6.3005371.5761719-.0856934-.2109375-.2353516-.3457031-.4060059-.421875.5681152-1.3125.9072266-2.9228516.9946289-4.8095703.0112305-.2412109-.1462402-.5429688-.3713379-.6474609-2.567627-1.1933594-5.2346191-2.1806641-8.1071777-2.2539063-2.5715332-.0654297-2.1508789.1474609-3.6831055 1.3525391-.2568359.5976563-.4304199 1.2236328-.5209961 1.8779297-1.1328125.6523438-1.9995117.5195313-2.6005859-.3964844-1.3261719-.7265625-2.7182617-2.6914063-3.8203125-3.7294922-1.348877-1.2705078-2.7485352-2.4824219-4.1240234-3.7246094-.8237305-.7431641-7.8549805-6.3339844-1.0119629-7.1591797.5181427-.0618286.896637-.7904854.9089355-1.0859375.1748047-4.1103516-3.0986328-11.8251953-8.1857834-8.8349609-2.595459 1.5253906-3.7883301 3.3720703-4.0817871 5.3554688-.6810303 3.4529686.1732712 5.4408112 1.6408691 8.6201172 1.3867188 3.0009766 3.1130295 5.5234375 5.4157639 7.8964844 3.0908203 3.1845703 6.185791 6.0585938 10.0463867 8.2480469 3.7849121 2.1464844 10.2426758 4.4003906 13.2976074 3.1484375 1.4265137-.3896484 2.5793457-1.2382813 3.4401855-2.4941406.894043 1.5292969 2.6162109 2.2246094 4.3569336 1.4150391.6391602-.296875 1.1547852-.9482422 1.8103027-1.1816406.9719238-.3466797 1.4611816-.3203125 1.7297363-.0917969-4.8330078 6.8691406-13.0737305 11.1796875-22.0170898 11.0683594.1506348-6.0478516-1.0385742-11.0839844-6.0688477-8.6113281-2.4545898 1.2060547-2.9487305 4.1533203-3.1791992 6.4189453-12.0058515-5.6113264-18.1406171-19.7490217-13.1689375-32.3984358zm25.7348557 23.1992188c-8.5983887-3.8662872-14.7878723-10.7858772-19.8298264-18.6181641-.970459-1.8818359-2.0039063-5.7021484-1.3251953-7.6787109.152832-.4453125.4423828-.8349609.814209-1.171875 1.8391037 2.3408203 3.3010178 4.9150391 4.1555099 7.78125-.4934082 1.7021484.9541016 4.0048828 3.3388672 6.2236328 10.9946442 10.2284698 11.6008911 11.606987 13.416748 10.0517578.1420898-.1220703.2341309-.265625.2993164-.4199219 4.4143066.2054291 6.9315796 1.5498428 9.6369629 3.0351563-.8223723 2.6107407-7.139511 2.3115616-10.5065917.796875zm-12.2644043-22.0761719c-1.2351074.2021484-2.1599121.5292969-2.8032227.9589844-.9191895-2.6025391-2.317627-4.9697266-4.0087814-7.1552734 1.426506-.6396484 3.2158127-.7802734 4.3225021-.2998047 1.9377442.8408203 2.5014649 4.53125 2.489502 6.4960937zm23.2929688 17.8808594c.1413574.7675781.1491699 1.4296875.0576172 2.0078125-2.979248-1.8427734-6.2568359-2.8789063-9.7346191-3.1123047 1.9338379-2.6484375 3.7937012-2.1875 6.3818359-1.484375.7473145.1660156 1.4619141.4277344 2.144043.7841797 1.4138183.0546875 1.7976073.65625 1.151123 1.8046875zm-11.4040528 67.1259689c-1.6713867.265625-3.5256348.4169922-5.2324219.4267578-.5683594.0039063-8.6384277-.9013672-7.0766602-2.8134766.5302734-.6494064.4243164-1.4228439.034668-1.962883.5739746.4882813 1.1638184.9501953 1.7768555 1.3720703 1.5942383 1.0966721 3.0961914-1.5019531 1.5141602-2.5908203-6.4326172-4.4257813-10.9118576-13.1894531-15.0302658-19.6591797-.8652344-1.3583984-7.9597168-11.4677734-1.5195313-10.9560547 2.3532715.1875 7.0239258 8.7412109 7.4462814 9.8994141.3056641.8388672.9819336 1.1679688 1.8452148 1.0478516.5031738-.0703125 1.0065918-.140625 1.5097656-.2099609.5-.0693359.9206543-.5947266 1.0478516-1.0478516 2.3271484-8.2919922 3.2138672-16.9882813 4.3447266-25.5048828.1174316-.8847656-.1186523-3.3330078.4753418-3.9296875 3.4682617-3.4863281 3.2202148 4.2080078 3.1740723 5.0478516-.2473145 4.5058594-1.2006836 8.9277344-2.1469727 13.3291016-.4047852 1.8828125 2.4863281 2.6875 2.8928223.7978516.1633301-.7607422.7158203-3.3310547 1.2011719-6.5244141 1.4606934-.8515625 2.1311035.9794922 2.1201172 2.0439453-.010376.9899597-.2361755 1.0274506-1.1242676 6.7050781-.2954102 1.8886719 2.5949707 2.7021484 2.8928223.796875.3347168-2.1396484 1.2558594-4.8486328 1.286377-7.2646484 1.7502441-.9804688 2.3342285 2.7548828 2.2712402 3.7724609-.0947266 1.5361328-.4953613 3.0615234-.8562012 4.5488281-.454834 1.8759766 2.4375 2.6757813 2.8928223.7978516.2172852-.8955078.9560547-3.0556641 1.0842285-3.2246094.8562012-1.1318359 2.1079102.4287109 2.4006348.9863281.420166.7988281.1931152 2.0927734.1506348 2.9589844-.1416016 2.8945313-.6677246 5.8515625-1.0598145 8.7148438-.7385254 5.3935547-1.1843262 10.8007813-5.0939941 14.9443359-1.3244629 1.4033203.7929688 3.5292969 2.1213379 2.1210938.151123-.1601563.2810059-.3251953.4238281-.4873047.1716309.1816406.402832.3271484.7141113.4013672 5.4943848 1.3154297-2.4440918 4.4589767-2.7480469 4.5634689-1.2089844.4140625-2.472168.6992187-3.7329102.899414z"/></g></g></svg>