<svg id="Layer_1" enable-background="new 0 0 300 300" height="512" viewBox="0 0 300 300" width="512" xmlns="http://www.w3.org/2000/svg"><g id="Be_Organized"><g><path d="m31.1187973 184.4324341s-2.5800781 2.1210938-3.8833008 3.1665039c-.3491211.1191406-.5864258.3349609-.7182617.6025391-1.203125 1.1494141.5561523 2.9584961 1.980957 2.1777344 2.2016602-.4106445 4.3999023-.8359375 6.5942383-1.2758789 46.5639877-5.6572876 53.0624008-9.6365204 63.4511719-14.668457-.8454742 4.0897369-.4965134 32.1132965-.4975586 32.2216797-.013916 1.1921997.2537155 2.1386414 1.4521484 2.2358398 11.0507813.9003906 21.6430664 4.7592773 30.50634 11.4638672 6.7988281 5.1425781 12.6103516 12.0976563 21.5170898 13.3061523 4.8677368.6637726 14.7660828.3064728 20.2446289.8374023 5.4443359-2.5898438 10.8745117-5.0151367 16.4472656-7.8979492-.8984833 9.2953491 7.7937622 10.0247803 14.1547852 8.3837891 1.5093842-.38974 1.3556976-.5143738 2.6274414.4506836 1.8460541 1.4033051 3.2542877 3.4128265 9.4404297 7.277832 2.6708984-1.3735352 5.1865234-3.0483398 7.4838867-4.9829102 4.5092773 3.2080078 9.387207 5.8979492 14.5068359 7.9995117 2.2714844-2.7036133 4.8535156-5.1459961 7.6791992-7.2636719 5.0273438.9448242 10.1176758 1.5566406 15.2260895 1.8305664.7285156-3.4199219-1.8100586-11.5810547-1.7397461-11.7856445.1362305-.3950195 7.9711914-3.2319336 10.4482422-6.4072266-1.5629883-2.6733398-3.1259766-5.3461914-4.6894531-8.0195313 1.8657227-.9301758 3.2387695-2.6743164 3.8076172-4.6616211.6575012-.3579254.6721802-1.1955872.7158203-1.7578125.0512695-.6538086-.5029297-1.2753906-1.1010742-1.4462891-2.2719727-.6503906-4.5375977-1.15625-6.8876953-1.4194336-1.0209961-.1147461-3.0283203.1616211-4.570816.1411133 1.3300934-2.0864258 2.6357574-4.4921875 2.9760895-6.7265625.1259766-.8295898-.2006836-1.5727539-1.0478516-1.8452148-1.5781403-.5078125-6.9751129-.6625977-10.0854645.2387695-1.1855469-3.3681641-2.8583984-9.4775391-6.2167969-9.4951172-2.5302734-.0131836-5.3164063 3.0742188-7.590332 5.0839844-.168457-1.1416016-.2626953-2.3046875-.6098633-3.3999023-.1796875-.5688477-.7871094-1.1801758-1.4462891-1.1015625-2.6938477.3212891-5.3876953.6450195-8.0810547.9672852.0898438-3.4418945.3027344-7.4580078-.8222656-10.5458984-.7702179-2.1095428-2.9032745-.7900391-4.6572266.6079102-1.8886719 1.5053711-3.8540039 2.9130859-5.7890625 4.3598633-1.4462891-8.65625-2.8076172-17.3588867-5.8540039-25.6176758-.5209961-1.4135742-2.3745117-1.4267578-2.8925781 0-.5932617 1.6323242-1.2021484 3.28125-1.5644531 4.9790039-2.4726563-1.1333008-5.8300781-1.8359375-7.6791992-.2539063-2.5019531 2.1411133-2.2436523 7.871582-2.1000977 11.609375-3.7626953-1.0136719-10.1435547-3.8842773-12.6704102-1.2363281-1.0751953 1.1259766-.9052734 3.2436523-.3100586 5.4521484-6.2207031-1.7216797-12.7851563-2.0830078-18.8574219-4.3188477-7.2207031-2.6591797-9.8608398-9.5107422-16.1455078-13.1660156-6.1010742-3.5483398-12.6049805-.0258789-18.4609299 2.3188477-5.5664063 2.2294922-11.1435547 4.4321289-16.7167969 6.644043 135.0440674-66.0539703 148.0616455-70.9999847 164.4545898-85.6782303 2.1396484-1.1586914 3.9794922-2.4257813 4.8969727-5.0571289 1.5615234-4.4780273.2680664-9.1542969-1.7504883-13.2573242-2.0854492-4.2402344-5.1015625-9.0913086-9.815918-10.7285156-4.0839844-1.418457-8.0512695.434082-11.7729645 2.0722656-12.6152344 5.5517578-24.5888672 12.4458008-37.0097656 18.402832-.8461914.4057617-.9179688 1.2241211-.5727539 1.8642578-29.6325073 14.3742371-144.6305542 72.1316605-145.815918 73.0752029-13.7514493 10.9814454-40.188461 34.2436524-40.188461 34.2436524m219.2866135-122.396492c11.1070709 5.0246277 15.2749786 13.3838272 14.0219879 23.2563477-.0019531.0170898.0004883.03125-.0009766.0478516-9.5570068 5.6935883-17.350708 9.6510925-29.3188629 16.0849609 1.5249023-9.565918-3.0039063-22.065918-12.7202148-25.1533203 1.2145843-.5988465 27.899826-14.1753159 28.0180664-14.2358399zm-164.5283127 110.0571365c-.8217773-.5102539 2.4760742-4.3725586 2.7729492-5.2250977.3798828-1.0917969.3925781-2.4379883-.2773438-3.4394531-1.6323242-2.4423828-7.7880859-.4882813-6.5878906-4.5742188.5-1.7006836 2.4306641-2.9023438 2.0102539-4.5917969 47.5663986-24.3447266 95.7153244-47.537117 143.8789063-70.6709061 3.7915039 4.6264648 5.3447266 11.5561523 4.4941406 17.2011719-48.1547852 24.9663086-96.831543 48.8154373-145.5869141 72.5752029.0161133-.4731444-.1855468-.9531248-.7041015-1.2749022zm134.5165939-93.2465896c2.4448242.5913086 4.527832 1.8691406 6.2392578 3.5869141-48.0717773 23.0893555-96.1264648 46.2392654-143.6020508 70.537117-2.0063477-2.0595703-6.6572266.2939453-8.4033203-1.3974609 48.6953202-24.0336992 96.8896485-49.0571367 145.7661133-72.7265702zm-148.2280197 74.4936599c.7905273 1.034668 1.6865234 1.5444336 3.1542969 1.7587891 1.027832.1503906 4.2705078-.8764648 4.9790039.1064453.355957.4936523-1.8183594 2.9936523-2.1064453 3.9697266-.7230835 2.448349.2756271 5.0259399 2.9067383 5.7441406.5703125.15625 1.4946289-.0820313 1.9702148.121582 2.40625 1.0307617 1.3242188 1.9233398.7446289 3.2294922-1.0629883 2.3969727-2.309082 4.4853516.3496094 6.2763672-2.4831009 1.2092896 2.8103867.1701813-37.4594727 9.0380859.1810684-1.6410675-.7260475-4.6478119-3.1010742-5.809082 9.4755859-8.1987305 18.8071289-16.5678711 28.5625-24.4355469zm54.8349609 61.3305664c-7.90625-4.8540039-16.7617188-7.6484375-25.9472656-8.609375.0864258-8.4604492.2612305-16.9199219.3798828-25.3798828.9936523 1.0371094 2.2075195 1.8974609 3.5947266 2.5561523 6.0146484 2.8554688 13.1362305 2.847168 19.3305664 5.5727539 9.5292892 4.1928711 17.0341721 13.3691406 27.3427658 15.6420898-.2539063 8.6860352-.5083008 17.3720703-.762207 26.0581055-9.4643555-2.0141601-15.913086-10.9125976-23.938469-15.8398437zm49.7856369-16.9541015c-3.3696289 1.5898438-7.878418 4.3696289-7.6948242 7.0986328.2250977 3.3461914 7.0048828 4.9589844 10.9477539 5.9277344-1.8916016 2.6049805-3.8876953 6.1992188-2.5493164 8.8730469-2.5274353 1.2241821-11.6794586 4.5588379-23.5317383 10.25.8013763-27.4289093.8115234-25.7129364.6572266-26.137207 6.6040039-2.2651367 13.0375977-4.9316406 19.2866211-8.0463867.9853516.7524413 1.9863281 1.4404296 2.8842773 2.0341796zm6.7900391-22.7583008c2.7475586-.534668 6.9863281 1.8989258 9.828125 2.1577148.8076172.0732422 1.5019531-.7470703 1.5-1.5-.0053711-2.2866211-.3227539-5.3686523.2900391-7.6000977.949707-3.4580078 4.0146484-3.9194336 6.862793-1.8847656.9790039.6987305 2.2158203-.2539063 2.2573242-1.2954102.0292969-.7402344.152832-1.4716797.324707-2.1953125 2.5703125 8.5991211 3.7119141 17.5712891 5.2988281 26.394043.1845703 1.0249023 1.1118164 1.2568359 1.8730469.9594727.1796875 1.3779297.4736328 2.7207031.7138672 3.7856445.0356445.1601563-.0703125.3115234-.2270508.3325195l-3.0410156.4086914c-.2036133.0273438-.3022461.2734375-.1777344.4433594l1.7724609 2.4121094c.1225586.1665039.0292969.409668-.1704102.4418945l-5.3051758.8686523c-.2270508.0371094-.3056641.3359375-.128418.487793l4.2939453 3.6762695c.1464844.1254883.1235352.3657227-.0444336.4584961l-4.6362305 2.5703125c-.2416992.1337891-.1552734.5146484.1186523.5219727l6.9477539.1879883c.1625977.0043945.2836914.1586914.2553711.3256836l-1.0117188 5.9526367c-.0419922.2485352.2304688.421875.4238281.2695313l4.9746094-3.9140625c.1298828-.1020508.3125-.0585938.390625.0898438.9555664 1.8129883 2.3603516 3.3681641 4.0405273 4.4731445.1572266.1035156.3676758.0063477.4052734-.1826172l1.1347656-5.6630859c.0302734-.1518555.1748047-.2485352.3203125-.2138672l3.4345703.8149414c.2519531.0595703.4301758-.2495117.2607422-.4521484l-3.1333008-3.7509766c-.0839844-.1005859-.0874023-.2495117-.0078125-.3540039l1.9541016-2.5683594c.1352539-.1782227.019043-.4399414-.1987305-.4492188l-5.0493164-.2099609c-.168457-.0073242-.2880859-.1723633-.2485352-.3422852l.7832031-3.3706055c.0537109-.2319336-.1811523-.421875-.3842773-.3100586l-4.1943359 2.3120117c-.1948242.1074219-.4262695-.0634766-.3925781-.2895508.9018555-6.0283203 2.3603516-11.9643555 4.3354492-17.7089844.4677734 2.8603516.2041016 6.1689453.1708984 8.8945313-.6117859 1.5217896 1.1035004 2.2455597 2.0673828 1.8349609 2.6279297-.3139648 5.2558594-.6293945 7.8842773-.9433594.1630859.9041595.4403839 3.5901947.8920898 4.6000977-1.3828125 2.5766602-2.7763672 5.1469727-4.1538086 7.7265625-.4545898.8510742.8398438 1.6098633 1.2949219.7568359 1.3569336-2.5395508 2.7280273-5.0708008 4.0898438-7.6069336 1.223053.0764313 4.4047852-2.8720703 6.2133789-4.3461914 2.4580078-2.003418 2.7773438-.3818359 4.1582031 1.9970703.9736328 1.6767578 1.6254883 3.6455078 2.4121094 5.4116211.4697266 1.0546875 2.0761719.9003906 2.590332 0 .0698242-.1220703 4.7524414-.2861328 7.2880859-.2275391-1.2656097 3.4820557-3.484848 5.7794342-3.5693359 6.6162109-4.2436523.5737305-8.487793 1.1474609-12.7314453 1.7216797-.9521484.1289063-.546875 1.5742188.3984375 1.4462891 4.3266602-.5849609 8.6533203-1.1699219 12.9799805-1.7548828 1.0296478.7078705 1.7752686.4176331 3.1518555.4033203 2.5854645-.0273438 5.1069489.2524414 7.6045074.7607422-2.1166992.7788086-5.1635742 1.9833984-5.9145508 2.3120117-.5449219.2382813-.9135895 1.1367188-.6889648 1.6938477.9814453 2.4375 2.4169922 4.7451172 3.7910156 7.0302734-8.5979919 1.1502228-10.5388947.2835999-11.4589996 1.09375-4.9038086-1.8598633-9.5390625-4.3149414-14.2866211-6.5332031-.8691406-.40625-1.6318359.8867188-.7573242 1.2949219 4.8344727 2.2587891 9.5585938 4.75 14.5493164 6.6484375.0512695.3652344.2241211.706543.5200195.9365234.2651367 2.1054688.5473633 4.2124023.7753906 6.3217773-3.5224609-.3007813-7.3740234-1.4243164-10.7514648-2.0239258-.609375-.3046875-1.4223633-.2006836-1.9604492.5253906-1.2788086 1.7275391-3.0751953 3.5146484-4.2641602 5.4150391-2.4384766-6.7290039-4.3066406-13.7460938-6.1201172-20.6630859-.2446289-.9331055-1.6918945-.5371094-1.4462891.3989258 1.7915039 6.8320313 3.6401367 13.7602539 6.0351563 20.4135742-2.9823456-1.0569153.793335-.0216217-10.2504883-3.7036133-.6879883-.2294922-1.277832.09375-1.6025391.6030273-1.5371094 1.4287109-2.8500977 3.9287109-4.2753906 4.9204102-2.0512695 1.4267578-2.9643555.3095703-4.1357422-1.4638672-.4829865-.731369-4.0583344-5.9672546-4.418457-6.2983398 1.8696289-3.5463867 3.7387695-7.0927734 5.6079102-10.6386719.449707-.8535156-.8442383-1.6123047-1.2949219-.7568359-1.9418945 3.6835938-3.8837891 7.3676758-5.8256836 11.0512695-2.7758789.9399414-5.3657227 2.4199219-8.1474609 3.3920898-3.2397461 1.1328125-4.5761719 1.059082-5.0185547-2.7587891-.2216797-1.9155273.3276367-4.2128906.4121094-6.1538086.0429688-.9887695-.9916992-1.6865234-1.8989258-1.4462891-.980957.2597656-5.2700195-.3305664-6.144043-.5805664-3.0185547-.862793-4.0483398-2.0175781-2.3193359-5.2099609.6171875-1.1391602 1.3652344-2.2231445 2.1831055-3.2226563.0083008-.0102539.0126953-.0214844.0209961-.0317383 4.5014648-1.5463867 9.0029297-3.0922852 13.5043945-4.6386719.9077148-.3115234.5180664-1.7612305-.3984375-1.4462891-4.2866211 1.472168-8.5727539 2.9443359-12.8588867 4.4165039-.1650391-.3540039-.472168-.6508789-.9301758-.8066406-1.4814453-.5048828-9.2773438-2.0483398-9.6606445-3.3847656-.6333008-2.2055664 5.2431641-4.9902344 7.0507813-5.5927734 1.2539063-.4179688 1.4492188-2.0151367.3583984-2.7412109-1.8653412-1.2419434-5.3365173-3.576889-6.5966797-5.1655273-1.7753906-2.2402344-2.246582-3.0498047.6586914-3.6699219 1.7468567-.372879 7.369278-1.2884521 8.7670898-2.0375977 4.3378906 2.5864258 8.7578125 5.0180664 13.2714844 7.2871094.8603516.4326172 1.6206055-.8608398.7568359-1.2949219-4.4677734-2.2460938-8.8432617-4.6523438-13.1386719-7.2094727.0962681-1.0498806-4.6148219-8.9356991-.8842769-9.662109zm-48.0654297-12.6748047c4.9790039-1.0336914 8.2265625 1.4077148 11.3774414 4.918457 3.8994141 4.3452148 7.3803711 7.7304688 13.0561523 9.6298828 6.559082 2.1948242 13.5639648 2.480957 20.1303711 4.6811523.2856445.7124023.5668945 1.3681641.8168945 1.9477539-2.7275391.5068359-6.8256836.7617188-9.5126953 1.9521484-1.4125977-.9707031-2.8256836-1.940918-4.2358398-2.9145508-.4672852-.3227539-.9101563-.0048828-1.0439453.4199219-1.953125.8354492-3.9057617 1.6704102-5.8588867 2.5053711-9.9335938-5.3092804 20.1978302 10.7996521-32.9531174-17.6132813-.2020416-.1085052-.6814041-.1198883-.8569336-.0522461-5.3144531 2.0449219-11.237793 3.6557617-15.7954102 7.1870117-.4289169.3325806-.4637756.8633423.722168 1.3344727 6.6206055 2.6079102 13.0380859 5.6655273 18.9697189 9.605957 1.0151367 1.7192383 3.4345703 2.6699219 5.6342773 2.5854492.1731415.1353607-1.5380402-.9120026 16.1811523 9.8745117.5000305.3055573.7936401.4946594 1.2006836.3017578 4.105957-1.9423828 8.2851563-3.699707 12.5454102-5.2753906.8974609-.3320313.5092773-1.7822266-.3989258-1.4462891-4.234375 1.5664063-8.390625 3.3120117-12.4765625 5.2299805-.1831665-.166748 1.2804718.7433624-14.9541016-9.140625 1.0581055-.4667969 1.8657227-1.2954102 2.1152344-2.5429688.5048828-2.5283203-2.559082-4.3017578-4.6123047-4.84375-2.5615234-.675293-5.1499023.3320313-6.1655273 2.8310547-.0039063.0097656-.0014648.0175781-.0048828.0273438-5.134758-3.2172852-10.6147385-5.8129883-16.2333908-8.0869141.0102539-.0024414.0180664.0009766.0283203-.0014648 4.0751953-1.0761719 8.1816406-1.7958984 12.3632813-2.2988281 11.4980392 6.5410156 23.16259 12.7705078 34.9946213 18.6855469.8608398.4306641 1.621582-.862793.7573242-1.2949219-.0722656-.0361328-.1435547-.0732422-.2158203-.109375-.1196289-1.0634766-.1738281-2.0844727-.5019531-3.4848633 2.1201172-.90625 4.2397461-1.8129883 6.359375-2.7192383 1.0058594.6938477 2.0131836 1.3862305 3.0205078 2.0786133-1.2285767.9915771-1.5345612 2.24617-1.1035156 3.6357422-.4746094.2397461-.9487305.4794922-1.4238281.7172852-.8632813.4321289-.1044922 1.7265625.7568359 1.2949219.4350586-.2177734.8696289-.4370117 1.3037109-.65625.4848633.7861328 1.1538086 1.5654297 1.9223633 2.315918-11.87677 5.8050842-18.4183502 7.3386078-19.2617188 7.9272461-8.8139648-2.1376953-15.3920898-9.7148438-23.2910156-13.8291016-3.7949142-1.9765625-7.834465-3.5170898-11.9863205-4.5498047-5.2480469-1.3056641-13.4638672-1.3779297-14.9521484-7.7060547 7.1992188-2.9003906 14.4257813-5.7329102 21.6367188-8.6049805 3.8466797-1.5322264 7.8637619-3.6689451 11.9462814-4.5166014zm136.3715973-81.2348709c-1.4526367.7788086-2.8798828 1.6000977-4.3012695 2.4311523.5688477-10.0141602-4.7797852-18.84375-13.6865387-23.1738281 2.1640778-1.0258789 4.3623199-1.9501953 6.577652-2.5673828 6.7158203-1.871582 10.6762695 3.996582 13.2319336 9.2783203 2.2856445 4.7231445 3.6513671 11.0961914-1.8217774 14.0317383z"/><path d="m91.9571762 161.8753052c44.8505783-21.6376953 89.7011642-43.27491 134.5517578-64.9126053.8691406-.4194336.109375-1.7133789-.7573242-1.2954102-44.8505859 21.6376953-89.7011719 43.2753983-134.5512695 64.9126053-.8696289.4194336-.109375 1.7133789.7568359 1.2954102z"/><path d="m233.0850983 77.3655319c5.1376953 2.4838867 8.5078125 7.3891602 8.8637695 13.1049805.0600586.9589844 1.5605469.9658203 1.5 0-.387207-6.21875-3.9804688-11.6806641-9.6064453-14.4003906-.8657227-.4179688-1.6269531.875-.7573242 1.2954101z"/><path d="m252.7144928 84.480278c.0952148.9511719 1.5961914.9609375 1.5 0-.5830078-5.8129883-3.4130859-10.840332-8.0673828-14.3657227-.7695313-.5830078-1.5180664.71875-.7573242 1.2949219 4.1904297 3.1743164 6.8002929 7.8422852 7.324707 13.0708008z"/><path d="m34.6837387 177.1912231c-3.3144531-1.4082031-5.0473633-5.2998047-5.4199219-8.8637695.6235352 3.5444336-.4189453 7.7172852-3.4321289 9.8959961 2.7675781.347168 4.7143555 2.6972656 5.2089844 5.4140625-.0898437-2.6640625 1.0869141-5.1196289 3.6430664-6.4462891z"/><path d="m32.418602 168.8982544c1.6855469.2119141 2.8710938 1.644043 3.1713867 3.2983398-.0551758-1.6225586.6611328-3.1186523 2.2182617-3.9267578-2.0180664-.8569336-3.0732422-3.2265625-3.2998047-5.3959961.3793946 2.1577149-.2553711 4.6982422-2.0898437 6.0244141z"/><path d="m24.4337387 169.1380005c-.0551758-1.6230469.6611328-3.1186523 2.2182617-3.9272461-2.0180664-.8569336-3.0732422-3.2265625-3.300293-5.3959961.3798828 2.1577148-.2548828 4.6982422-2.0893555 6.0249023 1.685547.2114258 2.8706056 1.6435547 3.1713868 3.2983399z"/></g></g></svg>