<svg id="Layer_1" enable-background="new 0 0 300 300" height="512" viewBox="0 0 300 300" width="512" xmlns="http://www.w3.org/2000/svg"><g id="Business_Statistics"><g><path d="m84.5450592 93.7858658c-1.1510468-.2385559-1.934494.8673935-2.0332031 1.6123047-1.1401367 8.6220703-.5673828 16.7089844 2.3779297 24.9169922.2122345.6032028.3949585 1.0080185 1.0478516 1.2470703 1.0620117.3886719 2.1401367.6787109 3.2275391.9160156-.8842773.5595703-1.7753906 1.1210938-2.5834961 1.7666016-.5934448.4776917-.9368439 1.3851089-.4057617 2.4472656 1.6054688 3.3535233 3.2109375 6.7060623 4.8164063 10.0595779.4437256.925705 1.9182892 1.0551758 3.5849609 1.4189453-.9194336 1.1533203-1.8217773 2.3212891-2.6352539 3.5517578-.5698242.5219727-.7840271 1.4440155-.3232422 2.0410156-1.555336 2.1369934-5.2564468 6.5140381-9.5825195 10.8242188-12.0170212 11.9720612-25.4160156 23.3306732-40.7304726 34.3232422-6.3037109 4.5244141-12.8686523 9.7373047-19.7695313 13.3105469-1.0195313.5283203-.8657227 2.0615234-.0097656 2.5976563l-.0595703.0253906 3.6611328 8.6601563c111.8884735 50.1824799 85.2740021 36.595459 109.6826172 47.0683441.099472-.1008911 19.1584625-19.0745392 19.6689453-19.5585785.3706818.1718903.7067871.3145905 3.7939453 1.6230469 57.3514862-37.3516235 43.3681183-28.5742188 45.5092773-30.0341797.6022339-.4090729.9224701-1.0089569.7241211-1.7324219-.4521484-1.6484375-1.4882813-4.1142578-1.2827148-5.8251953.0292969-.2431641.0395508-.3994141.0395508-.5039063.5805511-.8972168 1.4115753-1.1875763 2.1875-1.7548828 2.0165405-1.4773712 1.5954437-.6265564 5.2792969-.6113281 2.4949036.0121307 6.3660583 1.2484436 7.0942383-.8632813 4.3803711-2.6044922 8.7612305-5.2089844 13.1416016-7.8134766.6245117-.3710938.7993164-.9707031.6865234-1.5205078.0266113-.3929291.0622559.0104523-.5073242-4.0527344 2.4794312-1.3184814 11.1742401 2.0267944 11.7817383-1.1943359.1777344-.0400391.3608398-.1210938.5454102-.2587891 2.9516602-2.2050781 5.9375-4.3642578 8.8901367-6.5673828.487793-.1982422.8691406-.6367188.8691406-1.3232422 0-1.5517578 0-3.1044922 0-4.65625.1547852-.1113281.3081055-.2255859.4628906-.3378906.730835.0625916 1.4303284.1430817 1.7709961.1445313 1.2642365.0041351 4.4860382.2799683 5.7900238-.1269531.3964844-.1230469.6958008-.3154297.9130859-.5605469.0693359-.0224609.1391602-.0449219.2070313-.0751953 1.1206055-.4951172 2.2348633-1.0039063 3.3535156-1.5019531.732666-.1132965 1.3048706-.5900269 1.4125977-1.5498047 1.9459534-2.2906647 4.5960083-4.8266144 6.3510742-7.03125.2784729-.3532715 4.1149902-104.5759888 5.1337891-115.9794998.956543-.7080078.6552734-2.6757813-.8984375-2.75-38.7719574-1.859375-77.6196136-2.3525391-116.3984222-.4101563-1.8022461-.1318359-3.6054688-.25-5.4067383-.390625-.2986908-.019062-25.0021667-11.9264679-49.1328125 5.8095703-1.1704102.8603516-.5864258 2.5673828.4453125 2.8359375.1576004.0734711 3.690094 1.291153 4.5146484 1.5478516-8.4868164 9.4726563-14.9140625 20.9990234-18.2539063 33.2783203-1.5917969-.3691406-3.1821289-.7441406-4.7753906-1.1083984 2.3955078-12.3759766 7.5102539-21.9970703 16.7905273-30.8310547 1.4008789-1.3339844-.7226563-3.453125-2.121582-2.1220703-9.9487305 9.4707031-15.4106445 19.8789063-17.793457 33.3671875-.4267578.7792969-.2543945 1.8847656.8564453 2.1376953 18.0625 4.109375 36.0366211 8.5986328 54.1269531 12.5878906.921875.203125 1.581543-.3876953 1.7963867-1.0908203 9.1762695-13.1464844 18.2495117-26.3652344 27.4052734-39.5253906 4.0800781.265625 8.1523438.6396484 12.2299805.9433594-1.1237793 1.6840324-27.6340942 41.9086151-28.9594727 43.4560547-8.4855804 9.9062195-13.2862091 11.4496994-38.8354492 38.7959061-5.9892578-.6435547-12.0083008-.8984375-17.9804688-1.6699219.5341797-.9570313 1.0712891-1.9160156 1.659668-2.8710938 3.0307617.6630859 6.0615234 1.3261719 9.0922852 1.9882813.7041016.1542969 1.2568359-.1542969 1.574707-.6220703.0756836-.0400391.1518555-.0820313.2280273-.140625 11.2895508-8.6201172 21.3242188-18.6962967 31.7558594-28.302742.7396393-.6798935.8599396-2.4590607-.5625-2.7060547-1.7910156-.3105469-3.5693359-.6787109-5.3525391-1.0146484 2.2021484-.9375 4.4042969-1.8759766 6.6064453-2.8125 1.5166779-.6447067.571106-2.5931473-.6826172-2.7929688-5.1357422-.8173828-26.3368912-4.305481-31.4809647-5.0686798m161.3998985-50.6002656c-13.598999 1.4560928-6.1013489 2.4237137-77.3583832-1.140625 25.7871094-.459961 51.5874024.0214844 77.3583832 1.140625zm-129.4125824 49.5888672c-7.0549774-14.4429398-15.2865372-29.0388107-24.6879883-43.3574219 18.9126282-14.4005928 37.7062378-11.9486732 52.8369141 2.7597656-9.4194336 13.506836-18.7338867 27.0869141-28.1489258 40.5976563zm-27.0141601-45.3242188c-.0283203-.0087891-.0507813-.0214844-.0800781-.0292969-1.081543-.2734375-2.1386719-.6279297-3.1918945-.9941406 6.0004883-3.8720703 12.5751953-6.2626953 19.2700195-7.1904297-5.7607422 1.765625-11.2080078 4.506836-15.9980469 8.2138672zm.1884766 4.178711c8.8188477 13.4941406 16.7880859 27.4931641 23.8920898 41.9619141-13.9306641-3.1181641-27.8056641-6.4775391-41.706543-9.7236328 3.2646485-11.9052735 9.5292969-23.0976563 17.8144532-32.2382813zm40.6245117 51.7529296c5.2681274-5.8789368 3.4122925-4.873848 29.9243164-44.5966797 15.4433594 21.9160156 12.7788086 55.5800781-1.9384766 77.1767654-7.746582 11.3671875-20.2861328 20.0849609-34.2514648 21.1123047-12.6030273.9277344-25.2451172-4.7119141-31.8427734-15.5888672 23.3718719-24.966957 29.4907989-28.4874877 38.1083984-38.1035232zm-25.315918 53.2285233c-12.2602539-1.6962891-24.8505859-6.7207031-32.9658203-15.4462891 5.7988281.7011719 11.6323242.9960938 17.4448242 1.6152344 3.6689453 6.2021485 9.1494141 10.8935547 15.5209961 13.8310547zm-21.4458008-23.3671875c-1.7104492-2.7666016-3.1987305-5.6464844-4.421875-8.6630859 9.4946289-4.8818436 19.3325195-9.0576248 29.1376953-13.2822342-8.0258789 7.555664-15.9990234 15.1943435-24.7158203 21.9453201zm-20.4985351-17.927742c-2.5126953-7.2753906-3.0795898-14.4121094-2.2592773-21.9853516 3.1254883.5664063 6.2817383.9462891 9.4350586 1.3320313-1.050293 7.5439453-.5283203 14.9189453 1.6811523 22.2109375-3.003418-.3369141-5.972168-.6396485-8.8569336-1.5576172zm9.7724609 4.6533203c.3710938.1621094.8100586.1923828 1.265625-.0078125 9.8593903-4.3266449 21.9526367-9.5159149 30.9770508-13.3642578.5631866.2553101.4586029.0044861 4.6660156.8222656-3.209671 1.3912964-28.830452 12.2923584-33.152832 15.1132813-3.4902344-.1855469-6.9609375-.53125-10.3779297-1.2226563.8969727-.5703125 1.8022461-1.1425781 2.6430664-1.7832031.5970306.0726547 3.7208023.4257278 3.9790039.4423828zm-7.3198242 4.2578125c3.5512695.7207108 7.1679688 1.0878983 10.7880859 1.2890701 1.152832 2.8359375 2.4951172 5.5712891 4.0449219 8.2041016-3.8305664-.8378906-7.6611328-1.6757813-11.4916992-2.5136719-1.1137696-2.3271484-2.2275391-4.6533203-3.3413086-6.9794998zm-25.0419922 46.387703c7.1010742-5.9902344 13.9501953-12.2832031 20.484375-18.8876953 3.008316-3.0413361 5.7606735-5.9083862 8.1811523-9.3662109 2.9267578 3.2841797 6.4072266 6.1035156 10.2460938 8.4707031 17.3917389 13.8763428 42.1046295 18.7582245 61.4853516 8.5908203 9.5849609-5.0292969 16.9697266-13.3769531 22.0029297-22.6767578 13.3208618-24.6125565 15.8543854-58.7581406-1.1557617-81.0224686-.0102539-.0126953-.0219727-.0214844-.0317383-.0332031-.2011719-.4941406-.6347656-.8945313-1.3105469-.9375-4.387207-.2744141-8.7646484-.6875-13.1484375-1.0078125.2568359-.3681641.5102539-.7392578.7670898-1.1074219.5932617-.8496094.1206055-1.6699219-.612793-2.0107422-2.8813477-2.8984375-6.0361328-5.3740234-9.3833008-7.4316406 30.762207 2.2080078 61.5942383 3.1816406 92.4091797 4.3623047-15.075531 67.8267975-48.7262726 129.6487122-97.2177734 177.5996094-.8488312-1.0005035-65.4871445-26.6945648-108.3325195-42.1240234 5.3188438-3.9951097 10.5331993-8.1298753 15.6166992-12.4179612zm-18.3681679 14.4492187c1.3396721 1.3267365 21.5525703 6.6848602 108.9008789 42.2246094-7.2475586 7.0419922-14.796875 13.7714844-22.628418 20.1679688-24.788475-10.8413544-107.079361-47.7122192-107.1796875-47.7587891 6.018715-3.4762879 11.8157845-7.9312134 20.9072266-14.6337891zm154.9960976 13.2568359c-2.4975586 2.0693359-1.2138672 5.7871094-.324707 8.6904297-13.9404297 9.4345703-28.5351563 17.7714844-43.4443359 25.5693359l-1.5478516-1.8994141c36.5836639-35.2549133 83.4057465-74.977951 98.8759766-148.78125 1.1303864-5.3935699 5.3537445-29.6168556 4.0063324-34.5087891 17.0828857-1.8253326 15.9003296-1.6723633 16.2172852-1.7880859-3.5429688 39.8857422-6.5683594 79.8310623-11.1616211 119.6142654-.5039063.2246094-1.0073242.4501953-1.5102539.6767578-.0722656-.9990234-.1450195-1.9970703-.2177734-2.9960938-.0733032-1.0171967-1.1278687-2.2350616-2.2944336-1.4091797-3.0795898 2.1826172-6.0712738 4.484375-9.1508636 6.6669922-.0151367.0097656-.0249023.0224609-.0390625.0332031-.4619141.2089844-.815918.6376953-.815918 1.2998047v4.6425781c-2.3144531 1.7207031-4.6416016 3.4238281-6.9589844 5.140625-.1513672-.8554688-.3037109-1.7109375-.440918-2.5683594-.1294098-.8069458-1.2801819-1.4638824-2.2646484-.8378906-.1017609.0535431-11.0769348 5.8997803-11.9663086 6.3798828-.9008789.4873047-.894043 1.4404297-.4399414 2.0957031.0171661.1830902-.1111298-.706604.4663086 3.4189453-3.6083984 2.1445313-7.2167969 4.2900391-10.8251953 6.4355469-.1005859-.9628906-.2006836-1.9257813-.3012695-2.8886719-.1157227-1.1132813-1.1889648-1.8925781-2.2568359-1.2949219-4.633301 2.5898364-9.4970706 4.9042896-13.6049807 8.3085864z"/><path d="m99.5157623 187.5388031c5.4697266-4.2890625 10.1132813-9.3886719 13.9394531-15.1875 1.065918-1.6162109-1.5307617-3.1201172-2.5908203-1.5146484-3.6884766 5.5908203-8.2021484 10.4501953-13.4697266 14.5810547-1.5180663 1.1904296.6181641 3.2998046 2.1210938 2.1210937z"/><path d="m124.1153717 190.3542328c5.5327148-4.7480469 9.8984375-10.4677734 12.9248047-17.1054688.7949219-1.7441406-1.7900391-3.2705078-2.590332-1.5146484-2.9296875 6.4257813-7.1005859 11.9033203-12.4560547 16.4990234-1.4672852 1.2587891.6625976 3.3730469 2.121582 2.1210938z"/><path d="m145.978653 190.0436859c4.0283203-3.0341797 7.9233398-7.8613281 9.5839844-12.6376953.6357422-1.8271484-2.2617188-2.6123047-2.8925781-.796875-1.3847656 3.9814453-4.8364258 8.3066406-8.2050781 10.84375-1.5234376 1.1474609-.0302736 3.7539063 1.5136718 2.5908203z"/></g></g></svg>