<svg id="Layer_1" enable-background="new 0 0 300 300" height="512" viewBox="0 0 300 300" width="512" xmlns="http://www.w3.org/2000/svg"><g id="Business_workspace"><g><path d="m87.3143539 77.3951569c-.1083984.1728516-.0517578.3359375.0649414.4404297.4348679.6378098 2.0305862 2.2156219 3.8461914 3.3564453.9724503.6109009 1.0565948.8600845.8652344 1.7929688-.9676285 4.5936279-1.0692062 4.4281311-.9746094 5.0722656.1258926.869812.7836761.7057953 1.5595703.1708984.6934814-.4744873 3.0147552-1.6270523 3.7714844-1.9931641.3935547-.1123047.6787109-.1923828 1.0556641-.0634766 1.6103516.5478516 3.3583984 1.6162109 4.8710938 2.5742188.3016968.1936264.6891861-.0855789.5996094-.4375l-.0039063-.0166016c5.7045898-16.0537109 15.1459961-30.0820313 28.7011795-40.5332031.3032227-.234375.1518555-.8417969-.2890625-.6855469-16.6699295 5.9199219-34.3779373 14.8691407-44.0673905 30.3222657zm14.1435547 4.84375c1.4863281-1.4433594 3.1054688-2.765625 4.8120117-3.9462891-1.3369141 2.84375-2.5395508 5.7519531-3.6225586 8.7099609zm18.4042969-29.7167969c22.9917831-10.633934-.845108-.7291069-13.2119141 24.9638672-.3422852-.3993301-4.961937-1.0271225-6.0473633-1.1318359 4.3696289-7.8964844 10.1391602-14.7255859 17.2109375-20.3466797.3774414-.2998047-.15625-.8271484-.5302734-.5302734-7.0673828 5.6171875-12.8266602 12.4296875-17.2133789 20.2978516l-2.5429688-4.6416016c-.1593933-.2925873-.5700989-.2670212-.7099609.0126953l-2.6738281 5.3398438c-1.9018555.1005858-3.8203125.3173827-5.7216797.6123046 7.2601624-11.1317673 19.3641892-18.9933281 31.4404297-24.5761719z"/><path d="m216.6844788 179.2135162c-.0744019-.1075745-2.1606598-3.0749054-3.2768555-4.1943359.0019531-.2890625.0087891-.578125.0087891-.8671875 0-.8701172-.6914063-1.4189453-1.5-1.5-5.703125-.5703125-11.3833008-.5058594-17.0512695-.1826172 0-2.4609375 0-4.921875 0-7.3828125 0-.5117188-.2817383-1.0507813-.7431641-1.2949219-2.4406128-1.2947693-2.1333313-.6183777-24.0800781.5800781-1.715332-5.8242188-3.1982422-11.7167969-4.4492188-17.6582031 2.3276367-6.5253906 4.3955078-13.4873047 6.7133789-19.7109375 3.8027191-10.2101517 8.690918-27.1831665 2.9907227-36.4667969-.0952148-.2939453-.2851563-.5703125-.6025391-.7841797-9.0262451-6.1101151-19.9815521-.8978577-25.5732422 8.3134766-6.6216736 10.9055099-4.8835449 30.6044464-3.659668 34.0126953-13.9716949 18.1219177-35.017868 40.2503967-55.6552811 87.7802734-.2514648.40625-.3173828.9277344-.0268555 1.46875 3.7192383 6.9306641 7.2431641 14.0234375 11.5698242 20.6035156.6132813.9326172 1.7426758.8144531 2.3769531.2373047 4.8867188-.2246094 9.7734375-.4414063 14.6601563-.6650391 4.8198242-3.7304688 9.5-8.7207031 14.8403397-11.6699219 2.3974609-8.1240234 6.7490234-20.3554688 9.4169922-29.0410156-.1967773 6.2421875-.3691406 12.484375-.387207 18.7304688-.0036163 1.2235107 1.2093353 1.6918488 2.5073242 1.7617188 1.7378082 1.0773621 3.3434448 2.6938171 5.5927734 4.1933594l.0302734.0195313.0361328.0009766c22.6153259.4908447 43.949295-.3529205 65.8779297.6298828l.1416016.0058594-.0107422-.140625c-1.398117-17.3279572-.5392455-31.3230439.2529298-46.779297zm-123.490242 42.1464844c10.8427734-4.8085938 22.2939453-7.5908203 34.125-8.3417969-1.3481445 3.5693359-2.6796875 7.1445313-3.9814453 10.7314453-6.5961914 5.3613281-13.2397461 10.5214844-20.3515625 15.1708984-3.5825196-5.6591796-6.6484376-11.6474609-9.7919922-17.5605468zm29.7368164-55.1806641c8.0087967-3.2060547 16.3803787-4.4033203 24.9419022-3.390625-2.9980469 6.8359375-5.9316406 13.7001953-8.7949219 20.5927734-7.2819977-.6721802-19.7467499 1.075058-30.6259842 5.7919922 4.4819335-7.8730468 9.2963867-15.5341796 14.4790039-22.9941406zm33.2119217-43.4208984c.9600677-.1036453 4.9925385-2.7339172 11.5893555-3.2636719-1.8108978 3.6389008-7.682251 16.3144226-9.3745117 19.9902344-4.9707031-1.1279297-9.9741211-1.1289063-14.8666992.0126953 4.3852538-5.508789 8.6284179-11.0546875 12.6518554-16.7392578zm15.2177734-31.4697266c-.8081055 1.7041016-1.6425781 3.3837891-2.4995117 5.0439453-3.7861328.1357422-7.7783203 1.1894531-11.1230469 3.1865234.6318359-2.7304688 1.7836914-5.3388672 3.4228516-7.6035156 3.5476074-2.3659591 6.6702118-2.3599548 10.199707-.6269531zm-12.4604492 83.2128907c-.9003906-.0380859-1.8007813-.0888672-2.7021484-.1552734-.4262695-4.7568359-.8432617-9.5146484-1.234375-14.2753906 2.3818359 1.6386719 5.0605469 2.7714844 7.9443359 3.3271484.0776367.4306641.1464844.8632813.2265625 1.2949219-6.8989411.5391235-4.277237 5.4585723-4.234375 9.8085937zm-5.7509766 23.765625c.0284882.0184174 1.4517822 1.3923645 2.3769531 2.1748047 1.4199219.0068359 2.8168945-.0009766 4.2148438-.0068359.0795898.8779297.1591797 1.7568359.2387695 2.6347656.171875 1.9033203 3.1601563 1.9248047 2.9995117.0117188.1806641-.1513672.3554688-.3076172.546875-.4492188-.0400391-.75-.1098633-1.4804688-.1699219-2.2197266 9.2514648-.0859375 18.121582-.3251953 27.1796875-.2988281-.0019531 1.09375.0273438 2.1894531.1230469 3.2919922.1557617 1.7958984 2.8212891 1.9169922 2.9956055.3193359.4228516-.3740234.862793-.7304688 1.331543-1.0429688.0400391-.8603516.0600586-1.7001953.0600586-2.5400391 2.3701172.0400391 4.7597656.0996094 7.1801758.1904297 2.3046875-2.0517578 4.9731445-3.4765625 7.6621094-4.9296875.0791016 7.7558594.3803711 15.5068359.4311523 23.2636719-70.2304077-.595993-51.8010101.2984467-65.0517578-.3603516.0507813-8.4814453.3608398-16.9570313.6274414-25.4345703 2.3242187 1.9228516 4.6923828 3.7656251 7.2539062 5.3955079zm-.4785156-29.8300782c.1669922 1.8769531.3339844 3.7539063.5024414 5.6308594-1.1499023-.1289063-2.3012695-.2851563-3.4526367-.4716797 1.0117187-1.1064453 2.2314453-3.4228515 2.9501953-5.1591797zm6.5327148-50.0957031c2.815918-4.1582031 5.503418-8.4072266 8.0351563-12.7832031.7344513-.0976639 2.962738-1.9444122 6.8969727-1.8076172-.9121094 4.3251953-2.9262695 8.7236328-4.8779297 12.6796875-1.417923-.1341247-5.8012543.4043732-10.0541993 1.9111328zm15.3725586-17.5742187c-.0024414-.0009766-.0039063-.0009766-.0058594-.0009766-1.6708984-.125-3.3618164.1035156-4.9746094.5898438 1.371582-2.5195313 2.6889648-5.0859375 3.9482422-7.7021484.9594727 2.2373046 1.2275391 4.6416015 1.0322266 7.1132812zm-15.5952148 12.4453125c-.125-1.8611069-1.9421082-5.1110535-1.7851563-9.5839844 2.7773438-2.3447266 6.3925781-3.7382813 10.0087891-4.1660156-2.5664063 4.7285156-5.3164063 9.2988281-8.2236328 13.75zm.9873047 29.9804687c.6787109 5.6835938 1.440918 11.3574219 2.3803711 17.0039063-2.8891602-.7695313-5.4814453-2.1699219-7.7197266-4.2148438-.0229492-.2998047-.0512695-.5986328-.0732422-.8984375 2.2872009-5.1169891 3.0956879-6.9452667 5.4125977-11.890625zm-53.9741288 50.3769531c1.2397461-.2971344 13.0261612-7.5619202 31.8603592-7.2226563-3.2216797 7.8242188-6.3486328 15.6875-9.3666992 23.5927734-7.4558258 0-21.6747208 2.5124664-34.5048904 7.8535156 3.7080078-8.2910155 7.7006836-16.3623045 12.0112304-24.2236327zm104.4086991-18.0488281c-.050293 4.6171875-.3291016 9.2333984-.4614258 13.8544922-1.6090088.9261932-8.9581146 6.0406952-9.0585938 6.1123047-1.9101563 0-3.8203125 0-5.7304688 0-.0014648-.4589844-.0327148-.9140625-.1459961-1.3554688-.1464844-.5419922-.4458008-1.0585938-.8725586-1.4082031-.3662109-1.3388672-2.5498047-1.7138672-2.8686523-.0810547-.1850586.9472656-.331543 1.8955078-.4487305 2.8447266-9.3115234 0-18.6230469 0-27.9345703 0-.1227722-.4994202-.306427-.9123077-.7075195-1.3193359-.1983795-2.1599884-3.1825256-2.018692-3.0126953-.1425781.0439453.4873047.0883789.9746094.1323242 1.4619141-1.6367188 0-3.2739258 0-4.9106445 0-2.9741211-1.9238281-5.675293-4.1347656-8.375-6.4228516.1254883-4.3515625.2202148-8.7041016.2509766-13.0585938 21.468399 4.3726044 42.5746612-2.239975 64.1435547-.4853516zm-18.2114258-9.3603515c-.1088867.2011719-.2177734.4023438-.3261719.6035156.6083984.9248047.1870117 4.1142578.043457 5.8964844-10.059082.7167969-20.0849609 2.0498047-30.1357422 1.9228516-.1577148-2.5488281-.9331055-5.6474609 1.5737305-6.8466797 1.109375-.5302734 4.5986328-.2509766 5.8369141-.3183594 3.4288635-.1873322 20.602356-1.1208649 23.0078125-1.2578125zm-38.2705078-69.4414063c-2.1899414 6.1533203-1.4902344 14.0742188-.324707 20.6308594-2.4804688-.4072266-4.7080078-1.7373047-6.2119141-3.8105469.4993896-6.2290649 2.2429199-11.6808014 6.5366211-16.8203125zm-6.6933594 20.9082031c1.9414063 1.5800781 4.2856445 2.5478516 6.8618164 2.7871094-1.9790039 2.8085938-4.0136719 5.5830078-6.090332 8.3349609-.4296875-3.5791015-.7739258-7.3720703-.7714844-11.1220703zm-6.8920898 25.803711c.9945221.0550995 7.2274628-3.1401978 16.7441406-1.1523438-4.5323029 9.8936768-6.3101807 13.9470978-7.9541016 17.671875-7.9204102-1.0224609-15.6674805-.4003906-23.1821365 1.9755859 6.250206-8.6652831 10.450386-13.6223449 14.3920975-18.4951171z"/><path d="m78.9520493 104.9820709c-5.4662704-4.5047531-11.8812332-6.7969284-18.372654-7.1987686-15.0931778-.9343338-30.5997124 8.3505936-35.556057 23.8042374-8.2344742 25.6792297 15.6954041 49.0021515 37.331543 47.7666016 35.6042862-2.0313416 39.0245819-45.8918076 16.597168-64.3720704zm-25.6450196 58.5595703c-4.5952148-.703125-8.8959961-2.4287109-12.6557617-4.9316406 1.152832-2.6240234 4.359375-3.0761719 6.9780273-2.2216797 1.6367188.5332031 8.7143555 4.5097656 5.6777344 7.1533203zm34.5512696-21.6005859c-1.5097656.6630859-3.1601563-.6992188-2.7485352-2.296875.4135742-1.6054688 2.5322266-1.9941406 3.527832-.6650391.0239258.03125.0551758.0458984.0810547.0722656-.2045898.9726563-.4599609 1.9287109-.7597656 2.8681641-.0341797.0097656-.0664063.006836-.1005859.0214844zm-61.4121094-7.7685547c-1.1037579-18.8456116 13.3025894-31.6782303 28.7248802-33.3116531 8.4929848-.8995209 17.2940712 1.5972977 23.9826393 8.356575 7.0446625 7.1199265 11.4023438 17.8455811 9.8657227 28.1445313-1.8935547-1.2744141-4.6899414-.6298828-5.355957 1.8837891-.668457 2.5224609 1.4492188 4.4697266 3.7304688 4.2910156-4.5224609 11.7587891-16.3535156 20.3193359-29.340332 20.3603516-1.0039063.0039063-1.9985352-.0439453-2.9814453-.1367188 1.6425781-2.8398438-2.4404297-6.5341797-4.9926758-7.9023438-3.5893555-1.9238281-8.8100586-2.0419922-10.684082 1.8710938-7.3666994-5.4277344-12.3867189-13.944336-12.9492189-23.5566407z"/><path d="m275.434967 56.4176178c-4.1381836-12.9755859-15.1733398-22.0878906-28.871582-23.1474609-13.9335938-1.078125-27.0888672 6.3525391-32.4716797 19.3847656-12.4899292 30.2521515 12.3789978 58.2296982 40.7460938 45.4892578 14.1749878-6.3700562 25.6218567-23.1786423 20.5971679-41.7265625zm-40.3574218-19.0449219c17.3052826-4.8139687 34.0271301 5.7039642 37.6503906 20.5996094-7.0556641 5.3603516-15.7514648 8.5371094-24.6035156 8.9550781 7.9483337.2544556 17.3415527-2.8001328 25.1523438-6.1669922 1.0957031 7.3203125-.4775391 14.6386719-4.1879883 20.6494141-2.8374023 3.4853516-6.3984375 6.3916016-10.4140625 8.4375 1.2495117-1.6074219 2.378418-3.3085938 3.3520508-5.1064453.3364258-.6220703-.3725586-1.4667969-1.0258789-1.0263672-7.1005859 4.7880859-15.5283203 7.5048828-24.0371094 8.6376953-8.9778442-2.0808868-17.6093292-8.22892-20.6855469-16.8779297 5.2363281 1.6396484 10.7446289 2.015625 16.2094727 1.6484375-1.4082031.7265625-2.8828125 1.3173828-4.4365234 1.7197266-.934082.2412109-.5380859 1.6884766.3989258 1.4462891 2.7392578-.7089844 5.2739258-1.9023438 7.5756836-3.5498047.5302734-.3798828.4399414-1.4921875-.378418-1.3974609-6.6992188.7744141-13.519043.5927734-19.934082-1.6240234-.9627686-3.3899918-1.3088684-6.7752457-1.0620117-10.2685547 12.4467773.45261 34.8096924-9.5456657 46.7578125-17.8808594.6582031-.4589844.2832031-1.6435547-.5776367-1.3710938-13.4394531 4.2509766-27.3349609 8.0322266-41.3583984 4.7929688 3.5537107-5.4765626 8.9042967-9.7539063 15.604492-11.6171876zm6.5268554 55.7265625c6.144043-1.2246094 12.1293945-3.3144531 17.5141602-6.4472656-1.0688477 1.6152344-2.2607422 3.1425781-3.5644531 4.5722656-4.5834809 1.7188034-9.2721253 2.2794419-13.9497071 1.875zm-22.9521484-42.7617187c12.6723633 3.0644531 25.2426758.5078125 37.4936523-3.1308594-12.421875 7.5996094-26.3950195 11.9599609-41.0332031 12.7314453.6381836-3.3857422 1.8369141-6.6435547 3.5395508-9.6005859z"/><path d="m76.9720688 121.2662506c2.6020508-1.7246094 3.4013672-5.3544922 1.7387695-8.0117188-1.6352539-2.6142578-5.0512695-3.0351563-7.5014648-1.4873047-.2060547-.1972656-.5039063-.2666016-.8100586-.0400391-2.4931641 1.8388672-3.4282227 5.2392578-1.6328125 7.921875 1.8208008 2.7197267 5.484375 3.4208985 8.2055664 1.6171876zm-6.0361328-8.046875c.2592773.1347656.5898438.1503906.8759766-.0722656 1.8925781-1.46875 4.7963867-.8720703 5.8549805 1.3115234 1.0317383 2.1289063.1157227 4.6855469-1.9233398 5.7978516-4.5371095 2.4746094-8.6591798-3.8291016-4.8076173-7.0371094z"/><path d="m62.6434555 149.2310944c1.0571289 1.5830078 3.3051758 1.9560547 4.9824219 1.2529297 1.6289063-.6835938 2.8452148-2.4931641 2.1210938-4.2509766-.8857422-2.1503906-3.4414063-2.3505859-5.378418-1.7363281-.1103516.0351563-.199707.0878906-.2734375.1523438-.1845703-.0849609-.402832-.0869141-.6289063.0742188-1.4399414 1.0322264-1.8217773 3.0126952-.8227539 4.5078124zm1.5800781-3.2119141c.0375977-.0273438.0556641-.0625.0864258-.0927734.1318359.0507813.28125.0722656.4575195.0166016 1.112793-.3535156 2.7104492-.5771484 3.4560547.5957031.6918945 1.0888672-.2651367 2.2333984-1.2939453 2.6181641-.8994141.3369141-2.1098633.2236328-2.8115234-.4824219-.7133789-.7177735-.7612305-2.0351563.1054687-2.6552735z"/><path d="m44.0238266 132.7779694c11.2104492-3.5810547 6.3701172-23.8369141-3.9833984-19.4746094-.0507813-.5068359-.546875-.9589844-1.0712891-.5859375-4.3530273 3.1025391-7.6479492 8.2060547-6.0737305 13.7148438 1.3945313 4.8798827 6.1572266 7.9335937 11.128418 6.3457031zm-10.0415039-8.9492188c-.1079102-3.8789063 2.2705078-7.1591797 5.2163086-9.4238281.1616211.3730469.5917969.65625 1.0634766.4228516 9.2163086-4.5673828 13.6181641 17.6396484.5883789 16.9023438-4.0263672-.2275392-6.7626954-4.0996095-6.8681641-7.9013673z"/><path d="m41.4056625 140.9137115c-.9575195.0673828-.9648438 1.5673828 0 1.5.9897461-.0693359 1.980957.6464844 2.0576172 1.6796875.0712891.9570313 1.5717773.9648438 1.5 0-.1342773-1.8037109-1.7094726-3.3085937-3.5576172-3.1796875z"/><path d="m62.1834946 105.2144928c.7143555-.6523438-.3486328-1.7109375-1.0605469-1.0605469-.8476563.7744141-2.144043.5361328-2.8168945-.328125-.5927734-.7607422-1.6474609.3076172-1.0610352 1.0605469 1.1948242 1.5332031 3.5419922 1.6035156 4.9384766.328125z"/><path d="m69.4745102 131.0582428c.1337891.5478516-.1479492 1.2138672-.6943359 1.4287109-.3754883.1484375-.6416016.5029297-.5239258.9228516.1000977.3583984.5424805.6738281.9223633.5234375 1.3203125-.5205078 2.0839844-1.8720703 1.7421875-3.2744141-.2285157-.9375-1.675293-.540039-1.4462891.3994141z"/><path d="m77.6576157 149.4625397c-1.0385742.3769531-1.8017578 1.1484375-2.1323242 2.2080078-.2880859.9238281 1.159668 1.3193359 1.4462891.3994141.1660156-.5332031.5556641-.96875 1.0849609-1.1611328.9003906-.3261719.5117187-1.7763673-.3989258-1.4462891z"/><path d="m63.0550766 202.0006256v.5c0 .7851563.6899414 1.5361328 1.5 1.5.8125-.0361328 1.5-.6591797 1.5-1.5 0-.1660156 0-.3330078 0-.5 0-.7841797-.6899414-1.5361328-1.5-1.5-.8129883.0361328-1.5.6591797-1.5 1.5z"/><path d="m113.0550766 138.0006256c1.9301758 0 1.9335938-3 0-3-1.9306641 0-1.9335938 3 0 3z"/><path d="m86.0550766 64.0006256c-1.9306641 0-1.9335938 3 0 3 1.9301758 0 1.9335937-3 0-3z"/><path d="m47.5550766 65.0006256c-1.9306641 0-1.9335938 3 0 3 1.9301758 0 1.9335937-3 0-3z"/><path d="m107.5550766 37.0006256c-1.9306641 0-1.9335938 3 0 3 1.9301758 0 1.9335937-3 0-3z"/><path d="m192.5550842 66.0006256c-1.9306641 0-1.9335938 3 0 3 1.9301758 0 1.9335938-3 0-3z"/><path d="m234.5550842 157.0006256c-1.9306641 0-1.9335938 3 0 3 1.9301758 0 1.9335938-3 0-3z"/><path d="m237.0550842 247.5006256c1.9301758 0 1.9335938-3 0-3-1.930664 0-1.9335937 3 0 3z"/><path d="m154.0550842 249.0006256c1.9301758 0 1.9335938-3 0-3-1.930664 0-1.9335937 3 0 3z"/><path d="m200.0550842 131.0006256c1.9301758 0 1.9335938-3 0-3-1.930664 0-1.9335937 3 0 3z"/><path d="m255.5550842 212.5006256c1.9301758 0 1.9335938-3 0-3-1.930664 0-1.9335937 3 0 3z"/><path d="m55.5550766 249.0006256c1.9301758 0 1.9335938-3 0-3-1.9306641 0-1.9335938 3 0 3z"/><path d="m85.5550766 181.5006256c1.9301758 0 1.9335938-3 0-3-1.9306641 0-1.9335938 3 0 3z"/><path d="m33.0550766 187.0006256c-1.9306641 0-1.9335938 3 0 3 1.9301758 0 1.9335937-3 0-3z"/><path d="m93.0550766 266.5006409c1.9301758 0 1.9335938-3 0-3-1.9306641 0-1.9335938 3 0 3z"/><path d="m187.5550842 272.0006409c1.9301758 0 1.9335938-3 0-3-1.930664 0-1.9335937 3 0 3z"/><path d="m182.0550842 237.5006256c1.9301758 0 1.9335938-3 0-3-1.930664 0-1.9335937 3 0 3z"/><path d="m242.5550842 271.0006409c1.9301758 0 1.9335938-3 0-3-1.930664 0-1.9335937 3 0 3z"/><path d="m267.5550842 253.5006256c1.9301758 0 1.9335938-3 0-3-1.930664 0-1.9335937 3 0 3z"/><path d="m226.0550842 195.0006256c.8125-.0361328 1.5-.6591797 1.5-1.5 0-.1660156 0-.3330078 0-.5 0-.7841797-.6899414-1.5361328-1.5-1.5-.8129883.0361328-1.5.6591797-1.5 1.5v.5c0 .7851563.6899414 1.5361328 1.5 1.5z"/><path d="m259.5550842 155.0006256c1.9301758 0 1.9335938-3 0-3-1.930664 0-1.9335937 3 0 3z"/><path d="m263.0550842 122.0006256c1.9301758 0 1.9335938-3 0-3-1.930664 0-1.9335937 3 0 3z"/><path d="m225.5550842 116.0006256c-1.9306641 0-1.9335938 3 0 3 1.9301758 0 1.9335938-3 0-3z"/><path d="m135.0550842 58.0006256c-1.9306641 0-1.9335938 3 0 3 1.9301758 0 1.9335938-3 0-3z"/><path d="m117.5550766 100.5006256c1.9301758 0 1.9335938-3 0-3-1.9306641 0-1.9335938 3 0 3z"/><path d="m57.0550766 31.0006256c-1.9306641 0-1.9335938 3 0 3 1.9301758 0 1.9335937-3 0-3z"/><path d="m72.5550766 83.5006256c-1.9306641 0-1.9335938 3 0 3 1.9301758 0 1.9335937-3 0-3z"/><path d="m37.0550766 42.5006256c-1.9306641 0-1.9335938 3 0 3 1.9301758 0 1.9335937-3 0-3z"/><path d="m159.0550842 33.0006256c-1.9306641 0-1.9335938 3 0 3 1.9301758 0 1.9335938-3 0-3z"/><path d="m196.5550842 37.5006256c-1.9306641 0-1.9335938 3 0 3 1.9301758 0 1.9335938-3 0-3z"/><path d="m269.5550842 30.0006256c0-.1660156 0-.3330078 0-.5 0-.7841797-.6899414-1.5361328-1.5-1.5-.8129883.0361328-1.5.6591797-1.5 1.5v.5c0 .7851563.6899414 1.5361328 1.5 1.5.8125-.0361328 1.5-.6591797 1.5-1.5z"/><path d="m199.5550842 96.0006256c-1.9306641 0-1.9335938 3 0 3 1.9301758 0 1.9335938-3 0-3z"/><path d="m146.0550842 78.0006256c-1.9306641 0-1.9335938 3 0 3 1.9301758 0 1.9335938-3 0-3z"/><path d="m97.0550766 104.5006256c1.9301758 0 1.9335938-3 0-3-1.9306641 0-1.9335938 3 0 3z"/><path d="m37.5550766 85.5006256c1.9301758 0 1.9335938-3 0-3-1.9306641 0-1.9335938 3 0 3z"/><path d="m30.5550766 217.0006256c-1.9306641 0-1.9335938 3 0 3 1.9301758 0 1.9335937-3 0-3z"/><path d="m34.0550766 268.0006409c1.9301758 0 1.9335938-3 0-3-1.9306641 0-1.9335938 3 0 3z"/><path d="m127.5550766 249.0006256c1.9301834 0 1.9336014-3 0-3-1.9306641 0-1.9335938 3 0 3z"/></g></g></svg>