<svg id="Layer_1" enable-background="new 0 0 300 300" height="512" viewBox="0 0 300 300" width="512" xmlns="http://www.w3.org/2000/svg"><g id="Career"><g><path d="m78.5684967 197.3790283c8.7958984 3.4023438 17.7558594 6.4013672 26.684082 9.4355469.4575195.1552734.6542969-.5683594.1992188-.7236328-8.9277344-3.0341797-17.8881836-6.0322266-26.6835938-9.4355469-.4506836-.1738281-.6455078.5507813-.199707.7236328z"/><path d="m89.4478912 177.3858643c8.5180664 2.5869141 17.0366211 5.1728516 25.5546875 7.7597656.4628906.140625.6606445-.5830078.1992188-.7236328-8.5180664-2.5859375-17.0361328-5.1728516-25.5546875-7.7597656-.4628906-.1406251-.6606445.5839843-.1992188.7236328z"/><path d="m116.1510162 146.6192627c4.753418 1.2617188 9.625 2.0146484 14.3779297 3.2763672.4672852.1240234.6665039-.5986328.199707-.7226563-4.753418-1.2626953-9.625-2.015625-14.3779297-3.2773438-.4672851-.1240234-.6665038.5996095-.199707.7236329z"/><path d="m95.9933014 278.6485596c3.1723633.0332031 6.5883789-.0136719 9.5869141.0771484 3.8164063-2.5527344 9.515625-6.9023438 13.3320313-9.4550781 20.5568237-45.8038025 47.8274689-107.8823547 81.5336914-171.3154297.3018494-.5707855-2.5075989 1.8278503 26.8217773-22.1884766 4.3241119-3.53965 2.6777039-2.8531876 7.3959961-1.3076172 1.0833282.3552551 27.1321869 9.0919418 27.8935394 8.8466797.2304688-.0742188.4829102-.265625.5239258-.5234375.4116211-2.5751953.8212891-5.1494141 1.1728516-7.7333984.3930664-.2851563.6474609-.7783203.6728516-1.2568359.9204102-17.2011757 2.4179688-34.3418007 4.3354492-51.4599648.0908203-.8125-.7612305-1.4921875-1.5-1.5-2.0983582-.0215836-56.1220093 10.880024-97.1035004 20.7861328-.8417816.2029037-1.5987549 1.3635101-.6787109 2.4746094.6435547 2.1962891.925293 4.4833984 1.6240234 6.6660156.0738831.2304916.3815308.5377464.628418.6064453 5.293457 1.4560547 10.5869141 2.9121094 15.8803711 4.3681641-16.6459961 11.745121-34.1547852 22.2334023-52.3999023 31.3154335-1.5521088.7735977-1.7216644 1.9028244-1.0932617 2.7236328.6020508 1.5253906 1.0849609 3.0878906 1.5131836 4.6689453-.654892.4204178-52.2224426 60.8896179-105.0991211 134.0712891-.3217773.4453125-.3354492.8828125-.1738281 1.2490234-.0004883.0068359-.0024414.0126953-.0024414.0205078-.0419922 3.7353516-.0839844 7.4707031-.1264648 11.2060547-.0102539.9169922.6621094 1.3935547 1.3725586 1.4394531 3.1274414 1.5439453 9.4311523 3.2597656 12.0585938 4.2587891 3.6665039-.6660156 5.9282227-.671875 9.3334961.75 21.4038124 8.9365234 26.7041054 13.7519531 40.3457069 21.1201172-.3154297 3.0634766-.4931641 6.140625-.7626953 9.2138672-.0934031 1.065155.7866399 2.0245056 2.9145467.8779297zm15.9213867-133.2460938c.5688477-.1035156.6450195-.6630859.4160156-1.0595703.2055664-3.2949219.3266602-6.5947266.4946289-9.8925781 16.8608398 3.2578125 33.5576172 7.2998047 50.4169922 10.5644531-2.737793 4.6992188-5.4755859 9.3984375-8.2133789 14.0976563-1.3372803-.7330322-8.4030151-.6880341-50.2890625-11.7373047 2.3842774-.6835938 4.725586-1.5253907 7.1748047-1.9726563zm10.5366211-12.0976562c.5288086-3.8808594.8012695-7.7636719.8232422-11.6748047 16.0263672 3.1904297 32.0839844 6.2216797 48.1113281 9.4072266-2.184082 3.7490234-4.3686523 7.4980469-6.5527344 11.2470703-.0175781-.0039063-.0307617-.0117188-.0488281-.0146484-14.1679688-2.7236328-28.2177734-6.0097656-42.3427734-8.9384766.0019531-.0097657.0083008-.015625.0097656-.0263672zm9.3955078-23.4277344c15.8139648 2.0771484 31.3745117 5.6152344 47.1108398 8.1630859-1.9926758 3.4208984-3.9858398 6.8408203-5.9785156 10.2617188-.0039063-.0009766-.0073242-.0029297-.0112305-.0039063-13.7758789-2.7421875-27.5732422-5.3710938-41.355957-8.0761719.0141602-3.4501953.1962891-6.8955078.2348633-10.3447265zm7.9614258-8.6943359c1.2175598.3523483 26.5300903 10.8908005 32.9794922 12.78125-11.4536133-2.0273438-22.8486328-4.3691406-34.3452148-6.1396484.0024414-.0097656.0083008-.0146484.0107422-.0244141.4516601-2.2060547.9033202-4.4121094 1.3549804-6.6171875zm40.7558594 14.0996093c-.4311523-.0683594-.8613281-.1445313-1.2924805-.2148438.9038086-.7402344 1.8081055-1.4814453 2.7124023-2.2216797-.4731445.8125001-.9467773 1.6250001-1.4199218 2.4365235zm-81.050293 45.7617188c.1002045-.0230713.8827515-.3018036 1.0424805-.6015625 7.7597656 2.4257813 15.5195313 4.8515625 23.2788086 7.2773438.4619141.1445313.659668-.5791016.199707-.7236328-7.7817383-2.4326172-15.5639648-4.8652344-23.3457031-7.2978516.3164063-3.3457031.637207-6.6904297.9541016-10.0351563 17.1586914 4.5439453 34.362793 8.9179688 51.8300781 12.1191406-3.1279297 5.3681641-6.2548828 10.7363281-9.3823242 16.1044922-17.3935547-4.8525391-34.7871094-9.7050781-52.1806641-14.5576172 2.5292969-.7783203 5.0214844-1.6845703 7.6035156-2.2851562zm-11.6181641 16.9228515c.4573898-.0864563.6771011-.746109.6791992-.9453125.0410156-3.8007813.3183594-7.5947266.4038086-11.3945313 17.8500977 4.9794922 35.7006836 9.9599609 53.5507813 14.9394531-3.6513672 6.2666016-7.3022461 12.5341797-10.9536133 18.8007813-.8698883-.5298462-22.1081009-6.5723877-53.0019531-19.5507813 3.1083984-.6103514 6.2089844-1.2607421 9.3217773-1.8496093zm-11.9912109 19.1806641c.2850494-.0899506.7153702-.5451508.7299805-.9306641.1738281-4.5947266.3203125-9.1894531.4873047-13.7841797 17.3544922 7.2919922 34.9990234 13.8212891 52.9350586 19.5419922-4.1323242 7.0927734-8.2641602 14.1855469-12.3964844 21.2773438-18.2553711-7.3544922-36.5102539-14.7099609-54.7656288-22.0644531 4.4038124-1.109375 8.6772499-2.6748047 13.0097694-4.0400391zm-15.9223671 20.2910156c.6975746.8276215 21.5465965 9.7589874 30.2514687 14.1875.4291992.21875.809082-.4287109.378418-.6474609-9.875-5.0244141-20.2172852-9.0537109-30.0937538-14.0751953.2687035-.3246307.1576042.4798737.0791016-13.4277344 18.5156288 7.4599609 37.0312538 14.9199219 55.5463905 22.3798828-4.7607422 8.171875-9.5219727 16.3427734-14.2827148 24.5146484-18.8583984-8.4472656-37.0214844-18.3007813-55.4111366-27.7021484.6769369-.2395477 13.0712927-4.7043762 13.5322264-5.2294922zm34.5615273 45.9990235c-16.71875-8.2128906-32.9965858-17.2519531-48.8022499-27.109375.0742188-3.4423828.4936523-6.8642578.6918945-10.2998047 17.8803749 9.1689453 35.5703163 18.7158203 53.9179726 26.9345703-4.3324204 7.4376526-5.6270218 9.4438477-5.8076172 10.4746094zm2.9501953.4541015c.0447083-.2409363-3.7194824 6.3587341 91.1303711-156.4824219 3.0126953-2.4677734 6.0258789-4.9345703 9.0385742-7.4013672-54.2953186 102.2878418-74.315834 144.3357086-86.7939453 168.1367188-4.7983398 3.0839844-9.7036133 5.9824219-14.7143555 8.7060547.3535156-4.3320312.5488281-8.6767578 1.3393555-12.9589844zm168.6020355-239.9853553c-1.7695313 16.0166016-3.1640625 32.0546875-4.0610352 48.1445351-2.3059387-.561821-8.0003204-3.5021362-33.4662933-10.6084023-.7398529-.7542686-1.9127197-.3181381-2.3876953.3486328-30.725769 27.235508-44.6266327 35.8632927-48.7861328 38.9345741-3.8636475 2.8630981-1.348053 2.2428894-9.1054688-.7558594-8.9389496-3.4552612-18.9829407-7.5540466-29.0175781-11.3769531 20.4643555-10.3359375 40.0063477-22.4169922 58.4116211-36.0898476 1.2285156-.9121094.7661133-2.6269531-.7573242-2.7949219-3.7885742-.4179688-7.7753906-2.0126953-11.3974609-3.1806641-4.9321594-1.5905151-4.7270966-1.6902847-9.59375-3.0830078 40.3339843-9.6391753 90.0606536-19.5290507 90.1611175-19.5380858zm-129.1923676 74.1543006c.2552948 1.326622.4894714 2.1680145 1.4775391 2.6298828-1.5238953 7.4439926-1.3896942 6.6913376-1.375 6.9199219-1.7456055-.2607422-3.4916992-.515625-5.2426758-.7451172-1.4559937-.1910706-1.4033203 1.1185684-1.4033203 2.1240234-.0107422 3.6474609-.2182617 7.2900391-.2441406 10.9375-2.0292969-.3994141-4.0595703-.7949219-6.0883789-1.1982422-1.3498154-.2695465-2.2423172 1.520874-2.2402344 1.8115234.0553665 8.0989227-.7981567 11.4709625-.7749023 12.4941406-2.6279297-.5390625-5.2578125-1.0703125-7.8925781-1.5771484-1.3930664-.2675781-2.1943359 1.2373047-1.7563477 2.1904297-.1870117 3.4824219-.3076172 6.96875-.5200195 10.4501953-3.2353516.6865234-6.3046875 1.9794922-9.5654297 2.5742188-.4900589.0892029-1.0046768 1.6240845-1.0161133 1.7451172-.3520508 3.7265625-.7104492 7.4521484-1.0629883 11.1787109-1.6410751.2225189-6.9866562 2.1781006-10.1245117 2.9755859-.7758255-.0620728-1.5471268.48172-1.5668945 1.9248047-.043457 4.0390625-.359375 8.0683594-.421875 12.1064453-3.5302734.6738281-7.0439453 1.4296875-10.5751953 2.0976563-.2548828.0478516-.4052734.1894531-.480957.3642578-1.2563477.2792969-1.9790039 2.0791016-.546875 2.6855469.0537109.0224609.1074219.0439453.1606445.0664063-.1713867 4.6660156-.3198242 9.3330078-.4946289 13.9990234-4.9936523 1.5878906-9.9145508 3.421875-15.057621 4.484375-.2403984.0496674-1.0071831 1.0095825-1.0063477 1.3027344.0175781 4.8818359.0795898 9.7636719.0981445 14.6464844-4.828125 1.9570313-9.6948242 3.7988281-14.6152344 5.5107422-.8277435.28862-1.2523537 1.631958-1.0527344 2.3222656-.1030273 3.9238281-.6381836 7.8232422-.7602539 11.7470703-3.0014648 1.1582031-6.0029297 2.3164063-9.0043945 3.4746094.1086121-9.540329.1081314-9.2735138.1015625-9.5888672 32.6577187-45.180664 67.0502968-89.0908203 103.0517616-131.6542969z"/></g></g></svg>