<svg id="Layer_1" enable-background="new 0 0 300 300" height="512" viewBox="0 0 300 300" width="512" xmlns="http://www.w3.org/2000/svg"><g id="Counseling"><g><path d="m165.570816 276.4829407c.9082031-.8105469 1.4331055-2.1455078.965332-3.2607422-.8202209-1.9563293-4.0986786-2.1813354-6.4985352-2.4208984 5.8593445-7.2909241 4.3407288-19.8386993 1.546875-28.765625-.125-2.0913086.0566406-1.9155273 1.2001953-3.8798828.9101563 1.112793 2.4160156 2.1123047 3.3139648.5512695.9288788-1.61586-1.0019531-3.1587524-2.8549805-2.9301758-.6064148-2.2672729.7401123-4.6338654 1.9501953-6.5019531.5263672-.8125-.7719727-1.5654297-1.2954102-.7573242-1.4775391 2.2822266-2.8037109 5.0517578-2.0581055 7.7763672-.737793.5126953-1.1923828 1.3286133-1.4536133 2.2539063-1.828125-4.9526367-4.1455078-9.7553711-6.5209961-14.4638672 2.1240234-1.3476563 3.8037109-3.3876953 4.5800781-5.7597656 1.0791016 1.4350586 3.2255859 1.5048828 5.0112305 1.1933594 8.1850586-1.4286346 11.2783661-7.6140594 9.2573242-12.0263672 3.2108917-.9097595 4.8068085-4.6995392 2.7631836-7.6645508-.7097626-2.1864014-2.725708-3.862442-5.6484375-3.7104492-.9189453-4.168457-5.7431641-5.644043-9.2509766-3.4331055-2.0244141-4.9331055-10.6567383-5.1567383-12.890625.4951172-1.5610352-2.1445313-4.5688477-3.0268555-7.1967773-1.9794922-2.0302734.8085938-4.1879883 3.2978516-3.7993164 5.4863281-7.5877075-3.2657623-12.9994049 3.9604187-9.1518631 8.1450195-1.3603516-.0776367-2.7119141.0415039-3.9326172.7241211-4.5739746 2.5548401-2.7318268 11.1107941 2.4106445 10.980957.121582 3.0415039 2.1782303 5.9262695 5.0424881 7.0703125 2.8632813 1.144043 6.3793945.4858398 8.6171875-1.6137695 2.5990143 3.0176849 7.15802 4.627243 11.4628906 3.3364258 1.7373047 3.4331055 3.4331055 6.8964844 4.9306641 10.4375-.7817383-.2763672-1.6572266-.3901367-2.5297852-.3842773-2.9736328-4.7265625-8.7958984-1.1362305-11.8320313 1.6499023-.2358398.2163086-.265625.4741211-.1899414.7026367.0058594.2202148.1171875.4145508.340332.5219727.6023102 1.104248 2.5929108 2.3477478 3.6884766 2.9672852 2.747757 1.5533142 5.2465668 1.6100922 7.3618164-.6660156 1.5901489-1.7088928 1.2182922-2.68573 1.8256836-2.9423828.7275848-.3072662 1.7725677.5993958 2.465332.9545898 1.0131836 2.6420898 1.9013672 5.3305664 2.565918 8.0976563 1.5834961 6.5957031 2.9506836 19.1850586-3.3969727 23.8422852-.7817383-.0517578-1.5654297-.1025391-2.3549805-.1611328-1.4970703-.1113281-3.2280273-.7280273-4.7143555-.296875-1.7451172.5058594-3.2744141 2.4204102-3.3164063 4.2060547-.0581055 2.4697266 2.1367188 3.4995117 4.2734375 3.9277344 3.953125.7929688 8.0830078.7163086 12.003418-.2216797 1.189942-.2851565 2.4023443-.6704104 3.3100591-1.480469zm-12.7724609-79.2475586c3.2924805.1816406 8.0200195.2744141 10.2724609 2.8574219 3.4248047 3.9262695.5244141 7.5498047-3.1850586 9.8808594-4.6396484 2.9155273-10.3632813 4.3774414-15.8071289 4.4848633-2.625.0517578-6.9658203.109375-9.2138672-1.6523438-6.8862304-5.3975678 1.1504059-16.4959412 17.9335938-15.5708008zm-11.9643555 21.0966797c.1586914-.2104492.3085938-.4267578.4487305-.6503906 4.9125977.390625 10.2973633-.6655273 14.940918-2.5195313.5863495 3.1978302-4.0245361 5.5832977-7.1000977 6.3095703-2.6679687.6308594-8.3359375.371582-8.2895508-3.1396484zm25.3745118-3.4790039c-1.9736328.9458008-6.9038086 2.0551758-8.2329102-.4433594 3.8088074-1.7585907 7.3403473-3.9846344 8.9418945-7.8583984 1.4946289.3261719 2.6948242 1.2915039 3.0175781 2.6831055-.097168 1.4243164-.5717773 2.8168945-1.3681641 4.0063477-.6723632.673828-1.5039062 1.2031249-2.3583983 1.6123046zm-26.7797852 2.605957c-.0229492.1293945-.0419922.2568359-.0537109.3818359-5.178421 6.1543884-15.0307312.0948944-8.5454102-4.8129883.762207 1.0478516 5.3851318 3.910904 8.5991211 4.4311524zm34.5620117-17.3022461c1.4619141 4.0507813-3.3867188 6.2270508-6.5341797 4.6298828.4238281-2.1157227.0463867-4.2446289-1.300293-6.0175781 2.7319337-1.2612305 6.541504-2.1948242 7.8344727 1.3876953zm-5.618164-3.8193359c-1.1411133.2719727-2.2495117.7485352-3.2998047 1.2832031-1.3352966-1.1775055-2.5803223-1.6996155-4.0874023-2.2182617.0268555-.4125977.0273438-.8115234-.0141602-1.1865234 2.5263672-1.8129884 6.7075195-1.3354493 7.4013672 2.121582zm-8.8535157-1.3867188c-3.2753906-.8994141-6.9414063-1.2060547-10.5859375-.9160156 1.6401367-5.3369141 10.6074219-4.6796875 10.5859375.9160156zm-17.2832031-2.6621094c1.8183594-.2207031 3.4887695.578125 4.3818359 2.0141602-2.9287109.4399414-5.7705078 1.2666016-8.3056641 2.487793-1.0371093-1.9506836 2.1723634-4.2890625 3.9238282-4.5019532zm-12.2114258 5.8559571c1.9121094-1.1132813 4.1484375-.9926758 6.0883789-.1376953-.480957.3015442-1.9598541 1.2459412-2.2680664 1.7270508-1.8203125 1.2958984-3.1508789 3.0551758-3.8901367 4.9736328-2.9511795-1.1879883-2.6962967-4.9521485.0698242-6.5629883zm-.5883789 8.3945312c-.3076172 1.7128906-.1362305 3.4550781.5673828 5.0351563-.8769531 1.1845703-2.5170975 2.3330078-4.0317459 2.2524414-1.9008789-.1015625-3.3476563-1.8769531-3.4047852-3.6972656-.1259765-3.994629 3.9726563-3.9545899 6.8691483-3.5903321zm22.3618164 29.0249024c-.6430664.1435547-1.2451172.3583984-1.7504883.6489258-.8369141.480957-.0820313 1.777832.7568359 1.2954102.4609375-.2651367 1.0727539-.4462891 1.7290039-.5498047-1.2792969 2.4228516-3.6000977 3.6103516-6.2319336 2.0458984-.9541016-.5668945-1.6894531-1.2631836-2.6108398-1.7148438 2.3144532-1.9194336 5.8930665-4.1025391 8.1074219-1.7255859z"/><path d="m137.8735504 132.3056946c9.2216797 1.2431641 18.4125977 1.9199219 27.706543 2.3007813 5.5200195 1.5092773 9 4.2172852 10.6943359 9.8276367.5566406 1.84375 3.453125 1.0581055 2.8925781-.7973633-.8857422-2.9335938-2.1811523-5.8056641-4.4995117-7.8911133-2.3696289-2.1318359-5.3779297-3.2524414-8.4121094-4.0673828-.1665039-.0449219-.3208008-.0546875-.46875-.0493164-.0463867-.0058594-.0883789-.0170898-.137207-.019043-1.8476563-.0756836-3.6899414-.1699219-5.53125-.2685547-.0146484-.0200195-.0234375-.0405273-.0390625-.0595703-5.4931641-6.7670975-10.4521484-13.884285-15.5600586-20.939949-.6499023-.8979492-1.7949219-.7695313-2.4243164-.2001953-1.0058594.6342773-2.0952148 2.6123047-1.9804688 3.6020508.1289063 1.1157227 1.0961914 2.5273438 1.7226563 3.4594727 3.0478516 4.5361328 5.8945313 9.5317383 9.6162109 13.5615311-4.2641602-.3442383-8.5214844-.7773438-12.7822266-1.3520508-1.8876952-.2543947-2.705078 2.6357421-.7973632 2.8930663z"/><path d="m118.9043045 130.7524719c-.5493164-.5961914-1.5649414-.5566406-2.1210938 0-.5457535.5457458-.6392059 1.4252472.1157227 2.2470703.5488281.5957031 1.5649414.5561523 2.1210938 0 .5457534-.5457611.6392059-1.4252472-.1157227-2.2470703z"/><path d="m117.9282303 125.3403549c1.9301758 0 1.9335938-3 0-3-1.9306641 0-1.9335938 3 0 3z"/><path d="m122.2192459 129.745636c1.9306641 0 1.9335938-3.0000076 0-3.0000076-1.9301758 0-1.9331055 3.0000076 0 3.0000076z"/><path d="m113.4946365 136.1777649c-1.9301758 0-1.9335938 3 0 3 1.9306641 0 1.9335938-3 0-3z"/><path d="m120.1455154 139.0874329c1.9301758 0 1.9335938-3 0-3-1.930664 0-1.9335937 3 0 3z"/><path d="m270.8984375 62.7803001c-4.455719 1.5845757-6.7294312 2.8001823-10.9316406 4.9677696-.4220581-5.5748482-4.5296326-16.4083786-7.2026215-22.4467735-1.5107422-3.4130859-3.0234375-7.4458008-6.2626953-9.6459961-4.5146484-3.0668945-5.9560547 1.0258789-5.7885742 4.9414063-5.1972656-3.6313477-10.7709961-6.5854492-16.4404297-9.652832-3.5229492-1.9067383-6.7539063-4.1655273-9.9243164-6.609375-2.2060547-1.7001953-4.3422852-3.5063477-7.3125-2.9648438-5.3935547.9833984-5.8007813 8.2944336-3.6225586 12.2338867 1.7973633 3.2504883 6.5131836 7.8208008 10.9707031 10.0478516-4.6640625 1.5444336-9.7426758 1.9072266-14.5449219 2.7983398-1.387207-1.8261719-4.4545898-3.6269531-5.8149414-4.3061523-3.9943085-1.9926758-8.5898743-2.2950745-12.6689453.1196289-1.193573.2258072-3.4446259 1.231308-5.3706055 2.8032227-5.6954803 3.5828705-8.97258 9.35075-9.3764648 15.7597656-.0546875.871582-.3549805 4.1235313.2612305 5.4540977-5.2333984 4.1694336-10.2426758 8.5986328-14.9086914 13.40625-5.1679688 5.324707-11.2373047 11.4165039-14.7368164 18.0454102-1.3725586 2.6000977-2.6582031 6.8676758.8007813 8.3491211 4.800293 2.0551758 11.3110352-3.4907227 14.7597656-6.0771484 15.9885559-11.9910202 27.6488647-27.6669159 29.9985352-33.5058594 33.6377716 30.4883194 30.6384125 25.5632553 38.6035156 33.9892578 4.4541016 4.7114258 2.5595703 8.6606445-.1694336 13.6381836-2.0727539 3.7802734-4.2924805 7.4794922-6.7001953 11.0566406-4.6508789 6.9096756-10.0307617 13.3003006-16.2387695 18.8623123-3.0615234 2.7421875-6.324707 5.2504883-9.753418 7.515625-1.6274414.9067383-3.2558594 1.7744141-4.8676758 2.5761719-1.7744141.8828125-3.7392578 1.7192383-5.668457 1.5805664-.6176758-.1723633-1.2255859-.4624023-1.8095703-.9306641-.7348633-.5888672-1.5068359-1.7436523-2.2006836-2.8007813 1.3383789.3823242 2.6777344.7597656 4.0107422 1.1630859 1.8515625.5610352 2.6430664-2.3334961.7973633-2.8925781-15.2993164-4.6333008-30.9936523-7.7753906-46.3291016-12.2705078 5.5055237-7.3681793-2.1485748-14.7504349-10.1069412-19.3593826-.1464844-.0849609-.2905273-.1337891-.4326172-.1674805-1.4526367-.7739258-3.2290039-1.097168-5.3496094-.8242188-.2910156-.0395508-.6088867.0185547-.9335938.2231445-5.3164063 3.3515625-7.2597656 10.3725662-7.2836914 16.3403397-.0200195 5.0268555 1.9946289 14.1899414 8.8505859 12.7573242.0126953-.0024414.0239258-.0078125.0366211-.0102539 5.4824219.1220703 9.1645508-.8710938 13.6171951-3.8725586 6.5263672 2.6005859 13.1845703 4.9057617 20.003418 6.5961914 10.0732422 2.4980469 12.1875 2.3354492 17.0664063 6.2387695 2.2939453 1.8349609 5.3442383 4.7670898 8.1318359 5.6923828 2.4667969.8183594 4.9277344.8554688 7.3188477-.1625977 2.3911133-1.0185547 4.7661133-2.9755859 6.8310547-4.5537109 5.1206055-3.9150391 10.0141602-9.1025391 13.1523438-13.5297852 3.9316406-3.8569336 7.5380859-8.0483398 10.8183594-12.496582 3.565918-4.8354568 6.7451172-9.9492264 9.6298828-15.2172928 1.8461914-3.3710938 4.0864258-7.5297852 3.5097656-11.5429688-.6259766-4.3613281-5.6157227-7.3271484-8.6538086-9.9848633-2.9506836-2.5810547-5.9018555-5.1611328-8.8540039-7.7402344.0239258-.159668.046875-.3188477.0693359-.4790039 7.1782227 1.2055664 9.0302734.4360352 16.4287109-1.5458984 7.8100586-2.0800781 19.5996094-7.8500977 23.5898438-14.8803711-.3500977 2.3203125 3.0097656 6.6000977 5.3500977 6.4804688 2.4700775-.1335144 6.9314423-4.3032455 11.5576019-6.1645508.4858398-.1958008 4.4291992-1.5395508 4.4438477-1.9301758-.0864258-.6337891-.1728516-1.2675781-.2592773-1.9013672.237793-.0883789.4667969-.1923828.706543-.277832 1.8061521-.6420896 1.0278318-3.5419881-.7973635-2.8925741zm-140.8134613 70.182621c-.139679 4.1138611-1.5206299 4.9869385-5.4165115 7.402832 2.2680664-4.4643555 3.0385742-10.3198242 1.940918-14.9917068 2.717369 2.6297074 3.6053848 3.7580338 3.4755935 7.5888748zm-17.9174881 7.038086c-1.078125-3.2470703-1.2192383-7.6196289-.2177734-11.534668-.1274414.8266602.3466797 1.7636719 1.4277344 1.7636719 1.9301758 0 1.9335938-3.0000076 0-3.0000076-.7211914 0-1.1728516.4189453-1.3554688.943367.8564453-3.146492 2.472168-5.9585037 4.9648438-7.6074295 1.4199219-.2255859 2.5727539-.0629883 3.5058594.3769531.1867294.193367.2234344.2036362 1.0917969.7236328 3.0737305 2.7275391 2.7060547 9.4052811 1.8227539 12.6923904-.9672853 3.5996094-7.9565431 15.5292969-11.2397462 5.6420899zm93.8359451-107.9116249c-.4902344-.9614258-1.546875-4.5224609-.5688477-5.5917969.4047852-.4423828 6.2763672-.2749023 6.6655273-.1357422 1.8457031.6601563 3.8432617 2.9418945 5.5097656 4.0703125 9.0385742 6.1210938 19.0878906 9.8349609 27.3266602 17.2851563 1.4287109 1.2919922 3.5566406-.8232422 2.1210938-2.121582-.9428711-.8525391-1.9091797-1.6586914-2.8891602-2.4379883-.7109375-1.9316406-2.0776367-6.484375 1.5585938-4.2011719 1.7724609 1.1132813 2.8334961 4.3144531 3.6616211 6.1142578 2.3188477 5.0410156 4.3544922 10.2358398 5.9072266 15.5664063 1.1398468 3.9150963 1.8528595 5.487957 1.5634613 9.3481407-.2275391.222168-.3540039.4853516-.3964844.7592773-.230957-.1152344-.5932465-.5043945-1.1752777-1.0488281-.3720703-.3481445-1.4838867-1.7329102-1.8388672-2.2861328-.1191406-.1860352-1.1142578-2.9389648-.6352539-1.3417969-.1347656-.449707-.409668-.7402344-.7392578-.8999023.5585938-.777832 1.0917969-1.5703087 1.5878906-2.3842735 1.0073242-1.652832-1.5859375-3.1621094-2.590332-1.5141602-5.2558594 8.6240196-14.3212891 14.6708946-23.6850586 18.1269493-4.3378906 1.6010742-8.793457 2.3803711-13.3959961 2.7001953-2.3740234.1650391-17.6162109-.0776367-10.6728516-5.5893555.0063477-.0053711.0102539-.0112305.0166016-.0166016 1.6743164-.2714844 3.3125-.6611328 4.8012695-.987793 1.8847656-.4135742 1.0874023-3.3066406-.7973633-2.8925781-2.879837.6320648-7.968689 1.7995911-10.7041016.7250977-1.8730469-.7363281-3.6269531-2.7587891-2.3076172-4.6625977 3.5742188.1420898 7.7705078-1.2021484 10.8105469-1.6064453 1.8857422-.2504883 1.9106445-3.2539024 0-3-2.5102539.3339844-5.0136719.7036133-7.5141602 1.1030273-1.7724609.2827148-3.7685547.8242188-5.4116211-.0820313-1.9121094-1.0546875-2.4536133-3.0766563-1.1992188-4.9335899.0874023-.1293945.1430664-.2568359.1850586-.3833008 3.2827148.4995117 6.7890625-.152832 9.918457-.8876953 1.8789063-.440918 1.0834961-3.3344727-.7973633-2.8925781-2.3530273.5522461-9.8203125 2.3413086-11.6816406-.1821289-1.9213867-2.6049805 1.0019531-4.0913086 4.347168-4.9833984.2773438.0078125.5463867-.0639648.7851563-.1962891 2.3452148-.5561523 4.7275391-.8476563 5.6767578-1.0454102 6.6938477-1.3959961 13.8173828-1.612793 20.0083008-4.8212891 1.3989258-.7250977.6381836-2.7167969-.7573242-2.7954102-3.8603515-.2163084-10.9423827-6.4443357-12.6933593-9.8769529zm-10.0473633 15.0571289c-.8623047.137207-1.7548828.2822266-2.6479492.4570313-2.1225586-1.7348633-4.5942383-3.0639648-7.2207031-3.8710938 3.5209656-.5948868 7.2745819.9680786 9.8686523 3.4140625zm-23.2568359 14.8422851c-.7954102-4.2558594.3759766-9.0166016 3.0668945-12.4638672-1.0102539 3.3706055-.8081055 7.1933594.3740234 10.7089844-1.2011718.4892578-2.3857421 1.1186524-3.4409179 1.7548828zm6.7880859 4.1752892c-.3798828.9008789-.8325195 1.7709961-1.3149414 2.6264648-7.1945801 3.7504883-21.2281494 16.2412949-29.2758789 27.4291992-.6523438.9067383-2.9072266 3.5507813-3.5688477 5.3183594-1.3564453.9140625-2.8779297 1.7915039-3.9174805 1.684082-3.0571289-.315918-2.0732422-3.0390625-1.1186523-4.7084961.5708008-.9985352 1.3183594-1.925293 2-2.8496094 13.1945038-17.8918991 28.0029907-28.0662308 28.9130859-29.0639648.0390625-.0249023.0776367-.0419922.1171875-.0717773 2.5131837-1.9111328 10.9423829-6.9462852 8.1655274-.3642578zm-.4663085-6.7499962c-1.6152344-4.7573242-1.5219727-10.1108398 2.5761719-13.550293.0439453.0068359.0834961.0195313.1298828.0229492 2.7441406.2026367 5.5224609 1.2075195 7.9023438 2.722168-5.7626953 2.2076225-7.199295 7.8522148-1.409668 10.3330078.0058594.0024414.0112305.0039063.0170898.0063477-1.9868317 3.3311195-.4819946 7.641407 3.0693359 9.1191368-.2407227.6181641-.3530273 1.2539063-.3613281 1.8867188-2.4326172-2.2841797-4.8764648-4.5566406-7.3647461-6.7807579.0757141-2.4448433-1.4883728-4.1718903-4.559082-3.7592774z"/><path d="m270.8789063 26.0830345c-6.8618164 1.2705078-13.2099609 3.9277344-19.1367035 7.5791016-1.6411133 1.0112305-.1357422 3.6069336 1.5141602 2.590332 5.7353363-3.5332031 11.7846527-6.0478516 18.4199066-7.2768555 1.895996-.3510742 1.0927734-3.2426757-.7973633-2.8925781z"/><path d="m28.1635818 194.764679c-.6357422 1.0898438-.9750977 2.3554688-.9160156 3.6171875.0986328 2.1108398 1.2895508 4.1411133 3.0839844 5.2568359-.2548828 3.0073242 1.2661133 6.0991211 3.8041992 7.7319336 2.5380859 1.6333008 5.9824219 1.7363281 8.6137695.2583008 1.6586914 2.703125 4.5039063 4.621582 7.6088867 5.2392578-2.7988281 6.8188477-5.0493164 13.5942383-6.0541992 20.6264648-1.0336914-2.1391602-2.6171875-4.1416016-4.5834961-5.2119141.0097656-2.4038086-1.7299805-5.4711914-2.6757813-6.9794922-.5117188-.815918-1.8100586-.0634766-1.2949219.7573242.9956055 1.5874023 1.4257813 3.8691406 2.2124023 5.706543-1.3588867-.0258789-2.7998047.6293945-2.2294922 2.3085938.5503082 1.6183014 2.7968483 1.3599091 3.6171875-.1669922 2.1069336 2.1416016 3.8579102 3.8261719 4.5839844 6.9550781-.9575043 11.4993439 2.1575317 23.4837646 5.5219727 29.2758789-2.4331055.4370117-4.3510742 3.7402344-3.0004883 5.8100586 1.4770508 2.2631836 6.2822266 2.3564453 8.7231445 2.2592773 1.8702087-.074585 3.7565117-.4290161 5.2929688-1.4838867.4335938-.128418.7407227-.4199219.9213867-.7724609 2.1908455-2.2393188 1.5163956-5.1201172-.3754883-6.1147461-2.4453545-1.2851563-5.18573.6294556-7.8066406.6635742-2.7294922-3.3686523-4.3833008-8.7973633-5.3422852-13.9267578.0463867.0014648.0859375.0117188.1362305.0078125.2602539-.0185547 2.4946289-.9291992 2.3554688-1.0283203 1.315918.9370117 3.2172852.6630859 4.5336914-.2739258 2.2479782-1.5998688 4.3124123-6.3503723 3.4321289-8.6005859.0932655-.5471649-.0814095-.6147614-.1152344-.7148438-.0053711-.0078125-.0117188-.0141602-.0175781-.0214844-.1948242-.3095703-.5805664-.5-.9902344-.2666016-1.3623047.7758789-2.9394531.3540039-4.4223633.5854492-3.1779633.4947205-5.3549118 3.4954681-4.4775391 7.0493164.0507813.2055664.1660156.3369141.3032227.4223633-.3833008.1044922-.7836914.1459961-1.1899414.121582-1.6064377-10.9833984-1.044239-19.8835754 6.0913086-36.8178711 3.2026367-.2998047 6.2729492-1.9765625 8.1972656-4.5625 3.0966797 2.0844727 7.1513672 2.9189453 10.6650391 1.6582031 3.5141602-1.2602539 6.2290039-4.8276367 5.9755859-8.5517578 3.2853622-.1012878 5.9170532-3.079422 5.2543945-6.6069336.0571442-2.4508514-1.4824753-4.8722839-4.5639648-5.4936523.3334961-4.4589844-4.3173828-6.9086914-8.2128906-5.6704102-.2949219-2.2797852-1.8085938-4.3071289-4.2441406-5.2260742-3.1391602-1.184082-6.503418-.0844727-8.3574219 2.4755859-.9482422-2.4204102-3.5209961-4.0478516-6.2866211-3.7675781-2.2626953.2285156-5.1523438 2.1850586-5.3012695 4.5107422-2.7275391-2.1142578-6.484375-2.9199219-9.4633789-.5898438-2.144043 1.6777344-2.5864258 4.328125-1.4736328 6.3730469-3.9784984-1.257263-6.6451797.342499-7.5332031 3.1782229zm21.5864258 58.1479492c-.6518555-2.6386719 1.0507813-5.0102539 3.7709961-5.2255859 1.1000977-.0869141 2.1289063-.0117188 3.1357422-.2294922-.6435547 2.9897461-2.1630859 7.2138672-5.4833984 6.4321289.4765625-.4892578.8706055-1.0673828 1.1240234-1.7250977.3476563-.9013672-1.1020508-1.2915039-1.4462891-.3989258-.2280273.5917969-.6147461 1.065918-1.0898438 1.4174805.0092774-.084961.0126954-.1728516-.0112304-.2705078zm10.4711914-63.1689453c2.4580078.6318359 5.0170898 1.4780273 7.296875 2.605957 4.324707 2.1396484 7.0942383 7.3847656 2.0239258 10.737793-6.8037567 4.4990082-20.3816261 3.5318909-26.6459961-.2231445-10.3941345-6.2306061 1.7926369-17.113617 17.3251953-13.1206055zm.8066407 19.1162109c-.0161133 6.8999023-17.4638672 5.362793-15.8027344-.6953125.2226563-.1811523.4365234-.371582.6416016-.5722656 4.6899414 1.609375 10.1547851 1.949707 15.1611328 1.2675781zm12.5537109-5.8295898c4.3037109 2.0195313 1.4404297 7.0385742-2.440918 7.9960938-2.324707.5732422-7.4882813.4345703-8.2348633-2.4741211 4.2090149-.8112794 8.2109299-2.1771089 10.6757813-5.5219727zm-29.4868164 3.8740234c-.0708008.1508789-.1318359.3012695-.1850586.449707-2.3505859 1.7089844-5.6186523 1.9902344-8.1508789.2353516-1.3693733-.9480286-2.2354584-2.9724731-2.1547852-3.8676758.1342773-1.5004883 1.8320313-2.6669922 3.2167969-3.2705078 1.2097244 3.1381836 4.1744423 5.1062164 7.2739258 6.453125zm38.0063476-8.0878906c.0263672 4.1513672-4.9819336 4.9624023-7.5708008 2.6381836.9536133-1.9941406 1.1240234-4.2109375.262207-6.2978516 3.0834962-.5654297 7.2822267-.4658203 7.3085938 3.659668zm-4.5551757-5.4863282c-1.1674805-.0151367-2.3540039.175293-3.4985352.4375-.981308-1.4692841-2.1317368-2.3305054-3.4648438-3.203125.1230469-.4033203.2055664-.8076172.2504883-1.2109375.0458984-.0112305.0893555-.0092773.1362305-.0288086 3.0498047-1.3115234 6.6635742.6503907 6.5766602 4.0053711zm-8.2553711-3.555664c-3.050293-1.7407227-6.5375977-2.9023438-10.1381836-3.4658203 2.8745117-5.0229493 11.6186523-2.0590821 10.1381836 3.4658203zm-16.069336-6.9667969c1.8608398.2416992 3.2641602 1.5483398 3.7177734 3.230957-2.9394531-.2578125-5.8979492-.1206055-8.7070313.4213867-.7768553-2.3100585 3.1171876-3.8955078 4.9892579-3.6523437zm-13.6757812 2.8081055c2.2675781-.777832 4.5615234-.034668 6.309082 1.4082031-3.2319717.9250793-5.9987717 2.5145874-7.7797852 5.0405273-2.5566406-1.8637695-1.5336913-5.418457 1.4707032-6.4487304zm-2.4213867 8.1000976c-.7407227 1.6181641-1.0268555 3.3837891-.7460938 5.112793-1.144043.9477539-3.0239258 1.6918945-4.4907227 1.2387695-1.8037109-.5561523-2.7353516-2.590332-2.4150391-4.3461914.7548829-4.1347656 4.8007813-3.1196289 7.6518556-2.0053711z"/><path d="m57.7690506 203.1660461c6.2454147-3.540451 5.1989326-8.6762238.2290039-11.4145508-.8457031-.4667969-1.6035156.828125-.7568359 1.2949219 4.0102005 2.2110596 4.9499931 5.8878937-.2290039 8.8242188-.8398438.4760742-.084961 1.7724609.7568359 1.2954101z"/><path d="m149.4531403 202.3159485c1.9301758 0 1.9331055-3 0-3-1.9306641 0-1.9335938 3 0 3z"/><path d="m152.5356598 207.8222961c1.9306641 0 1.9335938-3 0-3-1.9301758 0-1.9335938 3 0 3z"/><path d="m146.6528473 210.2900696c.8969727-.3334961.5087891-1.7836914-.3989258-1.4462891-1.4111328.5244141-3.1293945.1630859-3.987793-1.1616211-.9506836-1.4663086-.2358398-3.4165039 1.1640625-4.2753906.8212891-.5039063.0683594-1.8022461-.7573242-1.2954102-1.9941406 1.2236328-2.9897461 3.8691406-1.8696289 6.03125 1.074707 2.0751954 3.7070313 2.9438477 5.8496094 2.147461z"/><path d="m101.1753006 131.5010071c-20.8134766 1.5351563-35.6118164 20.6137695-37.8613281 40.3447266-.21875 1.9145508 2.7832031 1.8989258 3 0 2.0541992-18.019043 15.809082-35.9394531 34.8613281-37.3447266 1.9135742-.1411133 1.9291992-3.1420899 0-3z"/><path d="m106.2348709 147.5864563c-11.8740234 13.8183594-16.1484375 29.3237305-15.5981445 47.3535156.0585938 1.9257813 3.059082 1.934082 3 0-.5249023-17.2036133 3.3671875-32.0214844 14.7197266-45.2324219 1.2524413-1.4570312-.8603516-3.5888671-2.1215821-2.1210937z"/><path d="m115.643074 156.2407532c-1.3515625 7.3984375-1.0429688 14.6918945 1.0063477 21.9321289.5249023 1.8549805 3.4204102 1.0668945 2.8930664-.7973633-1.8994141-6.7109375-2.2607422-13.4716797-1.0068359-20.3374023.3447265-1.8872071-2.5458985-2.6967774-2.8925782-.7973633z"/><path d="m108.3310623 217.191925c.0083008-2.5595703-1.6206055-4.996582-4.2416992-5.8735352-2.3647461-.7910156-6.0922852-.0112305-7.1098633 2.2924805-4.5305252-7.5740814-13.5024796-4.3223877-12.6381836 1.5083008-1.3579102-1.0966797-2.8764648-1.940918-4.7202148-1.8374023-2.0258789.1132813-3.7963867 1.5771484-4.5595703 3.4238281-2.0777817 2.2962799-1.7080536 5.6188812.3945313 7.4677734-2.3071289 2.7651367-1.2441406 6.4130859.6445313 8.9418945 1.8886719 2.5292969 5.3037109 3.8144531 8.3911133 3.1577148-.9230042 3.1506653.963913 7.2691803 6.5664063 9.3051758-1.4438477 5.2685547-1.5834961 10.8071289-.2880859 16.0400391-1.3144531-.9545898-2.7675781-1.8032227-4.2021484-2.2983398-.0771484-3.8198242-5.1992188-5.5541992-7.2578125-8.0786133-.6108398-.7480469-1.6665039.3183594-1.0610352 1.0610352 1.8929749 2.3196716 3.556366 2.6876373 5.6982422 4.7509766.71875.5600586 1.0649414 1.1879883 1.0444336 1.8823242-3.6777115-.5012817-4.811058 2.3736572-2.9853516 3.7485352 1.6484375 1.2416992 3.4560547-.0107422 4.2006836-1.5961914 2.0602646.7366943 3.6660233 1.6728821 5.3105469 3.0512695.9395752 2.7263794 2.3421173 5.5940247 4.2416992 7.7797852-1.2890625.9907227-1.9912109 2.4262695-1.0385742 4.1166992 2.3647385 4.1953735 14.5944901 3.020752 14.4804688-2.4990234.8017578-1.2011719-.4052734-2.7197266-1.5292969-2.4287109-1.0424957-.4759216-2.0148773.0134888-3.0957031.0883789-2.1134491.1456604-3.267395-1.1510925-5.9716797-.5581055-3.2553482-3.2792664-6.2609787-10.566925-5.6655273-18.4609375.2109375.1933594.4355469.3706055.6811523.5175781-.6640778 3.3255615 2.7894516 5.9420166 6.2416992 6.2827148.96875.0961914 3.5849609.3603516 4.8540039-.5551758.5270233-.1212463.8206253-.8398438.4130859-1.2944336-1.6373749-1.8252258-.4916916-4.5619659-3.3793945-6.796875-1.8496094-1.4321289-4.1914063-1.4594727-6.2363281-.4584961-.519043.2543945-.4487305.8154297-.128418 1.1381836-.8745117-.6318359-1.6391602-1.4614258-1.9726563-2.328125.1533203-.7807617.3383789-1.5585938.5517578-2.3339844 2.5317383.375 5.0673828-.1147461 8.3613281-1.9545898 1.6200409 4.4056854 6.5452423 7.3011932 12.4179688 5.902832 2.6899414-.640625 5.0864258-3.4082031 5.0229492-6.1728516 2.4648438 1.0083008 5.6699219.6708984 7.3574219-1.3896484 1.2705154-1.5507813 1.5146561-4.0053711.769043-5.940918-.3183365-1.6574554-1.2660675-2.8990936-2.6645508-3.7944336 1.8520508-4.1069336-1.4760742-8.315918-5.7641602-8.4995117 1.4526594-6.0231781-5.7620851-10.8760681-11.1328127-7.3076172zm-12.0605469 33.9760743c2.5483398-1.2480469 5.3012695.0327148 6.1010742 2.7324219.3242188 1.0942383.4785156 2.1357422.9238281 3.0952148-3.1323242.0175781-7.6923828-.5566406-7.7202148-4.0786133.6069336.3212891 1.2314453.5478516 1.8295898.6430664.9443359.1503906 1.3505859-1.2949219.3984375-1.4462891-.6621094-.1054688-1.4487305-.4482422-2.1806641-.9360352.188965.0869142.4125978.1054688.6479493-.0097655zm20.4536133-10.7075196c2.2861328 2.9902344-.4243164 6.4858398-4.2548828 6.5849609-2.5253906.0654297-9.0141602-2.0610352-8.3876953-5.609375 4.0347366.7481538 9.0768738 1.0470734 12.6425781-.9755859zm-29.5585937-5.8735351c.3706055-.1162109.7329102-.253418 1.0854492-.4165039 3.8984375 3.2739258 8.9023438 5.6450195 13.9785156 6.8701172-1.4282227 3.1835938-6.8676758 2.3041992-9.4296875 1.387207-2.6499023-.9482422-7.8989258-4.7446289-5.6342773-7.8408203zm-.8012696-1.303711c-2.7070313.7475586-5.6357422-.0317383-7.5844727-2.3168945-1.3935547-1.6337891-1.9804688-4.6010742-.0751953-6.0444336.6621094-.5014648 1.5966797-.7680664 2.5136719-.8842773.0097656-.0009766.0195313-.0019531.0297852-.0029297.34375-.0419922.684082-.0634766 1.0068359-.0683594-.0246506 3.6029968 1.9647446 6.3713074 4.5332031 8.8759766-.1538085.1435547-.2963867.2905273-.4238281.4409179zm29.9506836-3.6640625c3.0366211 4.7055664-.1523438 9.0913086-5.2568359 9.3442383-9.4975204.4690552-19.9222107-5.0753937-23.9931641-10.3730469-7.3562546-9.574173 8.1363449-17.1200409 23.2524414-4.9179688 2.0747071 1.6748048 4.5395508 3.6884767 5.9975586 5.9467774zm-11.8300781-16.496582c1.6230469.9296875 2.5214844 2.7226563 2.3364258 4.4946289-2.7431641-1.453125-5.6616211-2.5078125-8.6005859-2.9902344.2358398-2.4228515 4.6479492-2.4301757 6.2641601-1.5043945zm-14.1938476-2.3969726c2.4389648.1318359 4.300293 1.6518555 5.4350586 3.6376953-.6030045-.0289154-2.2606812-.1007843-2.8120117.1381836-2.5380859-.0371094-4.7841797.6811523-6.5517578 1.9023438-1.8413087-2.7890626.6923827-5.8530274 3.9287109-5.6782227zm-8.260254 4.5893554c1.0737305.5444336 2.0048828 1.4594727 2.8808594 2.3139648-1.2539063 1.2807617-2.1147461 2.8686523-2.4702148 4.6044922-1.3378906.465332-2.9628906.5419922-4.2773438-.0493164-1.8852539-.8476563-2.5327148-3.2973633-1.6411133-5.1108398 1.034668-2.1044922 3.4003907-2.8266602 5.5078125-1.7583008zm44.1401368 24.0717774c-1.5893555 3.7758789-6.1450195 2.8481445-7.9926758.0224609 1.8422852-1.6132813 2.7519531-3.8588867 2.5068359-6.387207 3.2060547.6352539 7.1582031 2.390625 5.4858399 6.3647461zm-7.2456055-13.4018555c3.3881836-.125 6.4487305 3.0283203 4.9702148 6.3388672-1.105957-.4482422-2.3061523-.703125-3.503418-.8764648-.3896484-1.4086914-1.1147461-2.8720703-2.2348633-4.3413086.2924805-.3564453.5415039-.7324219.7470703-1.1245117.0078126-.0000001.0131837.0039062.0209962.0034179zm-1.7270508-.0629883c-2.2919922-2.6923828-5.1938477-5.2045898-8.4267578-7.1962891 4.7563477-3.8168945 12.0712891 2.3945313 8.4267578 7.1962891z"/><path d="m97.7417068 227.6699524c-1.9306641 0-1.9335938 3 0 3 1.9301758 0 1.9335938-3 0-3z"/><path d="m100.5302811 221.6772766c-1.9301758 0-1.9335938 3 0 3 1.9301757 0 1.9335937-3 0-3z"/><path d="m109.2627029 229.2754211c-2.6962891-.5541992-5.543457 1.2646484-5.956543 4.0444336-.140625.9443359 1.3046875 1.3520508 1.4462891.3989258.2861328-1.9282227 2.1455078-3.4008789 4.1113281-2.9970703.9423829.1938477 1.3452149-1.2519531.3989258-1.4462891z"/><path d="m49.321785 199.6723938c-.2133789-.3920898-.0249023-.8364258.3515625-1.0356445.8530273-.4526367.0961914-1.7475586-.7568359-1.2954102-1.109375.5878906-1.4794922 2.0053711-.8901367 3.0883789.461914.8476563 1.7578124.0917969 1.2954101-.7573242z"/><path d="m49.8574295 193.8994446c-.4521484-.4365234-.4296875-1.0922852.1206055-1.4379883.8154297-.5117188.0634766-1.8105469-.7573242-1.2949219-1.3491211.847168-1.5859375 2.6713867-.4238281 3.793457.6943359.6708985 1.7563476-.3881835 1.0605468-1.0605468z"/></g></g></svg>