<svg id="Layer_1" enable-background="new 0 0 300 300" height="512" viewBox="0 0 300 300" width="512" xmlns="http://www.w3.org/2000/svg"><g id="Currency_Exchange"><g><path d="m62.475544 55.3224792c2.870121 1.909668 5.6596718 3.9179688 8.3779335 6.0136719-2.0073242 3.0625-3.9814453 6.1469727-5.8881836 9.277832-1.007328 1.652832 1.5864258 3.1621094 2.590332 1.5141602 1.8339844-3.0117188 3.7314453-5.9799805 5.6586914-8.9287109 4.1347656 3.3242188 8.0957031 6.8608398 11.871582 10.6235352 1.3691406 1.3642578 3.4912109-.7563477 2.1210938-2.121582-3.9208984-3.9067383-8.0410156-7.5717773-12.3432617-11.0141602 3.0336914-4.5517578 6.1689453-9.0351563 9.4282227-13.4370117 1.1494141-1.5527344-1.453125-3.050293-2.590332-1.5141602-3.1772461 4.2915039-6.2392578 8.6591797-9.2026367 13.0932617-2.7631836-2.1230469-5.5966797-4.1591797-8.5092812-6.0976563-1.6118165-1.0722656-3.1157227 1.5249024-1.5141602 2.5908203z"/><path d="m98.1122665 115.8366394c-3.3917389-9.6920395-12.6826096-16.9126053-24.5097656-16.449707-5.512886-.800499-11.353363.1201782-16.1020546 2.1196289-.1098633.0322266-.2207031.0766602-.3330078.1381836-9.8212891 5.3969727-15.4868164 16.6293945-14.1943359 27.762207 4.3523407 37.4910889 68.7206306 25.2393646 55.1391639-13.5703125zm-39.5205116-11.5488281c10.323246-4.0581055 21.4057655-2.6860352 29.1743202 6.0185547 9.4301758 10.565918 6.128418 27.7583008-5.362793 35.4570313-11.0585938 7.4086914-27.3496132 2.8364258-33.8237343-8.5566406-6.520996-11.4750978-1.1870116-26.6987306 10.0122071-32.9189454z"/><path d="m63.6894112 125.5744324c1.5087929.3540039 3.0883827.2641602 4.6586952.2709961.21875 3.4814453.4375 6.9628906.65625 10.4448242-1.2041016-.5166016-2.2578125-1.5048828-2.9780273-2.9658203-.4262695-.8662109-1.7207031-.1069336-1.2949219.7568359.9814453 1.9921875 2.5996094 3.2109375 4.3691406 3.7456055.0800781 1.269043.159668 2.5385742.2392578 3.8076172.0605469.9589844 1.5610352.9658203 1.5 0-.0732422-1.1713867-.1469727-2.3432617-.2207031-3.5151367 9.1997528.7793121 10.4631348-12.9042664-.8613281-13.7109375-.2006836-3.1938477-.4013672-6.387207-.6020508-9.5805664 1.7768555-.2163086 3.625.0356445 5.324707.7358398.8916016.3676758 1.2802734-1.0830078.3984375-1.4462891-1.7197266-.7089844-3.78125-.934082-5.8120117-.6992188-.078125-1.2480469-.1567383-2.4960938-.2348633-3.7441406-.0605469-.9589844-1.5610352-.9658203-1.5 0 .0839844 1.3359375.1674805 2.6723633.2514648 4.0083008-3.7143593.8647461-7.0004921 3.3305664-7.4243202 7.355957-.2700195 2.5664063 1.1694336 3.9824219 3.5302735 4.5361329zm7.7202186.5649414c3.1132813.7592773 7.7319336 5.8955078 3.4799805 9.1621094-1.3920898 1.0698242-2.925293 1.5239258-4.3603516 1.3857422-.2255859-3.5932617-.4516602-7.1865234-.6777344-10.7797852.5244141.0419922 1.0454102.1069336 1.5581055.2319336zm-7.9155311-8.4829102c1.1728554-1.2583008 2.6220741-2.0898438 4.1801796-2.5307617.1933594 3.0771484.3867188 6.1542969.5800781 9.230957-.7006836-.0029297-1.3999023-.0087891-2.078125-.1098633-3.3393593-.4990234-5.0102577-4.0922851-2.6821327-6.590332z"/><path d="m236.667923 234.9948425c7.3457947 1.011261 15.0037994-.4349518 20.9629059-5.0922852 8.4189453-6.5791016 12.0537109-18.6625977 8.6625977-28.7949219-2.9003906-8.6660156-10.7690582-15.3613281-19.6684723-17.2382813-6.6787109-2.4370117-14.128418-2.0791016-21.1904297.7651367-.1132507.0456085-.1989594.0637054-.3583984.1513672-9.8896484 5.4472656-15.5800781 16.90625-13.9892578 28.1162109 1.7845 12.5772554 13.336563 21.6045687 25.5810546 22.0927736zm-10.1665039-47.5664062c10.2172852-4.0151367 21.1879883-2.6538086 28.8725586 5.9570313 9.1684723 10.2749023 6.1880035 26.9106445-4.7617188 34.7246094-10.7426758 7.6665039-26.9467773 3.5463867-33.6938477-7.53125-6.9374999-11.3906251-1.6943359-26.8715821 9.5830079-33.1503907z"/><path d="m232.0136261 220.2970886c-.1459961.3164063-.1157227.722168.2573242.9658203 1.5200195.9941406 3.2084961 1.5795898 4.8803711 1.7768555-.1230469 1.2519531.0429688 2.4931641.4941406 3.6679688.3422852.8920898 1.7929688.5043945 1.4462891-.3989258-.4018555-1.0463867-.543457-2.0952148-.4433594-3.2060547.6928711-.0175781 1.3725586-.0966797 2.0258789-.2543945.006897.2114868-.1240234-.4890747.6987305 3.6264648.1894531.9453125 1.6352539.5454102 1.4462891-.3989258-.7869263-3.9362793-.6800995-3.4930267-.7802734-3.6870117 2.6479492-1.1269531 4.6108398-3.5625 4.730957-7.3242188.1489258-4.65625-3.9731445-6.1269531-8.2255859-6.2788086 3.8916016-1.8725586 7.2709961-4.8500977 6.1782227-9.144043-.9882813-3.8852539-3.972168-6.0292969-7.2431641-6.3842773-.0751953-1.4975586-.1499023-2.9951172-.2246094-4.4926758-.0483398-.9609375-1.5483398-.9667969-1.5 0 .0737305 1.480957.1479492 2.9624023.222168 4.4438477-2.1728516.1279297-4.3486328 1.0498047-6.0717773 2.7592773-.3774414-.0039063-.7416992.2348633-.7114258.7202148.4868164 7.8022461 1.3701172 15.5478516 2.644043 23.2597656.0258788.1552736.0937498.2626954.1757811.3491212zm11.8408203-7.5683594c2.3813477 2.8256836 1.3457031 5.3208008-1.4394531 7.4418945-3.027832 2.3056641-6.0136719 1.9477539-9.230957-.1054688.295105-.5048981-.0019989-.0839081-1.1499023-9.2563477.1367188.0634766.2919922.0976563.4760742.0556641 3.8764648-.9057616 8.6098632-1.3798827 11.3442382 1.8642579zm-3.890625-17.2475585c3.2451172 1.9282227 4.6542969 6.359375 1.7944336 9.2641602-3.5479736 3.6034546-9.3931732 4.4608307-9.8857422 4.7822266-.487793-4.081543-.8710938-8.1748047-1.137207-12.284668 2.3945312-2.5341798 5.9936523-3.6840821 9.2285156-1.7617188z"/><path d="m233.457962 193.196991c-.0664063-.8554688-.1333008-1.7104492-.2001953-2.5654297-.074707-.9560547-1.5751953-.9643555-1.5 0 .0668945.8549805.1337891 1.7099609.2001953 2.5654297.0747071.9560547 1.5751953.9638672 1.5 0z"/><path d="m33.2919502 247.0353699c.2172852 6.7148438.5151367 13.4267578.9208984 20.1357422.081543 1.3422852 1.5717773 1.7485352 2.4213867 1.2124023.5150871.2922974.9174728.1502075 3.246582-.0473633 19.0117188 2.78125 44.8144569 1.2895508 64.7558594-2.9545898 22.6787109-4.8266602 44.8437424-12.0336914 67.7236252-15.793457 22.8798828-3.7602539 47.0737305-3.8793945 68.449707 5.1025391 5.6367188 2.3686523 11.6401367 5.5585938 17.6411285 6.7299805 5.9287109 1.1567383 3.8378906.7993164 17.1962891-5.53125.6948242-.0693359 1.3779297-.5415039 1.4589844-1.4228516 6.78125-73.7490234-9.8725586-147.5698242-1.659668-221.3056641.0932617-.840332-.4311523-1.3085957-1.0678711-1.4096699-.1328125-.0458984-.2734375-.0810547-.4321289-.090332-20.5039215-1.2211914-40.4311676 1.0756855-60.8315582 2.4750996-46.3961945 3.1831093-74.9864655-3.7144547-107.0341721-3.8847675-26.8212891-.1425781-53.1679726 5.4829121-77.8383789 15.9179707-1.0284901.4351044-.809227 1.2828064-.640625 2.4414063-2.125 2.6577148-4.2495117 5.3149414-6.3745117 7.9726563 16.4775392 53.2148435 8.2397481 131.3339841 12.0644532 190.4521482zm239.0117302-212.4589844c-1.5722656 14.6826172-2.171875 29.3686523-2.1782227 44.0571289-.3180237-.1126938-18.0546722.210556-69.905777 1.9038086-.9316406-14.347168-2.0439453-28.6821289-3.4453125-42.9892578 34.7425538-1.1248741 46.6163484-4.523819 75.5293122-2.9716797zm-78.5210113 3.0581055c1.4003906 14.3110352 2.512207 28.6499023 3.4433594 43.0014648-29.5898438.9707031-59.1787109 1.9902344-88.7739182 2.7861328-.2236328-14.9003906-.3237305-29.8022461-.2792969-44.7026367.0058594-1.9306641-2.9941406-1.9331055-3 0-.0444336 14.9267578.0556641 29.8549805.2802734 44.7822266-17.746315.4663925-34.8754654.8834534-52.8129921 1.0024414-1.9296875.0131836-1.934082 3.0131836 0 3 17.6196327-.1166992 35.2387733-.4492188 52.8564491-.8857422.456543 27.9545898 1.3969727 55.9018555 2.8549805 83.8188477-5.229332-3.4666748-10.4385147-7.4206848-15.0234375-11.7783203-1.5136719-1.4384766-3.3105469-4.5307617-5.4765625-4.8457031-1.0771484-.1567383-2.1923828.6381836-1.8452148 1.8452148.612793 2.1289063 1.3212891 4.1816406 2.1049805 6.1728516 1.3701172 4.9199219 3.390625 9.6396484 5.9267578 14.0898438-7.6850586.9487305-15.3564453 2.0112305-23.0136719 3.1621094-1.902832.2856445-1.0942383 3.1767578.7973633 2.8925781 7.9501953-1.1943359 15.9160156-2.2924805 23.8974609-3.2602539 3.8378906 6.0400391 8.6376953 11.5102539 14.0581055 16.215332.6870117 10.4536133 1.4663086 20.9013672 2.3657227 31.3388672.1645508 1.9086914 3.1660156 1.9262695 3 0-.8237305-9.5639648-1.5493164-19.1357422-2.1938477-28.7128906.03125.0244141.0605469.050293.0917969.074707 13.2885742 10.328125 29.4565353 16.4560547 45.9365158 19.8725586 1.6181641.3354492 3.0249023.9057617 4.6044922 1.1835938-.7875977 2.6430664-1.4833984 5.315918-1.9453125 8.0229492-.1606445.9404297.5356445 2.043457 1.5615234 1.9008789 2.5703125 1.9628906 3.2905273 3.1083984 4.972168 4.5268555 7.8901367-2.9443359 16.3876953-5.3828125 24.7231445-6.5825195 1.2368164-3.2407227 2.9946289-6.2783203 5.1694336-8.9804688 1.128418-.1713867 1.4189453-1.7963867.6606445-2.5068359-9.746582-9.1269531-17.3828125-20.2705078-22.1943359-32.737793-.3222656-.8354492-1.3305664-1.4907227-2.2036133-.8964844-1.4819336 1.0092773-1.7509766 2.6513672-2.3754883 4.3164063-.7724609 2.0600586-2.1972656 4.7143555-2.706543 7.0629883-17.6538391-.7127533-35.9357147-7.9913025-51.2900314-16.5483398 27.6757736-2.6821289 55.4501877-4.1010742 83.2358322-4.246582.2558594 13.1845703.3276367 26.3725586.1337891 39.5507813-.0288086 1.9311523 2.9711914 1.9316406 3 0 .1938477-13.1801758.1220703-26.3696289-.1342773-39.5556641 20.8803711-.0405273 41.7641602.6230469 62.6137848 2.015625 1.9277344.1289063 1.9194336-2.8720703 0-3-20.871109-1.394043-41.7768707-2.0576172-62.6787262-2.015625-.203125-9.4125977-.4970703-18.8222656-.8613281-28.2250977 10.8740234 4.6108398 15.206543 7.3632813 20.1083984 10.3208008.3359375.2744141.6787109.5400391 1.0097656.8198242 1.6035156 1.355957 3.0761719 3.6455078 5.2802734 3.7783203.9208984.0551758 1.7724609-1.0112305 1.4467773-1.8989258-1.96875-5.3652344-4.5019531-10.2216797-7.4907227-14.6269531 2.1655273-3.0810547 4.328125-6.1630859 6.4916992-9.2451172 3.1884766 3.8510742 6.1450195 7.9003906 8.8349609 12.1728516 1.0258789 1.6298828 3.6230469.1259766 2.590332-1.5141602-2.9208984-4.6401367-6.1425781-9.0385742-9.6376953-13.2041016 3.4824219-4.9624023 6.9658203-9.9243164 10.4516602-14.8847656 1.1123047-1.5830078-1.4873047-3.0834961-2.590332-1.5141602-3.2944336 4.6875-6.5859375 9.3769531-9.8774414 14.0664063-3.4106445-3.855957-7.0615234-7.5058594-10.9790039-10.9135742-1.4501953-1.262207-3.5810547.8510742-2.1210938 2.1210938 4.0546875 3.527832 7.8261719 7.3056641 11.3300781 11.3134766-2.1113281 3.0083008-4.2226563 6.0161133-6.3359375 9.0229492-5.3618164-7.1469727-11.9868164-13.0151367-19.4379883-17.7949219-.5546875-11.7348633-1.1821289-23.4702148-1.9223633-35.1982422 69.6691132-2.367775 68.9287567-1.868782 69.7070465-2.1777344.2612305 56.8671875 9.0219727 113.7646484 4.1835938 170.6206055-67.7734375-26.6010437-120.1330109-8.0189972-179.5615234 4.7192383-38.085144 8.1639099-55.993782 8.4051208-57.616703 8.8295898-4.2045898-72.3930664 3.637207-145.1005859-6.5488262-217.1777344 22.8046856-9.5288086 47.1621094-14.8427734 71.9052734-15.159668 30.832842-.3945849 50.3568746 5.4270819 91.2997915 4.3706053zm32.5864257 112.5161132c-1.2299805-1.1870117-2.4458008-2.4355469-3.0424805-2.8959961-3.1474609-2.4262695-6.4375-4.6601563-9.824707-6.7373047-18.6461334-11.4339294-46.6343079-21.9709778-69.5498047-20.8022461-.7646484.0390625-1.5615234.6567383-1.5 1.5.0966797 1.3349609-.9570313 5.96875-2.0654297 8.7822266-5.3950195-10.5927734-12.8300705-20.0209961-21.8388596-27.7734375 9.990715-2.6948242 19.2538986-7.4829102 28.6591721-11.753418-.8628998 5.9118042-2.2458801 10.1096878-2.2734375 10.8076172-.4956055.8276367-.0820313 2.3007813 1.2260742 2.4541016 33.0273744 3.8645172 66.5851594 16.3822022 80.2094727 46.418457zm-78.3041992-49.1796875c1.0756836-4.2539063 2.0327148-8.5810547 2.4609375-12.949707.1235352-1.2573242-1.3359375-1.7006836-2.2568359-1.2954102-10.9516602 4.8183594-21.5786057 10.6655273-33.3364182 13.3095703-1.0322266.2319336-1.5366211 1.7993164-.6616211 2.5068359.0361328.0292969.0708008.0595703.1069336.0888672-.4111328 3.3950195-.3027344 6.0961914-.9902344 8.0771484 5.5771484 6.3095703 13.9355469 16.1225586 18.0439377 23.4736328 2.8994141-.0063477 5.0439453-.4047852 7.5634766-.2397461.4624023.9223633 1.6650391.8227539 2.3383789.2768555 1.5458069-1.2538605 1.407135-3.2670898 2.4916992-6.3789063 7.4609375-1.847168 15.8325195-.3383789 23.3237305 1.371582 7.703125 1.7583008 14.8598633 3.2680664 22.2504883 6.0625 4.1591797 1.5727539 7.7172852 2.9736328 10.8139648 4.2431641.3867188 9.828125.6987305 19.6635742.9106445 29.5019531-29.2514648.1547852-58.4916992 1.7104492-87.615715 4.6767578-.6904297-.4160156-1.3745117-.8408203-2.0576172-1.2680664-1.519043-28.6040039-2.4882813-57.2412109-2.9550781-85.8847656 29.6459885-.7568359 59.2880783-1.8193359 88.9247971-2.831543.6977539 11.0649414 1.293457 22.1357422 1.8237305 33.2070313-15.2617188-8.9379881-33.5141602-13.7060545-51.1791993-15.9477538zm22.4780274 94.8984375c.8105469.0185547 1.5-.7021484 1.5-1.5 0-1.1894531 1.4462891-5.9057617 2.6787109-8.5644531 4.6391602 10.9873047 11.34375 20.9355469 19.7885742 29.3583984-10.1665039 1.9599609-19.730957 6.0717773-29.4311523 9.6333008 1.3746643-6.1820831 3.0771484-10.1030884 3.0771484-10.8574219.5288086-.7895508.3994141-2.0039063-.784668-2.2358398-32.5187988-6.3767242-64.81073-20.7068634-76.6210861-51.3764648 18.4225693 17.7614593 53.0689774 34.9419555 79.7924729 35.5424804z"/><path d="m221.8739777 62.8478699c5.9353943 7.0039215 17.2991486 6.3582611 22.7939453.8066406 3.4638672-3.4995117 4.722168-7.668457 3.25-12.75-1.1738281-4.0517578-4.7495117-7.6943359-8.5014648-9.0546875-5.7099915-3.1052284-13.1940765-1.4476395-16.4545898 2.0009766-4.9135743 5.2055664-5.8833009 13.3378906-1.0878907 18.9970703zm19.824707-14.9106446c2.9863281 4.7265625 2.1416016 10.7749023-2.1088867 14.40625-4.3007813 3.6743164-10.7412109 3.2338867-14.7275391-.6782227-7.3816071-7.2445221.4474945-16.0001297.4956055-16.1005859.1012878-.0327453 10.5983124-6.7172966 16.3408203 2.3725586z"/></g></g></svg>