<svg id="Layer_1" enable-background="new 0 0 300 300" height="512" viewBox="0 0 300 300" width="512" xmlns="http://www.w3.org/2000/svg"><g id="Customer_Satisfaction"><path d="m162.2231445 240.6455841c1.5656891-.029953 3.1857605-.2168884 5.3164063-.4316406-.7742004-.0881042-2.7075653-1.0031738-5.4228516-.0664063-.578125.0107422-1.1552734-.0039063-1.7314453-.0488281-1.4719238-.1156006-4.8703918-.8691864-4.2470703-2.1982422.4622803-.9834442 1.9431915-.9793701 2.203125-1.0742188l-.0634766-.4951172c-.1081696.0072021.1485138-.0800171-4.7607422.8974609-.3612671-1.528717-1.6995392-2.3401642-1.9472656-2.5810547l-.0683594.4267578c-.1547241.9688416-3.1419525.8806305-4.1210938.7988281-2.9189453-.2490234-5.6708984-.9306641-7.8300781-1.9345703-.1777344-.0957031-.3642578-.1875-.5585938-.2724609l-.2148438.4511719c.1796875.0917969.3632813.1826172.5517578.2695313 1.0732422.5859375 1.7685547 1.3564453 1.9365234 2.1669922.1318359.6357422-.0703125 1.265625-.5859375 1.8222656-1.8240356 1.9695282-5.5203247 2.1943359-8.2011719 2.1943359l-.0175781.4990234c.1007996.0071259 8.4233856.2261505 9.09375.2265625 1.2155151 0 2.4102173.0234833 1.8828125.9804688-.4238281.7685547-.890625 1.5341797-1.3994141 2.2939453-1.5224304 1.0572357-2.2321777 2.3224792-3.0107422 3.8896484l-.8398438 1.6894531 1.2509766-1.4121094c1.0996094-1.2412109 2.0898438-2.515625 2.9619141-3.8095703 3.1160583-2.1110229 6.1183929-2.8062134 11.2451172 1.2558594-.2315216-1.8169708-1.2937927-2.5173035.359375-3.8457031 3.2832031 1.0253906 6.2089844 2.2939453 8.6972656 3.7705078l.2568359-.4296875c-.0009766 0-.0009766 0-.0009766 0-1.4589844-.8759766-3.1171875-2.1923828-2.7304688-3.4941406.1757816-.5917968.9609379-1.1660155 1.9960941-1.5390624z"/><path d="m127.9431076 169.011795c-.0610352-14.7666016-.2319336-29.53125-.4335938-44.2959061 1.7666092 9.6543045 3.9389725 19.037117 6.8794022 28.5048904.5708008 1.8378906 3.4672852 1.0537109 2.8925781-.7978516-2.7290039-8.7880859-4.7958984-17.5039063-6.4926758-26.4306717 11.1766815 7.6131821 41.407959 13.1840744 59.2529297 2.2773514-2.1469727 13.0478516-6.8071289 25.9541016-11.8916016 38.0332031-.7480469 1.7763672 2.1538086 2.5527344 2.8930664.796875 4.2119293-10.0056305 14.504303-38.2055664 12.3637695-46.7421951 9.9848633-4.3974609 17.1147461-13.5175781 17.6938477-24.8564453.6040039-11.8173828-6.3876953-23.0556641-17.2539063-27.7314453-23.2307281-9.9957619-47.764328 13.064888-37.4355469 37.7304688-8.1215668-.5053635-13.9311523.032753-19.1323242 1.1181641-3.3603516-.6787109-6.7011719-1.4716797-10.0459061-2.2412109-.7215576-51.4429359-.4113846-51.1953583-.5498047-52.0566406 1.3505936-1.2851563-.7387695-3.3359375-2.1640625-2.0751953-8.4975586 7.5136719-17.3505859 14.6152344-25.96875 21.9892578-1.2548828 1.0732422-3.9648438 2.6835938-4.6616211 4.2636719-.1484375.3369141-.2299805.7421875-.2788086 1.1757813-.4438477.4853516-.9135742 1.0195313-1.3779297 1.5488281-2.5191422 2.8715286-2.6364136 2.8011475-2.7744141 2.9414063-1.1747513 108.2675552-.2409515 73.9623947-.2753906 110.9375076.0932236.1042786 1.6895142 2.3059387 4.5219727 4.4609375.1254883 1.1826172 1.5073242 1.8564453 2.5263672.9541016 10.4887695-9.2880859 21.5053711-17.9570313 31.9897537-27.25.817383-.7246095.4570314-1.7460939-.2773512-2.254883zm29.2797928-76.412117c4.9677734 6.2841797 11.9414063 10.1318359 19.5893555 12.3916016-2.2783203 4.5869141-7.6494141 7.1660156-13.9814453 5.2646484-4.3040162-5.0991668-6.0851594-11.5174713-5.6079102-17.65625zm26.5400391 20.7851563c.706543-2.1181641 1.2368164-4.2929688 1.6748047-6.4912109 1.8422852.2753906 3.6889648.4589844 5.5273438.5224609.0014648 3.4648438 1.3271484 6.7753906 4.1933594 8.7021484-4.3243103 2.5229721-8.5206909 3.7917328-14.4716797 3.3310547.3969727-.5625.7753906-1.1376953 1.1206055-1.7353516.4838867-.8369141-.8115234-1.5927734-1.2949219-.7568359-.4609375.796875-.9643555 1.5644531-1.5214844 2.296875-5.4052734-.7714844-10.3720703-3.2050781-14.3442383-7.0712891 5.6425781.8554688 11.3964844-1.3349609 13.9267578-6.7001953 1.8287048.4781799 3.6624908.8709946 5.3999023 1.1748047-.4394531 2.1435547-.9677734 4.2617188-1.6567383 6.3291016-.3061524.9179687 1.1420898 1.3115234 1.4462891.3984375zm5.965332 8.3515625c.2158203.4941406.2124023 1.0976563.1230469 1.6982422-5.3345184 7.38517-45.5227509 5.4556046-58.1674805-5.0791016 2.003418-1.4130859 4.0068359-2.8261719 6.0102539-4.2392578 7.684082-2.3310547 16.6132813-1.2353516 24.4487305-.1855469 7.8090667 7.8828583 19.4656372 10.1739426 27.5854492 7.8056641zm6.8105469-6.4648438c-3.6806641-1.7099609-4.671875-4.6103516-4.2597656-7.8378906 4.7089844.0087891 9.3300781-.8349609 13.6196289-3.0185547-2.010254 4.4199219-5.2705079 8.1435547-9.3598633 10.8564453zm10.2285156-13.0546875c-4.1538086 2.484375-9.0839844 3.7275391-14.2504883 3.9238281 2.2099457-9.6316071 11.4043427-15.8398056 12.7866211-23.7060547 3.0722504 6.0225144 3.7599945 13.0926362 1.4638672 19.7822266zm-2.7587891-22.0195312c-.142395 10.1038208-12.069046 15.6757202-12.9829102 25.9765625-1.7768555-.0009766-3.574707-.1191406-5.371582-.3505859 1.0345612-5.6350403 3.5146484-24.1293564 2.5991211-36.7792969 6.8263092 1.6313019 12.2292633 5.6635818 15.7553711 11.1533203zm-17.2758789-11.4736328c.9629059 12.6325378-1.4864349 31.2695007-2.5498047 36.8798828-1.7402344-.2822266-3.472168-.6708984-5.1791992-1.1513672 4.3025208-11.9146957-10.2112885-20.0991287-10.8388672-31.25 5.1684571-3.7851562 11.6948242-5.671875 18.5678711-4.4785156zm-19.961914 5.5673828c1.3481598 11.278038 14.5138702 18.7921906 10.5068359 29.6386719-8.1000977-2.6162109-15.4267578-7.3720703-19.7900391-13.4707031 1.0429688-6.350586 4.4589844-12.116211 9.2832032-16.1679688zm-40.6777421 41.6523437c-6.3759766-1.5722656-12.6757813-3.5869141-19.0981445-4.9365234 1.6209946-.9060059 5.2035599-3.2974091 9.3696289-5.7714844 5.0810547.8115234 10.0878906 2.0498047 15.1098709 3.1962891-3.067337 1.4338074-5.9680099 4.206665-5.3813553 7.5117187zm-25.4208984-41.5878906c7.6401367-6.5371094 15.4526367-12.8769531 23.0512695-19.4628906.0732422 16.2714844.2729492 32.5410156.5004883 48.8105469-2.5131836-.5507813-5.034668-1.0576172-7.5766602-1.4482422-.3945313-.1679688-.8598633-.1699219-1.2944336.0859375-4.3876953 2.5810547-8.6083984 5.4287109-12.9897461 8.0195313-1.1742935.6949921-.8883209 2.6584396.4501953 2.8974609 1.0424805 2.9423828 2.1147461 5.875 3.1518555 8.8203125.2548828.7236328 1.2211914.6113281 1.4370117.0712891.0258789-.0185547.0537109-.0244141.0791016-.046875 2.2836914-2.0683594 4.5673828-4.1357422 6.8505859-6.2041016 3.3652344.9101563 6.7207031 1.8671875 10.0942383 2.7207031.2421875 17.1679764.4589844 34.3369217.5239258 51.5068436 0 .0078125.0019531.0146484.0024414.0224609-9.1582031 8.0507813-18.6816406 15.6728516-27.8891602 23.6660156l-.2788085-107.5556717c-.0194168-9.7355957-2.1232529-6.7644653 3.8876953-11.9033203z"/><path d="m153.5649414 171.0918732c-1.4125977-3.8115234-2.824707-7.6230469-4.2368164-11.4335938-.6650391-1.7949219-3.565918-1.0185547-2.8930664.796875 1.4121094 3.8115234 2.824707 7.6230469 4.2368164 11.4335938.6650391 1.7949218 3.565918 1.0185547 2.8930664-.796875z"/><path d="m167.2260284 217.0596466c-5.1113281-35.9267578-16.3017578-70.6962891-33.0737305-102.8730545-.4462891-.8564453-1.7412109-.0996094-1.2949219.7568359 16.7138672 32.0673904 27.8291016 66.7158279 32.921875 102.5146561.1357423.9521484 1.5810548.546875 1.4467774-.3984375z"/><path d="m155.8474579 180.9453888c.2080078.9423828 1.6542969.5439453 1.4462891-.3984375-2.5498047-11.5537109-6.9658203-22.4140625-13.1958008-32.4707031-.5073242-.8193359-1.8056641-.0673828-1.2954102.7568359 6.1616211 9.9462891 10.5234375 20.6894531 13.0449219 32.1123047z"/><path d="m178.3695526 189.5371857c5.5485992 2.0428162 3.1596985.7804413 8.5400391 4.0117188 1.6591797.9970703 3.1694336-1.5957031 1.5141602-2.5898438-5.3269043-3.1990509-3.4045105-2.1618805-9.2568359-4.3144531-1.1186523-.4111328-1.8427734.5332031-1.8134766 1.4726563-.2255859-1.7685547-.8574219-3.2851563-2.1513672-4.1982422-2.46875-1.7412109-4.5942383.2333984-4.5874023 2.6630859-4.0019531-1.7148438-6.2470703-5.4814453-8.9814453-9.2265625-6.659317-9.1187439-13.5611267-16.9235382-33.84375-18.9609375-4.0966797-.4111328-16.8564453-3.1660156-16.9296875 4.1201172-.0253906 2.5166016 1.5791016 4.1630859 3.9091797 5.2792969 1.1689453 3.1396484 4.2089844 4.9785156 7.7207031 6.1064453-.7660599.9586792.0414505 4.0114899 4.0424805 5.4863281 5.036377 3.7248383 9.2724457 3.43367 12.9799805 5.0087891 1.5.6367188 2.6523438 1.7333984 3.5952148 3.0546875.8081055 2.7753906 1.3530273 5.7246094 2.9301758 8.1533203 2.7782135 4.2772522 11.598587 11.0883026 15.9926758 11.9199219-1.215332 1.2148438-.0141602 3.5185547 1.4238281 4.4589844 1.4379883.9394531 3.2407227 1.0527344 4.909668 1.4619141 6.4462891 1.5810547 7.0317383 6.1308594 13.4243164 7.9179688 1.5053711-.5019531 3.3061523-.8154297 4.8535156-1.4277344 1.4570313.6308594 3.1655273-1.2402344 1.7592773-2.3300781-5.1435547-3.984375-10.3623047-6.90625-16.3886719-9.1503906 2.2341003-3.2205048 5.9480438-14.6747131 5.3657227-20.1123047.0830077.503906.3906249.9746091.9916991 1.1953123zm-4.8115234-3.0761719c.0561523.3359375.0991211.6621094.1435547.9902344-.0805664-.0263672-.1621094-.0517578-.2553711-.0654297-.0019531 0-.003418-.0009766-.0053711-.0009766.1235351-.2646484.1752929-.5751953.1171875-.9238281zm-43.4257813-15.7519531c.1552734.6357422.3642578 1.2607422.6171875 1.8564453-3.5839844-.4423828-8.2788086-1.2304688-11.0800781-3.2402344 3.8798828.7871094 8.0874023.9814453 10.4628906 1.3837891zm2.7841797 5.1074218c1.0932617 1.1083984 2.3745117 2.0019531 3.6508789 2.8984375-6.4878235-1.094162-10.414505-1.8522797-11.3115234-4.0742188 2.7138672.6035157 5.4575195.9140626 7.6606445 1.1757813zm34.1894531 30.7714844c1.3696289-1.4436798.4641113-2.8420715-.6977539-2.9970703-7.1337891-.953125-14.3066406-3.6171875-18.1699219-10.1005859-2.7275391-4.578125-2.2114258-10.3417969-6.1484375-14.2636719-2.2606812-2.2521973-9.8910065-5.9576263-9.2314453-10.1191406.3720703-2.3486328 1.9101563-2.5585938 4.2602539-1.2998047 1.9403229 1.0385895 1.7107544 1.0572357 14.1035156 15.0136719 1.284668 1.4462891 3.4003906-.6816406 2.121582-2.1210938-3.7329102-4.203125-7.4296875-8.4589844-11.3217773-12.515625-2.2548828-2.3505859-4.2451172-3.8447266-7.5214844-4.2070313-3.1083984-.3427734-4.4228516 1.3847656-4.6386719 3.6552734-3.2226563-.4873047-6.4863281-.5175781-9.6782227-1.4023438-1.3227539-.3662109-4.3300781-.9648438-5.2368164-2.1748047-2.5063477-3.3466797 1.6220703-3.3046875 3.1875-3.359375 16.5350494-.5876007 31.1476898 4.8874207 41.3857422 18.8310547 3.6787109 5.0097656 6.6459961 9.7675781 13.128418 10.7509766.5224609.0791016.9580078-.0888672 1.28125-.3730469.2151185 4.5510255-1.7247313 17.050049-6.8237304 16.6826173z"/><path d="m165.7863312 187.90242c-13.4472656 10.8740234-24.5161133 24.1640625-32.7915039 39.3466797-.4619141.8486328.8325195 1.6064453 1.2954102.7578125 8.2172852-15.078125 19.2060547-28.2480469 32.5571289-39.0429688.7504882-.6074218-.3164063-1.6630859-1.0610352-1.0615234z"/><path d="m155.4802094 205.6182404c-4.0849609 5.6972656-8.1704102 11.3955078-12.2553711 17.0927734-.5634766.7861328.7373047 1.5361328 1.2954102.7578125 4.0849609-5.6982422 8.1699219-11.3955078 12.2548828-17.09375.5634765-.7851563-.7368165-1.5351563-1.2949219-.7568359z"/><path d="m148.5817871 166.7110138c.4458008 3.5917969.8911133 7.1826172 1.3364258 10.7734375.1171875.9453125 1.6186523.9570313 1.5 0-.4453125-3.5908203-.890625-7.1816406-1.3364258-10.7734375-.1171875-.9453125-1.6186523-.9570313-1.5 0z"/><path d="m150.4472656 182.0576935c.2021484-4.8994141.4038086-9.7988281.6054688-14.6982422.0400391-.9648438-1.4599609-.9638672-1.5 0-.2016602 4.8994141-.4033203 9.7988281-.6054688 14.6982422-.040039.9648437 1.4604492.9628906 1.5 0z"/><path d="m149.409668 165.0713654c-.1064453 2.2861328-.2128906 4.5722656-.3193359 6.8583984-.0449219.9648438 1.4550781.9628906 1.5 0 .1064453-2.2861328.2128906-4.5722656.3193359-6.8583984.0449218-.9658204-1.4550782-.9628907-1.5 0z"/><path d="m149.5764313 163.1094513c-.2177734 3.0478516-.4355469 6.0957031-.652832 9.1435547-.0693359.9638672 1.4311523.9589844 1.5 0 .2172852-3.0478516.4350586-6.0957031.652832-9.1435547.0688476-.9638672-1.4316407-.9589844-1.5 0z"/><path d="m156.4596863 134.7354279c-3.5761719 7.4013672-8.2739258 14.0400391-14.0766602 19.8642578-.6826172.6855469.3779297 1.7460938 1.0605469 1.0615234 5.8935547-5.9160156 10.6772461-12.6484375 14.3115234-20.1689453.4179688-.8652344-.875-1.6269531-1.2954101-.7568359z"/><path d="m155.6842499 137.1758575c-1.6992188 7.8144531-6.0302734 14.5273438-12.5087891 19.2275391-.7739258.5615234-.0258789 1.8632813.7573242 1.2949219 6.8041992-4.9355469 11.4101563-11.9023438 13.1977539-20.1240234.2045899-.9414063-1.2412109-1.3437501-1.446289-.3984376z"/></g></svg>