<svg id="Layer_1" enable-background="new 0 0 300 300" height="512" viewBox="0 0 300 300" width="512" xmlns="http://www.w3.org/2000/svg"><g id="Customer_Services"><g><path d="m137.9385223 163.2995605c-.9199219-1.3105469-2.3300781-2.0107422-3.8696289-1.9599609-3.6961823.1402283-5.0898895 5.4918671-2.3999023 7.8398438 3.6482544 3.140625 9.5162506-1.278061 6.2695312-5.8798829z"/><path d="m266.2324829 96.9499588c-41.8691864-40.2908249-149.4667129-31.8021545-169.6508865 13.9931641-6.3759766 14.4667969-1.0844727 28.0624924 8.5668945 38.4648361-.003418.0009766-.0068359.0009766-.0097656.0009766-83.2556286 8.9994354-110.5757413 43.6297912-54.5698242 65.3798828.6711311-2.144989.820858-5.8779907 1.3598633-7.2597656 4.805687-12.305191 24.9340973.3856659 26.0600586-14.5996094.2998047-3.9697266-.3198242-8.0703125 1.2299805-11.8603516 2.6601563-6.5195313 10.3300781-8.3994141 16.7397461-7.5595703 8.6649094 1.1214905 27.4397507 11.3757477 31.3803711-2.4003906-1.7903214-2.8455963-1.9418182-6.4115143-.9248047-8.6699219 1.5107422-2.2382813 4.4262619-3.5097656 6.8232346-4.4833984 1.7651367-.7177734.9936523-3.6210938-.7973633-2.8925781-2.9501953 1.1982422-6.3286057 2.6933594-8.28759 5.3427734-.0043945-.0029297-.0092773-.0048828-.0136719-.0068359-.0302734-.0195313-.0498047-.0302734-.0800781-.0400391.4059677-9.2623291 6.9089279-13.0044403 11.6201096-10.8398438h.0029297c1.597168 1.6396484 2.4873047 4.0810547 2.1469727 6.7294922-.2456055 1.9101563 2.7568359 1.8916016 3 0 .8657227-6.7333984-4.6479492-12.7919922-11.5561523-11.6630859-6.2246017 1.015625-9.6049728 6.7412109-10.1103439 12.5830078-10.3623047-6.6425781-19.7749023-16.5771484-21.9311523-28.2744141 2.9169922-4.8603439 10.3037109-9.4570236 16.1669922-8.3476486 4.0693359.7714844 8.2338867 3.2265625 11.2558594 6.1748047 10.5740585 16.0349655 44.8698654 20.6080246 64.3955002 19.9501877-.1526794.8126526 7.0965729 12.3934784 1.5561523 27.4648438-16.3217773.1396484-32.7246094-2.2373047-47.9428711-6.2285156-1.1303711-.296875-1.8632813.6435547-1.8574219 1.5419922-.0024414.0029297-.0039063.0068359-.0063477.0097656-2.1621704 3.1795807-7.4633942 6.6660919-11.1699219 4.1191406-3.4824524 7.4485931-12.6379623 8.6117401-20.4501877 6.6503906-5.8203125-1.4599609-11.4702148-4.3496094-17.6098633-3.8798828-3.6401367.2802734-7.0200195 1.6103516-8.9399414 4.8095703-3.3810654 5.627533.6523895 14.5457458-4.6201172 19.9306641-5.7344284 5.8582916-15.8299484 1.2140198-21.0600586 4.7792969-3.7251778 2.5298157-2.3902588 7.1582031-3.4599609 10.0107422 74.4991684 26.8876343 210.6098633 9.3582001 210.6098633-27.7099609 0-13.3150635-18.6188049-21.516922-19.8164215-22.3837891 2.5126953-1.1875 4.984375-2.4707031 7.4038086-3.8681641.5058594 2.5718079 15.2353058 9.0184631 18.0537262-2.1503906.8022461-3.1787109-.2304688-6.8291016-2.2973633-9.640625 1.2490234-.7617188 2.746582-2.5683594 3.4262695-3.9277344 0-.0097656.0102539-.0097656.0102539-.0195313.0481873-.0588684.0315247-.038559.0351563-.0429688 12.4096753-16.1484375 9.6689526-35.3759689-4.6816333-49.1865158zm.5795899 4.8710938c-9.7284546-5.5366211-22.4670563-.53759-26.8164215 11.8789063-.0385742.1103516-.0356445.2314453-.0092773.3476563-15.8225861-10.8638763-35.7007599-14.932251-54.7885742-14.3535156.7680664-4.5263672 1.0258789-9.1064453.7729492-13.6972656-.1469727-2.6679688-.09375-9.7128906-1.7939453-12.3203125 28.8188628-.6660006 64.4296569 7.9062193 82.6352691 28.1445311zm-98.6049958-26.9472657c3.6547852 8.0419922 4.0922852 17.3808594 2.4545898 25.9980469-15.1416016 2.1044922-30.1933594 7.3349609-39.5224609 19.0625.1679382-.2955627.3967133-.618927.1469727-1.0136719-4.9951096-7.8691406-14.0590744-12.2587891-23.2202072-9.8974609-2.8549805.7353516-6.5219727 2.109375-9.1591797 4.1181641 9.4496536-23.7875596 43.9214554-35.0347748 69.3002853-38.2675782zm-91.1284103 91.1855393c-12.5898438 1.1894531-24.0400391 7.5-31.7299805 17.5595703-1.1499023 1.5205078-3.7597656.0205078-2.5898438-1.5097656 8.3999023-10.9902344 20.5498047-17.75 34.3198242-19.0498047 1.919922-.1796875 1.9101563 2.8203125.0000001 3zm71.7592697-27.6035157c-2.8813477-3.2353516-4.7993164-3.9326172-4.7993164-9.4365234.8300781-3.4199142 3.4101563-6.1298752 6.1601563-8.3398361 15.5922546-12.5687943 36.4203339-13.1882629 56.199707-10.7900391 13.7553711 1.6679688 28.034668 5.0205078 38.371582 14.1552734-5.1220703 6.7050705-13.980957 11.4726486-21.1640625 13.7792892-21.6550903 6.9540559-50.3013763 8.5699159-74.7680664.631836zm-12.2192383 49.5732422c14.2602539 4.7402344 29.2299805 4.9501953 43.6098633.5800781 1.8603516-.5703125 2.6401367 2.3300781.800293 2.8896484-14.8598633 4.5107422-30.4702148 4.3203125-45.2099609-.5791016-1.8300782-.6103514-1.0400391-3.4999999.7998046-2.8906249zm96.3901367-15.25c3.7700195 2.75 4.9799805 7.8701172 2.5996094 11.9501953-.9794922 1.6699219-3.5698242.1503906-2.5898438-1.5195313 1.5-2.5605469.9301758-6.0507813-1.5297852-7.8408203-1.540039-1.1298827-.040039-3.7294921 1.5200196-2.5898437zm-130.8002853 30.6601563c38.7402267 12.0205078 81.1401291 9.2705078 117.9604416-7.7802734 1.7397461-.8095703 3.2597656 1.7705078 1.5097656 2.5898438-37.5498047 17.390625-80.7202148 20.3505859-120.2700119 8.0800781-1.8398437-.569336-1.050293-3.459961.7998047-2.8896485zm164.6381912-44.4697266c-1.5292969 6.2890625-8.9287109 4.5878906-12.5556793 1.5859375-.0517578-.0429688-.1064453-.0722656-.159668-.1074219.7138672-.4404297 1.4204102-.8964844 2.1250153-1.3574219.1000366.0076904 2.8132629 1.7311859 5.1821289-.3310547 3.1810913-2.6804657.8684692-7.9803619-3.2900391-7.8701172-2.7810974.1175232-4.3087921 3.1688385-3.6225739 5.7529297-14.9960938 9.7265625-32.1914063 14.9111328-49.9291992 16.7333984 3.0760651-5.3831024-.0624237-24.6360168-1.3613281-27.8242188 8.3842773-1.0800781 16.7041016-2.9550781 24.2646484-5.9453125 9.9550781-3.9355469 22.5834961-12.3544846 24.2050781-23.9384689.0224609-.1591797.0151367-.3076172-.0039063-.4511719 7.6321869-7.9667969 15.8819122-5.5963135 23.6201324 2.0214844 2.1767578 9.1162109-.4282227 18.0693283-5.796875 25.7451096-.0639343-.0420837-.10849-.0731354-.1787109-.1103516-6.4718323-10.6277771-18.1101532-7.0876007-18.1919098 1.8994141-.0175781 1.9306641 2.9824219 1.9326172 3 0 .0073242-.7880859.1625977-1.5126953.4257813-2.1630859 3.089859-1.1494141 4.648941-.2099609 6.7490387 1.0703125.2263184.1594086 1.4609375.7518463 2.7099609 2.2402344.1899414.2197266.3901367.7900391.5800781 1.3896484v.0068359c-2.1899414-1.5605469-4.840332-2.2685547-7.5546875-1.453125-1.8442535.5546875-1.0585938 3.4511719.7973633 2.8935547 5.2021486-1.5634765 10.1416017 5.4589845 8.9853517 10.2128907z"/></g></g></svg>