<svg id="Layer_1" enable-background="new 0 0 300 300" height="512" viewBox="0 0 300 300" width="512" xmlns="http://www.w3.org/2000/svg"><g id="Discount_Voucher"><g><path d="m29.5445213 108.2672653c.2724609.9936523 1.3432617 1.3100586 2.2036133.8964844 3.2426758-1.559082 8.7246094 1.4682617 6.2788086 5.1831055-.9125977 1.3862305-2.4003906 2.2949219-3.8227539 3.0766602-1.2397461.6811523-.7592773 2.2900391.3583984 2.7412109 2.2183189.8965607 4.2666435 12.4635086 6.7416992 14.1591721 3.1190491 2.1369629 7.5568619-4.9568939 9.1005859 4.7089844-.6386719 1.8110352-2.9619141 3.1191406-4.5009766 3.9604492-.8554688.4677734-.9658203 1.6855469-.3032227 2.355957 1.4326935 1.4500427 1.2236862 2.0182495 6.6450195 14.4165039.3393555.7749023 1.3984375.8652344 2.0527344.5380859 1.9384766-.9692383 9.8886757-3.3515625 7.2119141 4.1748047-.6425781 1.8071289-2.96875 3.1142578-4.5063477 3.9545898-1.4301758.7817383-.6025391 2.6352539.7573242 2.7954102-.9560471-.1128693 4.4479446 11.6820679 5.1044922 13.1870117.2709961.6206055 1.0996094.8212891 1.6943398.6889648 3.859375-.8574219 7.6269531-1.8803711 11.3237305-3.0371094 17.2172852-3.6938477 36.0273438-10.4638672 48.1074219-16.6489258 11.9571991 12.2589722 25.7154236 22.992981 41.5771484 30.1704102-.0385742.2905273.0234375.6088867.237793.9331055 1.8447266 2.7851563 3.6889648 5.5708008 5.5332031 8.355957-1.5611572 4.7475433 1.7128601 7.9588928 2.3901367 10.7773438.7626953 3.171875-.6948242 5.8129883-.9428711 8.8383789-.2714844 3.3007813.9570313 6.6137695 2.7851563 9.7792969 4.1142578 13.4208984 14.9169922 25.5249176 25.5390625 33.8271637 5.4726563 4.2768555 11.5214844 8.0258789 18.2558594 9.7255859 17.2023773 4.3404846 30.3581543-6.7677917 28.6855469-22.1108551-1.7475586-16.0546875-21.0566406-22.0537109-31.2695313-31.6083984-7.6821289-7.1865234-16.5688477-17.1230469-26.8481445-20.3486328 5.2695313-.2172852 10.5932617-.7680664 15.7392578.5068359.4677734 2.1166992 3.9916992 4.6103516 5.2558594 5.2363281 2.7011719 1.3374023 5.7338867 1.8139648 8.6103516 2.7138672 4.4052734 1.3789063 8.5756836 3.8701172 11.2924805 7.6025391 1.1181641 1.5361328 2.0708008 3.3452148 3.7783203 4.1782227.9697266.4731445 2.0722656.5678711 3.1337891.7607422 4.8691406.8828125 9.0415039 3.8701172 13.4160156 6.1821289 10.9062805 5.7635345 17.573822 2.9426117 22.331543-7.0883789 2.5048828-5.280365 4.1152954-10.891861 2.9658203-16.5776367-.1226196-8.3768311-5.1422119-13.0538177-13.0253906-15.690918-2.1889648-.8857422-4.5766602-1.4169922-7.0297852-1.706543-6.0288086-1.0258789-12.2490234-1.1875-16.824707-1.3876953-5.6430664-.2475586-21.1030273-1.2211914-29.4194336 3.0239258-6.7290039-1.3745117-13.4980469-2.0102539-20.3764648-1.871582-5.5864258-4.0078125-11.2338867-7.9248047-16.9243164-11.7739258-6.6166992-9.2958984-12.3813477-19.1625977-18.8925781-28.53125 14.9164734-8.3278809 32.9291992-21.029068 56.7958984-22.2861252 2.4599609-4.1499023 4.9199219-8.8901367 7.3798828-13.0400391.0994415-.1271667 1.7483063-.5893173.9550781-2.296875-1.1962891-2.5791016-2.3920898-5.1586914-3.5883789-7.737793-.277832-.5996094-2.4975586-4.9311523-2.6015625-4.7783203.7133789-1.0512695-.4799805-2.6386719-1.6938477-2.203125-.9658203.46875-1.9829102.7299805-3.0512695.7822266-3.090332.9038086-4.5908203-1.1611328-4.5004883-6.1943359.6850586-1.0019531 2.4443359-1.675293 3.4873047-2.1166992.7939453-.3354492.8413086-1.3974609.5380859-2.0522461-2.1220703-4.5834961-4.2475586-9.1660156-6.3696289-13.75-.0039063-.0083008-.0092773-.0141602-.0131836-.0224609.2519531-1.027832-.5073242-2.28125-1.7709961-1.8266602-.9638672.4697266-1.9794922.7304688-3.046875.7827148-3.0898438.9033203-4.5913086-1.1611328-4.5048828-6.1933594.7451172-1.0864258 2.6845703-1.2080078 3.3793945-2.1152344.4638672-.6054726.6870117-1.1240273.7011719-1.9277382.0332031-1.84375-1.8369141-4.2768555-2.5976563-5.9169922-.8662109-1.8676758-4.1416016-6.5742188-3.4560547-8.5043945.3701172-1.0419922-.800293-2.2197266-1.8452148-1.8452148-.5380859.1933594-1.0766602.3862305-1.6147461.5791016-2.6708984 1.3110352-4.140625.3803711-4.4086914-2.7919922-1.7514648-3.6601563-1.6508789-3.7539063 1.6894531-5.2055664.7236328-.3144531.9360352-1.4321289.5380859-2.0522461-1.2802734-1.9956055-2.1352539-4.4008789-3.1313477-6.5493164-.6088867-1.3129883-3.6567383-5.855957-3.3271484-6.9345703.324707-1.0629883-.7651367-2.2006836-1.8452148-1.8452148-26.8037109 8.8110352-50.2094727 23.7958984-73.9067383 38.7255859-24.0449219 15.1484413-48.913578 27.9785194-77.4746094 31.6206093-.9125977.1166992-1.7739258.8706055-1.4462891 1.8989258 1.6083948 5.0551756 4.9052698 9.6083983 6.3095666 14.7299803zm145.1699257 96.2817307c-.4626617-.6986542-2.5273438-3.8168945-3.4345703-5.1875 1.6772461 1.0864258 3.4116211 2.0693359 5.2583008 2.8037109.9643555.3837891 1.940918.6679688 2.9228516.9023438-1.5541993.2978515-3.1357422.78125-4.7465821 1.4814453zm45.1074219 26.1147461c5.9902344 4.6308594 13.1396484 7.8276367 18.5805664 13.1650391 6.5083008 6.3847656 9.7915039 16.5659332 2.2441406 23.5341949-14.1621094 13.0756836-35.6577148-2.3730469-45.8032227-13.1777496-6.1464844-6.5458984-11.8681641-14.0917969-16.5097656-21.7841797-2.1074219-3.4916992-2.90625-6.0014648-2.1240234-10.0664063.2441406-1.2670898.6787109-2.4887695.7773438-3.7871094.2602539-3.4204102-2.6420898-7.1064453-3.0151367-10.5043945.2280273 0 .4672852-.0488281.7119141-.1748047 18.5424804-9.5454101 32.6918944 13.1748047 45.1381835 22.7954102zm20.8354492-20.2314453c-.5161133-.8779297-1.0229492-1.7617188-1.3354492-2.7509766-.5683594-1.7983398-.5126953-3.8984375.6064453-5.4165039 1.3173828-1.7856445 3.7001953-2.3452148 5.8842773-2.7382813 5.0332031-.9057617 10.3139648-1.5771484 15.184082-.0166016 3.902832 1.2509766 7.4443359 4.3291016 8.621582 8.1323242-.8969727 2.9453125-3.230957 5.546875-6.9575195 6.9433594-6.8266601 2.5581055-15.9477538-.1538085-22.0034179-4.1533202zm.159668-19.0014649c-6.4624023 2.7080078-11.9038086 7.8095703-7.7016602 15.6171875 4.6079102 8.5610352 19.5537109 13.1367188 28.5449219 11.0068359 5.9047852-1.3984375 10.8095703-6.0932617 11.5493164-11.746582.3286133 3.3520508-.3930664 7.0063477-1.5717773 10.5556641-.8227539 2.4765625-2.340332 7.4570313-4.7124023 9.1337891-3.5112305 2.4824219-7.3867188.7709961-10.9155273-.609375-6.4306641-2.515625-11.859375-6.1025391-17.3271484-10.2519531-9.3535156-7.0986328-19.293457-12.1616211-30.8051758-14.2607422-.4448242-2.8203125.8173828-4.8613281 3.1347656-6.3251953.2304688-.0693359.4321289-.1904297.5961914-.3515625 6.6899413-3.6831056 20.6279296-3.3076173 29.208496-2.7680665zm-33.9746094 2.4985352c-1.6333008 1.7456055-2.4389648 4.0078125-2.019043 6.9277344-.0571289.043457-.1083984.0927734-.1591797.1430664-8.277832-1.4023438-16.7441406 1.2592773-24.8520508-.9023438-4.5214844-1.2050781-8.2890625-4.2011719-12.0336914-6.8745117-20.1367493-14.3729095-40.1034012-28.9295959-55.5053711-48.8803711 26.434082 14.5483398 51.9707031 30.6152344 76.480957 48.230957.5297852.3808594 1.0488281.331543 1.4477539.0629883 5.6093751-.0878906 11.1376954.3369141 16.6406251 1.2924805zm-66.7900391-37.0522461c.4287109-.2280273.8544922-.4570313 1.2807617-.684082.2192383.6240234.4384766 1.2480469.6577148 1.8720703-.6479491-.3935547-1.290039-.7963868-1.9384765-1.1879883zm5.8544922 3.5883789c.0046844-.3908539.0607605-.1107178-1.9033203-5.7041016 2.4418945-1.3110352 4.8779297-2.6293945 7.3300781-3.9726563 5.1455078 7.3979492 9.8300781 15.1044922 14.824707 22.6025391-6.6821288-4.4165039-13.4331054-8.7255859-20.2514648-12.9257812zm-.9907226-122.43359c.0117188.0883789.0327148.1782227.0825195.2705078 1.1660156 2.1518555 2.3320313 4.3032227 3.4980469 6.4545898.4599609.8491211 1.7558594.0927734 1.2954102-.7568359-1.1660156-2.1513672-2.3320313-4.3032227-3.4980469-6.4545898-.0395508-.0727539-.0913086-.1186523-.1411133-.168457 9.3442383-4.8681641 18.9775391-9.1943359 29.1074219-12.6376953.4804688 1.2148438 1.3276367 2.4140625 1.7900391 3.4101563 1.296875 2.7939453 2.4101563 5.8852539 3.9189453 8.6191406-3.2050781 1.8754883-5.9677734 5.3369141-4.3930664 9.2026367 1.7060547 4.1884766 6.472168 4.4897461 10.3745117 3.5952148.4526367 2.8901367 2.8310547 6.0361328 3.921875 8.3891602.4423828.9536133 1.9555664 3.0571289 1.8911133 3.9091797-.0639648.8496094-.0639648.3100586-1.565918 1.2685547-1.2285156.784668-2.4311523 2.2187538-3.0400391 3.5673866-3.3266602 7.3686523 4.9423828 9.5639648 10.5576172 8.4448242.7651367 1.7853394-2.2045135-4.7566605 5.7041016 12.3203125-3.3134766 1.8100586-6.3525391 5.2241211-4.8637695 9.2304688 1.675293 4.5092773 6.8999023 4.6918945 10.9399414 3.6503906.526886 1.012146-.3229523-.7533188 5.2954102 11.3378906-6.3865204 2.3984985-9.9129028 1.0104294-31.347168 10.0136719.1934662-.3505859.2067566-.0616074-2.5805664-7.3271484-.3422852-.8925781-1.7929688-.5048828-1.4462891.3984375.8676758 2.262207 1.7353516 4.5244141 2.6030273 6.7861328.1147461.2993164.355957.4443359.6108398.484375-19.7395935 8.3908615-33.9185333 17.7555008-52.690918 29.435051-7.7714844-4.5429688-15.6171875-8.9628906-23.5517578-13.2319336-1.7001953-.9145508-3.2167969 1.6743164-1.5141602 2.590332.0195313.0107422.0390625.0214844.0585938.0322266-.2236328.9663086-.4467773 1.9389648-.6616211 2.9125977 4.1108398 5.2753906 8.4003906 10.480957 12.9174805 15.4697266-5.909729 3.391098-22.7424774 11.6536255-32.9790039 16.3334961-6.5019531 2.5517578-13.1953125 4.7036133-20.1816406 6.3286133-6.8409271-15.7657471-4.3030128-9.7826538-5.1225624-11.737793 3.4609375-2.3496094 6.7500038-6.4033203 4.5517616-10.6503906-1.9868202-3.8398438-6.5322304-3.7675781-10.116703-2.4726563-1.5498047-3.9165039-2.9853516-9.0268555-5.4555664-12.4321289 4.5322266-3.4838867 8.3378906-11.0859375.7573242-13.5385742-1.4272461-.4614258-3.2827148-.4814453-4.7084961-.1010742-.1875.0498047-1.8339844.737793-1.7514648.7548828-.1489258-.0307617-1.0283203-2.2001953-1.3408203-2.9335938-1.1899414-2.7905197-2.1508789-7.3300705-4.3515625-9.9101486 3.2568359-2.3388672 6.2084961-6.1381836 4.2329102-10.2006836-1.8691406-3.8447266-6.2250977-3.9707031-9.7905273-2.7939453-1.3886719-3.9584961-3.7050781-7.6367188-5.2275391-11.5527344 26.8110352-3.8266602 50.5380898-15.2670898 73.3833008-29.4887695 14.859867-9.2509805 29.4775427-18.7270548 44.8281287-26.8208048z"/><path d="m178.5347595 109.3322067c.3989258.8774414 1.6918945.1162109 1.2954102-.7568359-1.0703125-2.3554688-2.140625-4.7104492-3.2109375-7.0654297-.3989258-.8774414-1.6918945-.1157227-1.2954102.7573242 1.0703125 2.3549805 2.140625 4.709961 3.2109375 7.0649414z"/><path d="m173.361908 97.2574997c.3857422.8823242 1.6787109.1196289 1.2954102-.7573242-1.2871094-2.9453125-2.574707-5.8911133-3.8618164-8.8369141-.3857422-.8823242-1.6787109-.1196289-1.2954102.7573242 1.2875976 2.9458008 2.574707 5.8911133 3.8618164 8.8369141z"/><path d="m166.8648376 83.1647263c.4243164.8671875 1.7182617.1079102 1.2949219-.7568359-1.6831055-3.4389648-3.3662109-6.8779297-5.0498047-10.3168945-.4243164-.8666992-1.7182617-.1074219-1.2949219.7573242 1.6831055 3.4389648 3.366211 6.8774413 5.0498047 10.3164062z"/><path d="m159.7046814 68.0812302c.3984375.8779297 1.6914063.1162109 1.2954102-.7568359-1.1992188-2.6411133-2.3984375-5.2822304-3.5976563-7.9233437-.3984375-.8779297-1.6918945-.1162109-1.2954102.7568359 1.1992188 2.6411133 2.3984375 5.2822304 3.5976563 7.9233437z"/><path d="m154.1372986 55.7570076c.4272461.8657227 1.7211914.1064453 1.2954102-.7568359-1.0634766-2.15625-2.1269531-4.3129883-3.1904297-6.4692383-.4267578-.8657227-1.7211914-.1064453-1.2954102.7573242 1.0634766 2.15625 2.1269531 4.3125 3.1904297 6.46875z"/><path d="m117.7115173 136.3502655c-1.3681641-19.5795822-.3310547-39.1542892 3.1621094-58.4711838.3417969-1.8876953-2.5488281-2.6972656-2.8925781-.7973633-3.5405273 19.5776367-4.65625 39.4194336-3.2695313 59.2685471.1342774 1.9155273 3.1352539 1.9301758 3 0z"/><path d="m132.4839783 116.391777c5.1411133.6000977 9.4858398-2.953125 10.0708008-8.0361328.6586914-5.71875-3.3320313-10.2250977-8.0336914-12.8310547-.5664063-.3144531-1.1098633-.2270508-1.5229492.0561523-.1499023-.0581055-.3120117-.1015625-.4975586-.1108398-13.1918946-.6782226-11.9902344 19.5244141-.0166016 20.921875zm.0166015-17.921875c.3208008.0166016.5834961-.0585938.7973633-.1860352 2.2900391 1.3076172 4.4291992 2.9970703 5.5698242 5.4472656 1.7944336 3.8554688.362793 8.8759766-4.2514648 9.6074219-9.5649414 1.5156251-12.5561524-15.4052734-2.1157227-14.8686523z"/><path d="m99.6490173 116.8307419c5.1411133.6000977 9.4858398-2.953125 10.0712891-8.0366211.6582031-5.7182617-3.3320313-10.2250977-8.0341797-12.8310547-.5664063-.3139648-1.1098633-.2265625-1.5229492.0566406-.1499023-.0581055-.3120117-.1015625-.4975586-.1108398-13.1918945-.6782227-11.9897461 19.524414-.0166016 20.921875zm.0166016-17.921875c.3212891.0161133.5834961-.0585938.7973633-.1860352 2.2900391 1.3076172 4.4291992 2.9970703 5.5698242 5.4472656 1.7944336 3.8554688.362793 8.8759766-4.2514648 9.6074219-9.5649415 1.515625-12.5561524-15.4052734-2.1157227-14.8686523z"/><path d="m171.9776306 185.0055389c-.5146484-.2636719-1.1665039-.2788086-1.7250977.1855469-1.9047852 1.5844727-2.4794922 4.5839844-1.0756836 6.6845703 1.4213867 2.1269531 4.5185547 2.9101563 6.699707 1.4897461 2.015625-1.3125 2.8266602-4.1835938 1.6181641-6.3037109-1.1083984-1.9433594-3.4765624-2.6884766-5.5170898-2.0561524zm2.1606445 5.9106446c-1.4452057.7622681-3.5802002-.8309937-2.4365234-2.8046875.2958984.0507813.6206055.0097656.9536133-.1679688 1.9614258-1.0473633 3.4091797 1.956543 1.4829101 2.9726563z"/><path d="m193.1631775 210.5841522c-5.6962891.3505859-11.722168 2.0634766-14.0874023 7.8554688-2.5058594 6.1376953 1.6708984 12.8549805 5.2646484 17.6147461 5.0141602 6.6411133 11.4980469 12.3623047 17.8208008 17.7348633 5.8432617 4.9653473 12.3349609 9.8227692 19.7060547 12.2343903 14.2031403 4.6459351 23.164505-6.942688 14.9643555-17.9101715-5.3427734-7.1464844-13.6689453-12.6738281-20.4052734-18.4350586-7.2382813-6.1894531-14.4848633-12.3686523-21.6723633-18.6171875-.3551942-.4760285-1.0953218-.6207124-1.5908204-.4770509zm31.2163086 53.0459137c-11.3076172-2.7207031-20.8100586-12.2548981-28.972168-19.9951324-4.8429108-4.5929718-10.2058716-10.080658-12.8349609-16.3066406.4467773-1.0678711 1.206543-2.0405273 2.1220703-2.7480469 5.4721985-4.2279968 12.2045441-1.9953918 17.3603516 2.5742188 6.5031433 5.7653809 13.4640808 19.1016083 34.6694336 31.2876129-1.2839966 5.0688171-7.0746155 6.4560241-12.3447266 5.1879882z"/></g></g></svg>