<svg id="Layer_1" enable-background="new 0 0 300 300" height="512" viewBox="0 0 300 300" width="512" xmlns="http://www.w3.org/2000/svg"><g id="Edit_Profile"><g><path d="m223.6532135 246.9828644c.3300781.7480469 1.2402344 1.0664063 2.4599609 1.0664063 2.8604584 0 6.9139709-1.6172638 9.6206055-3.3930664 1.0209961-.2392578 2.1352539-.9370117 3.1259766-.277832.3286133.21875.5527344.5581055.8242188.8452148.697876.7380981 1.4687347.6922913 1.9907227-.4555664.1933594-.4267578.3686523-.9047852.7685547-1.1479492.3808594-.2319336.8818359-.1923828 1.2602539-.4277344.4052734-.2519531.5742188-.8232422.371582-1.2558594-.2021484-.4321289-.7495117-.6674805-1.2026367-.5175781-.2797852.0927734-.5019531.3037109-.7617188.4423828s-.6152344.1879883-.8227539-.0205078c-.2041016-.2055664-.1611328-.5449219-.2626953-.815918-.2163696-.5758514-1.1992188-.8523254-2.0175781-.0014648.0361328-.3037109-.0092773-.559082-.0976563-.7597656-1.6302796-3.7007752-16.8835602 3.017517-15.256836 6.7192382zm6.8066406-5.2260742c3.9537811-1.7412567 9.7118988-2.5971222 6.7080078.4951172-1.519043-1.0838623-10.7295532 3.0169678-10.7646484 4.7841797-4.4588776.207199-.0272522-3.4802399 4.0566406-5.2792969z"/><path d="m205.5594635 246.2328644c-9.8198547 4.3226776-7.3182068 9.6212921 2.3583984 5.3569336 9.8194275-4.3238678 7.3278046-9.6229859-2.3583984-5.3569336zm6.7856445 1.3496094c-1.5312653-.9605255-10.0988922 2.8429108-10.2441406 4.5551758-1.0415039.0444336-1.6450195-.1523438-1.7583008-.4091797-.1289063-.2924805.1894531-.9873047 1.1914063-1.8798828 4.2467804-3.7899628 14.5306701-6.0863496 10.8110351-2.2661133z"/><path d="m238.5077057 221.3256378c-1.3298492-3.0178986-13.4190674 2.3069458-12.0908203 5.324707 1.3368988 3.0201417 13.4141235-2.3181915 12.0908203-5.324707zm-6.6416016 1.309082c2.0361328-.8964844 3.6523438-1.206543 4.6445313-1.206543 1.2893524 0 1.4440613.4004211.4389648 1.4296875-1.480072-.5727081-7.8019257 2.2408752-8.2661133 3.6669922-.8564453.0371094-1.2871094-.1303711-1.3505859-.277832-.2021484-.4589843 1.2148438-2.1503906 4.5332031-3.6123047z"/><path d="m37.9056625 224.2372589c2.0581055 1.8950195 4.1166992 3.7900391 6.1748047 5.6850586.5942383.5473633 1.3110352.4897461 1.840332.1459961.1396484.0688477.2998047.1064453.4902344.0639648 1.1713142-.2614899 9.3492241-2.1888428 9.4511719-2.222168.2758789-.0141602.5273438-.1772461.5947266-.5385742 3.3793945-18.1147461 6.9072266-36.2011719 10.3056641-54.3125 7.198204 32.7690887 8.0848007 42.5275726 8.6801758 43.5639648.3344727 4.0092773.6401367 8.0209961.9799805 12.0302734.0844727.9912109.9331055 1.4677734 1.7075195 1.4316406-.0512695.1635742-.0795898.3452148-.0654297.5537109.9047852 13.2182617 1.4345703 26.4443207 1.8457031 39.6855316-.1977539.5986328-.0683594 1.3012695.6181641 1.7280273 3.7177734 2.3120117 7.3540039 4.7866211 11.206543 6.8730469 1.0332031.5595703 1.9941406-.1806641 2.2094727-1.0532227.0332031-.0170898.0654297-.0195313.0991211-.0429688 3.2348633-2.2822266 6.1777344-4.949707 9.4125977-7.2314453.2558594-.1806641.3364258-.4399414.3168945-.6894531.4371185-.8273926-2.1759644-21.5059814-2.8681641-31.6796722-.0654297-.9580078-1.5654297-.9648438-1.5 0 .7119141 10.4633789 2.2382813 20.8427582 2.9501953 31.3061371.0004883.0073242.0048828.012207.0053711.0195313-2.9125977 2.0913086-5.6157227 4.4594727-8.5170898 6.5649414-.9931641-14.1914063-2.0678711-28.3764496-3.0629883-42.5678558 25.5077591-8.6150055 16.5439072-6.4270477 30.5229492-9.7285156 7.7060471-1.8193359 13.8930588-3.9516602 20.9706955-5.5180664 12.9542084 29.9421844 12.8096161 32.680191 13.6459961 33.2421875.6223755.5276642 6.3363037.2681427 10.5244141.5454102.3950195.2524414.9023438.2900391 1.4204102-.0830078 2.4121094-1.737793 4.5639648-3.8032227 6.9951172-5.5151367.1616211-.1142578.2836914-.246582.3833008-.3867188.6508789-.3779297 1.0996094-1.1958008.6928711-2.0693359-5.0185547-10.7744141-10.0976563-21.5205078-15.1313477-32.2880859 4.9057617-.9584961 8.9038086-1.5766602 13.9619141-2.3935547.3374023-2.4760742.0751953-5.2504883.3203125-7.5986328.5053711-.2939453.8120117-.8491211.5356445-1.5761719-1.6401367-4.3154297-2.7919922-8.7993164-4.3862305-13.1303711.2813416-.6643066.655426 1.9808655-8.8330078-44.2597656 27.9892578-22.5483398 54.7094727-46.6474609 80.0366211-72.1508789.9746094-.9814453-.0087891-3.1113281-1.4594727-2.5068359-3.5761719 1.4902344-6.9897461 4.1958008-10.2729492 6.2709961-25.2165527 15.9389648-49.8956757 34.1921463-71.0512695 55.0703125-.5737305-2.7714844-1.1474609-5.5424805-1.7202148-8.3139648-.390625-1.8891602-3.2832031-1.0893555-2.8930664.7978516.6938477 3.3564453 1.3876953 6.7128906 2.0834961 10.0688477-2.440918 2.4677734-4.8505859 4.9648438-7.1977539 7.5200195-.4851074.3782806-.7995605 1.1518555-.4272461 1.8876953.0205078.1005859.0444336.2011719.0717773.3037109-2.3442383-.4716797-4.6884766-.1318359-6.8129883 1.2822266-3.7236328 2.4785156-4.0297852 9.8154297-9.0717773 10.1635742-.8295898.0576172-1.0351563 1.2172852-.1992188 1.4731445.1464844.0449219.2983398.0883789.4487305.1328125 1.6025391 2.1425781 4.6591797 3.4770508 7.1958008 3.4785156 2.7602539.0019531 5.8203125-.043457 7.5541992-2.6748047 3.2758789-1.0375977 5.6884766-3.3569336 5.9726563-7.7436523.5537109.2817383 1.2661133.1464844 1.7792969-.2602539 1.1206055-.8876953 2.2241211-1.7958984 3.340332-2.6884766 9.5312805 46.4519348 6.1701355 30.0255737 8.4541016 41.1259766-22.5092773 8.8867188-45.1210861 17.5117188-67.6596603 26.3237305.1875-.2954102.2871094-.6577148.2246094-1.078125-1.1860352-7.9941406-.5336914-17.6079102 3.9824219-24.5844727 5.6303711-8.6987305 13.1386719.043457 20.5771484-2.1210938 5.4887619-1.597168 4.6328049-6.925293 7.8437424-10.4770508 8.3647461-9.2529297 13.9023438 10.168457 16.9072266 14.6567383 1.0688477 1.5961914 3.6689453.0961914 2.5908203-1.5141602-3.9619141-5.9160156-5.159668-15.9931641-13.2319336-18.1132813-10.8911133-2.8608398-8.6645508 13.53125-17.9741135 12.6074219-4.4248047-.4389648-8.2998047-3.3852539-12.8823242-1.9912109-3.0419922.925293-5.2246094 3.3901367-6.7788086 6.0585938-4.5307617 7.7783203-5.2197266 17.5629883-3.9267578 26.2758789.0834961.5649414.3994141.8857422.7919922 1.015625-2.6796875 1.0493164-5.3618164 2.0917969-8.0385742 3.1479492-5.1303711-25.5234375-9.9282227-51.112793-15.0532227-76.637207 26.5732422-7.8496094 53.0683517-15.9858398 79.2099533-25.1831055 1.4243164-.5014648 1.2407227-2.3984375.2080078-2.8720703-.3271484-.3198242-.7949219-.5009766-1.3642578-.3793945-9.328125 1.9902344-18.6279297 4.1450195-27.9033127 6.4116211.0708008-.2446289.0737305-.5244141-.0322266-.8383789-6.8408203-20.2988281-14.5244141-40.300293-22.6640625-60.1123047.1673584-.0654068 4.2088089-2.2948227 4.0009766-2.3500977.3554688.0942383.8632813-.1186523.9228516-.5239258.3735352-2.5507813-.0449219-4.9189453-1.3461914-7.1542969-.4354019-.7486534-1.0996933-.3180695-7.1787109 1.3374023-3.5193863-8.4106522-3.3487167-8.1787643-3.8237305-8.4570313.0126953-.0776367.0263672-.1547852.0141602-.2416992-.8579102-6.1279297-2.6352539-11.9248047-5.1743164-17.5556641.0234375-.3911133-.2104492-.7993164-.7158203-.7983398-2.9663086.0083008-5.8974609.3271484-8.8417969.6547852-.2636719.0292969-.4467773.1699219-.5649414.3500977-.5405273.081543-1.0498047.4199219-1.2495117.9438477-.1915894.2964191.1549911-.7506962-3.6787109 11.9960938-.1142578-.3007813-.2285156-.6020508-.3447266-.902832-.0351563-.605957-.0795898-1.2114258-.1137695-1.8173828-.059082-1.0507813-.9838867-1.5258789-1.7919922-1.4277344-.4003906-.2280273-.8989258-.2958984-1.4199219-.0595703-2.4541016 1.1132813-4.9077148 2.2265625-7.3618164 3.340332-.5385742.2441406-.7661133.6572266-.7758789 1.0888672-.027832.1396484-.0429688.2885742-.0253906.4580078 1.9118423 18.5533104 1.3488159 18.649231 1.6098633 19.4433594-1.152832.0112305-2.3056641.0332031-3.456543.1474609-.3994141.0395508-.6225586.328125-.6879883.640625-.0566406.0512695-.1137695.1010742-.1586914.1777344-1.3496094 2.3120117-1.2827148 5.1508789.2260742 7.3730469.1254883.1850586.2939453.2792969.4692383.3154297.1586914.2358398.4360352.3925781.7895508.3173828.9599609-.2041016 1.9169922-.4179688 2.875-.6293945.0920715 1.3350372 1.3217773 16.0840454 1.4448242 17.5551758-9.7719727 47.1035156-19.5444336 94.2070313-29.3168945 141.3105469-.0688477.3320313-.0317383.6279297.0712891.8837891-.0644537.4008787.0488276.8300779.4477533 1.1972654zm117.6137619-79.7338867c-1.2128906-.9516602-2.7617188-1.6606445-3.0556641-3.2739258 2.1313477-2.3105469 4.3115234-4.5766602 6.5200195-6.8164063.2138672 1.8034668 1.1776428 3.2391968 3.9912109 4.0898438-2.4770506 2.0102539-4.9584959 4.0151367-7.4555663 6.0004883zm75.6425782-66.8964844c-19.6333008 19.2617188-40.0761719 37.6875-61.2685547 55.21875-.9970703-.25-1.9936523-.6992188-2.6635742-1.2856445-.9311523-.8149414-1.4526367-2.4375-1.472168-3.7919922 28.3762207-27.0289307 56.4867248-44.0077515 65.4042969-50.1411133zm-66.7592774 51.4487305c.4611664 2.6555176 1.7646484 4.0463715 4.1123047 4.9140625-1.3408203 1.1049805-2.6772461 2.215332-4.0239258 3.3129883-3.4372864-.5437469-4.4337006-2.3380127-3.9389648-4.4555664 1.2709961-1.2695313 2.5566406-2.5244141 3.8505859-3.7714844zm-16.4360351 25.2993164c-3.8856812.6706085-6.4321442.7850342-11.4765625-.4326172 3.8562469-2.0270081 3.5330811-6.269104 5.9282227-8.7143555 2.0463867-2.0898438 4.918457-2.5268555 7.5952148-1.8168945-1.6816406.4594727-3.1289063 1.487793-4.184082 2.9580078-.5639648.7856445.7368164 1.5351563 1.2954102.7573242.9414063-1.3115234 2.3447266-2.1699219 3.9155273-2.4130859.0483398.0517578.1064453.1015625.1586914.1523438-1.5141602 1.1679688-2.7446289 2.6171875-3.581543 4.3525391-.4174805.8657227.8754883 1.6274414 1.2954102.7573242 1.2970123-2.6908417 2.9841309-3.7057495 3.4628906-4.1547852.2817383.203125.5532227.3994141.8056641.5913086.1694335 4.7006836-2.060547 7.0185547-5.2148438 7.9628906zm-56.2036057-27.9106445c-2.6054688.7216797-5.2104492 1.4448242-7.8115234 2.1821289-3.4165039-29.7880859-6.6411133-59.6157227-8.546875-89.543457 9.930664 27.9804687 13.3598633 57.9648437 16.3583984 87.3613281zm1.4580078-.4072266c-1.5634766-15.3154297-3.2480469-30.7890625-5.9018555-46.0576172.0498047-.0732422.0927734-.15625.1152344-.262207.0205078-.0947266.0400391-.1899414.0605469-.284668 5.956543 14.449707 12.1005859 28.8212891 18.0444336 43.2763672-4.1123047 1.0869141-8.2177734 2.1982422-12.3183594 3.328125zm37.2246018-6.5268555c-18.7226486 6.1381836-37.5795822 11.8662109-56.4770432 17.4438477-.6866989-.083847-3.5014038.2016602-7.3164063-.1660156 21.1000977-6.2802735 42.3720704-12.1308594 63.7934495-17.2778321zm-57.8168869 20.4521485c5.1386719 25.5742188 9.9448242 51.2143555 15.0830078 76.7890625-3.3105469-.6923828-6.5957031-1.4599609-9.7729492-2.6347656-4.4311523-25.2265625-9.8500977-50.2763672-16.1479492-75.1020508 3.5073242.8881836 7.2294921 1.0249023 10.8378906.9477539zm96.1298752 49.0659179c1.2324219 3.5332031 2.2607422 7.137207 3.5185547 10.6621094-26.690918 10.7060547-53.4789963 21.1733398-80.7133713 30.4248047-.2705078-3.5888672-.5170898-7.1733398-.6616211-10.7695313 25.9047851-10.2270507 51.9501877-20.0927734 77.8564377-30.3173828zm-.9609375 59.2832032c-5.6611328-12.3032227-11.5664063-24.4916992-17.234375-36.7915039 1.9238281-.7543945 3.8476563-1.5112305 5.7695313-2.2705078 5.4541016 11.7075195 10.9833984 23.3789063 16.4418945 35.0839844-1.7104493 1.2626952-3.3125001 2.6596679-4.9770508 3.9780273zm-86.7206955-17.4790039c2.2192383.6806641 4.449707 1.3251953 6.6552734 2.0493164.9799805 14.0117188 2.0390625 28.0180511 3.0244141 42.0297699-2.6572266-1.5708008-5.2456055-3.2641602-7.8569336-4.9082031-.4077149-13.069336-.9335938-26.1240082-1.8227539-39.1708832zm6.8466796-10.9794922c.1455078 3.3862305.3769531 6.7631836.6313477 10.144043-3.0703125-1.0087891-6.1904297-1.8579102-9.2573242-2.878418-.2651367-3.2089844-.5200195-6.4189453-.7841797-9.6279297 3.0727539 1.0185547 6.2333984 1.7089844 9.4101562 2.3623047zm14.4804688-164.8208008.0957031.2133789c-.0019531.0009766-.0039063.0019531-.0058594.003418-.0297851-.0722657-.0600586-.1445313-.0898437-.2167969zm20.8579101 63.1567383c-3.2827148.8105469-6.5620117 1.6357422-9.8378906 2.4770508-6.3823242-21.1884766-12.4682617-42.4648438-18.8544922-63.6523438-.0478516-.1601563-.1186523-.2929688-.1982422-.4145508-.3886719-1.3447266-.7792969-2.6762695-1.171875-3.9970703.5576172-2.6298828 1.1147461-5.2597656 1.6772461-7.8886719 23.743805 56.252533 26.9958954 72.2318878 28.3852539 73.475586zm-36.7475585-77.6230469c-1.3766022-5.3332329-1.0488129-4.0642242-4.5556641-17.6435547 2.3974609-.262207 4.7915039-.4863281 7.2055664-.5258789 2.4858398 5.5078125 4.1806641 11.1694336 5.0268555 17.1547852-7.772934.9366874-7.3122025.8417778-7.6767578 1.0146484zm-8.8774415-2.6767578c.9125977-3.034668 1.824707-6.0688477 2.7373047-9.1035156 4.0899506 15.8373222 3.7800446 14.8214798 4.0063477 15.1640625-.4472656 1.6264648-.8779297 3.2573242-1.3388672 4.8803711-.527832 1.8603516 2.3657227 2.6542969 2.8930664.7973633.0726624-.2558746 1.6708221-6.0586281 1.7036133-6.2866211 2.0522461-.2475586 4.1044922-.4946289 6.1567383-.7416992-2.40625 11.2094727-4.7524414 22.4316406-7.152832 33.6425781-2.3540039-12.7207031-5.4404297-25.2734375-9.7529297-37.4472656.3330078-.1586915.6113281-.4516602.7475585-.9052735zm-7.6127929 18.3959961c.6308594 1.3496094.8955078 2.7724609.8554688 4.2495117-2.2368164.4707031-4.4672852.9677734-6.6992188 1.4580078.9345703-1.8408203.4814453-4.1391602-1.175293-5.4736328 2.3388672-.1220703 4.6826172-.0112305 7.019043-.2338867zm-8.2304688 1.2382812c1.6259766 1.0986328 1.8325195 3.1972656.3974609 4.6171875-.8295898-1.4433594-.9799804-3.0874023-.3974609-4.6171875zm9.8945313 4.3691406c.3466797-.0722656.5092773-.3144531.5332031-.5805664.0820313-.1088867.1459961-.2368164.15625-.4038086.1196289-1.909668-.265625-3.737793-1.090332-5.4599609-.1279297-.2670898-.3393555-.3671875-.5576172-.3710938-.2802887-.4843559-.5361099-.2395096-2.6616211-.1728516.4131927-1.6782112-1.3931274-18.5962486-1.4038086-18.6992188 1.8022461-.8178711 3.6040039-1.6357422 5.40625-2.453125 2.3307724 40.0505142 8.8208237 95.1421967 9.0356445 95.6875-2.3896484.6831055-4.7768555 1.3740234-7.1621094 2.0693359-1.8486328-22.7294922-3.8432617-45.4472656-5.6865234-68.1777344-.0200195-.2509766-.0913086-.4667969-.1962891-.6523438 1.2080079-.2666013 2.4155274-.5341794 3.6269532-.7861326zm-2.2094727 51.8959961c-2.0498047 6.777832-3.2661133 13.7817383-5.2270508 20.5839844-1.5239258.4555664-3.0512695.9023438-4.5737305 1.3623047-.7890625.2382813-1.0932617.9052734-1.0415039 1.5463867-.3685188.6924286-.2696075.1797333 2.5039063 11.5224609-5.3413086 25.9121094-11.0410156 51.7490234-16.3925781 77.6586914-1.4541016-1.3388672-2.9086914-2.6782227-4.362793-4.0170898 9.0668945-43.7050781 18.1342773-87.4106445 27.2016602-131.1157227.6318359 7.4863282 1.2646484 14.972168 1.8920898 22.4589844z"/><path d="m117.7562485 137.0375519c-3.5458984-.4838867-7.921875-1.0693359-11.2861328.4663086-.4350586-.1044922-.9179688-.0288086-1.3427734.3461914-7.5786133 6.6860352-11.644043 16.3486328-6.7817383 26.0439453 5.0107422 9.9902344 17.2021484 11.2949219 25.8066406 5 12.5695724-9.1960144 11.1848678-29.4545899-6.3959961-31.8564453z"/><path d="m196.7347565 230.6806183c-7.028244 5.2349091-8.1816711 7.4972229-9.1259766 8.4619141-1.7890625 1.8232422-2.9594727 4.9072266-3.5639648 7.3925781-2.2022858 9.0538483 3.725296 18.7090302 14.5 21.2499847 4.6254883 1.0908203 8.0585938 1.6918945 12.7998047 1.371582 12.2290039-.8256836 24.6132813-3.1459961 35.7001953-8.371582 4.3911133-2.0693359 8.5478516-4.6469727 11.617691-8.4076996 3.0698242-3.7602539 4.7954102-8.8613281 3.6088867-13.5683594-1.1860352-4.7075195-5.7529297-8.6225586-10.586441-8.1708984-1.5429688.144043-3.0834961.6962891-4.6074219.4155273-1.3515625-.2485352-2.6186523-1.5893555-2.375-2.8398438.2241211-.1103516.4648438-.21875.7426758-.3227539.9121094-1.125 2.0092773-1.5043945 3.2924805-1.1386719 2.6005859-.2666016 4.2490234.1567383 6.5332031-1.4824219 1.730484-1.2421875 3.8686676-3.6938477 3.5063629-6.0327148-.7578125-4.890625-9.8154449-5.0976563-13.3701324-5.2236328-16.0312043-.5702971-35.3009339 6.7071382-48.6723633 16.6669923zm55.2890625-12.8237305c2.5253906.6333008 4.843277 2.0336914 2.0644531 4.543457-2.293457 2.0712891-4.0595703 1.1640625-6.6845703 1.25-4.234375.1386719-8.5356445 4.1933594-7.1835938 8.7392578 2.3276367 7.8251953 11.7597656.0576172 15.4316406 3.6298828 5.2378082 10.4921875-16.5703125 17.9174805-23.0581055 20.0258636-8.4804688 2.7558594-17.6933594 4.5556641-26.6376953 4.4194336-17.5703125-.2683411-23.0982208-11.5813751-14.1899414-21.6596527 8.0102081-9.0611877 28.2472534-19.8742523 47.1313477-21.5883789 4.3354492-.3935546 8.8793946-.4248046 13.1264649.6401368z"/><path d="m217.180069 230.636673c.2675781-.5820313.2319336-1.03125.0932617-1.3461914-1.5487671-3.4968567-15.9380188 2.822052-14.3925781 6.3388672.6795349 1.5378876 3.6975098.9939575 5.3535156.543457-.575943.8683624.9673615 2.0577087 1.6279297 1.2133789.3955078-.5063477.0146484-1.4189453.5375977-1.7919922.3222656-.2294922.7880859-.0654297 1.0727539.2094727s.4663086.6420898.7480469.9199219.7412109.4521484 1.0703125.2324219c.6782227-.4511719.0102539-1.8618164.7592773-2.1835938.5737305-.2460938 1.0341797.5463867 1.6186523.7661133.8467102.3169556 1.6130371-.6449585 1.1152344-1.3989258-.2851563-.4316406-.9487305-.7324219-.8222656-1.234375.1887054-.7460938 1.327179-.2969208 1.8066406-.7529297.3523254-.3369599.3061523-1.112793-.5883789-1.515625zm-13.3833008 4.5893554c-.1259766-.284668.1865234-.9633789 1.1679688-1.8388672 3.5930481-3.2047424 10.8023224-5.0393066 11.3925781-3.6938477v.0004883c.1069336.2416992-.1064453.7680664-.7714844 1.4560547-1.5253296-.9342804-9.9676208 2.8198853-10.0683594 4.4916992-.96875.0502931-1.5878906-.1108398-1.7207031-.4155273z"/></g></g></svg>