<svg id="Layer_1" enable-background="new 0 0 300 300" height="512" viewBox="0 0 300 300" width="512" xmlns="http://www.w3.org/2000/svg"><g id="Events"><g><path d="m79.4726944 140.2711182h39c1.9306641 0 1.9335938-3 0-3-13 0-26 0-39 0-1.9301758 0-1.9335938 3 0 3z"/><path d="m43.8423195 98.1055984c2.0048828-4.2094727 2.9829102-9.7416992-1.0458984-13.1484375-2.8686523-2.425293-7.5849609-1.7626953-9.2480469 1.734375-.824707 1.734375 1.7607422 3.2583008 2.590332 1.5141602 1.1860352-2.4931641 4.300293-2.0244141 5.637207.0888672 1.6357422 2.5849609.6865234 5.7553711-.5239258 8.296875-.8261718 1.734375 1.7597657 3.2583008 2.5903321 1.5141601z"/><path d="m84.6191788 96.7144852c2.0048828-4.2094727 2.9829102-9.7421875-1.0458984-13.1484375-2.8686523-2.4257813-7.5849609-1.7626953-9.2480469 1.7338867-.824707 1.7348633 1.7607422 3.2587891 2.5908203 1.5146484 1.1855469-2.4936523 4.2998047-2.0244141 5.6367188.0883789 1.6357422 2.5854492.6865234 5.7553711-.5239258 8.2973633-.8261719 1.734375 1.7597656 3.2583008 2.590332 1.5141602z"/><path d="m132.5434875 95.1856766c2.0048828-4.2094727 2.9829102-9.7416992-1.0458984-13.1484375-2.8686523-2.425293-7.5849533-1.7626953-9.2480392 1.734375-.824707 1.734375 1.7607422 3.2587891 2.590332 1.5141602 1.1860352-2.4931641 4.3002853-2.0244141 5.6371994.0888672 1.6357422 2.5849609.6865234 5.7553711-.5239258 8.2973633-.8261719 1.7338866 1.7597656 3.2578124 2.590332 1.5136718z"/><path d="m50.5713234 89.8673172c-1.9189453.1118164-1.9321289 3.112793 0 3 9.5244141-.5551758 19.0493202-.6289063 28.5820351-.2524414 1.9306641.0761719 1.9272461-2.9238281 0-3-9.5327149-.3764649-19.057621-.3027344-28.5820351.2524414z"/><path d="m91.3354874 92.3121414c12.09375-.3759766 24.190918-.6333008 36.284668-1.0092773 1.9257736-.0600586 1.9340744-3.0605469 0-3-12.09375.3759766-24.190918.6333008-36.284668 1.0092773-1.9257813.0600586-1.9340821 3.0605469 0 3z"/><path d="m170.7471008 90.5089188c1.9306641.0185547 1.9321289-2.9814453 0-3-10.6806641-.1035156-21.3476563.5722656-32.0224609.8007813-1.9277344.0415039-1.9345703 3.0415039 0 3 10.6748047-.2285157 21.3417969-.904297 32.0224609-.8007813z"/><path d="m61.2139015 111.7608719c19.4252968-.3383789 38.8242226-1.3330078 58.1821327-2.9829102 1.909668-.1630859 1.9267578-3.1645508 0-3-19.3579102 1.6499023-38.7568359 2.6445313-58.1821327 2.9829102-1.9282226.0336914-1.9345703 3.0336914 0 3z"/><path d="m93.0019913 125.5343094c1.9038086-.2753906 1.0942383-3.1665039-.7973633-2.8925781-7.1386719 1.0332031-14.2836914 1.2631836-21.4775391.7700195-1.9267578-.1323242-1.918457 2.8681641 0 3 7.4770508.5126953 14.8608399.1958008 22.2749024-.8774414z"/><path d="m101.3599014 190.8365479c.3076172 1.9008789 3.1987305 1.0942383 2.8925781-.7973633-.6918945-4.2758789-1.0571289-8.5957031-1.7495117-12.8720703-.3076172-1.9008789-3.1987305-1.09375-2.8925781.7978516.6918945 4.2758788 1.0576172 8.595703 1.7495117 12.871582z"/><path d="m108.770546 178.7325439c.8681641-.7700195 2.296875-.6367188 3.2890625-.2080078 1.7241211.7451172 1.7788086 2.6401367 1.1894531 4.2001953-.8803711 2.3295898-3.4912109 3.7080078-5.2104492 5.3681641-.9453125.9121094-.2207031 2.5532227 1.0605469 2.5605469 3.2641602.0185547 6.5249023-.1508789 9.7895508-.1323242 1.9306641.0107422 1.9331055-2.9892578 0-3-1.9658203-.0112305-3.9296875.043457-5.8945313.0869141 2.5688477-2.4316406 4.8095703-5.2426758 3.1240234-9.0390625-1.5605469-3.515625-6.6298828-4.4750977-9.4692383-1.9580078-1.4477539 1.2836913.6806641 3.3989257 2.1215821 2.1215819z"/><path d="m276.3554993 207.166626c-3.8710938-2.8129883-9.5410156-4.3393555-14.1699219-5.3120117-.0126953-.1557617-.015625-.315918-.0332031-.4692383-.0800781-.7094727-.418457-1.2050781-1.1010742-1.4462891-5.8085938-2.0507813-11.6381836-4.0366211-17.4882813-5.9648438-2.9257813-8.0141602-7.6381836-15.4257813-13.3974609-21.1757813-4.421875-4.4140625-9.3481445-9.2817383-15.7675781-10.3354492-4.5004883-.7382813-6.2070313 1.3076172-6.175293 4.4838867-3.4231873-2.570755-6.7086182-2.9059753-9.2026367-2.0620117-.1254883-25.3120117-.2119141-50.5556564-5.4511719-75.4550705.1254883-.4941406.0302734-1.0522461-.2954102-1.4404297-.0014648-.0073242-.0029297-.0151367-.0043945-.0224609-.2099609-.9594727-1.0610352-1.2211914-1.7929688-1.0014648-27.6376953-20.565918-57.1264648-38.5136719-84.3408127-59.6708984-.2721558-3.5656624-2.211998-7.9917488-5.1489258-8.4213867-4.9760742-.7294922-7.7329102 4.4047852-7.6870117 9.3706055-1.04039.3555088-25.6260223 25.6345119-71.543457 63.5864258-.3427734.2832031-.2929688.6552734-.0766602.9199219-.0195313.0541992-.0336914.1088867-.0390625.1704102-2.6181641 4.8242188-1.9077148 11.7602539-.840332 17.9057617 3.1044922 37.4931564 5.762207 75.1747971 2.168457 112.5952072-.5205078 5.4194336-.1445313 20.25-.1206055 20.2871094 1.3016262 2.0166321 3.6235638 3.2936707 4.0683594 3.2661133 2.0649414.640625 4.2436504 2.1914063 4.498045 4.487793.0053711.0478516.027832.0825195.0400391.1254883.0341797 2.1420898.0742188 4.2827148.1254883 6.4213867-.282589.5375366.3631935 1.5717773 1.1669922 1.1225586 2.8359375-.1889648 5.2734375 2.4936523 6.6191406 4.7036133.0991211.1630859.2333984.2495117.3754883.3007813.1376953 1.331543.2563477 2.6630859.4038086 3.9946289.0424805.3828125.3129883.6049805.6123047.6806641 3.4747505 1.5827942 4.8323669 7.2117004 5.2861328 7.7695313.4057426.8578186 1.1758385.7336426 1.9970703.6826172 1.4990234 1.3110352 2.9985352 2.621582 4.4975586 3.9326172.139679-.0067749 132.9368134-6.4789429 139.9628906-6.2734375 1.9311523.0561523 1.9296875-2.9438477 0-3-47.9072266-1.3925781-95.8251877-.6450195-143.6616211 2.2958984-6.0044403-40.7803955-.1541138-102.1342926-7.2456055-151.3227539-1.5107422-10.480957-3.1015625-22.9111328-11.791502-29.3476563 2.7963848-.0834961 5.5937481-.1582031 8.3896465-.2607422 1.9248047-.0708008 1.934082-3.0712891 0-3-4.0827942.1496048-12.202301.3306503-12.7651348.4257813 23.3681622-19.4155273 46.0683594-39.6254883 68.0175781-60.6333008.5102539 3.2656269 2.3378906 6.1103535 5.6665039 6.6704121 4.5668945.7680664 6.8120117-3.1704102 7.0429688-7.5639668 26.6811447 20.6171894 55.4653244 38.2636719 82.5463791 58.3222656-3.9179688 0-7.8359375 0-11.7539063 0 .1748047-2.6206055-.5131836-5.1782227-2.7573242-7.0756836-2.8686523-2.425293-7.5849609-1.762207-9.2475586 1.734375-.8251953 1.734375 1.7607422 3.2587891 2.590332 1.5141602 1.1855469-2.4931641 4.2998047-2.0244141 5.6367188.0888672 1.6357422 2.5849609.6865234 5.7553711-.5239258 8.2973633-.8261719 1.7338867 1.7597656 3.2583008 2.590332 1.5141602.4609375-.9682617.862793-2.0073242 1.1669922-3.0732422h13.331543c5.2578125 25.1987305 5.1640625 50.7387619 5.2963867 76.3496017-.5043945.5859375-.8930664 1.2744141-1.1489258 2.0439453-4.4981995-1.6515503-9.1228333 1.248703-10.3208008 5.3530273-1.6985779-.5610352-3.7286072-.9212646-5.3696289-.2094727-.1944427-5.2529297.4518433-1.1962738-1.902832-21.7285156.2856445-.7421875.0161133-1.7138672-.8081055-2.0083008-.5234375-.3359375-1.2192383-.371582-1.7089844-.0961914-36.199707-.0083008-72.3959885-.6054688-108.5956955-.6005859-.8181229 0-2.3254356.8475952-2.0732422 2.1547852 8.8354034 45.8087769 5.2904129 94.0227966 6.4458008 96.175293.190918.4853516.6298828.8432617 1.3266602.7866211.8544922-.0693359 1.7099609-.1235352 2.5644531-.1904297.9550781.8232422 1.8535156 1.78125 2.7841797 2.4824219 30.159256 3.0870819 32.081459-7.447876 104.9252853-4.9379883.819458.0286102 1.5878448-.5490723 1.5644531-1.487793-.203125-8.0615234-.5141602-16.1181641-.8989258-24.1728516 2.1835938 2.9125977 6.4077148 6.2314453 8.5390625 7.2231445 2.3085938 1.0805664 5.3427734 1.9282227 8.5649414 2.4936523 1.2822266 13.8818359 2.4536133 27.7739258 3.1948242 41.6962891.1025391 1.9204102 3.1030273 1.9326172 3 0-.7329102-13.7729492-1.8876953-27.515625-3.1538086-41.2480469 3.8774414.465332 7.7744141.5087891 10.7641602.0581055-1.5469971 2.6840668.0356598 6.7931213 2.6499023 7.5400391h.0097656.0009766c1.2782135 2.343399 10.3517303 14.9289246 11.9228516 17.0854492 1.8232422.2241211 4.0883789.5683594 6.0727539.8359375 0 .0004883 0 .0009766.0004883.0009766 1.0419922 1.6176758 3.6401367.1157227 2.590332-1.5141602-3.9052734-6.0625-8.4008789-11.7202148-12.3691406-17.7397461 5.0966797-1.4926758 10.4946289-4.753418 13.559082-6.2680664 5.2133636-2.5756836 10.3747559-5.4611206 15.0844727-8.7900391 3.2102966 5.0316925 8.3824463 11.4774017 11.3735352 17.8364258.8212891 1.7456055 3.4086914.2246094 2.590332-1.5141602-1.0888672-2.3154297-2.3637695-4.4785156-3.7211914-6.5805664 3.0527344 1.1279297 6.4487305 2.0273438 8.6489258.1386719 1.5400391-1.3227539 2.1674805-3.8828125 2.9116211-5.6948242 1.3227539-3.2202148 2.5219727-6.4604492 3.4584961-9.8164063 1.0375977-3.7172777 1.1909181-6.5703051-2.1503905-8.9985277zm-247.7226506 38.4711914c.3349609-26.4521484 1.7163086-52.9204102.7739258-79.3740234-1.2043247-33.7892914-5.0370693-46.2828064-6.2094727-58.0068283-.371582-3.7177734-1.1152344-8.762207.0112305-12.7246094 11.8393536 49.8906174 8.5654297 101.6445236 9.1928692 152.578125-.9785137-1.137703-2.3212871-1.9765702-3.7685528-2.4726639zm5.4394513 12.0209961c-1.2626953-53.8237305 3.1464844-108.7397461-9.1992168-161.6035156 19.9430981 40.5255814 7.3196201 81.5302353 15.588377 165.3164063-1.6225587-2.0092774-3.8237306-3.6450196-6.3891602-3.7128907zm6.0996093-130.4575119c5.2338562 41.5742874 1.9727325 110.1741104 6.3149414 144.4853516-.9663086-1.7607422-2.2192383-3.3452148-3.902832-4.1352539-9.5429039-86.9470825 4.5678024-131.3760986-17.0971661-173.6147461 12.208006 4.9433593 13.2485333 21.8510742 14.6850567 33.2646484zm217.3002892 85.2661056c-2.3530273-1.9663086-8.2753906-.4638672-10.6816406.7241211.0805664-2.2426758-.0146484-4.5004883-.2641602-6.753418 3.9428711.980957 7.8867188 1.9575195 11.8310547 2.9331055-.2563477 1.0317383-.5571289 2.0673828-.8852539 3.0961914zm1.7563476-9.9912109c.0634766 1.7124023-.1484375 3.5512695-.5366211 5.4326172-4.1235352-1.0200195-8.2470703-2.0405273-12.3686523-3.0664063-.3535156-2.4599609-.887207-4.9082031-1.5908203-7.3173828 4.8457031 1.6103516 9.6791992 3.256836 14.4960937 4.9511719zm-66.9174804 9.0615234c-4.6391449-1.1740875-31.9800568-7.8536377-34.7514648-9.6040039-.3398438-1.5688477-.6791992-3.1381836-1.019043-4.7070313 2.0820313-.4750977 4.1313477-1.1000977 6.2363281-1.4609375h1.2216797c10.2192383 2.6259766 20.4521484 5.1962891 30.690918 7.7441406.8833008.9648438 1.7099609 1.9628906 2.3671875 3.0170898 3.317871 5.3232423-.5004883 5.9262697-4.7456055 5.0107423zm-125.0180588-58.9233398c7.3476563.0014648 14.6953125.0292969 22.0429688.0693359 1.0473633 5.2470703 1.8364258 10.5224609 2.4511719 15.8168945-.0756836.0668945-.1572266.1201172-.2319336.1884766-.5551758.5073242-1.0600586 1.0385742-1.5239258 1.5864258-6.6650391 0-13.3300781 0-19.9951172 0-.7431641-5.90625-1.6484375-11.7949219-2.7431641-17.6611328zm107.0966721.5976562c2.4827423 21.7931213 1.218338 17.7103119 1.8354492 21.9008789-2.5170898-.4819336-5.2836914-1.605957-7.5449219-2.1064453-2.487793-.550293-4.2319336-.2666016-6.84375.0639648-2.2729492.2880859-4.5351563.6210938-6.7924805.9785156-.0883789-.7578125-.1806641-1.515625-.2753906-2.2734375h20.1137695c.965332 0 .9667969-1.5 0-1.5-6.7651367 0-13.5302734 0-20.2954102 0-.7436523-5.7241211-1.6474609-11.4287109-2.6611328-17.109375-.0019531-.0107422-.0087891-.0166016-.0107422-.0268555 7.491211.0419923 14.9829102.0703126 22.4746095.072754zm-13.9023438 26.3876953c-.4257813.2109375-.671875.7729492-.2158203 1.1708984 1.6445313 1.4335938 3.3466797 2.8125 4.9047852 4.3413086-2.9467773.7504883-5.8647461 1.6088867-8.8217773 2.3222656-.7817383.1884766-.6289063 1.2133789-.0141602 1.421875 1.9311523 1.8666992 3.9550781 3.6328125 5.8979492 5.4868164-.0078125.0039063-.012207.0107422-.0195313.0146484-2.1186523.3994141-4.1850586 1.012207-6.2949219 1.4755859-.4838867-.1679688-1.1708984.2167969-1.0258789.8876953.2924805 1.3510742.5854492 2.7021484.8779297 4.0527344-5.2885742-3.449707-10.4287109-7.1630859-15.4501953-11.0200195 1.0712891-3.4833984 2.137207-6.9682617 3.1962891-10.4555664 1.2467957-.4628754 15.6533661-3.1216278 20.5483398-3.4794922-1.2109375 1.2431642-2.5498047 2.376465-3.5830078 3.7812501zm-4.331543 40.7739258c-9.5366211 0-19.0732422 0-28.6098557 0-.1904297-8.199707-.5351563-16.4111328-1.0810547-24.6079102h17.3964767c15.836731 11.4166107 10.1129456 7.3370667 12.0727539 8.7299805.1865236 5.2919922.2563478 10.584961.2216798 15.8779297zm-40.4023361-48.5981445c7.6514893 7.0137482 11.1967316 16.378479 1.7275391 22.4902344-6.7685547 0-13.5366211 0-20.3051758 0-.6842346-.4405975-1.2711487-.8508453-2.078125-1.5576172-.3115234-6.9941406-.7475586-13.9780273-1.4550781-20.9326172zm-21.3813476-1.5c5.6108398-4.3666992 13.5922852-3.9541016 19.4599609 0-6.4868164 0-12.9736328 0-19.4599609 0zm34.5917892 11.2436523c-.9433594.3525391-1.6205978 1.7280273-.6621094 2.5068359 4.3369141 3.5249023 8.9091797 6.921875 13.4833984 10.2397461-5.1425781 0-10.2851563 0-15.4277267 0-.1181641-1.7001953-.2441406-3.3999023-.3798828-5.0986328.5429688-2.4453125.1801758-5.2128906-.699707-7.9145508-.3066406-3.1645508-.6469727-6.3237305-1.0209961-9.4770508h29.0112228c.1044922.8359375.2070313 1.671875.3041992 2.5083008-11.3945007 1.8903809-9.8466034 1.7182923-24.6083984 7.2353516zm-4.2519455 10.6435547c.0517578.7006836.1010742 1.4018555.1499023 2.1030273-.734375 0-1.4682617 0-2.2026367 0 .8447266-.6201171 1.5273438-1.3251952 2.0527344-2.1030273zm-1.3950195-15.4399414c-1.0102539-1.8691406-2.1850586-3.5722656-3.3637695-4.9472656h2.8037109c.196289 1.6474609.3828125 3.2963867.5600586 4.9472656zm-8.6582031 19.0429688c-4.6396484 1.9697266-9.9316406 2-14.6450195 0zm5.8583984 0h4.4516602c.5454102 8.1967773.8901367 16.4086914 1.0791016 24.6079102-9.984375 0-19.9692383 0-29.9541016 0-.3222656-7.9155273-.5249023-15.8500977-.8349609-23.7763672 7.7265624 5.1367187 17.8549804 4.739746 25.2583007-.831543zm32.56884-25.4902344c-9.6699219 0-19.3393555 0-29.0092697 0-.7104492-5.8110352-1.5380859-11.6005859-2.5024414-17.3579102 9.6533127.0805664 19.3071213.1582031 28.9609299.2148438-.2023316.480072 1.0461578 5.6116333 2.5507812 17.1430664zm-30.5087814 0c-1.3564453 0-2.7124023 0-4.0688477 0-6.7426758-6.4633789-17.6069336-8.4394531-25.3520508-2.8828125-.5898438-4.9194336-1.3354492-9.8222656-2.296875-14.7011719 9.7338867.0556641 19.4677734.1333008 29.2016602.2138672.9711914 5.7597656 1.8022461 11.5537109 2.5161133 17.3701172zm-30.375 2.0566406c.6274414 6.2563477 1.0341797 12.5356445 1.3300781 18.8251953-4.6928711-5.2412109-6.2099609-13.0615234-1.3300781-18.8251953zm1.5307617 23.4335938c.3271484 8.203125.5292969 16.4160156.8618164 24.6079102-22.9055786 0-21.1055603-.0218811-21.3457031.0395508-.144043-8.2783203-.4223633-16.5527344-.9150391-24.8105469.1157227.09375.2578125.1630859.4482422.1630859zm85.8959885 20.5488281c.4599609 8.9052734.7973633 17.8149414 1.0341797 26.7285156-35.7651367-1.175293-71.6142502-.2753906-107.2836838 2.5742188.0297852-7.9189453.019043-15.8491211-.1049805-23.777832.2441711.0530853-1.6861038.0341797 21.3828125.0341797.0546875 1.2792969.1108398 2.5581055.1738281 3.8364258.0473633.9604492 1.5473633.9663086 1.5 0-.0629883-1.2783203-.1191406-2.5571289-.1738281-3.8364258h29.9238281c.1269531 6.112793.1723633 12.2172852.1416016 18.3017578-.0048828.965332 1.4951172.9667969 1.5 0 .0307617-6.0854492-.0151367-12.1899414-.1425781-18.3017578h28.5644455c-.0332031 3.1606445-.0908203 6.3212891-.2021484 9.4819336-.0341797.965332 1.4663086.9638672 1.5 0 .1113281-3.1606445.1689453-6.3212891.2021484-9.4819336h11.6176758c.9648438 0 .9663086-1.5 0-1.5-3.8686523 0-7.737793 0-11.6064453 0 .0327148-4.9848633-.0307617-9.9697266-.1943359-14.9541016 3.9200897 2.0210876 6.7271118 1.9671021 19.7958984 5.3491211.5610351 2.0307617 1.3598632 3.8784179 2.371582 5.5458984zm-15.3369141-22.0224609c-.019043-.0048828-.0341797.0009766-.0522461-.0024414-.0717773-.0805664-.1704102-.1333008-.2885742-.1616211-.0553436-.5257416-.3661957-.5151825-5.7729492-5.6098633 2.7939453-.7163086 5.5644531-1.5219727 8.3666992-2.206543.0834961.081543.1855469.1513672.328125.1870117 5.4716797 1.378418 10.9428711 2.7592773 16.4150391 4.1357422.2490234.3056641.4960938.6108398.730957.9165039 2.1323242 2.777832 4.465332 5.4462891 6.8520508 8.0097656.5869141.6298828 1.2197266 1.2666016 1.8608398 1.9135742-9.4873047-2.364746-18.9702148-4.7480468-28.4399414-7.1821288zm2.9799805-9.2397461c-.050293-.0126953-.0917969-.003418-.1386719-.0063477-.1191406-.1450195-.2875977-.2402344-.4960938-.2539063.019043-.1894531-.0390625-.3896484-.215332-.5649414-1.4291992-1.4248047-2.9902344-2.7133789-4.5209961-4.0288086 1.2197266-1.5966797 2.8305664-2.8525391 4.1508789-4.3676758 3.6000977.2993164 6.9291992 1.9370117 10.4985352 2.394043-.0922852 1.2602539.1391602 2.6376953.6767578 3.9379883.984375 2.378418 2.7075195 4.480957 4.4243164 6.5126953-4.793457-1.2070312-9.5864258-2.4155273-14.3793945-3.6230468zm-97.0541916-13.2768555h18.6816406c-4.7070313 7.0698242-2.8496094 16.496582 3.4213867 22.4902344-6.5131836 0-13.0253906 0-19.5385742 0-.2260742 0-.394043.0869141-.5146484.2128906-.4711914-7.5874023-1.1357422-15.1582031-2.0498047-22.703125zm153.3886642 61.8881836c-.8105469.2231445-3.7719727 1.1420898-4.3652344.6020508-2.6733398-2.4316406 2.0249023-3.9628906 3.4101563-4.4736328.0678711-.0253906.125-.059082.1855469-.090332 1.0668945.0405273 2.1367188.0639648 3.2158203.0439453 1.9277344-.0366211 1.934082-3.0371094 0-3-19.2561493.3647614-40.0311432-1.0709229-45.3432617-15.090332 3.2407227.8344727 6.4804688 1.6748047 9.7246094 2.4975586.0532227.0195313.1010742.0439453.159668.059082.3833008.1000977.7734375.1933594 1.1645508.2807617.3754883.0952148.75.1943359 1.1254883.2890625.2255859.0571289.4345703.0629883.6259766.0322266 2.8037109.3862305 5.5136719.0410156 7.1025391-2.4360352.371582-.2685547.6201172-.6894531.6201172-1.1923828 1.5820313-3.9741211-2.2353516-7.0185547-4.6430664-9.9418945-4.0224609-4.8852539-8.4663086-9.4155273-12.4389648-14.3696289-1.2895508-1.6079102-5.4301758-7.0693359-4.546875-9.2324219.0410156-.0654297.078125-.1333008.1083984-.2080078.3955078-.6191406 1.328125-.8789063 3.0727539-.5332031 4.4765625.887207 8.03125 5.1181641 10.6025391 8.5620117 1.1416016 1.5292969 3.7470703.0351563 2.590332-1.5141602-2.2954102-3.0742188-5.1796875-6.4335938-8.6826172-8.4599609.3079071-2.2169037 2.7432251-3.9716034 4.7138672-4.0820313 3.3351746-.1869507 5.0000458 3.0608673 12.0200195 10.6767578 1.3115234 1.4228516 3.4287109-.703125 2.121582-2.121582-2.4814453-2.6918945-5.2060547-7.0258789-8.5629883-9.5458984.3845062-3.2702484 4.3208008-3.4877777 7.0424805-2.1884766 3.0052185 1.435379 6.4426575 5.9087067 8.4672852 8.5161133 1.1831055 1.5224609 3.2919922-.6142578 2.121582-2.121582-1.0439453-1.3442383-2.1479492-2.8022461-3.3525391-4.1850586-.0053711-.1303711-.0224609-.265625-.0673828-.409668-2.7226563-8.7773438 8.3164063-2.3271484 11.4208984.3544922 4.128418 3.565918 8.0078125 7.5522461 11.081543 12.0654297 6.9068451 10.1404266 11.2689819 24.0202637 8.8745117 36.3500977-.3657227 1.8857422 2.5249023 2.6938477 2.8930664.7973633.2333984-1.2006836.4038086-2.4130859.5273438-3.6318359.3959961.2202148.890625.2631836 1.4033203-.0219727 1.2353516-.6855469 2.9848633-1.2080078 4.418457-1.21875 2.5805664-.8496094 2.9394531.1582031 1.0766602 3.0244141-4.8751528 4.586273-23.4075777 14.1340025-29.8881838 15.9174803zm51.7631836-17.4863281c-.9663086 3.2207031-1.9150391 6.8491211-3.550293 9.8100586-1.7866211 3.234375-2.7504883 3.8144531-5.8320313 2.90625-1.8110352-.5336914-3.6123047-1.1010742-5.4140625-1.6640625-1.1816406-1.6918945-2.3740234-3.3828125-3.5332031-5.1123047 1.9726563-4.8867188 4.6459961-11.4458008 5.1269531-17.1835938 4.6246643 1.081665 10.1690979 3.3243256 11.5869141 4.1542969 2.9365235 1.7197266 2.4614258 4.2695312 1.6157227 7.0893555z"/></g></g></svg>