<svg id="Layer_1" enable-background="new 0 0 300 300" height="512" viewBox="0 0 300 300" width="512" xmlns="http://www.w3.org/2000/svg"><g id="Feedback"><g><path d="m221.37677 58.1793556c-3.4736328-.5693359-6.9394531-1.1816406-10.4125977-1.7529297-1.5922852-3.1518555-3.1850586-6.3032227-4.7773438-9.4545898-.1704102-.3369141-.4707031-.4208984-.7490234-.3535156-.2045898.0161133-.3999023.1196289-.5229492.3696289-1.5527344 3.1689453-3.1166992 6.3310547-4.8696289 9.3945313-3.546875.3886719-7.0942383.7768555-10.6416016 1.1650391-.0205078.0019531-.0341797.0136719-.0541992.0170898-.5791016.0209961-1.0771484.7543945-.5356445 1.2612305.0874023.0820313.175293.1640625.2631836.246582.1958008 1.2929688.4980469 2.5698242.9165039 3.809082 1.809082 1.3281212 3.434082 2.7460899 5.2431641 4.0742149-.5688477 2.7958984-1.1958008 5.7241211-1.7646484 8.5200195.2612305.6884766.8212891 1.3447266 1.3291016 1.9428711-.0727539.5136719.4399414 1.0766602 1.0234375.8212891 1.0449219-.1269531 2.3515625-.2202148 3.3540039-.3457031.7460938-.0932617 4.2543945-2.2592773 6.1865234-3.5063477 2.2626953 1.6518555 4.8466797 3.0024414 7.472168 3.9790039.6884766-.1264648 1.4291992-.2495117 2.1435547-.3745117.184082.1030273.4101563.1049805.6176758.0297852.0029297-.0009766.0048828-.0019531.0073242-.0029297.253418-.09375.4643555-.3007813.5073242-.5942383.027832-.1176758.0205078-.2348633-.0170898-.3476563-.7412109-3.4941406-1.4829102-6.9882813-2.2241211-10.4819336 6.6378784-7.0444145 8.2797241-6.8905716 8.0415039-7.8115196-.0048829-.2836914-.1635743-.543457-.5366212-.6044922zm-8.8862304 7.6879845c-.2460938.2641602-.2514648.578125-.1279297.8305664.6582031 3.1010742 1.3164063 6.2026367 1.9741211 9.3037109-6.1490326-3.0470047-8.4689026-4.8381805-8.918457-4.8652344-.1017761.003067-.0935516-.0049744-.1958008.0200195-.0747223.0147018-.1960449.0617905-.2124023.0712891-2.8007813 1.6162109-5.6020508 3.2329102-8.4033203 4.8491211 1.9518127-10.5536041 1.75-9.4317551 1.7729492-9.644043.1401367-.2543945.1411133-.5732422-.1367188-.8334961-2.3974609-2.2441368-4.7944336-4.4882774-7.1918945-6.7324181 3.1113281-.340332 6.222168-.6806641 9.3330078-1.0214844.2749023.0571289.5732422-.0302734.7558594-.3461914 1.5922852-2.7519531 3.0205078-5.5893555 4.4233398-8.4404297 4.6290894 9.1587219 4.2833862 8.763176 4.8095703 8.78125 3.0068359.4936523 6.0087891 1.0151367 9.0136719 1.5180664-2.4448243 2.0102541-4.7353516 4.1918947-6.8959961 6.5092737z"/><path d="m263.0115356 42.1998634c-3.4731445-.5693359-6.9389648-1.1816406-10.4121094-1.7529297-1.5927734-3.1513672-3.1850586-6.3032227-4.777832-9.4545898-.1699219-.3369141-.4702148-.4208984-.7485352-.3535156-.2050781.0161133-.4003906.1196289-.5229492.3696289-1.5527344 3.1689453-3.1166992 6.3310547-4.8696289 9.3945313-3.5473633.3886719-7.0947266.7768555-10.6416016 1.1650391-.0205078.0019531-.034668.0136719-.0541992.0170898-.5791016.0209961-1.0776367.7543945-.5361328 1.2612305.0878906.0820313.175293.1645508.2631836.246582.1958008 1.2929688.4985352 2.5698242.9169922 3.809082 1.8085938 1.328125 3.434082 2.7460938 5.2426758 4.0742188-.5688477 2.7958984-1.1958008 5.7241211-1.7641602 8.5200195.2612305.6884766.8208008 1.3447266 1.3286133 1.9428711-.0727539.5136719.4399414 1.0766602 1.0234375.8217773 1.0449219-.1274414 2.3515625-.2207031 3.3544922-.3461914.7460938-.0932617 4.2539063-2.2592773 6.1865234-3.5063477 2.2626953 1.6518555 4.8461914 3.0024414 7.472168 3.9790039.6884766-.1264648 1.4291992-.2495117 2.1430664-.3745117.184082.1030273.4106445.1049805.6181641.0297852.0024414-.0009766.0048828-.0019531.0073242-.0029297.443512-.1649284.6005554-.6066055.4902344-.9418945-.7412109-3.4941406-1.4829102-6.9882813-2.2241211-10.4819336 6.65625-7.0639114 8.2790527-6.8848648 8.0415039-7.8115234-.0048828-.2836915-.1640625-.5434571-.5371094-.6044923zm-8.8857421 7.6879883c-.2460938.2641602-.2519531.578125-.1279297.8305664.6582031 3.1010742 1.315918 6.2026367 1.9741211 9.3037109-5.9672546-2.9569321-8.4934082-4.8409195-8.9189453-4.8652344-.1017761.0030594-.0935516-.0049782-.1958008.0200195-.0753021.0149345-.1959381.0620117-.2119141.0712891-2.8012695 1.6162109-5.6020508 3.2329102-8.4033203 4.8496094 1.5972137-8.6376457 1.7319946-9.341465 1.7729492-9.6445313.1401367-.2543945.1411133-.5732422-.1367188-.8334961-2.3974609-2.2441406-4.7944336-4.4882813-7.1918945-6.7324219 3.1108398-.340332 6.2216797-.6806641 9.3330078-1.0214844.2744141.0571289.5732422-.0302734.7558594-.3461914 1.5922852-2.7519531 3.0200195-5.5893555 4.4233398-8.4404297 4.626297 9.1563721 4.2828827 8.7631569 4.8095703 8.78125 3.0063477.4936523 6.0083008 1.0151367 9.0136719 1.5180664-2.4448242 2.0102541-4.7358398 4.1918947-6.895996 6.5092775z"/><path d="m263.3010864 119.9513245c-.1704102-.3369141-.4707031-.4208984-.7490234-.3530273-.2045898.015625-.3999023.1191406-.5224609.3691406-1.5532227 3.1689453-3.1171875 6.3310547-4.8696289 9.3945313-7.7985382.8544617-10.4488373 1.138916-10.6958008 1.1821289-.5795898.0209961-1.0776367.7543945-.5361328 1.2612305.0874023.0820313.175293.1645508.2631836.246582.1958008 1.2929688.4980469 2.5698242.9169922 3.809082 1.8085938 1.328125 3.4335938 2.7460938 5.2426758 4.0742188-.5688477 2.7958984-1.1958008 5.7241211-1.7646484 8.5200195.2612305.6884766.8212891 1.3447266 1.3291016 1.9428711-.0727539.5136719.4399414 1.0771484 1.0234375.8212891 1.0449219-.1264648 2.3515625-.2202148 3.3540039-.3457031.7460938-.0932617 4.2543945-2.2592773 6.1870117-3.5058594 2.262207 1.6513672 4.8461914 3.0019531 7.4716797 3.9785156.6884766-.1264648 1.4291992-.2495117 2.1435547-.3740234.5453491.3037872 1.3312988-.2603149 1.1157227-.9155273-.7416992-3.4941406-1.4829102-6.9882813-2.2246094-10.4819336 6.6392212-7.0444183 8.2782288-6.8899689 8.0419922-7.8115234-.0053711-.2836914-.1640625-.5429688-.5371094-.6044922-3.4736328-.5693359-6.9394531-1.1816406-10.4121094-1.7529297-1.5927736-3.1513674-3.185547-6.3032228-4.7778322-9.45459zm6.303711 18.8955078c-.2460938.2641602-.2514648.578125-.1279297.8305664.6582031 3.1015625 1.3164063 6.2026367 1.9741211 9.3037109-2.8920898-1.4331055-5.703125-3.0166016-8.4736328-4.6748047-.1206055-.1142578-.2744141-.1801758-.4448242-.1904297-.0019531 0-.003418-.0004883-.0048828-.0004883-.0625-.003418-.125.0043945-.190918.0205078-.0595703.0117188-.1142578.0292969-.1674805.0561523-.0151367.0078125-.0297852.0063477-.0449219.0151367-2.8007813 1.6162109-5.6020508 3.2329102-8.402832 4.8496094 1.9000244-10.2836609 1.7503662-9.4401245 1.7724609-9.6445313.1401367-.2543945.1416016-.5732422-.1367188-.8334961-2.3969727-2.2441406-4.7944336-4.4882813-7.1914063-6.7324219 3.1108398-.340332 6.2216797-.6806641 9.3330078-1.0214844.2744141.0571289.5727539-.0302734.7553711-.3461914 1.5922852-2.7519531 3.0205078-5.5893555 4.4233398-8.4404297 4.7165833 9.3318329 4.2843323 8.5549774 4.4477539 8.6611328.1367188.1096344-.5533447-.0236053 9.3754883 1.6381836-2.4448241 2.0102541-4.7353514 4.1918948-6.8959959 6.5092776z"/><path d="m192.3831177 29.7433205c-28.671875 24.3500977-55.7407227 50.5122032-81.0678711 78.3242188-1.2973633 1.425293.8183594 3.5527344 2.121582 2.121582 25.3271484-27.8125 52.3955078-53.9746056 81.0678711-78.324707 1.4736328-1.2514649-.6572266-3.3647462-2.121582-2.1210938z"/><path d="m148.8860474 187.783844c2.0200195 1.3930664 5.487793 4.2905273 6.9692383 5.1245117 39.5600586-8.5834961 76.609375-12.6660156 116.75-19.75.5244141-1.1132813 2.3686523-4.3530273 3.3251953-6.1621094.2387695-.0390625.4780273-.0786133.7167969-.1176758 1.9003906-.3110352 1.0942383-3.2026367-.7973633-2.8925781-42.5332031 6.9648438-85.0668945 13.9296875-127.6000977 20.8945313-1.8442383.3022461-1.1357422 3.0253906.6362305 2.9033203z"/><path d="m265.7771606 87.7018127c-3.4731445-.5693359-6.9394531-1.1816406-10.4121094-1.7529297-1.5927734-3.1513672-3.1850586-6.3032227-4.777832-9.4545898-.1704102-.3369141-.4702148-.4208984-.7485352-.3530273-.8531952.0650101-.6737213 1.5160217-5.3925781 9.7641602-3.5473633.3881836-7.0947266.7763672-10.6416016 1.1645508-.0205078.0024414-.034668.0136719-.0541992.0170898-.5791016.0209961-1.0776367.7543945-.5361328 1.2612305.0878906.0825195.175293.1645508.2631836.246582.1958008 1.2929688.4985352 2.5698242.9169922 3.809082 1.8085938 1.328125 3.434082 2.7460938 5.2426758 4.0742188-.5688477 2.7958984-1.1958008 5.7246094-1.7646484 8.5200195.2612305.6889648.8212891 1.3447266 1.3291016 1.9433594-.0727539.5131836.4399414 1.0761719 1.0234375.8212891 1.0449219-.1269531 2.3515625-.2207031 3.3544922-.3461914.7456055-.0932617 4.2539063-2.2592773 6.1865234-3.5058594 2.2626953 1.6513672 4.8461914 3.0019531 7.472168 3.9785156.6884766-.1264648 1.4291992-.2495117 2.1430664-.3740234.184082.1030273.4106445.1044922.6176758.0297852.0029297-.0009766.0053711-.0024414.0083008-.0039063.4425049-.1640091.6001892-.6056671.4897461-.9414063-.7416992-3.4941406-1.4829102-6.987793-2.2246094-10.4819336 6.6587219-7.065094 8.2792969-6.8857651 8.0419922-7.8115234-.0053712-.2832032-.1640626-.5429688-.5371095-.6044923zm-8.8857421 7.6879883c-.246582.2641602-.2519531.578125-.1279297.8310547.6577148 3.1010742 1.315918 6.2021484 1.9741211 9.3032227-7.6468658-3.7879257-8.5871887-5.2032928-9.3266602-4.7739258-2.8012695 1.6166992-5.6025391 3.2329102-8.4033203 4.8496094.5913086-3.1977539 1.1826172-6.3955078 1.7734375-9.5932617.003418-.0185547-.0029297-.0332031-.0004883-.0512695.1401367-.2543945.1411133-.5732422-.1367188-.8334961-2.3974609-2.2441406-4.7949219-4.487793-7.1918945-6.7319336 3.1108398-.3408203 6.2216797-.6811523 9.3330078-1.0214844.2744141.0566406.5727539-.0307617.7558594-.3466797 1.5917969-2.7519531 3.0200195-5.5893555 4.4233398-8.4404297 1.4086914 2.7880859 2.8178711 5.5761719 4.2265625 8.3642578.0809021.2407074.2912445.4074631.5830078.4174805 3.0063477.4931641 6.0083008 1.0146484 9.0136719 1.5175781-2.4448242 2.0102539-4.7358398 4.1923828-6.895996 6.5092773z"/><path d="m226.6448364 102.9977112c-3.4736328-.5688477-6.9394531-1.1816406-10.4121094-1.7529297-1.5927734-3.1513672-3.1850586-6.3027344-4.777832-9.4545898-.1704102-.3364258-.4707031-.4208984-.7485352-.3530273-.168457.0126953-.3227539.0986328-.4428711.265625-.0258789.0361328-.0585938.059082-.0800781.1035156-1.5527344 3.1689453-3.1171875 6.3310547-4.8696289 9.3950195-3.5473633.3881836-7.0947266.7763672-10.6420898 1.1645508-.0205078.0024414-.0341797.0136719-.0537109.0170898-.5791016.0214844-1.0776367.7543945-.5361328 1.2617188 2.6889648 2.5170898 5.3774414 5.0336914 8.0664063 7.5512695-.6674805 3.6103516-1.3349609 7.2211914-2.0024414 10.831543-.2998047.5683594.3300781 1.4077148 1.0322266 1.0024414 3.1381836-1.8110352 6.2768555-3.6220703 9.4150391-5.4335938.0117188-.0014648.0229492-.0048828.034668-.0058594 3.1337891 1.8691406 6.3139648 3.6542969 9.6157227 5.2124023.5567627.3233032 1.3469238-.2492523 1.1176758-.9140625-.7514648-3.4101563-1.7666016-6.7539063-2.5214844-10.1635742 2.5180664-2.6987305 5.1992188-5.2294922 8.1132813-7.4980469.1640625-.1279297.2299805-.2773438.2451172-.4272461l.1943359-.1293945-.2070313-.0537109c-.0009766-.0048828-.0024414-.0097656-.003418-.0146484-.0053713-.2832032-.1640627-.5429688-.5371096-.6044922z"/><path d="m128.6716919 182.1720276c1.7231445-12.8535156-4.15625-28.0942383-11.1616211-38.6225586-8.6633148-13.019165-14.6720886-21.0157547-29.3251953-20.2509766-.3041992.015625-.5546875.1098633-.7626953.2470703-.1069336.0327148-.215332.0771484-.324707.1376953-13.0556641 7.2202148-10.2128906 24.5102539-6.0610352 36.2055664 13.46212 37.9283295 44.7922592 43.4864655 47.6352539 22.2832032zm-25.2270508 4.8774414c-5.9760742-4.15625-10.6259766-10.1225586-14.2089844-16.3911133-6.6054688-11.5576172-16.1147461-35.7924805-.6420898-44.3735352 6.6254883-.2661133 12.1699219 1.4604492 16.8066406 6.3867188 4.0200195 4.2709961 7.8046875 9.4379883 10.8334961 14.4526367 3.921875 6.4931641 6.5458984 13.6801758 8.2954102 21.0415039 1.4482422 6.0947266 2.9506836 14.5136719-1.1484375 19.9360352-5.1157227 6.7675781-14.3164063 2.8564453-19.9360352-1.0522461z"/><path d="m119.461731 159.2355042c.6030273-.7431641-.4521484-1.8110352-1.0605469-1.0605469-.7866211.9702148-1.6186523 1.8847656-2.4853516 2.753418-2.0053711-4.5131836-4.3476563-8.8974609-7.0664063-13.0131836.7700195-.8505859 1.503418-1.7470703 2.1953125-2.6918945.5712891-.7792969-.7299805-1.5288086-1.2949219-.7568359-.5561523.7587891-1.1464844 1.4814453-1.7597656 2.1772461-2.4106445-3.4960938-5.1005859-6.7836914-8.1074219-9.7636719-.6865234-.6801758-1.7480469.3803711-1.0605469 1.0610352 3.0170898 2.9892578 5.7109375 6.3041992 8.1210938 9.8320313-3.0620117 3.1416016-6.7216797 5.5439453-10.78125 7.0800781-2.4086914-3.5966797-5.0385742-7.0024414-7.8505859-10.1308594-.6469727-.7192383-1.7050781.3442383-1.0610352 1.0605469 2.6567383 2.9555664 5.1499023 6.1796875 7.4467773 9.5820313-1.9477539.6240234-3.9770508 1.0581055-6.0673828 1.2841797-.949707.1025391-.9604492 1.6035156 0 1.5 2.3959961-.2587891 4.7045898-.7709961 6.9086914-1.5097656 2.6103516 4.003418 4.9501953 8.2329102 6.9487305 12.565918-2.0478516.6645508-4.1791992 1.1401367-6.3813477 1.4135742-.9453125.1176758-.9570313 1.6191406 0 1.5 2.4125977-.2993164 4.746582-.8256836 6.9863281-1.5610352 1.4926758 3.3706055 2.7875977 6.7905273 3.8398438 10.2026367.2836914.9194336 1.7324219.5273438 1.4467773-.3989258-1.0654297-3.453125-2.3671875-6.902832-3.8662109-10.2993164 3.9980469-1.5029297 7.6601563-3.7148438 10.8779297-6.574707 1 2.3808594 1.9111328 4.7880859 2.7314453 7.2016602.3085938.9091797 1.7583008.519043 1.4462891-.3984375-.8994141-2.6474609-1.9057617-5.2836914-3.0141602-7.8857422 1.0185548-.9897463 1.9931642-2.0410159 2.907715-3.1694338zm-15.5556641 9.4711914c-1.9936523-4.3408203-4.3208008-8.5727539-6.9213867-12.5893555 4.0483398-1.5795898 7.7021484-3.9692383 10.8071289-7.0883789 2.6918945 4.112793 5.0024414 8.4975586 6.9755859 13-3.1894531 2.9174805-6.8486328 5.1728515-10.8613281 6.6777344z"/><path d="m36.4343872 223.1896057c.0019531-.0063477.0043945-.012207.0063477-.0180664-1.2624245 6.968338-2.6065903 12.8620148 1.878418 18.8525391 3.7978516 5.0727539 9.0244141 10.2587891 14.215332 13.8710938.5722656.3984375 1.1308594.3115234 1.5405273-.0083008 1.0560036.0036469 11.6608505-3.3439789 21.4057617-8.8139648 1.1953125 3.4829102 2.4067383 6.9614258 3.65625 10.4287109.1342773.371582.3662109.6279297.640625.7939453-.0087891.4672852.1865234.9423828.6757813 1.2734375 5.5380859 3.7475586 10.9536133 7.6777344 16.840332 10.8730469.5908203.3208008 1.1567383.2109375 1.5756836-.1015625 5.8236008-1.1824036 11.2025986-1.6378784 11.9697266-2.2885742.1103516-.034668.2216797-.0810547.3339844-.1464844 17.9258423-10.3855591 37.0889587-25.2530975 37.1679688-26.5454102 1.0923615-17.9311371 1.2770538-18.8899231.9506836-19.8886719-3.8227539-11.6889648-8.4072266-23.0668945-13.1479492-34.4091797-.1005859-.2402344-.2441406-.4287109-.4111328-.578125 2.4584961-15.9775391-3.5092773-34.6176758-11.7988281-47.5644531-5.0146484-7.831543-11.5107422-14.262207-19.5356445-18.9672852-8.2568359-4.8408203-16.5556641-8.1020508-25.3925781-3.0073242-.1787109.0405273-.3632813.1235352-.5483398.2636719-12.6513672 9.5844727-13.7802734 26.5439453-10.1279297 40.9536133 2.2753906 8.9770508 6.8071289 17.2988281 12.1699219 24.7871094 7.3191833 10.2202606 14.9318771 18.813858 26.8813477 22.5751953-9.1337891 2.0610352-18.2216797 4.3261719-27.3901367 6.230957-.2133789.0444336-.3876953.1240234-.534668.2236328-5.4024582-18.4020386-10.9006958-37.1791382-19.9931641-53.7988281-.0634766-.3769531-.25-.7368164-.5585938-.9853516-.46875-.6489258-1.2216797-.6899414-1.8129883-.3803711-3.78125-.2304688-7.5737305-.2319336-11.3530273-.5063477-.5170898-.0375977-.8901367.1547852-1.1289063.4541016-.2333984-.0068359-.4790039.0361328-.7304688.1586914-7.6499023 3.7197266-6.1035156 19.809082 2.6484375 19.4101563-2.8803711 10.0239258-5.0913086 20.2255859-7.0634766 30.4741211-3.4399414-4.4018555-5.4179688-10.3071289-6.8994141-15.5131836-2.3969727-8.425293-3.21875-17.1469727-2.1479492-25.8452148 10.7319336-12.0639648 21.9204102-23.1572266 34.8217773-32.9194336 1.5205078-1.1503906.0273438-3.7563477-1.5136719-2.590332-.7548828.5712891-1.4853516 1.1611328-2.2290039 1.7412109.076683-.1003876-32.7638817 22.6600037-37.5009766 36.1508789-6.9279156 19.7335662-1.7171288 41.1100006 12.4399414 55.3603515zm4.128418-5.6547851c2.4975586-13.4833984 5.0151367-26.9599609 8.7851563-40.1547852 1.9703178.2693329 4.0931931.3212891 6.043457.3632813-4.4619141 22.2871094-7.1992188 44.8520508-10.8334961 67.2783203-1.7338867-1.8637695-3.2905273-3.7958984-4.4838867-5.6694336-4.0581055-6.3676758-.7802735-14.9667969.4887695-21.8173828zm12.5151367-51.2485352c-.4248047-2.1210938-1.2763672-4.7768555-2.6933594-6.7514648 2.0942383.0717773 4.1884766.1381836 6.2802734.2558594 2.9101563 4.3037109 3.7329102 10.6972656-.237793 14.5810547-.1259766.1230469-.2138672.253418-.284668.3857422-1.8720665-.0460205-3.361084-.0865021-5.2128906-.2099609 2.0844728-2.0205079 2.7153321-5.4306642 2.1484376-8.2612306zm2.5043945 71.203125c-2.7491913 1.0707397-6.2769318 1.3054504-7.4033203 3.7319336.6811523-4.3398438 1.3432617-8.6826172 1.9892578-13.027832 4.9936523-.1899414 11.2841797-.7143555 18.1699219-2.8632813.6352539 2.015625 1.2788086 4.0283203 1.9262695 6.0400391-1.7231445 1.4223633-13.3574218 5.6030273-14.6821289 6.1191406zm18.6650391 6.8393555c-10.8150635 6.1165619-19.5887299 8.2624817-20.6469727 8.65625-2.1425781-1.5283203-4.4443359-3.4321289-6.6186523-5.512207.0732422-.0825195.1367188-.1777344.1889648-.2885742.3113518-.0470123-1.2935104.5980377 24.8574219-10.3886719.8139648 2.4770508 1.6391602 4.9501953 2.4760742 7.4199219-.0849609.0307616-.1704101.064453-.2568359.1132812zm16.7875976 7.3974609c-1.0751953-3.605957-2.1323242-7.2177734-3.184082-10.8305664 4.662941-4.4645081 14.6945648-17.2584229 18.6269531-22.3476563 1.1660156-1.5092773-.9418945-3.6474609-2.1210938-2.121582-5.6323242 7.2890625-11.2255859 14.3789063-17.4799805 21.1225586-.6699219-2.3115234-1.3378906-4.6240234-2.0053711-6.9365234.1865234-.0795898.3671875-.2094727.5322266-.4086914 4.0400391-4.8676758 8.1479492-9.6679688 12.0551758-14.6337891 4.6494141-1.8979492 8.5654297-3.9033203 12.7299805-5.328125 4.0874023-1.3984375 13.5107422-4.1142578 17.3256836-5.9257813.0451202.1006317 7.8371887 18.3248596 9.0209961 21.6738281-.3666992 4.065918-.7895508 8.1245117-1.0488281 12.1992188-10.9643555 7.0791016-21.6484375 14.5820313-32.6157227 21.6572266-3.9453125-2.706543-7.890625-5.4130859-11.8359375-8.1201172zm-3.3632812-32.328125c-1.5712891 1.9287109-3.293457 4.1230469-4.3730469 5.7788086-.3413086-1.1826172-.6855469-2.3637695-1.027832-3.5458984 1.4501953-.315918 3.2514648-1.2304688 5.4008789-2.2329102zm-14.375-55.5546875c-5.3964844-14.0522461-6.6674805-33.8808594 6.6254883-44.0043945.0932617-.0341797.1875-.0761719.2827148-.1333008 14.0620117-8.4140625 32.2060547 7.7368164 39.8320313 18.7714844 8.6137695 12.4628906 13.0771484 27.7573242 12.8339844 42.8808594-.1259766 7.8291016-2.034668 16.0327148-9.2431641 20.371582-6.9814453 4.203125-16.0634766 1.4663086-22.6337891-2.296875-12.5146484-7.1684571-22.6201172-22.3696289-27.6972656-35.5893555zm14.9150391 88.9174805c.1362305.4560547.4160156.75.7509766.9082031.2503738.5499115-1.0557938-.4590759 17.581543 12.3266602-2.8193359.4838867-5.6538086.8803711-8.4584961 1.449707-5.5556641-3.0913086-10.7128906-6.8041992-15.9716797-10.3671875-.1522903-1.4350433-5.3478699-12.8711853-19.543457-61.0639648-.5444336-1.8476563-3.4404297-1.0615234-2.8925781.7973633 1.6865234 5.7255859 3.3950195 11.440918 5.1347656 17.1455078-4.2045898.5708008-8.4633789.5327148-12.6787109 1.0073242 5.7953415-38.7675629 6.9157143-36.9616852 5.9394531-38.1542969.9436188-.4068298 3.2042046-3.1652069 3.8417969-6.9199219 8.8695296 19.8618164 15.03804 45.1324768 26.2963866 82.8706055zm-43.1132813-93.0839844c.1572266.0249023.3217773.034668.4995117.0087891 2.2460938-.328125 3.934082 4.7802734 4.3364258 6.3588867.6938477 2.7255859.4262695 7.0712891-3.328125 7.0908203-6.4399414.0332031-5.859375-10.8798828-1.5078125-13.4584961z"/></g></g></svg>