<svg id="Layer_1" enable-background="new 0 0 300 300" height="512" viewBox="0 0 300 300" width="512" xmlns="http://www.w3.org/2000/svg"><g id="Finance_Manager"><g><path d="m266.2097473 242.0405579c-1.4619141-.9482422-3.1816406-1.4648438-4.8735352-1.9365234-.081543-.2333984-.1875-.4648438-.2954102-.6914063 1.597168-1.4511719 2.3549805-3.3154297 1.6992188-5.7236328-.9775391-3.5869141-5.3779297-5.6445313-8.4653473-6.9384766-6.1064453-2.5585938-12.7348633-3.6699219-19.3032227-4.2949219.0454102-.8759766-.0292969-1.8105469-.2324219-2.7792969-1.6318359-7.7753906-7.3071289-14.8886719-12.4321289-20.6992188-5.7046356-6.4681091-12.7814331-13.1440582-20.652832-16.5830078-.1552734-10.2783203-.9389648-20.5283203-1.4033203-30.7939453 1.9311523-1.2539063 3.859375-2.5117188 5.7705078-3.7988281.6938477-.4667969.800293-1.2236328.5673828-1.8398438.0240173-.2427673.2014923 2.3544922-2.5620117-35.130867-.6904297-9.3642578-.0102539-20.6298828-4.7666016-29.0878906-4.0629883-7.2255859-11.3051758-9.4160156-19.1791992-9.4414063-10.6430664-.0351563-21.355957 1.3740234-31.7836914 3.4472656-1.1000977-6.0078125-2.9243164-12.1210938-6.1660156-16.8886719-5.347168-7.8652344-14.7348633-12.4707031-24.2114258-11.3173828-16.0751953 1.9550781-25.7451172 17.6865234-28.2026367 32.9931641-16.4155273 1.9238281-34.4038086 1.9316406-50.1992188 7.3818359-10.2485523 1.5175629-10.1302319 15.4735489-11.5351543 23.9130859-3.6269302 21.7836533-7.3434563 64.7378006-6.8168945 91.1699295.1342773 6.7373047-.6435547 17.8251953 5.9482422 22.0722656 3.2661133 2.1054688 8.0839825 2.7109375 12.2138653 1.6259766 1.715519-.1755829 4.1483574-1.0299225 8.8378906 2.6875 3.1939812 2.5318756 6.4482498 6.3261566 12.1992188 5.6279297.3496094-.0419922.6347656-.1796875.8564453-.3740234 3.3378448 4.1528931 8.3968887 5.0906677 13.6630859 4.6416016 18.2503357 2.9277802 60.2412415 1.6486816 96.0371094-2.3632813 1.8649445-.2089386 29.3968048-3.3967743 31.1123047-4.0927734.2248535.8161011.6091919 1.5381012 1.1074219 2.2109375-7.3618164 10.0107422 16.7714844 15.3310547 22.4467773 16.1103516 5.5566406.7636719 11.3666992 1.0703125 17.0566406.5732422 3.1870117.6025391 6.4360352.9130859 9.6918945.9130859 3.6047363 0 10.5848236-.4877625 13.7353668-2.2744141 1.6679688-.9492188 2.7314453-2.3867188 2.84375-3.8447266.123047-1.5986326-.9140624-3.3124998-2.7060546-4.4736326zm-7.7109375-4.7089844c-.6506958.2033386-2.7209015 1.9419861-8.0200348 3.1376953-12.2534943 1.9968262-35.2614441.9555206-44.2011719-6.5820313-1.1210938-1.0927734-1.7250977-2.4667969-.6762695-4.0966797 1.8232422-2.8349609 4.8945313-2.1728516 7.3291016-.9882813 2.5861969 1.4917908 5.4577332 2.8849945 8.3535156 3.3798828-.3853455 2.7424164 2.062149 8.640625 11.8374023 1.2548828 3.4755859.4658203 6.9516602.9287109 10.4277344 1.3896484-.6015625 1.3632813-3.2397461 1.7695313-4.3637695 1.6210938-.9536133-.1259766-.9443359 1.375 0 1.5 2.1000977.2773438 4.7348633-1.1025391 5.8300781-2.9257813.6333008.0839844 1.2661133.1699219 1.8994141.2529297.9541016.1259766.9448242-1.3759766 0-1.5-.4697266-.0615234-.9384766-.125-1.4082031-.1875.0888672-.9394531-.2773438-1.9101563-1.3598633-2.7832031-1.934082-1.5605469-4.6499023-1.9423828-6.9663086-1.2353516-1.5766602.4814453-2.9228516 1.3798828-4.2226563 2.3457031-1.8632813-.25-3.7275391-.4960938-5.5913086-.7451172.8779297-.6708984 1.5571289-1.6679688 1.9785156-3.0273438 2.1424713-.1580658 3.8601379-.8783722 4.8647461-2.7480469 9.2825165 1.1006167 30.8980866 5.3756869 24.2890778 11.9375003zm-68.3618317-48.3857422c1.6152344 7.9794922 7.3046875 15.1503906 12.5488281 21.0830078 6.0302734 6.8212891 14.097168 14.7451172 23.2016602 17.4736328-13.4093475 7.9236908-47.0011139-35.157135-35.7504883-38.5566406zm32.6298829 43.4072266c.5908203.0302734 1.1625977.0058594 1.7138672-.0673828 2.2612305.2998047 4.5219727.6005859 6.7832031.9033203-6.1211701 4.5376587-8.8367615 1.6167297-8.4970703-.8359375zm12.2260742-.1669922c2.0563049-1.1731567 4.1689453-1.8812561 6.4106445-1.1230469 1.0078125.3408203 1.8598633 1.2050781 2.1601563 2.265625-2.8574219-.3789063-5.7143555-.7587891-8.5708008-1.1425781zm-27.7094727-42.9824219c16.9598083 12.1138916 31.6944122 36.6225128 21.1723633 35.8632813-8.8339844-1.9492188-16.546875-9.4072266-22.4648438-15.8447266-5.4140625-5.8896484-12.1064453-13.7402344-13.1386719-21.9912109.9135742-1.1650391 1.8266602-2.3300781 2.7402344-3.4941406 3.8277741.2782745 8.5751496 3.2395477 11.690918 5.4667968zm-65.9946289 3.7890625c-.6582031 2.7236328-6.6616211 3.5742188-10.1494141 3.9980469.0117188-2.8369141-.0493164-5.6728516-.0102539-8.5087891 3.4726563-.9189453 6.9750977-1.7216797 10.4555664-2.6113281.0556641 2.368164.2182618 4.9960937-.2958984 7.1220703zm-12.9316406-10.3828125c-.1586914-2.0302734-.1914063-2.40625 2.0102539-3.1484375 4.3510742-1.4667969 9.0102539-2.2177734 13.5737305-2.7949219-.046875 1.8330078-.0961914 3.6660156-.140625 5.4990234-5.0131836 1.4101563-10.1166992 2.4677734-15.1318359 3.8710938-.1103516-1.1416016-.222168-2.2832031-.3115235-3.4267578zm-102.6118145 35.8710937c-1.4423828-4.1347656-1.3774414-9.1523438-1.527832-13.5078125-.3383789-9.8066406.3540039-19.6367188.8505859-29.4277344 1.0525284-20.7500153 3.0632858-54.7732697 8.4643536-76.9013748.8816986 1.4709167 2.1430664 2.9175034 3.8320313 3.2519531-.012867.10009-6.5728779 67.8714523-5.0117188 79.9336014.4956055 3.8271484 1.4072266 7.6230469 1.3696289 11.4814453-.0364571 3.7642517-1.213871 8.9449615 1.980957 12.2382813.1821289.5722656.6845703.8867188 1.2280273.9443359.0498047.0283203.0922852.0644531.1435547.0908203.0009766-.0263672.0019531-.0527344.0029297-.0791016.7612305.015625 1.5385742-.4648438 1.5478516-1.4462891.324707-34.9345703 1.9697266-69.8300781 3.2739258-104.7373123 1.4169922-.9628906 2.8027344-1.9248047 4.4667969-2.1201172-1.2016602 5.3701172-1.2495117 16.8017578-1.4077148 18.1835938-1.5087891 13.2285233 2.8852539 31.5000076 2.0913086 45.2636795-.8730469 15.1298828-2.449707 25.1425781-1.0585938 40.2333984.3632813 3.9433594-1.128418 7.7910156.9604492 11.1552734 2.9233398 4.7109375 8.7861328 7.7021484 10.9589844 12.4921875.2958984 2.3134766.800293 4.5595703 1.7172852 6.5390625-7.5737305.1904297-8.6567383-11.6269531-16.0117188-13.1845703-3.9272461-.8320313-7.4633789 1.6533203-8.5141602 5.4238281-4.0683575-.2207029-8.1528301-2.3769529-9.3569317-5.8271483zm34.0756817-8.7607421c-9.8093567-119.1088715-9.5805054-113.7237549-9.4804688-113.7031327-1.6181641-2.2851563-3.9677734-4.0253906-6.5986328-4.9755859 8.5908203 1.8505859 10.4926758 13.6542969 11.9501953 21.015625 3.1494141 15.9033203 4.8950195 32.4365311 4.8125 48.6660233-.0097656 1.9306641 2.9902344 1.9326172 3 0 .0839844-16.4941406-1.7119141-33.2959061-4.9194336-49.4638748-1.7841492-8.9933548-3.4238548-18.6845169-11.9672852-22.3232422 8.1674805-2.0703125 16.7436523-3.0097656 25.277832-3.7558594.4067001 3.1197662 11.9041214 4.2138672 14.0854492 4.2138672 1.1604538 0 1.8820953-.1418839 2.6352539-.3701172-.8330078.9433594-2.0522461 1.3632813-3.3222656 1.2792969-1.9272461-.1289063-1.9194336 2.8720703 0 3 2.512207.1669922 4.8188477-1.0878906 6.2119141-3.1455078.0677719-.1005783.5893936-1.0991058.5849609-1.5625-.1450195-15.2802734 8.2666016-34.8476563 24.7558594-37.8720703 9.7006836-1.7792969 19.7333984 3.3544922 24.1953125 12.1601563 3.1079102 6.1337891 4.6386719 13.890625 5.3540039 20.6835938.1323242 1.2587891 1.4921875 1.6875 2.3378906 1.2773438 2.2944336.5449219 4.6264648.7138672 6.9799805.4248047 1.8916016-.2324219 1.9150391-3.2353516 0-3-2.2114258.2714844-4.3574219.1464844-6.5073242-.3916016-.0141602-.1191406-.0302734-.2412109-.0449219-.3603516 3.1525574.488533 6.4468079-2.4583359 30.5390625-.3183594 23.5592957 3.1628265 20.4805145 18.1757431 21.7539063 35.4404297 2.3781281 32.2526321 2.1260834 28.9131699 2.1606445 29.1582108-18.3527069 12.2866058-37.2465515 22.7834015-56.7055664 32.0927734.0263672-.9716797.0532227-1.9423828.074707-2.9140625.0166016-.7412109-.7041016-1.5957031-1.5-1.5-3.6088867.4326172-7.2060547.9462891-10.7543945 1.7480469-2.3574219.5332031-5.3041992.9765625-7.421875 2.2529297-1.4873047.8955078-2.0214844 2.2939453-2.1269531 3.8574219-21.027832-3.4960938-41.9775391-7.3984375-62.8217773-11.8671875-1.8828125-.4042969-2.6875 2.4873047-.7973633 2.8925781 18.9430542 4.0594177 35.1013947 7.865387 58.9936523 16.671875.9301758.34375 2.9204102 1.4101563 4.4584961 1.625-.0092773 1.7226563-.0107422 3.4462891.0244141 5.1689453-.105957.2509766-.0913086.5585938.0751953.7998047.0014648.0039063.0009766.0087891.0024414.0126953l-.0385742.2119141.3632813.1582031c2.9304352 1.2772522 2.8262787 3.3467865 4.1855469 3.1679688 2.6342773-.3496094 5.2412109-.8046875 7.8105469-1.4912109 1.8359375-.4912109 4.9628906-.9423828 6.190918-2.609375.9858398-1.3378906.6660156-3.4628906.71875-5.0234375.0678711-1.9931641.1489258-3.9863281.199707-5.9794922.7496796-.2108154 1.3262634-.2471924 1.6899414-.8730469.6443939-.4997406.5424042-1.1538849.5678711-2.1923828 2.9033203-.5332031 7.9101563-2.4892578 10.2895508-3.6162109 3.5205078-1.6679688 6.5136719-2.5068359 10.1245117-3.9707031 3.5625-1.4443359 7.1196289-2.5761719 10.8876953-3.2753906 5.277832-.9794922 15.4111328-2.3222656 19.7275391-5.8779297.0498047-.0410156.0893555-.0849609.1342773-.1269531.2978516 5.3984375.5620117 10.7988281.6655273 16.2060547-4.1401367-1.0380859-8.0380859-.2695313-8.6875 4.5605469-10.2285156 1.8759766-1.9956055 16.6552734 1.6616211 22.1767578-5.6930237 3.0435028 1.8579712.5785675-97.5249023 24.0195313-33.7463685 7.9618678-31.9647637 5.5133357-34.2617188-22.3828129zm145.5488281 27.4667968c1.3110352.9570313 2.8544922 1.7353516 4.4135742 2.3759766 6.3598785 2.9962616 15.3342896 4.2592163 22.3847656 4.6806641 6.4799805.4882813 13.878418.5585938 20.4033203-1.2041016 2.0986328-.4570313 4.0947418-1.0605469 5.7666168-1.8642578.1289063.3037109.2573242.6064453.3862305.9091797-.8549805 3.4970703-5.9438629 4.7509766-8.9585114 5.4746094-5.7827148 1.3867188-11.8686523 1.5625-17.7822266 1.2138672-3.1713866-.1865235-30.5556639-4.1552735-26.6137694-11.5859376z"/><path d="m275.0676575 216.1704407c-.0532227-.3847656-.1489258-.7861328-.2929688-1.2060547.6967163-.7033081 1.6897278-2.2917023 1.5141602-3.2070313-.3779297-7.6933594-15.5073242-9.8701172-20.8066559-10.578125-4.53125-.6054688-21.5517578-2.6630859-22.6108398 5.0966797-.1513672 1.1103516.0742188 2.1123047.5693359 3.0214844-5.1572266 7.4677734 10.8725586 13.2089844 24.530777 13.9013672 4.9372559 1.3858185 10.1081238 1.7254028 15.0546875 1.0820313 1.1611328-.1503906 2.5009766-.3837891 3.6376953-.9697266 3.1751098-1.6419678 3.2002563-5.2453156-1.5961914-7.140625zm-38.6650544-9.5625c.8393555-4.765625 15.6801758-2.8691406 18.8764648-2.4287109 3.5630035.4912109 17.6391754 2.4638672 18.0102692 7.6601563-1.5780029 4.370575-13.1373291 3.2345886-17.7744293 2.7294922-3.496582-.3818361-20.0341797-2.7255861-19.1123047-7.9609376zm-.6787109 5.1796875c4.8286133 3.5908203 14.3100586 5.0410156 17.546875 5.5 3.8730621.5498047 13.0957184 1.7685547 18.6850739-.5205078-1.0302735 6.6132812-36.8984528 1.6875-36.2319489-4.9794922z"/><path d="m105.8547516 83.5669174c-.0053711-.4794922-.0024414-.9667969.0043945-1.4570313 3.4471664-.4596252 4.6817093-.1222076 6.703125-.5380859.706543-.1455078 1.0366211-.640625 1.074707-1.1835938 6.8632813-6.6611328 15.5688477 6.359375 17.5336914 12.3007813 2.7055664 8.1806641 2.3740234 17.4111328 2.8671875 25.9287109 1.0317383 17.8271561 2.0634766 35.6552811 3.0952148 53.4824295.1113281 1.9189453 3.1118164 1.9316406 3 0-1.3554688-23.4228516-1.7729492-47.1259842-4.1728516-70.4638748-.796875-7.7509766-3.0058594-15.9902344-9.0043945-21.3222656 2.0620117-.2216797 4.1240234-.4443359 6.1860352-.6650391 1.2287445.5566788 2.3169861.9853134 3.4838867 1.5068359.1625977.9267578 1.1586914 1.2539063 1.9560547.9833984.1002197-.043396.2717743-.117691.1713867-.0742188.4555664-.2148438.8139648-.6376953.8496094-1.2773438.6757813-12.2246094-7.9140625-24.1484375-20.8544922-22.2636719-12.6455078 1.8427734-16.0229492 13.7851563-15.8935547 25.0429688.022461 1.9287112 3.022461 1.933594 3.0000001.0000002zm11.1176758-21.609375c7.2034149 1.3979836 12.962677 6.7487106 14.331543 14.8886719-7.092659.7565536-7.0039673.6569901-7.4975586 1.0410156-4.3442383-2.890625-8.7084961-3.7734375-12.7895508.9130859-1.6538086.2128906-3.3540039.0722656-5.0161133.2724609.5795898-7.4169921 3.1186523-15.0117187 10.9716797-17.1152343z"/><path d="m130.228775 126.9126205c-.559082-12.3476563-3.0068359-24.3671875-7.3828125-35.9335938-.3383789-.8945313-1.7885742-.5068359-1.4462891.3984375 4.328125 11.4404297 6.7758789 23.3134766 7.3291016 35.5351563.0434571.9619141 1.5434571.9667969 1.5 0z"/><path d="m128.9558258 139.8716125c.9868164 6.0839844 1.3330078 12.171875 1.0737305 18.328125-.0405273.9648438 1.4594727.9628906 1.5 0 .2651367-6.2929688-.1191406-12.5117188-1.1274414-18.7265625-.1538086-.9501953-1.5996094-.546875-1.4462891.3984375z"/><path d="m204.4094391 196.785675c-2.0827026 2.0108795-3.3925629 8.1237946 8.4169922 8.3525391 2.3745117 2.3222656 4.7373047 4.6572266 7.081543 7.0107422-.7451172.4970703-1.6611328.6953125-2.5253906.3515625-.5742188-.2294922-1.1044922-.7226563-1.5297852-1.1904297-.6508789-.7158203-1.7089844.3476563-1.0605469 1.0605469 1.5712891 1.7285156 4.4321289 2.0244141 6.4438477 1.1152344.4501953.4570313.9086914.9052734 1.355957 1.3652344.6743164.6923828 1.7348633-.3681641 1.0610352-1.0605469-.3798828-.390625-.769043-.7705078-1.1503906-1.1582031.8652344-.8632813 1.269043-2.1181641.7724609-3.7333984-1.3344727-4.3378906-5.4936523-4.8046875-9.5893555-5.0195313-2.3173828-2.2666016-4.6230469-4.5439453-6.9125977-6.8388672.5981445-.2197266 1.2456055-.3173828 1.8422852-.2939453.965332.0390625.9638672-1.4609375 0-1.5-1.0068359-.0390625-2.046875.203125-2.9560547.6699219-.7216797-.7294922-1.4521484-1.4492188-2.1665039-2.1865234-.6733398-.6943359-1.7333984.3671875-1.0605469 1.0605469.6518555.6728514 1.3188477 1.3291014 1.9770508 1.995117zm16.7270508 11.4853516c.5263672.9101563.355957 1.9560547-.1831055 2.8017578-1.9248047-1.9326172-3.8613281-3.8535156-5.8100586-5.7617188 2.0769196.2769166 4.9151306 1.0947572 5.9931641 2.959961zm-9.7104493-4.5087891c-3.3845978-.2111969-7.4474182-1.1832886-6.7788086-4.4931641.1166992-.5791016.4189453-1.0449219.8139648-1.421875 1.9760743 1.9843751 3.9638673 3.9560548 5.9648438 5.9150391z"/><path d="m244.9216461 207.417511c.5800781.1416016 1.1630859.2714844 1.7441406.4091797-.5170135 2.8821106 2.0920105 5.5900879 8.3466797 1.890625 2.2353668.4912109 4.4677887.9931641 6.6963043 1.5126953-.1480103.1998596-1.335144 1.0451813-2.5180664.5957031-.9365234-.2353516-1.3359375 1.2109375-.3989258 1.4462891 1.5986328.4013672 3.4663086-.421875 4.4277344-1.6875.3759766.0908203.753418.1728516 1.1289063.265625.9375.2294922 1.3374023-1.2167969.3989258-1.4472656-.3051758-.0742188-.6123047-.1416016-.9179688-.2148438.1113281-.7841797-.1342773-1.6181641-.9414063-2.390625-2.4189453-2.3154297-5.1831055-1.0253906-7.8027496.4013672-2.0878906-.4589844-4.1738281-.9257813-6.2573242-1.4052734.2050781-.2050781.4345703-.3837891.6748047-.5195313.8413086-.4726563.0859375-1.7695313-.7573242-1.2949219-.6098633.3427734-1.1352539.8486328-1.5180664 1.4394531-.6352539-.1503906-1.2729492-.2919922-1.9067383-.4482422-.9375-.2294921-1.3374023 1.2167969-.3989258 1.4472657zm16.2544098 2.1484375c-1.3188477-.3037109-2.6381836-.6025391-3.9594727-.8945313 2.1722718-.7693939 3.4431458-.7219391 3.9594727.8945313zm-8.1157379-.28125c-3.5361481 1.7751465-5.1327057.4070587-4.9467773-1.1191406 1.6469726.3808593 3.2958984.7548828 4.9467773 1.1191406z"/></g></g></svg>