<svg id="Layer_1" enable-background="new 0 0 300 300" height="512" viewBox="0 0 300 300" width="512" xmlns="http://www.w3.org/2000/svg"><g id="Financial_Planning"><g><path d="m94.310791 146.2001953c12.1538086 8.0146484 25.4702148-7.7275391 37.4702148-.1416016.6608734.4177094 1.2089539-.3966522 1.2280273-.8183594.8344116-18.3846512-2.0952301-20.7827759 4.315918-55.9814453.0278625-.1526718-.0092926-.9547195-.4550781-1.1748047-12.125-5.9785156-24.8422852 5.2304688-36.8842773-.3398438-.4027634-.1865234-1.2997513.0146255-1.3129883.7109375-.6922913 35.4345016-4.7410278 54.9996796-4.6542969 56.8730469-.0976562.2998048-.0424804.6503907.2924805.8720704zm5.834961-56.7763672c11.7866211 4.6445313 24.1132813-5.59375 35.6640625-.1806641-6.1614685 33.8821564-3.6269379 37.2032166-4.265625 54.9521484-11.7998047-6.2392578-24.5600586 7.9628906-36.0322266.9746094 2.6787109-18.4804687 4.2294922-37.0761718 4.6337891-55.7460937z"/><path d="m112.5437012 137.9150391c.0268555 1.1416016.0405273 2.28125.0869141 3.4277344.0390625.9619141 1.5395508.9667969 1.5 0-.0473633-1.1650391-.0620117-2.3242188-.0888672-3.4853516 11.8393478-1.4351349 16.5838623-16.8604126 4.7280273-22.8359375-1.0356445-.5224609-2.4584961-.8046875-3.9267578-1.1142578.4506836-5.1289063 1.0561523-10.2529297 1.8212891-15.3886719 2.3208008-.7353516 4.7646484-.9726563 6.8486328-.6621094.9443359.140625 1.3520508-1.3046875.3989258-1.4462891-2.3608398-.3515625-4.734375-.2871094-6.9594727.2783203.1831055-1.1787109.3583984-2.3554688.5566406-3.5361328.1582031-.9443359-1.2866211-1.3496094-1.4467773-.3984375-.2485352 1.4804688-.4731445 2.9580078-.6987305 4.4365234-6.94133 2.6429062-10.1780243 10.508812-8.2177734 14.7451172 1.1078949 2.3931885 3.2370911 3.0757217 6.0610352 3.5507813-.5581055 6.8955078-.8125 13.8105469-.7045898 20.7880859-2.137207-.1347656-4.0039063-1.2363281-4.980957-3.6787109-.3540039-.8847656-1.8056641-.4990234-1.4462891.3984375 1.3432616 3.3583985 3.7705077 4.7949219 6.4687499 4.9208985zm-4.4150391-28.9189453c-.40625-4.7490234 2.8754883-8.1279297 6.9384766-9.8847656-.7036133 4.8251953-1.2641602 9.6425781-1.6933594 14.4648438-2.6044922-.6406251-4.9951172-1.6572267-5.2451172-4.5800782zm13.0185547 9.6220703c7.4794922 7.7060547-.4414063 16.7177734-7.1474609 17.6035156-.1049805-6.8837891.1416016-13.703125.6860352-20.5048828 2.2548827.3447265 4.3886718.765625 6.4614257 2.9013672z"/><path d="m162.9841309 117.8974609c-.3427734.1806641-.418457.4960938-.3398438.78125.0009766.0185547-.0068359.03125-.0048828.0498047 2.0888672 19.1503906.75 37.9658203-.765625 57.0908203-.0498047.6246185.7516937.9343109 1.1269531.8027344 12.5107422-4.4130859 24.1269531 7.7060547 36.699707 2.9199219.327301-.1246338.694458-.7199707.6918945-1.0400391-.1738281-18.7832031.1728516-37.5625 1.0400391-56.3271484.0112305-.2509766-.0830078-.4326172-.2270508-.5527344-.2011719-.2929688-.578125-.4775391-.984375-.2734375-12.661621 6.3613281-24.3295898-10.2470703-37.2368163-3.4511719zm36.9106445 5.2324219c-.8310547 18.3583984-1.168457 36.7294922-1.003418 55.1044922-12.0209961 4.2285156-23.3134766-6.9169922-35.4462891-3.3232422 1.4780273-18.7246094 2.7358398-37.1621094.7202148-55.9179688 12.0722657-5.8701171 23.3637696 9.1757813 35.7294923 4.1367188z"/><path d="m181.1330566 148.7089844c.003418 4.7333984.0449219 9.4667969.0732422 14.2001953-1.7670898-.2773438-3.5048828-1.4082031-4.7402344-3.6806641-.4609375-.8486328-1.7568359-.0927734-1.2954102.7568359 1.4423828 2.6523438 3.7138672 4.0751953 6.043457 4.4169922.0180664 2.8642578.0166016 5.7294922.0444336 8.5947266.0092773.9638672 1.5092773.9667969 1.5 0-.0273438-2.8408203-.0258789-5.6806641-.0439453-8.5205078 3.6777344-.1884766 7.0864258-3.0351563 7.1494141-8.0009766.0532227-4.1474609-2.3964844-7.2832031-6.1962891-8.6923828-.3364258-.125-.6816406-.234375-1.0302734-.3388672-.0014648-5.0234375.027832-10.0458984.0532227-15.0693359 1.3666992.6552734 2.6186523 1.6738281 3.6376953 2.8623047.6293945.7333984 1.6860352-.3310547 1.0605469-1.0615234-1.328125-1.5488281-2.9692383-2.5957031-4.6933594-3.171875.012207-2.1689453.0058594-4.3378906.0229492-6.5068359.0078125-.9658203-1.4921875-.9667969-1.5 0-.0161133 2.0419922-.0102539 4.0839844-.0214844 6.1259766-5.1342773-.8916016-10.4282227 2.2509766-10.1655273 8.9560547.2541352 6.4925536 5.2465668 7.9254149 10.1015625 9.1298827zm6.6450196 4.8398437c1.9853516 4.9326172-1.2983398 8.9921875-5.0717773 9.3994141-.0273438-4.6074219-.0673828-9.2148438-.0717773-13.8222656 2.1713866.6845703 4.0751952 1.7695312 5.1435546 4.4228515zm-6.5854492-21.7216797c-.0263672 5.0693359-.0546875 10.1386719-.0537109 15.2080078-3.4775391-.8720703-7.0581055-1.5078125-8.3305664-5.5966797-1.5745545-5.0611419 2.8264922-11.0328979 8.3842773-9.6113281z"/><path d="m278.0002441 179.5332031c-4.5258789.1533203-9.0541992.2050781-13.5795898.359375-1.457489.0490112-2.1497498 2.0074005-.4570313 3.0644531 1.5678711.9775391 3.269043 1.6796875 5.0024414 2.3037109-1.8203125 1.3662109-3.640625 2.7324219-5.4609375 4.0986328-.4124756-.160614-.7295227-.091156-1.1123047.0019531-.4082031-.0927734-.8173828-.1796875-1.2255859-.2714844-17.7407227-14.9521484-37.918457-27.0498047-53.8632813-44.0673828.3925781-10.3046875 1.0302734-20.7294922.5644531-30.9755859-.0541992-1.1914063-1.21875-1.7958984-2.2568359-1.2958984-7.4975586 3.6132813-15.2563477.8613281-22.6547852-1.5419922-.0405884-.1000977-28.7676849-41.4242249-28.8623047-41.5244141.0356445-.5839844.0761719-1.1669922.109375-1.7509766 3.5055084-.9141159 3.5217285-4.6265602 3.5585938-4.7285156 0-2.6181641-2.1298828-4.7480469-4.7480469-4.7480469s-4.7480469 2.1298828-4.7480469 4.7480469c.0319214.1000404-.1724396 3.255188 2.9492188 4.5380859-.0415039.7353516-.0922852 1.46875-.137207 2.203125-.7541809.4356232-8.4835052 10.0791702-9.0175781 10.7539063-14.7817383-7.6132813-33.0297852 8.7744141-46.0668945-3.2480469-.8408203-.7753906-2.1655273-.4394531-2.5073242.6621094-.1080704.3484573-4.198288 57.5284729-4.6669922 64.484375-17.6713867 14.9179688-35.0541992 30.3037109-52.1147461 45.9199219-1.890625-1.4189453-3.7807617-2.8378906-5.6708984-4.2568359 1.0909843-.3922577 4.4920044-1.7258759 5.2998047-2.5429688 1.1235352-.6269531.8745117-2.7695313-.7543945-2.8251953-4.5253906-.1533203-9.0537109-.2060547-13.5791016-.359375-.9267578-.0322266-1.765625.9912109-1.4467773 1.8984375 1.2626953 3.5927734 3.1674805 6.9707031 5.3725586 10.0654297.7524414 1.0546875 2.3178711.9228516 2.7416992-.3583984.4052734-1.2255859.0644531-2.625-.0415039-3.9580078 2.0917969 1.5703125 4.1835938 3.140625 6.2753906 4.7109375-.0893555.5400391.0917969 1.0839844.621582 1.3535156.03125.0439453.0566406.0888672.0942383.1318359 7.4389648 8.4824219 16.5849609 14.7607422 26.6240234 19.421875-1.1889648-.0361328-2.8222656.0537109-5.7729492.2568359-4.511467.3112793-26.4987297 5.18013-26.4980469 11.3769531.0014648 10.0019531 53.1542969 18.109375 118.7211914 18.109375 65.5678711 0 118.7216797-8.1074219 118.7216797-18.109375 0-7.7373047-21.1391602-10.4072266-25.953125-11.3027344-4.3774414-.8134766-7.4213867-1.2890625-11.59375-.8818359 17.1717834-6.7675934 28.4388428-14.2614746 41.5078125-24.0693359-.1069336 1.3320313-.4492188 2.7294922-.0424805 3.9580078.425293 1.2871094 1.9912109 1.4111328 2.7412109.3583984 2.2060547-3.09375 4.1108398-6.4716797 5.3735352-10.0644531.3188477-.9072264-.5200195-1.9296874-1.4462891-1.8984374zm-237.1186523 14.0341797c66.7331085 15.638031 143.3652344 16.7307129 216.28125.0986328-53.6897583 35.8451081-173.4829941 42.2787323-216.28125-.0986328zm163.6259766-6.3720703c.8525391.1992188 1.890625-.2636719 1.9008789-1.3984375.0083008-.8925781.0249023-1.7841797.0351563-2.6757813 2.2837677.1903076 5.6231689.5935669 7.890625.875-12.9837799 10.9258881-13.3273621 14.2855377-18.0063477 15.8320313-5.1930542 1.7140656-16.4482269 2.0700226-21.9204102 2.1669922 5.3808594-4.8554688 10.5615234-9.4511719 15.8007813-14.1630859 4.8012695 1.0351562 9.599121 1.2988281 14.2993164-.6367188zm-.8051758 11.0419922c7.925293-2.0712891 17.2514648-2.4765625 26.6733398-2.3183594-9.3046875 1.5830078-18.6689453 2.8974609-28.0727539 3.9394531.4760742-.5273437.9433594-1.0771484 1.3994141-1.6210937zm35.0605469-3.8222656c-9.355957-1.2705078-18.7363281-2.3330078-28.137207-3.2070313 2.519043-2.2988281 5.0961914-4.5332031 7.7324219-6.6992188 12.5039063 1.6572266 24.9423828 3.8007813 37.2792969 6.4287109-5.5961915 1.2626954-11.2246095 2.4140626-16.8745118 3.4775392zm-125.9868165-12.694336c2.3538971-.8484192 5.6194763-1.0024872 20.8222656-.7958984-7.7851563 6.6992188-15.5703125 13.3974609-23.355957 20.0966797-7.6362305-.6533203-15.2661133-1.3388672-22.862793-2.3408203 6.7548981-4.3581085 13.7361221-8.5206757 19.7163086-12.8964844 1.7470704-1.2783203 3.6689454-3.3398438 5.6801758-4.0634766zm26.991211 13.9482422c-.1835938 2.359375-.3666992 4.7177734-.5498047 7.0771484-8.3735352-.1601563-16.7412109-.5253906-25.0883789-1.1230469 4.8932342-4.202835 19.1846924-5.6662902 25.6381836-5.9541015zm7.1958008-.149414c7.0636292-.0170898 28.5483551.4813232 29.6899414.4287109-2.3925781 2.1425781-4.7851563 4.2919922-7.1455078 6.4365234-7.6982422.3320313-15.4057617.4785156-23.1123047.4453125.1889648-2.4365234.3784179-4.8730468.5678711-7.3105468zm37.0273437-6.1357422c-14.4326172-.109726-15.7414856-1.000412-36.4882813-.8066406.2216797-2.8515625.4433594-5.703125.6650391-8.5546875 2.4272461-.0048828 4.8544922.0107422 7.28125.0400391-.0595703 1.9619141-.0039063 3.8837891.3134766 5.6630859.1572266.8798828 1.4697266 1.4589844 2.2036133.8964844 8.9204102-6.8408203 18.7807617-2.3935547 28.7290039.3369141-.8979492.8056639-1.7929688 1.6093749-2.7041016 2.4248046zm-28.378418-12.3203125c-2.4038086-.0292969-4.8076172-.0458984-7.2119141-.0419922.6020508-7.7460938 1.2036133-15.4921875 1.8056641-23.2382813 2.0039063.5292969 4.1049805.5791016 6.2475586.1162109-.452835 21.1848603-.326828 16.0301514-.8413086 23.1640626zm-15.3017578 11.618164c-3.8417969.078125-7.6826172.1943359-11.5239258.3300781 10.7946777-9.285202 9.9797821-8.5252075 10.1572266-8.8847656.6782227-.0126953 1.3564453-.0371094 2.034668-.0478516-.2226563 2.8681641-.4453125 5.7353516-.6679688 8.6025391zm-46.9375 2.6435547c-10.0556641.9609375-20.0849609 2.1484375-30.0834961 3.5878906-1.8127937.2670441-18.4016113-3.4952393-20.1723633-3.9042969.0478516-.0107422.1000977-.0263672.1469727-.0361328 20.9920197-4.5048065 41.9798508-7.4999542 63.5908203-9.2421875-5.7011413 4.3371888-1.9173431 2.293274-13.4819336 9.5947266zm161.4003907-3.6210937c-14.0032043-2.931366-30.7921448-5.7415771-48.2895508-7.6181641.1412964-9.893631.5055084-24.9466858.6806641-30.8759766 14.3227538 14.6269532 31.7001953 25.6992188 47.6088867 38.4941407zm-49.8378907-71.4697266c.4631653 15.0702515-1.0391846 23.8603363-1.5087891 68.1865234-14.8412933 6.5362854-30.3764648-10.3237915-44.9204102-1.7578125.0419922-3.3051605.2760315 2.9136658.9663086-29.7402344 2.9394531-1.3388672 4.6992188-3.5791016 3.5947266-7.3632813-.5400391-1.8496094-3.4360352-1.0625-2.8930664.7978516.3989258 1.3671875.0737305 2.3339844-.6225586 3.0361328.2412109-11.5917969.4960938-23.1816406.8676758-34.7695313 13.634079-9.232437 28.9234467 7.0744325 44.5161133 1.6103517zm-54.1596679-41.4404297c-.1733398 2.609375-.3461914 5.2197266-.4882813 7.8310547-.1049805 1.9296875 2.8955078 1.9238281 3 0 .1459961-2.6845703.3237305-5.3671875.5019531-8.0488281 4.9963531 7.5362701 18.6078491 27.7238235 24.8662109 35.3828125-7.1616211-1.8046875-14.3325195-2.1464844-20.644043 2.7021484-.6557617.5039063-.8051758 1.2431641-.5888672 1.8320313-.3886719 12.1201172-.6455078 24.2441406-.9008789 36.3681641-2.0825348.5211792-3.9238586.6381073-6.0844727-.0585938 1.5566406-20.0351563 3.1132813-40.0703125 4.6699219-60.1054688.0367126-.4672241-.3329926-.7302628-.75-.75-1.887207-.1044922-3.7763672-.1542969-5.6640625-.2587891-.4272461-.0234375-.7197266.3642578-.75.75-.8369141 10.7753906-1.6743164 21.5517578-2.5117188 32.328125-1.5545044.7258377-2.9961395.8533936-4.4228516.6083984.4031067-6.6187057 1.8670044-27.2719574 2.9731445-40.3046875 2.2124026-2.8017577 4.4858401-5.5537108 6.7939456-8.2763671zm-54.8452149 6.428711c13.8271484 9.8046875 30.7524414-5.5253906 45.015625 2.2832031-1.074295 12.7125015-2.5019531 32.8957443-2.8759766 38.9101563-1.0234375-.578125-1.6425781-1.4023438-.9848633-2.5078125.9892578-1.6630859-1.6030273-3.1738281-2.590332-1.5146484-1.8696289 3.1435547.5366211 5.9365234 3.3823242 7.2265625-.5024414 8.640625-.9262695 17.3447266-1.9462891 25.9111328-14.4091797-6.3691406-31.8720703 8.3447266-44.5610352-2.3330078.0067216-.1053773 4.5016328-67.4341432 4.560547-67.975586zm-7.546875 67.7802734c-.3369141.5341797-.3549805 1.2421875.222168 1.7744141 14.3666992 13.2490234 32.6328125-4.6972656 47.7915039 4.3515625 1.0786133.6435547 2.1142578-.2216797 2.2568359-1.2949219 1.203125-9.0458984 1.6503906-18.2695313 2.1772461-27.4267578 1.4750977.171875 2.9472656.0273438 4.3481445-.3935547-1.3227539 17.0205078-2.6450195 34.0419922-3.9677734 51.0625-33.3523712.5079803-67.3635101 4.2003937-99.8535156 11.2490234 15.2099609-13.8730469 31.2587891-28.0664063 47.1782227-41.5654297-.0488282.7480469-.1049805 1.4951172-.1528321 2.2431641z"/></g></g></svg>