<svg id="Layer_1" enable-background="new 0 0 300 300" height="512" viewBox="0 0 300 300" width="512" xmlns="http://www.w3.org/2000/svg"><g id="Market_Growth"><g><path d="m277.5839233 221.3401642c1.9716797-5.8564453-7.2016602-5.8066406-11.9677734-5.1679688 6.1567383-16.6689453 3.9267578-36.3183594-4.1430664-51.9052734-2.9321289-5.6621094-6.2104645-11.8632813-12.2675934-14.6992188-4.3876953-2.0546875-6.574707-.0439453-7.4487305 3.3203125-4.7784119-7.070343-11.8412781-6.2773743-14.5205078-2.1425781-3.6852417-2.9724121-9.3038788-1.9461823-11.7338867 2.3027344-3.987793-2.5878906-7.9555664 1.1230469-9.5791016 4.8154297-2.9046936 6.6088409 1.8796234 13.332489 5.8369141 21.7509766-16.7084961-10.7753906-33.4511719-21.5039063-50.1479492-32.3017578-.0297852-.0400391-.0527344-.0820313-.0874023-.1220703-10.2553711-11.6484375-22.2768555-21.0644531-35.4741135-29.0253906.1006165-.0372696 29.1562271-3.146225 32.9833908-3.453125 2.0703125-5.3701172 5.5600586-12.5400391 7.6499023-17.9707031 11.0600586-4.6796875 23.6899414-8.4296875 35.090332-12.1894531 1.9296875-4.1201172 5.0996094-9.1201172 7.0498047-13.4804688 4.7597656 1.0898438 7.9697266 1.6503906 12.8300781 2.1503906.9589844-1.0507813 2.6616211-3.1181641 4.0722656-4.4882813 1.1989441.0141907 1.816803-.7870865 1.7475586-1.4921875-.8598633-8.7597656-1.8481445-17.5068359-2.7739258-26.2607422-.9769135-9.2393703 1.3292084-12.8632374-7.0864258-9.1484375-6.7418213 2.9730377-37.3477936 16.4607468-44.6865234 19.6943359-.9343719.4125366-1.2588348 2.6843834.3383789 3.2919922 5.4140625 2.0595703 10.9179688 3.8408203 16.4614258 5.5117188-3.2329102 4.0439453-6.9746094 7.6113281-10.8344727 11.0654297-9.9951172 3.3115234-19.7426758 7.3017578-29.6621094 10.8261719-.6552734-.0546875-1.3232422.2646484-1.5029297 1.0615234-1.0507813 4.6699219-2.2143555 9.3134766-3.1435547 14.0097656-29.3950272 7.1565475-28.0573654 5.3324356-35.263176 12.1865234-14.1987305-6.5693359-28.9975586-11.5830078-44.1660156-15.3955078-37.9796982-9.5453568-53.6331825 11.0393219-40.0244141 28.5449219 3.8632813 4.9697266 9.3544903 8.2900391 14.8466778 11.1777344 2.6518555 1.3945313 5.3510742 2.7001953 8.0693359 3.9658203-7.3706055 12.9648438-14.6831055 26.7050781-19.4028301 40.8984375-3.6874352 11.0901489 4.9517269 21.9296265 10.5522442 28.5507813 14.3806686 17.0019989 35.7182808 25.9067383 57.6928749 29.9365234 40.8441086 7.4898987 50.7898483-13.4588928 37.5214767-27.5380859-2.925293-3.1035156-6.5610275-5.4296875-10.3984299-7.4609375 6.1879349-35.1605835 5.312706-35.3435974 6.4960861-41.7041016 17.292038 2.493042 22.7945251 3.5348358 29.6279297 3.3486328 13.4121094 8.6054688 26.8691406 17.1914063 40.3388672 25.7148438-.331543.2373047-.5825195.6015625-.6416016 1.0976563-1.0518341 8.8121185 3.7917328 19.3987579 9.1347656 24.8916016 5.841156 6.0051727 11.2055511 7.3711243 17.2177734 9.5712891.0055237.2980652-2.8523407 2.8648529.0927734 6.3935547 3.5048981 9.0989227 5.982666 24.6692047 7.9345703 35.2588043.1015015.0382996 4.9747467 1.776062 6.440918 2.2197266.6909027 1.331604 3.0629883.4896851 2.7431641-1.2216797-2.0981445-11.2431641-5.2680664-22.2568512-7.3745117-33.4980621 7.7844391-.3004456 25.9685516-3.8708801 34.796402-7.5 2.4365219-1.0019534 5.8466781-2.6630862 6.7651351-5.3916018zm-62.9511871-26.4208985c-21.4793701-13.5077209-41.4977875-26.312439-62.7583008-39.9765625 2.4360352-1.7460938 4.5356445-3.8564453 6.269043-6.3007813 18.5532227 12.0078125 37.1733398 23.9169922 55.737793 35.9042969 1.3025817 3.4382325 2.0417175 5.9196168.7514648 10.3730469zm-82.2978516-52.5585937c-1.0361328-.7832031-1.3325195-1.4375-1.0927734-2.2402344 2.6403961-1.6480713 4.6768646-3.6646271 5.7729492-5.2304688 6.6108398 4.3330078 13.2368164 8.6435547 19.8720703 12.9404297-1.7387695 2.4511719-3.8637695 4.5546875-6.3583984 6.2470703-6.0874023-3.915039-12.1508789-7.821289-18.1938477-11.7167968zm5.1303711-10.6601563c-.9916992-.4394531-3.1928711.3183594-5.6142578 1.9023438-1.6674652-2.173172-9.8843536-7.8515778-13.5180588-10.03125 1.8276367-.9765625 3.5537109-2.1054688 5.1479492-3.4501953 9.6430588 5.7382813 18.6557541 12.2519531 26.8134689 19.8427734-13.1746825-8.5671234-12.4323729-8.1578827-12.8291015-8.2636719zm43.8999024-58.5019531c4.4257813-3.9804688 8.6064453-8.1269531 12.1640625-12.9199219.5981445-.8046875-.0537109-1.9541016-.8964844-2.203125-5.3745117-1.5908203-10.7109375-3.2880859-15.9775391-5.2021484 7.0063019-2.6485481 44.1953888-19.1734428 44.2954102-19.2939453.6884155 1.2997551 3.3450012 31.9272156 3.3608398 32.0859375-2.8413086-.2255859-5.8164063-.9316406-8.5869141-1.2929688-8.7635345-1.144516-6.5985413-2.7581787-11.3740234 4.1669922-2.3325195 3.3837891-4.5942383 6.8134766-6.9770508 10.1611328-.0097656.0019531-.0185547.0019531-.027832.0048828-11.84375 3.3740234-22.84375 8.90625-34.4204102 12.9804688.0117188.0087891.0239258.0175781.0356445.0263672-.4589844.1289063-.8803711.4433594-1.0830078.9707031-2.6977844 7.0219421-4.2594147 11.0109711-5.4474487 13.2857056-2.121933 4.0628204-3.052124 2.6569672-7.1355591 3.2953491-18.1610107 2.8418427-22.5736847 1.9132156-26.9760666 4.640625-.5289001.3277206-18.2283401 13.2346802-18.331543 13.3183594-9.4707031-.1699219-18.8701172-1.1962891-28.1582031-2.9326172 15.9026184-.5649261 17.2717133-.6417389 20.4511719-1.3505859 3.5804062-.6489716 4.7084198-2.2762985 7.9980469-5.0185547 3.8388672-3.1972656 8.081543-8.2519531 12.550293-10.5703125 9.1162109-3.0126953 18.9321213-4.8398438 28.2939377-7.1054688.8027344.4257813 1.8769531.2949219 2.0878906-.8349609.9057617-4.8476563 2.1064453-9.6289063 3.2036133-14.4355469 10.0322266-3.578125 19.8930664-7.6210938 30.019043-10.9365234.4052734-.1328125.7368164-.4560547.9321289-.8398438zm-147.4995079 100.3125c4.8712502-11.8203888 10.4182816-23.0567932 16.9106445-34.4697266.1005898.0449219 27.3118401 34.0329437 73.5175781 25.7783203-9.2964935 36.9731598-8.613205 36.8560944-11.2431641 44.40625-3.1474609 9.0361328-12.8046875 9.1806641-20.9262695 8.8847656-16.1415176-.5899811-31.497612-5.941803-43.413578-13.3261719-22.5380611-13.9758452-19.537344-19.8899382-14.845211-31.2734374zm3.6918945-44.4570312c-26.781744-15.7379761-15.2231503-43.2306519 30.3710976-31.1533203 13.3852539 3.5458984 26.4536133 8.0371094 39.0478516 13.796875-.1086349.0997696-4.5128326 4.0331726-4.6206055 4.1289063-7.9077148-3.0419922-16.0859375-5.5039063-24.3935547-7.1826172-20.6100044-4.1647873-26.8300056 6.8542328-21.8901405 14.7001953 3.9887695 6.3339844 13.2153358 9.09375 19.8535194 11.5263672 17.8203125 6.5283203 37.3383789 9.6884766 56.2460861 10.9492188 7.6811523 4.9511719 15.3911133 9.9111328 23.1274414 14.8808594-30.8865661-2.0470735-86.03759-13.0227815-117.7416954-31.6464845zm232.8545036 94.5810547c-7.2844543 3.3690796-23.1381531 6.4194489-31.6777496 7.3515625-1.9301758.2109375-6.659668 1.1542969-8.0693359-.4023438-2.7250977-3.0078125 2.8291016-4.1425781 5.0854492-4.3300781.0151367-.0009766.027832-.0058594.0424805-.0078125 1.2080078.3691406 2.3911133.7138672 3.5351563 1.0341797 1.8623047.5195313 2.6572266-2.3740234.7978516-2.8935547-9.7060699-2.7128754-24.5171967-9.7131805-26.9140625-11.4375-6.5712891-4.7275391-11.2070313-13.8271484-10.4077148-21.9589844 3.5878906 2.2675781 7.1762695 4.5449219 10.7626953 6.7998047-.3798828.8427734-.8007813 1.6542969-1.2480469 2.4140625-.980957 1.6679688 1.6113281 3.1796875 2.590332 1.5146484 6.3536224-10.8000183 3.1577301-15.590683-.6054688-23.7041016-2.5239258-5.4414063-7.8486328-12.6044922-5.6196289-18.7480469.8344727-2.2998047 3.3598633-4.3300781 5.9775391-2.9628906 1.1594391.6055908 4.9664001 9.8750763 5.6660156 12.0166016.597168 1.8271484 3.4951172 1.0449219 2.8930664-.7978516-1.1577148-3.5419922-2.7607422-8.9755859-5.4833984-12.3808594 2.2275848-3.2194214 4.4305725-3.7524261 6.7680664-2.6132813 2.6804962 1.307373 2.8763885 3.8880005 7.9848633 15.3398438.784668 1.7597656 3.3706055.2353516 2.590332-1.5146484-2.8218842-6.3237915-4.4828796-10.9425659-5.7592773-13.1015625 1.7973633-5.6650391 8.3066406-1.2666016 10.2441406 1.8720703 1.7670898 2.8613281 2.8496094 6.1699219 3.9501953 9.3271484.6313477 1.8115234 3.5302734 1.0332031 2.8925781-.796875-.6689453-1.9208984-1.3603516-4.0429688-2.2177734-6.1074219.117218-.3482208-.2251587-8.2033844 5.7597656-4.0917969 2.5205078 1.7324219 4.4140625 4.3203125 5.9794922 6.8994141 12.9586029 21.3541107 12.5535126 44.3883667 4.6748199 59.8603516-.8745117 1.7167969 1.7128906 3.2373047 2.590332 1.5146484.3842773-.7548828.7412109-1.5205078 1.0864258-2.2910156.9487305-.1355286 5.4118042-1.4950714 8.2260742-.3691406 3.6303711 1.4531251-.0112305 3.6015626-2.0952149 4.5654298z"/><path d="m275.1166382 231.7141876c-.4399414-1.8789063-3.3330078-1.0839844-2.8925781.796875 1.7319336 7.3955078 3.6000977 14.4785156 4.4716797 22.0263672.21875 1.8955231 3.2216797 1.9170074 3 0-.9038086-7.8271484-2.7822266-15.1523437-4.5791016-22.8232422z"/></g></g></svg>