<svg id="Layer_1" enable-background="new 0 0 300 300" height="512" viewBox="0 0 300 300" width="512" xmlns="http://www.w3.org/2000/svg"><g id="New"><g><path d="m36.3306046 250.3400726c74.5527267 10.4663849 88.2823715 3.423996 147.4848633-15.8964844l.0791016-.1767578c2.1040039-4.7236328 4.3728027-14.7402344 4.7487793-20.6269531.6606445-1.2607422.8630371-2.6464844.3508301-4.1601563-1.8649902-5.512207-11.7324219-6.6435547-16.331543-7.3710938-11.328125-1.7924805-22.8974609-1.9472656-34.3657227-1.6801758.036377-.9628906.0634766-1.9389648.0678711-2.8017578.079834-.0585938.1564941-.1210938.2368164-.1791992.0449219-.0322266.0786133-.0698242.1181641-.1044922.8286133-.3901367 1.3666992-1.5664063.5639648-2.4716797-1.487793-1.6787109-2.9753418-3.3569336-4.4628906-5.0351563 1.0214844-1.5136719 1.5056152-2.6464844 2.5129395-4.5976563.5551758-1.0756836.9567871-2.1494141 1.6586914-3.3813477-.2880859-.5400391-.6694336-1.3867188-1.0888672-2.1025391.098877-.5410156-.0793457-1.1235352-.6896973-1.4897461-2.269043-1.3598633-4.6181641-2.546875-7.0407715-3.5834961.2182617-.902832.3820801-1.8178711.6516113-3.0698242.2397461-1.1132813.3391113-2.1860352.6743164-3.4775391-.472168-.4916992-1.1694336-1.3364258-1.8310547-1.9057617-.0002441-.0141602-.0029297-.027832-.003418-.0419922.0009766-.003418.0019531-.0073242.0029297-.0112305.4042969-1.5126953-1.4169922-2.3212891-2.3886642-1.5825195-2.7941895-.1899414-5.5908203-.3095703-8.390625-.362793-1.244873-3.2666016-2.4897461-6.5336914-3.7346191-9.8007813-.5070801-1.3305664-2.2446289-1.2387695-2.8139648-.3583984-2.5498047 1.1489258-5.0998535 2.2973633-7.6496582 3.4458008-5.0270462-3.3162689-6.2271118-5.4404144-7.1074219-5.7255859-.5305176-.4208984-1.284668-.5073242-1.869873.1513672-1.8476563 2.0791016-3.5371094 4.2832031-5.0783691 6.5942383-2.2612305-.8393555-4.5224609-1.6787109-6.7836914-2.5175781-.6560059-.4990234-1.6484375-.53125-2.1367188.40625-.7836914 1.5063477-1.3867188 3.0366211-2.0651855 4.5878906-.3244629.7416992-.2180176 1.6103516.5380859 2.0522461.6357422.3720703 1.7258301.2080078 2.0522461-.5380859 1.6582642-3.7900238.6531448-1.8160706 1.4450684-3.3813477 2.0898438.7753906 4.1799316 1.5512695 6.2695313 2.3271484.6159668.652832 1.8171387.824707 2.442627-.1669922 1.3693848-2.1713867 2.8825684-4.2255859 4.5339355-6.1821289 2.2019043 2.1235352 4.6069336 4.0112305 7.2131348 5.6225586.8618164.5332031 1.6811523.0742188 2.0354004-.6279297 2.2607422-1.0185547 4.5212402-2.0366211 6.7819824-3.0551758 1.1005859 2.8886719 2.201416 5.7773438 3.302002 8.6660156.0029297.0078125.0075684.0136719.0107422.0214844.0290527.7260742.5070801 1.4360352 1.4428711 1.4472656 2.8498535.0341797 5.6950684.1586914 8.5383301.3349609-.5175781 2.3657227-.8591309 4.7592773-1.0292969 7.184082-.0500488.7099609.3269043 1.1547852.8283691 1.3408203.1584473.1801758.3625488.3339844.6308594.434082 2.6506271.9912109 5.1877365 2.1977539 7.6450119 3.5820313-1.4086914 2.4169922-2.9187012 4.7734375-4.2878418 7.2143555-.3012695.5371094-.2419434 1.0556641.0070801 1.4599609.0600586.2041016.1665039.40625.3352051.5966797 1.8708496 2.1108398 3.7416992 4.2216797 5.6125488 6.3325195-1.5993652 1.2250977-3.1196289 2.5415039-4.5388184 3.9775391-.609375.6166992-.5163574 1.3813477-.1086426 1.9160156.6547852 2.9116211.996582 5.8354492 1.0593262 8.8110352-2.1264648.6982422-4.2788086 1.293457-6.4614182 1.7875977-.7636719-.4272461-1.916748-.265625-2.2634277.8208008-.8647461 2.7109375-1.5270996 5.4609375-2.0126953 8.2573242-2.4946289-.2006836-4.989502-.4018555-7.484375-.6030273-.8450699-.0675812-1.748909.9846954-1.8276367 1.0991211-1.4526367 2.1162109-2.9052734 4.2324219-4.3581543 6.3486328-1.020752-.4155273-2.0444336-.8227539-3.0517578-1.2729492-.7390137-.3305664-1.6123047-.2143555-2.0522461.5380859-.3745117.6401367-.2050781 1.7202148.5380859 2.0522461 1.513916.6762695 3.0715332 1.2358398 4.5844727 1.9121094.6594238.2949219 1.423584.2304688 1.8937988-.3208008h3.0930176c3.539772-5.2273407 3.5372314-5.1918182 4.5427246-7.0854492 1.4770508.1191406 2.9541016.237793 4.4311523.3569336.6396484.527832 1.628418.5922852 2.090332-.0634766.9279785-.2744141 1.855957-.5483398 2.7841797-.8222656 2.2343826-7.0180664 1.8997574-5.9302673 2.5353928-8.9741211 1.635498-.4370117 3.2565918-.9257813 4.8618164-1.4804688.5569153-.1925812 1.0681458-.7709198 1.1574707-1.3393555.9777832-.6118164 2.1105957-1.5048828 2.9453125-1.8569336.1179199-2.487793-.3115234-3.737793-.1936035-6.2255859.0009766-.0214844.0021973-.0493164.003418-.0712891 8.1640625-.1762695 16.3371582-.1147461 24.480957.5239258 6.6696777.5229492 15.3520508.8564453 21.2895508 4.449707 7.3395996 4.440918-7.9697266 10.3452148-11.6699219 11.7250977-29.1051483 10.8495331-90.282608 18.803421-130.8444824 15.0703125-3.876709-.6298828-7.6335449-1.3710938-11.2512226-2.2275391-1.1630859-.4135742-2.284668-.887207-3.338623-1.4487305-8.9020996-4.7460938 5.2424335-10.1342773 9.1899433-11.6865234 9.2949219-3.6542969 19.0825195-6.0004883 28.845459-8.0683594-.0981445.7397461-.1965332 1.4794922-.2946777 2.2192383-.3339844.8725586.1098633 2.0996094 1.3369141 2.1391602 3.083252.0991211 6.1315918.409668 9.1679688.956543 1.8876953.340332 2.6977539-2.550293.7976074-2.8925781-2.7172852-.4897461-5.4489746-.8115234-8.2001953-.9736328 1.6335831-12.2955322 1.2013245-9.0494232 1.2756348-9.6088867.0048828-.0371094.0007324-.0683594.003418-.1040039.1005859-.4287109.0039063-.9013672-.4140625-1.3046875-2.0617676-1.9907227-4.3806152-3.6420898-6.9121094-4.9526367 1.4477539-2.2626953 3.0244141-4.4267578 4.7536621-6.4853516.6237793-.3911133 1.0563965-1.1923828.6914063-2.0517578-1.0761719-2.5336914-2.1523438-5.0673828-3.2282715-7.6010742 2.3916016-.7006836 4.782959-1.4018555 7.1745605-2.1025391.9162598-.2685547 1.1835938-1.1147461.9956055-1.8344727.1487961-.5182343.1766205-.0225372-1.736084-9.1860352 2.984375-.090332 5.9621582.0327148 8.9277344.4418945 1.8881836.2602539 2.7045898-2.6298828.7976074-2.8930664-3.7990723-.5239258-7.5744629-.7114258-11.4060059-.4882813-1.1220703.0654297-1.5874023 1.1166992-1.3979492 1.9580078-.1549225.5262756-.1740799.055603 1.7910156 9.4697266-2.2089844.6474609-4.4177246 1.2949219-6.626709 1.9423828-.5617676-.2553711-1.2751465.0078125-1.7087402.5317383-1.2072754.6044922-.8952637 2.4145508.2177734 2.7788086 1.0300293 2.425293 2.0600586 4.8500977 3.0898438 7.2749023-1.9750977 2.3798828-3.7944336 4.8759766-5.4257813 7.5058594-.0678711.109375-.1176758.2177734-.1550293.324707-.670166.6474609-.8178711 1.7861328.2526855 2.2641602 2.6928711 1.2016602 5.1159668 2.7939453 7.2797852 4.7797852-.2099609 1.5810547-.4196777 3.1621094-.6296387 4.7431641-10.9396973 2.2910156-21.9816895 4.8681641-32.296875 9.2348633-4.0214863 1.7026367-10.9663105 4.3520508-12.2868671 9.168457-.7045898 2.5693359.3293457 4.597168 2.5004883 6.1982422 3.1934295 4.696854 5.7384467 7.3459171 13.1298843 17.1103519z"/><path d="m75.5161514 225.9943695c.205986 1.0255127 1.7976913 1.601944 2.6064453.5004883 2.9716797-.0703125 5.9057617-.4301758 8.8046875-1.0708008 1.2033691 2.2739258 2.4707031 4.5102539 3.8288574 6.6972656.5463943.880127 1.8913803.8694916 2.5036621.5112305 2.8041992-1.6416016 5.4943848-3.4472656 8.0756836-5.4208984 1.5129395-1.1572266.0202637-3.7641602-1.5141602-2.590332-2.2929688 1.7529297-4.6772461 3.3662109-7.145752 4.8569336-1.1628418-1.9223633-2.2729492-3.8735352-3.3178711-5.8632813-.0786133-.8417969-.7924805-1.6567383-1.8562012-1.3876953-2.8403702.7184296-6.1489334 1.2047882-9.4265137 1.2695313-.0974121-.7709961-.2583008-1.5317383-.411377-2.293457-.1599121-.7949219-1.1035156-1.2514648-1.8452148-1.0478516-.8276367.2275391-1.2080078 1.0483398-1.0476074 1.8452148.0208284.1035919.5874025 3.2089843.7453615 3.9936523z"/><path d="m42.6506729 173.5436859c.0515137.0249023.1003418.0546875.1518555.0805664.5524902 1.4199219.9467773 3.0932617 1.5314941 4.4624023 4.4970703 2.3286133 7.168457 5.8369141 9.769043 10.0800781.0996094.3359375.1953125.671875.2800293 1.0073242.213623.8442383 1.4328613.6259766 1.4731445-.199707.3415527-6.965332 2.9257813-13.090332 7.53125-18.3183594.3081589-.3504486.235775-.9186554-.1518555-1.1782227-5.7590332-3.8486328-9.692627-9.1245117-11.7600098-15.7314453-.2475586-.7919922-1.4785156-.6689453-1.4731445.1992188.045166 7.09375-2.519043 13.3852539-7.5036621 18.4199219-.3176269.3212891-.2910156.9638672.1518555 1.1782227zm8.670166-16.0141601c2.2612305 5.1523438 5.7695313 9.4248047 10.4599609 12.7353516-3.7290039 4.4438477-6.1069336 9.4785156-7.0192871 15.0878906-1.887413-4.9929504-7.1098785-11.9821625-10.4785156-12.4775391-.1804199-.1611328-.2966309-.2866211-.3044434-.3510742.07296.5979461 6.2882462-5.193161 7.3422852-14.9946289z"/><path d="m30.3769894 154.1193695c.1550293.0751953.295166.1748047.4455566.2573242.0881348.6894531.1376953 1.2792969.2270508 2.2172852 1.929121 1.4258118 2.8576794 3.4127045 6.1572285 6.6513672.2687988.7626953 1.3986816.543457 1.4453125-.2592773.2365723-4.0825195 1.6933594-7.5371094 4.3666992-10.6230469.3042068-.3507843.2306061-.9166107-.1518555-1.1782227-3.3588867-2.2958984-5.5595703-5.2475586-6.8181152-9.1259766-.2563477-.7905273-1.4677734-.6699219-1.4731445.199707-.026123 4.1850586-1.4428711 7.6708984-4.3505878 10.6831055-.3125001.3237305-.294922.9619141.1518554 1.1777344zm5.4121112-8.7675781c1.3203125 2.6264648 3.1867676 4.8027344 5.6315918 6.6181641-1.9248047 2.3979492-3.2148438 5-3.8444824 7.9038086-1.2236328-2.6713867-3.1452637-5.109375-5.6521015-6.5932617 2.0397968-2.3378907 3.3349629-4.9765626 3.8649921-7.928711z"/><path d="m67.7659073 152.7560883c1.6789551.9589844 3.1921387-1.6318359 1.5141602-2.590332-6.0551758-3.4594727-.5703125-12.3759766-.5136719-17.5151367.0456543-4.1459961-1.4135742-7.9375076-3.8891602-11.2153397-1.1491699-1.5214844-3.755127-.027832-2.590332 1.5141602 2.3112793 3.0605469 3.6789551 6.5673904 3.4716797 10.4550858-.185791 3.487793-1.9509277 6.6835938-2.2614746 10.1523438-.3383789 3.7851561.8935546 7.2709959 4.2687988 9.1992186z"/><path d="m83.9119034 132.6691742c-.338623 3.784668.8935547 7.2705078 4.2687988 9.1992188 1.6789551.9589844 3.1921387-1.6318359 1.5141602-2.5908203-6.0551758-3.4589844-.5703125-12.3754959-.5136719-17.5151443.0456543-4.1455078-1.4135742-7.9370117-3.8891602-11.2148438-1.1491699-1.5214844-3.7553711-.0283203-2.590332 1.5141602 2.3112793 3.0605469 3.6789551 6.5668945 3.4716797 10.4550781-.1860352 3.4873046-1.9511719 6.6836013-2.2614746 10.1523513z"/><path d="m104.577919 138.7165375c-.338623 3.784668.8935547 7.2705078 4.2687988 9.1992188 1.6789551.9589844 3.1921387-1.6318359 1.5141602-2.590332-6.0551758-3.4599609-.5703125-12.3759766-.5136719-17.5156326.0456543-4.1455078-1.4135742-7.9370117-3.8891602-11.2148438-1.1491699-1.5214844-3.7553711-.0283203-2.590332 1.5141602 2.3112793 3.0605469 3.6789551 6.5668945 3.4716797 10.4550858-.1860351 3.4873045-1.9511719 6.6835936-2.2614746 10.1523436z"/><path d="m279.4424133 188.4543304c-1.6550903-4.4405518-11.9251709-31.9963379-13.2807617-35.6328125-.7973633-2.1401367-1.2841797-4.4970703-2.9736328-6.0942383-2.8369141-2.6826172-6.6386719-4.5209961-9.8793945-6.6523438-1.1381836-.7485352-2.269043-1.7133789-3.4484863-2.6088867-1.3630371-7.9399414-5.8886719-16.0268631-9.6608887-21.9843826-9.574707-15.1210938-22.4396973-28.9047852-37.1186523-39.2509766.9245605-.6669922 1.6618652-1.5854492 1.9885254-2.71875.9091797-3.1552734-1.8725586-6.5195313-3.6662598-8.7832031-5.1354675-6.4824791-11.4829407-5.1373215-13.237793-1.2148438-33.3690643-27.7458801-79.376915-23.2816925-106.666008 4.6191406-4.508522 2.0664063-1.2226868 8.3626633 1.1787109 12.6293945 13.5508957 24.0779495 64.6388779 76.4998245 95.9533615 97.4848709 3.5380859 2.3710938 12.8459473 9.6816406 17.8081055 6.6577148 7.4413757-2.6386261 16.9089661-20.2017059 19.1789551-27.7553711 4.0498047-13.4760742 6.1708984-27.7094727 4.4394531-41.674324-2.1973419-17.7178726-11.6601868-28.20755-16.5673828-35.2651367 12.4140625 9.1474609 23.3427734 20.8618164 31.9716797 33.5219727 3.6547852 5.3618164 9.0014648 13.6147461 11.095459 21.7158279-.5966797-.246582-1.2131348-.4282227-1.8562012-.5126953-2.984375-.3930664-4.9604492 1.859375-6.3398438 4.6855469-3.3066406 1.8549805-6.6135254 3.7104492-9.920166 5.5654297-1.2785645 5.6982422-2.8928223 11.3686523-4.1713867 17.0668945.7532043 1.9649658 11.5056458 29.9825897 14.6271973 37.6157227 2.6933594.269043 5.4345703.4277344 8.0654297.4838867.2043457.7124023.8466797 1.2543945 1.744873.9223633 9.895752-3.6586914 19.791748-7.3168945 29.6872559-10.9755859.7080078-.2617187 1.3505859-1.033203 1.0478515-1.8452148zm-84.5581054-125.0434646c2.6248932.6187515 5.2758942 4.3154297 6.5603027 6.6157227.8620605 1.5443344 1.3306885 3.5876312-2.3410645 4.4296875-2.5773926-3.1020508-5.3652344-6.0039063-8.3359375-8.6875-.0380859-2.100586 2.2485352-2.7978516 4.1166993-2.3579102zm-25.9941407-8.8344727c25.3464355 11.831543 42.5085449 36.6269531 46.0021973 63.9711914 1.2610931 17.2016678-2.1996155 33.9964981-7.1442871 44.3007889-2.6901855 4.9482422-6.8837891 9.6894531-10.5205078 14.3813477-1.1503906-2.9038086-3.1159668-5.762207-4.2109375-7.5126953-21.6025086-34.5282288-89.0437927-97.3482895-107.0473557-101.7539139 21.914795-20.4125977 55.5869065-26.1455078 82.9208908-13.3867188zm78.4140625 84.8515702c.2109375 1.8994141.1911621 3.7617188-.1286621 5.5458984-2.736084.0112305-5.3066406 2.0981445-5.6618652 4.8740234-.3718262 2.9086914 1.7456055 5.8178711 4.6411133 6.3208008 2.8862305.5009766 5.8686523-1.5600586 6.480957-4.4135742.5102539-2.3769531-.7299805-4.7324219-2.7009277-5.9672852.2556152-1.3852539.3562012-2.8032227.328125-4.2392578.536377.4116211 1.0529785.8022461 1.5319824 1.1166992 2.8242188 1.8574219 7.1669922 3.6069336 9.3525391 6.2182617 1.3095703 1.5654297 1.8603516 4.034668 2.5996094 6.0180664 5.0174561 13.4633636 10.9533691 29.389267 12.324707 33.0688477-8.9316406 3.3022461-17.8637695 6.6044922-26.7954102 9.9067383-1.7401276-4.7823334-8.3454742-22.9334412-11.0957031-30.4912109-.8112793-2.2294922-2.6848145-5.3647461-2.822998-7.7573242-.1223145-2.1186523 1.3632813-5.3168945 1.9978027-7.4824219 1.1645508-3.9736328 2.1728516-8.1738281 4.2426758-11.7905273 1.5153808-2.647461 3.6149902-2.1865235 5.7060546-.9277344zm2.4375 11.4980468c-.1555176 1.4121094-1.7016602 2.5161133-3.0820313 2.2802734 1.0371094-1.3598633 1.8278809-2.7919922 2.3964844-4.2802734.4814454.5361328.7700196 1.2309571.6855469 2zm-5.229248-.8740234c.2077637-.9560547.8867188-1.5766602 1.713623-1.8706055-.4328613 1.012207-1 1.9833984-1.6977539 2.9106445-.0786133-.3422851-.0905761-.696289-.0158691-1.040039z"/><path d="m115.8230362 65.477272c12.0505371-4.4541016 24.707756-5.9072266 37.337883-3.1977539 1.8825684.4038086 2.6872559-2.4873047.7976074-2.8930664-13.1459961-2.8198242-26.3686447-1.4458008-38.9328537 3.1982422-1.7956543.6635742-1.019043 3.5639649.7973633 2.8925781z"/><path d="m163.7043762 65.7707291c2.6442871.8320313 5.0498047 2.0996094 7.2661133 3.7612305 1.545166 1.1586914 3.0422363-1.4448242 1.5141602-2.590332-2.4189453-1.8134766-5.1003418-3.1567383-7.982666-4.0639648-1.8457032-.5810548-2.6357422 2.314453-.7976075 2.8930663z"/></g></g></svg>