<svg id="Layer_1" enable-background="new 0 0 300 300" height="512" viewBox="0 0 300 300" width="512" xmlns="http://www.w3.org/2000/svg"><g id="New_Arrivals"><g><path d="m157.4161835 84.460907c-.7036133 1.7988281 2.1962891 2.5786133 2.8930664.7978516 5.8505859-14.953125 3.0395508-32.3549805-7.4418945-44.5488281-1.2607422-1.4663086-3.3745117.6635742-2.121582 2.1210938 9.8217773 11.4262694 12.1186523 27.7065428 6.6704101 41.6298827z"/><path d="m154.611496 91.1586609c-.1206055 0-.2412109 0-.3618164 0-.784668 0-1.5366211.6899414-1.5 1.5.0361328.8129883.6586914 1.5 1.5 1.5h.3618164c.784668 0 1.5361328-.6899414 1.5-1.5-.0366211-.8125-.6591797-1.5-1.5-1.5z"/><path d="m194.8780975 225.3158875c.3291016 3.2119141.8017578 5.769043 1.5439453 9.1098633 1.0859375 4.8867188 2.4448242 8.1484375 3.2578125 10.1811523.5429688 1.3574219 22.2626953 14.5249023 33.394043 20.2265625 1.2558594-.5429688 3.0888672-1.3740234 4.5517578-2.0200195.7485352.1616211 1.5493164-.2895508 1.7709961-1.0585938 2.7231445-9.4511719 7.3881836-17.6928711 14.5512695-24.4790039.9140625-.8662109.3310547-2.0605469-.5722656-2.4267578-13.2108154-7.7573547-17.1641541-10.0789948-30.5209961-17.9223633-3.5683594-2.0952148-4.4960938-2.0766602-9.0673828-1.7275391-1.949707.1489258-4.6499023.1923828-7.4287109.4365234.4824219-7.5927734-2.1977539-15.1132813-7.6103516-20.5820313-2.3642578-2.3886719-6.4379883-5.3110352-10.2446289-5.8295898-1.7879944-1.2702789-53.0573273-14.5869751-62.2749023-16.9355469-.5791016-4.4067383-1.2553711-8.8085938-1.2397461-13.2509766.0448685-12.5696716 13.7345428-13.5355072 14.2431641-29.6567383 3.4575195-.2470703 7.4995117-1.237793 7.7246094-4.6079102.1298828-1.9501953-.8725586-3.0898438-2.3300781-3.7709961 2.1870117-.8305664 4.269043-2.2436523 6.3623047-3.6352539 12.4324951-8.2658463 21.948822-21.2724915 25.1655273-37.730957 4.2304688-16.2197266 1.3974609-35.1416016-10.8510742-47.1464844-11.4213867-11.1943359-29.527832-14.9765625-44.0698242-7.831543-15.3676758 7.550293-24.3144531 25.8251953-22.9897461 42.5869141 1.6889648 21.375 19.2910156 38.7939453 34.9370117 52.0654297-2.3798828.0244141-4.6411133.762207-5.2680664 3.3417969-1.0534286 4.3335648 3.8238068 6.6719818 8.2822266 6.7924805-.3284912 7.1953888-3.0230713 9.9465485-7.4770508 14.8632813-7.8967896 8.7159424-7.5777588 12.2431641-5.5786133 27.1933594-1.2490234-.3173828-2.4970703-.6391602-3.746582-.9555664-4.1816406-1.0576172-9.3496094-3.3974609-13.6508789-3.3886719-1.1442337.0023193-44.3238983 16.2776337-53.9702187 20.5615234-.4672852.2075195-.7431641.8125-.7431641 1.2949219 0 .1000824 1.5091553 48.5883636.9824219 49.1523438-.7807617.8364258-.4355469 2.168457.6621094 2.5073242 13.232914 4.0805664 26.4458046 8.230957 39.6699257 12.3457031.0478516.4428711.0839844.887207.1342773 1.3295898.2143555 1.8969727 3.2172852 1.918457 3 0-.0136719-.121582-.0234375-.2436523-.0371094-.3652344 7.253418 2.253418 14.5117188 4.4907227 21.7788086 6.6987305-35.8686523.4448242-71.6269531 3.6455078-71.6269531 9.1186523 0 5.9628906 41.4033241 9.1796875 80.3603516 9.1796875 38.9609375 0 80.3691406-3.2167969 80.3691406-9.1796875 0-6.0058594-39.7197266-8.1162109-53.7148438-8.6733398 3.8725586-2.6660156 7.737793-5.3422852 11.5932617-8.0327148.3925781 1.6147461 3.0629883 1.5283203 2.9526367-.296875-.0341797-.5644531-.0766602-1.128418-.1118164-1.6928711 6.5180664-4.5625 13.0166016-9.1533203 19.4926758-13.7758789 2.0771484-1.4824219 2.2719727-1.5581055 2.3598633-4.1611328.1034851-3.0650635.1074371-4.5076752.2563477-16.262207 1.6308594 1.6352539 3.4350586 3.0756836 5.3798828 4.2983398-.2626954 1.2231446-.0820313 2.6381837.3486327 4.1123048zm-55.7177734-99.006836c-.0922852-1.1694336-.2563477-2.3193359-.484375-3.4321289 1.8510742.0141602 4.2797852.1118164 4.7446289.9492188.9970703 1.7958984-2.0083008 2.3159179-4.2602539 2.4829101zm-35.6523438-48.6850586c-5.5415039-15.7304688-.8720703-34.2338867 11.6884766-45.3085938 12.2641602-10.8134766 30.4580078-10.6616211 43.5771484-1.4023438 15.0595703 10.628418 18.9243164 31.065918 14.4477539 48.0859375-4.8232422 18.3359375-19.1757813 32.1538086-36.0415039 39.8535156-1.3957366-2.0573348-25.9073333-19.1862792-33.671875-41.2285155zm27.8530274 47.3085938c.3457031-.8608398.6914063-1.7211914 1.0371094-2.5820313 1.112442-.0892029 2.0743408-.0150299 3.1147461.1582031.3149414 1.2612305.5288086 2.5717773.6333008 3.9023438-1.666504-.015625-4.4848633-.2275391-4.7851563-1.4785156zm84.9487305 93.0913086c2.7294922-.3300781 3.9628906.8662109 6.4462891 2.3242188 4.723114 2.7739563 21.1808472 12.4380188 27.6298828 16.2250977-6.2602539 6.3916016-10.590332 13.9990234-13.3125 22.5112305-13.8718262-8.2912292-18.8927307-11.2918243-25.3310547-15.1396484-1.9853516-1.1870117-4.9916992-2.3256836-6.6430664-3.9707031-1.1420898-1.1381836-1.8476563-3.421875-2.5234375-4.9233398-1.4477539-3.2158203-2.8408203-6.5073242-4.2290039-9.7485352-.3764648-.878418-.5053711-1.6254883-.4472656-2.265625 1.1855469.5522461 2.4067383 1.0361328 3.6630859 1.4360352-.6580658 1.9404297.4868317 4.5350037 2.8232422 5.2983398 2.0209961.6611328 4.0742188-.550293 4.8696289-2.4291992.7885742-1.8618164.190918-4.0327148-1.6074219-5.0512695-1.6550293-.9376984-3.988266-.7106018-5.3188477.8300781-1.3139648-.4150391-2.6079102-.9248047-3.8662109-1.5273438 2.1504974-2.8639528 9.5998077-2.5717775 17.8466797-3.5693361zm-11.9116211 7.415039c.0146484-.0625.0166016-.1210938.0239258-.1811523.0073242-.0073242.0146484-.0126953.0219727-.0205078.0537109.0117188.105957.0263672.1601563.0375977.440918.0922852.7558594-.1787109.8774414-.5102539.684082-.0219727 1.3310547.4116211 1.0737305 1.2670898-.4555666 1.5141601-2.4853517.8134765-2.1572267-.5927735zm-22.0600586-30.1386718c1.4482422-.8105469 2.894043-1.6254883 4.3457031-2.4301758-.2256012 4.0218048-.1896973-3.6418152-.4560547 18.1958008-3.9906769-6.0042573-4.7429199-12.6433259-3.8896484-15.765625zm.8085937-4.5908204c-.4284973.3850403-.8296204.8367157-1.1787109 1.3603516-6.1977539 3.4589844-12.3701172 6.9619141-18.4931641 10.5488281-.1489258-.1352539-.3349609-.2470703-.5610352-.3232422-11.7431641-3.9472656-23.4858398-7.8950195-35.2290039-11.8422852 4.6352539-1.8295898 9.2749023-3.6469727 13.9316406-5.421875 1.7861328-.6806641 1.0112305-3.5820313-.7973633-2.8925781-4.8398438 1.8447266-9.6616211 3.7353516-14.4790039 5.6381836.8276367-2.8349609.7734375-5.9614258.5830078-8.9199219-.0722656-1.1269531-.1835938-2.2514648-.3071289-3.3754883 40.1489564 10.2501832 56.425995 15.2001801 56.5307618 15.2280274zm-85.2949219 11.4863282c8.3486328-3.215332 16.6611328-6.5214844 24.9765625-9.8198242.3037109.1020508.6313477.0913086.9394531-.0786133 12.1523438 4.0849609 24.3051758 8.1704102 36.4575195 12.2553711-6.1313477 3.628418-12.2265625 7.3173828-18.2514648 11.1240234-14.5473632-5.0253906-29.3339843-9.2558594-44.1220703-13.480957zm45.2192383 61.8325195c-.1206055-15.2080078.328125-30.4155273.1958008-45.6240234 5.8618164-3.7070313 11.793457-7.2978516 17.7568359-10.8349609.878418 14.0249023 2.0253906 28.0307617 2.9199219 42.0546875-6.9321289 4.8383788-13.8862304 9.6450195-20.8725586 14.4042968zm-37.6005859-93.871582c2.7373047-.2124023 6.7094727 1.6625977 9.3886719 2.3378906 2.8964844.7304688 5.7915039 1.4707031 8.6865234 2.2070313.5732422 4.3837891 1.4707031 10.2246094-.7792969 14.0981445-11.7055664-3.9350586-23.4106445-7.8701172-35.1162109-11.8046875 17.6090546-6.4584046 15.7315903-6.6764221 17.8203125-6.8383789zm-22.1645508 8.430664c.3542099.2876434-1.9468842-.5468445 35.6787109 12.1020508-8.3193359 3.3046875-16.6357422 6.6157227-25.0004883 9.8041992-.2583008.0986328-.4570313.246582-.612793.4204102-12.7451172-3.6479492-25.4711914-7.359375-38.0312538-11.6230469 1.467846-1.0827789 27.8650781-10.6669159 27.9658242-10.7036133zm-28.3178749 59.6625977c.0254135-.1528625.2599335-21.7279816-1.0092773-46.2568359 12.4394569 4.2412109 25.0444374 7.9321289 37.6713905 11.5493164-1.2670898 15.3896484-1.1088867 30.8666992.3647461 46.2329102-12.3422852-3.8427735-24.6767578-7.7114259-37.0268593-11.5253907zm39.6025429-33.866211c12.5283203 3.5810547 25.0625 7.1425781 37.4633789 11.1484375-.3710938 7.2060547-.0888672 14.4155273.0053711 21.6259766-5.4254837-6.6944427-4.9533539-8.7046051-6.1782227-8.2983398-.1791992-.0683594-.3876953-.0620117-.6030273.0776367-2.1474609 1.3920898-4.1586914 2.9765625-6.2705078 4.4189453-.0380859-5.9946289.0366211-11.9838867-.2075195-17.9765625-.0390625-.9619141-1.5395508-.9667969-1.5 0 .2602539 6.3974609.1533203 12.7910156.2128906 19.1914063.0063095.6895905.9499893.9537354 1.3515625.6938477 2.34375-1.5195313 4.5209961-3.2729492 6.8496094-4.8134766 1.7358398 3.0927734 3.737793 6.0014648 6.0400391 8.7045898.4867249.5716858 1.8337708.6834412 1.8261719-.2758789-.0605469-7.6245117-.4101563-15.2475586-.0483398-22.8676758 2.2495117.7338867 4.4946289 1.480957 6.7338867 2.2490234.1376953 15.3666992-.3232422 30.7333984-.1933594 46.1000977-15.0336914-4.3828125-30.0058594-8.9731445-44.9604492-13.6220703-1.5332033-15.4033203-1.7402345-30.9213867-.5214845-46.3559571zm87.7797851 32.2524415c-9.2809601 6.6340179-15.4255066 10.8955536-15.5585938 10.9887695-.9130859-13.9282227-2.0532227-27.8413086-2.9013672-41.7739258 5.4799805-3.2211914 10.9960938-6.3798828 16.5380859-9.4946289-.6347656 5.3056641 2.15625 11.6904297 4.6567383 15.5498047.347168.5356445.7143555 1.0537109 1.0913086 1.5634766-.1628571 13.2510529-.4087219 20.8531189.0195313 20.4921875-.6044921.7670898-3.2602538 2.2558593-3.8457031 2.6743164zm6.8061524-21.8461915c.0634766-5.1201172.1254883-10.2407227.2075195-15.3603516.0390625-2.4262695.7358398-5.9384766.1757813-8.3408203 4.3151703.8649597 8.7225647 5.0561523 11.1894531 8.7832031 3.1552734 4.7675781 4.4780273 10.2988281 4.0839844 15.9213867-3.2007294.3789978-7.8846283 1.2839508-9.6889648 3.9501953-2.1816407-1.3945311-4.2006837-3.0624999-5.9677735-4.9536132z"/><path d="m226.2286835 244.2675476c1.0742188 1.5917969 3.6743164.0917969 2.590332-1.5141602-3.7675781-5.5825195-6.9829102-11.4545898-9.6567383-17.6357422-.7646484-1.7670898-3.3496094-.2412109-2.590332 1.5141602 2.6738281 6.1811524 5.8891601 12.0532227 9.6567383 17.6357422z"/><path d="m215.69841 237.9618835c.8071899-.036377 1.5-.6088715 1.5-1.6357422 0-.784668-.6899414-1.5366211-1.5-1.5-.8080139.0359192-1.5.6091003-1.5 1.6357422 0 .784668.6899414 1.5361329 1.5 1.5z"/><path d="m230.3590546 234.7035828c.8129883-.0361328 1.5-.6586914 1.5-1.5 0-2.2095642-3-2.1353302-3 0 0 .7851562.6899414 1.5366211 1.5 1.5z"/></g></g></svg>