<svg id="Layer_1" enable-background="new 0 0 300 300" height="512" viewBox="0 0 300 300" width="512" xmlns="http://www.w3.org/2000/svg"><g id="New_1_"><g><path d="m32.6669693 246.2202301c.1391602.1181641.3410645.1918945.609375.2358398-.3078613 3.6489258.873291 7.3266602 3.2961426 10.2065277 4.6321602 5.5070496 9.1161537 7.6872253 16.3381348 7.9130859 6.3339844.199707 17.3029785-3.2617188 17.2353516-11.238266-.0224609-2.65625-1.0593262-4.8779297-2.6691895-6.6899414 10.158432-.3599701 60.982338.0791779 61.0856857.0810547-.048584 3.3349609 1.128418 6.6342773 3.3432617 9.2675781 4.6145325 5.4852142 10.8990936 8.5277252 17.6765137 8.7397308 6.3339844.199707 17.3029785-3.2617188 17.2353516-11.238266-.0217285-2.5541992-.9758301-4.7104492-2.4802246-6.4838867.104187.0120087 61.1238861.1719208 61.2260742.171875.0605469 3.1782227 1.2287598 6.2978516 3.3422852 8.8105469 4.1026154 4.8769073 9.9118805 8.3385773 17.019043 8.562973 6.3339844.1992188 17.3027344-3.262207 17.2353516-11.2387543-.0205078-2.4262695-.8950195-4.4858398-2.2705078-6.2070313 4.8365784 1.8650665 12.5255127-2.5222931 15.2529297-6.3510742.2041016.0009766.4077148.0019531.6118164.0029297 1.9306641.0083008 1.9331055-2.9916992 0-3-84.503418-.3657227-169.0065918-.7001953-253.5097656-1.065918-1.8193359-.0078125-1.9248047 2.6538086-.3125 2.9677734 2.7530115 2.3364565 7.0581854 4.2803195 9.7348707 6.5532229zm20.2436523 15.3554535c-5.2734375-.152832-13.9382324-4.2568359-12.1506348-10.9721527 1.3322754-5.0043945 8.2624512-7.1347656 12.8266602-7.0083008 5.0400391.2958984 11.1340332 2.3374023 12.8972168 7.7451172 2.3967285 7.3520355-8.1640625 10.3925629-13.5732422 10.2353363zm96.6716233.1601562c-5.2734375-.152832-13.9382324-4.2568359-12.1506348-10.9721527 1.3322754-5.0043945 8.2624512-7.1347656 12.8266602-7.0083008 5.0400391.2958984 11.1340332 2.3374023 12.8972168 7.7451172 2.3967285 7.3520356-8.1640625 10.3925629-13.5732422 10.2353363zm96.3425293-.1767578c-5.2736816-.1533203-13.9382324-4.2568359-12.1506348-10.972641 1.3322754-5.0043945 8.262207-7.1347656 12.8266602-7.0083008 5.0397949.2958984 11.1340332 2.3374023 12.8972168 7.7456055 2.3964843 7.3515473-8.1640625 10.3925629-13.5732422 10.2353363z"/><path d="m165.9052429 95.8081131c3.2441406-1.7954102 4.7727051-5.8227539 3.020752-9.1977539-2.2824707-4.3964844-7.4599609-3.6821289-11.4348145-2.487793-.581543.1748047-.9006348.5825195-1.0080566 1.0415039-2.4372559 1.7895508-2.927002 5.1889648-1.1374512 7.9116211 2.1889649 3.3305664 7.0361328 4.6816406 10.5595703 2.7324219zm-1.5065918-9.4423828c2.4875488.9042969 2.9165039 3.996582 1.2790527 5.855957-1.5400391 1.7485352-4.1791992 1.8769531-6.1293945.7578125-1.8886719-1.0839844-3.7614746-4.6293945-.7944336-5.7163086.359375-.1318359.6118164-.3544922.7775879-.6191406 1.5883789-.4594727 3.3337403-.8359375 4.8671875-.2783203z"/><path d="m96.9423599 182.3530426c1.9306641.0146484 1.9326172-2.9848633 0-3-22.1582031-.1738281-44.3088379.5673828-66.467041.394043-1.9309082-.0151367-1.9326172 2.9848633 0 3 22.1582031.1733398 44.3088379-.5678711 66.467041-.394043z"/><path d="m262.4755554 180.7470856c1.9287109-.0292969 1.934082-3.0297852 0-3-19.6936035.3012695-39.3168945-.0244141-59.0019531-.3657227-1.9311523-.0336914-1.9316406 2.9663086 0 3 19.6850586.3413086 39.3083496.6669922 59.0019531.3657227z"/><path d="m32.2138443 189.4829254c15.7800293 14.0610352 31.2861328 28.4243164 47.065918 42.4848633 1.4372559 1.2807617 3.5664063-.8334961 2.1213379-2.1210938-15.7800293-14.0610352-31.2858887-28.4243164-47.0656738-42.4848633-1.4375001-1.2807617-3.5664082.8334962-2.1215821 2.1210938z"/><path d="m89.3783951 191.8769684c17.1899414 13.019043 34.4174805 25.9838867 51.1618576 39.5761719 1.4863281 1.206543 3.6213379-.9038086 2.1213379-2.121582-16.9431076-13.7529297-34.3749924-26.871582-51.7690353-40.0449219-1.5388184-1.1655274-3.0351563 1.4384765-1.5141602 2.590332z"/><path d="m189.5751648 197.449234c14.027832 11.4033203 27.4382324 23.5141602 40.206543 36.3120117 1.3654785 1.3686523 3.4873047-.7524414 2.1213379-2.121582-12.7683105-12.7973633-26.1787109-24.9086914-40.206543-36.3115234-1.4855957-1.2075196-3.6206055.9023437-2.1213379 2.1210937z"/><path d="m273.6845398 224.9277496c1.25 1.4746094 3.3632813-.65625 2.1210938-2.1210938-9.6870117-11.4257813-20.0961914-22.1938477-30.7971191-32.6679688-1.3808594-1.3515625-3.5039063.7680664-2.1213379 2.121582 10.7011718 10.4741213 21.1098632 21.2416994 30.7973632 32.6674806z"/><path d="m53.3735123 246.8354645c-.0292969-.0024414-.0549316-.0097656-.0854492-.0107422-.0075684 0-.015625.0004883-.0234375.0004883-.0024414-.0004883-.0048828-.0004883-.0073242-.0009766-.0119629-.0004883-.0214844.0019531-.0332031.0014648-3.026123-.0458984-7.0256348 1.7333984-7.2995605 5.1455078-.3071289 3.8261719 3.5925293 6.1909027 6.9672852 6.3437347 3.0991211.1401367 8.1096191-1.6791992 7.9672852-5.507309-.1408694-3.7861327-4.2512209-5.7353514-7.4855959-5.9721678z"/><path d="m150.0451355 246.9956207c-.029541-.0024414-.0549316-.0097656-.0852051-.0107422-.0078125 0-.0158691.0004883-.0234375.0004883-.0024414-.0004883-.005127-.0004883-.0075684-.0009766-.0119629-.0004883-.0217285.0019531-.0334473.0014648-3.0258789-.0458984-7.0253906 1.7333984-7.2993164 5.1455078-.3071289 3.8261719 3.5927734 6.1909027 6.9672852 6.3437347 3.0991211.1401367 8.1098633-1.6791992 7.9672852-5.507309-.140625-3.7861326-4.2514648-5.7353514-7.4855957-5.9721678z"/><path d="m246.3876648 246.8183746c-2.9064331-.2422028-7.1740265 1.7114258-7.4489746 5.1357422-.307373 3.8261719 3.5925293 6.1909027 6.9672852 6.3437347 3.0991211.1401367 8.1096191-1.6791992 7.967041-5.507309-.140625-3.7861327-4.2509766-5.7353515-7.4853516-5.9721679z"/><path d="m154.7597351 210.2988434c42.9298248-5.4861603 54.6749268-68.0036163 49.2407227-75.1621094-.0097656-.4941406-.251709-.8354492-.6015625-1.0224609-.3215332-.2788086-.7646484-.4199219-1.3007813-.277832-1.2409668.3291016-2.9506836.6455078-4.7097168 1.0717773 3.1040955-10.330513 3.5749664-19.190918 2.2194824-27.9194412-.2055664-1.324707-.7556152-2.9243164-1.2458496-4.5136719 1.9143066-1.9780273 3.9938965-4.3173828 5.8527832-6.1743164.2529297-1.6674805.8378906-3.3334961 1.2216797-5.1147461.1445313-.1645508.2954102-.3227539.4382324-.4892578.7272949-.8476563.4802246-2.1743164-.6618652-2.5068359-4.548584-1.324707-9.1293945-2.5039063-13.7456055-3.5463867-.5629883-.9516602-1.1477051-1.8896484-1.7492676-2.8173828 2.5126953-.0302734 5.0246582-.1235352 7.5373535-.2797852.836441-.0519333 2.1238708-1.1992188 1.7905273-2.3383789-6.6821289-22.8051758-23.6459961-46.0439453-50.144043-43.8017578-25.2036057 2.1323242-41.5871506 23.7695313-48.3876877 46.3701172-.3612137 1.1980667.760025 2.4887314 2.0175781 2.1245117.638916.4770508 1.277832.9541016 1.9169922 1.4316406 4.2299805-1.1196289 8.5532227-2.8120117 12.4055176-4.9199219.549202.2993469 3.5679626 1.9222717 4.1867676 2.0219727.4697266.1645508 1.013916.1098633 1.4812012-.328125 3.6413574-3.4125977 7.2824631-6.824707 10.9238205-10.2373047 1.4118652-1.3232422-.7128906-3.4414063-2.1213379-2.121582-3.3806076 3.168457-6.7612228 6.3369141-10.1418381 9.5048828-4.6772461-2.2377472-5.9538727-3.6818619-7.4414063-3.0205078-3.1140137 1.3867188-6.3376465 2.5004883-9.5053711 3.7548828 6.5773926-19.5761719 20.763916-38.2119141 42.2307053-41.2958984-.8820801 2.6181641-1.7644043 5.2358398-2.6464844 7.8540039-.4033203 1.1967773.8083496 2.003418 1.8452148 1.8452148 2.223877-.3393555 4.5244141-1.609375 5.734375 1.0239258.8027344 1.7470703.4291992 5.1928711.5893555 7.128418.095459 1.15625 1.6567383 2.1552734 2.5605469 1.0605469 2.6401367-3.1967773 5.1325684-6.4921875 7.498291-9.8920898 1.8898926 1.1884766 3.7797852 2.3769531 5.6696777 3.5654297.9890137.6220703 2.232666-.1948242 2.2570801-1.2954102.0515137-2.3344727.1032715-4.6694336.1550293-7.0039063 12.6315918 7.1523438 21.168457 21.421875 25.5991211 35.6455078-4.1477051.2158203-8.2939453.2617188-12.4462891.1347656-1.4672852-4.949707-2.7675781-9.9399414-3.8898926-14.9804688-.3061523-1.375-2.041748-1.3222656-2.7414551-.3583984-3.2890625 4.5283203-6.5778809 9.0566406-9.8666992 13.5849609-6.6247253-4.5871811-6.7007599-5.4866943-7.7194824-5.6254883-.2277832-.2011719-.5251465-.3408203-.8964844-.371582-5.3122559-.4443359-10.5910645-1.1733398-15.9035645-1.6176758-1.7456055-.1459961-1.8928223 2.3051758-.4765625 2.8808594.6201172.9287109 1.7080078 1.8730469 2.2607422 2.7241211 6.6933594.3564453 11.8774414 1.4067383 18.3979492 2.578125 1.3942871 1.0371094 2.8122559 2.0424805 4.2602539 3.0073242 1.1445313.7626953 2.2285156-.3271484 2.1904297-1.4047852 2.6020508-3.5830078 5.2043457-7.1655273 7.8066406-10.7485352.6707001 5.0703735 1.1245422 7.602356.9616699 10.3198242.9755859.5019531 1.9511719 1.0043945 2.9267578 1.5068359.2337036.7899628.8320465 1.4484863 1.6455078 1.4785156 1.3200684.0498047 2.6394043.0795898 3.958252.0947266.1079712.2987823.0673676.1554871 1.2099609 1.9443359-.3710938-.0771484-.7397461-.1621094-1.1113281-.2368164-.9545441-.192627-2.0610046.5426254-1.8737793 1.6748047.0060577.136673-.2462463-.8451614 4.7717285 17.6625977.322998 1.1914063 1.6518555 1.328125 2.5070801.6616211 1.1240234-.8759766 2.2426758-1.7597656 3.3513184-2.6557617 3.0279846 9.0235291 3.4320374 21.0526657-1.1347656 35.0747147-4.9215088 1.89151-4.1473999 3.9382019-5.3210449 7.0854492-.4057617 1.0878906-.8193359 2.1748047-1.2475586 3.2553711-4.2546387-4.8554688-8.5610352-9.5629883-12.8125-14.4282227-1.4797363-.1826172-2.9592285-.3647461-4.4387207-.5473633-.2116699-.2314453-.4230957-.4633789-.6347656-.6948242-.4799805-.5258789-1.2263184-.5078125-1.8178711-.234375-3.1987305 1.4785156-6.3977051 2.9575195-9.5966797 4.4365234-3.2746582-4.3442383-6.046875-8.9843826-8.5087891-13.8432693-1.1655273-.7597656-2.3310547-1.5195313-3.496582-2.2792969-.4333801-1.1557159-1.7612305-1.6634598-2.5512695-.7709961-5.8395996 6.5927734-11.6791992 13.1860428-17.5190353 19.7793045-2.0480957-1.722168-4.1118164-3.425293-6.1506348-5.1586914-1.4628906-1.2441406-3.5949707.8681641-2.1213379 2.1210938 2.4421387 2.0766602 4.9257813 4.1030273 7.3679199 6.1796875.5881348.5 1.5495605.6455078 2.1213379 0 5.6284103-6.3544922 11.2565842-12.7089844 16.8850021-19.0634842 2.6184082 6.1665039 6.1003418 11.740242 10.5427246 16.83741.4658203.5341797 1.2373047.5029297 1.8178711.234375 3.8652344-1.7871094 7.730957-3.5742188 11.5961914-5.3613281 5.8457031 6.4013672 11.6914063 12.8022461 17.5368652 19.203125.6228027.6821289 1.9343262.5410156 2.355957-.3032227 1.826416-3.6606445 3.3327637-7.5693359 4.6154785-11.4501953.0922852-.2792969.1833496-.746582.3120117-1.1342773.2568359.1054688 1.4599609-.4765625 1.6994629-.5410156 2.0827637-.5610352 4.1242676-1.2802734 6.1899414-1.9194336-.9929199 7.6494141-2.3972168 15.1850586-4.6501465 22.4008789-.222168.5302734-.4453125 1.0595703-.6750488 1.5859375-.939209.9140625-1.878418 1.828125-2.817627 2.7421875-2.5688477-2.9765625-5.1379395-5.953125-7.7070313-8.9296875-1.0527344-1.2202148-2.7817383.1118164-2.5068359 1.4589844.4458008 2.1865234 1.7392578 8.1010742.3969727 10.3779297-1.3574219 2.3027344-5.609375 1.4467773-7.8269043 1.9008789-1.1481934.2353516-1.3928223 1.7373047-.6618652 2.5073242 1.7753906 1.8691406 3.5510254 3.7387695 5.326416 5.6079102-1.7570801 1.1928711-3.5144043 2.3857422-5.2717285 3.5786133-1.0620117.7207031-.9221191 2.3500977.3583984 2.7412109 2.152832.6582031 4.2089844 1.4355469 6.2456055 2.3369141-9.1464996 11.4990234-21.087616 20.3470612-37.1286621 20.0625-6.5290527-.1157227-12.7126465-1.6870117-18.2663498-4.4262695 2.0036621-1.8676758 4.0073166-3.7353516 6.0112228-5.6030273.8808594-.8212891.3476563-2.1455078-.6621094-2.5068359-2.0744629-.7436523-4.7592697-.762207-4.6440353-3.5996094.0759277-1.8671875 2.1118088-4.8188477 2.8710861-6.5507813.4506836-1.0288086-.3325195-2.7553711-1.6940842-2.2036133-3.8520508 1.5610352-7.6225586 3.2739258-11.3300781 5.1445313-1.0930176-1.9360352-2.1860352-3.8720703-3.2790527-5.8081055-.5515137-.9770508-2.0373535-.9711914-2.590332 0-.8837891 1.5522461-1.7678223 3.1044922-2.6518555 4.6567383-8.9815826-14.5667114-12.9505234-36.9528961-13.3720703-54.8745117 4.2299805 5.0361328 8.2458496 10.2475586 12.2421875 15.4707031 1.0339355 1.3515625 3.2165527.3037109 2.8356934-1.0283203 1.1723633-5.0541992 2.9990234-9.8173828 5.5456543-14.3515625.9462891-1.6850586-1.644043-3.1992264-2.5905762-1.5136719-1.7504883 3.1166992-3.1931152 6.3515625-4.3273926 9.7045898-7.2634277-16.755867-6.8759766-38.009285 5.4836426-52.1440506 1.2658691-1.4477539-.8474121-3.578125-2.1213379-2.1210938-11.9206543 13.6328125-13.5603027 33.1103516-8.1364746 49.9921951-1.7429199-2.7084961-3.5495605-5.3764648-5.4143066-8.0000076-1.3066406-.3740234-2.6132813-.7480469-3.9199219-1.121582-.017067-.0189209-.0774536-.0738373-.2714844-.293457-1.1633301-1.3261719-3.015625.3261719-2.3723145 1.7246094.0532078 45.854576 18.4654087 89.7931746 63.5915455 84.026863zm12.2744141-162.9951248c-1.5458984-.972168-3.0915527-1.9438477-4.637207-2.9160156-.7199707-.4526367-1.6083984-.1147461-2.0522461.5380859-1.7243652 2.534668-3.5249023 4.9990234-5.402832 7.4111328-.0736389-7.6609688-1.854187-8.6658897-7.4106445-7.4223633 2.253479-6.6869202 2.1253815-6.2240257 2.1420898-6.5522461 6.5136719-.4360352 12.3879395.7651367 17.621582 3.1674805-.1850739.3824425-.1382142.1981697-.2607422 5.7739258zm20.953125 39.6523437c4.7365723 1.0112305 9.4350586 2.1689453 14.0993652 3.4750977-3.2429199 3.4628906-6.8691406 6.5253906-10.588623 9.4726563-1.1704102-4.315918-2.3405762-8.631836-3.5107422-12.947754zm-9.553711 94.4726639c1.4150391-.9604492 2.829834-1.9208984 4.2446289-2.8808594.8076172-.5483398 1.0026855-1.6196289.3034668-2.355957-1.4509277-1.527832-2.9018555-3.0556641-4.3527832-4.5830078 2.6057129.0478516 5.1713867.2485352 6.6123047-2.5732422 1.1218262-2.1967773 1.2041016-5.0551758.9228516-7.8291016 1.7602539 2.0400391 3.520752 4.0795898 5.28125 6.1196289.2397461.277832.5820313.4072266.9353027.4243164-2.9775391 5.8289948-6.0903015 10.7959747-9.5627441 15.480957-1.4458008-.6577148-2.9013672-1.258789-4.3842774-1.8027343zm-68.9836349 6.190918c.6928711-1.2163086 1.3857422-2.4331055 2.0783691-3.6499023.8933105 1.5825195 1.7866211 3.1645508 2.6796875 4.746582.4125977.7314453 1.340332.9072266 2.0522461.5380859 2.730957-1.4140625 5.4929199-2.7329102 8.2995605-3.9667969-3.5684204 6.7536163-2.5061417 8.5065765 2.9880371 10.0561523-5.5385284 5.1619263-4.5979996 4.2809296-4.7658691 4.4545898-5.1938476-3.055664-9.7265625-7.192871-13.3320312-12.1787108z"/></g></g></svg>