<svg id="Layer_1" enable-background="new 0 0 300 300" height="512" viewBox="0 0 300 300" width="512" xmlns="http://www.w3.org/2000/svg"><g id="Offer_code"><g><path d="m148.6746826 153.5068817c.0908203.1665039.2626953.2607422.4394531.2607422.0810547 0 .1630859-.0195313.2392578-.0610352.2421875-.1318359.3320313-.4355469.2001953-.6782227l-2.3876953-4.3925781c-.3163757-.5803986-1.1948395-.1049652-.8789063.4765625z"/><path d="m125.1297531 196.4375458c-.3329468-.5704346-1.1974716-.0665131-.8632813.5048828l2.5224609 4.3168945c.3335266.5722504 1.1971893.0658417.8632813-.5039063z"/><path d="m135.2039795 213.7163544c-.3333588-.5722961-1.1971588-.068573-.8652344.5029297 2.5756073 4.249588 2.4184113 4.5727539 2.9433594 4.5727539.3837585 0 .625946-.4174194.4326172-.7509766z"/><path d="m104.9998703 161.8745575c-.3311462-.5748444-1.1968994-.0710754-.8652344.5 2.5604324 4.239502 2.4118958 4.5776367 2.9365234 4.5776367.3814621 0 .6267776-.4161682.4326172-.7504883z"/><path d="m125.1483078 143.8061981c-4.0899658 1.8530121-5.2073212 1.4002838-4.9794922 2.2641602.0595703.2241211.2617188.371582.4833984.371582.0419922 0 .0859375-.0053711.1289063-.0166016 1.6240234-.4321289 3.2324219-1.0068359 4.7792969-1.7080078.6044616-.2741241.1872177-1.1849365-.4121094-.9111328z"/><path d="m120.0838547 187.8032684c-.3349686-.5727234-1.1964874-.0648346-.8632813.5048828 2.577179 4.2255402 2.4315338 4.5649414 2.9550781 4.5649414.3807068 0 .6287079-.4161987.4316406-.7524414z"/><path d="m115.6854172 146.3135223c-1.6411133.1568451-3.2919159.2166138-4.9746094.3364258-.6374359.0452118-.6045456.9985352.0341797.9985352.0911179 0 3.8419647-.2254333 5.0361328-.3398438.6600723-.0634308.5616074-1.0626831-.0957031-.9951172z"/><path d="m110.0135422 170.526413c-.3312378-.5709839-1.1978607-.0707855-.8652344.5019531 2.5769806 4.2459717 2.4236298 4.5712891 2.9462891 4.5712891.3843384 0 .6267548-.4185486.4316406-.7514648z"/><path d="m146.4832764 233.2485809-1.2695313-2.2143555c-.331543-.5755157-1.1960297-.0733337-.8671875.4980469l1.4101563 2.4589844c.1942291.3382721.5730896.2607422 1.1552734.2607422 1.4394531 0 2.8984375-.1118164 4.3378906-.3330078.2724609-.0419922.4599609-.296875.4179688-.5698242-.1350403-.8777466-1.0057068-.0282593-5.1845703-.100586z"/><path d="m115.0428391 179.1675262c-.3342285-.5726318-1.1968536-.0664368-.8632813.5039063 2.598381 4.2696228 2.4276581 4.5668945 2.9511719 4.5668945.3822937 0 .6275253-.4177246.4316406-.7519531z"/><path d="m140.2205811 222.3691864c-.3326874-.576355-1.1960602-.0696106-.8652344.5 2.5427399 4.2199097 2.4031219 4.5800781 2.9326172 4.5800781.3825836 0 .6263275-.4157715.4326172-.75z"/><path d="m153.4744873 162.2827606c.0917969.1655273.2626953.2587891.4384766.2587891.0820313 0 .1650391-.0200195.2412109-.0620117.2421875-.1328125.3300781-.4370117.1972656-.6791992-.8037109-1.4604492-1.6054688-2.9213867-2.4042969-4.3828125-.1328125-.2421875-.4355469-.3305664-.6787109-.1992188-.2421875.1328125-.3310547.4365234-.1982422.6787109.7988282 1.4624024 1.600586 2.9243164 2.4042969 4.3857422z"/><path d="m143.9071045 144.7144012c.3112946.580307 1.1960602.1093903.8789063-.4755859l-2.3730469-4.4003906c-.3179474-.5852356-1.192749-.1049347-.8808594.4746094z"/><path d="m158.3162842 171.0356903c.0908203.1640625.2617188.2568359.4365234.2568359.0830078 0 .1660156-.0200195.2431641-.0629883.2412109-.1342773.328125-.4389648.1933594-.6801758-.8095703-1.4560547-1.6181641-2.9130859-2.4248047-4.3710938-.1337891-.2412109-.4375-.3286133-.6796875-.1953125-.2412109.1337891-.3291016.4379883-.1953125.6796875.8066406 1.4580079 1.6152343 2.9160158 2.4267578 4.373047z"/><path d="m136.6102295 134.7500458c-.4034729.5266113.3939362 1.1334381.7929688.6083984.2890625-.3764648.5712891-.7641602.84375-1.1582031.8731842 1.4586945.8470459 1.9707031 1.3574219 1.9707031.3731995 0 .6208191-.4011078.4404297-.7363281-1.2916565-2.2412872-1.2320862-2.6809845-1.7285156-2.7016602-.4448396-.0363617-.3135988.1994934-1.7060548 2.0170899z"/><path d="m163.2069092 179.7612762c.3211212.5704956 1.1963806.0844879.8710938-.4912109-.8193359-1.4506836-1.6367188-2.902832-2.4501953-4.3564453-.1357422-.2416992-.4414063-.3266602-.6806641-.1914063-.2412109.1347656-.3271484.4394531-.1923828.6806641.8154296 1.4536133 1.6328124 2.9067383 2.4521484 4.3583984z"/><path d="m165.0975342 227.9233856c1.4047546-1.102951 2.5586853-2.2097321 3.7001953-3.480957.4404297-.4905396-.2987518-1.1602478-.7441406-.6679688-1.0978699 1.223114-2.2187958 2.2982788-3.5732422 3.362793-.5230255.4092712.1013946 1.1965485.6171875.7861328z"/><path d="m156.0252686 232.7456512c.4667053 0 3.302124-1.2270813 4.8193359-2.0429688.5827179-.3135986.1108246-1.1937866-.4726563-.8808594-1.4384766.7729492-2.9541016 1.4291992-4.5058594 1.949707-.5342101.1793977-.4049987.9741212.1591798.9741212z"/><path d="m168.1561279 188.4551239c.326004.5662384 1.1979828.0779419.8671875-.4980469-.8291016-1.4443359-1.6552734-2.8911133-2.4804688-4.3393555-.3295593-.5749664-1.1958008-.0788422-.8691406.4951172.8251954 1.4492188 1.6533204 2.8969727 2.4824219 4.3422852z"/><path d="m130.1707764 205.0737762c-.3340759-.5711975-1.1972198-.0670471-.8632813.5039063 2.5810242 4.243515 2.427536 4.5678711 2.9501953 4.5678711.3843079 0 .6267395-.4183502.4316406-.7519531z"/><path d="m172.0428467 220.4893036c.9970703-1.2695313 2.0283203-2.5825195 3.09375-3.7875977.4360809-.4932098-.30896-1.1591492-.75-.6621094-1.0839844 1.2265625-2.1240234 2.5512695-3.1298828 3.8320313.1011657.0794983.8909912.7000732.7861328.6176758z"/><path d="m178.9481201 205.8955536c.2363281-.1416016.3144531-.4487305.171875-.6855469-.8535156-1.4291992-1.7050781-2.8608398-2.5527344-4.2963867-.3388062-.5701294-1.1971588-.0590668-.8613281.5087891 2.5571442 4.3236236 2.6567841 4.8187408 3.2421875 4.4731445z"/><path d="m173.602417 197.3584442c.3849792 0 .6271515-.4188385.4316406-.7524414-.8408203-1.4370117-1.6787109-2.8769531-2.5146484-4.3188477-.1396484-.2402344-.4462891-.3208008-.6835938-.1821289-.2382813.1381836-.3203125.4443359-.1816406.6831055 2.6368408 4.5543976 2.5417023 4.5703125 2.9482422 4.5703125z"/><path d="m180.8807373 210.8311005c-.9550781.4443359-1.8759766 1.0039063-2.8007813 1.7021484-.5309906.3994141.0814819 1.1935577.6015625.7978516 1.0048828-.7573242 1.9990234-1.3398438 3.0419922-1.7797852.2765808-.1166229.3853607-.4451447.2431641-.703125-.0744629-.134201-.1208496-.2172394-.3515625-1.1606445-.1669464-.6430817-1.1347198-.3858948-.9667969.2519531.0964051.3951263.1546631.647583.2324219.8916016z"/><path d="m100.0106125 153.2100067c-.3292465-.575592-1.1964722-.0751038-.8671875.4970703l2.4912109 4.3359375c.3270416.5662994 1.1978073.0754547.8671875-.4990234z"/><path d="m105.9178391 148.3218231c.6373749-.1570129.4117279-1.1243591-.2382813-.9716797-1.8261719.4467773-3.4228516 1.1166992-4.7470703 1.9902344-.2304688.1523438-.2939453.4624023-.1416016.6928711.5421067.8242188.947403-.6891479 5.1269532-1.7114258z"/><path d="m129.9989014 142.2563934c1.4101563-.9365234 2.7509766-1.9936523 3.9863281-3.1425781.4818268-.4480896-.192749-1.1825409-.6816406-.7324219-3.283432 3.0554047-4.4924164 2.9907684-3.9970703 3.7353516.1518554.2293396.4630127.2925568.6923828.1396484z"/><path d="m49.1273117 39.3486786c.3364258.668457.7739258 1.199707 1.2836914 1.6230469.6660156.9516602 1.3027344 1.921875 1.9433594 2.8901367-2.7319336 3.3457031-2.3447266 7.6977539.4609375 10.621582-.2470703 1.5429688.0625 3.0761719 1.1196289 4.2988281.6206055.7182617 1.3862305 1.0703125 2.1640625 1.5805664 1.7143555 1.1259766 1.6577148 2.4018555 1.5698242 4.1704102-.4174805.2265625-.7451172.6323242-.8051758 1.2197266-.2397461 2.3374023.7182617 4.1601563 2.2568359 5.487793-.0575714.59832-1.1024246-1.7598648 13.6738281 29.0478516 2.2495117 4.6904297 4.4990234 9.3808594 6.7460938 14.0727539.9658203 2.0166016 2.2963867 4.0859375 2.9760742 6.2172852.8500977 2.6679688-.09375 4.0493164-.9047852 6.496582-5.7661133 17.40625 2.7651367 34.9980469 10.472168 50.269043 10.8318481 21.4624329 21.0779648 41.7175598 32.9853516 62.3842773-28.0615234 3.4326172-47.2753906 10.3876953-47.2753906 18.4042816 0 11.4199219 38.8701172 20.6796875 86.8198318 20.6796875 47.9399414 0 86.8100586-9.2597656 86.8100586-20.6796875 0-7.6454926-17.4560547-14.3227386-43.3979492-17.9013519 1.21875-3.6772461 1.5693359-7.6088867.668457-11.7397461-1.5771484-7.2314453-6.6704102-14.6640625-10.112793-21.3383789-4.5966797-8.9116211-9.3081055-17.7636719-13.9916992-26.6298828-9.3251953-17.6523438-17.3369141-36.3115234-27.7124023-53.3642578-4.4423828-7.3012695-9.7036133-15.0644531-16.4418945-20.4648438-2.7158203-2.1767578-5.7514648-3.921875-9.0419922-5.0722656-1.4702148-.5136719-4.4419022-.4980469-5.5488358-1.2597656-1.8505859-1.2739258-3.3916016-5.9130859-4.5058594-7.8959961-21.5920334-38.4267082-19.0048599-37.3538857-22.8330078-41.9018555-.5205078-2.0605469-2.1704102-3.6699219-4.7177734-3.9990234-1.9600449-2.0456581-.6624832-3.762825-1.4150391-6.0996094-.3833008-1.1899414-1.3662109-2.1196289-2.5224609-2.2983398 1.0052338-5.7729187-4.1956787-9.421896-8.9868164-8.1669941-1.7893677-2.8293056-1.8379974-3.3883152-2.1865234-3.8120117-.0117188-.487793-.0878906-.9799805-.230957-1.4755859-.003418-.2475586-.0839844-.5107422-.28125-.7768555-4.0717773-5.484375-13.4736328-1.4838867-18.1640625 1.0195313-3.9936524 2.1313474-13.8486328 8.4785173-10.8735352 14.3930681zm65.5175781 47.2617187c2.1054688 3.8125 4.2304688 7.6147461 6.3813477 11.4018555.96875 1.7045898 1.7294922 4.0883789 3.5488281 5.046875 1.3896484.7324219 3.7968826.7275391 5.3169022 1.2275391 1.8886719.6210938 3.7089844 1.4414063 5.4165039 2.4619141 3.1674805 1.8930664 5.8632813 4.4389648 8.296875 7.1894531 11.9658203 13.5224609 18.9570313 30.4316406 27.0595703 46.3413086 8.2626953 16.2231445 16.9794922 32.2089844 25.3261719 48.3881836 3.2587891 6.3178711 7.7089844 13.1401367 9.5180664 19.8276367 2.5932617 9.5849609-2.8774414 17.690918-9.6855469 24.0351563-9.9614258 9.2831879-26.1557617 17.734848-40.1416016 16.8544769-8.6665039-.5454102-12.4985352-5.6552734-16.7651367-12.4306641-15.0788116-23.9457245-28.2847595-49.5722656-40.7763748-74.2636566-4.7998047-9.4873047-10.1108398-18.9477539-13.1298828-29.1928711-1.4477539-4.9145508-2.3183594-9.9799805-2.2216797-15.1142578.1932526-10.3278351 3.1560745-11.3450089 3.7109375-15.2119141.3808594-2.6499023-2.4306641-6.2758789-3.5209961-8.5532227-2.2495117-4.6977539-4.5009766-9.394043-6.753418-14.090332-4.3442383-9.059082-8.6879883-18.1181641-13.0244141-27.1806641 1.5375977.4350586 3.1572266.6025391 4.6225586.4897461 9.0166931-.6945648 25.5495682-9.3539658 29.9311523-18.3198242 2.5120088 4.057457 5.8122407 11.0302124 16.8901368 31.0932617zm-23.359375-41.2792968c.1967773.9228516.6220703 1.5439453 1.159668 2.0908203-.2270508.5654297-.171875 1.2719727.2680664 1.7016602 1.074707 1.0493164 1.9985352 2.1132813 2.8413086 3.2016602-.8139648 2.8618164-4.6694336 6.9643555-5.3022461 7.5712891-4.5223007 4.341568-10.1265182 6.9969864-16.0200195 9.0410156-3.3549805 1.1635742-15.1743164 4.6757813-14.3686523-3.1845703.0151367-.1479492.0058594-.2802734-.0141602-.4052734 10.7827148-.1816406 20.7270508-4.4882813 28.2392578-12.2802734.6704102-.6953125-.3891602-1.7573242-1.0605469-1.0610352-7.3896484 7.6650391-17.1875 11.8383789-27.8232422 11.855957.0732422-1.4311523.0507813-2.8144531-1.0874023-3.9077148-1.5830078-1.5209961-3.7895508-2.0532227-3.8994141-4.2758789 6.2201653 4.3287659 15.4543991 1.200676 22.1245117-2.3325195 5.2070313-2.7587891 11.3608398-7.6713867 13.1655273-13.7216797 2.0854493-.0996096 1.5039063 4.4243162 1.7773438 5.7065428zm-5.9731445-9.6826172c1.1303711 1.1005859 1.5585938 2.2192383 1.3115234 3.3549805-1.1728516-2.2026367-2.5834961-4.2592773-3.9853516-6.3208008 1.5742188-.1494141 2.4731446.8261718 2.6738282 2.9658203zm-2.7045898 2.3984375c-1.5913086.3227539-1.4838867 2.9667969.331543 2.9667969.4921875 0 .8579102-.1962891 1.0991211-.4868164.4822159.9062042.5795517 1.1950493.9350586 1.4404297-4.2039413 6.4244614-12.1770325 10.6266365-19.5444336 12.2299805-2.840332.6181641-6.015625.9536133-8.6894531-.4550781-2.6269531-1.3842773-4.4101563-4.4042969-2.6201172-7.2553711.4677734.7011719.9272461 1.4072266 1.4111328 2.0981445 1.0991211 1.5703125 3.7011719.0727539 2.590332-1.5141602-1.0942383-1.5629883-2.1401367-3.1567383-3.1918945-4.746582 2.7373047-.0117188 5.8515625-.9550781 8.362793-1.9511719-.3901367.8881836.0405273 2.1689453 1.3051758 2.1689453 1.7548828 0 1.9116211-2.4716797.4741211-2.9228516 4.2457581-1.9140091 9.9666138-5.4577332 12.3994141-9.4340839 1.5830076 2.6997089 3.4721678 5.2119159 5.1372069 7.8618183zm-15.2392579-13.258791c-.0966797.8120117.3769531 1.7045898 1.4321289 1.7045898 1.3310547 0 1.7451172-1.425293 1.2407227-2.3110352 2.4301758-.3652344 4.4311523-.0751953 5.4492188 1.1787109.6328125 2.3217773-1.3896484 5.0961914-4.5039063 7.5722675.1459961-.8349609-.3261719-1.7973652-1.421875-1.7973652-1.8642578 0-1.925293 2.7905293-.1855469 2.9819355-6.3686523 4.3847656-15.5625 7.2983398-17.3525391 3.8515625-2.0722656-3.9897459 7.6118165-10.8974627 15.3417969-13.1806658z"/><path d="m61.5115891 34.1641083c-.0361328-.8129883-.6591797-1.5-1.5-1.5-.1274414 0-.2548828 0-.3818359 0-.784668 0-1.5366211.6899414-1.5 1.5.096115 2.161293 3.4648856 1.8618545 3.3818359 0z"/><path d="m71.4754562 49.0957489c-1.9301758 0-1.9335938 3 0 3 1.9306641 0 1.9335938-3 0-3z"/><path d="m74.1502609 38.7778778c-1.9301758 0-1.9331055 3 0 3 1.9306641 0 1.9335938-3 0-3z"/><path d="m92.3089523 146.1894989c-4.2597656 5.0693359-1.690918 7.0004883 1.2827148 12.2807617 13.7215424 24.3697357 27.3991776 48.9354248 42.5200272 72.4663086 1.6210938 2.5229492 4.9223633 6.0249023 5.7558594 8.8549805.1967773.668457.7729492 1.0576172 1.4462891 1.1010742 9.9597168.6412659 21.1439209-1.5482788 27.7324219-8.3227539 2.2104492-1.684082 4.1010742-3.8710938 5.9643555-5.9663086 7.157196-8.0501251 8.909317-6.1911163 12.9194336-8.3173828.4848633-.2568359.7827148-1.2514648.8896484-2.1694336.3401947-.3975067.5523834-1.1039581.2192383-1.7709961-16.2626953-32.5698242-34.3237305-64.1464844-53.2197266-95.25-.4794922-.7890625-1.6943359-1.0371094-2.355957-.3037109-.1831055.2026367-.3120117.4296875-.418457.6669922-2.5727539.7524414-6.7358398 5.609375-7.6909256 6.4233398-11.2355042 9.5776215-16.0111694 9.3930206-23.859375 13.7915039-4.1875001 1.2929688-8.3139649 3.0981445-11.185547 6.515625zm95.1167069 67.6572266c-6.1547852 1.1049805-10.6254883 5.8886719-13.9414063 10.9853516-6.529068 10.0356903-17.197937 13.647995-29.1577148 13.1040039-2.0522614-4.0699158-5.9077911-5.9143524-44.408699-74.3413086-1.8588867-3.3032227-3.9262695-6.5532227-5.6025391-9.9516602-1.0141602-2.0561523-1.5517578-2.5195313-.4672852-4.5405273.8623047-1.6074219 2.75-2.9814453 4.2680664-3.940918 8.9452667-5.6539612 23.4003143-3.8674774 33.4043045-12.5375977 2.0830078-1.8056641 4.0454102-4.0517578 5.15625-6.6088867.1015625-.2338867.2958984-1.1875.4794922-2.2075195 17.8041992 29.4277343 34.8295899 59.2954101 50.2695313 90.0390625z"/><path d="m140.5643311 200.0557098c3.512207-11.6533203 6.0244141-23.5107422 7.6196289-35.574707.2524414-1.9082031-2.75-1.8896484-3 0-1.559082 11.7919922-4.0805664 23.3896484-7.5126953 34.7768555-.5581055 1.852539 2.3364257 2.6445312 2.8930664.7978515z"/><path d="m147.7078857 188.1660614c.8881836 3.4814453 4.640625 4.9521484 7.8730469 3.715332 7.4638672-2.855957 4.6054688-14.0878906-3.2729492-13.2373047-.362793.0390625-.65625.1816406-.8813477.3833008-1.8838348-.4464721-5.1440429 3.5490265-3.71875 9.1386719zm4.190918-6.3881836c.0712891-.0400391.1293945-.0864258.1899414-.1323242.0712891.0019531.1411133.0068359.2192383-.0014648 4.2744141-.4614258 6.8447266 5.1884766 2.5581055 7.2797852-1.9077148.9306641-3.9570313.2202148-4.3256836-1.9780273-.2807617-1.6738283-.2998047-4.2416994 1.3583984-5.1679689z"/><path d="m134.5965576 184.3013153c7.4643555-2.8564453 4.6054688-14.0883789-3.2724609-13.237793-.3632813.0390625-.65625.1816406-.8818359.3833008-1.8885345-.4482727-5.1413651 3.5610962-3.7182693 9.1386719.8876952 3.4819336 4.6406325 4.9526367 7.8725661 3.7158203zm-5.0405273-4.9360351c-.2802734-1.6733398-.2998047-4.2416992 1.3583984-5.1679688.0717773-.0400391.1298828-.0864258.1899414-.1318359.0717773.0014648.1416016.0063477.2197266-.0019531 4.2739258-.4614258 6.8442383 5.1889648 2.5581055 7.2802734-1.9077149.930664-3.9575196.2202148-4.3261719-1.9785156z"/></g></g></svg>