<svg id="Layer_1" enable-background="new 0 0 300 300" height="512" viewBox="0 0 300 300" width="512" xmlns="http://www.w3.org/2000/svg"><g id="Online_Store"><g><path d="m21.7209148 217.8180847c-.5449219.684082-.0893555 1.7529297.7397461 2.1567383-.0595703.0771484-.1367188.1450195-.1914063.2250977 5.2109375 1.4536133 10.0839863 1.2666016 18.8432636-1.8730469 7.84375 4.269043 12.8969727 8.0830078 19.703125 9.8408203 9.6713867 2.4970703 24.6254883-4.1787109 36.3359375-8.5625 7.2797852-2.7250977 14.9458008-6.3300781 22.3393555-9.3139648 1.253418-.2587891 2.5209961-.4746094 3.8022461-.6499023 4.6499863 13.344986 12.9352417 24.1087952 23.3979492 32.65625 26.9546051 31.3768921 69.3926392 34.6602173 94.6777344 21.2626953 15.9726563-8.487793 27.9384766-24.2729492 32.0078125-42.2250977 3.2207031-14.2163086 2.6616211-34.105957-1.2470703-48.0961914-.1821289-2.0927734-.4262695-4.1767578-.7573242-6.2446289 3.4926758-1.7631836 6.0522461-5.2353516 7.0522461-9.1391602.8808594-.2675781 1.3764648-1.3398438.8725586-2.1923828-4.5917969-7.7709961-10.3491211-15.0869141-15.4624023-22.5273438-2.3334961-3.3955078-4.5991211-8.4521561-7.6674805-11.1528397-1.5760193-1.3869781-.7227936-1.099617-8.3808594-1.1713867.014801-.1004028.4408112-12.7135696.3227539-13.1699219-.0170898-.7358398-.496582-1.4584961-1.4453125-1.4580078-34.3349609.0068359-68.668457.3613281-103.0029297.3681641-1.4023438 0-1.7822266 1.5791016-1.1474609 2.4453125v11.8427734c-3.0653687.0376358-4.3318024-.2651901-5.9077148 1.3520508-1.9082031-20.4379883-3.8168945-40.875-5.7338867-61.3120117-.1132813-1.2104492-1.3642578-1.65625-2.2167969-1.3295898-7.1357422.1601563-14.2802734.1870117-21.4243164.2373047-3.2570343-13.2137337-13.3947372-32.1318054-26.9418945-30.7250977-3.4619141.3598633-6.0478516 2.0332031-7.9018555 4.3847656-2.7915039-1.6806641-6.1049805-2.3662109-10.0048828-1.5078125-12.8549805 2.8300782-13.7587891 20.7211914-15.0043946 31.5366211-9.2075195 1.7421875-18.0839863 4.5751953-25.9326191 9.3930664-.1591797.0981445-.2807617.2143555-.3837891.3374023-.3447266.2348633-.5810547.6254883-.5585938 1.1821289 1.9223634 47.7866212 2.1909181 95.6167069 1.2182618 143.4296952zm51.208498-179.7929764c5.9906769 5.1833572 8.3661041 14.55933 8.9770508 22.3100586-2.3808594.1064453-4.7978516.2124023-7.2402344.3334961-2.0019531-7.1723633-4.9921875-15.9116211-1.7368164-22.6435547zm-28.5375976 159.6259842c3.9140625 7.5810547 8.6748047 14.6601563 13.1645508 21.9082031-12.9640732-5.2475281-13.7798882-6.1493225-16.0864258-6.2255859-3.9033203-.1289063-8.3374023.5966797-12.4858418 1.7495117 5.4702168-5.4946289 10.3540058-11.5473632 15.4077168-17.4321289zm5.7768555-75.0268631c.3803711 9.5937576.7084961 19.259285.8984375 26.6142654.2739258 10.6293945 1.0654297 21.2485352.9555664 31.8808594-.155159 15.0311584-.9095612 21.499939 7.6333008 35.9584961.0068359.0693359.0136719.1386719.0209961.2084961-4.762207-7.644043-9.7998047-15.1147461-13.7578125-23.2270508-.0541992-.1113281-.1157227-.2080078-.1826172-.2929688-2.8046875-38.5117188-4.15625-77.11866-5.8579102-115.6894608-.0849609-1.9228516-3.0854492-1.9335938-3 0 5.8450928 132.4998474 4.3481598 87.4838181 5.9375 116.8154373-5.8891602 6.8222656-11.5000019 13.918457-18.0468769 20.1220703.8935547-46.2504883.6186523-92.5156326-1.1992188-138.7412109 11.2676563-2.3230286 15.3607349-2.4926529 16.0629902-2.722168 1.8911133.4624023 3.8071289.8105469 5.706543 1.2358398 1.6289062 15.9438402 3.2324219 31.8906176 4.8291016 47.8373949zm-9.2338868 95.6245194c-.0175781-.003418-.0175781-.003418 0 0zm84.8154297-10.397461c.0043945-.3486328-.097168-.6826172-.2983398-.9345703-2.9697266-9.1137695-4.1982422-19.0253906-3.7602539-28.7348633 16.925293 9.7563477 35.5014648 15.5063477 54.4389648 17.4472656-.9941406 10.5605469-.5322266 21.1762695 1.6342773 31.4570313-14.6401367-1.894043-28.815918-6.0141602-42.7143555-11.7729492-1.7817383-.7382813-2.5585938 2.1630859-.7973633 2.8930664 14.3549805 5.9477539 29.0664063 10.1396484 44.2226563 11.9868164 2.2260742 9.046875 5.8144531 17.7939453 10.8999023 25.9775391-4.5009766-.3330078-8.9609375-1.0297852-13.2949219-2.1147461-21.2681121-5.3256989-42.3917998-22.9207916-50.3305663-46.2045899zm45.2172852-84.0014724c-2.7519531 10.5483475-5.7646484 21.0258865-9.2275391 31.3642654-7.2368164.0200195-14.4736328.027832-21.7104492.0405273 5.8867188-10.065918 10.9438477-20.5419922 15.1865234-31.4047928 5.2504883.0000001 10.5009766.0000001 15.7514649.0000001zm67.6552734 0c4.5244141 10.52491 9.996582 20.6079178 14.5791016 31.1054764-7.4301758.0131836-14.8608398.0219727-22.2910156.0429688-2.6142578-10.3828125-5.2285156-20.765625-7.8432617-31.1484451 5.1850585-.0000001 10.3701171-.0000001 15.5551757-.0000001zm-59.4853515 72.0415115c11.956543.9707031 24.0239258.4482422 35.8828125-1.5380859 1.8740234 10.6943359 2.1582031 21.6669922.7724609 32.4150391-11.760437 1.7211914-23.0526886 1.9458466-34.8432617.6884766-2.2919922-10.3027345-2.8110352-20.9570314-1.8120117-31.5654298zm28.9570312-34.8632812c.8037109-2.300293.0727539-1.3564453 1.0483398.4140625 4.266037 7.7396088 14.7348938 9.2965698 20.6264648 1.6962891.159668-.206543 1.4770508-2.4399414 1.8564453-3.6499023.5410156 1.3183594 2.097168 3.8779297 2.1835938 3.9873047 1.1420898 1.4365234 2.5996094 2.6650391 4.2265625 3.519043 6.628418 3.480957 13.7333984-.2080078 16.6738281-6.3813477 1.7299805 4.2749023 6.9648438 7.4775391 11.1962891 7.6035156.890625.0268555 1.7490234-.0600586 2.5776367-.2265625.1254883.8183594.2431641 1.637207.3432617 2.4575195-15.7700195 10.1411133-33.3203125 17.0083008-51.4360352 20.4238281-2.0068359-9.890625-5.3432617-19.5146484-9.972168-28.4956055.2832033-.4453125.5190431-.8989258.6757814-1.3481445zm61.0698242 12.7402343c1.0478516 12.8740234-.9433594 25.7788086-5.7739258 37.4638672-14.0253906 7.2797852-29.0322266 12.4360352-44.5454102 15.0522461 1.3022461-10.7763672.9790039-21.7524414-.8974609-32.4633789 18.0122071-3.3896484 35.4648438-10.1347656 51.2167969-20.0527344zm-7.7377929 41.8056641c-9.4787598 19.4337158-26.9398804 34.4147644-50.1816406 39.2050781 3.4853516-8.1303711 5.8666992-16.6723633 7.1772461-25.378418 14.923828-2.4213867 29.3911132-7.1586914 43.0043945-13.8266601zm-74.4291993-52.472168c.065918.1020508.1308594.2055664.203125.2978516 4.4069214 5.6394958 12.211731 6.9351044 18.1069336 1.4477539 4.2109375 8.3857422 7.2773438 17.3457031 9.1542969 26.5551758-11.5698242 1.9365234-23.340332 2.4521484-35.0043945 1.5126953 1.2250976-10.1347656 3.8066406-20.1904297 7.540039-29.8134766zm28.3491211 66.7573242c-1.4042969 8.8046875-3.940918 17.4208984-7.6503906 25.565918-4.8417969.7646484-9.7607422 1.0717773-14.6591797.9335938-5.2944336-8.1147461-9.0117188-16.8120117-11.3442383-25.8134766 11.5274811 1.1447601 22.4048462.8926392 33.6538086-.6860352zm6.1748047-106.0092849c2.6142578 10.384285 5.2290039 20.7690506 7.84375 31.1533279-7.0444336.0200195-14.0888672.0424805-21.1337891.065918-.503418-10.40625-1.0068359-20.8129883-1.5102539-31.2192459zm-16.300293 0c.503418 10.4077225 1.0068359 20.8159256 1.5107422 31.2236404-6.7924805.0229492-13.5849609.0410156-20.3774414.0639648.7436523-10.4838867 2.1953125-20.890625 3.7041016-31.2876053 1.9126129.0000001 13.4189148.0000001 15.1625976.0000001zm-20.3671875 31.2919998c-7.1787109.0239258-14.3574219.0473633-21.5361328.0673828 3.449707-10.3383789 6.4580078-20.8129883 9.2026367-31.3593826h16.0341797c-1.5078125 10.3979568-2.9570312 20.8066482-3.7006836 31.2919998zm-47.2680664 6.1166992c.2705078-.4916992.6333008-1.2416992.7568359-1.8261719.0371094.0014648.0712891.0092773.109375.0073242.0185547-.0004883.0371094-.0063477.0556641-.0078125.6679688 1.3388672 1.8925781 3.8276367 2.0839844 4.0766602 4.1069336 5.3330078 11.4052734 6.5947266 16.8603516 2.5888672.453125-.3330078 3.6743164-4.4296875 4.5126953-6.2304688 3.66185 10.1889954 16.3191528 11.5243988 21.9838867 2.8515625-3.7099609 9.65625-6.2739258 19.7509766-7.4980469 29.934082-18.8852539-1.9331055-37.4140625-7.7255859-54.2514648-17.6279297-.0986328-.0581055-.1967773-.1015625-.293457-.1357422.2163086-2.5649414.5483398-5.1030273.9980469-7.6015625 5.791748 2.155655 11.8577422-.895996 14.6821288-6.0288085zm115.0463868-37.408699c1.0654297-.5908203 1.7456055-.1772461 2.0405273 1.2397461 17.2960205 25.1915359 16.7705688 23.6664658 20.6538086 29.833992-6.8330078.0019531-13.6665039.0180664-20.4995117.0292969-4.5375977-10.5175781-10.0083008-20.6000977-14.578125-31.103035h6.6245117c1.5585937 0 4.2529297-.3852539 5.7587891 0zm-107.1186524-14.3027344c33.2094727-.0185547 66.418457-.3442383 99.6279297-.3603516-.0556641 3.3305664-.4197083 10.699234-.3110352 11.6005859-.1016235-.0007172-96.4516907.0004425-99.3168945.0288086 0-3.7563476 0-7.5126953 0-11.2690429zm-4.3129883 14.3027344c.2446899-.0025482 12.1652069 0 12.4091797 0-7.1939697 18.3108139-14.7485809 30.2815475-15.2983398 31.4072342-6.8964844.0117188-13.7929688.0288086-20.6894531.0302734 6.7625046-10.060379 12.6661072-18.155899 18.9140625-27.3628006.2172852-.1533203.3798828-.3745117.4541016-.6645508 1.7713927-2.6233444 1.5499572-3.3827057 4.2104491-3.4101562zm-7.2182617 2.3657226c-1.6822662 2.9717178-12.6484756 18.0297318-20.465332 29.8071365-.7016602 1.0566406.171875 2.0605469 1.15625 2.1811523.9379883 3.0966797 2.9052734 5.8154297 5.449707 7.6000977-2.5654297 13.4267578-1.7675781 27.9140625 2.2241211 40.9589844-20.3217773 3.0200195-38.2099609 15.5332031-59.2973633 14.2045898-4.9794922-48.7563477-9.7397461-97.5351639-14.7211914-146.2910156 8.4174805-1.4667969 16.847168-2.8554688 25.2875977-4.1811523.2646484 3.331543-.0693359 6.6074219-1.5288086 9.769043-.0498047-.0053711-.0913086-.0219727-.1479492-.0166016-4.5665817.4360733-5.8972778 6.488678-2.2050781 8.2739258 2.0556641.9946289 5.2255859.6889648 6.4155273-1.5024414 1.0087891-1.8574219.3237305-4.3178711-1.3178711-5.5546875 1.6088867-3.6005859 1.9765625-7.5063477 1.6591797-11.4223633 9.6162109-1.4921875 19.2460938-2.8935547 28.887207-4.2158203.3618164 2.3447266.5908203 4.7138672.690918 7.0961914-1.3226624.3369064-2.7294464 2.2968979-2.3798828 4.7597656.6874542 4.8457794 7.7568436 3.918396 9.2666016-.4208984.8168945-2.3491211-1.3232422-4.0292969-3.2348633-4.8989258-.2460938-.1118164-.4780273-.081543-.6723633.0170898-.112793-2.3344727-.34375-4.659668-.6982422-6.9643555 6.5639648-.8886719 13.1333008-1.737793 19.7070313-2.5537109 1.9799804 21.1176682 3.9531249 42.2358323 5.9248046 63.3539963zm-59.269043-39.711914c-1.0541992 1.4467773-3.640625 1.3457031-4.9125977.2993164-1.6933594-1.3935547-.3740234-4.0834961 1.3876953-4.8530273-.0585938.097168-.1088867.1948242-.1694336.2915039-1.0307617 1.6391602 1.5639648 3.1459961 2.590332 1.5141602.1923828-.3066406.3671875-.6181641.5390625-.9301758.9599611.8754882 1.357422 2.5908202.5649415 3.6782226zm34.4208985-10.456543c.003418-.7753906-.0092773-1.550293-.03125-2.324707 1.2910156.6025391 3.1030273 1.6787109 2.3291016 3.3149414-1.3066788 2.7618027-6.0488129 3.5615005-6.2963867.1479492-.0737305-1.0170898.2416992-1.9560547.9848633-2.5673828.0078125.4760742.0161133.9521484.0136719 1.4291992-.0087892 1.9306641 2.9912108 1.9331055 2.9999999 0zm-10.241211-29.4658203c2.3232422 4.2001953 4.0551758 8.6455078 5.2456055 13.2319336-6.4174805.0546875-12.8330078.1557617-19.2412109.4047852-.6293945-7.640625-3.6572266-19.1616211-10.1342773-24.9916992 8.696289-10.1093751 20.0815429 4.036621 24.1298827 11.3549804zm-39.2314453-10.2280274c3.7299805-2.512207 7.625-1.9916992 10.9458008-.0166016-3.8704529 8.208828-1.2067566 16.1913567 1.0678711 24.4892578-7.0249023.390625-14.2045898.9672852-21.2397461 2.1142578.9526367-8.7993163 1.5566406-21.4204101 9.2260742-26.586914z"/></g></g></svg>