<svg id="Layer_1" enable-background="new 0 0 300 300" height="512" viewBox="0 0 300 300" width="512" xmlns="http://www.w3.org/2000/svg"><g id="Online_survey"><g><path d="m252.4426117 104.8468246-4.6953125 6.4277344-10.5253906 1.5634766c-1.0089722.1499481-1.2284241 1.5094223-.3183594 1.96875l7.5009766 3.7910156-1.3847656 6.2255859c-.1802673.8100891.634964 1.498497 1.3955078 1.2041016l9.8974609-3.7851563 10.2577972 2.5615234c.8220825.2026672 1.5056458-.6068268 1.2402344-1.3632813l-2.0927734-6.0351563 6.9550781-4.6396484c.8493042-.5661926.4672852-1.8891678-.5517578-1.9169922l-10.6738281-.3027344-5.3925629-5.7958984c-.4418945-.4761961-1.2209931-.4416426-1.6123047.0966798z"/><path d="m26.0661411 152.4742584c4.5180664-13.2929688 14.5136738-23.9814453 27.5234394-29.2954025 1.7636719-.7202148.9916992-3.6235352-.7973633-2.8925781-14.0424805 5.7353516-24.7334003 17.0170822-29.6186543 31.3906174-.6225585 1.8320312 2.2739259 2.618164 2.8925782.7973632z"/><path d="m269.259491 140.2559967c-4.8051758 10.4057617-12.6166992 18.6542969-22.7685394 23.9833984-1.7099609.8979492-.1953125 3.487793 1.5141602 2.590332 10.5566254-5.5415039 18.8451996-14.2329102 23.8447113-25.0595703.8041991-1.7412109-1.7812501-3.2670898-2.5903321-1.5141601z"/><path d="m271.0802917 159.9864655c-2.7475586 3.7822266-6.909668 6.5888672-10.7119141 9.2119141-1.5786133 1.0888672-.0800781 3.6904297 1.5141602 2.590332 4.2587891-2.9379883 8.7163086-6.059082 11.7880859-10.2880859 1.1362305-1.5639649-1.465332-3.0629884-2.590332-1.5141602z"/><path d="m24.4484653 132.8897858c1.6240234-3.7832031 3.8984375-7.1162033 6.8608398-9.9775314 1.3911152-1.3442383-.7319336-3.4638672-2.121582-2.121582-3.1328125 3.0273438-5.6103516 6.5805664-7.3295898 10.5849533-.753418 1.755371 1.8300781 3.2851562 2.590332 1.5141601z"/><path d="m30.545145 194.5318756c6.6108418 3.831543 22.067873 6.5673828 25.9018574 7.0131836 8.9287834 1.0376892 18.3294563.8993988 31.2192345.7832031 19.6430664 23.4291992 51.3691483 34.5224609 81.5966873 27.5610352 31.8149414-7.3271484 55.5595703-33.2265625 61.8896484-64.5390625 31.8721466-19.5452728 39.3157196-35.3349457 44.9247894-40.2748947 9.4370117-8.3071289 2.3203125-18.1826172-7.0961914-21.9775391-5.0043945-2.0170898-10.8237305-3.0483398-16.6376801-2.9736328-12.7841797-4.1323242-26.3227539-4.2368164-39.6147461-3.4301758-10.2339325-14.2213211-32.9641113-27.3030624-57.5877533-28.5357132-38.8412476-1.9443893-75.3391113 23.6153717-84.2652817 63.8667603-.8414001-.0157318-35.5749969 15.8129272-45.4526367 39.6259766-.0722656.1743164-.1010742.3359375-.1088867.4897461-3.1621094 2.793457-6.4291992 6.7021484-5.7475586 11.6743164.8076192 5.8940429 5.3691426 9.1127929 10.9785176 10.7167968zm47.5561505-75.5659103c14.0439453 8.2695313 29.3227539 14.075676 45.1000977 17.4077072-.8681641 9.2192383-1.027832 18.5151367-.4804688 27.7895508-9.4075546-.3848877-21.6982803 2.6075897-23.1787109 11.5253906-7.7270508.6054688-15.4838867.8867188-23.2241211.4882813-6.3803711-18.4384766-5.916504-39.0185547 1.7832031-57.2109299zm164.8505935-18.1215821c.0483398.1308594.0883789.2626953.1333008.394043-1.012207.2402344-2.0048828.5288086-2.9824219.8491211-2.5053711-1.3540039-5.293457-2.1450195-8.2045898-2.5766602 3.7109375.2250977 7.4018555.6469727 11.0537109 1.3334961zm-12.9575195 6.8188477c-2.3852539 2.1948242-4.1513672 4.9960938-4.2382813 8.2700195-1.2890625-2.9179688-2.8056641-5.652832-4.6005859-8.0146484.1110077.0018463 6.600174-.0312653 8.8388672-.2553711zm-29.4794922 38.872551c-.1269531.2128906-.206543.4624023-.2080078.7490234-.03862 8.2939301.0331268 7.3432922-.03125 8.2026367-1.6811066 1.3321991-6.6330109 6.4248047-8.5893555 8.3271484-1.1350708 1.1026917.0476532 2.7287598 1.4594727 2.5068359 3.0234375-.4746094 6.046875-.949707 9.0703125-1.4248047.8925781 2.0859375 1.7841797 4.1728516 2.6855469 6.2548828.4794922 1.1074219 2.0395508.8388672 2.5908203 0 3.6578522-5.5700073 6.0433197-9.1850891 6.1020508-9.2939453.8000488-.323288 8.5610352-3.4794922 10.3813477-4.206543 1.2207031-.4873047 1.4731445-1.9667969.3583984-2.7416992-1.7807617-1.2368164-3.5605469-2.4736328-5.3413086-3.7109375 1.1035156-2.9580078 2.2070313-5.9165039 3.3100586-8.8745117.4452362-1.1953278-1.1583405-2.4055481-2.203125-1.6943359-2.1338043 1.4525757-8.4528046 5.3536835-9.9296875 6.8061523-.8407745-.0962982.2385712.0337982-7.9643555-1.597168-.2553711-.0507813-.5087891-.0400391-.7451172.0170898.9262695-.6518555 1.8710938-1.2763672 2.8452148-1.8525391 7.7638092-4.538269 21.9230194-8.3757629 24.9785156.1293945 2.9755707 8.2782135-7.0420532 18.6865845-14.1982422 23.7265625-16.1988831 11.0667877-31.7141418 7.2559357-26.6679688-6.4350586 2.1608735-5.8662107 7.0840761-11.1560209 12.0966798-14.8881833zm-69.3125 47.6708984c-11.9669876-.6531372-30.4695435-7.7242126-28.6381912-18.0883789 1.4745941-8.3572083 16.3374329-9.9999695 25.7168045-8.2075195-.310257.1056366-6.7652283 5.9288025-6.7661209 5.9321289-.0117188.0004883-.0214844.0024414-.0332031.0029297-4.9591141-.2808075.2393341-.0397034-11.7446289-.5708008-1.2084961-.0537109-2.1020508 1.7490234-1.0610352 2.5605469 5.9237366 4.6140289.3365631.5135803 7.5371094 5.8623047-.8535156 1.9667969-1.7075195 3.9331055-2.5615234 5.8999023-.5361176 1.2343445.3386459 2.442749 1.6943359 2.2036133.3158722-.0556183 10.2915268-1.8111267 10.6069336-1.8686523.4900131-.0621338.3645554-.0451508.6977539.0883789.1092453.0508728 6.5568314 3.0518036 9.7793045 4.559082 1.2563477.5874023 2.4008789-.3730469 2.203125-1.6943359-.3178711-2.1254883-.6347656-4.2514648-.9521484-6.3774414.9786377-.4109497 5.065094-2.128006 8.4448242-3.5473633 1.2490082-.5245667 1.5911255-2.5415649 0-2.8925781-5.3715515-1.1894989 7.1360474 1.648056-11.8061523-2.6206055-.0549164-.1270294-4.179245-6.8958282-4.5478516-7.2260742 25.2438049 5.6931914 29.0540924 26.4942168 1.430664 25.9848632zm56.4633789-19.9033203c-4.2539063 1.5625-8.5327148 3.0444336-12.8378906 4.4394531.2954102-5.309082.3476563-10.6367188.1870117-15.9702148 3.6606445-1.21875 7.2998047-2.5004883 10.9179688-3.8427734-2.3090058 5.2373504-2.4724427 11.2455291 1.7329101 15.3735351zm-15.9116211 5.4223633c-6.0053711 1.8833008-12.0644531 3.5922852-18.1777344 5.128418.3642426-5.6109772-3.5307465-10.1514893-8.1533203-13.4018555.1197815-.0321655 17.8145905-4.8581085 26.6103516-7.6967773.1337891 5.3339843.0532227 10.661621-.2792969 15.9702148zm-72.2456131-1.0341797c.7989578 5.6885834 6.334465 10.3527527 11.2099609 13.3637695-6.6149063.7974091-9.1857529 1.4741058-25.5224609 2.0219727-3.1318359-4.6875-5.7192383-9.6723633-7.7529297-14.8544922 7.3559571.3164062 14.7241211.0424804 22.0654297-.53125zm131.3681717-23.8735352c2.1113281-4.4907227 2.9052734-9.4775391.3789063-13.6157227-.793457-1.2988281-1.7900391-2.2958984-2.9145508-3.0698242 2.55867-1.7377777 7.0694885-5.1432648 10.449707-8.4311523 6.7861328 2.2861328 15.1645508 3.1865234 22.8784027 1.8305664-7.88768 9.9550781-19.5566253 17.2983399-30.7924652 23.2861328zm-.0205078-22.2373047c-.6479492-3.0493164-1.4448242-6.2802658-2.4428711-9.4843674 1.9331055 2.3051758 4.6621094 4.0507813 7.3413086 5.3627853-1.5654297 1.4555665-3.2060547 2.8212892-4.8984375 4.1215821zm-2.6567383 1.9633789c-1.896637 1.3487701-2.4913025 1.8213654-3.4619141 1.9746094-9.4691315-2.4953308-27.1553802 4.3134613-36.565918 18.3842773-4.3881836 1.6748047-8.8100586 3.2543945-13.2612305 4.7475586-.3188477-6.9765625-1-13.9575195-1.9819336-20.9165039 18.0371094-2.034668 35.7338867-7.2265625 52.046875-15.6049728 1.326172 3.7807617 2.4340822 7.6777268 3.2241212 11.4150314zm-56.2724609 26.100586c-1.7156525.5576935-26.8812256 8.3697357-30.4116211 8.4702148-4.7315674-2.4255219-10.1277618-4.0986328-15.7827225-4.7207031-.5517578-9.1586914-.4082031-18.3354492.4321289-27.4360352 14.4043045 2.7490234 29.1787186 3.453125 43.7753983 2.0913086 1.0151367 7.1850586 1.6918945 14.3935547 1.9868164 21.5952149zm-118.8339882-2.0756836c3.4833565-8.5822144 14.2218208-13.9493256 16.0849571-15.40625-.75 8.9335938-.0644531 17.9770508 2.0712891 26.7202148-4.184082-4.934082-12.1289024-6.4692383-19.2065392-6.4921875.6000977-1.4072265.4311524-3.296875 1.050293-4.8217773zm20.4780235 20.430664c.1655273.0117188.3305664.0219727.4956055.0332031 1.9648438 5.2519531 4.4931641 10.3276367 7.5898438 15.1333008-7.824707.1337891-15.6650391-.1455078-23.4204063-1.1728516 6.7470664-2.5317382 13.7563438-7.0371093 15.334957-13.9936523zm18.0317383 23.3955079c-.0356445-.0405273-.0688477-.0830078-.1049805-.1235352 12.9560547-.2612305 25.2963867-1.2104492 37.2299881-2.8486328 2.8818359 9.940918 6.684082 19.5400391 11.4697266 28.7226563-18.4126053-2.5361329-35.8681717-11.4296876-48.5947342-25.7504883zm52.1972733 26.1689453c-5.0878906-9.4287109-9.0742188-19.3105469-12.0761719-29.5688477 13.362793-1.9702148 26.246582-4.7954102 38.9916992-8.4672852-1.6494141 12.8144531-4.8510742 25.4677734-9.9824219 37.78125-5.6401367.6904297-11.3188476.7714844-16.9331054.2548829zm20.3388672-.7421875c5.0473633-12.453125 8.1821289-25.2529297 9.7446289-38.2197266 10.5097656-3.1376953 20.9472656-6.8413086 31.4931641-11.1074219 7.1376953-2.8896484 14.7431641-6.6411133 22.3066406-11.0629883-7.0972291 30.2558137-31.2683716 54.9929505-63.5444336 60.3901368zm112.8105316-114.7485276c4.3207092 9.4253311-12.2265015 14.5212784-12.3271484 14.5883789-12.0452576 3.5825272-37.5360718-.1262741-35.7426605-12.4946289 1.2004395-8.2784271 14.914566-11.7550354 23.296875-11.9526367.0073242.0024414.0146484.0043945.0214844.0068359.100006.0335007 20.1346587-.2211074 24.7514495 9.8520508zm-58.3305512-4.0478515c1.9038086 3.2563477 3.7236328 7.1479492 5.3144531 11.2753906-16.1044922 8.3427658-33.6069336 13.4887619-51.4467773 15.4858322-3.3950195-22.1274338-9.7768555-43.9814377-17.3457031-64.6567307 28.7447204 1.5278397 52.6166534 19.31913 63.4780273 37.8955079zm-66.6987304-38.0014649c7.6655273 20.8115234 14.1513672 42.8081055 17.574707 65.0742111-14.3530273 1.3203125-28.8793945.6005859-43.0356522-2.1323242 2.4003983-21.9306564 8.8833084-43.3330002 19.5908279-62.794426 1.947754-.1230468 3.9057618-.1708984 5.8701173-.1474609zm-9.4194336.4453125c-10.2807617 19.2514648-16.599617 40.328125-18.9980545 61.9116135-15.4199219-3.2963867-30.3476563-9.0038986-44.0610352-17.1039963-.0385742-.0229492-.0766602-.0341797-.1152344-.0532227 11.7489319-24.9965057 36.1070404-41.8110046 63.1743241-44.7543945zm-93.9335976 77.1420823c-3.9672852 4.5341797-6.4121094 9.7109375-5.2890625 15.527832-4.5185547.7988281-9.1396484 2.2241211-13.1625996 4.5356445 4.2612324-7.9526367 10.9296894-14.5092773 18.4516621-20.0634765zm-19.2792988 23.6982421c3.7572346-2.4924469 10.2396984-4.4935913 14.6909199-5.2680664-.3376427.2532349-.173214.0339661-2.8007813 5.2285156-.4389648.8686523-.8393555 1.7797852-1.3256836 2.6235352-1.4961891.3969574-9.1128006 2.886261-11.3442402 3.5947266-1.4233398.4521484-1.425293 2.4404297 0 2.8930664 2.9487305.9355469 5.8974628 1.871582 8.845705 2.8071289-.1508789 2.1572266-.3422852 4.3271484-.2280273 6.480957.0498047.9404297.921875 1.7456055 1.8984375 1.4467773.7949219-.2436523 1.0288086-.3354492 1.7099609-.8164063 7.26231-4.2084961 6.4540024-3.6832886 7.3066406-4.2353516.5532227-.3583984 1.1845703-.5527344 1.1264648-.5805664 3.4775391-.3911133 7.7158203.6977539 11.1894531.9907227 1.1860352.1005859 1.7998047-1.3330078 1.2954102-2.2568359-1.050293-1.9228516-2.1005859-3.8461914-3.1508789-5.769043 2.2958984-2.1342773 4.5913086-4.2685547 6.8862267-6.4033203 1.2202148-1.1347656-.1181641-2.6879883-1.4594688-2.5068359-1.3259621.1786652-11.2339325 1.1566315-11.4365234 1.7514648-.7783203-.296875-1.6782227-1.3139648-2.3232422-1.8154297-4.6339111-3.6012878-4.3911858-3.4850769-4.9458008-3.6289063 8.6357422-1.2504883 23.2890587-.8701172 25.6728477 8.8666992.1064453 5.4907227-3.7568359 9.2226563-8.2719688 11.8935547-3.2290039 1.9106445-8.7797852 3.7841797-11.3354492 4.3359375-7.1743164 1.5488281-28.6709003 2.690918-28.8261738-9.3652344-.0507812-3.9570311 4.4936524-8.7202147 6.8261719-10.2670897zm30.368166 1.9716797c-1.3632813 1.2675781-2.7265625 2.5351563-4.0898438 3.8027344-.4956055.4609375-.5458984 1.2475586-.234375 1.8178711.7680664 1.4072266 1.5366211 2.8144531 2.3051758 4.2211914-3.0107422-.46875-6.3564453-1.1132813-9-.6381836-2.8442383.5107422-5.9067383 2.9956055-8.5166016 4.6704102.0561523-1.6816406.2075195-3.3657227.3066406-5.0405273.0395508-.671875-.4970703-1.2543945-1.1015625-1.4462891-1.6679688-.5292969-3.3359375-1.059082-5.0043945-1.5883789 8.2210388-2.018158 8.4912872-3.1520691 11.1103516-9.4008789 5.2284241 4.6670532 5.8270874 5.0794525 14.2246094 3.6020507z"/></g></g></svg>