<svg id="Layer_1" enable-background="new 0 0 300 300" height="512" viewBox="0 0 300 300" width="512" xmlns="http://www.w3.org/2000/svg"><g id="Platform"><g><path d="m56.2298355 180.8683472c16.7138672-24.4248047 33.4277344-48.8486328 50.1416016-73.2724609 1.0927734-1.5966797-1.5053711-3.0996094-2.590332-1.5136719-16.7138672 24.4238281-33.4277344 48.8476563-50.1416016 73.2714844-1.0927735 1.5976562 1.5053711 3.0996093 2.590332 1.5146484z"/><path d="m196.7361755 182.4523315c-2.7973633-21.4951172-5.5947266-42.9912109-8.3920898-64.4873047-.2456055-1.8876953-3.2485352-1.9121094-3 0 2.7973633 21.4960938 5.5947266 42.9921875 8.3920898 64.4873047.2456055 1.8876954 3.2485352 1.9121094 3 0z"/><path d="m52.6185074 214.1730347c.1463928 3.2791901 5.3876152 6.2071381 8.1040039 10.6455078 1.78125 2.9111328 1.4941406 7.3916016 1.5019531 10.6884766.0237389 10.1654205-2.36446 5.3607025 4.7177734 12.6630859 4.4599609 4.5996094 8.7324219 9.3759766 12.8984375 14.2412109 2.5039063 2.9248047 5.6479492 8.7353516 9.1787109 10.1699219 4.2776489 1.7368469 28.0503693-.905365 29.1967773-.3730469 1.9731445.9160156 3.012207 4.5673828 4.7680664 5.8447266 2.9365234 2.1376953 8.9199142 1.1816406 12.5048752 1.5048828.668457.0605469 1.2573242-.5117188 1.4462891-1.1005859.0913086-.2832031.1933594-.5625.2880859-.8447266 3.0654297-2.5332031 5.8129883-3.7871094 13.8305664-4.265625 1.5883789.4257813 3.199707.7441406 4.859375.8408203 2.7197266.1582031 5.4570313-.171875 8.152832-.4990234 10.600647 1.5353699 13.1332092.1577454 18.0874023-3.640625 1.3041992-1 2.6337891-2.0263672 3.5371094-3.4003906 1.237793-1.8828125 1.4438477-4.0917969 2.0014648-6.2158203.5942383-2.2636719 1.3994141-4.5048828 2.090332-6.75 1.7231445.3701172 3.4936523-.8261719 4.2875977-2.4003906.7939453-1.5732422.8051758-3.4228516.6303711-5.1777344-.137207-1.375-.6074219-2.9931641-.4086914-4.3720703.2216797-1.5380859 1.3959961-1.6357422 2.7900391-2.3349609.122345-2.1011963 2.248764-10.8922882 2.2768555-10.9941406 2.2444916-8.1317902 4.4520416-16.5570374 4.8115234-24.9072266.0385742-.9052734-.6010742-1.3798828-1.2993164-1.4355469-.0532227-.0302734-.1088867-.0566406-.1723633-.0703125-4.4291992-.8955078-8.8642578-1.6191406-13.3256836-2.2128906 0-.9023438 0-1.84375 0-2.5703125.1801758-.1113281.3657227-.2138672.5449219-.3271484.4892578-.3095703.4785156-.984375 0-1.2958984-4.1943359-2.7285156-9.2001953-3.8115234-13.394043-6.5400391-.2167969-.1416016-.5395508-.1357422-.7573242 0-5.4799805 3.4267578-11.1030273 6.6416016-16.7954102 9.7021484-16.4042969.9248047-32.2890549 2.0976563-48.6728439.5898438-18.2861328-1.6835938-36.0717773.2626953-54.0981445 3.3251953-1.1727829.1940613-2.124321.3930206-2.2792969 1.5751953-.4121092 3.1445311-1.4433592 6.7792967-1.3022459 9.9374999zm8.0014648 6.0439453c-1.7358398-1.9746094-4.5556641-4.2431641-4.8833008-6.9472656-.2651367-2.1914063.4199219-4.9072266.8891602-7.3105469.2045898.6816406.4086914 1.3623047.6132813 2.0439453-.2880859.3984375-.2382813 1.0224609.3701172 1.1240234 1.3339844.2216797 2.6679688.4443359 4.0019531.6669922.9443359.1572266 1.3500977-1.2880859.3989258-1.4462891-1.0883789-.1816406-2.1767578-.3632813-3.2651367-.5439453-.293457-.9785156-.5869141-1.9560547-.8798828-2.9345703-.1435547-.4785156-.5996094-.5976563-.9692383-.4775391.0068359-.0478516.0170898-.1005859.0234375-.1484375 6.8120117 1.3867188 13.6870117 2.3378906 20.6303711 2.7539063 3.6088867.2167969 7.2548828.3740234 10.8681641.1679688-.0322266.2216797-.046875.4404297.0288086.6806641.9790039 3.1025391.6503906 6.4833984-.9140625 9.4130859-4.6953125-.5800781-9.390625-1.1601563-14.0859375-1.7392578-1.4882813 3.0332031-2.1308594 6.3564453-1.8618164 9.6279297-2.3295898.0175781-4.6591797.0351563-6.9882813.0527344-.6268349-2.1916657-2.4997216-3.3033295-3.9765626-4.9833985zm31.4228516 49.4365234c.1421432-.2622375.1248245.184845-.3681641-6.6914063.4873734-.1284485 2.8139191-1.8025208 6.8178711-1.4257813.9604492.0898438.9541016-1.4101563 0-1.5-2.5991211-.2441406-5.105957.3056641-7.3847656 1.5703125-.1001205.0553284-.9770432.7402649-.9467773 1.1630859.1542969 2.1572266.309082 4.3144531.4638672 6.4716797-2.3852234-.9625854-2.8987579-2.2426758-9.2568359-9.6425781-3.7783203-4.3955078-7.6464844-8.7158203-11.6665039-12.8916016-6.1386566-6.3795013-4.3334885-4.700592-4.6494141-16.6005859 7.6254883 1.3652344 11.9130859 1.4833984 18.965332 13.6660156 1.8232422-4.0078125 3.7128906-11.6484375 5.550293-16.4277344.4833984 1.4511719.9672852 2.9013672 1.4506836 4.3525391.1264648.3798828.4501953.5234375.7641602.5068359-.1274414.4775391.2514648 1.1181641.9018555.9863281 1.4199219-.2880859 2.8549805-.1337891 4.1748047.4697266.8720703.3984375 1.6352539-.8945313.7573242-1.2958984-1.6542969-.7558594-3.3696289-.9677734-5.1503906-.6425781.0385742-.125.0527344-.2617188-.0009766-.4228516-.6088867-1.8251953-1.2172852-3.6513672-1.8256836-5.4765625 1.8017578.2373047 3.6035156.4746094 5.4047852.7119141.5561523-5.3300781 2.9570313-10.8515625 5.5004883-15.7695313 4.3212891.7138672 8.7236328 1.2919922 13.1108398 1.5966797l-1.5864258 6.4296875c.508934.3252106 1.2633209.9151306 5.9853516 3.7558594 1.7548828 1.0566406 3.5683594 2.1484375 5.4169922 3.3779297-.8106384 14.7019653-3.2264023 28.4221039-5.7563477 42.8935547-.1028978-.019165-19.6942445 2.2270203-26.6723634.834961zm98.6840744-49.328125c.0258789.9453125.0522461 1.890625.078125 2.8349609.0263672.9638672 1.5263672.9677734 1.5 0-.0124969-.456192-.0637512-2.4075165-.0844727-2.8632813.1877289-.1293793.0376282.0416107 1.9902344-2.6738281.6634521 7.1652374.6123352 9.7858429 1.3144531 13.4423828-2.3017426 5.0309753-5.4826202 4.121582-5.8823242 8.1337891-.2456055 2.4599609.1123047 4.9824219.1591797 7.4462891.0615692 3.1535187 1.2357635 3.9536896-6.3979492 6.4121094-.4716797.1523438-.9501953.5302734-1.0478516 1.0478516-1.572113 8.3249512-2.1152954 9.4974976-5.1972656 11.7675781-1.2441406-2.1894531-2.9379883-4.0410156-4.9907227-5.5263672.008255-.2308655-.0164795-.4622498-.4760742-7.0820313-.0668945-.9570313-1.5673828-.9648438-1.5 0 .5314331 7.6544189.4461517 7.1217346.6254883 7.3828125-.0551758.2783203.0239258.5849609.3164063.7890625 2.0053711 1.3955078 3.5844727 3.2138672 4.7666016 5.3242188-3.2436523 2.2021484-5.9038086 3.1748047-10.0883789 3.7011719-4.1000977.5166016-8.4365234 1.2470703-12.5498047.3935547-4.7597656-.9882813-9.0541992-3.3085938-13.9179688-4.0498047-.0703125-.0107422-.1352539.0009766-.2045898-.0029297.0039063-1.3349609-.2148438-2.5732422-.4331055-3.7802734-.3701172-2.0478516-.71875-3.9824219.0996094-6.1806641 1.5673828-4.2109375 3.4101563-8.4326172 5.1914063-12.515625 1.6337891-3.7431641 3.309082-7.6054688 4.7915039-11.4765625.75 1.0302734 1.5 2.0605469 2.25 3.0898438.2792969.3837891.7402344.3916016 1.0644531.2080078.2523956.0601959.1196594.0545197 3.3139648-.6591797.175293.2861328.3549805.5703125.4873047.8789063.1606445.3759766.7055664.4521484 1.0258789.2695313.9498138-.5406952-.2030792-1.6862793-.59375-2.5986328-.1844177-.4316254-.9789276-.5428009-1.2817383-.0039063-3.5991821.8013763-2.9315338.65802-3.0522461.6933594-.4014893-.5511627-7.1214752-10.0723419-7.6000977-10.5585938l.6704102-9.6972656c8.9127655 9.3066711 46.9983215 1.7461548 49.0668945.6914063-2.4125366 3.3543394-3.4283905 4.614868-3.4135742 5.1621092zm-79.5551682-19.4082031c16.0439453 1.515625 31.6704025.2392578 47.7270432-.6669922.168457.0498047.3588867.0458984.5566406-.0605469 5.0371094-2.703125 9.8945313-6.2880859 15.0859375-8.6240234 2.9648438-1.3330078 10.043457 2.484375 13.5668945 4.6503906-1.6083984.9833984-3.2397461 1.9277344-4.8828125 2.8525391-.1977539.0195313-.3427734.1083984-.434082.2460938-2.7250977 1.5302734-5.4560547 3.0517578-8.0854492 4.7490234-.6567383.4238281-.2802734 1.3447266.3193359 1.3994141-.0546875.0439453-.1137695.0888672-.1674805.1337891 4.1572266-.8007813 10.8740234-1.3701172 14.5151367-3.5292969-.0004883-.1992188-.0004883-.4794922-.0004883-.7871094 3.5170898.4716797 7.0170898 1.0380859 10.5092773 1.6982422-7.0410156 2.7158203-14.9423828 3.796875-22.3925781 3.6445313-.9760742-.0205078-.9501953 1.4228516 0 1.5 5.0454102.4082031 10.0957031 1.0986328 15.0805664 1.9833984.6079102.1074219 3.8500977.3574219 4.0834961.8417969.1142578.2373047-1.5415039 2.0976563-1.8833008 2.3417969-2.3764648 1.6962891-7.1103516 1.90625-9.9296875 2.3535156-4.4173279.6988831-21.5726929 3.078949-30.246582 1.1269531-2.1616364-.4861755-4.3134308-1.0337677-6.3979492-1.8203125-2.7885742-.6308594-2.871582-2.5644531-.2480469-5.7998047.6801758-.5029297.2875977-1.5351563-.5776367-1.3710938-5.4052734 1.0292969-11.1201172 2.1689453-16.8012695 2.8017578-5.2569122.2806702-6.5949936.5846863-10.1450119.4550781-3.9624023-.1464844-22.6972656.1503906-22.4243164-4.4833984.0175781-.3046875-.2441406-.6640625-.5507813-.7226563-5.8286133-1.1240234-12.0849609.0478516-18.019043-.2324219-6.309082-.296875-12.5708008-1.0361328-18.777832-2.15625 16.8266603-2.680664 33.4375001-4.1376953 50.5200196-2.524414z"/><path d="m134.8748474 166.0988159c2.6630859-14.0078125 5.3261719-28.015625 7.9892578-42.0224609.3583984-1.8867188-2.5322266-2.6953125-2.8930664-.7978516-2.6630859 14.0078125-5.3261719 28.015625-7.9892578 42.0234375-.3588867 1.8867188 2.5322266 2.694336 2.8930664.796875z"/><path d="m233.8943787 120.6115112c-.965332 0-.9667969 1.5 0 1.5.965332 0 .9667968-1.5 0-1.5z"/><path d="m205.5472107 130.2824097c-.965332 0-.9667969 1.5 0 1.5.965332 0 .9667969-1.5 0-1.5z"/><path d="m218.2200623 165.6329956c-.965332 0-.9667969 1.5 0 1.5.965332 0 .9667968-1.5 0-1.5z"/><path d="m233.8943787 140.1203003c.965332 0 .9667969-1.5 0-1.5-.9653321 0-.9667969 1.5 0 1.5z"/><path d="m254.9046326 156.1281128c.965332 0 .9667969-1.5 0-1.5-.9653321 0-.9667969 1.5 0 1.5z"/><path d="m250.5691833 185.6427612c-.965332 0-.9667969 1.5 0 1.5.9653321 0 .9667969-1.5 0-1.5z"/><path d="m221.5550232 192.3126831c-.965332 0-.9667969 1.5 0 1.5.965332 0 .9667969-1.5 0-1.5z"/><path d="m204.5467224 151.1251831c.965332 0 .9667969-1.5 0-1.5-.965332 0-.9667969 1.5 0 1.5z"/><path d="m227.5579529 179.6398315c-.965332 0-.9667969 1.5 0 1.5.965332 0 .9667969-1.5 0-1.5z"/><path d="m235.5618591 195.9816284c-.965332 0-.9667969 1.5 0 1.5.9653321 0 .9667969-1.5 0-1.5z"/><path d="m228.2249451 224.4943237c.965332 0 .9667969-1.5 0-1.5-.9653321 0-.9667969 1.5 0 1.5z"/><path d="m240.2308044 232.9992065c-.965332 0-.9667969 1.5 0 1.5.9653321 0 .9667969-1.5 0-1.5z"/><path d="m238.563324 163.632019c-.965332 0-.9667969 1.5 0 1.5.965332 0 .9667968-1.5 0-1.5z"/><path d="m254.2376404 128.9484253c-.965332 0-.9667969 1.5 0 1.5.965332 0 .9667969-1.5 0-1.5z"/><path d="m252.5701599 109.272644c-.965332 0-.9667969 1.5 0 1.5.965332 0 .9667969-1.5 0-1.5z"/><path d="m253.2371521 219.1583862c.965332 0 .9667969-1.5 0-1.5-.965332 0-.9667969 1.5 0 1.5z"/><path d="m215.5520935 208.9874878c-.965332 0-.9667969 1.5 0 1.5.965332 0 .9667969-1.5 0-1.5z"/><path d="m205.8807068 236.6681519c-.965332 0-.9667969 1.5 0 1.5.965332 0 .9667969-1.5 0-1.5z"/><path d="m221.8885193 246.8390503c.965332 0 .9667969-1.5 0-1.5-.965332 0-.9667969 1.5 0 1.5z"/><path d="m35.4646988 88.928894c-.965332 0-.9667969 1.5 0 1.5.9648437 0 .9663086-1.5 0-1.5z"/><path d="m68.4803238 93.9318237c-.9648438 0-.9667969 1.5 0 1.5.965332 0 .9667969-1.5 0-1.5z"/><path d="m73.4827652 120.444519c-.9648438 0-.9667969 1.5 0 1.5.965332 0 .9667969-1.5 0-1.5z"/><path d="m41.4676285 104.9367065c-.965332 0-.9667969 1.5 0 1.5.9648437 0 .9663086-1.5 0-1.5z"/><path d="m55.4739761 106.9376831c-.9648438 0-.9663086 1.5 0 1.5.9653321 0 .9667969-1.5 0-1.5z"/><path d="m45.9695816 141.9552612c-.965332 0-.9667969 1.5 0 1.5.965332 0 .9667969-1.5 0-1.5z"/><path d="m39.9666519 164.9660034c-.965332 0-.9667969 1.5 0 1.5.965332 0 .9667969-1.5 0-1.5z"/><path d="m24.9593277 124.9464722c.965332 0 .9667969-1.5 0-1.5-.965332 0-.9667969 1.5 0 1.5z"/><path d="m52.4725113 125.9474487c-.9648438 0-.9667969 1.5 0 1.5.965332 0 .9667969-1.5 0-1.5z"/><path d="m31.4627457 144.9562378c.9648438 0 .9667969-1.5 0-1.5-.9653321 0-.9667969 1.5 0 1.5z"/><path d="m29.4617691 191.9796753c-.965332 0-.9667969 1.5 0 1.5.9648438 0 .9667969-1.5 0-1.5z"/><path d="m59.4759293 157.4630737c-.9648438 0-.9663086 1.5 0 1.5.965332 0 .9667968-1.5 0-1.5z"/><path d="m69.9813004 140.4542847c-.965332 0-.9667969 1.5 0 1.5.965332 0 .9667968-1.5 0-1.5z"/><path d="m85.9891129 104.9367065c-.965332 0-.9667969 1.5 0 1.5.9648437 0 .9667968-1.5 0-1.5z"/><path d="m50.4715347 84.4269409c-.9648438 0-.9667969 1.5 0 1.5.9653321 0 .9667969-1.5 0-1.5z"/><path d="m25.959816 96.9328003c-.965332 0-.9667969 1.5 0 1.5.965332 0 .9667969-1.5 0-1.5z"/><path d="m30.4617691 232.49823c.965332 0 .9667969-1.5 0-1.5-.9648437 0-.9667969 1.5 0 1.5z"/><path d="m46.4695816 191.9796753c-.9648438 0-.9667969 1.5 0 1.5.965332 0 .9667969-1.5 0-1.5z"/><path d="m24.4588394 175.4708862c.965332 0 .9667969-1.5 0-1.5-.9648437 0-.9667969 1.5 0 1.5z"/><path d="m45.9695816 237.5011597c.965332 0 .9667969-1.5 0-1.5-.965332 0-.9667969 1.5 0 1.5z"/><path d="m32.9632339 264.013855c.965332 0 .9667969-1.5 0-1.5-.965332 0-.9667968 1.5 0 1.5z"/><path d="m24.4588394 215.9904175c.965332 0 .9667969-1.5 0-1.5-.9648437 0-.9667969 1.5 0 1.5z"/><path d="m42.4676285 216.491394c-.9648438 0-.9667969 1.5 0 1.5.965332 0 .9667969-1.5 0-1.5z"/><path d="m259.0730896 200.4835815c-.9648438 0-.9667969 1.5 0 1.5.965332 0 .9667969-1.5 0-1.5z"/><path d="m214.5516052 267.0148315c.965332 0 .9667969-1.5 0-1.5-.965332 0-.9667969 1.5 0 1.5z"/><path d="m198.5437927 263.513855c.965332 0 .9667969-1.5 0-1.5-.965332 0-.9667969 1.5 0 1.5z"/><path d="m205.5472107 249.507019c.965332 0 .9667969-1.5 0-1.5-.965332 0-.9667969 1.5 0 1.5z"/><path d="m62.9778824 260.5119019c.965332 0 .9667969-1.5 0-1.5-.965332 0-.9667969 1.5 0 1.5z"/><path d="m46.4695816 250.507019c.965332 0 .9667969-1.5 0-1.5-.9648437 0-.9667969 1.5 0 1.5z"/><path d="m55.4739761 271.5177612c.965332 0 .9667969-1.5 0-1.5-.9648437 0-.9663086 1.5 0 1.5z"/><path d="m26.459816 277.5206909c.965332 0 .9667969-1.5 0-1.5-.9648438 0-.9667969 1.5 0 1.5z"/><path d="m33.4637222 248.507019c-.965332 0-.9667969 1.5 0 1.5.9648438 0 .9667969-1.5 0-1.5z"/><path d="m219.5540466 145.4562378c.965332 0 .9667969-1.5 0-1.5-.965332 0-.9667968 1.5 0 1.5z"/><path d="m213.5511169 109.9396362c-.1665039 0-.3334961 0-.5004883 0-.9648438 0-.9667969 1.5 0 1.5h.5004883c.9653321 0 .9667969-1.5 0-1.5z"/><path d="m30.2122574 70.670105v.5c0 .9658203 1.5.9667969 1.5 0 0-.1669922 0-.3330078 0-.5 0-.9648438-1.5-.9667969-1.5 0z"/><path d="m92.4920425 91.9308472c-.9648438 0-.9667969 1.5 0 1.5.9653321 0 .9667969-1.5 0-1.5z"/><path d="m205.5472107 185.975769c.965332 0 .9667969-1.5 0-1.5-.1665039 0-.3334961 0-.5004883 0-.9648438 0-.9667969 1.5 0 1.5z"/><path d="m231.559906 261.5128784c-.965332 0-.9667969 1.5 0 1.5.965332 0 .9667969-1.5 0-1.5z"/><path d="m270.0784607 124.4464722c-.9648438 0-.9667969 1.5 0 1.5.965332 0 .9667969-1.5 0-1.5z"/><path d="m267.3269958 169.7179565c0-.1660156 0-.3330078 0-.5 0-.9648438-1.5-.9667969-1.5 0v.5c0 .9658204 1.5.9667969 1.5 0z"/><path d="m276.0652771 86.9494019c1.3527832-6.7508011-4.3775024-15.3774109-10.2949219-18.1767578-14.9633026-7.0747032-41.5590363-16.4742203-70.7988281-22.4882813-5.0821686-2.228817-7.2983856-7.8442955-9.9023438-12.0615234-1.4931641-2.4199238-5.125-7.7070332-8.9106445-8.8955097-7.0202484-5.2072887-28.1286316-7.161726-35.590332-1.3037109-2.3095703 1.8134766-3.6347656 4.3496094-4.9975586 6.8896484-3.0363617 5.6638699-3.9725342 7.4563313-10.3144455 6.8710957-.2799911-.025322-25.54319-.7583656-48.6494141.3447266-12.0141602.5742188-39.7685547-1.2744141-39.6606445 16.8583984-4.8071289 10.227539 13.6289063 17.5761718 20.2255859 20.6103515 3.218132 1.4749756 6.4642906 3.9526978 14.578125 7.5644531 5.2255859 2.3251953 10.8125 3.9121094 16.2158203 5.4462891 9.8870697 2.8086777 14.4814758 4.615799 17.3867188 4.9160156-.019043.0361328-.0454102.0673828-.0634766.1054688-1.2563477 2.6425781 2.1049805 4.2773438 4.0048828 5.1230469 14.7827835 6.5814056 59.0216904 11.4300461 76.7353439 10.2744141 2.3242188-.1513672 7.3183594-.0800781 9.3125-2.2451172 1.387207-.8203125 3.5019531-1.7050781 5.2714844-2.8232422 21.5732422 1.25 37.5615234.4931641 56.6420898-3.6152344 3.9359131-.847496 8.0921021-1.9302063 11.5302734-3.9814453 3.5083009-2.0927735 6.4770509-5.4082032 7.2797853-9.413086zm-173.1274338-8.5078125c14.0786591-3.7823257 36.1798935.1233749 49.869133 1.8232422 5.7080536.7096405 37.8950806 4.5316925 50.0737305 10.5078125-3.3999023 3.4355469-6.2363281 7.3857422-9.5507813 10.8974609-11.0660553-5.8987732-67.4612732-14.5728455-84.7114182-10.2060547-2.0312499-4.2734375-3.696289-8.7265625-5.680664-13.0224609zm101.3935471 15.133789c.2954102-.3105469.5981445-.6142578.9023438-.9169922.2851562.5400391-.1396485.7910157-.9023438.9169922zm-2.784668 3.1269531c.1230469.0263672.2529297.0419922.3974609.0361328 2.3139648-.0908203 7.3945313-.3095703 7.5092773-3.6982422.0385742-1.1337891-.5917969-2.0605469-1.515625-2.8271484 13.765625-6.1103516 27.5073242-12.2744141 41.2724609-18.3847656 4.1210938 1.6240234 8.2128906 3.3310547 12.2685547 5.1337891 2.4541016 1.0908203 5.953125 2.2001953 7.8374023 4.1855469 4.2773438 4.5058594-2.9711914 8.3251953-6.5336914 9.4658203-6.3359375 2.0292969-13.0976563 3.265625-19.6484375 4.3642578-14.0698242 2.3583984-28.3222656 2.96875-42.5664063 2.8867188.324219-.3896485.6518557-.7753907.9790041-1.1621095zm5.7080078-7.0009765c-9.1228638-6.0660248-36.6151733-10.1903-47.5366211-11.5791016 2.0488281-9.1855469 4.0976563-18.3710938 6.1469727-27.5566406 28.1591797 3.8417969 55.9042969 10.5498047 82.3764648 20.8789063-13.6694336 6.0693359-27.3164062 12.1894531-40.9868164 18.2568359zm-48.2832031-11.6738281c-13.0098724-1.6438293-42.5547714-6.8419418-57.4311447-2.5839844-7.534668-9.4941406-15.0693359-18.9882813-22.6035156-28.4814453 28.7261505-1.2284966 57.4588699-.3594055 86.1821213 3.5058594-2.0488282 9.1865234-4.0981446 18.3730468-6.147461 27.5595703zm-58.7104416 1.7412109c.2729492.5878906.5439453 1.1767578.8061523 1.7695313-.9208984-.5703126-1.2563476-1.1806641-.8061523-1.7695313zm35.8115158-43.6767578c11.1650391-.2558594 22.2211914.734375 33.1621094 3.0244141 1.8837891.3945313 2.6889648-2.4970703.7973633-2.8925781-10.605957-2.2207031-21.3256836-3.2734375-32.1425781-3.1582031 1.9155273-3.5273457 3.4785156-6.9345722 7.8510742-8.352541 6.0805054-1.9706631 20.0112-1.51758 26.3452148 1.6630859 4.2900391 2.1542969 6.0644531 5.8720722 7.746582 10.1503925 1.1108398 2.8242188 2.2792969 5.4755859 4.0170898 7.6416016-16.4580078-2.8945313-33.0737305-4.7744141-49.7485352-5.7802734.6860353-.6308595 1.338379-1.3876954 1.9716798-2.2958985zm-78.3705978 6.2363281c61.83358-5.7031174 132.4671631.0239563 191.9863281 22.9873047 6.8222656 2.6318359 18.9272461 5.4912109 21.2509766 13.3554688-3.8589783-3.3210983-15.6497192-7.6555786-20.659668-9.6337891-55.715416-21.9911499-116.8815994-27.8902779-176.2421875-24.8544922-9.1577148.4677734-24.3701172-.5654297-32.8291016 5.78125 2.9472657-5.2460938 10.4482422-7.078125 16.4936524-7.6357422zm-18.0893555 14.2880859c.0010452-.0011673.3645477-1.2255211 1.4350586-2.4121094 4.1337891-4.5742188 12.0805664-5.6152344 17.7817383-6.0507813 6.2583008-.4785156 12.5234375-.8613281 18.7939453-1.1435547.1708984-.0068359.3422852-.0107422.5136719-.0185547-.0048828.0888672.015625.1816406.0830078.265625 7.5205078 9.4765625 15.0415039 18.953125 22.5620117 28.4296875-2.0263672.6933594-3.6992188 1.765625-4.3056641 3.4941406-1.2211914 3.4814453 3.7592773 5.5146484 6.2265625 6.2851563.0175781.0058594.0332031.0058594.050293.0107422.2480469.5927734.4975586 1.1855469.746582 1.7792969-13.5085601-2.5536422-67.8779029-17.5351028-63.887207-30.6396484z"/></g></g></svg>