<svg id="Layer_1" enable-background="new 0 0 300 300" height="512" viewBox="0 0 300 300" width="512" xmlns="http://www.w3.org/2000/svg"><g id="Privacy"><g><path d="m107.9659042 128.0848694c-10.7363281 14.4204102-12.8959961 33.5639648-5.8300781 50.0639648.3789063.8847656 1.6713867.121582 1.2954102-.7573242-6.8647461-16.0292969-4.565918-34.5869141 5.8300781-48.5493164.5766601-.7749023-.7246094-1.5234375-1.2954102-.7573242z"/><path d="m215.740799 73.3631897c-.2666016-.2177734-.6518555-.2773438-.9589844.0458984-.9594727 1.0087891-1.1503906 2.6396484-.2148438 3.737793.8383789.984375 2.4199219 1.2368164 3.4794922.4682617 1.0458984-.7587891 1.3916016-2.3242188.6499023-3.4116211-.6376953-.9355468-1.9350585-1.2714843-2.9555663-.840332z"/><path d="m196.6807404 223.7655334c-.2666016-.2177734-.6518555-.2773438-.9589844.0458984-.9599609 1.0087891-1.1503906 2.6396484-.2148438 3.737793.8383789.984375 2.4199219 1.2368164 3.4790039.4682617 1.0458984-.7587891 1.3920898-2.3242188.6503906-3.4116211-.6376952-.9355468-1.9350585-1.2714843-2.9555663-.840332z"/><path d="m277.9566345 154.2562561c-.6381836-.9355469-1.9350586-1.2714844-2.9560547-.840332-.2666016-.2172852-.6513672-.2773438-.9589844.0458984-.9594727 1.0087891-1.1503906 2.6396484-.2148438 3.737793.8388672.984375 2.4199219 1.2368164 3.4794922.4682617 1.0458985-.7587891 1.3916017-2.3237305.6503907-3.4116211z"/><path d="m255.940506 201.2401428c-.2666016-.2177734-.6518555-.2773438-.9589844.0454102-.9594727 1.0087891-1.1503906 2.6396484-.2148438 3.737793.8383789.984375 2.4199371 1.2368164 3.4795074.4682617 1.0458984-.7587891 1.3916016-2.3237305.6503906-3.4116211-.6381835-.9355469-1.9355467-1.2714844-2.9560698-.8398438z"/><path d="m262.1783142 104.8993225c-.2666016-.2177734-.6518555-.2773438-.9589844.0458984-.9594727 1.0087891-1.1503906 2.6391602-.2148438 3.737793.8388672.984375 2.4199219 1.2368164 3.4794922.4682617 1.0458984-.7587891 1.3916016-2.3242188.6503906-3.4116211-.6381835-.9360351-1.9355468-1.2719726-2.9560546-.840332z"/><path d="m153.8452911 198.2323303c-.2670898-.2172852-.6518555-.2773438-.9594727.0458984-.9594727 1.0087891-1.1503906 2.6396484-.2143555 3.737793.8383789.984375 2.4199219 1.2368164 3.4790039.4682617 1.0458984-.7587891 1.3916016-2.3237305.6503906-3.4116211-.6376952-.9355468-1.9350584-1.2714843-2.9555663-.840332z"/><path d="m166.7364044 85.2113342c-.2666016-.2177734-.6513672-.2773438-.9589844.0454102-.9594727 1.0087891-1.1503906 2.6396484-.2148438 3.7382813.8388672.984375 2.4199219 1.2363281 3.4794922.4677734 1.0458984-.7587891 1.3916016-2.3237305.6503906-3.4111328-.6381835-.9360352-1.9350585-1.2719727-2.9560546-.8403321z"/><path d="m138.3614044 166.98526c4.53125-12.0507813 2.3671875-25.8427734-5.2446289-36.128418-.5683594-.7670898-1.8706055-.0200195-1.2954102.7573242 5.3413086 7.2172852 7.9667969 15.9770508 7.2949219 24.9628906-.3588867 4.8046875-1.6474609 9.6894531-3.984375 13.9233398-2.7329102 4.9521484-11.3310471 12.1728516-15.19384 3.925293-.4091797-.8735352-1.7026367-.112793-1.2954102.7568359 1.7597656 3.7573242 5.980957 5.1679688 9.8671799 3.8959961 5.1137696-1.6733397 8.0903321-7.408203 9.8515625-12.0932616z"/><path d="m119.0879745 152.4042053c-.5703125-5.8666992.9702148-11.340332 4.5073242-16.0527344.5795898-.7724609-.722168-1.5209961-1.2954102-.7573242-3.6674805 4.8862305-5.3027344 10.730957-4.7119141 16.8100586.0922853.9521485 1.5932619.9619141 1.5000001 0z"/><path d="m123.8570175 108.5409241c.0507813-4.2739258.1020508-8.5483398.1533203-12.8222656.0112305-.9658203-1.4887695-.9663086-1.5 0-.0512695 4.2739258-.1025391 8.5483398-.1533203 12.8222656-.0117187.9658203 1.4882813.9663086 1.5 0z"/><path d="m120.9229355 212.1649475c.4335938-4.796875.8671875-9.5932617 1.3007813-14.3896484.0869141-.9609375-1.4135742-.9550781-1.5 0-.4335938 4.7963867-.8671875 9.5927734-1.3007813 14.3896484-.0869141.9609375 1.4135742.9550781 1.5 0z"/><path d="m103.3184433 204.7010803c-.3476563.9013672 1.1020508 1.2915039 1.4462891.3989258 1.7382813-4.5029297 3.4765625-9.0058594 5.2148438-13.5092773.3481445-.9008789-1.1015625-1.2910156-1.4462891-.3984375-1.7382813 4.5029296-3.4765626 9.0058593-5.2148438 13.508789z"/><path d="m99.8355331 179.066803c-1.7270508 1.6806641-3.4541016 3.3613281-5.1811523 5.0419922-.6933594.6743164.3681641 1.7348633 1.0605469 1.0605469 1.7270508-1.6806641 3.4541016-3.3613281 5.1816406-5.0419922.6928711-.6743165-.3681641-1.734375-1.0610352-1.0605469z"/><path d="m103.3096542 130.8749084c.7514648.5883789 1.8203125-.4658203 1.0605469-1.0605469-1.8466797-1.4458008-3.6938477-2.8911133-5.5405273-4.3369141-.7514648-.5883789-1.8203125.4658203-1.0605469 1.0605469 1.8466797 1.4458009 3.6938476 2.8916016 5.5405273 4.3369141z"/><path d="m110.5528183 120.8661194c.3623047.8798828 1.8144531.4946289 1.4462891-.3989258-1.8325195-4.4448242-3.2856445-8.9946289-4.3701172-13.6787109-.2172852-.9399414-1.6640625-.5419922-1.4462891.3989258 1.0839844 4.684082 2.5375977 9.2333984 4.3701172 13.6787109z"/><path d="m44.4424629 201.4955139c1.7973633 5.6049805 4.0639648 10.9995117 6.8085938 16.2060547.4501953.8544922 1.7451172.097168 1.2949219-.7568359-2.684082-5.0922852-4.8994141-10.3662109-6.6572266-15.8476563-.293457-.9155273-1.7421875-.524414-1.4462891.3984375z"/><path d="m44.5811348 225.4369202c9.7689018 10.1770477 22.6441154 14.3275604 36.5087929 13.9047852.1166992 1.4194336 1.0898438 2.5888672 2.4072266 3.1894531 1.9511719.8896484 4.1572266.1972656 6.0625-.4555664.3911133-.1337891.6259766-.5083008.5239258-.9223633-.2207031-.8916016-.440918-1.7836914-.6616211-2.675293 11.4459381-1.9537506 26.4675827-8.0842285 27.059082-8.4204102 8.1179199-1.2654114 14.746666-6.0213013 20.0839767-12.1811523.1176758.440918.4287109.8325195.9838867 1.012207 17.9384613 5.8040314.5253296 4.1636047 117.1401367 53.4106445 4.8628082-3.7089844 10.414566-7.0927734 16.5522614-10.1000977.4301758.1391602.8603516.2788086 1.2905273.4179688 1.8413086.5957031 2.6298828-2.2998047.7978516-2.8925781-145.3899231-47.0366669-134.6173706-43.660614-135.1777496-43.7709961 5.9894257-7.5908813 10.4322815-17.1077423 13.3735352-26.4799805 11.7836914 20.3012695 32.9394531 34.1616211 57.0141602 33.328125 22.6665039-.784668 42.6655273-14.7827148 53.5400543-34.3232422 17.2954102-31.0800781 10.0581055-74.3935547-16.4624176-96.53125 1.0751953-1.5087891 2.2387695-2.9643555 3.2451172-4.5341797.215332-.3359375.074707-.8359375-.269043-1.0263672-3.1992188-1.7749023-6.3989258-3.5493164-9.5986328-5.3242188-2.8623047-1.5878906-6.2832031-4.2568359-9.4243164-5.1264648-3.3125-.9165039-4.8222656 1.4204102-5.9599609 4.2353516-.0083008.0209961-.0014648.0400391-.0073242.0610352-29.508728-8.5419998-57.9533234 6.3496704-72.5288086 31.9667969-3.8222656-10.6567383-9.7963867-20.1367188-18.8554688-26.378418-2.8149414-1.9394531-5.6274338-3.2158203-8.4067307-3.9511719-.1586227-.1784439-.1055527-.1168976-.2763672-.2641602.1796875-17.4951172-1.515625-34.9599609-1.2983398-52.4560547.0244141-1.9306641-2.9755859-1.9321289-3 0-.2070313 16.6987305 1.3129883 33.3701172 1.2973633 50.0654297-16.9740982-12.5881729-37.7705383-14.541008-58.1430702-2.625-.5253906-1.6479492-.878418-3.3300781-1.0292969-5.0849609-.0366211-.4243164-.4599609-.9287109-.949707-.7231445-2.440918 1.0244141-4.644043 2.3417969-6.6943359 4.0161133-.1831055.1494141-.284668.5087891-.1928711.7294922.7646484 1.8334961 1.5288086 3.6665039 2.293457 5.5-11.2866211 8.6015625-19.8754883 20.6621094-25.6157207 33.5771484-3.3447266 7.5253906-5.0141602 15.2495117-6.5776367 23.2939453-6.9193041 35.594574 5.3311804 71.2614136 20.9555643 87.5385743zm30.1865272-13.9116211c1.4675064.5496521 2.9737167.0258179 3.9360352-1.0234375.288559-.0629578 4.8070831-2.9794769 4.9077148-3.0595703 1.3930664 2.6884766 2.9707031 5.3193359 4.7216797 7.7910156-5.1959686 5.1656494-4.9208908 4.8009644-4.9697266 5.1538086-.6768494.2749023-1.0615692.6846313-1.3427734 1.2084961-2.7597656-3.050293-5.168457-6.4648438-7.2529297-10.0703125zm43.3046875-130.428711c-3.1279297-.012207-6.1777344.6328125-9.1049805 1.7705078-.0532227-.3994141-.1069336-.7988281-.1606445-1.1977539 1.8230133.4618149 3.6318283-1.1745911 3.546875-2.3569336 1.2802734.0678711 2.5844727.2416992 3.9150391.5390625.6079102.400879 1.2099609.8154297 1.8037109 1.2451172zm-10.5253906 2.3647461c-1.9282227.8671875-3.7993164 1.9389648-5.59375 3.1904297-.2304688-.4941406-.4609375-.9882813-.6914063-1.4824219.0102768-1.1707993-.734993-2.1896057-2.4482422-2.4541016 2.6083984-1.4731445 5.3691406-2.550293 8.2802734-3.0771484-.038391.3028641-.0366973.1673508.4531251 3.8232422zm-10.1254883 6.8442383c-.3745117-.7250977-.7485352-1.4506836-1.1225586-2.1757813 1.5253906.2700195 3.2543945-.1088867 4.1884766-1.0869141.078125.1674805.15625.3349609.234375.5029297-1.1347656.8559571-2.234375 1.7822266-3.300293 2.7597657zm-3.8154296-3.9985351c.173027.388855-.7752838-1.6309814 2.6811523 5.0678711-2.3037109 2.2514648-4.418457 4.7519531-6.3076172 7.3759766 1.5525818-2.7094345-1.0828705-4.9341202-4.4594727-4.1821289 2.4506836-3.0185548 5.1499024-5.8608399 8.0859376-8.2617188zm-6.6191407 17.0126953c-.6918945-.8017578-1.3842773-1.6035156-2.0761719-2.4057617 1.5722656.3671875 3.3466797-.0883789 4.5327148-1.4116211-.8735351 1.2524414-1.6918944 2.5288085-2.4565429 3.8173828zm-5.2065429-3.7749024c.0205078.0307617.0268555.0629883.0527344.0927734 1.4536133 1.6845703 2.9077148 3.3691406 4.3618164 5.0541992-2.037674 3.6441345-3.9574432 7.8871918-5.4711914 11.8139648 1.069809-2.7105255-.7467499-4.8339539-3.0332031-5.0727539-1.9306641-.2021484-3.4428711.9477539-4.4291992 2.4589844 2.5368346-5.0877303 5.5852355-10.1434936 8.5190429-14.3471679zm-2.5957032 21.2280274c-.5063477-.4013672-1.0126953-.8027344-1.5185547-1.2041016 1.3540039-.4931641 2.4707031-1.6367188 3.0283203-2.984375-.5317382 1.3818359-1.0346679 2.7783203-1.5097656 4.1884766zm-6.4511718-4.8242188c-.2905273 1.9003906 1.0898438 3.6225586 3.0424805 3.8457031.0710983.2947235-.0949478.1011887 2.9145508 2.4887695-1.421875 4.4345703-2.5698242 8.9912109-3.4467773 13.6210938-2.0801544 0-2.2793198-.0937958-2.5473633.3027344-1.1201172-.9052734-2.7099609-1.2207031-4.0883789-.6977539-.0136719.0053711-.0209961.015625-.0341797.0214844-.2060547-.1914063-.5014648-.2558594-.8041992-.0327148-1.7202148 1.2680664-2.5380859 3.6464844-1.4824219 5.621582 1.0042648 1.8783569 3.6397705 2.8913269 5.7197266 1.7041016.2878342.26297.5345993.1665497 2.1206055.078125-.7368164 5.6899414-1.0791016 11.4467773-1.0317383 17.1816406-2.8864517.2208252-2.7430267.1846008-2.9526367.28125-.9213867-.5717773-2.0639648-.8012695-3.1738281-.6118164-.4414063.0751953-.5810547.4282227-.5195313.7680664-1.6967773.8544922-2.5625038 2.9780273-1.8300781 4.7626953.8420105 2.0503082 3.5990067 2.9906006 5.5708008 1.6987305.232193.105957.0349884.0953217 3.1337891-.2695313.2949219 4.8608398.8725586 9.6777344 1.7241211 14.3964844-.0073242.0024414-.0131836.0004883-.0200195.0029297-1.5595703.5776367-3.1191406 1.1552734-4.6787109 1.7329102-.2441406.090332-.3857422.2651367-.4550781.4624023-1.8764648.1499023-3.5932617 1.5732422-3.7050781 3.5419922-.1088867 1.9052734 1.359375 3.7265625 3.2495117 4.0048828 1.3544922.1992188 2.7211914-.4418945 3.5522461-1.4990234.1171875-.0039063.2382813-.0302734.3642578-.1118164.9814453-.6357422 1.9628906-1.2714844 2.9448242-1.9072266.0166016-.0107422.0229492-.0263672.0385742-.0375977 1.2023621 5.073349 2.5257034 9.4619598 4.5507813 14.3046875-.0605469.0141602-.1201172.019043-.1826172.0507813-5.4241333 2.7567902-5.1070023 2.5385132-5.2597656 2.8037109-1.4077148.2773438-2.6445313 1.2861328-3.0268555 2.6748047-13.2171631-26.8228455-14.5093918-61.2634735.1010742-91.7421875-.0380862.2387695.0468747.4331054.2119138.5581054zm5.9750976 43.8374024c.140625 2.3735352.2817383 4.746582.4223633 7.1201172-.9223633.1499023-1.8447266.2998047-2.7666016.449707-.1630859-2.5996094-.2416992-5.2084961-.2368164-7.8183594.8603516.0825195 1.7207032.1655273 2.5810547.2485352zm-7.237793 1.9213867c.5498047-.0419922 1.0996094-.0839844 1.6494141-.1259766.0244141 1.215332.065918 2.4291992.125 3.6411133-.5673828.0664063-1.1347656.1328125-1.7026367.199707.5602875-1.1432953.6285553-2.5024414-.0717774-3.7148437zm2.3154297 25.4716797c.0170898-1.355957-.7666016-2.5864258-1.8994141-3.309082 1.1455078-.4243164 2.2915039-.8486328 3.4370117-1.2729492.2167969 1.1201172.4477539 2.2348633.6958008 3.3422852-.1489258-.0234375-.3095703-.0063477-.4765625.1020508-.5854491.3793944-1.1713866.7583006-1.7568359 1.1376952zm.5483399-45.7885743c-.2944336.0161133-.5888672.0327148-.8833008.0488281.7365723-1.1808624.9307022-2.6873779.2270508-4.0351563h1.2875977c-.2333985 1.3237306-.4418946 2.6528322-.6313477 3.9863282zm3.3618164 63.4736329c1.2558594-.6381836 2.8275223-1.4369965 3.7700195-1.9160156.46875 1.0664063.9633789 2.1337891 1.4887695 3.1972656-.2127228.0740662.3048477-.2338257-3.3017578 2.0449219.0385743-1.3872071-.7734375-2.6494141-1.9570312-3.3261719zm10.2211914 17.1860351c-.2619019-.7315674-.3233795-.8869781-.4907227-1.0395508-.0537109-.2280273-.2021484-.4316406-.496582-.5136719-.4624023-.128418-.9594727-.2387695-1.4594727-.3027344 1.2519531-1.2446289 2.503418-2.4887695 3.7553711-3.7333984.612793.8173828 1.2451172 1.6137695 1.8984375 2.3847656-1.1713867.9707032-2.2348632 2.0410157-3.2070312 3.2045899zm.2441406 1.8422852c.6459732-.2206879.8210526-1.3247986 3.9487305-3.9257813 1.5449219 1.7094727 3.1928711 3.2763672 4.9472656 4.6445313-.112793.034668-.2236328.09375-.3232422.2124023-3.6866684 4.4044647-3.3318176 3.950592-3.4257813 4.1616211-.441185.2205963-.7691116.4809418-.8500977 1.0849609-2.2338867-1.25-4.3056641-2.7353516-6.2421875-4.3896484.8132631-.2891388 1.7350541-.9286957 1.9453126-1.7880859zm8.7070313 5.6171875c-.4140625-.3764648-.9165039-.6450195-1.4609375-.7729492 2.4033051-2.870697 2.624176-2.9750214 2.5668945-3.4379883.4150391.3012695.8374023.5874023 1.2636719.8652344-.8984375 1.0410156-1.6889649 2.1562499-2.3696289 3.3457031zm1.0190429 3.0146484c.0568848-.5278168.1148758-.9060364-.1000977-1.5844727.7226563-1.3813477 1.5844727-2.6625977 2.6118164-3.8364258.0458984-.0527344.0649414-.109375.09375-.1645508 2.4990234 1.4580078 5.1757813 2.515625 8.0327148 3.0429688-2.9008789 1.0981445-5.8745117 2.1630859-8.8881836 3.1088867-.5917967-.1748046-1.1757811-.3627929-1.7499999-.5664062zm-5.3896484-81.71875c1.4658203-.4106445 2.9311523-.8217773 4.3969727-1.2329102.9282227-.2602539.5336914-1.7075195-.3989258-1.4462891-1.2797852.3588867-2.5600586.7177734-3.8398438 1.0766602.4584961-4.2363281 1.1166992-8.4086914 1.9619141-12.4511719 3.0913086-14.7851563 10.3901367-37.4492188 26.8056641-42.5009766 7.0165939-2.159668 13.2446213.8569336 17.97509 5.6469727-.0654297.074707-.1196289.1660156-.1557617.2788086-1.5380859 4.7861328-3.4331055 9.4145508-5.6962891 13.9038086-.4335938.8598633.8598633 1.6201172 1.2949219.7573242 2.2397461-4.4423828 4.1240234-9.0224609 5.6713867-13.7480469 1.2939453 1.4589844 2.465332 3.0356445 3.4814453 4.6645508 1.2705078 2.0366211 2.387207 4.1577148 3.3740234 6.3413086.1166992.3046875.2392578.6108398.3515625.9140625.7270508 1.9589844 1.3769531 3.940918 1.9672852 5.9379883-2.2783203 2.3383789-4.3261719 4.8686523-6.1367188 7.5864258-.5366211.8056641.762207 1.5576172 1.2954102.7573242 1.5834961-2.3779297 3.3662109-4.5917969 5.3217773-6.6660156 1.3388672 4.8540039 2.296875 9.8037109 2.9301758 14.800293-1.8706055 1.5722656-3.9306641 2.8447266-6.1621094 3.8413086-.8798828.3925781-.1176758 1.6855469.7573242 1.2949219 2.0185547-.9008789 3.8779297-2.0493164 5.6118164-3.3999023.7514648 6.7314453.934082 13.5351563.6762695 20.2910156-.109375 2.1518555-.2680664 4.3774414-.4814453 6.6523438-2.097168.1015625-4.15625-.0585938-6.203125-.4643555.0722656-.425293.1489258-.8466797.2124023-1.2822266 1.0649414-7.3032227.5239258-15.1113281-1.9467773-22.065918-2.0214844-5.6894531-5.9501953-11.0791016-11.5058594-13.9086914-1.2211914-.855957-2.6831055-1.46875-4.4824219-1.7871094-.1147461-.0844727-.2568359-.1411133-.4482422-.1225586-.2275391.0214844-.4458008.0625-.6674805.0947266-.1542969-.1074219-.3510742-.1621094-.5815353-.1176758-5.7089844 1.0996094-11.5097656 1.5600586-17.2753906 2.2612305-.9462891.1147461-.9575195 1.6162109 0 1.5 4.1157227-.5004883 8.2480469-.8862305 12.3544922-1.453125-8.362793 5.8022461-11.1069336 20.9951172-11.5224609 29.546875-.3525391 7.2485352.0776367 14.5908203 3.421875 21.1396484 1.4111328 2.7646484 3.3896484 6.0019531 6.012207 8.1044922-3.7695313-.4316406-7.5522461-.7451172-11.3056641-1.3193359-.9443359-.1445313-1.3515625 1.3007813-.3989258 1.4462891 1.3354874.2043762 15.5093689 1.8630981 15.6279297 1.8618164 2.9681396.6910553 5.7842484-.2908478 8.1879807-2.1635742 3.4052734-1.1435547 6.1464844-3.5239258 7.9702148-5.8745117.0019531.1660156.0732422.3344727.2543945.4770508 2.5112305 1.9794922 5.2700195 3.4697266 8.2929688 4.4858398-2.3354492 7.7055664-5.6870117 15.0102539-10.3847656 21.1113281-1.809082-4.8046875-3.2475586-9.7075195-4.277832-14.75-.1933594-.9448242-1.6396484-.5449219-1.4462891.3989258 1.0986328 5.3769531 2.6513672 10.5986328 4.6362305 15.7084961-1.371582 1.6542969-2.8442383 3.2148438-4.4384766 4.652832-11.1122589 10.0234833-25.0774155 7.9845428-34.3115158-12.2734375-6.7260741-14.7548829-8.3417968-32.0722657-6.7758788-48.506836zm171.9228592 8.0439453c-2.1747742 15.2108154-7.1450195 28.0362701-18.7666168 37.4853516l-4.3432617-1.2895508c0-31.3046875 0-62.6088867 0-93.9135742 16.879898 13.1386719 25.4980621 37.0390625 23.1098785 57.7177734zm-148.9428787 16.4760742c-2.5668945-5.6074219-2.7924805-12.0615234-2.5756836-18.1381836.2207031-6.1860352 1.2075195-12.3955078 3.6025391-18.1289063 2.2280273-5.3320313 6.0844727-12.3325195 12.4536057-13.0571289 10.5717773 1.7207031 13.4990234 18.980957 13.7651367 27.7612305.3032227 10.0073242-2.1489258 24.8481445-11.3354492 30.8432617-7.4936448 4.8901368-13.145012-3.2402343-15.9101487-9.2802734zm26.6767502 2.4472657c2.4702148-4.112793 3.9589844-8.1362305 4.8691406-12.6586914 2.0795898.409668 4.1772461.5830078 6.3056641.4936523-.6879883 5.7788086-1.7807617 11.6918945-3.4145508 17.418457-2.7773438-.9331055-5.34375-2.2900391-7.6508789-4.1083984-.2568359-.2021484-.5473633-.203125-.7924805-.1040039.2480469-.3520508.4794922-.7016602.6831055-1.0410156zm37.9467773-.9038086c-.3066406-.0908203-.6201172-.1938477-.9296875-.2885742-2.1616211-1.7402344-4.1132813-3.7416992-5.7758789-5.9633789-2.7241211-3.6396484-3.7949219-9.3149414-4.5571289-13.7436523-1.3071289-7.5996094-1-15.4677734.6220703-22.9946289 2.0405273-9.4716797 6.1030273-18.6245117 12.1826172-26.1176758v69.565918zm59.7094727 17.730957-56.6674805-16.8276367c0-23.9267578 0-47.8530273 0-71.7792969 7.6957703-8.6734467 17.4821777-13.7158813 27.3857422-15.1958008 10.1013794-.0366974 20.5115814 2.8917236 29.2817383 9.2036133zm-31.9272461-113.824707c21.3999023.484375 40.3530273 13.4912109 50.9467926 31.703125 22.199707 38.1645508 5.3964844 96.730957-41.0600739 106.2412109-27.0634766 5.5400391-52.5517578-9.6904297-65.0541992-33.2958984 1.8037109-6.6513672 2.984375-13.4824219 3.6791992-20.3393555.5712891 2.1147461 1.2397461 4.2075195 2.0244141 6.2641602 8.6811523 22.75 29.9550781 40.4199219 55.0219727 40.0332031 13.1225586-.2026367 26.4555664-5.7392578 36.1733398-14.5014648 10.7519684-9.6943359 15.7714996-23.4770508 17.7407379-37.5112305 3.2444153-22.8816986-8.1884766-52.2965775-30.2788239-64.7290039-30.9925385-17.4427567-71.6640167-.7813339-81.0825195 37.375-.5249023-3.5048828-1.2241211-6.9868164-2.140625-10.4038086-.4428711-1.8598633-.9345703-3.7045898-1.4868164-5.5219727 10.840332-20.7885742 31.4296875-35.8588867 55.5166016-35.3139648zm-71.1225586 12.9804687c-2.5024414-1.609375-5.2866211-2.7382813-8.3706055-3.1108398-17.7538986-2.1445313-28.6425705 19.2231445-33.3286057 33.0097656-7.6435547 22.4868164-8.6816406 49.4570313-.5068359 71.9599609 4.9091797 13.5131836 16.7919922 30.2294922 33.3305664 23.2460938 4.2451096-1.7924805 7.8510666-4.71875 10.9204025-8.2148438-3.5175781 5.0405273-7.7875977 9.3911133-12.9531174 12.6552734-20.0004883 12.6391602-36.6547852-7.6137695-43.1030273-24.9902344-3.4560547-9.3129883-5.5200195-19.3017578-6.2861328-29.4599609 1.0996094-.1787109 2.1992188-.3574219 3.2988281-.5366211.4350586.1049805.9448242-.1171875.9106445-.6884766-.1708984-2.8876953-.3422852-5.7758789-.5136719-8.6640625-.0371094-.6289063-.6899414-.8398438-1.1220703-.644043-.9682617-.0932617-1.9360352-.1865234-2.9038086-.2797852.6089859-43.3025589 24.5302124-84.242012 50.7436523-71.8657227 3.8061448 1.7968752 7.0722581 4.4467776 9.8837816 7.5834963zm-34.7700119-20.3540039c-22.0170898 5.6259766-36.2695313 25.9599609-44.0214882 46.3793945-8.8325195 23.2680664-9.7143555 49.0791016-2.8110352 72.953125.2680664.9257813 1.7158203.5322266 1.4467773-.3984375-6.5195313-22.546875-6.0136719-46.7529297 1.6542969-68.9628906 7.5493202-21.8676758 22.5649452-44.2822266 46.6264687-49.090332 2.7856445.9384766 5.5029297 2.1396484 8.1176758 3.590332-10.8349609-.7080078-20.4282227 6.1733398-27.3134766 14.3081055-42.9303589 50.7244263-24.9194641 128.4248352 11.425293 141.6665039-4.3530273 1.2519531-8.7680664 2.2045898-13.1518555 2.6010742-.0532227-.0629883-.1103516-.1245117-.1938477-.1733398-6.4619141-3.7841797-11.6870117-9.0273438-15.4492188-15.5019531-.4848633-.8344727-1.7817383-.0800781-1.2949219.7568359 3.5825195 6.1655273 8.4926758 11.2607422 14.4658203 15.0834961-7.7851563.3164063-15.4082031-1.2895508-22.3208046-6.296875-15.0439453-10.8964844-23.2119141-30.9926758-26.78125-48.5766602-11.2910841-55.6237945 14.2020914-97.9093933 43.5473672-107.6621094-31.5405312 17.3681641-42.8862343 55.4819336-41.4887733 90.1005859.0390625.9619141 1.5390625.9667969 1.5 0-1.4584961-36.1206054 11.0151367-76.5371093 46.8374062-91.7846679 6.4008789-1.0410156 12.9360351-.671875 19.2055664 1.0078125z"/></g></g></svg>