<svg id="Layer_1" enable-background="new 0 0 300 300" height="512" viewBox="0 0 300 300" width="512" xmlns="http://www.w3.org/2000/svg"><g id="Profile"><g><path d="m272.9165955 234.2631073c-1.1463013-20.6217957-34.9076538-28.1504517-45.7084961-4.3515625-.3288574.7246094-.2287598 1.6279297.5380859 2.0527344 3.8059082 2.109375 7.7185059 3.8847656 11.7080078 5.2685547 3.9821777 2.5830078 11.7451172 5.9414063 14.1040039 6.7285156 20.421051 6.8253326 29.3793335-.2685394 23.4111328-6.8837891-1.1113281-1.2314453-2.5502929-2.0830078-4.0527343-2.8144531zm-18.0097657 3.0927734c-8.3391113-.4443359-16.4482422-3.1201172-24.1762695-7.1992188 6.8713379-12.4541015 24.1767578-6.3164062 24.1762695 7.1992188zm15.0244141-1.7353515c-4.0439453 1.1699219-8.0576172 1.7441406-12.0249023 1.7910156.0913086-10.8271484-9.182373-17.7451172-17.9216309-16.9375 13.5737305-6.9889984 30.1754456 2.4188843 29.9465332 15.1464844z"/><path d="m58.728 249.953-.002-.012"/><path d="m207.6499939 77.6514587c.2709961-1.0751953-.7961426-2.3974609-2.1774902-1.8652344-16.6472168-.6933594-33.2966309-1.3310547-49.9477539-1.9375 2.425293-7.1572266 1.6582031-14.8876915-.8522949-20.1630821-5.762207-12.0195313-18.2368164-17.65625-30.2202148-16.9658203-13.0683594-1.8935547-27.0097656 5.5380859-32.3684082 17.6113281-2.392334 5.390625-2.9821777 11.4472618-2.0070801 17.2539024-20.310791-.6904297-40.6218262-1.3779297-60.9309082-2.1220703-.3098145-.0751953-.6337891-.0703125-.9223633.0214844-.4626465.0009766-.9423828.2148438-1.300293.6953125-2.2272949 2.9882813-5.392334 6.1025391-5.7109375 9.8486328-.0085449.1015625 5.2145996 121.8359375 5.2539063 121.9384766 1.1953125 3.1132813 5.1130371 5.2568359 7.5026855 7.4980469.4978027.4667969 1.4013672.5849609 1.9494629.3896484 21.7521973-1.9111328 43.5273438-3.4912109 65.3164063-4.8583984-.0263672 1.7363281.0183105 4.2636719.2443848 6.3222656-4.2319336.8027344-8.4729004 1.9306641-12.3173828 3.6630859-2.0368652.9189453-5.3266602 2.5419922-5.2141113 5.2617188.2519531 6.0957031 13.8591309 6.3037109 17.6760254 6.5966797 13.9970703 1.0751953 28.4609375.1035156 42.2297363-2.6171875 4.3591309-.8613281 17.5598145-2.5488281 17.9443359-8.9394531.1697235-2.8271484-4.1458282-4.3081055-6.8967285-5.0263672-6.2646484-1.6337891-12.9584961-1.8525391-19.4162598-1.9121094-.375-1.7539063-.7492676-3.5097656-1.1240234-5.2675781 25.2819824-1.3730469 50.5751953-2.5566406 75.8669434-3.7138672 1.1591797-.0556641 2.1213379-.3066406 2.0800781-1.5205078-1.3679201-40.0703125-3.2866213-80.1210938-4.657715-120.1914063zm-91.6142578-36.3203086c13.730957-5.4121094 29.5561523.46875 35.9970703 13.7734375 5.2927246 13.0429649-.6738281 27.3847618-13.5407715 33.1289024-13.5578613 6.0439453-30.8635254.5820313-37.0908203-13.2519531-6.010498-13.3525353 1.373291-28.4248009 14.6345215-33.6503868zm13.5317383 172.6240196c-9.0186462 1.1898499-11.1044617 1.0949554-17.5397949 1.5585938-1.5336914.1103516-2.9331055.6503906-3.6247559.1816406.0510254-3.7109375.1157227-7.4238281.1323242-11.1357422 7.5979004-.4609375 15.1970215-.8994141 22.7978516-1.3173828.6914063 3.2470703 1.3840332 6.4853516 2.0749512 9.7255859-.4465333.8515625-2.058838.7529297-3.8405762.9873047zm-92.6696778-7.1826172c-.1933594-58.4970703-3.6401367-96.6210938-6.4157715-134.2617188 20.0866699.7333984 40.175293 1.4140625 60.2636719 2.0966797 1.0009766 3.7441406 2.6489258 7.3115234 4.9172363 10.4335938-17.7216797-.7568359-35.4348145-1.6953125-53.1352539-2.8574219-1.4660645-.0966797-2.0705566 2.1376953-.7570801 2.7949219-.9492073-.476387 4.5876808 48.1291504 5.3737793 108.6416016-.8664513 1.3562927 1.031826 3.2693176 2.4509277 2.15625 49.7617188-3.5654297 99.536377-6.9853516 149.4023438-8.703125 1.925293-.0664063 1.934082-3.0664063 0-3-49.6882324 1.7119141-99.2858887 5.1132813-148.8703613 8.6650391-.0827637-6.0078125-.2231445-12.0136719-.3974609-18.0195313 30.3676758-3.2685547 102.8059082-3.234375 132.4145508-6.5625.670166-1.7988281 1.5490723-3.2558594 2.3457031-4.8486328.9304199-.0332031 1.8605957-.0664063 2.7907715-.0996094.920166-.0322266 1.7719727-.9394531 1.4465332-1.8984375-5.3105469-15.6484375-11.5634766-31.9902344-24.703125-42.8076172-21.9139709-18.0401001-61.4808578-22.4107819-88.5012207 5.6337891-12.7700196 13.2539062-20.5830078 30.508789-25.8688965 48.1757812-1.0450706-33.7107849-4.9273834-86.8930054-4.9375-86.9931641 17.8474121 1.1542969 35.7075195 2.0839844 53.576416 2.8291016 10.2414551 10.5996094 27.5297852 11.5429688 38.9523926 3.7558594 1.763916-.5898438 3.4916992-1.3554688 5.1628418-2.3017578 16.9416504.4130859 33.8864746.6582031 50.8330078.7597656.0749512 27.6289063 2.199707 55.1660156 3.826416 82.7314453.1130371 1.9189453 3.1140137 1.9326172 3 0-1.6557617-28.0605469-3.8400879-56.0908203-3.8400879-84.2197266 0-.8134766-.6872559-1.4951172-1.5-1.5-16.0322266-.0878906-32.0627441-.3134766-48.0908203-.6777344 3.3354492-2.7519531 5.9384766-6.1425781 7.7016602-9.890625 16.7858887.609375 33.5703125 1.2529297 50.3525391 1.9501953 1.3518066 39.2246094 3.2116699 78.4287109 4.5634766 117.6533203-57.4985353 2.6308595-115.0073243 5.3535157-172.3566896 10.3642579zm25.0925293-42.0986328c7.9829102-27.0517578 30.6743164-55.2148438 60.7287598-56.8583984 14.4333496-.7900391 29.4130859 4.34375 40.3508301 13.7939453 11.541748 9.9716797 17.3039551 24.578125 22.1401367 38.6728516-4.2022705.149826-119.0233383 4.2424316-123.2197266 4.3916015z"/><path d="m232.1055603 236.4427948c-6.1772461-3.5175781-12.4494629-6.8535156-18.8154297-10.0175781-7.8239288-3.8873901-4.038681-2.686203-15.8969727-1.5859375-54.084137 5.0073547-89.637886 8.2996826-139.217041 12.890625-2.1115532.1955414-1.3803558 3.3948822-.8395996 3.9384766.4616699 2.7558594 1.1503906 5.8164063 1.3896484 8.2724609 4.699707 3.9921875 9.8855019 9.9775543 14.8347206 13.6328278h.166748c27.7072754-2.0878906 56.0717697-4.9560547 84.3527756-8.1386871 48.9091644-2.1421967 70.1903839-5.3166351 85.9777832-5.6503906.46875-.0097656.6691895-.59375.3168945-.9023438-4.861084-4.2617188-7.9829102-7.7109375-11.5407715-10.8193359.0619547-.6744386-.1377982-1.2835084-.7287558-1.6201173zm-27.7514648-9.2480469c3.4919434-.3232422 4.2883301.2636719 7.421875 1.8212891 7.7258148 3.8408051 10.1510773 5.3247375 15.5314941 7.875-6.8557129.7949219-13.7092285 1.6083984-20.5615234 2.4326172-3.859375-2.3720703-7.7497559-4.6923828-11.6062012-7.0683594-1.6481934-1.015625-3.1567383 1.578125-1.5141602 2.5898438 2.7597656 1.7011719 5.5344238 3.3769531 8.3054199 5.0585938-38.3183594 4.6213226-78.8317337 9.6298828-117.0642014 11.5986328-14.1302719.7210388-7.4190063 2.193512-16.5273438-4.8974609-2.588623-2.015625-5.170414-4.0361328-7.7187538-6.1015625 83.3460046-7.7152559 135.6749994-12.5639497 143.7333948-13.3085939z"/><path d="m76.2276382 244.8041229c.182373-.0585938.3647461-.1181641.5473633-.1777344.7700195-.2519531 1.2695313-1.0380859 1.0476074-1.8457031-.2072754-.7548828-1.0717773-1.2998047-1.8452148-1.0478516-.182373.0595703-.3649902.1191406-.5473633.1787109-.7697754.2519531-1.2695313 1.0380859-1.0476074 1.8457031.2075195.7548829 1.0717773 1.2998048 1.8452148 1.0468751z"/><path d="m88.2598648 243.406662c.3642578-.0615234.7282715-.1220703 1.0922852-.1835938.7995605-.1347656 1.246582-1.1210938 1.0478516-1.8447266-.2329102-.8476563-1.043457-1.1826172-1.8452148-1.0478516-.3642578.0605469-.7282715.1220703-1.0922852.1835938-.7995605.1337891-1.246582 1.1210938-1.0478516 1.8447266.2329101.8476563 1.043457 1.1826172 1.8452148 1.0478516z"/><path d="m83.3433609 249.0511932c.3640137-.0605469.7280273-.1220703 1.0922852-.1826172.7993164-.1347656 1.246582-1.1220703 1.0476074-1.8457031-.2329102-.8476563-1.0432129-1.1826172-1.8452148-1.0478516-.3640137.0615234-.7282715.1220703-1.0922852.1835938-.7995605.1347656-1.246582 1.1220703-1.0476074 1.8457031.2329101.8466797 1.0432128 1.1816407 1.8452148 1.046875z"/><path d="m108.2850113 241.5521698c.5463867-.1210938 1.0925293-.2431641 1.638916-.3642578.7910156-.1757813 1.2546387-1.0917969 1.0476074-1.8447266-.223877-.8154297-1.0517578-1.2246094-1.8452148-1.0478516-.5461426.1210938-1.0925293.2421875-1.638916.3642578-.7910156.1757813-1.2543945 1.0917969-1.0476074 1.8447266.2238769.8154297 1.0517578 1.2236328 1.8452148 1.0478516z"/><path d="m127.7349625 239.2386932c.606926-.0605469 1.2138596-.1220703 1.8207932-.1826172.7785645-.0771484 1.5390625-.6337891 1.5-1.5-.0332031-.7451172-.6635742-1.5830078-1.5-1.5-.6069336.0605469-1.2138672.1220703-1.8207932.1826172-.7783203.0771484-1.5388184.6337891-1.5 1.5.0334472.7451172.6638183 1.5830078 1.5 1.5z"/><path d="m148.54599 237.7894745c.4250488-.1210938.8500977-.2421875 1.2751465-.3623047.7792969-.2216797 1.2636719-1.0595703 1.0476074-1.8457031-.2138672-.7783203-1.0629883-1.2695313-1.8449707-1.0478516-.4250488.1210938-.8503418.2421875-1.2751465.3623047-.7792969.2216797-1.2636719 1.0605469-1.0478516 1.8457031.2141114.7783203 1.0632325 1.2695313 1.8452149 1.0478516z"/><path d="m170.9322205 235.3890839c.3034668-.0615234.6069336-.1230469.9101563-.1845703.7944336-.1601563 1.251709-1.1025391 1.0476074-1.8447266-.2272949-.8271484-1.0483398-1.2089844-1.8449707-1.0478516-.3034668.0615234-.6069336.1230469-.9101563.1835938-.7944336.1611328-1.251709 1.1035156-1.0478516 1.8457031.2272949.8261719 1.048584 1.2089844 1.8452149 1.0478516z"/><path d="m119.9505386 245.234787c.666748-.1855469 1.3337402-.3701172 2.0007324-.5546875.7805176-.2167969 1.2626953-1.0634766 1.0476074-1.8457031s-1.0617676-1.2646484-1.8452148-1.0478516c-.666748.1855469-1.3337402.3701172-2.0007324.5556641-.7805176.2158203-1.2624512 1.0625-1.0476074 1.8447266.2150879.783203 1.0617676 1.2646484 1.8452148 1.0478515z"/><path d="m141.0625916 243.3734589c.4248047-.1220703.8498535-.2431641 1.2746582-.3642578.7790527-.2226563 1.263916-1.0585938 1.0476074-1.8457031-.213623-.7773438-1.0634766-1.2705078-1.8452148-1.0478516-.4248047.1220703-.8496094.2431641-1.2744141.3642578-.7790527.2226563-1.263916 1.0585938-1.0478516 1.8457031.2138672.7773437 1.0634766 1.2705078 1.8452149 1.0478516z"/><path d="m160.6946716 240.8773651c.5461426-.0605469 1.0925293-.1210938 1.638916-.1826172.7770996-.0859375 1.5390625-.6279297 1.5-1.5-.0332031-.7382813-.6647949-1.5927734-1.5-1.5-.5463867.0615234-1.0927734.1220703-1.638916.1826172-.7773438.0859375-1.5390625.6279297-1.5 1.5.032959.7382813.664795 1.5927734 1.5 1.5z"/><path d="m180.7598572 239.5492401c.4855957-.1220703.9711914-.2431641 1.4567871-.3642578.7861328-.1962891 1.2587891-1.0771484 1.0476074-1.8457031-.2192383-.7978516-1.0566406-1.2441406-1.8449707-1.046875-.4855957.1210938-.9711914.2421875-1.4567871.3642578-.7861328.1962891-1.2587891 1.0771484-1.0478516 1.8447266.2197266.7988281 1.0566407 1.2451171 1.8452149 1.0478515z"/><path d="m98.2696304 247.743576c.4855957-.1210938.9711914-.2431641 1.4567871-.3642578.7861328-.1962891 1.2585449-1.0771484 1.0476074-1.8447266-.2194824-.7988281-1.0566406-1.2451172-1.8452148-1.0478516-.4853516.1210938-.9711914.2421875-1.456543.3642578-.7861328.1962891-1.2587891 1.0771484-1.0478516 1.8447266.2194825.7988282 1.0566407 1.2451173 1.8452149 1.0478516z"/></g></g></svg>