<svg id="Layer_1" enable-background="new 0 0 300 300" height="512" viewBox="0 0 300 300" width="512" xmlns="http://www.w3.org/2000/svg"><g id="Project_Overview"><g><ellipse cx="166.745" cy="254.296" rx="87.833" ry="9.167"/><path d="m278.8368835 127.2803345c-10.1777344-8.3232422-20.824707-16.8798828-32.163559-24.0517578-6.9562683-31.8923035-30.1893311-53.4084854-53.8730469-57.8642578-69.2834472-33.5049468-144.9019049 34.1506805-118.3051757 105.7607421 3.5649414 9.5986328 8.8232422 18.3242188 15.3588867 25.8798828-.4887695-.2099609-1.0751953-.1748047-1.5683594.3085938-5.9599609 5.8378906-11.7749023 11.8212891-17.7177734 17.6757813-.418457-1.1484375-.7578125-2.3447266-.9921875-3.59375-.3393555-1.8105469-2.7578125-1.1298828-2.9462891.3984375-.2198334 1.7806549-6.1475906 5.0591888-45.296875 47.4707031-.418457.4541016-.4941406.9882813-.3525391 1.4501953-2.4008789 9.4824219 7.6484375 19.1357422 16.3388653 16.5351563 5.9121094.0986328 11.1220703-1.4970703 16.4692383-5.1582031 15.4882851-10.6064453 25.8100624-24.9267578 38.1250038-39.0957031-1.4423828-1.8837891-1.7460938-5.0439453-3.1040039-6.984375 5.5673828-4.1904297 9.5898438-7.5849609 16.5249023-12.8642578.0009766.0009766.0014648.0019531.0024414.0029297 19.7792816 21.1586456 94.4084015 34.636322 130.5200195-24.1201172h.0097656c13.3966522-6.9629974 26.4744415-16.4693146 38.0400238-26.4599609.5893555-2.6230469 1.7407227-7.0546875 2.190918-10.6933594.9296875-.7988281 1.8603516-1.5966797 2.7895508-2.3955078.7427045-.6390688.5835554-1.6847002-.0498065-2.201172zm-61.009262 30.8291015c-.0087891-.0195313-.0185547-.0380859-.0273438-.0576172 8.1181641-7.0869141 12.7558594-17.3808594 12.7558594-28.4814453 0-20.4425201-15.8822937-37.1699219-35.6201172-37.1699219-19.640625 0-35.6191406 16.6748047-35.6191406 37.1699219 0 13.0087891 6.5678711 25.0683594 17.1953125 31.78125-40.4539032-5.9244537-62.4818726-30.8946991-62.5908203-30.9873047 19.9111328-22.2460938 46.2421875-40.4755859 77.0058594-41.6044922 33.1083984-1.2148438 60.2583008 19.796875 84.5951996 39.6679688-.1029054.0882111-39.1388703 23.6650543-57.694809 29.6816406zm-109.0742188-71.555664c13.3256836-14.9179688 33.6162109-23.1640625 53.6035156-22.375 18.5415039.7324219 36.5375977 9.0859375 49.5458984 22.3193359.328125.5195313.6474609 1.0458984.9624023 1.5761719-7.0292969-1.7314453-14.3291016-2.59375-21.9379883-2.3144531-32.1577148 1.1796875-59.7197266 20.3476563-80.3017578 43.7998047-.7963867.9082031-.4072266 2.0800781.6621094 2.5078125.203125.0810547.4360352.2548828.6870117.4892578 3.5864258 6.8056641 7.4287109 11.9140625 10.9819336 18.9335938 19.2211609 15.0121002 37.1590729 25.2259979 61.3564453 27.7939453-58.2273253 27.5921935-124.7812155-37.6309357-75.5595702-92.7304688zm93.5546875 61.4677734c-11.7941284.1764069-20.3830261-10.2243805-19.8242188-21.5478516.5834351-10.521904 8.688736-18.6356201 18.9189453-19.2314453 9.9359741-.3051987 18.991745 7.8243179 19.9736328 19.0585938v.0009766c.1354371 11.9816284-8.4277953 21.4142608-19.0683593 21.7197265zm-45.3994141-108.2919922c34.71875.7568359 65.4472656 23.5136719 76.7329102 56.1210938-5.3959961-2.6816406-10.9526367-4.9472656-16.6899414-6.6552734-11.1503906-20.7880859-31.9365234-34.8251953-55.5664063-36.7607422-22.0561523-1.8076172-44.2749023 7.328125-58.4985352 24.3232422-14.1967773 16.9619141-19.4267578 40.140625-13.637207 61.5449219 11.3814087 42.0777283 59.9876862 64.1208038 100.6411133 41.4169922 9.2822723.4512939 17.4418335-.3223419 26.8574219-3.0029297-38.9654999 43.0204315-109.1152878 33.5419922-135.4663086-17.5800781-28.1750068-54.6588517 12.6863327-120.7791864 75.6269531-119.4072267zm-66.5019531 139.7050781c.4311523-.421875.5209961-.9189453.3989258-1.3613281 2.1635742 2.4189453 4.4594727 4.7128906 6.8754883 6.8710938-.081543.0566406-.1621094.1210938-.2397461.2001953-19.6473694 19.9576721-18.9499664 18.987442-19.1958008 19.5849609-2.6787109-1.6943359-4.8222656-4.0332031-6.3579102-6.8242188 6.2241211-6.1064452 12.2905274-12.3691406 18.519043-18.4707031zm-66.2871113 61.2382813c37.0726318-40.1192169 41.3161545-42.3909454 43.5117188-44.9316406 2.2578125 6.4990234 7.152832 11.5986328 13.7460938 13.7744141-12.5782089 13.9674835-24.4608116 26.2545166-36.2783241 37.7373047-2.0478516 1.9902344-4.7006836 5.7304688-7.2460938 6.9228516-3.5415039 1.6582031-8.4843731-.3623047-11.060545-2.8740234-3.1469708-3.0693361-4.0434551-6.5312502-2.6728497-10.6289064z"/></g></g></svg>