<svg id="Layer_1" enable-background="new 0 0 300 300" height="512" viewBox="0 0 300 300" width="512" xmlns="http://www.w3.org/2000/svg"><g id="Remote_work"><g><path d="m222.5708618 24.519165c-10.1973572-.6096897-21.5446777.9929771-30.7036133 5.6977539-23.4354401 12.0366936-33.5429993 38.3835678-28.1220703 61.4619141 5.9234467 25.21698 29.6875305 45.3253632 59.3720703 43.1533203 7.6393585.0904083 15.9317169-1.5918121 20.3793945-3.3071289 20.300293-7.8208008 35.1635742-27.1762695 35.9438477-49.1611328.999878-28.1899605-19.0254822-55.5805473-56.8696289-57.8447266zm17.0429688 5.8588868c-4.6748505 5.9566498-13.5963593 6.9394035-19.472168 1.3012695-.6308594-.6054688-1.7148438-2.578125-2.6728516-2.8540039.1015625-.1430664.2143555-.2871094.3374023-.4331055 7.2998963-.8819389 14.6590882-.2348461 21.8076173 1.9858399zm-66.1420899 46.5668945c2.340332-1.2207031 5.3945313.3188477 5.4555664 3.1494141.0371094 1.7001953-1.0390625 2.9555664-2.4145508 3.4477539 1.9561005-2.0298005-.6679229-5.9807816-3.0410156-6.597168zm62.8393555 53.4970703c-15.3672028 2.469986-31.161087-.7795715-44.0727539-10.527832-10.7253571-9.0157852-18.1793976-21.0158768-19.734375-35.4331055 3.3720703 1.9345703 7.9882813-.1235352 7.9233398-4.3867188-.0644531-4.2646484-4.7768555-6.2929688-8.1186523-4.1796875 1.509552-23.9467239 19.8076172-43.4530945 43.5092773-47.2446289-2.840332 5.418457 5.925293 9.6601563 10.4907227 10.6826172 6.4926758 1.4545898 15.0185547-.6630859 15.4614258-8.2524414 18.6650391 6.7119141 32.1962891 23.6274414 34.3876953 43.6518555 2.8355102 25.9105225-15.3773194 50.3433609-39.8466797 55.6899414z"/><path d="m211.894104 104.1676025c-5.4273834-3.9581833-12.9013367-.754303-14.1772461 4.9394531-.9238281 3.4833984.2539063 7.4482422 3.3227539 9.6391602 3.394043 2.4233398 7.9379883 1.6845703 10.7226563-1.1518555.2392578-.1503906.4628906-.3164063.6728516-.4912109.262207.206543.6201172.2470703.8886719-.0976563 3.1054687-3.9858398 2.817871-9.7392577-1.4296876-12.8378906zm1.112793 10.6528321c-.8564758-.5825577-2.8546906-.0006409-3.8046875.1464844-3.6479492.5620346-6.6647949-1.1975784-7.6733398-3.8085938-.4289551-1.1092148-.6045074-3.0151672-1.4506836-3.7470703 5.3549804-7.9487305 17.4042968-.4350586 12.9287109 7.4091797z"/><path d="m208.5484009 63.2462158c.2236328-.1459961.3183594-.3515625.3339844-.5610352.2617188.1933594.6132813.2275391.8833008-.1025391 1.6035156-1.9589844 1.3911133-4.8588867-.4921875-6.5981445-2.168457-2.0029297-5.7470703-1.6435547-7.9379883.1103516-2.0463867 1.6391602-3.1230469 4.7895508-1.2568359 6.9760742 2.2456054 2.631836 5.9233398 1.8378907 8.4697265.175293zm-6.0424805-6.1694336c1.4287109-.9951172 3.5097656-1.3212891 5.0800781-.4643555 1.5771484.8603516 2.2597656 3.0083008 1.3427734 4.5512695.2127533-1.504425-1.3769684-2.9843102-3.9165039-2.3300781-1.2822266.3305664-3.6552734 1.6386719-3.7529297 3.2402344-1.2319335-1.5483398-.427246-3.8315429 1.2465821-4.9970703z"/><path d="m245.3408813 74.0797119c-6.7988281 5.0493164-7.6430664 14.2573242-3.5957031 21.3422852 3.8066406 6.6621094 12.6318359 11.5634766 19.1376953 5.5302734.7094727-.6577148-.3535156-1.7167969-1.0605469-1.0605469-2.7773438 2.5756836-5.8208008 2.9711914-8.6381836 1.9692383-.781662-2.1240234-5.6759186-7.4362259-4.2104492-16.2607422.8330078-5.0110397 3.6836395-9.5429001 7.6630859-12.4711914.1053162.0410767 6.763092.1996155 10.3417969 7.4697266 3.394043 6.8964844.6040039 14.7583008-3.9624023 20.3334961-.6069336.7412109.4487305 1.8081055 1.0610352 1.0605469 5.6166992-6.8574219 8.402832-16.7109375 2.7851563-24.4726563-4.612793-6.3735352-13.0688477-8.2324219-19.5214845-3.4404297z"/><path d="m246.1694946 58.9415283c.9067383-.3129883.5170898-1.7626953-.3989258-1.4462891-1.777832.6142578-3.8671875-.2509766-4.5317383-2.0615234-.3300781-.8989258-1.7802734-.5102539-1.4467773.3989258.9326172 2.5395508 3.7783203 4.0068359 6.3774414 3.1088867z"/><path d="m229.7827759 124.1778564c-.515625.8193359.7817383 1.5732422 1.2954102.7573242 1.1152344-1.7724609 3.5458984-2.0942383 5.1850586-.8808594.7768555.5751953 1.5253906-.7265625.7573242-1.2949219-2.315918-1.7143554-5.722168-.9892577-7.237793 1.4184571z"/><path d="m206.8887329 83.8624268c.7617188-.5732422.0151367-1.8764648-.7573242-1.2954102-1.6313477 1.2275391-2.1601563 3.4091797-1.1484375 5.2158203.4716797.8422852 1.7675781.0869141 1.2954102-.7573242-.5791016-1.0336914-.3623047-2.4316406.6103515-3.1630859z"/><path d="m186.2368774 57.2330322c-.0268555 1.0644531-.5322266 2.0532227-1.4101563 2.6679688-.784668.5493164-.0361328 1.8505859.7573242 1.2949219 1.3232422-.9267578 2.1113281-2.340332 2.152832-3.9628906.0249025-.9658204-1.4750975-.9648438-1.4999999-.0000001z"/><path d="m129.6900024 134.3087158c-1.9301758 0-1.9335938 3 0 3 1.9301758 0 1.9335938-3 0-3z"/><path d="m71.8413696 136.7779541c1.9306641 0 1.9335938-3 0-3-1.9301758 0-1.9335937 3 0 3z"/><path d="m65.4727173 112.8956299c1.9306641 0 1.9335938-3 0-3-1.9301758 0-1.9335938 3 0 3z"/><path d="m142.6592407 122.7325439c1.01474-.1561127.6672668-1.6104736-.4379883-1.4404297-.3261719-.1835938-.7607422-.1352539-.9794922.1479492-24.3428955 3.8036346-48.4208679 6.520462-74.171875 8.1123047-.8959961.0556641-5.1166992-.1616211-5.8310547.3388672-1.5834961 1.1088867-.5844727 2.3588867-.1411133 4.3359375 1.2495117 5.5751953 2.2407227 11.2075195 3.0917969 16.8564453.4379883 2.9072266 4.1914063 37.0498047 4.7275391 36.984375-.7548828.0922852-1.112793 1.3105469-.1992188 1.4731445 22.546875 4.0180664 46.0629883.7045898 67.5302734-6.8632813 2.3212891-.8188477 8.4404297-1.9604492 9.8466797-4.159668.7919922-1.2387695-.0297852-4.0717773-.1166992-5.3950195-.1503143-2.2798918-3.1692809-48.1196898-3.3188476-50.3906249zm2.1401367 55.0288086c-.5107422.8544922-4.0620117 1.6513672-5.0166016 2.0180664-21.9316101 8.4247589-46.7042542 12.411911-69.9799805 8.4243164-4.8587494-55.4195404-7.9354744-50.6784821-7.4418945-55.1757813.300293-2.7382813 5.2255859-2.0043945 7.6235352-2.1616211 23.8374023-1.5610352 47.5869141-4.2348633 71.1899414-7.9082031 3.6115112 54.8612213 3.1136932 47.3780823 3.3671875 51.1318359.046875.6923829.6040039 3.091797.2578125 3.6713868z"/><path d="m101.7446899 249.0030518c14.6972656-4.1875 29.394043-8.3754883 44.0908203-12.5634766.9267578-.2641602.5327148-1.7119141-.3984375-1.4462891-14.6972656 4.1879883-29.394043 8.3754883-44.0908203 12.5634766-.9267578.2641602-.5327148 1.7119141.3984375 1.4462891z"/><path d="m145.5889282 242.6383057c-9.8261719 2.3046875-19.4926758 5.1318359-29.0117188 8.4863281-.9042969.3188477-.5151367 1.7685547.3984375 1.4462891 9.5195313-3.3540039 19.1855469-6.1816406 29.012207-8.4863281.9394532-.2202149.541504-1.6669923-.3989257-1.4462891z"/><path d="m101.6729126 275.6046143c28.105957-9.644043 56.2275391-19.5600586 84.3310547-29.2133789.3061523-1.3598633.6098633-2.5888672.9145508-3.8642578.0268555-.0087891.0537109-.0175781.0805664-.0258789 1.1845703.0825195 2.2924805-1.4682617 1.2128906-2.5551758-7.0717773-7.1196289-14.2172852-14.1313477-22.0898438-20.3710938-.3144531-.453125-.8579102-.7285156-1.5507813-.5263672-29.96875 8.7490234-60.2436523 16.3779297-90.2167969 25.1103516-.371582-.0478516-.7128906.0820313-.9799805.3183594-1.2583008.6665039-.793457 2.6816406.5180664 2.8212891.1044922.0727539.2070313.1474609.3110352.2202148.1972656 1.5454102.2646484 3.1074219.1982422 4.6640625 9.2338868 8.0190429 18.0371095 15.402832 27.2709962 23.421875zm46.7236328-48.8305664c6.9750977 5.6230469 13.2695313 11.9350586 18.8793945 18.9121094-21.8041992 7.1831055-43.4584961 14.8188477-65.3837891 21.6337891-7.3085938-7.8320313-15.5004883-14.7666016-24.2036133-20.996582 23.4936524-6.7934572 47.1572267-12.9648439 70.7080079-19.5493165zm16.1850586-4.6064454c1.8745117 1.5014648 3.7109375 3.0429688 5.5126953 4.6220703-1.9384766.7519531-3.8769531 1.5039063-5.8154297 2.2558594-.9023438-1.0742188-1.8041992-2.1489258-2.706543-3.2231445-.621582-.7402344-1.6777344.3256836-1.0605469 1.0605469.7651367.9111328 1.5302734 1.8227539 2.2949219 2.7338867-5.0324097 1.9513397-5.9631653 2.3089447-6.1337891 2.3876953-2.1025391-1.9794922-4.2788086-3.8847656-6.5234375-5.7207031 4.8164063-1.3515625 9.6289063-2.7177735 14.432129-4.116211zm19.6713867 18.0576172c-5.1660156 1.6162109-10.3173828 3.2763672-15.4594727 4.9648438-3.3901367-4.2666016-7.0371094-8.284668-10.9350586-12.0527344 1.9873047-.7709961 3.9750977-1.5419922 5.9624023-2.3129883 1.5268555 1.8183594 3.0541992 3.637207 4.5810547 5.4555664-.7641602.3217773-1.527832.6435547-2.2915039.9648438-.8764648.3691406-.4912109 1.8212891.3984375 1.4467773.9648438-.40625 1.9296875-.8125 2.8945313-1.21875 1.1118164 1.3242188 2.2236328 2.6484375 3.3359375 3.9726563.6210938.7402344 1.6777344-.3256836 1.0605469-1.0605469-.9853516-1.1733398-1.9702148-2.3461914-2.9550781-3.519043 1.3310547-.5605469 2.6621094-1.1210938 3.9931641-1.6816406.8764648-.3691406.4912109-1.8212891-.3984375-1.4462891-1.5322266.6450195-3.0639648 1.2900391-4.5961914 1.9350586-1.5166016-1.8066406-3.0336914-3.6132813-4.550293-5.4194336 2.0185547-.7832031 4.0371094-1.5664063 6.0556641-2.3496094 4.4370117 3.9580079 8.6958007 8.1083985 12.9042968 12.3212891z"/><path d="m91.4902954 161.0777588c.0305328-.107605.2701645-15.410141-2.1079102-23.097168-.0878906-.2836914-.3955078-.5908203-.7231445-.5507813-.9508209.1163177-17.9893341 2.2026825-18.6933594 3.3344727-.8305664 1.3344727.9111328 4.9467773 1.1875 6.2587891 1.159668 5.5087891 1.6591797 11.0751953 1.7084961 16.6958008.003418.4213867.3413086.7280273.75.75 6.0366211.3261719 12.2573242-.6679688 18.1381836-1.9423828.8930664-.1938477.5756836-1.4838868-.2597656-1.4487305z"/><path d="m128.0772095 139.1588135c-9.7045898 2.5-19.5263672 3.6494141-29.5439453 3.4643555-.965332-.0180664-.965332 1.4819336 0 1.5 10.1455078.1870117 20.1186523-.9868164 29.9428711-3.5180664.934082-.2407227.5380859-1.6879883-.3989258-1.4462891z"/><path d="m125.4619751 150.5914307c-7.3603516 2.0258789-14.8164063 3.3344727-22.4306641 3.9199219-.9560547.0732422-.9643555 1.5737305 0 1.5 7.746582-.5957031 15.3364258-1.9111328 22.8295898-3.9736328.9296876-.2558594.5351563-1.7031251-.3989257-1.4462891z"/><path d="m118.9976196 162.9923096c-2.9492188 1.1391602-5.9760742 1.7358398-9.1396484 1.7773438-.9643555.0126953-.9672852 1.5126953 0 1.5 3.2944336-.0429688 6.4628906-.6430664 9.5385742-1.8310547.890625-.3442383.5039063-1.7949219-.3989258-1.4462891z"/><path d="m210.3994751 238.303833c4.8295898.2089844 9.9897461-1.5976563 12.6977539-5.6015625 2.3852539-3.5263672 2.1391602-8.8149414-.7753906-11.7402344-3.1386414-13.8867493-22.356842-19.5796204-35.5859375-4.6806641-1.0561523-3.3837891-4.0004883-6.1074219-7.3852539-7.3266602-7.5778809-2.7286682-10.5778961 3.8746338-15.1147461 4.8310547-7.9570313 1.6772461-4.6386719-6.2539063-6.0244141-9.746582-.6928711-1.746582-2.0786133-2.7558594-3.8398438-3.3896484-5.1977539-1.8701172-10.0419922.5405273-13.5874023 4.2973633-3.472168-1.4765625-6.9448242-2.953125-10.4169922-4.4296875-.5419922-.2304688-1.0610352-.1425781-1.4697266.109375.1352539-1.1645508.1083984-2.3408203-.0839844-3.5532227 6.0555115-1.5197601 11.8224945-3.52742 18.7333984-7.0136719 1.3935547-.7036133 4.4990234-3.2885742 5.9404297-3.3603516.5883789-.0297852 1.3544922-.4404297 1.4462891-1.1015625 6.1204681-44.0290222-4.0238342-69.4107895-3.3701172-71.5898438.1802063-.5978699-.0535583-1.465538-.7133789-1.8779297-16.4006195-10.2679443-18.2356415-13.4320908-22.1113281-14.1098633-2.3217773-.4067383-5.7641602.5209961-8.0795898.7431641-29.4850388 2.8287048-61.0702286 7.0862656-91.6333008 10.3256836-.1884766.0200195-.3706055.0913086-.5463867.1821289-.5908203.2275391-1.0952148.8188477-1.0161133 1.4194336 3.1255875 23.6827393 7.0311508 49.5496368 9.1728516 72.5141602.2836914 3.0424805-.2358398 4.8867188 1.9770508 6.7490234 5.5625 4.6835938 12.9667969 7.4458008 19.7070313 9.9121094.2836914.1035156.5380859.112793.7651367.0654297 6.2905273 1.1982422 12.6044922 1.9228516 18.9311523 2.2358398.2875977 1.4941406.7255859 2.8208008 1.3007813 3.9916992-.3369141-.1054688-.71875-.1010742-1.1142578.0849609-12.2879486 5.7885284-11.317543 5.2933502-11.5820313 5.5410156-.7475586-.0517578-1.2729492.4785156-1.4438477 1.1103516-.1878815 8.1175079-.1776047 7.6737518-.175293 7.5737305.1033096.0387268 35.4680481 13.2765656 35.6074219 13.3286133 24.4556427-12.0053558 32.1018677-15.2373962 41.8095703-20.2392578l.2773438-.1430664c-.1026764-5.4903717-.1057892-5.5527039-.1079102-5.652832.0878906-.1601563.1333008-.3325195.1416016-.5097656 2.0800781-2.2700195 4.5219727-4.2412109 7.7895508-4.2207031 4.8496094.0302734 4.8901367 3.6342773 5.0405273 7.5507813.1186523 3.0766602 1.3642578 6.4433594 4.7514648 7.144043 3.1513672.6518555 6.4199219-1.8198242 8.918457-3.3798828 2.9458008-1.840332 5.487793-3.7734375 9.1337891-2.5029297 3.2563477 1.1352539 6.0058594 4.1210938 5.7749023 7.7016602-.0053711.0805664.0024414.152832.0078125.2265625-.2143402.3539124-.5321045.7751617-.3525391 1.409668-.1704102 2.1435547 2.3920898 5.2016602 3.1572266 6.0664063 2.6220703 2.9643555 6.2075195 5.0219727 9.7104492 6.7651367 4.3276368 2.1533202 8.9086915 4.0815428 13.7377931 4.2905272zm-85.2875977-34.9321289c-4.5805664 7.2724609-15.8569336 8.3613281-23.6015625 8.4882813-8.4033203.137207-17.9526367-.3769531-20.3945313-9.4863281 15.0194244.3283386 33.4283371-2.0785065 44.7783203-4.6069336.2866212 1.9199218.0629884 3.699707-.7822265 5.6049804zm27.0322266-19.3911133c-2.1030273.71875-4.3769531 2.6147461-6.1113281 3.4887695-6.1313477 3.088028-12.2044525 5.4181519-19.3842773 7.0136719-43.1197739 9.1843567-63.9371071 2.5897827-67.3393555 2.4750977.982029-31.9695282-10.7829208-71.0927658-10.8037109-71.2861328 33.5146484-2.4711914 67.019043-5.1381836 100.237793-10.3427734 5.3753508 21.3828277 6.4085998 46.2723998 3.4008788 68.6513671zm-29.6796875-82.3891601c8.9102478-.8396378 4.4272308-1.4619827 23.7290039 11.1157227-45.0888519 6.9381409-94.2244568 9.4295044-99.2358398 10.0927734-4.0836296-3.6063995-4.6678772-3.4103546-13.9379883-11.1518555 29.4593201-3.1929703 61.2110061-7.3963928 89.4448242-10.0566406zm-42.0327148 106.4624023c7.1515656 9.9376678 38.6353683 9.3622742 46.9013672-2.6533203.262207-.2241211.5066986-.7086945.5717773-1.0175781.2094727-.5146484.3920898-1.0268555.5410156-1.5366211.2683716.2389526-.4385071-.0974121 9.4750977 4.1171875-11.9931641 5.7617188-23.8032227 11.8945313-35.8164063 17.6147461-10.7094727-3.1240234-20.7597656-8.0307617-31.3300781-11.5317383 9.6334381-4.538208 9.4461822-4.2935944 9.6572266-4.9926758zm108.465332 12.0805664c8.640625-5.6088867 17.6821289 1.8017578 20.1049805 10.5336914-4.8105011-2.8097839-17.5953675-9.5925903-20.1049805-10.5336914zm17.4682617-9.9902344c4.671875.4267578 9.078125 3.8334961 11.3564453 7.8061523 2.9335938 5.1147461.7587891 12.4204102-5.4990234 13.5166016-2.0473633-10.0092773-11.0927734-18.1538086-20.5561523-15.7114258 4.2412109-3.5341796 9.8188476-6.0571288 14.6987304-5.6113281z"/><path d="m73.7246704 82.8243408c1.9306641 0 1.9335938-3 0-3-1.9301758 0-1.9335937 3 0 3z"/><path d="m98.4458618 57.8634033v.6899414c0 .784668.6899414 1.5366211 1.5 1.5.8125-.0361328 1.5-.6591797 1.5-1.5 0-.2299805 0-.4599609 0-.6899414 0-.784668-.6899414-1.5361328-1.5-1.5-.8129883.0366211-1.5.6591797-1.5 1.5z"/><path d="m119.956604 93.1749268c1.9301758 0 1.9335938-3 0-3-1.9301758 0-1.9335937 3 0 3z"/><path d="m139.9673462 64.8834229c1.9301758 0 1.9335938-3 0-3-1.9301758 0-1.9335938 3 0 3z"/><path d="m35.7734985 41.4229736c1.9301758 0 1.9335938-3 0-3-1.930664 0-1.9335937 3 0 3z"/><path d="m32.8931274 90.2945557v.6904297c0 .7841797.6899414 1.5361328 1.5 1.5.8129883-.0366211 1.5-.6591797 1.5-1.5 0-.2304688 0-.4599609 0-.6904297 0-.7841797-.6899414-1.5361328-1.5-1.5-.8125.0366211-1.5.6591797-1.5 1.5z"/><path d="m21.9727173 158.7271729c1.9301758 0 1.9335938-3 0-3-1.9301758 0-1.9335938 3 0 3z"/><path d="m178.6089478 173.6680908c-1.9301758 0-1.9335938 3 0 3 1.9301757 0 1.9335937-3 0-3z"/><path d="m165.4981079 129.7462158c1.9306641 0 1.9335938-3 0-3-1.9301758 0-1.9331055 3 0 3z"/><path d="m232.4307251 167.697876c1.9306641 0 1.9335938-3 0-3-1.9301758 0-1.9331055 3 0 3z"/><path d="m267.6221313 139.4068604c1.9306641 0 1.9335938-3 0-3-1.9301757 0-1.9335937 3 0 3z"/><path d="m272.4526978 192.5386963c1.9301758 0 1.9335938-3 0-3-1.9306641 0-1.9335938 3 0 3z"/><path d="m201.3799438 145.3770752c-1.9306641 0-1.9335938 3 0 3 1.9301758 0 1.9335938-3 0-3z"/><path d="m211.0401001 186.088501c-1.9301758 0-1.9335938 3 0 3 1.9301758 0 1.9335937-3 0-3z"/><path d="m274.522522 33.5924072c-1.9301758 0-1.9335938 3 0 3 1.930664 0 1.9335937-3 0-3z"/><path d="m159.9780884 30.1422119c-.784668 0-1.5361328.6904297-1.5 1.5.0366211.8129883.6591797 1.5 1.5 1.5h.6899414c.784668 0 1.5366211-.6894531 1.5-1.5-.0361328-.8125-.6591797-1.5-1.5-1.5-.2299805 0-.459961 0-.6899414 0z"/><path d="m76.3648071 32.3326416v.6899414c0 .784668.6899414 1.5361328 1.5 1.5.8129883-.0366211 1.5-.6591797 1.5-1.5 0-.2299805 0-.4599609 0-.6899414 0-.784668-.6899414-1.5366211-1.5-1.5-.8125.0361328-1.5.6591797-1.5 1.5z"/><path d="m49.5737915 57.7437744c-1.9301758 0-1.9335938 3 0 3 1.9301758 0 1.9335938-3 0-3z"/><path d="m117.8862915 30.1422119c-1.9301758 0-1.9331055 3 0 3 1.9306641 0 1.9335938-3 0-3z"/><path d="m148.2476196 93.1749268c1.9301758 0 1.9335938-3 0-3-1.9301758 0-1.9335937 3 0 3z"/><path d="m264.8623657 159.1773682c-.8129883.0366211-1.5.6591797-1.5 1.5v.6904297c0 .7841797.6899414 1.5361328 1.5 1.5.8125-.0366211 1.5-.6591797 1.5-1.5 0-.2304688 0-.4604492 0-.6904297 0-.784668-.6899414-1.5361328-1.5-1.5z"/><path d="m240.0210571 139.166626c-1.9301758 0-1.9331055 3 0 3 1.9306641 0 1.9335938-3 0-3z"/><path d="m277.2827759 111.8052979c1.9301758 0 1.9335938-3 0-3-1.9301758 0-1.9335938 3 0 3z"/><path d="m23.3526001 64.8834229c1.9306641 0 1.9335938-3 0-3-1.9301758 0-1.9335938 3 0 3z"/><path d="m59.234436 100.7652588c1.9301758 0 1.9335938-3 0-3-1.930664 0-1.9335937 3 0 3z"/><path d="m172.5186157 152.3970947c0-.2299805 0-.4599609 0-.6899414 0-.784668-.6899414-1.5361328-1.5-1.5-.8125.0366211-1.5.6591797-1.5 1.5v.6899414c0 .784668.6899414 1.5361328 1.5 1.5.8125-.0361328 1.5-.6591797 1.5-1.5z"/><path d="m24.7329712 203.5792236c1.9301758 0 1.9335938-3 0-3-1.9306641 0-1.9335938 3 0 3z"/><path d="m49.4536743 206.9093018v.6899414c0 .784668.6899414 1.5361328 1.5 1.5.8129883-.0361328 1.5-.6591797 1.5-1.5 0-.2299805 0-.4599609 0-.6899414 0-.784668-.6899414-1.5361328-1.5-1.5-.8125.0366211-1.5.6591796-1.5 1.5z"/></g></g></svg>