<svg id="Layer_1" enable-background="new 0 0 300 300" height="512" viewBox="0 0 300 300" width="512" xmlns="http://www.w3.org/2000/svg"><g id="Reports"><g><path d="m217.3315887 156.5249786c.2753906-.0253906.4794922-.2792969.4560547-.5664063l-.4052734-4.796875c-.0252533-.3072205-.2951965-.5075531-.5458984-.4746094l-4.1025391.3828125c-.2744141.0253906-.4785156.2792969-.4560547.5654297l.4052734 4.7988281c.0273285.3070374.2956848.5049133.5458984.4736328z"/><path d="m218.7349091 165.2017365-.4052734-4.796875c-.0241852-.2962646-.2778778-.504715-.5458984-.4755859l-4.1025391.3837891c-.2744141.0253906-.4785156.2792969-.4560547.5654297l.4052734 4.7978516c.026535.3001709.2878571.5068665.5458984.4746094l4.1025391-.3837891c.2753906-.0253908.4794922-.279297.4560547-.5654298z"/><path d="m219.1685028 169.3950958-4.1025391.3837891c-.2753906.0253906-.4794922.2792969-.4560547.5654297l.4052734 4.7988281c.0269623.3027954.2915192.5054321.5458984.4736328l4.1025391-.3837891c.2744141-.0244141.4785156-.2783203.4560547-.5654297l-.4052734-4.7978516c-.0281524-.316162-.3154296-.5141753-.5458984-.4746093z"/><path d="m34.9067802 163.5200958h6.5c.2763672 0 .5-.2236328.5-.5v-20.6494141c0-.2763672-.2236328-.5-.5-.5h-6.5c-.2763672 0-.5.2236328-.5.5v20.6494141c0 .2763672.2236329.5.5.5z"/><path d="m44.2817802 163.5200958h6.5c.2763672 0 .5-.2236328.5-.5v-14.3369141c0-.2763672-.2236328-.5-.5-.5h-6.5c-.2763672 0-.5.2236328-.5.5v14.3369141c0 .2763672.2236329.5.5.5z"/><path d="m54.0317802 163.3882599h6.5c.2763672 0 .5-.2236328.5-.5v-9.8642578c0-.2763672-.2236328-.5-.5-.5h-6.5c-.2763672 0-.5.2236328-.5.5v9.8642578c0 .2763672.2236329.5.5.5z"/><path d="m62.7817802 159.2056427v3.8144531c0 .2763672.2236328.5.5.5h6.5000038c.2763672 0 .5-.2236328.5-.5v-3.8144531c0-.2763672-.2236328-.5-.5-.5h-6.5000038c-.2763671 0-.5.2236328-.5.5z"/><path d="m180.2817841 238.780838c0-3.7421875-13.9970703-5.7617188-27.1660156-5.7617188-13.1699219 0-27.1669922 2.0195313-27.1669922 5.7617188s13.9970703 5.7607422 27.1669922 5.7607422c13.1689452 0 27.1660156-2.0185547 27.1660156-5.7607422z"/><path d="m275.3657532 194.7622833c0-3.7421875-13.9970703-5.7607422-27.1669769-5.7607422-13.1699219 0-27.1669922 2.0185547-27.1669922 5.7607422s13.9970703 5.7617188 27.1669922 5.7617188c13.1699066 0 27.1669769-2.0195313 27.1669769-5.7617188z"/><ellipse cx="50.199" cy="214.053" rx="27.167" ry="5.761"/><path d="m278.5644836 74.022049c-2.2993164.7978516-4.5991211 1.5957031-6.8984375 2.3935547-.012207-3.1298828.1635742-6.2607422.527832-9.4111328.0898438-.7763672-.7602539-1.5419922-1.5-1.5-2.2319336.1279297-4.4638672.2548828-6.6958008.3828125-.9804688.0566406-1.5424805.9003906-1.449707 1.703125-.3037109 4.0244141-.3637695 8.0371094-.2138672 12.0517578-9.4013519 3.2412109-18.8085785 6.4638672-28.2250824 9.6601563-.3354492-3.0341797-.7021484-6.0673828-1.1362305-9.0947266-.1186523-.8300781-1.1367188-1.2041016-1.8447266-1.0478516-3.1225586.6914063-6.5839844 1.1025391-9.5688477 2.2744141-.0449219.0175781-.0810547.0429688-.1225586.0634766-.5722656.1484375-1.0307617.6054688-.9790039 1.3837891.2407227 3.6015625.4814453 7.2041016.722168 10.8066406-38.9853516 13.2617188-78.8876953 26.6796875-119.9545898 30.4707031-24.1455078-7.890625-46.788578-19.7236328-67.6044922-34.3994141-.046875-2.9355469.0566406-5.8701172.3481445-8.8134766.0761719-.7714844-.75-1.5488281-1.5-1.5-1.6010742.1074219-3.2016602.2128906-4.8027344.3193359-.9169922.0615234-1.4174805.7177734-1.4394531 1.4257813-.0616493.4561996-.1409531 2.5722809-.1582031 3.0244141-1.050293-.7958984-2.1069336-1.5839844-3.1450195-2.3974609-1.5024414-1.1767578-3.6401367.9316406-2.1210938 2.1210938 1.7143555 1.3427734 3.449707 2.6582031 5.1918945 3.9638672-.0068359 2.8193359.0888672 5.6376953.3129883 8.4589844.0610352.7714844.6381836 1.5507813 1.5 1.5 1.559082-.0908203 2.7578125-.0253906 4.3256836.3105469.8569336.1835938 2.0092773-.4160156 1.8989258-1.4472656-.1152344-1.0742188-.1923828-2.1474609-.262207-3.2197266 18.5913086 12.9121094 38.6376991 23.5791016 59.8696327 31.2294922-8.5673828.5341797-17.1850586.6269531-25.8564453.1894531.0932617-1.1396484.2241211-2.2792969.4033203-3.4189453.1425781-.9091797-.3803711-1.9433594-1.4467773-1.8994141-2.5405273.1064453-5.0815468.2128906-7.6220741.3193359-.9667969.0410156-1.644043 1.0820313-1.4628906 1.9267578-.0737305.7451172-.1220703 1.4892578-.1704102 2.2333984-4.1762695-.4570313-8.3295898-1.0498047-12.4667969-1.7802734.074707-2.4472656.2573242-4.8964844.5556641-7.3525391.0947266-.7773438-.7641602-1.5400391-1.5-1.5-2.5405273.1376953-5.081543.2744141-7.6225586.4121094-.9902344.0537109-1.5742188.9550781-1.4462891 1.7783203-.1181641 1.4931641-.2080078 2.9853516-.2646484 4.4755859-4.4833984-1.0996094-8.9155273-2.3662109-13.2978516-3.8261719-1.8354492-.6123047-2.6225586 2.2841797-.7973633 2.8925781 4.6254883 1.5419922 9.3056641 2.8701172 14.0439453 4.0097656-.0126953 1.2783203-.0029297 2.5566406.0297852 3.8339844-2.0014648-.3125-4.0029297-.625-6.0058594-.9267578-1.0141602-.1523438-1.8134766.3916016-1.8989258 1.4462891-3.2412872 39.9516602-.9531174 48.2883453-.1401367 67.4003906.027832.6572266.4458008 1.2724609 1.1010742 1.4462891 16.027832 4.25 33.1728516 6.6455078 48.4560585-1.3408203 1.0266495-.5376892.9082794-2.526123 2.9506836-4.0839844.1259766-.0957031.1982422-.2441406.1972656-.4013672-.1552734-18.4970703.4960938-37.6669922 1.9375-56.9785156.1338654-1.8152618-1.0290222-2.5591125-1.8779297-3.6123047.0981445-.8222656-.3671875-1.6640625-1.4145508-1.5498047-3.4570313.3779297-6.9204102.6660156-10.3916016.8632813-.0058594-.4580078-.0009766-.9160156.0068359-1.3740234 11.1655273.5712891 22.2451172.2763672 33.2421875-.7128906 4.1767578 1.3515625 8.3945313 2.5927734 12.65625 3.7050781-.0546875 2.4746094-.0375977 4.9482422.0512695 7.4228516-1.4550781-.1503906-2.909668-.3007813-4.3652344-.4443359-.9177017-.0903931-1.6968231 1.2295837-1.7324219 1.3349609l-2.7363281 8.2167969c-.0283203.0849609-.0332031.1757813-.0136719.2636719 4.7695313 22.0800781 5.9335938 46.0986328 3.4599609 71.3867188-.0146484.1582031.0458984.3144531.1640625.4208984 1.8681564 1.6798096 1.6816406 2.1348724 3.0234375 3.5996094.0112305.1416016.012207.2861328.0253906.4277344.0581055.6318359.4213867 1.3017578 1.1010742 1.4462891 20.065918 4.2822266 41.7626953 6.2695313 60.1357422-4.640625.4399414-.2617188.7661133-.7714844.7431641-1.2958984-1.8608856-41.9060211 1.960022-53.3792267-.5102539-79.0595703-.0985718-1.0348969-.1821442-2.4980316-1.8588867-2.2265625-3.5620117.578125-7.1342773 1.0732422-10.7167969 1.4970703-.0273438-.5712891-.0556641-1.1416016-.0727539-1.7119141 11.7553711.2734375 23.4365234-.4492188 35.0673828-2.0839844.4492188 6.015625.6147461 12.0537109.7763672 18.0048828.2578125 9.5097656.5244141 19.3427734 1.9648438 28.6816406.050827.3243866.0475464.1051483 1.9482422 1.8164063 1.6076202 1.4519653 1.9649811 1.8046265 2.3613281 1.5908203.0732422-.0390625.1264648-.1015625.1708984-.1689453.1425781.0039063.2817383-.0078125.4082031-.0527344 1.823761-.6569519 4.2540283 2.2581635 15.2602539 2.8378906 26.7474518 1.4005127 45.5973358-12.9550781 46.1708832-12.9550781.8261719 0 1.4794922-.6875 1.5-1.5.512207-20.1347656-2.4311523-40.1142578-3.3652344-60.1757813 5.7304688-2.9785156 11.2827148-6.2470703 16.7524414-9.6787109 1.6318359-1.0234375.1279297-3.6201172-1.5141602-2.5908203-5.0268555 3.1542969-10.1303711 6.1601563-15.3706055 8.9394531-.2158203-6.2363281-.2192383-12.4814453.1777344-18.7441406.0636292-1.0054932-1.2072144-2.2753448-2.4672852-1.6845703-8.094223 3.796875-16.4399261 6.7929688-25.0737152 9.0537109-.1630859-2.1630859-.3505859-4.3232422-.5649414-6.4814453 9.3623047-3.1767578 18.7143555-6.3828125 28.0615082-9.6044922.0610352.9179688.1108398 1.8349609.1958008 2.7529297.0708008.7705078.6298828 1.5507813 1.5 1.5 2.1308594-.1240234 4.0800781-.0234375 6.1884766.3818359.8408203.1621094 2.0297852-.4003906 1.8989258-1.4462891-.2670898-2.1337891-.4404297-4.2597656-.5341797-6.3837891 2.5380859-.8798828 5.0761719-1.7607422 7.6142578-2.6416016 1.8124966-.6289064 1.0331997-3.5273439-.797855-2.8925782zm-249.420887 8.6455078c.5693359-.0380859 1.1381836-.0761719 1.7075195-.1132813-.3227539 4.1376953-.3100586 8.2636719.0371094 12.3984375-.5551758-.0615234-1.1113281-.1054688-1.6738281-.1162109-.2626953-4.0566406-.2866211-8.109375-.0708008-12.1689453zm31.5488282 52.3242187c-.4150391-4.0429688-.4541016-8.0761719-.1147461-12.1269531 1.4819336-.0625 2.9638672-.1240234 4.4458046-.1865234-.5087509 4.2780685-.4651489 8.4568939.0561523 12.4980469-1.4589882-.1435548-2.9165077-.2031251-4.3872108-.1845704zm-3.3461914-5.5097656c-4.1083984-.1123047-8.1914063-.4404297-12.2709961-.9384766-.0507813-1.0712891-.0864258-2.1425781-.0942383-3.2148438 4.109375.7099609 8.2358398 1.2900391 12.3818359 1.7431641-.015625.803711-.03125 1.6074219-.0166015 2.4101563zm-19.2871094 3.8388672c-.4609375-5.5136719-.5024414-11.0166016-.1220703-16.5371094 1.4892578-.0800781 2.9785156-.1601563 4.4677734-.2412109-.5787086 5.6786423-.569191 11.2478104.0644531 17.015625-1.4643554-.1806641-2.9243164-.2558594-4.4101562-.2373047zm38.3457069-1.7363281c-1.2036133 18.5986328-3.5498047 37.1416016-2.5917969 55.8115234.1828842 3.5567474.1698608 2.9185181.1630859 5.4707031.2001953.7607422-.0595703.890625-.7788086.390625-3.265625 2.9726563-11.3164101 3.7109375-15.4150429 4.0214844-9.5170898.7226563-18.9931641-1.1162109-28.1674805-3.5048828-.8552742-18.1370087-2.8811569-26.9503021.0708008-64.5058594 1.7094727.2607422 3.4189453.5244141 5.1279297.7910156.0854492 1.5976563.2045898 3.1953125.3608398 4.7949219.0756836.7724609.6269531 1.5478516 1.5 1.5 2.4365234-.1337891 4.6865234-.0234375 7.1005859.4150391.8349609.1523438 2.0371094-.3925781 1.8984375-1.4462891-.1645508-1.2529297-.2905273-2.5039063-.3964844-3.7548828 4.0512695.4892578 8.1064453.8105469 12.1875.9179688.0859375 1.3447266.2070313 2.6894531.3769531 4.0361328.097168.7734375.6083984 1.5439453 1.5 1.5 2.3886719-.1171875 4.729496-.0400391 7.1001015.3095703 1.1831055.1748047 2.0498047-.6396484 1.8452148-1.8447266-.2382813-1.4013672-.4052734-2.8027344-.5151367-4.2041016 2.883301-.1660156 5.7602542-.4033203 8.633301-.6982421zm148.6865235-24.2597657c-.5214844-7.8037109-1.0429688-15.6074219-1.5644531-23.4121094 2.1577148-.6933594 4.4926758-1.0830078 6.7353516-1.5185547 1.0639648 7.7207031 1.78125 15.4697266 2.1704102 23.2539063-2.4194337.7558594-4.8334962 1.3164063-7.3413087 1.6767578zm-3.3847657-5.7597656c-6.3598633.9492188-12.7329102 1.4677734-19.1381836 1.5566406 6.2973633-2.0888672 12.5698242-4.2148438 18.8188477-6.3398438.1064453 1.5947266.2128906 3.1884766.3193359 4.7832032zm-70.6640625 35.5195313c.0219727 1 .0356445 1.9990234.0810547 2.9990234-9.4760742.5429688-18.8515625.1220703-28.2915039-.7978516-.1113281-2.0761719-.1508789-4.1503906-.1254883-6.2265625 9.3608399 1.9414063 18.8027344 3.2910157 28.3359375 4.0253907zm6.5629883 6.4345703c-1.0859375-.1455078-2.1689453-.2177734-3.2763672-.2099609-.3901367-5.515625-.4248047-11.0234375-.1020508-16.5429688 1.1088867-.0712891 2.2172852-.1416016 3.3261719-.2128906-.4882812 5.6640625-.4716797 11.3066406.0522461 16.9658203zm-40.7763672-.7363282c-.3901367-5.515625-.4248047-11.0224609-.1020508-16.5429688 1.1088867-.0712891 2.2172852-.1416016 3.3261719-.2119141-.4620667 5.353775-.5031586 10.9661713.0522461 16.9648438-1.0859375-.1455077-2.1689453-.2177734-3.2763672-.2099609zm-8.3383789-16.3789062c1.7558594-.2080078 3.5097656-.4316406 5.2617188-.6728516-.043457.7011719-.0727539 1.4003906-.1054688 2.1005859-1.7255859-.4560546-3.4448242-.930664-5.15625-1.4277343zm59.015625 93.3740234c-5.4345703 2.7460938-11.359375 4.3720703-17.3847656 5.1416016-11.965332 1.5283203-24.0517578-.1572266-35.7802734-2.6123047-.3765411-7.7686768 2.1989441-13.3625793.0429688-46.2636719 1.3778992.0122528 2.5338287.1649933 3.8164063.1904297 30.0001984.5708466 48.9058685-1.4728546 50.2431641-1.4472656.5267792.0149078 1.1209412.272583 1.8183594.2246094-.456543 12.2685547-1.0507813 24.5380859-.2675781 36.8203125.5267942 8.2832031.7318876 6.3190307-2.4882815 7.946289zm2.4536133-78.8427734c.6113281 6.8183594.7519531 13.6328125.6708984 20.4462891-.7484436-1.6201935-2.4817352-4.9708099-4.6098633-9.6347656-.125-.2714844-.3955078-.4365234-.6914063-.4150391-.2871094.0195313-.5263672.2128906-.609375.4902344-.3319702 1.1002808-7.4035492 14.3786774-8.1376953 15.2880859-.0478516.0361328-.5400391.3408203-3.6113281.3632813-.4443359-1.2109375-1.2236328-2.6308594-2.1318359-3.8720703-.2020569-.2782745-.618927-.2717285-.8154297.0107422-.2587891.3203125-2.3359375 2.6357422-3.1796875 3.5-.9842072-1.5606232-5.1794128-9.2333679-6.6259766-11.8320313-.1800842-.3237152-.6258087-.3357849-.8359375-.0576172-4.2519836 5.6605835-8.1096191 9.9661865-9.6298828 11.7568359-.5800781.6650391-1.0810547 1.2392578-1.6328125 1.5039063-.369812.1311646-2.9193115.0386963-4.6210938.1806641-.7858658-1.7354431-1.7890015-3.5345459-2.2246094-5.2978516-.0804138-.3237152-.4492874-.4816132-.7392578-.3105469-2.5988464 1.5306854-3.0788422 2.3877106-6.7543945 4.7617188-.7421875-8.9375-1.7275391-17.8554688-2.8486328-26.7548828.9355469.09375 1.8710938.1884766 2.8061523.2861328.059082.9912109.1074219 1.9833984.1894531 2.9755859.0634766.7675781.6367188 1.5566406 1.5 1.5 2.0366211-.1318359 3.9526367-.0136719 5.9560547.4160156.8530273.1826172 2.0136719-.4160156 1.8989258-1.4462891-.0927734-.8300781-.1733398-1.6591797-.2441406-2.4882813 9.434082.9121094 18.8037109 1.3242188 28.2758789.7675781.0410156.5927734.0644531 1.1845703.1132813 1.7773438.0634766.7675781.6367188 1.5566406 1.5 1.5 2.0366211-.1318359 3.9526367-.0146484 5.9560547.4160156.8530273.1826172 2.0136719-.4160156 1.8989258-1.4472656-.1147461-1.0283203-.2070313-2.0556641-.2885742-3.0830078 3.1635742-.375 6.3188477-.8115234 9.4663086-1.3007812zm-9.762207-6.3876953c.0068359-3.1962891.1689453-6.3935547.4995117-9.5986328.0795898-.7724609-.7524414-1.5478516-1.5-1.5-2.1533203.1376953-4.3061523.2744141-6.4594727.4121094-.9838867.0625-1.5107422.8388672-1.4462891 1.6152344-.1962891 2.8720703-.2827148 5.7392578-.2866211 8.6054688-9.4960938-.7353516-18.8945313-2.0996094-28.2148438-4.0634766.0825195-1.8632813.2148438-3.7275391.4072266-5.5957031.0043945-.0458984-.0039063-.0908203-.0053711-.1367188 24.0009766-4.0556641 47.6171875-10.8369141 70.8901367-18.3779297l-2.6362305 5.8935547c-.0488281.1083984-.0576172.2304688-.0234375.3447266 1.9326172 6.6162109 3.0004883 13.4521484 3.6328125 20.3417969-11.5615233 1.6435546-23.1748045 2.3359374-34.8574217 2.0595702zm99.2573089-41.2021485c-1.3598633 26.5214844 3.9301758 52.7617188 3.4208984 79.2626953-.7285767.3440094-20.5334473 14.4282227-46.2685394 12.4638672-8.9772034-.6853943-10.4921722-2.2083435-12.7744141-2.6572266-3.4951172-25.3916016-.6977539-51.2089844-6.5292969-76.3232422 8.2495117.1787109 16.4384766-.3525391 24.6020508-1.5449219.0996094 1.4912109.1992188 2.9833984.2988281 4.4746094.0498047.7382813.6508789 1.5957031 1.5 1.5 3.6821289-.4150391 7.1699219-1.15625 10.6894531-2.3417969.6054688-.2041016 1.1323242-.7666016 1.1010742-1.4462891-.074707-1.6191406-.1801758-3.234375-.2836914-4.8496094 8.3320314-2.1474608 16.4067384-5.0048826 24.2436372-8.5380858zm6.1303711-9.3769531c-.394043-5.0556641-.4296875-10.1035156-.1049805-15.1660156 1.1845703-.0673828 2.3686523-.1347656 3.5527344-.203125-.4985352 5.2080078-.4814453 10.3710938.0537109 15.5722656-1.161621-.1416015-2.3222655-.2109375-3.5014648-.203125z"/><path d="m172.3066864 71.4390411c-.1191406-.8300781-1.1367188-1.2041016-1.8452148-1.0478516-3.1220703.6914063-6.5834961 1.1025391-9.5688477 2.2744141-.7438202.2910538-1.1556702.626358-1.1010742 1.4462891.2680664 4.015625.5366211 8.0302734.8046875 12.0449219-16.5869141 1.515625-33.222168 1.9560547-49.8657227 1.3154297.0649414-2.4121094.2177734-4.8251953.4667969-7.2431641.0795898-.7724609-.7524414-1.5478516-1.5-1.5-2.1533203.1376953-4.3061523.2744141-6.4594727.4121094-.9838867.0625-1.5107422.8388672-1.4462891 1.6152344-.1425781 2.0820313-.2163086 4.1621094-.2578125 6.2402344-26.6181641-1.8154297-52.9121132-6.4306641-78.5415039-13.8642578-1.8579102-.5390625-2.6508789 2.3554688-.7973633 2.8925781 25.871582 7.5039063 52.4345741 12.1357422 79.3022461 13.9697266.012207 3.3779297.1508789 6.7548828.4301758 10.1357422.0634766.7675781.6367188 1.5566406 1.5 1.5 2.0366211-.1318359 3.9526367-.0146484 5.9560547.4160156.8530273.1826172 2.0136719-.4160156 1.8989258-1.4472656-.3774414-3.3808594-.5727539-6.7539063-.5888672-10.1289063 16.7226563.6464844 33.4370117.2001953 50.1020508-1.3310547.2475586 3.7041016.4951172 7.4091797.7426758 11.1132813.0493164.7382813.6508789 1.5957031 1.5 1.5 3.6821289-.4150391 7.1694336-1.15625 10.6889648-2.3417969.6054688-.203125 1.1328125-.7666016 1.1015625-1.4462891-.1591797-3.4453125-.4038086-6.8808594-.6933594-10.3115234 36.1181641-4.7792969 71.2851563-14.6230469 104.5751801-29.4589882 1.7602539-.7841797.2358398-3.3701172-1.5141602-2.5908203-32.8412933 14.6367226-67.6679535 24.3886757-103.3076019 29.0839882-.4218749-4.4248048-.9501953-8.8398438-1.5820312-13.248047zm-67.4775391 27.1503907c-.3901367-5.515625-.4248047-11.0234375-.1020508-16.5429688 1.1088867-.0712891 2.2172852-.1416016 3.3261719-.2128906-.4882813 5.6640625-.4716797 11.3066406.0522461 16.9658203-1.0859375-.1455078-2.1689453-.2177734-3.2763672-.2099609zm58.03125-23.4453125c2.1572266-.6933594 4.4926758-1.0830078 6.7348633-1.5185547 1.0644531 7.7207031 1.78125 15.4697266 2.1704102 23.2539063-2.4189453.7558594-4.8334961 1.3164063-7.3408203 1.6777344-.5214844-7.8046876-1.0429688-15.6093751-1.5644532-23.413086z"/><path d="m220.9644012 139.0366974c1.394043 1.1669922 2.7368164 2.3896484 4.0283203 3.6679688 3.3869934-4.5240631 3.1980896-10.9114227-.4853516-15.2109375-1.3486328 1.2041016-2.6982422 2.4091797-4.046875 3.6132813 1.9358064 2.2052611 2.1279908 5.5004729.5039063 7.9296874z"/><path d="m216.0947723 141.7124786c-3.2944336 0-5.965332-2.8261719-5.965332-6.3134766 0-3.4863281 2.6708984-6.3134766 5.965332-6.3134766.628418 0 1.2333984.1044922 1.8022461.2949219 1.4570313-1.3007813 2.9140625-2.6015625 4.3710938-3.9023438-1.7460938-1.1914063-3.8198242-1.890625-6.0488281-1.890625-6.1689453 0-11.1875 5.2988281-11.1875 11.8115234s5.0185547 11.8115234 11.1875 11.8115234c2.5048828 0 4.8125-.8847656 6.6787109-2.3583984-1.3359375-1.3242188-2.7260742-2.5898438-4.1713867-3.7939453-.7949219.4150392-1.6860352.654297-2.631836.654297z"/><path d="m225.3813934 153.6753693c7.9887695-1.7519531 15.9775391-3.5029297 23.9663086-5.2548828 1.8847656-.4130859 1.0874023-3.3056641-.7973633-2.8925781-7.9892578 1.7509766-15.9780273 3.5029297-23.9667969 5.2548828-1.8847656.4130859-1.0874023 3.305664.7978516 2.8925781z"/><path d="m242.88237 156.2212677c-5.0883789 1.3828125-10.1767578 2.765625-15.2646484 4.1474609-1.8613281.5058594-1.0712891 3.4013672.7973633 2.8935547 5.0883789-1.3828125 10.1767578-2.765625 15.2651367-4.1484375 1.8608398-.5048828 1.0708007-3.4003906-.7978516-2.8925781z"/><path d="m241.3081512 165.8990021c-3.112793.9589844-6.2250977 1.9189453-9.3374023 2.8789063-1.8393555.5673828-1.0546875 3.4638672.7973633 2.8925781 3.1123047-.9589844 6.2250977-1.9189453 9.3374023-2.8789063 1.8393555-.5673828 1.0546875-3.4638672-.7973633-2.8925781z"/><path d="m162.6118622 183.3003693c-14.0009766 3.0429688-28.203125 3.8535156-42.4594727 2.4736328-1.9204102-.1865234-1.9077148 2.8144531 0 3 14.5200195 1.4052734 29.0058594.5166016 43.2568359-2.5810547 1.8857423-.4091797 1.0874024-3.3027344-.7973632-2.8925781z"/><path d="m161.4824677 198.1548615c-11.4643555 2.7314453-23.0771484 3.578125-34.8154297 2.5761719-1.9233398-.1640625-1.9125977 2.8369141 0 3 11.9995117 1.0244141 23.9023438.1064453 35.6132813-2.6835938 1.876953-.4472656 1.0825194-3.3398438-.7978516-2.8925781z"/><path d="m152.6318817 211.1509552c-5.5009766.9501953-11.0195313 1.4365234-16.6000977 1.4980469-1.9291992.0205078-1.934082 3.0205078 0 3 5.8486328-.0644531 11.6352539-.6103516 17.3974609-1.6044922 1.8989259-.328125 1.0942384-3.2197266-.7973632-2.8935547z"/><path d="m65.7734833 173.9605255c1.1713867-1.5332031-1.4326172-3.0292969-2.5903358-1.5136719-7.2888222 9.5400238-20.0302467-6.9928894-30.4472656 2.5859375-1.4238281 1.3095703.7016602 3.4267578 2.121582 2.1220703 8.7097396-8.0103149 21.675167 8.9032746 30.9160194-3.1943359z"/><path d="m64.4922333 183.3384552c-6.3768959 7.6577454-16.0936737-3.9737549-25.3940468 2.5917969-1.5649414 1.1044922-.0678711 3.7070313 1.5141602 2.5898438 7.96875-5.6240234 18.7480469 5.6484375 26.0014687-3.0605469 1.2270507-1.4726563-.8842774-3.6064454-2.1215821-2.1210938z"/></g></g></svg>