<svg id="Layer_1" enable-background="new 0 0 300 300" height="512" viewBox="0 0 300 300" width="512" xmlns="http://www.w3.org/2000/svg"><g id="Resume"><g><path d="m28.0703907 60.2524147c-14.7285662 37.9447823-4.1851044 144.9927216-.6005859 185.3227539.0170898.1918945.0693359.359375.137207.5126953.0761719.2211914.1982422.4208984.3540039.5898438.0019531.0073242.0014648.0151367.003418.0229492.7714844 3.190918 8.5263691-3.4741211 18.2622089-5.8505859 9.2597656-2.2607422 17.644043.0283203 23.020504-1.3295898 3.9858398-1.0068359 9.7905273-3.5180664 13.7651367-6.6992188 4.7138672-2.6098633 8.7089844-6.487793 11.6674805-11.5615234.2143555-.3676758.2490234-.7255859.1733398-1.0458984.272049-1.6639252-4.8191071-36.0493927-4.2993164-73.1469727 11.58255-.9452362 20.8924789-11.4107971 28.5859375 3.1982422 1.9472656 3.6787109 2.6674805 7.902832 3.222168 12.0546875.112793 4.5195313.5556641 8.9238281 2.5214844 12.7871094 4.765686 12.7084961 22.0688934 17.018158 34.3164063 12.6884766 5.8100586-2.0600586 11.4799805-6.6298828 17.5898438-5.9902344 4.4204102.4599609 7.5605469 3.4599609 9.3500977 7.6699219 1.496582 3.5244141 7.5131836 16.3642578 12.4960938 20.4116211 3.1408691 3.9992828 7.5913239 6.7722473 11.5039063 7.7084961 4.800293 1.1499023 17.1499023 2.7202148 21.8203125 4.3300781 4.0673828 1.4023438 6.5385742 3.7836914 8.112793 6.7749023 1.2540894 6.1013031 1.3303223 6.2776337 2.9150391 13.7275391.5839844 7.4316406.6391602 13.7255859-.078125 21.4077148 2.7568359.6347656 4.5805664 1.6464844 6.4599609 2.6337891 1.2175751 1.2709045 2.844162 2.1685181 4.6484375 2.2905273.8096161.931427 2.2574921 1.8227844 3.3330231 1.4892578.5776367-.0258789 1.1533203-.3330078 1.4150391-1.0048828 8.3120117-21.3125 15.3706055-43.3676758 20.6450195-65.6748047.0932617-.1967773.1450195-.4282227.128418-.7041016-.6777344-11.2607422-3.6279297-24.6704102-14.065918-30.7431641-10.2782745-5.9795074-18.8594818-1.7885284-29.3027496 3.4331055-3.4130859.0986328-7.3945313-.2338867-9.8012695-1.909668-5.1796875-3.6103516-6.2299805-13.25-7.449707-19.590332-.7890625-4.0898438-1.6416016-6.5351563-2.9101563-9.3803711-3.003418-9.8779297-11.9140625-20.9482422-23.3920898-18.9458008-9.3488159 1.6310272-13.6309967 11.6424255-21.9291992 16.5078125-9.4665375 3.415451-15.905899-1.8916016-18.1489258-11.7416992-.3310547-1.4389648-.5673828-2.8979492-.7734375-4.3637695.0595703-1.4868164.1069336-2.9174805.0615234-4.2241211-.5149536-14.9102249-10.334259-20.8500748-19.7866211-18.0703125-2.8245544.8306427-5.5913086 2.3331985-7.0800781 2.8540039-8.9300766 1.321022-16.3348999-4.0532303-18.4946289-12.1328125-.3894043-6.041069 1.627327-24.4630203 2.4311523-36.5126915.2749023-4.1186523.2568359-8.3515625-.2451172-12.5073242 2.5844727-.3286133 5.1801758-.6030273 7.7705078-.9101563 1.7981644 4.3669586 6.2894135 7.4368935 10.5234375 4.7978516 8.2841797-5.1630859 2.8710938-24.1875019-7.3852539-18.7924824-.1669922.0878906-.2954102.1958008-.4033203.3110352-1.8613281 1.4672871-2.9829102 3.5971699-3.4614258 5.9042988-2.8754883.3378906-5.7490234.6870117-8.6098633 1.1132813-.1318359-.4355469-.2490234-.8759766-.3969727-1.3071289-2.0097656-5.8671894-12.8955078-5.6079121-18.159668-5.6596699-5.9663086-.0581055-12.137207.5263672-18.1674805 1.2778339-11.0734634.7106743-16.7351227 3.2743874-27.7397423 8.4570313-1.7374725.8226395-4.0158539 2.6692657-5.5029297 4.1420898-1.2744141-2.9541016-3.8125-5.5546875-7.2685566-4.3232422-6.6895296 2.3832168-7.4411737 15.9727973-1.7807619 19.7036094zm137.8842754 117.8476524c-.4492188.3681641-.9013672.7319336-1.3642578 1.0834961.4482422-.3583984.9028321-.7207031 1.3642578-1.0834961zm-134.4731426-124.8769493c-1.2802734.5439453-1.7109375-1.4277344-1.7416992-2.2978516.120575-2.9580917 2.225811-3.3060799 2.540041-.2192383.0800781.7812501.0742187 2.1469727-.7983418 2.5170899zm6.493166-5.1220703c.0063477-.0068359.0126953-.0136719.019043-.0205078 3.1889648-.6796875 6.4975586-1.0722656 9.8056641-1.4125977 1.0802841.6145706 2.2986946 2.0031586 2.9194336 4.027832-4.2919922.4755859-8.5883789.9775391-12.8432617 1.6665039.1987304-1.5024413.2138671-2.9838866.099121-4.2612304zm53.9414024 171.9282189c-3.5805664 5.9975586-8.9985352 10.6606445-15.7900391 12.6357422-7.6123047 2.2143555-15.6581993.5610352-23.4057579.3046875-8.2470703-.2734375-17.4135742 1.6157227-22.6518574 8.0942383-2.9077148-32.6396484-5.8291016-65.296875-6.4155273-98.0791016-.3441162-19.2671585-.6603985-64.6383133 7.581543-81.9868164 3.6336536-.3797913 5.5665188-3.521431 6.3632832-7.0727539 4.456543-.7421875 8.9619141-1.2705078 13.4619141-1.7680664.4532547 2.4772453.3556938 5.1025505.5014648 7.4272461.4874458 8.2874336-1.2256622 16.7416115-1.3798828 25.2050743-1.4517746 8.4692154-.3263512 18.9260941 1.9238281 26.7133789 1.6044922 8.1928711 5.0009766 15.9985352 10.5048828 22.1123047 7.1495094 7.9305267 14.0954399 13.3665619 24.942379 13.5439453-.4565277 33.1587562 4.209137 72.255558 4.3637695 72.870121zm23.5546875-181.6591759c-.1386719 1.6274414.0249023 3.2861328.4575195 4.8232422-2.4902344.2939453-4.9848633.5581055-7.4707031.8710938-.2368164-1.5712891-.5439453-3.1289063-.9453125-4.659668 2.6445313-.3935547 5.2998047-.7231446 7.9584961-1.034668zm-15.5405273-2.9458008c3.309082.8349609 3.9257813 1.7631836 4.7236328 4.9257813 2.7695389 10.9741669.7139893 19.0798683-.7285156 41.4575157-.2817383-2.8422852-2.484375-6.2104492-4.1450195-8.112793-4.2553329-4.8762665-9.963028-4.4161377-13.5058594 3.0039063-1.6152344 3.3828125-1.5083008 7.5810547-3.2700195 10.7695313-.6264648 1.1337891.4101563 2.5566406 1.6943359 2.203125 3.3530273-.9228516 6.7070313-1.8427734 10.0615234-2.7607422 2.6422424-.72332 8.5934067-1.5429535 9.0629883-3.5009766-.4626617 7.3772507-1.2970886 15.1076279 2.6108398 21.5698242 2.3447266 3.8764648 6.2563477 6.9516602 10.9555664 6.8959961 1.5380859-.0185547 3.012207-.3110352 4.4511719-.7529297 6.0485687-.5050964 11.133194-5.0461273 16.4755859-4.9116211 7.1352539 1.0844727 10.3891602 9.5483398 10.5371094 16.5454102.1490173 7.0620728-2.1120453 20.3369598 7.9628906 24.5039063 3.5837402 2.5346375 7.9614258 1.8695068 11.9204102-.1899414 2.1054688-.7783203 4.0942383-1.9003906 5.7895508-3.2973633 7.2776489-5.9959106 14.9831696-21.1826172 28.2993164-12.7832031 16.7617188 10.7907104 9.5983582 36.0409851 17.0380859 45.9848633 4.2011719 5.6147461 10.2470703 4.6416016 16.1982422 2.159668 3.4862366-.923584 7.3422699-2.8450012 10.3320313-5.0141602l-.0244141-.0400391c1.0097656-.4824219 1.9731445-.9072266 2.8691406-1.2285156 7.0927887-2.5415039 15.1035309.6079102 19.9716949 6.1010742 5.1416016 5.8007813 6.8569336 16.3037109 7.3193359 23.7714844-5.1469727 21.78125-12.0039063 43.3105469-20.0585938 64.1533203-1.9799957-1.9648438-2.6362457-8.6669922-2.9389801-10.418457-2.8623352-16.5762024-1.9329681-36.3812103-12.3588867-42.3203125-12.1862488-6.9440308-26.1811829 7.782196-39.3530273-4.9838867-5.9760742-5.7929688-6.1669922-13.9755859-7.434082-21.6582031-1.0859375-6.5864258-3.4521484-13.6845703-9.7260742-17.0380859-5.5991211-2.9926758-11.4658203-.7602539-16.3857422 2.4394531-7.4614258 4.8525391-13.3100586 11.6103516-22.9838867 11.2924805-4.5043945-.1474609-8.8017578-1.8217773-12.3740234-4.5263672-3.4169159-2.586853-5.4559174-5.1257935-6.300293-9.3476563-2.7459183-13.8138123.5324554-31.0879822-10.0258789-35.8549805-5.6772461-2.5634766-11.5297852 1.2392578-17.0561523 2.5039063-8.9233398 2.0415039-16.5996094 1.3925781-25.0371094-2.0253906-6.8662109-2.7807617-11.7905235-7.8378906-15.2206993-13.9487305-1.2329102-2.4379883-2.1635742-4.8857422-2.8950195-6.9619141v-.0004883c-7.9513626-22.519371-1.6861687-33.630928.8925781-47.7587891 1.9463997-10.6645317 3.2717094-19.7137222-5.0024414-26.6591759 3.6669922-1.5371094 7.402832-2.8076172 11.5493164-3.4575195 7.4921837-1.1743164 15.4663048-2.003418 23.0556602-2.1503906 4.3828125-.0844728 8.8007813.3481444 13.053711 1.4213866z"/><path d="m93.8682404 67.9692078c.3710938-.057785.9236755-.4011688 1.144043-.7026367 3.3276367-2.9194336 4.1220703-8.2958946 2.7011719-12.3681602-1.1972656-3.4291992-4.9501953-6.7753906-8.640625-4.5532227-6.8173829 4.1044921-3.8427735 21.0971641 4.7954101 17.6240196z"/><path d="m64.1460724 64.6650085c3.7875977-.2949219 7.5214844-.8793907 11.2148438-1.773922 1.8754883-.4541016 1.0810547-3.3476563-.7978516-2.8925781-3.4335938.831543-6.8935547 1.3920898-10.4169922 1.6665039-1.9121056.1489258-1.9282189 3.1498986 0 2.9999962z"/><path d="m72.6133575 74.0419617c1.8710938-.4702148 1.0786133-3.3637695-.7973633-2.8925781-2.4775391.6225586-4.953125.8076172-7.4970703.6015625-1.9243126-.1557617-1.9140587 2.8452148 0 3 2.8022461.2270507 5.5688477-.0239258 8.2944336-.7089844z"/><path d="m67.8262482 78.848114c-1.715332.9462891-3.6049805 1.2456055-5.5224571.8242188-1.8813477-.4135742-2.6850586 2.4780273-.7973633 2.8925781 2.7153282.597168 5.3979454.2172852 7.8339806-1.1264648 1.6909179-.9326172.1791991-3.5244141-1.5141602-2.5903321z"/><path d="m66.0269318 115.6147156c10.871582-4.2641602 21.6894531-8.6601563 32.4541016-13.1875 1.7524414-.7373047.9824219-3.6416016-.7978516-2.8930664-10.7641602 4.527832-21.5820313 8.9238281-32.4541016 13.1875-1.7768517.6967773-1.003418 3.5991211.7978516 2.8930664z"/><path d="m83.2017365 129.0986023c7.3916016-3.4272461 14.4575195-7.4106445 21.2202148-11.9541016 1.5947266-1.0708008.0947266-3.6708984-1.5141602-2.590332-6.7626953 4.543457-13.8286133 8.5268555-21.2202148 11.9541016-1.75.8110351-.2280273 3.3979492 1.5141602 2.590332z"/><path d="m108.6289825 129.1635437c1.8515625-1.4550781 3.5498047-3.0722656 5.0961914-4.8481445 1.2631836-1.4501953-.8505859-3.5805664-2.1210938-2.121582-1.546875 1.7763672-3.2451172 3.3935547-5.0966797 4.8486328-.6420898.5043945-.5185547 1.5913086 0 2.1210938.6220704.6362304 1.4877931.4980468 2.1215821-.0000001z"/><path d="m136.0786896 163.7279968c3.5302734-4.2666016 7.0605469-8.5336914 10.5908203-12.8007813 1.2216797-1.4765625-.8891602-3.6108398-2.1210938-2.1210938-3.5307617 4.2666016-7.0610352 8.5336914-10.5913086 12.8007813-1.2216796 1.4765626.8891602 3.6103516 2.1215821 2.1210938z"/><path d="m151.8755646 172.6098328c2.4897461-3.1103516 4.6416016-6.4189453 6.4213867-9.9848633.8598633-1.7226563-1.7270508-3.2436523-2.590332-1.5141602-1.6611328 3.3271484-3.6269531 6.4726563-5.9521484 9.3779297-1.1953126 1.4926758.9145507 3.6289063 2.1210937 2.1210938z"/><path d="m184.4341583 162.2089539c3.6245117-8.4882813 8.1791992-16.4174805 13.7036133-23.8115234 1.15625-1.5473633-1.4467773-3.0444336-2.590332-1.5141602-5.5244141 7.394043-10.0791016 15.3232422-13.7036133 23.8115234-.7495117 1.7558594 1.8339844 3.2861328 2.590332 1.5141602z"/><path d="m199.8413849 165.4848328c1.5395508-2.8984375 3.0786133-5.7963867 4.6176758-8.6943359.9047852-1.7041016-1.6835938-3.2216797-2.590332-1.5141602-1.5390625 2.8979492-3.0786133 5.7963867-4.6176758 8.6943359-.9047852 1.7041016 1.6835937 3.2216797 2.590332 1.5141602z"/><path d="m209.8980255 202.6127625c3.203125-4.7519531 6.2788086-9.5834961 9.2285156-14.496582.9960938-1.6591797-1.5966797-3.1694336-2.590332-1.5141602-2.949707 4.9130859-6.0253906 9.7446289-9.2285156 14.496582-1.0820313 1.6049805 1.5161133 3.1079102 2.590332 1.5141602z"/><path d="m246.1890411 206.9154968c3.3066406-7.3496094 7.159668-14.3876953 11.5761871-21.1289063 1.0615234-1.6191406-1.5351563-3.1240234-2.5903473-1.5136719-4.4165039 6.7412109-8.2695313 13.7792969-11.5761719 21.128418-.7856444 1.7465821 1.7988282 3.2739259 2.5903321 1.5141602z"/><path d="m259.3287048 212.2826843c2.0131836-4.1303711 4.0258789-8.2602539 6.0390625-12.390625.8427734-1.7285156-1.7436523-3.2514648-2.590332-1.5141602-2.0131836 4.1303711-4.0263672 8.2602539-6.0390625 12.390625-.8427887 1.7285157 1.7436523 3.2509766 2.590332 1.5141602z"/><path d="m36.7212715 165.7709656c10.7597656-3.1704102 21.5200195-6.3408203 32.2797813-9.5117188 1.8476563-.5439453 1.0610352-3.4404297-.7973633-2.8925781-10.7602501 3.1704102-21.5200157 6.3408203-32.2797813 9.5112305-1.8476562.5444336-1.0615234 3.4409179.7973633 2.8930664z"/><path d="m70.6865997 175.3520203c-13.5209923 3.6479492-27.0415001 7.2963867-40.5625 10.9443359-1.8618164.5024414-1.0717773 3.3974609.7978516 2.8930664 13.5205097-3.6484375 27.0415058-7.2963867 40.5620117-10.9448242 1.8623047-.5024414 1.0722656-3.3969727-.7973633-2.8925781z"/><path d="m66.690506 192.3066101c-7.1757774 2.0483398-14.3515587 4.0961914-21.5273399 6.1445313-1.8535156.5292969-1.0654297 3.4248047.7973633 2.8930664 7.1757813-2.0483398 14.3515625-4.0966797 21.5273399-6.1450195 1.8535156-.5288087 1.0654297-3.4243165-.7973633-2.8925782z"/></g></g></svg>