<svg id="Layer_1" enable-background="new 0 0 300 300" height="512" viewBox="0 0 300 300" width="512" xmlns="http://www.w3.org/2000/svg"><g id="Roadmap"><g><path d="m21.9992008 101.1833725c9.7148438 43.8940353 17.3588886 97.6059494 29.6523457 140.8481445 31.2128868 7.8032227 51.3044395 12.112793 77.2519531 18.3379059 21.5786133-13.6919098 42.7978516-24.9340973 64.3764648-38.6259918 19.3730469 11.6206055 31.6657715 24.434082 49.5505371 38.2358551 6.638916.9956055 16.1208496.3115234 23.0310059-.8271484.0371094.0239258.0742188.0493164.1118164.0732422.5507813.3549805 1.3671875.2255859 1.8173828-.234375.2236633-.2269592.3220215-.4702148.6591797-1.0014648.8486328-1.9575195.0205078-4.7382965-.0805664-6.7588043-2.0969849-42.002655-1.6513672-81.3093719-1.019043-123.2202148.0131836-.8808517-.7036133-1.4052658-1.5-1.4999924-2.2041016-.2626953-5.5927734-3.2475586-7.6069336-4.3920898-19.1072693-10.8541946-25.0040894-13.6175613-60.2805176-34.9692383.3266754-.1825256.5974274-.352829 1.0544434-.8745117 25.7827301 3.8804932 50.9932556-.3583374 77.2270508-.1254883.5546875.0048828.9873047.1416016 1.375-.3242188.4522705-.5438995.5668945-1.5289764-.0131836-2.2885742-.1303711-.6269531-.5917969-1.2050781-1.3896484-1.2900391-24.9438477-2.6640625-50.0439453-2.3334961-74.9086914.9868164-.1308594.0175781-.2507324.0507813-.3637695.0927734 2.2624512-1.8125 2.8095703-5.2041016 2.9431152-8.1967773.4060059-9.1049805-.3654785-18.960453-3.9052734-27.3808632-.2902832-.6904297-.9060059-1.7290039-1.5202637-2.5571289 19.2893066-1.4555664 38.4475098-.027832 57.5009766 3.3291016 1.8881836.3325195 2.6987305-2.5581055.7973633-2.8930664-20.0913086-3.5395508-40.3413086-5.0385742-60.6999512-3.2485352-.2333984.0205078-.4375.0844727-.6140137.1787109-.6428223-.9921875-1.4091797-1.8408203-2.3242188-2.3579102-5.7236328-3.2373047-6.498291 6.2719727-6.1142578 10.4121094-10.7724609.5820313-21.5786133 1.4785156-32.0390625 4.1567383-10.0395508 2.5703125-19.7612305 6.5766602-24.2055664 16.2880898-4.2063446-1.5455399-8.5494919-2.0155258-13.3093338-1.1235352-6.2243652-1.4125977-15.4553223 2.9916992-19.3728027 9.4018555-4.4157715 7.2246094-5.2666016 17.4667969-3.5114746 25.7504883s5.8132324 15.5859375 10.9245605 22.3364258c3.5068359 4.6323166 6.2878418 6.8662033 8.7785645 8.4863205.5202637.3378906 1.2453613.7802734 2.0759277 1.2631836-.7495117.546875-1.4946289 1.0996094-2.246582 1.6435547-1.2363281.8950195-2.4748535 1.7875977-3.7155762 2.6762695-.3647461.2617188-2.7229004 2.4780273-2.8188477 2.4838867-1.3005371.0830078-5.4350586-3.1787109-6.6799316-3.9077148-29.1138229-17.0422363-34.7147141-23.6884766-61.0300255-40.8920822-1.001709-.6547852-2.2050781.2211914-2.2570801 1.2954102-.1584473 3.2724609 1.3303223 7.0439453 2.0297852 10.2368164.3208008 1.465332.6501465 2.9287109.9731445 4.3935547-.348877-1.2573242-.6970215-2.5112305-1.0466309-3.7729492-6.3820762-2.3281329-12.3532695-5.7778399-17.5573711-10.1445391zm174.8752499-55.8681679c.0083008.0541992.0148926.1064453.0241699.1625977-.0205078-.0532227-.0427246-.1064453-.0637207-.159668.0131836-.0009766.0263672-.0019531.0395508-.0029297zm-4.173584-1.2265625c1.496582.5634766 2.1584473 4.5224609 2.5083008 6.3076172-.4427338-.2325134-.2854156-.1839218-5.2436523.0625-.3906251-2.1069336-1.2856446-7.8837891 2.7353515-6.3701172zm-31.8310547 12.4150391c11.0559082-2.2138672 22.3652344-2.7246094 33.6003418-3.2636719.5515137-.0263672.9401855-.2954102 1.1762695-.6591797 1.3617096 6.808197 3.0421143 19.5017967 2.4853516 26.4467812-.123291 1.5371094-.0319824 6.1665039-2.8786621 4.3959961-1.0161133-.6318359-1.9970703-4.2744141-2.0810547-5.3417969-.1501465-1.9121094-3.1513672-1.9282227-3 0 .1486816 1.8920898 1.1750488 5.359375 2.8566895 7.5551758-.3273926-.0864258-.6958008-.0615234-1.0756836.1479492-14.9104004 8.2207031-29.2331543 17.2602539-43.0283203 27.2099609.3171387-1.543457.5773926-3.1235352.7897949-4.7363281 5.7954712-3.8225479 8.752121-12.5959396 15.7038574-17.9438477 4.5568848-3.5053711 10.3034668-4.4931641 15.2487793-7.269043 4.901123-2.7514648 8.7734375-6.9267578 13.8601074-9.4003906 1.736084-.84375.2167969-3.4316406-1.5141602-2.590332-3.7214355 1.8095703-6.7399902 4.4306641-10.0441895 6.8676758-3.8215332 2.8183594-8.0146484 4.3710938-12.3771973 6.1425781-6.9504395 2.8212891-11.7988281 7.7910156-15.9453125 13.9370117-1.7973633 2.6645508-9.0961914 13.3632813-11.5517578 6.2001953-1.2038574-3.5117188 1.3007813-7.7260742 3.354248-10.1791992.5092773-.6083984 1.0344238-1.2050781 1.5671387-1.7963867.2150879-.1308594.3955078-.3164063.5117188-.559082 3.7509766-4.1035156 7.8405762-7.9980469 10.3276367-13.3803711.5268555-1.1401367-.4001465-2.1816406-1.3300781-2.2768555-.3757324-.1694336-.8256836-.1850586-1.2922363.074707-4.1081543 2.284668-9.0007324 1.652832-13.0634766 3.9047852-2.6166077-3.1286926-5.6005096-5.7364197-9.6616211-7.753418 4.6914064-10.4072303 16.9589845-13.6499061 27.3618165-15.7329139zm-12.8203125 31.3754921c-.6748047-1.8852539-1.8249512-3.8217773-3.072998-5.5620117 2.8225098-1.59375 6.3518066-1.6450195 9.576416-2.4453125-1.8449707 2.9208984-4.1372071 5.4692382-6.503418 8.0073242zm-58.5219803 48.5512619v1.4282227c0 .965332 1.5.9667969 1.5 0 0-.1772461 0-.3544922 0-.5317383 5.1955566 3.1030273 10.401123 6.1904297 15.4655762 9.5283203.4123535.2719727 1.104248.2910156 1.5141602 0 3.760498-2.668457 7.4970703-5.3701172 11.2185059-8.0932617 3.0566406 1.6064453 6.4440918 3.105957 7.9477539 2.9594727.0354004.0297852.0705566.0595703.105957.0893555 1.4687576 1.2348633 3.6015701-.8764648 2.1213455-2.1210938-13.4836502-11.3374023-29.2268143-26.0156174-28.9863358-45.2602463.2482605-19.8559494 22.1395798-28.68293 36.9184647-16.128418 1.1437988.9716797 2.5952148 2.3837891 3.965332 3.9975586.1154785.3261719.3591309.6181641.6748047.8208008 1.873291 2.3540039 3.4445801 5.0258789 3.6589355 7.3618164-1.9223633 2.0771484-4.2543945 4.59375-5.0981445 7.6000977-1.1057129 3.9389648-1.189209 11.9472656 4.6052246 11.7661133.4694824-.0146484.9291992-.0771484 1.3789063-.1767578-2.0368652 12.9892578-7.9870605 23.619133-15.1430664 34.6523361-1.0534668 1.625 1.5424805 3.1298828 2.5905762 1.5141602 6.0212402-9.2836914 11.050293-18.2001877 13.8815918-28.3808517 14.5881348-10.6967773 29.7756348-20.3457031 45.6201172-29.0810547.6721191-.3701172.8330078-1.0014648.6831055-1.5708008.1325684.1054688.267334.2036133.4055176.2910156-.265625.6235352-.1682129 1.3984375.5771484 1.8500977 37.5212708 22.7258835 42.9453125 25.1299973 63.4462891 36.8164063 1.7421875.9931641 3.7382813 2.587883 5.7553711 3.3466721-.105957 7.0341797-.2001953 14.0688477-.2841797 21.1040039-.296875-.1987305-.5932617-.3974609-.8901367-.5961914-.8041992-.5380859-1.5561523.7602539-.7568359 1.2954102 1.1330566.7582245 1.2798462.9347534 1.6289063.8911133-.3578186 31.043457-.3688354 60.2674866.9741211 91.6049805.1123047 2.6079102.2329102 5.2158203.362793 7.8227539.0478516.9594727-.1035156 2.7612305.0654297 4.0566406-9.730957-6.3237305-19.277832-12.9194336-28.7900391-19.5664063 3.5063477-.2871094 6.2961426-3.0566406 6.6230469-6.5595703.0898438-.9609375-1.4106445-.9545898-1.5 0-.2487793 2.6660156-2.5168457 4.8701172-5.1811523 5.0664063-.5507813.0405273-.7763672.5522461-.6938477.9677734-13.1359863-9.1831055-26.2353516-18.4194336-39.71875-27.0888672-.0405273-.4003906-.2219238-.7817383-.4931641-1.0576172.1533203-.2236328.2421875-.5102539.2258301-.8637695-1.3227539-28.9316406-.8503418-57.8217773-1.0678711-86.7700119-.0144043-1.9296875-3.0144043-1.934082-3 0 .2175293 28.9487228-.2548828 57.8383713 1.0678711 86.7700119.0219727.4785156.2243652.8383789.5146484 1.0795898-5.9885254 4.090332-12.0422363 8.0981445-18.145752 12.0351563-4.5964355 2.5375977-9.1699219 5.1171875-13.7111816 7.7524414-.1367188-.2050781-.2736816-.4106445-.4104004-.6157227-.5327148-.7993164-1.8325195-.0493164-1.295166.7573242.137207.2055664.2744141.4116211.4116211.6171875-9.9589844 5.8056641-19.7883301 11.8330078-29.4655762 18.097168-35.0714951-12.9449768-28.7415619-10.1140289-56.9238358-22.9233398-1.2419434-.5644531-3.2680664-1.0629883-4.0043945-2.0336914-.7524414-.9921875-1.1967773-4.4306641-1.5263672-5.6489258-1.1008301-4.0693359-2.1872559-8.1425781-3.2705078-12.2163086.2307129-.3251953.2536621-.8232422-.1743164-1.1083984-.0495605-.0332031-.0991211-.065918-.1489258-.0991211-11.156559-42.0548401-23.6523705-96.361084-23.9680138-98.4804611 25.4070853 16.8188626 27.9695853 20.5960614 48.7390097 33.0322186z"/><path d="m206.2355347 74.8293686c-.105957.0986328-.199707.2104492-.2612305.3491211-.8190918 1.8422852-.2736816 4.0039063 1.4648438 5.1279297 1.7744141 1.1474609 4.0610352.456543 5.1508789-1.2851563 1.0664063-1.7050781.7451172-3.9638672-.9697266-5.1074219-1.9822388-1.3225173-4.6877899-.5156631-5.3847656.9155274zm3.8708496 2.5004883c-.1948242.3828125-.5705566.6811523-.980957.4941406-.3449707-.1572266-.7199707-.7729492-.560791-1.1313477.0071716-.0160904.0460052-.1222458.0476074-.1269531.5908203-.6484375 2.0146484-.258789 1.4941406.7641602z"/><path d="m130.975769 92.9978256c-1.5742188-4.1132813-6.597908-5.84375-10.3852615-3.8745117-.1015625-.8442383-.78125-1.5673828-1.7790527-1.159668-4.2280273 1.7290039-5.9304199 6.7983398-4.1791992 10.9545898 2.9156876 6.9191971 12.5229568 7.2764893 15.8298416.9584961 1.0981445-2.0996093 1.3676757-4.6474609.5136718-6.8789062zm-13.0463943 5.7895508c-1.4841309-2.2524414-1.3442383-6.1972656 1.1757813-7.6791992.1308594.9926758 1.1213379 1.8520508 2.1520996 1.1171875 2.6066895-1.8574219 6.486084-.7119141 7.1525955 2.6186523.2990723 1.4941406-.1665039 3.0810547-1.0322342 4.2944336-2.4996262 3.5051575-7.4087677 2.742714-9.4482422-.3510742z"/><path d="m80.2889938 181.2370758c8.2062988 2.293457 16.4128418 4.5874023 24.6193848 6.8813477 1.8625488.5205078 2.6572266-2.3730469.7976074-2.8925781-8.206543-2.2939453-16.4130859-4.5878906-24.6196289-6.8818359-1.8623047-.5205079-2.6569824 2.3730468-.7973633 2.8930663z"/><path d="m177.3400269 157.4260406c-11.0219727 5.5800781-21.6362305 11.8554688-31.8378906 18.8232422-1.5849609 1.0820313-.0859375 3.6831055 1.5141602 2.590332 10.2016602-6.9677734 20.815918-13.2431641 31.8378906-18.8232422 1.7229003-.8720702.2060546-3.4614257-1.5141602-2.590332z"/><path d="m202.5621948 151.510025c8.7409668 4.9121094 17.2382813 10.2094727 25.4926758 15.859375-.1529694.5573883.5509949 1.1677704 1.1264648.7602539 8.8464355 6.1074219 17.4040527 12.6323242 25.6455078 19.5742188 1.4677734 1.2363281 3.6005859-.875 2.121582-2.1210938-8.5786133-7.2255859-17.4953613-14.0083008-26.7165527-20.3496094-.1027832-.1875-.2758789-.3413086-.4675293-.3964844-.0463867-.0131836-.0878906-.0048828-.1323242-.0092773-8.276123-5.6660156-16.7922363-10.9833984-25.5556641-15.9077148-1.6850585-.9472656-3.1992187 1.6435547-1.5141601 2.590332z"/><path d="m133.713562 155.7224274c2.46875-.2646484 6.8049316-1.4931641 7.3012695-4.4536133.5839844-3.4829102-4.1520996-3.5405273-6.310791-2.7631836-.0280762.0097656-.0500488.0253906-.0771484.0366211-2.2856445.0556641-6.4104004.9521484-6.894783 3.7128906-.5507813 3.1401367 3.8369217 3.6967774 5.9814529 3.4672852zm3.7287598-4.6914063c1.0700684-.1313477.4643555.0996094-.0354004.3388672-1.3225098.6328125-2.5283203 1.2495117-4.0270996 1.3920898-.6572266.0625-1.4008789-.1806641-2.0161133-.097168-.1044922-.0322266-.2087402-.0649414-.3132324-.097168 1.2988281-.3803711 2.1237793-.9941406 3.6013184-1.0268555.1384277-.0029297.2644043-.0249023.3830566-.0561523.1472168-.0053711.3010254-.0268555.4667969-.0864258.6599121-.2377929 1.263916-.2836913 1.9406738-.3671874z"/><path d="m146.0870972 99.0427475c-.934082-.2470703-1.3325195 1.199707-.3986816 1.4467773 1.135498.300293 2.0231934 1.1376953 2.3635254 2.2661133.2780762.921875 1.7263184.5292969 1.4465332-.3984375-.489502-1.6235351-1.7683106-2.8793945-3.411377-3.3144531z"/><path d="m145.4894409 149.8967438c2.6010742-.7807617 5.2021484-1.5610352 7.8032227-2.3413086.9223633-.2763672.529541-1.7246094-.3986816-1.4462891-2.6010742.7802734-5.2021484 1.5605469-7.8032227 2.3408203-.9221192.2768555-.5292969 1.7250977.3986816 1.4467774z"/><path d="m158.3649292 146.385025c2.6257324-.7661133 5.2729492-1.0102539 7.9938965-.753418.9606934.0908203.9543457-1.4101563 0-1.5-2.8527832-.2695313-5.6433105.0043945-8.3928223.8071289-.9245605.2700196-.53125 1.7177735.3989258 1.4462891z"/><path d="m174.5524292 146.7985992c1.7416992.1557617 3.2978516.9038086 4.5395508 2.1264648.6884766.6782227 1.75-.3818359 1.060791-1.0605469-1.5356445-1.512207-3.4589844-2.3745117-5.6003418-2.565918-.9611816-.0864256-.9553223 1.4140626 0 1.5000001z"/><path d="m184.8292847 155.404068c.3911133.8808594 1.684082.1181641 1.295166-.7568359-.5202637-1.1704102-1.0405273-2.3408203-1.560791-3.5117188-.3911133-.8798828-1.684082-.1181641-1.295166.7573242.5202636 1.1704102 1.0405273 2.3408203 1.560791 3.5112305z"/><path d="m185.9996948 160.0861969c.6445313 1.230957.847168 2.5395508.6779785 3.9130859-.1179199.9560547 1.3830566.9472656 1.5 0 .2009277-1.6308594-.1228027-3.21875-.8828125-4.6699219-.447998-.855957-1.7429199-.0981445-1.295166.756836z"/><path d="m186.0028687 170.4592438c-.3896484 1.1704102-.779541 2.3413086-1.1691895 3.5117188-.3054199.9179688 1.1425781 1.3115234 1.4465332.3989258.3896484-1.1708984.7792969-2.3413086 1.1689453-3.512207.3056641-.9179689-1.142334-1.3115236-1.446289-.3984376z"/><path d="m180.2719116 185.0564117c.7805176-1.300293 1.560791-2.6010742 2.3410645-3.9013672.4978027-.8300781-.798584-1.5849609-1.295166-.7573242-.7805176 1.3007813-1.560791 2.6010742-2.3410645 3.9018555-.4978027.8295898.798584 1.5849609 1.295166.7568359z"/><path d="m171.7579956 192.810318c-1.7148438 1.6660156-3.4291992 3.3320313-5.144043 4.9985352-.6933594.6738281.3676758 1.7338867 1.060791 1.0605469 1.7145996-1.6660156 3.4291992-3.3325195 5.1437988-4.9985352.6936036-.6738282-.3676757-1.7338868-1.0605468-1.0605469z"/><path d="m158.9396362 205.9148102c-.5151367 1.4321289-1.0302734 2.8647461-1.5454102 4.2973633-.3271484.909668 1.1218262 1.3017578 1.4465332.3984375.5151367-1.4321289 1.0300293-2.8647461 1.545166-4.2973633.3271485-.909668-1.1215819-1.3017578-1.446289-.3984375z"/><path d="m156.6620483 217.2605133c.2600098 1.5610352.5202637 3.121582.7802734 4.6821289.1584473.9501953 1.6040039.5473633 1.4465332-.3989258-.2602539-1.5605469-.5202637-3.1210938-.7805176-4.6816406-.158203-.9501953-1.6040038-.546875-1.446289.3984375z"/><path d="m240.9904175 217.8401031c.8425293 1.9160156 1.1171875 3.9887695.8012695 6.0576172-.144043.9443359 1.3012695 1.3515625 1.4465332.3989258.3830566-2.5097656.0693359-4.8891602-.9523926-7.2133789-.3876953-.8818359-1.680664-.1191406-1.2954101.7568359z"/><path d="m237.6766968 207.673111c-.5541992-.7807617-1.8554688-.0327148-1.295166.7568359.9187012 1.2944336 1.8374023 2.5893555 2.7563477 3.8837891.5539551.7807617 1.8554688.0327148 1.2949219-.7568359-.9184571-1.294922-1.8374025-2.5893555-2.7561036-3.8837891z"/><path d="m226.6012573 193.3386383c-.5258789-.8051758-1.8251953-.0546875-1.295166.7568359 1.2822266 1.9628906 2.564209 3.9257813 3.8464355 5.8886719.5258789.8046875 1.8251953.0541992 1.2954102-.7573242-1.2822266-1.9628906-2.5644531-3.9257813-3.8466797-5.8881836z"/><path d="m222.8986206 180.7819977c.1225586 1.4311523.244873 2.8623047.3671875 4.293457.081543.9545898 1.5822754.9633789 1.5 0-.1223145-1.4311523-.2446289-2.8623047-.3671875-4.293457-.081543-.9545899-1.5822754-.9633789-1.5 0z"/><path d="m225.7924194 175.8366852c.5507813-1.6806641 1.1015625-3.3613281 1.6523438-5.0419922.3012695-.9194336-1.1467285-1.3134766-1.4465332-.3984375-.5507813 1.6806641-1.1015625 3.3613281-1.6523438 5.0419922-.3012695.9194336 1.1467285 1.3134765 1.4465332.3984375z"/><path d="m235.0453491 160.4880524c1.3190918-1.1494141 2.6381836-2.2983398 3.9572754-3.4472656.7294922-.6352539-.3352051-1.6923828-1.0605469-1.0605469-1.3190918 1.1489258-2.6381836 2.2978516-3.9575195 3.4472656-.7290039.6352539.3354492 1.6923828 1.060791 1.0605469z"/><path d="m245.1598511 151.3816071c1.3295898-.7983398 2.7548828-1.1469727 4.3034668-1.0683594.9645996.0493164.9621582-1.4506836 0-1.5-1.7929688-.0908203-3.5224609.3496094-5.0605469 1.2729492-.8266602.496582-.0734863 1.7939453.7570801 1.2954102z"/><path d="m256.3082886 148.3757477c.7397461-.2128906 1.4702148-.0219727 2.0097656.527832.6772461.6904297 1.737793-.3706055 1.0605469-1.0605469-.9033203-.9208984-2.2290039-1.2705078-3.4692383-.9140625-.9257813.2666016-.5322266 1.7143555.3989258 1.4467774z"/><path d="m67.0626755 157.6726227c.9521484-.1308594.546875-1.5761719-.3986816-1.4462891-1.5822754.2177734-3.1660118-.265625-4.3789024-1.2949219-.7319336-.6210938-1.7980957.4345703-1.060791 1.0605469 1.6672362 1.4145508 3.6779746 1.9780274 5.838375 1.6806641z"/><path d="m73.7218552 157.7717438c1.298584-.3964844 2.5974121-.7924805 3.8959961-1.1889648.9206543-.2807617.5283203-1.7290039-.3986816-1.4462891-1.298584.3964844-2.5974121.7924805-3.8962402 1.1884766-.9206544.2812499-.5280763 1.7294921.3989257 1.4467773z"/><path d="m81.6910934 153.4079742c1.4499512-.1826172 2.7158203-.9716797 3.4042969-2.2841797.447998-.8540039-.8461914-1.6132813-1.295166-.7573242-.4226074.8056641-1.1855469 1.425293-2.1091309 1.5415039-.4050293.0512695-.7453613.3081055-.75.75-.0036621.366211.3483887.8007813.75.75z"/><path d="m88.5841599 146.0402985c.3901367-.6499023.7802734-1.300293 1.1704102-1.9506836.4980469-.8300781-.798584-1.5849609-1.295166-.7568359-.3901367.6499023-.7802734 1.300293-1.1706543 1.9506836-.4978028.8295898.798828 1.5844726 1.2954101.7568359z"/><path d="m115.8287888 204.9094391c1.3005371.5200195 2.6010742 1.0405273 3.9016113 1.5605469.8962402.3583984 1.2854004-1.0917969.3986816-1.4462891-1.3005371-.5205078-2.6010742-1.0405273-3.9016113-1.5610352-.8962402-.3583984-1.2854004 1.0917969-.3986816 1.4467774z"/><path d="m104.1393356 202.0832672c1.6882324.2749023 3.3764648.5493164 5.0649414.8242188.9443359.1538086 1.3505859-1.2915039.3986816-1.4462891-1.6882324-.2749023-3.376709-.5493164-5.0649414-.8242188-.9443359-.1538085-1.3505859 1.291504-.3986816 1.4462891z"/><path d="m95.3612595 200.4172516c-.9104004.3901367-1.8208008.7802734-2.7312012 1.1704102-.3752441.1606445-.4516602.7055664-.269043 1.0263672.220459.387207.6560059.4277344 1.026123.269043.9104004-.3901367 1.8208008-.7807617 2.7312012-1.1708984.375-.1606445.451416-.7055664.269043-1.0258789-.220459-.3876955-.6560059-.4277345-1.026123-.2690431z"/><path d="m89.9445114 208.2785797c-.2602539.7802734-.5202637 1.5605469-.7802734 2.3408203-.3061523.9179688 1.1420898 1.3115234 1.4462891.3989258.2600098-.7802734.5202637-1.5605469.7802734-2.3413086.3059082-.9174805-1.1420899-1.3110351-1.4462891-.3984375z"/><path d="m87.6439743 216.5471344c-1.4257813.9179688-2.8515625 1.8359375-4.2770996 2.7539063-.809082.5209961-.0578613 1.8198242.7570801 1.2954102 1.4255371-.9179688 2.8513184-1.8359375 4.2770996-2.7539063.8088379-.5209961.0576172-1.8198243-.7570801-1.2954102z"/><path d="m79.5524216 218.2888336c-.9104004-.2597656-1.8208008-.5200195-2.7312012-.7802734-.9299316-.265625-1.3269043 1.1811523-.3986816 1.4462891.9101563.2602539 1.8208008.5205078 2.730957.7807617.9299316.265625 1.3269043-1.1816407.3989258-1.4467774z"/><path d="m73.3602829 215.6408844c.6835938.6835938 1.7443848-.3769531 1.060791-1.0605469-.9104004-.9106445-1.8208008-1.8208008-2.7312012-2.730957-.6833496-.6835938-1.7443848.3764648-1.060791 1.0605469.9106446.9101562 1.8208008 1.8208007 2.7312012 2.730957z"/><path d="m66.2941208 206.3195953c.7739258.7866211 1.5478516 1.5732422 2.3220215 2.3598633.6779785.6889648 1.7385254-.3720703 1.0605469-1.0605469-.7739258-.7866211-1.5478516-1.5732422-2.3220215-2.3598633-.6779786-.6889648-1.7385254.3715821-1.0605469 1.0605469z"/></g></g></svg>