<svg id="Layer_1" enable-background="new 0 0 300 300" height="512" viewBox="0 0 300 300" width="512" xmlns="http://www.w3.org/2000/svg"><g id="search"><g><path d="m127.7687988 101.4832993c.1768188.6371002 1.1404266.3723297.9648438-.265625l-2.7548828-9.9985352c-.1773529-.63591-1.1405029-.3725967-.9648438.265625z"/><path d="m135.5217285 104.6913071c.1251984.653923 1.107132.4654999.9824219-.1875-.7802734-4.0859375-1.8808594-8.1479492-3.2695313-12.0732422-.2246552-.6236649-1.1625824-.2887115-.9433594.3339844 1.3730469 3.8774414 2.4589844 7.890625 3.2304688 11.9267578z"/><path d="m142.9348145 108.4730453c.1398621.6454849 1.1170349.4354248.9765625-.2119141l-2.3251953-10.7338867c-.1407166-.6472626-1.116745-.4340897-.9765625.2119141z"/><path d="m175.5383301 121.0057602c.0703125.2094727.265625.3417969.4746094.3417969.3387299 0 .5824738-.3328018.4746094-.6582031l-2-6c-.2099304-.6263046-1.1576691-.312439-.9492188.3164063z"/><path d="m179.0441895 119.7704086c.2280121.6210251 1.1667786.2742767.9375-.3457031l-1.75-4.75c-.2263489-.619545-1.1672363-.2766953-.9375.3457031z"/><path d="m21.9885254 77.3592758c.1303711.0463867.2612305.0917969.3916016.1381836.4428711 1.081543 1.0258789 2.2041016 1.340332 3.2485352 18.5791016 5.7167969 34.7050781 11.1279297 52.8334961 18.1665039 1.1806641-.5244141 2.4326172-.8613281 3.0961914-1.472168 1.2617188-.2060547 1.6118164-2.3979492.0795898-2.9726563-18.8232422-7.0585937-38.0039062-13.2543945-56.9433593-20.0009765-1.8222657-.6489258-2.6064454 2.2485351-.7978516 2.8925781z"/><path d="m256.7453613 152.7870178c-13.8193359-8.0673828-29.0131836-13.465332-44.2563477-18.1362305-1.8500977-.5673828-2.6411133 2.3276367-.7973633 2.8925781 21.5254059 6.5962982 42.3773346 14.4947052 59.6298828 29.1557617.703125.5976563 2.8417969 2.0351563 3.2416992 2.8681641 2.2929688 4.7749023-2.6459961 4.1918945-4.4228516 4.0883789-21.7785492-1.2718201-52.181015-12.8752136-71.4077148-30.0195313 6.4959717-.61026 10.3862457-7.358017 6.9765625-11.7314453-1.5898438-2.0395508-5.6333008-4.2978592-8.9770508-4.4702225.5766602-2.4716797.8920898-5.0395508.9238281-7.6811523 2.7587891-6.0200195 3.8994141-12.8505859 2.9301758-20.0732422-3.1464844-23.4516602-24.7456055-39.6074181-46.1010742-45.9682579-25.6327667-6.9037895-54.5753021 4.3788834-58.3457031 30.7592735-11.333252 18.4401474-3.3412933 41.0841599 12.5131836 55.52491 20.5026245 18.6738739 53.2957001 24.3131256 74.0483398 8.5947266 3.7734375 1.8833008 6.7861328 2.5673828 12.3041992 1.7133789 7.2363281 9.7607422 15.6616211 16.909668 24.8935547 21.6757813 13.6557617 7.0507355 27.0970306 11.5580139 42.1181641 10.0751953 5.9904785-.5912781 12.0749817-2.1948547 15.7714844-6.9726563 6.8916016-6.3989257-16.7993163-19.8173827-21.0429687-22.2954101zm-107.3081054-82.1479568c23.3200531 6.9730988 45.2359619 24.8351746 45.1054688 48.5883789-11.4057922 24.2075882-46.5828705 27.7069321-72.222168 10.3046951-14.1376953-9.5952225-25.628418-26.3681717-23.3105469-43.9316483 10.1376953-15.6113281 32.7041015-19.7700195 50.4272461-14.9614257zm52.118164 68.9614334c-2.8041992 1.9116211-6.722168 1.1450195-9.8085938-.6157227 1.7177734-2.6083984 3.1010742-5.4248047 4.0961914-8.409668 5.0776368-.9721679 11.404297 5.1455079 5.7124024 9.0253907z"/><path d="m160.8112793 119.9300766c5.4926758 4.0258789 20.9057617 12.5195389 25.5449219 3.1328125 4.9985352-10.1142578-9.5043945-15.2841797-16.4555664-16.9477539-.3383789-.0810547-.659668.0576172-.8466797.3447266-2.6708984 4.0961914-5.5390625 8.0571289-8.2119141 12.1518555-.3833008.2666015-.5375976.9467773-.0307617 1.3183593zm10.3774414-11.9648438c4.2451172-.4511719 10.9472656 3.9326172 13.0712891 7.1782227 2.3886719 3.6484375 1.8476563 8.8325195-3.0571289 10.2788086-2.2431641.6621094-4.9960938-.0698242-7.1542969-.6342773-4.2836914-1.1201172-8.1791992-3.1196289-11.7700195-5.6523438 1.8496093-2.9868164 5.586914-10.8173828 8.9101562-11.1704102z"/><path d="m115.5925293 109.6864243c7.3180771 6.8223724 20.7123871 8.5259628 30.6743164 8.2919922 1.8242188-.0429688 3.6806641.5073242 5.4882813.8295898 2.3100586.4125977 2.6914063.7172852 3.7451172-.0009766.6113281-.4165039 1.1459961-1.4223633.9746094-2.2304688.0117188-.0395508.0219727-.0776367.0268555-.1176758 2.2817383-4.2055664 4.5629883-8.4111328 6.8442383-12.6162109.1552734-.2866211.1289063-.6767578-.1171875-.9091797-8.1923828-7.734375-17.8334961-14.3686523-28.800293-17.3994141-7.1298828-1.9702148-20.8442383-3.2714844-24.2661133 5.6704102-2.1849824 5.711937 1.1239318 14.4679337 5.4301757 18.4819337zm-.7885742-21.5444336c9.5292969-6.2099609 23.3779297-.6850586 32.1918945 4.3706055 4.3017578 2.4672852 9.4746094 5.5258789 12.7827148 9.2695313 2.2944336 2.5961914.7368164 4.1333008-.8188477 7.0009766-1.2094727 2.2299805-2.4189453 4.4594727-3.628418 6.6889648-7.5986328-3.1367188-16.3330078-.2768555-24.2797852-2.5332031-15.6569899-4.4457704-25.0172346-19.0820466-16.2475584-24.7968751z"/><path d="m39.473877 99.9632797c-6.1673317-2.377861-15.1597729-3.1712341-16.8574219 3.1523438-1.2050781 2.8408203.1166992 8.1425781 2.5229492 10.8969727 4.2715034 4.8885956 12.9822235 6.971138 19.4155273 7.5625 1.1958008.1098633 2.3671875.5981445 3.5244141.9384766 1.4785156.4350586 1.7041016.6572266 2.4487305.28125.2172852-.109375.4326172-.3178711.5888672-.5625.3188477.0073242.5791016-.2128906.6953125-.4946289 1.8408203-2.5258789 3.6811523-5.0517578 5.5219727-7.578125.2036133-.2797852.0869141-.6743164-.1171875-.9086914-4.8750001-5.6035157-10.7373048-10.5869142-17.7431641-13.2875978zm14.3149414 16.5273438c-.8417969 1.3979492-1.9174805 2.7050781-2.9116211 4.0170898-4.4150391-2.1787109-9.4887695-1.3183594-14.1513672-2.8535156-4.9042969-1.6152344-19.3212891-12.190918-9.746582-16.9985352 6.3637695-3.1953125 15.0541992 1.5625 20.2075195 5.2675781 2.2421875 1.6123047 5.3662109 3.7788086 6.9414063 6.1225586 1.4252929 2.1201172 1.0214843 2.1850586-.3393555 4.4448243z"/><path d="m61.2043457 115.7230453c-.2333984-.0830078-.5683594.0053711-.7299805.1928711-1.881382 2.1843338-5.6686478 6.2621536-6.3759766 7.1757813-.3740234.2358398-.5712891.7485352-.1503906 1.1289063 3.4174805 3.0883789 12.6586914 9.549324 16.7338867 4.174324 4.7441407-6.2578202-5.0273437-11.0825272-9.477539-12.6718827zm7.2685547 12.6660233c-1.6923828.9887695-3.8496094.2573242-5.5102539-.3447266-2.7416992-.9931717-5.1699219-2.5146561-7.3681641-4.3979568.9106445-1.0454102 1.8334961-2.0786133 2.7661133-3.1054688.5795898-.6391602 1.5756836-2.3061523 2.3989258-2.6635742 2.5795898-1.1201172 7.0952148 2.3242188 8.4516602 4.4189453 1.2578124 1.940918 1.6293945 4.7084961-.7382813 6.0927811z"/><path d="m76.1564941 152.6615295c.325592-.3918152.2664337-.9158478-.3452148-1.1889648-3.796875-2.0234375-5.6298828-6.0761719-8.6435547-9.0083008-8.3285141-8.1029663-20.4863205-10.1506042-23.796875-2.6313477-.8017578 1.8212891-.9550781 3.4057617-.6650391 4.8251953.4981003 10.3096466 13.3647881 15.2465363 23.4570313 17.6484375 1.544281.3675842 3.5672455 1.2106781 4.8911133.2021484.3757935-.2858887.6616058-.7564087.515625-1.1860352.429779-.1155699.0463943.4263002 4.586914-8.6611327zm-21.4980468-15.7294921c3.7978516.956543 7.4101563 3.0307617 10.3535156 5.5888672 3.5473633 3.0830078 5.5048828 7.5864258 9.5717773 9.9916992-1.1860352 2.6831055-2.5048828 6.8251953-5.3535156 7.0180664-2.5200195.1699219-6.0488281-1.4013672-8.3876953-2.2612305-5.1376953-1.8891602-16.1870117-7.0776367-16.7128906-13.3891602-.4804688-5.7734375 5.8286133-8.1318359 10.5288086-6.9482421z"/><path d="m79.5075684 153.098053c-.5317383-.1416016-.878418.2670898-.9160156.6904297-.6457138 1.5066528-2.2779922 6.1175385-3.347168 8.7958984-.1328125.3320313.0986328.6601563.3447266.8466797 3.9384766 2.9887695 12.9702148 8.1088867 16.1962891 1.2148438 2.8916015-6.1801758-8.1113282-10.4384766-12.2778321-11.5478516zm10.21875 11.9257812c-2.2159119 2.4295959-6.6332016 1.4426727-9.5385742-.1992188-.6611328-.3730469-2.7915039-1.3945313-3.0751953-2.1074219-.4072266-1.0224609.8896484-3.1616211 1.2407227-4.1142578.4750977-1.2910156.9604492-2.5766602 1.4633789-3.8564453 5.3650969 1.561905 13.6470946 6.1804047 9.9096679 10.2773438z"/><path d="m147.3283691 181.426178c-3.796875-2.0229492-5.6298828-6.0761719-8.6435547-9.0083008-8.333847-8.1066437-20.4868088-10.1506042-23.7973633-2.6313477-.831543 1.8886719-.965332 3.5224609-.6298828 4.9819336.8475266 10.0566101 13.6871338 14.8608704 23.4282227 17.1791992 1.0400391.2480469 2.1210938.6513672 3.1972656.6791992.9962921.0260468 2.1226196-.4185181 2.2304688-1.355957.3959351-.1205597.0158386.4412842 4.5595703-8.6557617.325531-.3916168.2673798-.9139099-.3447266-1.1889648zm-6.5815429 8.0576172c-2.5200195.1704102-6.0488281-1.4008789-8.3876953-2.2607422-3.6819611-1.353775-7.5920181-3.4726257-10.9165039-5.6137695-3.0898438-2.2143555-5.5546875-4.8759766-5.7958984-7.7758789-.480957-5.7729492 5.828125-8.1313477 10.5283203-6.9477539 3.7983398.956543 7.4101563 3.0307617 10.3540039 5.5888672 3.5473633 3.0825195 5.5043945 7.5864258 9.5717773 9.9916992-1.1865235 2.6835937-2.5048828 6.8251953-5.3540039 7.0175781z"/><path d="m147.1057129 193.3846741c3.9389648 2.9887695 12.9707031 8.1088867 16.1967773 1.2143555 2.8916016-6.1796875-8.1113281-10.4379883-12.277832-11.5478516-.5317383-.1416016-.8789063.2675781-.9160156.690918-.4424591.9529877-2.2353058 6.0100861-3.3476563 8.7954102-.1323242.3325194.0986328.6601562.3447266.8471679zm2.7641601-4.8286133c.4755859-1.2905273.9604492-2.5761719 1.4633789-3.8564453 5.3882599 1.5696106 13.6410217 6.1872559 9.9101563 10.277832-2.2154388 2.4290771-6.6336823 1.4426727-9.5390625-.1992188-.6611328-.3730469-2.7915039-1.3945313-3.0751953-2.1074219-.4072266-1.0229491.8896484-3.161621 1.2407226-4.114746z"/><path d="m182.1193848 161.0604553c-4.4223633-1.7050781-13.1577148-3.5522461-16.2714844 1.7124023-.9160156 1.5483398-.9765625 3.2407227-.5302734 4.9135742 1.1129456 8.3056946 7.7302551 12.5690613 15.9506836 13.8222656 2.4716797.3769531 5.046875.496582 7.2958984 1.5893555 1.1171875.5424805 2.1821289 1.331543 3.4223633 1.387207.8378906.0380859 1.7216797-.5073242 2.0585938-1.2119141.1981201-.087326-.357132.6182098 5.9345703-8.0166016.2036133-.2792969.0869141-.6743164-.1171875-.9086914-4.8750001-5.6035154-10.7373048-10.5869139-17.7431641-13.2875975zm14.3149414 16.5273438c-.8417969 1.3979492-1.9174805 2.7050781-2.9116211 4.0170898-3.9365234-1.9423828-8.3955078-1.4760742-12.6210938-2.4375-.9545898-.2783203-1.9003906-.5942383-2.8295898-.9511719-3.5649567-1.6817474-9.3213959-5.9781342-10.7036133-9.3334961-.6639099-1.6152496-.8229675-2.774292-.8515625-3.7446289.2851563-1.2753906 1.2294922-2.4423828 3.1079102-3.3852539 6.3637695-3.1953125 15.0541992 1.5625 20.2075195 5.2675781 2.2421875 1.612793 5.3662109 3.7788086 6.9414063 6.1225586 1.4252929 2.1201172 1.0214843 2.1850586-.3393555 4.4448243z"/><path d="m203.8498535 176.8202209c-.2333984-.0830078-.5683594.0053711-.7299805.1928711-1.8813782 2.1843262-5.6686401 6.262146-6.3759766 7.1757813-.3740234.2363281-.5712891.7490234-.1503906 1.1289063 3.4174805 3.0883789 12.6586914 9.5493164 16.7338867 4.1743164 4.7441407-6.2573243-5.0273437-11.0825196-9.477539-12.6718751zm7.2685547 12.6660157c-1.6923828.9887695-3.8496094.2573242-5.5102539-.3442383-2.7416992-.9931641-5.1699219-2.5151367-7.3681641-4.3984375.9106445-1.0449219 1.8334961-2.078125 2.7661133-3.1054688.5795898-.6386719 1.5756836-2.3061523 2.3989258-2.6635742 2.5795898-1.1201172 7.0952148 2.324707 8.4516602 4.4189453 1.2578125 1.940918 1.6293945 4.7084961-.7382813 6.0927735z"/><path d="m218.4567871 212.5697327c-3.796875-2.0234375-5.6298828-6.0761719-8.6435547-9.0078125-8.8078766-8.5709839-21.9989624-10.5167084-24.3520508-.9814453-1.044693 1.5146942 1.2319183 7.8293457 1.9355469 8.8730469 4.2777405 6.3390503 15.7501221 10.8302002 23.7211914 12.4052734.7290039.144043 1.5097656.2680664 2.1943359-.0205078.5571289-.2348633.9765625-.8530273.9145508-1.4208984.4152985-.1169586.0426636.4132233 4.5751953-8.6582031.3251038-.3912049.2674714-.9120179-.3452148-1.1894532zm-11.4316406 7.1127929c-6.7876434-2.5213623-15.5316772-7.0448151-19.0688477-13.2050781-.2089844-.3632813-.7041016-1.9296875-1.1220703-3.0571289.6733398-4.6259766 6.2202148-6.4614258 10.4697266-5.3911133 3.7978516.9570313 7.4101563 3.0307617 10.3535156 5.5888672 3.5473633 3.0830078 5.5048828 7.5864258 9.5717773 9.9916992-2.9042663 6.5686646-3.4382934 8.3964081-10.2041015 6.0727539z"/><path d="m218.2346191 224.528717c3.9384766 2.9882813 12.9702148 8.1083984 16.1962891 1.2143555 2.8916016-6.1801758-8.1113281-10.4384766-12.277832-11.5478516-.5317383-.1416016-.878418.2670898-.9160156.6904297-.6457062 1.5066528-2.2779846 6.1175385-3.347168 8.7958984-.1328125.3320313.0986328.6601563.3447265.847168zm2.7641602-4.8286132c.4750977-1.2910156.9604492-2.5766602 1.4633789-3.8564453 5.365097 1.5619049 13.6470947 6.1804047 9.909668 10.2773438-2.2154388 2.4290771-6.6310883 1.4433136-9.5385742-.1987305-.6611328-.3735352-2.7915039-1.3950195-3.0751953-2.1074219-.4072266-1.0229493.8896484-3.1621094 1.2407226-4.1147461z"/><path d="m23.157959 186.6400452c1.050293 1.8334961 2.1005859 3.6665039 3.1508789 5.5 68.8974609 20.3291016 138.940918 38.222168 210.0234375 55.0288086 7.741745 1.8301697 5.1983337 1.3765411 11.3149414-1.2602539 1.1054688.269043 2.2094727.5449219 3.3149414.8134766 1.8754883.4555664 2.6757813-2.4365234.7973633-2.8930664-76.2788086-18.5229492-152.190918-38.5390625-227.6860352-60.0351563-1.8168945-.5175782-2.609375 2.2255859-.9155273 2.8461914z"/></g></g></svg>