<svg id="Layer_1" enable-background="new 0 0 300 300" height="512" viewBox="0 0 300 300" width="512" xmlns="http://www.w3.org/2000/svg"><g id="Search_Bar"><g><path d="m272.3961182 93.1172867c0-15.9082031-12.9375-28.8505859-28.8398438-28.8505859h-69.3486328c-1.822998-6.0781288-6.137207-11.3037148-13.9147949-14.5537148-17.3659668-6.4033203-37.6721115.8857422-52.4201584 10.4472656-1.9221191 1.2460938-3.8781738 2.6210938-5.828125 4.1064491h-52.3281288c-15.9074249 0-28.8500977 12.8761215-28.8500977 28.8505859 0 15.9023438 12.9418945 28.8398438 28.8500977 28.8398438h31.0112343c6.9060059 8.4033127 19.8352051 10.8456955 31.0673828 9.353508 9.440918-1.2539063 18.7023849-4.5654221 27.1767502-9.353508h55.8012695c3.1887207 5.890625 6.1740723 11.8867111 8.902832 18.0175705.7834473 1.7607422 3.3693848.2363281 2.590332-1.5136719-2.4951172-5.6064453-5.2053223-11.0986252-8.0849609-16.5038986h45.375c15.9408875 0 28.8398438-12.8972702 28.8398438-28.8398437zm-190.3476487-.7148438c5.0666656-11.5480042 15.8531876-21.9400558 26.0842285-28.823246 14.317627-9.6328125 34.2487717-17.2841797 51.3625412-10.9726563 20.7470703 8.6689453 12.7087402 33.0058632 1.9111328 46.4892616-11.0612793 13.8125-27.2834473 24.3017578-44.5676193 28.2646484-27.1130218 6.2160112-46.3752822-8.4610365-34.7902832-34.9580077z"/><path d="m221.0362549 203.6045837c2.6176605-2.0941162 1.7637787-5.7650452-.8696289-6.9541016-.9051514-.5474701-2.8328094-.5530243-4.2766113.6386719-3.8122864 3.1738434.7581787 9.6950532 5.1462402 6.3154297z"/><path d="m276.4000244 228.124115c-11.2612305-13.890625-23.3398438-27.9443359-34.138916-42.5761719.8207855-5.6391602-.6384277-10.2456207-6.8903809-11.9443359-3.2543945-5.4042969-6.2893066-10.9169922-9.6525879-16.1757813-5.197998-14.1875-24.5466309-1.5244141-31.0876465 4.6621094-10.7296906 10.145752-20.7059784 29.4432983-6.4311523 33.7685547 4.9008789 3.6044922 9.8564453 7.1357422 14.5273438 11.0380859 2.0146484 4.1298828 6.7719727 5.3037109 11.4570313 4.7919922 13.4396973 12.6972656 26.0754395 26.2636719 39.4633789 39.0107422 6.7831115 9.4963379 34.1221923-17.5242157 22.7529296-22.5751953zm-3.9448242-.1201172c-6.289856 1.5742645-17.7604218 11.1459045-19.5078125 17.8613281-.3979492-.3847656-.800293-.7636719-1.1967773-1.1494141 3.074707-9.0107422 10.4174805-15.7285156 19.6142578-18.0517578.3657226.4472657.7260742.8935547 1.090332 1.3398438zm-40.8269043-54.8300781c-9.154541.2548828-19.4885254 9.09375-24.0878906 15.1230469-2.9108887 3.8154297-5.8225098 8.9072266-5.8132324 13.9550781-4.859375-3.8310547-9.9243164-7.3916016-14.873291-11.1074219.5393066-17.2568359 17.3137207-34.2646484 34.7578125-34.4863281 3.5335235 5.7069702-3.3102418-6.2002106 10.0166015 16.515625zm-19.6179199 14.4257812c6.2366486-6.8573303 18.9148102-15.5946503 26.067627-9.2138672.4318848.640625.748291 1.3056641.9689941 1.9912109-4.708725-5.0920258-14.8118591-.3806-20.9355469 4.6552734-9.0875244 7.4746552-13.4491577 17.8444672-9.9958496 21.0517578.7572784 1.0285797 1.6724701 1.681427 2.7502441 2.6757813-10.7336426-1.0068359-4.1159668-15.3759765 1.1445313-21.1601562zm.9484863 18.866211c-2.4033203-2.5527344-3.166748-4.8974609-1.5263672-8.5039063 3.2345123-7.1126404 11.506134-13.7803497 17.5-15.8398438 6.1441956-2.109375 6.5852966-.6696014 10.46875 4.5712891.001709.0029297.0046387.0048828.0065918.0068359 9.7636719 13.2734375 20.5483398 26.0419922 30.9086914 38.6787109-9.1479492 2.515625-16.4638672 9.2705078-19.7539063 18.1806641-12.5800781-12.3124999-24.6726074-25.1562499-37.6037597-37.0937499z"/><path d="m225.2728271 204.7969666c-2.0324707.03125-3.2888184 1.6865234-3.2734375 3.5488281-.2649078.8397369 1.0671082 3.1638031 3.2868652 3.1611328 1.7414551-.002121 3.2077026-1.532547 3.3054199-2.8681641.3424989-1.7124481-1.1432341-3.8756561-3.3188476-3.8417968z"/><path d="m130.2276611 151.4278259c-1.6945801-.9267578-3.2104416 1.6630859-1.5141602 2.5908203 13.4675293 7.3662109 26.5637207 15.3544922 39.2768555 23.9570313 1.6032715 1.0849609 3.105957-1.5126953 1.5141602-2.5898438-12.7131348-8.6035156-25.8093262-16.5917968-39.2768555-23.9580078z"/><path d="m182.8519287 149.7705994c-7.6716309-8.2929688-15.3435059-16.5859375-23.0151367-24.8788986-1.3139648-1.4208984-3.4313965.7050781-2.1213379 2.1210938 7.6716309 8.2929611 15.3435059 16.5859299 23.0151367 24.8788986 1.3139649 1.4208984 3.4316406-.7050782 2.1213379-2.1210938z"/></g></g></svg>