<svg id="Layer_1" enable-background="new 0 0 300 300" height="512" viewBox="0 0 300 300" width="512" xmlns="http://www.w3.org/2000/svg"><g id="Security_Issue"><g><path d="m27.0555019 160.9479828c2.6289063 4.3642578 7.2949238 5.9257813 11.8066425 7.4355469 6.3931007 2.1395264 6.4694748 2.5355988 10.8583984 5.4135742 2.1629066 1.4322357 3.7647476 2.5442657 5.9951172 3.5043945 19.0652313 8.203125 40.7155762-2.0498505 44.2734375-22.7802734 2.6507797-15.4516144-2.2701721-29.9654388-9.7036133-43.5405197 1.9833984.2539063 4.3046875 1.1689453 6.5424805 1.6484375-.4985352 2.8354492 3.4208984 4.7167969 6.25 5.25s5.3808594-1.5517578 7.5-3.5c10.7924805 5.7954102 19.7182541 12.6220703 29.4531174 18.0209885.0953217 3.91922.5162811 8.9559937 1.5454102 12.8481445-23.6840744 3.3447266-37.2289963 8.6948242-37.2289963 14.7451172 0 10.0317383 38.1005783 17.8901367 86.7402267 17.8901367 48.6445313 0 86.7500153-7.8583984 86.7500153-17.8901367 0-5.9453125-13.1293945-11.2319336-36.1045074-14.5820313.5708008-5.8339844-.5410156-12.3276367-.965332-17.0180664-.6069336-6.7709885-1.5175781-14.1284103-3.1147461-21.4013596.4037781-.2569427.3015747-.1724472.7490234-.4760742.4682617-.1923828.800293-.6245117.7163086-1.3085938-.1733398-1.4145508-.4047852-2.809082-.6699219-4.1928711 1.4887695.0371094 3.0029297-.6132813 4.2016602-1.6850586.1777344.1601563.418457.2612305.7436523.2304688 6.4838867-.621582 6.9321289 6.7539063 7.8666992 11.2119141.6083984 2.9018555 1.6362305 5.4619141 3.362793 7.8833008 3.3608551 4.7119141 8.4160309 7.9589844 13.2246246 11.0068283 1.2265625.7773438 2.3569336-1.1689453 1.1357422-1.9428635-8.2612305-5.2358398-14.0381012-10.0405273-15.9819489-19.9375-.9575195-4.8730469-3.0986328-10.5014648-8.75-10.5004883 1.6706848-3.1887131.4385681-7.0569458-2.7885742-8.5537109 1.5673828-4.168457 5.5991211-6.2456055 8.8759766-8.9643555 7.9634857-6.6075745 13.1304474-16.8100166 13.0996246-28.6337891-.0039063-1.4477539-2.2539063-1.4506836-2.25 0 .0229492 8.8530273-3.1108398 17.4121094-9.1572418 23.9389648-4.1210938 4.4487305-10.5737305 7.1030273-12.7387695 13.078125-1.496582-.1376953-3.0458984.2241211-4.3574219 1.112793-.5712891-1.3793945-1.1845703-2.7470703-1.8637695-4.097168-.4370728-.8688965-1.2891235-.8818665-2.2426758-.6445313-.3798828.0947266-.7617188.1811523-1.1420898.2729492-3.5449219-6.3696289-8.206543-11.9306641-14.3999023-15.9868164-16.1953125-10.6074219-39.9379883-7.0991211-53.5307617 6.4863281-3.7348633 3.7329102-7.0112305 7.9526367-9.8173828 12.5078125-3.7573242-.5361328-8.2548828-.8681641-9.921875 2.8178711-.206543.4560547-.315918.9116211-.3686523 1.3662109-5.6049805-2.4555664-11.2094727-4.9111328-16.8139572-7.3666992-1.7514648-.7675781-3.2802734 1.8164063-1.5141602 2.590332 6.2241135 2.7270508 12.4482346 5.4541016 18.6723557 8.1811523.3320313 1.6938477.5805664 3.390625-.6855469 5.1030273-1.1513672 1.5581055-3.0795898 2.2270508-3.8261719 4.1733398-1.4418945 3.7607422 1.234375 7.0053711 4.2915039 8.9589844-.7583008 3.6298828-1.2749023 7.2993164-1.5439453 10.9638672-31.5458679-17.4030533-29.5423965-16.3468323-29.9394455-16.4267578 2.1303711-3.765625 3.387207-8.5405273 4.394043-11.6479492 1.5380859-4.7460938 5.8183594-15.5073242 2.0727539-20.2275391-2.6362305-3.3222656-7.5761719-.5600586-9.5688477 2.0878906-1.1616211 1.5429688 1.4418945 3.0395508 2.590332 1.5141602 1.8330078-2.4355469 4.5327148-.7758789 5.1552734 1.2973633.3852539 1.2836914-.5371094 4.3129883-.8505859 5.7900391-.6904297 3.2539063-1.5205078 6.4418945-2.5800781 9.597168-1.1147461 3.3208008-2.253418 6.9213867-4.0004883 9.9663086-2.4628906 4.2924805-6.5200195 5.84375-8.734375 1.2944336.590332.012207 1.1782227.0415039 1.7709961.0429688 1.9301758.003418 1.9331055-2.996582 0-3-5.5639648-.0102539-11.027832-.5444336-16.5566406-1.0048828-3.9830933-6.6907654-6.9489746-9.4125519-6.5771484-15.7060547 2.7334213-1.3138809 4.0601578-4.2488785 2.0625-7.1772461.6894531-.2597656 1.293457-.6303711 1.7573242-1.1640625 2.0913086-2.4067383.9008789-4.7363281-1.0712891-6.4248047 2.1450195-3.2993164 5.0913086-5.9150391 8.3852539-8.1240234 4.3735352 8.1484375 11.1738281 15.5756836 19.2026367 20.0458984 1.6884766.9404297 3.203125-1.6499023 1.5141602-2.590332-7.6333008-4.25-14.0200195-11.3017578-18.1669922-19.046875 3.5644531-2.0947266 7.3769531-3.8320313 10.9370117-5.5126953 1.5180664-.7163086.4350586-3.3598633-1.1557617-2.7416992-3.0517578 1.1865234-7.8828125 2.3164063-12.1367188 2.0478516-.2177734-2.7392578.5927734-5.3354492.4277344-8.0834961-.1113281-1.8427734-.1357422-4.2236328-1.9150391-5.3232422-1.7504883-1.081543-4.2978516-.3505859-6.0092773.3969727-2.2543945.984375-3.3608398 2.5229492-4.1430664 4.7314453-6.8481445 5.7041016-13.6928711 1.421875-19.8876953-2.9379883-1.0112305-.7119141-2.703125.4936523-2.2036133 1.6938477 2.0683594 4.96875 4.5527344 9.8041992 6.2954102 14.902832-8.5014915-1.0038261-11.1214905 4.1602325-8.1376953 8.2851563-4.2536812 1.2898712-5.4606552 6.2545776-2.9863281 9.9804688-2.6754189 1.5870514-3.5559273 5.0415802-1.3500977 8.3486328-2.1928711 1.484375-2.902832 4.5878906-1.2192383 6.9179688.6210938.859375 1.3759766 1.543457 2.2143555 2.1142578-13.5834961 6.1293945-25.7617207 16.9365234-27.4570332 32.5414963-.4433594 4.0820313-.1469727 8.2265625.9223633 12.1508789.5704974 4.0240478.318611 12.0199584 3.7724608 17.7539062zm210.7123967-32.5546875c2.6441956 29.2263641-1.0840912 28.0977631-21.2182617 27.6674805-8.2675323-.1768494-38.6696014-.8159943-49.5410156-1.0458984-12.9785156-.2748871-20.3370361 2.3707275-23.1147461-13.0483398-1.6176758-8.9804688-1.2807617-18.1279221.6264648-26.9677658 6.4648438 2.6552734 13.7607422 3.3623047 20.6552734 3.9555664 8.3916016.722168 16.8251953 1.1831055 25.2490234.9355469 15.4589844-.4545898 31.0522461-3.5019531 44.5205078-11.2553711 1.4316407 6.7602538 2.2666016 13.5527342 2.822754 19.7587813zm-54.1049805-21.6039963c-1.512207 2.4291992-9.7480469 1.5761719-11.3461914 1.237793-3.1289368-.8761063-6.3718262-2.086441-8.5625-4.4921875-.5129242-.7435303-.9095612-1.7689438-.6879883-2.6523438 1.2883148-1.294548 2.6311188-1.8526154 3.8359375-2.1123047 4.9039154-.5365372 13.2167664 1.1382065 16.1113281 5.0585938.9306641 1.2607422 1.0678711 2.1923828.6948242 2.8774414-.0161132.0268555-.0283203.0566406-.0454101.0830078zm58.9599609-13.4487305c.7294922 2.6469727-2.2021484 6.1821289-4.6445313 5.4458008-.578125-2.5112305-1.3125-4.9731445-2.206543-7.3886719 2.2006837-1.9980468 5.9711915-1.2509765 6.8510743 1.9428711zm-16.0063476-7.8383789c-23.7083588 5.2648544-47.2445984 5.3199005-71.0439453 2.7827148 1.1791992-1.8608398 2.4233398-3.6762695 3.7353516-5.4335938 14.9091338-19.9633597 50.1160125-27.062847 67.3085937 2.650879zm-154.3940354 3.6025391c.4868164 2.2001953-.1474609 3.3769531-1.9033203 3.5307617-1.140625.53125-2.3291016.5800781-3.5668945.1464844-1.7255859-.2480469-3.46875-.6381836-5.1884766-.9350586-3.4734917-.6009598-2.6932106-.266449-6.3701172-1.3676758-3.7612305-.9287109-4.6196289-3.2363281-2.5913086-6.9140625 2.8432617 2.0302734 6.7739258 3.0258789 9.8115234 3.7207031 2.2949219.5249023 6.1337891 1.5981445 9.7133789 1.7304688.0327149.0288086.0590821.0610351.0952149.0883789zm11.4199219-42.3237305c2.4863281-.6494141 2.4379883 1.0288086 2.5327148 2.8969727.128418 2.5268555-.4165039 4.8623047-.4047852 7.3354492-5.9930648-1.6085663-8.2622451-8.6304665-2.1279296-10.2324219zm-6.2666016 5.909668c1.6008301 5.8441086 7.326149 7.8176956 13.4345703 7.734375-5.1445313 2.8881836-9.9067383 6.3920898-13.1591797 11.3310547-.6123047-.3051758-1.2128906-.5498047-1.7446289-.7089844-.3505859-.1049805-.6625977-.0859375-.9267578.0170898-.8046875-.2333984-1.5913086-.5014648-2.3579102-.8076172 1.7133255-2.8372726-1.6347961-3.6888809-2.2895508-2.1801758-.1328125.3071289-.2626953.6157227-.3862305.9272461-1.7319336-.9477539-3.3457031-2.112793-4.8442383-3.4780273.3088379-1.7641945-4.7995644-12.8949242-5.2954102-13.9960938 5.7465822 3.3798829 11.6206057 5.0166016 17.5693361 1.1611329zm-15.1826171 13.3823242c-.0844727.4160156.0195313.8691406.4296875 1.2568359 3.5874023 3.3886719 7.8569336 5.762207 12.6577148 6.9311523.2851563.0693359.5415039.0541992.7709961-.0107422 1.5893555.5854492 3.9306641 1.8383789 1.34375 3.840332-.2929688.2265625-1.0107422.1992188-1.7294922.1074219-1.5136566-.4199142-5.126915-.2796402-11.7148438-3.3500977-2.3945313-1.1162109-5.2929688-2.4121094-7.1328125-4.3549805-3.7832031-3.9946287 2.0478516-5.0170897 5.3750001-4.4199217zm-6.9116211 7.7617188c.2226563.0336914.4287109.0200195.6191406-.0253906 4.1429062 3.0987167 13.9785309 7.2054825 19.6943359 7.5986328 2.1567383 1.0395508 1.8393555 2.4794922-.9633789 4.3208008-2.0205078.3515625-4.0268555.2666016-6.0195313-.2548828-1.8071289-.3007813-3.6157227-.6723633-5.4003906-1.0810547-4.2163773-.9650497-7.0728683-1.6828232-9.5693359-3.8730469-2.4375-4.3452149-1.8916016-6.5737305 1.6391602-6.6850586zm-4.2333985 17.8803711c2.3706055 1.640625 5.5361328 2.3115234 8.4306641 2.8081055.8190117.5892868 3.9865646 1.0272293 6.0063477 2.71875 2.1472092 1.7974701 1.3173447 3.6833954-5.5371094 2.2661133-2.1772461-.9492188-4.4291992-1.6191406-6.6303711-2.4912109-1.8110352-.7177736-5.8339844-4.2797853-2.2695313-5.3017579zm1.7583008 8.7319336c.1601563-.065918.2929688-.1547852.4121094-.2524414 1.0229492.390625 2.0727539.734375 3.0991211 1.0922852.1518555.3481445.4599609.6289063.9667969.7270508 3.1699219.6166992 8.5600586 2.222168 11.2387695-.4091797 1.5164795-1.4893951 1.2079926-3.9382858-.1342773-5.6640625 2.622879.0701523 4.7177963-.6613464 6.434082-2.6049805 1.4789124 5.7751541 5.7268906 8.7394791 12.2006836 22.7167969 5.2749023 11.3886719 10.2182617 25.7040939 6.6508789 38.2851486-4.0026016 14.1168671-21.1904068 19.375061-33.4780273 12.5058594-2.6411133-1.4780273-4.6474609-3.6992188-7.4414063-4.9458008-3.8201332-1.7049866-7.8800354-2.0490265-10.0786133-2.8842773-2.2666016-.8632813-4.5874023-1.7626953-6.7548828-2.9082031-4.7592793-3.0605469-8.1684589-7.7519531-9.7929707-13.7265625-5.3007812-19.4960863 10.0073262-35.0873949 26.6777363-41.9316331z"/><path d="m75.4485703 219.6935883c2.0288086-.8286133 3.5668945-2.5273438 4.1152344-5.5366211 2.5762787-14.1382599-34.3028984-33.4061127-36.2084961-16.3276367-3.4355469 2.3720703-3.0239258 5.972168-1.0991211 9.5087891-.40625 1.8803711-.6362305 3.7758789-.6723633 5.6699219-.0795898 4.1533203 6.6962891 6.9438477 11.996582 8.7836914 4.366188 1.5157013 8.7906342 2.4799194 14.0092773 2.4863281 3.5375977.2807616 6.5595703-.8242188 7.8588868-4.5844727zm.1313476-11.2822266c1.5439453 2.9213867 1.8266602 7.3710938-1.9199219 8.8139648-3.449707 1.328125-8.71875-1.1108398-11.6958008-2.5712891-5.6533203-2.7739258-13.0708008-7.2880859-15.1044922-13.6708984-4.4993247-14.123413 22.9537049-3.4827423 28.7202149 7.4282227zm-21.5888672 8.9091797c-2.4873047-1.5712891-9.1933594-6.9316406-11.2612305-11.8198242l-.0087891-.0205078c-.8803711-2.0932617-.9047852-4.0966797.621582-5.6791992.7753906 7.8920898 11.1748047 14.5058594 17.1074219 17.4433594 3.4472656 1.7070313 8.8701172 3.6210938 13.0961914 2.965332-3.5844726 6.1396484-15.2060546-.1420899-19.5551757-2.8891602z"/><path d="m85.0359726 255.3610687c3.8314209 1.1700897 10.7228241 1.6561127 16.6206055.2910156 5.4624023-1.2636719 12.5068359-3.3378906 13.003418-7.6962891.2802734-2.4594727.2636719-4.9580078-.015625-7.4604492.0805664-1.2851563-.2553711-2.6313477-1.1152344-4.027832.565918-2.0341797.1938477-4.2148438-1.6787109-6.4580078-9.211998-11.0333557-43.2310333 4.842514-36.9125977 16.3911133.4711914.8618164 1.0419922 1.5854492 1.6870117 2.199707-.069336 4.5576172 3.8549805 6.3393555 8.4111328 6.7607422zm27.7412109-17.1074218c2.8710938 7.2246094-11.6235352 12.9492188-16.5712891 14.4746094-3.9760742 1.2260742-16.8100586 3.3750153-18.0161133-2.9428711 8.6253053 5.1491699 29.999611-3.2888795 34.5874024-11.5317383zm-7.4033203-8.7348633c1.3178711.3217773 3.0498047 1.0541992 3.9492188 2.1137695 2.7124023 3.1972656.7133789 5.7373047-1.3847656 7.9599609-2.3261719 2.4643555-5.9912109 4.1606445-9.065918 5.4702148-5.1445313 2.190918-11.9462891 4.543457-17.5058594 2.6269531-14.2309875-4.9059295 11.8268967-21.1482543 24.0073242-18.1708983z"/><path d="m48.1487656 149.8810883c-.3115234 1.371582-.6245117 2.7426758-.9125977 4.1206055-.3935547 1.8837891 2.4975586 2.6894531 2.8930664.7978516.2768555-1.3261719.5791016-2.6455078.8774414-3.965332 5.3691406 1.019043 11.2597656-1.9160156 11.8139648-8.7495117.4233398-5.2197266-2.7192383-8.0478516-6.5219727-10.8203125 1.4111328-4.466301 2.9570313-8.8906174 4.6264648-13.2739182 1.4960938.4501953 2.8818359 1.1508789 3.8959961 1.934082 1.5268555 1.1787109 3.0219727-1.4262695 1.5141602-2.5908203-1.2641602-.9760742-2.7583008-1.6933594-4.3286133-2.1547852.6206055-1.5712891 1.2509766-3.1391602 1.9047852-4.6987305.7456055-1.7783203-2.15625-2.5546875-2.8930664-.7978516-.6894531 1.6445313-1.3554688 3.2973633-2.0078125 4.9541016-4.7099609-.3227539-9.3413086 1.8085938-10.3139648 7.1503906-.753418 4.1367188.9584961 8.0073166 4.0991211 10.6357346-1.4550781 4.7431641-2.7597656 9.5322266-3.9233398 14.3632813-1.2177734-.7709961-2.2695313-1.8647461-2.9584961-3.262207-.8540039-1.7319336-3.4423828-.2133789-2.5908203 1.5141602 1.1088867 2.2475584 2.8408203 3.8593748 4.8256836 4.8432616zm5.9223632-31.4750901c1.1054688-.7036133 2.4550781-.9628906 3.8515625-.9223633-1.4467773 3.8129883-2.7958984 7.6577148-4.0473633 11.5336838-2.6342773-3.1699142-4.0605468-7.9023361.1958008-10.6113205zm1.2822266 15.938469c2.8203125 2.046875 5.4238281 4.2006836 4.3222656 8.578125-1.0551758 4.1948242-4.6347656 5.6621094-7.9907227 4.9868164 1.091797-4.5605469 2.3173829-9.0820313 3.6684571-13.5649414z"/><path d="m78.0779648 200.6291351c0-1.6665039 0-3.3334961 0-5 0-.965332-1.5-.9667969-1.5 0v5c0 .9653321 1.5.9667969 1.5 0z"/><path d="m87.456871 197.2419281c-1.9985352 1.418457-3.9975586 2.8364258-5.996582 4.2548828-.7807617.5541992-.0322266 1.8554688.7573242 1.2954102 1.9985352-1.418457 3.9975586-2.8369141 5.996582-4.2548828.7807618-.5541993.0322266-1.8554688-.7573242-1.2954102z"/><path d="m84.0276718 205.9059906c-.9086914-.3305664-1.300293 1.1186523-.3989258 1.4462891.9165039.3334961 1.8334961.6669922 2.75 1 .9086914.3305664 1.300293-1.1186523.3989258-1.4462891-.9169922-.3334961-1.8334961-.6665039-2.75-1z"/><path d="m70.5389023 248.9816742c-.5922852 1.5581055-1.1845703 3.1157227-1.7773438 4.6738281-.3432617.902832 1.1064453 1.293457 1.4467773.3984375.5922852-1.5576172 1.1845703-3.1157227 1.7768555-4.6733398.34375-.9033203-1.105957-1.2939453-1.446289-.3989258z"/><path d="m60.6663437 248.7302094c2.3725586-.6152344 4.7451172-1.2299805 7.1171875-1.8452148.934082-.2421875.5380859-1.6894531-.3984375-1.4467773-2.3725586.6152344-4.7451172 1.2304688-7.1176758 1.8457031-.9335937.2421874-.5375976 1.689453.3989258 1.446289z"/><path d="m67.8494492 240.7321625c-.7382813-.637207-1.4765625-1.2744141-2.2148438-1.9121094-.7275391-.6279297-1.7929688.4287109-1.0610352 1.0610352.7382813.637207 1.4770508 1.2744141 2.215332 1.9121094.7270509.6279296 1.7929688-.428711 1.060547-1.0610352z"/><path d="m51.6995468 200.2765961c1.1601563.7456055 2.3198242 1.4916992 3.4799805 2.2373047-.668457 1.5981445-.5966797 3.3969727 1.3779297 4.1806641 1.4389648.5712891 2.809082-.3579102 3.9833984-1.0766602 1.3344727-.815918 3.0424805-1.4428711 4.5043945-.4628906 2.1254883 1.425293 1.140625 5.1704102-1.652832 4.2597656-.9199219-.300293-1.3144531 1.1479492-.3989258 1.4462891 1.7207031.5610352 3.2026367-.0976563 4.0415039-1.2583008.1584625.154068-.1274719-.0132446 2.6767578 1.4003906.8598633.4331055 1.6201172-.8603516.7568359-1.2954102-2.6756668-1.3472443-2.5829773-1.3395081-2.8466797-1.3383789.28125-1.0249023.1601563-2.1943359-.5380859-3.2416992-.9394531-1.4082031-2.5864258-2.0717773-4.2519531-1.9487305-1.0219727.0751953-1.8789063.4501953-2.7529297.9555664-.8374023.484375-3.2998047 2.5239258-3.8232422-.2099609-.1826172-.956543.9453125-2.0463867 1.5458984-2.5844727.7202148-.6455078-.3432617-1.703125-1.0610352-1.0605469-.2890625.2587891-.5678711.5771484-.8222656.9272461-1.1538086-.7416992-2.3081055-1.4833984-3.4614258-2.2250977-.814453-.5234374-1.5673827.7739259-.7573241 1.294922z"/><path d="m84.956871 244.0265961c.6748047-.3374023 1.3500977-.6748047 2.0253906-1.0126953 1.7518463 1.1544952 3.9080887.10289 5.2084961-1.6674805 1.2702484-1.7274017 2.0551453-5.3384552 4.1547852-5.6821289 1.4472656-1.0683594 2.2675781-.3325195 2.4609375 2.2080078-.6777344.6884766.3818359 1.7495117 1.0605469 1.0605469.9892578-1.0048828 1.1181641-2.237793.6835938-3.2568359.6591797-.2744141 1.3178711-.5493164 1.9770508-.8237305.3764648-.1567383.6362305-.4951172.5239258-.9223633-.09375-.3540039-.5493164-.6796875-.9228516-.5239258-.8349609.3481445-1.6704102.6958008-2.5058594 1.0439453-.581543-.4697266-1.3457031-.7636719-2.21875-.7583008-1.5039063.0102539-2.8056641.887207-3.7402344 2.0019531-1.3903809 1.6585541-2.1777039 4.8105164-3.5473633 5.6337891-.8847656.9389648-1.8095703.5209961-2.7739258-1.2539063.4667969-.8457031-.828125-1.6030273-1.2954102-.7573242-.4750977.8598633-.4438477 1.7763672-.0820313 2.5327148-.5883789.2939453-1.1772461.5883789-1.765625.8828125-.8632811.4316407-.1044921 1.7260743.7573243 1.294922z"/><path d="m183.2293243 125.711174c-8.8100586 9.9370041-21.5322266 14.8520432-34.7314453 13.4775314-1.918457-.199707-1.9042969 2.8017578 0 3 13.9121094 1.4487305 27.578125-3.8959961 36.8525391-14.3559494 1.2768555-1.4404296-.8374024-3.5698242-2.1210938-2.121582z"/><path d="m151.6194611 182.5109711c-17.2524414-.8793945-33.9296799-3.3706055-48.9169846-12.4873047-1.6538086-1.0058594-3.1630859 1.5874023-1.5141602 2.590332 15.409668 9.3730469 32.6899338 11.9926758 50.4311447 12.8969727 1.9296876.0981445 1.9243165-2.9023438.0000001-3z"/><path d="m275.7625427 181.2663422c-44.5986481 16.6621094-93.6064606 17.0185547-139.8759918 7.7001953-1.8847656-.3798828-2.6914063 2.5112305-.7973633 2.8925781 46.7753906 9.4204102 96.3730469 9.1489258 141.4712067-7.7001953 1.7919922-.6694336 1.0161133-3.5703125-.7978516-2.8925781z"/><path d="m226.2810822 184.5729828c1.8974609-.3393555 1.0932617-3.230957-.7973633-2.8925781-10.9360352 1.9560547-21.9541016 2.59375-33.0424805 1.972168-1.9287109-.1083984-1.9228516 2.8920898 0 3 11.3608398.6367187 22.6420898-.0761719 33.8398438-2.0795899z"/></g></g></svg>