<svg id="Layer_1" enable-background="new 0 0 300 300" height="512" viewBox="0 0 300 300" width="512" xmlns="http://www.w3.org/2000/svg"><g id="security_network"><g><path d="m48.5603218 172.506485c.0107422.0253906.0219727.0507813.0322266.0771484.0273438.0683594.0507813.1367188.078125.2050781.012207.0322266.0307617.0566406.0444336.0869141 20.8282356 50.9639282 57.3067513 76.9077606 69.9420929 83.2660065 3.3328323 1.6770935 4.4807129 2.1889954 9.5405426.8065491 22.0004578-6.0109558 77.8931732-45.6316071 95.2893372-84.4651337 15.8081055-35.5556641 19.2216797-75.1650391 18.8154297-113.7509766l-.2075195-2.8642578c-4.2026367-3.2626953-10.3237305-5.3388672-14.7021484-8.4960938-.409668-.6210938-1.2851563-.8349609-2.0219727-.4853516-2.8442383 1.3486328-7.2470703 1.3759766-10.3623047 1.7832031-31.0914307 4.066349-63.7773132-4.4699898-87.9926682-23.1933594-1.3696289-1.0595703-3.0800781-3.125-4.6508789-3.8115234-.8808594-.3847656-1.3505859-.6005859-2.2568359-.0888672-2.2231445 1.2558594-4.2099609 5.6416016-5.9501953 7.6787109-18.5387002 21.6971323-49.0499765 37.0652467-80.5732499 37.7197267-1.1205864.0231705-1.5076218.9513092-1.5263672 2.0634766-.5820313 35.1679688 3.5136719 70.5546875 16.496582 103.4462891.0029297.0078124.0024414.0146484.0053711.0224609zm-13.5092773-102.5810547c33.7796364-1.167366 66.0952301-18.3844032 84.5830078-42.7109413 1.1499023-1.5117188 1.0288086-2.2998047 2.3818359-1.921875 2.2202148.6210938 5.8095703 4.5556641 7.712883 5.8808594 23.9269104 16.6549644 55.6723175 24.6340027 86.6635742 20.3183594 2.4511719-.3408203 5.5717773-.5263672 8.2265625-1.2216797-.2026367 47.0918007-3.1269531 96.3476563-25.5366211 138.859375-20.3288574 38.5643616-72.3762207 64.4495239-74.4731369 65.1582031-1.9179688.6494141-2.7280273.1669922-4.3359375-.8701172-20.1665192-13.0082703-48.8767014-32.6930084-68.7890625-81.6357422-12.8129882-32.4130821-16.9282226-67.1894493-16.4331054-101.8564415z"/><path d="m115.5808334 224.7203522c9.2705383 6.2947388 7.2176285 6.0962372 23.4106369-4.1533203 4.8598633-3.0771484 9.6318359-6.2958984 14.1933594-9.8027344 41.6121979-31.9938354 46.6577301-90.5711212 46.684082-142.9941406.0009766-1.6806641-2.5107422-2.0517578-2.9462891-.3984375.5913239-2.243782-33.7174683 10.4353485-68.2431641-15.6464882-1.2436447-.9394531-4.7661057-4.9501953-6.513176-5.1396484-1.4082031-.1523438-1.7543945.953125-2.5053711 1.9628906-1.9990234 2.6894531-3.9667969 5.3603516-6.2416992 7.828125-13.4296188 14.567997-33.9028702 24.7453728-55.2807655 25.2402382-1.0837364.0245132-1.5613136 1.1008072-1.5688477 1.7529297-.7050436 54.6244506 13.9600717 110.7629852 59.0112344 141.3505859zm77.5400315-96.6796875c-.5107422-1.4443359-1.0224609-2.8886719-1.53125-4.3339844.014801-.107666-.0275879.853775.5297852-21.4785156 3.2280579 8.4543381 3.0833893 8.0675507 3.2617188 8.3125-.5366212 5.8564453-1.2700197 11.6933593-2.260254 17.5zm-1.6113282 8.3291015c-1.2993164-4.0205078-2.5986328-8.0410156-3.8984375-12.0605469.8710938.0048828 1.7421875.0175781 2.6132813.0244141.7866211 2.2353516 1.578125 4.46875 2.3676758 6.703125-.3325196 1.7802735-.6967774 3.5576172-1.0825196 5.3330078zm-1.9985351 8.4042969c-1.7524414.0390625-3.5117188.0527344-5.2597656.171875-3.5795898-11.7763672-7.3881836-23.4804688-10.9692383-35.2558594-.0343628-.5957184-.4145355-1.2910156-1.0478516-1.2910156-4.8642578.0078125-9.7270508.0986328-14.5908203.1064453-.7280273.0009766-.90625.8525391-.5366211 1.2714844.8891602 9.1552734 2.0419922 18.2705078 3.765625 27.3085938-2.4130859 0-4.8256836 0-7.2387695 0-1.3041992-9.1826172-2.6083984-18.3642578-3.9125977-27.546875-.063797-.4466553-.7684021-.7802734-1.0478516-.7802734-13.168457 0-26.3373947 0-39.50634 0-.5006332-.0877304-.9724503.2446442-.9370117.8046875-.5102539 1.7597656-.7636719 3.5830078-1.2963867 5.3359375-.2431641.4443359-.0458984 1.1386719.6152344 1.1386719h25.0121994c.0065918 14.963913.0459137 21.4792938.0498047 30.5078125-10.2451096.0058594-20.4897385.0585938-30.7348557.0625-.4038086-.3046875-1.1987305-.1171875-1.2695313.5693359-.2641602 2.5615234-.5566406 5.1201172-.8261719 7.6806641-2.2885742.1884766-4.574707.1865234-6.8652344.0839844.425293-2.5175781.8505859-5.0361328 1.2753906-7.5537109.1130981-.648468-.0871582-1.1923218-.6967773-1.1933594-7.7446289-.0048828-15.4887695-.0634766-23.2333984-.0722656.7456055-2.3085938 1.6401367-4.5703125 2.5795898-6.8046875h51.1586914c.5688934 0 .8101349-.6847076.8110352-.9697266.012207-5.0556641.159668-10.109375.171875-15.1650391.0020523-.6945038-.1342621-1.3858948-.8110352-1.3847656-8.6264648.0097656-17.2519531.1308594-25.878418.1445313 1.3579102-4.0791016 2.7158203-8.1591797 4.0732422-12.2382813.1642456-.4944305-.2829056-.9462891-.7133789-.9462891-6.0610352-.0048828-12.1210938-.0703125-18.1816406-.0791016.8305664-1.4199219 1.7792969-2.7675781 2.5908203-4.2001953 31.1713867-.0019531 62.3427658-.0791016 93.5146408-.0810547 3.7861328 11.6132813 7.5356445 23.2392578 11.2929688 34.8623047-.4321288 1.8388671-.8881835 3.6777343-1.3574218 5.5136718zm-6.215332 19.9677734c-2.4845123-7.5998077-9.8036804-27.5309601-9.7827148-28.2861328.1240234-7.0146484.1479492-14.0302734-.0371094-21.0419922.0324402.1047287 9.5828094 30.7043915 9.6743164 30.8046875.0127715 5.076767.2278442 18.3062134.1455078 18.5234375zm-3.2485352 7.7675782c-34.5585938.0253906-69.1132736.7041016-103.6718674.7207031-.9902344-2.0693359-1.9389648-4.15625-2.8286133-6.2666016 36.2905273-.0009766 72.5810471-.03125 108.8715744-.0322266.0117188 0 .019043-.0058594.0297852-.0058594-.7543945 1.8837892-1.5576172 3.7441407-2.4008789 5.5839845zm-87.2304611-16.0712891c2.2836914.1054688 4.5625.109375 6.8432617-.0732422v9.0908203c-2.2416992.0009766-4.4838867.0009766-6.7255859.0019531-.0087891-3.0068359-.0927735-6.0126953-.1176758-9.0195312zm19.7114258-41.9003906c-.9731445-1.3603516-1.9355469-3.0263672-2.9130859-4.2792969h38.4448166c-.0618286.3319473-.0083313-2.0580063-.159668 25.3564453-4.6030273-.0234375-9.2045898-.140625-13.8076172-.1650391-.0146484-6.7207031-.03125-13.4414063-.0332031-20.1621094 0-.5576096-.4406128-.75-1.0600586-.75-6.8237229.0000001-13.6474534.0000001-20.4711838.0000001zm50.9291915-4.5751953c2.7734375-.0263672 5.546875-.0527344 8.3208008-.0595703.4381561 1.4239807.2936096 23.0404968.2397461 26.1708984-3.2495117.0976563-6.4985352.1875-9.7460938.3476563-1.0864258-5.7373047-1.9326172-11.5078125-2.6347656-17.2988281 1.5922547-4.9064332 2.876175-6.3096085 3.8203125-9.1601563zm-30.0585937 38.0810547c.5131836 0 .7456055-.4228516.7133789-.8203125-.0009766-3.4238281-.0097656-6.8486328-.0170898-10.2734375 1.5117188.0078125 3.0234375.03125 4.534668.0546875 3.6318359 2.2958984 7.2636719 4.5917969 10.8959961 6.8886719.578125 2.5136719 1.1694336 5.0234375 1.7329102 7.5400391-1.6494141-2.8007813-4.5986328-4.6777344-7.9667969-4.6777344-5.1611328 0-9.359375 4.3935547-9.359375 9.7939453 0 3.9453125 2.2451172 7.3447266 5.465332 8.8945313-2.0942383.0009766-4.1879883.0009766-6.2817383.0019531.0083008-5.8007813.0947266-11.6005859.1069336-17.4013672.0585937-.0000001.1171874-.0009766.1757812-.0009766zm19.2363281 8.8574218c.1235352.0654297.2675781.078125.4121094.0615234.8034058.1338959 5.4533234-.3017883 8.1123047-.3212891.6366119-.0044861.7640686-.5735474.75-1.2148438-.1328125-5.8359375.3139648-11.6630859.2211914-17.4990234.0839844-.0048828.168457-.0068359.2524414-.0107422 1.6820068 1.8509521 3.6493988 3.2303772 13.8369141 11.0996094 1.9501953 5.4570313 3.9311523 10.9033203 5.7250977 16.4150391-11.5849609.0009766-23.1694336.0058594-34.7543945.0107422 3.1210936-1.5048828 5.3149413-4.7490234 5.4443358-8.5410156zm7.7739258-1.7373047c-2.1962891.0566406-4.3842773.2548828-6.5805664.3066406-.0014648-5.6289063-.0024414-11.2568359-.003418-16.8847656h6.8037109c.0507813 5.5283204-.3291015 11.0488282-.2197265 16.578125zm-8.0820312-5.7724609-2.9301758-13.1064453c.0332031-5.9345703.0620117-11.8681641.0913086-17.8027344 3.5715484 25.1493836 2.8367614 14.7913208 2.8388672 30.9091797zm-20.7109375 16.0546875c-10.1523361.0048828-20.3041916.0058594-30.4560471.0087891 0-3.1015625 0-6.203125 0-9.3046875 0-.2946777.2899094-2.8889313.3994141-3.8876953.8572464-2.2368927.8977509-2.767807 3.0117188-3.1464844 7.0260925-1.253067 2.6907883-1.0482788 27.1518478-1.0683594-.0122071 5.7998047-.0986329 11.5986328-.1069336 17.3984375zm53.0356445-19.0175781c1.4873047-.0869141 2.9799805-.1162109 4.4702148-.1464844-1.2685547 4.8378906-2.6914063 9.6425781-4.3310547 14.3574219-.0371093-4.7373047-.125-9.4736328-.1391601-14.2109375zm-109.1274338-8.6103516c-.0146484-4.7236328-.1323242-9.4462891-.1435547-14.1699219.1497879-.1624222-.235527.5052872 2.8608398-5.1416016.2197266 6.4355469.027832 12.8779297.3574219 19.3115234-1.0249023.0000001-2.0498046.0000001-3.074707.0000001zm2.1425781-21.383789c-1.1201172 2.0439453-2.2412109 4.0878906-3.3613281 6.1328125-4.2050781.0166016-8.390625-.2509766-12.5864296-.4892578-.2587891-1.9257813-.4921875-3.8544922-.7006836-5.7871094 5.5498085.0224609 11.0991249.1210937 16.6484413.1435547zm-3.7822265 7.6279296c.0170898 4.5859375.1254883 9.1699219.1396484 13.7558594-.4902344 0-.9804688 0-1.4702148 0-.4113464 0-.6819305-.0384827-.8608398.3837891-1.2353516 2.9257813-2.4379883 5.8789063-3.3242188 8.9316406-.0175781.0615234-.0102539.1132813-.0136719.1699219-.0205078.0693359-.0449219.1357422-.0449219.2197266 0 .9433594.0258789 1.8857422.0444336 2.828125-.2338867-.0029297-.46875-.0058594-.703125-.0097656-2.5805664-8.7568359-4.4511757-17.7050781-5.732914-26.7519531 3.9887734.227539 7.9692421.4716796 11.9658242.4726561zm9.4106445-13.8828125c1.9726563.0019531 3.9458008.0146484 5.918457.0253906 2.6865234 1.3427734 5.6655273 2.8710938 8.3134766 4.1894531.0893555 1.2744141.2753906 2.5576172.4208984 3.8378906-.4741211 1.4238281-.9477539 2.8476563-1.421875 4.2714844-.152832.4589844.1333008.7871094.4956055.8857422v14.4287109c-4.2875977 0-8.5751953 0-12.862793 0-.0727539-9.2197264-.762207-18.4199218-.8637695-27.6386718zm35.0297852 13.1513672c1.6357727.9413834 4.1468201 6.2588501 5.0527344 8.9580078-.027832 1.8427734-.0546875 3.6855469-.0625 5.5292969-8.2646484 0-16.5288086 0-24.793457 0 0-4.7919922 0-9.5839844 0-14.3759766 6.6010741-.0117187 13.2026366-.0732421 19.8032226-.1113281zm72.1005783-25.508789c.0961914.2470703.1894531.4941406.2851563.7412109-.2016602 8.0898438-.4038086 16.1796875-.6054688 24.2695313-3.6491852-.0333786-2.7349854-.0378342-2.9746094-.0087891-.5292969-1.6386719-1.0620117-3.2753906-1.5922852-4.9130859-.2524414-3.0996094 1.3330078-4.2949219 1.4057617-13.9335938-3.5664368-.7669067-7.090332-1.0791016-7.3110352-1.0791016-4.9801788.0001526-93.7467041.0806885-93.900383.0996094-.2758789-.0615234-.5742188.0253906-.75.3515625-.9702148 1.8007813-2.2202148 3.4287109-3.1904297 5.2294922-.1323242.2460938-.1083984.4785156-.0102539.671875.0625 9.5292969.8017578 19.0380859.8769531 28.5673828-.8535156 0-1.7070313 0-2.5600586 0-.3706055-7.2324219-.078125-14.4765625-.4575195-21.7089844-.0228348-.4388428-.2744904-1.1638336-.8774414-1.1650391-1.1928711-.0019531-2.3862305-.0214844-3.5791016-.03125-2.3588867-.4736328-4.7583008-1.0283203-7.0771484-1.4228516.2021484-5.2216797.3413086-10.4462891.5380859-15.6679688 40.5932619.0000002 81.1865159.0000002 121.7797777.0000002zm-123.3579026 2.3193359c-.1508789 4.3730469-.284668 8.7460938-.4516602 13.1181641-.0112305-.0019531-.0229492-.0039063-.0341797-.0048828-1.0366211-.1416016-3.1372108-.6455078-4.5131874-.9023438 1.6953126-4.0585937 3.267582-8.1679687 4.9990273-12.2109375zm2.9150391 56.7714844c-.0341797-3.0996094-.1679688-6.1894531-.1704102-9.2919922 4.8847656.0048828 9.7705078.0263672 14.6552734.046875 1.7851563.9580078 3.5698242 1.9160156 5.3544922 2.875.434082 1.3242188 1.0253906 3.1523438 1.5224609 4.6787109-.111908.4165344.0782013 6.2500153.0898438 10.2363281-22.3305511.0071106-17.7772293-.0635834-18.4921875.0244141-.5383682-1.315567-2.9415054-7.1226043-2.9594726-8.5693359zm47.112793 65.2177734c-5.6120911-3.8049774-10.6498032-8.0424194-15.5869141-12.9707031 1.0996094.0654297 2.1987305.1357422 3.2983398.1884766 10.3974609 2.9873047 21.2836914 6.5185547 31.5292892 9.3369141-.5766602.3613281-1.1508789.7265625-1.7290039 1.0839844-12.9796218 8.0282744-9.8569106 7.553192-17.511711 2.361328zm38.6479416-17.2597656c-34.8236008 3.3571167-55.2425003 1.0892181-57.2866135 1.1289063-6.4526367-6.9423828-12.0717773-14.6464844-16.8408203-22.8535156 15.1459961.1923828 30.2895508-.2460938 45.4355469-.265625 1.9301682-.0029297 1.9335861-3.0029297 0-3-15.7138672.0205078-31.4248047.4970703-47.1386719.2460938-.6166992-1.125-1.2177734-2.2568359-1.8027344-3.3984375 22.6358337-1.1540833 20.8272095-1.2804565 31.862793-2.1816406 23.1240158-.2060547 46.247551-.5126953 69.372551-.5351563-.6513672 1.3691406-1.3276367 2.7236328-2.0341797 4.0625-9.1586914.0800781-18.3115234.4775391-27.4707031.5078125-1.9296875.0068359-1.9335938 3.0068359 0 3 8.6020508-.0283203 17.1982422-.3720703 25.7993164-.4814453-5.8083344 10.1455687-11.9816895 17.0939635-19.8964844 23.7705077zm-34.7705002-152.9980507c1.6640625-2.2851563.2573242-1.6337891 2.2587891-.6972656.7033539.3289337 29.6268692 27.7331734 73.6332932 18.5585976-.019043 11.3681641-.1689453 22.7490234-.9394531 34.0722656-.9477539-2.4824219-1.894043-4.9648438-2.8598633-7.4404297-.2912903-.7400589-.4295502-1.5439453-1.5610352-1.5439453-41.5898438 0-83.1801682 0-124.7705002 0-1.1123047 0-1.5805664.9951172-1.4116211 1.8388672-1.7973671 4.0039063-3.3535194 8.1054688-5.0034218 12.1689453-.6162109-8.078125-.8310547-16.1904297-.7558594-24.2695313 24.6124001-1.0333557 47.9271584-14.1695556 61.4096718-32.6875038z"/><path d="m187.8767242 257.2027588c-43.9760742 2.0693359-79.4057541 8.4179688-79.134758 14.1806641.2714844 5.7617188 36.1406174 8.7558594 80.1166916 6.6865234 43.9760742-2.0683594 79.405777-8.4169922 79.1347809-14.1796875s-36.1406402-8.7568207-80.1167145-6.6875z"/></g></g></svg>