<svg id="Layer_1" enable-background="new 0 0 300 300" height="512" viewBox="0 0 300 300" width="512" xmlns="http://www.w3.org/2000/svg"><g id="send_us_a_message"><g><path d="m60.6499023 260.5421448c0 10.0600586 40 18.2099609 89.3500977 18.2099609s89.3500977-8.1499023 89.3500977-18.2099609c0-6.4106445-16.2612305-12.0390625-40.8398438-15.2788086.328125-3.8291016.3823242-7.7167969-.1884766-11.4384766-.2338867-1.5229492-1.0214844-2.8510742-2.1181641-3.293457.2336273-10.2908783.256546-9.6354675.1337891-10.0048828 1.184082-.6176758 1.8051758-2.0893555 1.9550781-3.737793.480957-5.2900391-.1782227-10.9306641-.2797852-16.2402344-.0161133-.8237305-.6748047-1.4819336-1.5-1.5-.2456055-.0053711-.4912109-.0107422-.7363281-.0161133.0791016-1.0224609.0996094-2.0395508.0849609-3.0541992 2.1831055-.5615234 4.3662109-1.1235352 6.5493164-1.6850586 1.0820313-2.0942383 2.1645508-4.1879883 3.2470703-6.2822266.5-.3510742.9750977-.7519531 1.4145508-1.2192383.8188477-.8706055.3955078-2.1147461-.6621094-2.5073242-3.2734375-1.215332-6.5751953-2.9975586-10.1230469-3.1455078-.5996094-9.7260742.3637695-19.5141602-.4760742-29.2329102 2.8779297-2.0607758 2.4038849-6.305481-1.0717773-7.5683594.4897461-4.5327148.5717773-9.0571289.2148438-13.609375-.0151367-.1889648-.0644531-.3544922-.1293945-.5068359 2.2285156-1.5532227 4.4482422-3.1186447 6.6850586-4.6596603.8701172-.5991211.8037109-1.6547852.3046875-2.3012695-3.7832031-11.5600586-6.6518555-23.3457031-8.6181641-35.3447266.5865631-2.2560196-.0098267-18.4495316-.0136719-18.5522461-.0117188-.3125-.105957-.5693359-.246582-.7807617 1.730957-1.4570313 2.2724609-3.71875 2.3618164-6.1450195.2441406.0717773.5234375.078125.8364258-.0224609 3.1357422-1.0063477 9.0239258-2.8012695 8.9169922-7.0966797-.0576172-2.3037109-2.1259766-3.762207-3.9599609-4.7529297-1.9941406-1.0776367-4.1420898-1.9404297-6.3774414-2.6547852-.0151367-.0209961-.0244141-.0429688-.0405273-.0639648-12.0566406-15.3632813-31.1166992-26.2856464-50.9077148-26.5927753-19.8833008-.3081055-39.0263672 10.9458027-51.5825195 25.8115253-2.9414063.7431641-5.7944336 1.6782227-8.484375 2.8876953-2.1381836.9614258-5.1088867 2.487793-5.2363281 5.1928711-.1650391 3.4868164 4.0405273 5.4091797 7.6577148 6.5600586-.1176758 4.0014648-.0947266 8.1240234.1831055 9.9750977.2949219 1.9594727 1.7783203 4.0664063 3.6850586 4.6064453.2548828 8.7524414.3300781 17.9130859.5849609 26.6650391-5.0944519 4.1199875-4.4871826 11.0943451.2568359 14.4355469.6513672 9.5200195 1.1567383 19.4580002 1.8081055 28.9775314-4.3043442 5.0536804-3.2230453 12.1215057 1.6181641 15.8422852.9423828 11.4033203 1.6806641 23.2021484 2.5083008 34.828125.3491211 16.230957.8071289 32.4594727 1.4277344 48.6826172-22.7265627 3.2929686-37.5424807 8.7114257-37.5424807 14.8232421zm74.9482422-134.0141526c-1.4541016-12.5810547-2.9082031-25.1621094-4.3623047-37.7431641.2548218-.0994415-.7567596.4182053 4.996582-2.5888672 16.9758148 38.6436005 15.8495026 36.170517 16.0820313 36.4428711-4.917221 4.1320725-10.2995605 5.0998612-16.7163086 3.8891602zm19.0322266-5.8623046c-5.0263672-11.4414063-10.0522461-22.8828125-15.078125-34.3242188 9.0703125 5.8642578 19.0419922 11.4243164 30.0795898 11.5361328 7.8344727.0795898 15.5581055-2.6777344 20.8105469-8.3334961 1.8959961 11.3173828 4.6005859 22.4428711 8.1152344 33.3691406-14.5952149-1.6123046-29.2426758-2.364746-43.9272461-2.2475585zm-55.5932617 35.5947189c-2.1899414-1.0166016-3.9223633-3.3955078-2.6586914-5.5576172.706543-.0473633 1.3652344-.5224609 1.3374023-1.4379883-.3398438-11.0800781-.6791992-22.1596603-1.019043-33.2397385.4521484-.6503906.484375-1.6479492-.3613281-2.2202148-1.8422852-1.2460938-3.284668-3.7084961-2.2719727-5.6386719.8842773.269043 1.9916992-.1821289 1.9404297-1.3681641-.5375977-12.4111328-1.074707-24.8222656-1.6123047-37.2338867-.0771484-1.7895508-2.6787109-1.9208984-2.9716797-.3720703-.8904953-2.4757233 1.1554565-13.57827 1.7602539-16.4560547 32.5449219-3.4858398 65.5742188-3.1831055 98.0341797.909668.2480469.03125.5673828.0996094.9111328.1816406-.1269531.2099609-.2080078.4638672-.2060547.7729492.0161133 2.3876953 1.0429688 7.5161133-.0507813 10.3461914-30.3784027-6.8266487-63.0255432-7.3839684-93.3120117.3652344-1.8691406.4785156-1.0766602 3.3725586.7973633 2.8930664 21.2228699-5.4298134 63.9369507-6.3186989 90.9892578 5.5864258.1201172 3.6582031.1850586 7.3129883.0493164 10.9711914-12.2578125 19.1591797-37.3291016 6.9091797-51.5463867-2.4594727-.6831055-.4501953-1.3432617-.2431641-1.7602539.222168-.2080078.0102539-.425293.0654297-.6459961.1811523-2.1791992 1.1381836-4.3583984 2.2768555-6.5371094 3.4155273-.3242188.1689453-.5317383.3989258-.6450195.6542969-.6489258.0908203-1.1899414.5576172-1.0913086 1.4111328 1.5380859 13.3051758 3.0761719 26.6103516 4.6137695 39.9155197.1362305 1.1757813 1.3417969 1.6289063 2.1860352 1.3476563 4.8217773 1.1381836 9.6489258.6777344 13.9697266-1.2275391.3920898.0219727.7670898.0405273 1.0976563.0424805 43.423645.2362671 40.5543976.3964691 42.6938477-.2275391-.402832.2797852-.8037109.5629883-1.2075195.8417969-1.2236328.8427734-.5986328 2.5864258.4863281 2.8222656.2949219 4.5151367.1899414 9.0058594-.3500977 13.5063477-.1324615 1.1038818 1.1853943 1.7821503 1.7626953 1.8295898 1.6508789.1352539 1.6020508 2.2612305.1533203 2.6743164-1.1660156.3325195-1.2851563 1.6010742-.75 2.3647461.621582 7.3789063.2128906 14.7973633.2460938 22.1982422-2.0630951.2306671-28.3988953 8.8991089-65.340332 5.5419922-.8251953-.0751953-1.4770508.7485352-1.5 1.5-.0991211 3.2875977-.1982422 6.5751953-.2978516 9.8632813-1.9052734-.1333008-1.890625 2.8466797.0180664 2.9995117.0986328.0078125.1977539.0131836.2963867.0209961 1.1088867 1.1123047 2.0942383 2.347168 2.9121094 3.6879883.871582.0043945 1.7456055-.0058594 2.6191406-.0136719-.1776581.4337311-.1291504-1.6625977.1694336 34.1948242-8.5966797.5986328-17.1362305.2841797-25.3642578-2.5668945-.9335938-.3232422-1.8974609.5239258-1.8984375 1.4467773-.0063477 4.5981445-2.125 13.4238281 3.2788086 15.6665039 3.331543 1.3823242 8.0654297 1.2592773 11.5966797 1.5678711 4.6142578.4033203 9.2363281.5722656 13.8652344.5913086-.1274414 5.8569336-.1181641 11.715332-.2373047 17.5727539-6.7618484-.7671204-27.7524033-4.4246826-31.5249023-9.15625-1.4140625-32.8198242-2.1259766-65.6640625-2.5410156-98.5107422.802246-.6025389 1.0629882-1.8886717-.0830079-2.4208983zm8.5834961 76.7275391c11.7839813 3.5535736 21.7064056 2.0082855 31.4946289 1.7607422-.0205078 3.6464844-.0410156 7.2929688-.0620117 10.9399414-2.8882141.0207214-11.5243149.4436188-23.3305664-.8862305-3.9301758-.4428711-7.2783203-.0483398-8.0522461-4.609375-.3725586-2.1928711-.1650391-4.8056641-.0498047-7.2050781zm86.3701172-45.5903321c-1.1020508.0273438-1.5732422 1.0195313-1.4155273 1.855957-.2348633.3139648-.3549805.7241211-.2602539 1.2070313 1.0052795 5.1163635.379425 8.5087128.4501953 9.1860352-.4858398.8276367-.1381836 2.159668 1.0351563 2.3232422.8102417 6.3094177.2254181 13.2807312.184082 15.7709961-1.2055664.2451172-1.6132813 2.1005859-.4555664 2.7675781-.149353.3797607-.0899353-.3384857-.3266602 10.0932617-.0063477.277832.0556641.5107422.1572266.7084961-.7319336.7578125-.2719727 1.7666016.5292969 2.175293.0405273.5429688.1640625 1.0952148.1816406 1.2866211.7048798 8.6095276.0087891 11.1270142.0366211 15.8681641-.2578125.0947266-.515625.1894531-.7739258.284668-1.7477112.6436005-1.2353516 2.8749695.3339844 2.9536133-.0693359 1.2075195-.1386719 2.4150391-.2084961 3.6220703-17.3959961 7.9951172-37.6323242 10.8984375-57.277832 9.1503906.0581055-2.7543945.0898438-5.5092773.1137695-8.2641602.0263672.0024414.0488281.0097656.0751953.0107422 17.0141602.6948242 33.2646484-1.0454102 49.6328125-5.7998047 1.8505859-.5375977 1.0634766-3.4331055-.7973633-2.8930664-16.0976563 4.6762695-32.1054688 6.3759766-48.8354492 5.6928711-.0161133-.0004883-.0292969.0029297-.0449219.0024414.0112305-1.1972656.0263672-2.3950195.043457-3.5927734 1.609375-.9545898 3.1552734-2.0317383 4.6152344-3.2070313.6049805-.1943359 1.0581055-.7587891 1.0615234-1.4228516.0263672-4.6552734.0527344-9.3110352.0791016-13.9667969.0043945-.7958984-.690918-1.5200195-1.5-1.5-1.8935547.0478516-3.7871094.0952148-5.6801758.1430664-.299118-35.6908875-.2071381-33.5771942-.418457-34.0249023 19.3940887-.4611664 34.8289642-3.6136169 55.1435547-8.1782227 1.8828125-.4233398 1.0859375-3.315918-.7973633-2.8930664-19.7084961 4.4287109-39.8164063 5.9624023-59.9472656 4.6328125.0849609-2.8193359.1699219-5.6381836.2548828-8.4575195 21.5107422 1.7890625 43.0605469-.105957 63.9414063-5.597168.043457 1.7382813.1103516 3.4760742.2460938 5.2109375.0673828.8583984.7089844 1.3310547 1.3818359 1.4213867.1967773.097168.4282227.1552734.7041016.1455078 2.5878906-.090332 5.1123047.9575195 7.5463867 1.9946289-2.6655275 1.3515625-6.1225588 1.2177735-9.0083009 1.2895508zm1.2485351-127.8330002c-.1113281-1.7792969-.3095703-3.5146484-.3198242-4.9619141.7026367.2050781 1.3457031.3886719 1.78125.4804688 1.6474609.3481445 2.7568359 1.8237305 2.2172852 3.1772461-1.5393067.6870499-3.1529694 1.0984726-3.678711 1.3041992zm-51.4736328-35.3105487c17.5571289.2724609 34.3442383 9.3500996 45.9335938 22.3183613-2.5986328-.5644531-5.2636719-.9755859-7.9228516-1.3012695.0157318-.6236038-.0750885-.6274986-1.3178711-2.9233398-.3857422-.7119141-1.3696289-.9375-2.0527344-.5380859-.7192383.4208984-.9248047 1.3374023-.5380859 2.0522461.1879883.3466797.3754883.6928711.5629883 1.0395508-3.1694336-.3168945-6.2871094-.5493164-9.2246094-.8046875-.3388824-.8269768-.9072266-2.2138672-1.3574219-3.3071289-.3081055-.7485352-.9960938-1.28125-1.8452148-1.0478516-.7080078.1948242-1.3579102 1.0917969-1.0478516 1.8452148.3095703.7519531.6196289 1.503418.9287109 2.2553711-3.7734375-.2875977-7.5546875-.5097656-11.3413086-.659668-.2387695-.9321289-.4770508-1.8642578-.715332-2.7963867-.4780273-1.8691406-3.3720703-1.0766602-2.8925781.7978516.1606445.6293945.3217773 1.2592773.4829102 1.8886719-4.0258789-.1196289-8.0541992-.1601563-12.0825195-.1279297.050293-.715332.1005859-1.4306641.1503906-2.1459961.0546875-.784668-.7290039-1.534668-1.5-1.5-.859375.0385742-1.4414063.659668-1.5 1.5-.0507813.7250977-.1015625 1.449707-.1523438 2.1748047-4.8295898.0830078-9.6538086.2827148-14.4672852.5795898.0820313-.2050781.1640625-.4101563.2460938-.6152344.2919922-.7304688-.3183594-1.6791992-1.0478516-1.8452148-.8666992-.1977539-1.5322266.2651367-1.8452148 1.0473633-.2167969.5419922-.4335938 1.0839844-.6503906 1.6259766-3.3349686.2358055-7.1423416.5042114-10.4570313.8071289.0615234-.0957031.1235352-.1918945.1855469-.2875977.4394531-.6811523.1391602-1.65625-.5380859-2.0522461-.7270508-.425293-1.6118164-.1445313-2.0522461.5380859-1.6714249 2.587841-1.3174438 2.037075-1.4013672 2.1899414-2.3930664.2719727-4.7856445.6083984-7.1484375 1.0361328 11.9907226-12.6894532 28.9204101-22.0175801 46.6083984-21.7436543z"/><path d="m111.6791992 241.3082581c1.4477539.3862305 2.8950195.7719727 4.3422852 1.1582031 1.8676758.4980469 2.6640625-2.3950195.7973633-2.8930664-1.4472656-.3857422-2.8945313-.7719727-4.3417969-1.1577148-1.8676758-.4980469-2.6640625 2.3950195-.7978516 2.8925781z"/><path d="m103.965332 152.2530823c-1.9301758-.0927734-1.925293 2.9072266 0 3 28.1474609 1.355957 56.2963867-.3300781 84.0893555-4.9770508 1.8999023-.3173828 1.09375-3.2089844-.7978516-2.8925781-27.5258789 4.6020508-55.4179687 6.2124023-83.2915039 4.8696289z"/><path d="m126.8496094 106.4845352c-9.0625.6118164-18.1308594 1.0605469-27.2094727 1.347168-1.9257813.0610352-1.934082 3.0610352 0 3 9.0786133-.2866211 18.1469727-.7353516 27.2094727-1.347168 1.9160156-.1293945 1.9301758-3.1303711 0-3z"/></g></g></svg>