<svg id="Layer_1" enable-background="new 0 0 300 300" height="512" viewBox="0 0 300 300" width="512" xmlns="http://www.w3.org/2000/svg"><g id="Smart_Shopping"><g><path d="m126.3924942 45.699852c-.7792969 1.7480469 1.8051682 3.2758789 2.5903244 1.5141602 3.5727539-8.0117188 7.9057617-15.0458984 13.4482422-21.8500977 1.2094727-1.484375-.9008789-3.6191406-2.1210938-2.1210938-5.6943359 6.9897461-10.2416992 14.2138672-13.9174728 22.4570313z"/><path d="m92.0555801 144.0196686c-7.2695313-12.3710938-14.5385742-24.7416916-21.8081055-37.1127853-.9775391-1.6635742-3.5717773-.1552734-2.590332 1.5141602 7.269043 12.3710938 14.5385742 24.7421799 21.8081055 37.1127853.9775391 1.6635742 3.5717774.1557617 2.590332-1.5141602z"/><path d="m29.4696426 117.6739731c12.2333984 11.1103439 24.4663086 22.2206955 36.699707 33.3310471 1.4267578 1.2954102 3.5541992-.8203125 2.121582-2.121582-12.2333984-11.1103516-24.4667969-22.2202072-36.699707-33.3305588-1.4267577-1.2954102-3.5541991.8198242-2.121582 2.1210937z"/><path d="m205.5702209 124.6700668c1.4882813-1.2324219-.644043-3.3442383-2.1210938-2.1210938-9.918457 8.2133713-19.2456055 17.0585861-27.9736328 26.5278244-1.3066406 1.4174805.8095703 3.5444336 2.121582 2.1210938 8.7275392-9.46875 18.0546876-18.3139648 27.9731446-26.5278244z"/><path d="m185.6175842 167.0684967c16.3017578-7.4677734 32.7485352-14.6064453 49.3393555-21.4077148 1.762207-.722168.9907227-3.6254883-.7973633-2.8925781-16.8310547 6.8989258-33.519043 14.1342773-50.0561523 21.7099609-1.7529297.8032226-.2304688 3.3896484 1.5141601 2.590332z"/><path d="m244.8075256 224.2926178c-1.9746094-2.1420898-3.0932617-3.7905273-5.9321289-4.625-3.796875-1.1166992-7.7348633-1.5073242-11.5844727-2.3535156-2.7744141-.6098633-6.4555664-2.2773438-9.3793945-1.2583008-3.1376953-2.9814453-6.8466797-5.3793945-10.8759766-7.0883789-4.706543-1.9956055-12.1748047-3.9355469-17.9902344-2.4594727-2.2626953-4.5322266-6.9970703-8.8979492-11.2910156-11.6347656-4.3349609-2.7631836-9.6425781-5.8618164-14.7045898-7.796875-1.269043-.6650391-2.5463867-1.2827148-3.8134766-1.8549805-1.3999023-2.0615234-2.8481445-3.7626953-4.0825195-4.5195313.6381836-.7275391 1.1425781-1.5322266 1.4321289-2.4311523.9174805-2.8515625-1.0400391-5.581543-2.8413086-7.6010742-6.6240234-7.4277344-16.9130859-11.5429688-26.6957932-13.8852539 7.41259-12.578125 14.8330002-25.7900391 22.2455978-38.3022385.1914063 7.300293 3.0615234 15.9208908 6.6801758 21.7109299 3.3510742 5.3613281 12.090332 7.6083984 15.5356445 1.769043 2.4038086-2.2290039 4.2270508-6.2416992 4.5380859-8.7524414.6441956-5.3660202-.1369476-7.0040131-10.2006836-54.1791916 3.2021484.1298828 6.4838867-1.8227539 7.6850586-4.8276367 1.4179688-3.5488281-.2714844-8.043457-3.6762695-9.7797852 9.4892578-10.909668 18.5698242-22.1748047 27.215332-33.7646484-.3789063-1.3408203-.6591797-3.0639648-1.0009766-4.5478516.1826172-.1855469.3569336-.3789063.5405273-.5634766 1.3618164-1.371582-.7583008-3.4936523-2.121582-2.121582-11.8500977 11.9311523-22.1401367 25.6147461-30.3789063 40.2768555-2.5941925-2.0197639-22.5706329-14.9691544-36.1621017-14.2001953-4.737793.2680664-11.628418 4.6606445-6.4467773 9.5922852 1.3984375 1.3310547 3.5234375-.7866211 2.121582-2.1210938.0097656-3.3505859 1.4516602-4.8408203 4.3251953-4.4711914 11.0197067-.3682671 23.2300339 6.3189354 32.3530197 12.5336914 1.3515625.9213867 4.1791992 2.5957031 4.7817383 4.3071289 1.128418 3.2070313-3.2441406 4.1044922-5.3051758 2.9853516-.1982422-.1074219-.3930664-.1630859-.581543-.1835938-.7558594-1.6943359-1.6191406-3.3242188-2.675293-4.8149414-1.1069336-1.5629883-3.7094727-.065918-2.590332 1.5141602 5.5999908 7.9044647 8.9955139 24.5373993 13.0126953 47.0698242.5947266 8.2495117.3608398 16.8705978 1.5986328 24.8359299-2.2041016 2.5932617-6.4428711 2.0576172-8.8369141-.4819336-1.2358398-1.3110352-2.0205078-3.1142578-2.7211914-4.7480469-2.6494141-6.1801758-5.2827148-13.6371994-4.578125-20.3930588.0639648-.6118164-.5083008-1.3237305-1.1010742-1.4462891-1.0146484-.1655273-2.0078125-.4155273-2.9799805-.75-.4614258-.137207-1.1469727-.015625-1.4594727.3857422-10.5244141 13.5048828-17.5996094 28.7939377-26.9897385 43.0283127-1.7211914 2.609375-3.6699219 6.9350586-6.6508789 8.3540039-6.1259766 2.9169922-6.1767578-3.2143555-5.534668-6.2226563.4316406-2.0209961 1.3374023-3.9770508 2.1855469-5.8364258 4.0460205-8.8690338 9.7378311-17.1404419 15.2055664-25.0956955 1.0961914-1.5947266-1.5024414-3.0966797-2.590332-1.5141602-2.5991211 3.7817307-5.4648438 7.7289963-8.1582031 11.8246994-5.0952148.4174805-5.6796875-5.5507813-3.7753906-8.9902344 1.0731735-1.9376602 2.0242462-2.9789047 6.9414063-11.0825119 1.0039063-1.6552734-1.5893555-3.1645508-2.590332-1.5141602-4.2227478 6.959549-6.7462158 10.3984756-7.7915039 12.7016525-7.4145508 2.0361328-5.28125-8.2929611-3.4379883-11.6655197 1.3930664-2.5493164 3.1142578-4.9165039 4.8173828-7.262207 1.1357422-1.5644531-1.4658203-3.0629883-2.590332-1.5141602-1.1811523 1.6264648-2.5175781 3.3950195-3.7236328 5.2670898-.1230469.0341797-.2470703.0810547-.3735352.1533203-4.902832 2.8144531-6.7822266-2.9277344-5.9135742-6.7597656.5810547-2.5639648 2.0483398-4.8242188 3.3061523-7.1132813 12.6473694-23.0219955 18.0146103-32.7916183 28.6279297-37.246582 1.7534103-.7363281.9833908-3.640625-.7973633-2.8930664-14.2709961 5.9902344-20.9916992 21.6108398-28.0800781 34.3647461-3.0361328 5.4628906-8.003418 11.9853516-5.9155273 18.6635742 1.0859375 3.4736328 3.9335938 5.0517578 7.0092773 4.6875-3.8451996 8.5435715.829895 14.6219559 6.1958008 14.4511642-.3649368 3.9823456 2.2701874 7.6600494 6.3154297 8.5214844-2.7597656 4.4321289-5.1972656 9.0341797-6.7924805 13.7905273-13.4580078.1767578-27.715332 3.5478516-38.7202148 11.5356445-2.9594727 2.1474609-6.340332 4.8847656-7.7426758 8.387207-.9570313 2.3916016-.3144531 4.3588867 1.0292969 5.9921875-5.1186523 2.0698242-15.956543 9.9233398-19.3256836 15.0893555-.8295898 1.2719727-1.5546875 2.7875977-2.128418 4.3837891-1.7231445 3.2890625-2.324707 7.019043-1.1523438 11.2275391 3.015625 10.8256836 15.2119141 16.921875 26.2290039 20.5258789 51.4862976 20.035141 101.3521957 10.7310028 118.7333908-3.074707 1.9243164-1.5283203 3.5205078-3.0014648 4.7861328-4.4897461 6.1092987 5.4516754 14.6732788 7.9519653 23.1992188 6.6484375.8286133 5.6044922 1.6479492 12.8701172 2.4799805 17.796875 8.2739258 8.8095856 13.7719727 16.2983551 22.0458984 25.1084137.9902344 1.0541992 2.3144531 2.2797852 3.730957 3.7226563 1.0440979-.3097229 6.0711212-1.5491638 6.1845703-1.5771484.6318359.6098633 1.777832.7436523 2.375-.2285156 5.5966797-9.1098633 13.3725586-15.8857422 22.7900391-20.8530426.8876953-.4682617.9301758-1.6767578.3037109-2.355957-24.9573513-27.0732726-24.0561672-26.0954741-25.774902-27.9599608zm-140.9814376-31.9506836c3.465332.3588867 6.9443359.5615234 10.4204102.5332031 22.9247971-.1884766 24.3798752-.4702148 36.5595627-1.2900391.3476563-.0234375.7075195-.0683594 1.0551758-.1411133-.0249023.8369141-.050293 1.6738281-.0776367 2.5107422-.1079102 3.2495117-.2290039 6.4980469-.3569336 9.746582-.7749023 2.1420898-2.4819336 4.0629883-3.8735352 5.4448242-5.3436737 5.3077698-14.674881 9.1864014-21.8505783 11.309082-4.3671875.5712891-8.7275391.8857422-12.9375 1.03125-8.300293.2866211-16.9667969-.0488281-25.4018555-1.4584961-3.5356445-.8442383-7.0327148-1.8701172-10.4741211-3.0727539-2.5532227-.8916016-7.9985352-1.9697266-9.7109375-3.878418-2.1269531-2.371582-1.4052734-7.0112305-1.4692383-10.1469727-.0620117-3.0234375-.1298828-6.0473633-.2382813-9.0698242-.0605469-1.6801758-.831543-5.8237305-.4003906-8.3110352.6235352-.2265625 1.2285156-.4365234 1.8095703-.6298828 11.3583984 5.2578127 24.4248047 7.1118166 36.9462891 7.4228518zm-51.4726563-.7451172c-1.7338867 2.625-2.7299805 5.6601563-2.3129883 8.9443359 1.5224609 11.9956055 17.590332 17.6279297 27.4545898 20.2802734 2.4624023.6621094 4.9575195 1.2241211 7.4711914 1.7075195.4365234.112793.8691406.2407227 1.3071289.347168 16.5322266 4.0332031 33.1503906 3.324707 49.0678635-1.1455078 9.3583984-2.0107422 18.7734375-5.4379883 25.4453125-11.8256836 3.6494141-3.4941406 6.1904297-8.203125 5.1206055-13.3642578-.4902344-2.3657227-1.6586914-4.4858398-3.1640625-6.3452148 5.3618164 2.8720703 10.3745117 6.6000977 12.7797852 11.0849609 2.4760437 7.2470093-1.3589478 13.7375031-7.7319336 17.9833984-4.5351563 3.0209961-9.9511719 4.7250977-15.3251953 6.230957-17.3510742 4.8623047-35.447258 8.1240234-53.5883713 7.4116211-18.1411133-.7119141-36.4018555-5.6132813-50.7241211-15.7529297-2.9873047-2.1147461-5.8979492-4.5791016-7.75-7.6210938-1.5527344-7.1967772 4.5405273-13.3842772 11.9501953-17.9355467zm9.7456055-16.2167969c.3686523-1.237793 1.5947266-2.4545898 2.440918-3.3588867 2.6674805-2.8496094 6.0478516-5.0410156 9.4628906-6.8813477 9.4165039-5.0742188 20.2094727-7.4526367 30.871582-7.7167969-1.3095703 5.6625977 1.5131836 13.2836914 8.7431641 10.4116211 1.5703125-.6235352 2.8603516-1.7241211 3.9936523-3.0058594 2.0498047-.8310547 3.9985352-1.9882813 7.0751953-4.0419922.2573242-.4321289.5107422-.8642578.7670898-1.2963867 8.8632736 2.0512695 17.8237228 5.496582 24.5170822 11.6459961 3.4448242 3.1645508 5.4023438 6.246582.3222656 9.5195313-3.4760742 2.2392578-7.5566406 3.5888672-11.503418 4.7250977-11.2656174 3.2416992-23.2153244 4.3115234-34.903801 3.9584961-25.6147308-.7727509-35.3939972-7.2086792-36.5288086-7.5019531-2.8602217-1.460373-6.1636656-3.4185791-5.2578123-6.4575196zm126.2866134 47.4516602c2.7435303-3.7649994 3.6979675-8.1313019 1.3540039-14.7045898 9.5185547-1.8711548 19.6026764 1.9744568 26.769043 8.6987305-1.6137695 1.2880859-2.2197266 3.5625-2.362793 6.0473633-1.15625 1.5273438-1.8129883 2.465332-3.894043 5.0834961.0654297.3862305.1303711.7895508.1958008 1.2026367-8.178955 1.265747-16.187622-1.1419679-22.0620117-6.3276368zm57.6713868 49.3720856c-3.9243164-4.3237305-7.8486328-8.6469727-11.7724609-12.9707031-3.2895508-3.6240387-6.5786133-7.2480621-9.8676758-10.8720856-1.5327148-1.6884766-4.6342773-3.9916992-5.5483398-6.112793-.3782196-.8776245-1.8615417-14.8075409-1.4912109-19.0839844.1704102-1.9643555.8188477-3.0488281 1.7548828-3.590332 1.050293 1.2290039 2.0019531 2.5263672 2.8442383 3.8764648-.0356445.0517578-.0722656.1030273-.0976563.1582031-1.6060638.7603302-2.2336273 4.0486908-.3105469 6.2236328 1.5087891 1.706543 4.0454102 1.6806641 5.7612305.3120117 1.7475586-1.3945313 2.2788086-3.8891602.9174805-5.7397461-1.1694336-1.5888672-3.1313477-2.2133789-4.9506836-1.7045898-.7631836-1.2475586-1.6083984-2.4365234-2.5302734-3.5629883 2.0302734-.1220703 4.6245117.8613281 6.8393555 1.2958984 3.4145508.6699219 8.0527344.6704102 11.1674805 2.309082 1.9082031 1.003418 3.3393555 3.0493164 4.8413086 4.6787109.3671722.3983307 23.0143738 24.9658813 23.5229492 25.5175781-8.5166018 4.7807772-15.6704104 11.1274569-21.0800783 19.2656405zm-22.5517579-45.9941559c.1577148.324707.3115234.6508789.4560547.9804688.3862305.8823242 1.6787109.1196289 1.2949219-.7568359-.1337891-.3056641-.28125-.6035156-.4243164-.9038086 1.316864.2993011 1.6462097 1.6256866.4868164 2.3847656-1.293457.8466796-2.1552734-.5795899-1.8134766-1.7045899z"/><path d="m253.7284241 253.0831451c-.3867188-.3789063-.7817383-.7480469-1.1713867-1.1235352 3.4484558-5.4393158-2.2707825-14.0775452-10.7817383-9.6035156-2.4179688-1.9853516-4.8925781-3.9023438-7.4121094-5.7641602.8212891-.3398438 1.7202148-.5664063 2.6665039-.7407227 1.8959961-.3500977 1.0927734-3.2416992-.7973633-2.8930664-1.4663086.2705078-2.9736328.9287109-4.3291016 1.8422852-.8759766-.625-1.7539063-1.2480469-2.6416016-1.8588867-1.5947266-1.097168-3.0966797 1.5019531-1.5141602 2.590332.6118164.4208984 1.2138672.8535156 1.8198242 1.2817383-2.71875 2.9931641-3.6816406 7.1162109.2460938 10.3769531 2.8193359 2.340332 6.5258789 1.3935547 9.4995117-.0859375.6420898-.3193359 1.3486328-.7373047 2.0888672-1.1591797 2.3120117 1.9443359 4.5771484 3.9453125 6.7919922 6.0073242-1.5405273.9262695-3.5200195 1.3427734-5.1674805.8930664-1.8647461-.5097656-2.6606445 2.3837891-.7973633 2.8925781 2.9267578.7998199 6.0410156.0605469 8.2714844-1.5961914.3681641.3549805.7412109.7041016 1.1064453 1.0625 1.379883 1.3530428 3.5029298-.7666014 2.1215822-2.1215819zm-21.9003907-14.6474609c2.4370117 1.7797852 4.8242188 3.6196289 7.1635742 5.5175781-6.384201 3.5454254-10.7124481-1.0835571-7.1635742-5.5175781zm17.4492188 6.8300781c1.625 1.5913086 1.7446289 3.2158203 1.0375977 4.5644531-1.953125-1.8183594-3.9438477-3.5913086-5.9716797-5.3193359 1.7221679-.6157226 3.4575195-.690918 4.934082.7548828z"/></g></g></svg>