<svg id="Layer_1" enable-background="new 0 0 300 300" height="512" viewBox="0 0 300 300" width="512" xmlns="http://www.w3.org/2000/svg"><g id="Social_Media_Marketing"><g><g><path d="m278.947113 235.4165955c-1.5253906-12.4492188-1.7543945-33.1376953-1.9916992-33.8867188 15.4101868-24.1611023-63.5207062-34.6541901-96.1923828-36.6757813-1.3652344-3.0029297-3.2050781-5.9326172-5.1894531-8.7871094-3.7226563-5.3535156-7.605957-10.8916016-10.6416016-16.671875-4.6416016-8.8359375-.7744141-12.3291016-1.831543-18.6279297-1.265625-7.5351563-11.0566406-4.5498047-13.5478516.78125-2.0126953 4.3066406-2.8378906 9.9873047-1.7124023 14.6425781.6606445 2.7314453 3.2983398 5.9140625-1.4824219 8.1699219-4.4267578 2.0869141-10.3754883-2.3427734-13.9189453-3.6416016-3.390625-1.2412109-8.1103516-2.6279297-11.3696289-.3164063-3.2666016 2.3164063-3.5083008 5.6669922-1.4931641 8.8300781.171875.2705078.3759766.5107422.5649414.7646484-3.7841797.6660156-6.5419922 4.3007813-5.7607422 8.5537109.2426758 1.3203125.7460938 2.4707031 1.4301758 3.4863281-1.1923828 1.4460754-1.8828735 1.5702972-2.6049805 3.1767578-20.8525391 1.4726563-42.0288086 4.0634766-62.1293945 9.9609375-17.0214844 4.9931641-38.4741211 14.9140625-26.8618183 28.2333984-.3935547.2304688-.6850586.6367188-.7016602 1.2236328-.2875977 9.9882813-1.0092773 19.9609375-2.128418 29.890625-.2680664 2.3798828-1.737793 6.5361328-.4311523 8.8134766.8183594 1.4257813 3.3251953 2.3330078 4.7041016 3.2207031 2.4995117 1.609375 4.9990234 3.2197266 7.4980488 4.8291016.2587891.1660156.5473633.2246094.8300781.2021484 9.6328125-2.3115234 11.1538086-2.6757813 11.3476563-2.7226563.0004883 0 .003418-.0009766.0039063-.0009766.0024414 0 .0063477-.0019531.0195313-.0048828 17.9061546-24.5032501 3.7936859-4.7500153 20.3510742-28.1376953 17.4652481 3.4644928 37.6587524 6.0710907 58.8447266 7.2070313.0292969.1005859 12.8203125 39.4082031 13.9526367 42.3017578 1.6889648 4.3164063 1.4199219 6.6699219 6.0844727 6.6015625 7.5351563-.109375 15.0761719-.4746094 22.6079102-.7128906.5092773-.015625 1.0537109-.2685547 1.2954102-.7421875.0512695-.1005859 20.4946289-48.3994141 20.4995117-48.5009766 13.9936523-1.2011719 32.171875-3.4726563 45.9848633-6.3837891-.0043945.0039063-.0073242.0039063-.0117188.0068359 21.8876953 31.1455078 12.5771484 16.6533203 21.3129883 28.1376953l8.2470703 1.8046875c1.0166016.2226563 2.3334961-.2353516 2.4345703-.3017578 2.21875-1.4355469 4.4370117-2.8710938 6.6557617-4.3066406 1.3955078-.9033203 4.340332-2.1191406 5.2954102-3.4638672 1.3466795-1.8964839.288574-4.8935542.0361326-6.9531245zm-3.4921875-39.4052735c-5.2084961-.1777344-10.4169922-.3564453-15.6254883-.5351563 1.5361328-7.5097656-19.3334961-13.0839844-26.8881836-14.7314453 1.3242188-.7822266 2.6484375-1.5644531 3.9726563-2.3466797.8305664-.4902344.0766602-1.7871094-.7568359-1.2949219-1.7944336 1.0595703-3.5888672 2.1191406-5.3833008 3.1787109-13.1557617-2.8183594-34.6708984-5.2744141-46.2514648-5.9726563 1.3530273-2.140625 2.9609375-4.0888672 4.8037109-5.8583984 18.5945892 1.4411775 85.1585693 8.8614961 86.1289062 27.560547zm-62.3081054 1.1904297c10.7197266-3.8496094 21.8100586-5.6591797 33.199707-5.4199219.9599609.0205078.9599609 1.5205078 0 1.5-11.2397461-.2294922-22.2197266 1.5703125-32.7998047 5.3701172-.9101562.3300781-1.2998047-1.1201172-.3999023-1.4501953zm-1.6303711-5.2099609c-.7900391.5605469-1.5400391-.7392578-.75-1.2998047 4.5302734-3.2099609 9.6601563-5 15.2001953-5.3798828.9697266-.0703125.9599609 1.4404297 0 1.5-5.2900391.3603515-10.1201172 2.1103515-14.4501953 5.1796875zm-24.1503907-23.6914063c-1.6230469 1.6826172-3.0668945 3.5097656-4.2910156 5.4960938-.0766602-1.984375-.4682617-3.9394531-1.1000977-5.8642578 1.7963868.1152343 3.5937501.2363281 5.3911133.368164zm-55.7246093-24.6875c5.6259766 2.1035156 10.6850586 6.0966797 16.8652344 3.1005859 6.0830078-2.9492188 2.6855469-7.8730469 2.0244141-12.8730469-1.800293-13.609375 11.0297852-21.9121094 9.1914063-4.9589844-1.5565643 14.3569183 16.4338531 27.6075439 19.9145508 40.5751953 7.0014191 26.0982666-41.6632538 26.6162872-58.3935547 17.78125 4.6938477 1.1679688 9.6660156 2.1777344 14.0097656.8955078 4.2041016-1.2412109 4.6958008-5.2050781 2.1879883-7.8789063 2.2895508.0966797 4.4995117-.2558594 6.40625-1.5917969 3.0800781-2.1572266 4.1005859-4.8789063 2.6083984-7.3320313 5.1409912-1.1880951 7.8593445-5.4764404 4.4042969-9.7285156 2.3730469-.5068359 3.9414063-1.875 3.5410156-5.1230469-.4584961-3.7236328-3.9355469-5.4033203-7.2358398-6.3535156-1.8588867-.5351563-2.6523438 2.359375-.7973633 2.8925781 2.7070313.7802734 3.7602539.9248047 3.4165039 3.7177734-.3510742 2.8476563-1.6357422 2.2607422-4.2338867 2.0019531-4.2670898-.4248047-8.5820313-1.8603516-12.4785156-3.6054688-2.96875-1.3300781-7.5874023-3.1611328-9.625-5.78125-3.6435549-4.6826168-1.5473634-9.3798824 8.1943358-5.7382809zm40.5053711 60.4091797c-1.5102539-1.8496094-3.0102539-3.7099609-4.5200195-5.5595703-.6103516-.7402344.449707-1.8105469 1.0595703-1.0605469 1.5102539 1.8505859 3.0102539 3.7099609 4.5205078 5.5605469.6098632.7392578-.4501954 1.8095703-1.0600586 1.0595703zm-21.1801758 6.890625c.1098633.9599609-1.3901367.9492188-1.5 0-.3398438-3.0205078-.6899414-6.0400391-1.0302734-9.0605469-.1098633-.9501953 1.3901367-.9394531 1.5 0 .340332 3.0205078.6904296 6.0400391 1.0302734 9.0605469zm-21.0302735-12.3603516c-1.7197266 2.8798828-3.4394531 5.7597656-5.159668 8.6396484-.4902344.8300781-1.7900391.0703125-1.2900391-.7597656 1.7202148-2.8798828 3.4399414-5.7597656 5.1499023-8.6396484.5000002-.8300781 1.7900392-.0703125 1.2998048.7597656zm-7.1230468-45.7753906c2.5834961 2.1132813 5.7514648 3.5927734 8.7446289 4.9462891 4.4375 2.0048828 9.3330078 3.6738281 14.262207 4.0517578 3.5424805.7773438 4.7451172 4.2216797.9033203 6.2626953-3.6821899 1.9554443-21.1447449-2.4582062-24.7719727-4.5400391-1.590332-.9130859-3.2758789-2.3173828-4.1196289-4.0126953-3.196289-6.4208984 4.854004-6.649414 4.9814454-6.7080078zm-7.1655274 13.7792969 5.190918-.3076172c3.9784241 2.0731964 16.4464874 5.39534 21.9350586 5.4365234.3364258.2949219.6342773 1.6972656.6015625 2.4785156l-19.6450195.5917969c-4.6871414-1.1435242-8.1656265-5.0376587-8.4897461-7.1103516.2651367-.3007812.402832-.6972655.4072265-1.0888671zm1.1840821 8.4882812c3.7114258 2.5664063 8.3085938 2.8154297 10.7490234 3.6640625 1.6108398.5625 11.5556641 4.1279297 7.2250977 6.4101563-1.7856445.9414063-4.847168.4023438-6.7495117.1816406-4.1113281-.4765625-8.0786133-1.6083984-12.1201172-2.4404297-1.7993851-2.812622-2.3045807-7.6251526.8955078-7.8154297zm-4.1572266-6.7910156c.097168 1.6474609.7148438 3.0791016 1.6958008 4.4130859-.8666992.4824219-1.5195313 1.0820313-1.9863281 1.7685547-.9326172-.2763672-2.2773438-.171875-3.6274414.0361328-1.0390625-1.890625-2.0786133-3.78125-3.1176758-5.671875 2.3481445-.1992187 4.6938476-.3789062 7.0356445-.5458984zm-8.6679688.6904297c1.0629883 1.9335938 2.1264648 3.8681641 3.1894531 5.8017578-1.0083008.1933594-1.9204102.3837891-2.5361328.4375-5.1831055.453125-10.3579102 1-15.5175781 1.6640625-7.0205078.9042969-14.03125 2.0009766-20.9541016 3.4931641-2.2485352-1.6123047-4.496582-3.2236328-6.7451172-4.8359375 13.9365235-3.3623047 28.2817384-5.2988281 42.5634766-6.5605469zm-20.6499023 15.8378906c-.9702148-.0292969-.9702148-1.5292969 0-1.5 5.6499023.1308594 10.9599609 1.7402344 15.7197266 4.7900391.8100586.5205078.0600586 1.8203125-.7597656 1.3007813-4.5600587-2.9306641-9.5400391-4.4707032-14.959961-4.5908204zm9.0898438 16.1601563c-11.699707-4.1601563-23.8901367-5.6494141-36.25-4.4501953-.9599609.1005859-.949707-1.3994141 0-1.5 12.5-1.2197266 24.8198242.3007813 36.6499023 4.5.9101562.3203125.5200195 1.7705078-.3999023 1.4501953zm-32.9042969-24.9628906c2.2294922 1.5986328 4.4589844 3.1972656 6.6879883 4.7958984-7.5913086 1.7226563-25.8046875 6.0273438-26.4873047 13.8251953-5.2041016.0068359-10.408205.0136719-15.6123066.0205078 1.727539-10.0566406 25.0351581-16.03125 35.411623-18.6416015zm-26.0615235 72.0507812c-1.8256855-1.1748047-3.6508808-2.3505859-5.4765644-3.5263672-6.1240234-3.9414063-4.6118164-1.3525391-3.7197266-9.1142578 1.1240234-9.7587891 1.8701172-19.6591797 2.1899414-29.7558594 2.0102539 1.7236328 4.1455078 3.0654297 6.48633 4.3271484-.1904297.3398438.1972656-1.3242188-5.4902363 26.1103516-.2431641 1.1679688-.3862305 1.9990234.4892578 2.578125 2.777832 1.8378906 5.7470722 3.296875 8.8784199 4.4248047-1.1420897 1.6376953-2.2626952 3.2890625-3.3574218 4.9560547zm21.2929688-29.7285156c-5.2407227 7.5957031-10.9379883 14.9140625-16.3007813 22.4433594-.6987305-.9208984-2.5131836-.6396484-8.0625019-4.1035156 1.7480488-8.4306641 3.4956074-16.8613281 5.2436543-25.2929688 6.0488281 2.9648438 12.5390625 5.1630859 19.1669922 6.8964844-.0151367.0205078-.0327149.0351562-.0473633.0566406zm.0073242-3.3466797c-10.3867188-2.8896484-28.4052753-7.9638672-30.5600605-17.4111328-.1113281-.4873047-.1577148-.9619141-.1748047-1.4306641.0151367.0009766.0249023.0078125.0405273.0078125 5.2480469-.0068359 10.4965839-.0136719 15.7451191-.0205078 1.4882813 7.3076172 17.550293 11.8818359 24.7553711 13.6494141-3.1411132 1.9677734-6.4106445 3.6982422-9.8061523 5.2050781zm2.2504883.6132812c3.3139648-1.5537109 6.5004883-3.3349609 9.5683594-5.3388672 10.7172852 2.4345703 22.1240234 3.5390625 33.1147461 4.6425781-5.9526367 7.4873047-5.581543 6.8945313-5.5683594 7.3066406-12.4482422-1.4414061-24.9697266-3.4023436-37.1147461-6.6103515zm38.6401367 6.7822266c1.9379883-2.4375 3.8764648-4.875 5.8144531-7.3115234 15.1245117 1.4404297 30.3276367 2.1035156 45.5244141 2.1611328-.0874023 2.7646484-.175293 5.5292969-.2626953 8.2939453-16.8359375-.1621094-33.8623047-1.203125-51.0761719-3.1435547zm75.6943359 5.7109375c-4.3950195 8.2773438-8.703125 17.2919922-12.8134766 26.8232422-2.3061523-.0566406-4.644043-.0332031-7.0019531-.0898438-2.8188477-8.7841797-5.8974609-17.6083984-9.1503906-26.2548828 9.6621094.1376953 19.3305664-.0146484 28.9658203-.4785156zm-3.3320312 40.4648438c-.5810547 1.5537109-1.1586914 4.3105469-2.340332 4.8271484-.1870117.0820313-22.6201172.6953125-22.9370117.4541016-.6992188-.53125-1.8261719-5.5664063-2.3203125-6.8251953-3.7998047-9.6845703-8.1948242-27.1660156-12.6381836-38.8779297 2.6157227.1220703 5.2333984.2236328 7.8525391.2998047 4.2041016 10.21875 7.7128906 20.6669922 10.5283203 31.3525391.1621094.6142578.7978516 1.1279297 1.4467773 1.1005859 3.1796875-.1308594 6.3598633-.2539063 9.5400391-.3798828 7.0317383-.2773438 4.8979492.4853516 8.8930664-8.1582031.0464935-.1006012 9.2736359-20.0346832 9.3393555-20.2851563.7172852-2.7304688.0625-2.3271484 2.9873047-2.6796875 2.2192383-.2675781 4.4384766-.5351563 6.6582031-.8027344-6.581543 13.8037109-12.0170899 26.6171875-17.0097657 39.9746094zm-19.7866211-43.0234375c.0878906-2.7666016.175293-5.5322266.2631836-8.2978516 12.2612305.0136719 24.421875-.3007813 36.8032227-1.1074219 1.4663086 2.5966797 2.9321289 5.1933594 4.3984375 7.7900391-13.760254 1.1884765-27.6210938 1.7050781-41.4648438 1.6152344zm43.1103516-1.7519532c-1.4619141-2.5888672-2.9238281-5.1787109-4.3862305-7.7675781 18.5307617-1.2783203 33.9511719-3.5634766 45.3852539-6.0214844 2.8115234 1.9755859 5.6235352 3.9521484 8.4350586 5.9287109-15.5839844 3.9082032-33.4506836 6.4189454-49.434082 7.8603516zm51.28125-8.3896484c-2.7709961-1.9472656-5.5415039-3.8945313-8.3120117-5.8417969 6.9731445-1.6005859 22.652832-5.8037109 25.1230469-12.5556641 5.3027344.1816406 10.6049805.3632813 15.9077148.5449219-1.5004883 8.1152344-18.4174805 14.1806641-32.675293 17.8984375-.0170898-.0146484-.0244141-.0322265-.043457-.0458984zm19.852539 25.3701172c-5.4501953-7.6972656-11.2875977-15.1513672-16.6835938-22.8730469 8.7875977-2.4599609 15.8666992-5.3535156 20.5888672-7.8134766 1.0883789 8.5830078 2.1762695 17.1669922 3.2641602 25.75.0009766.0097656.0048828.0175781.0058594.0263672-7.3476563 4.897461-6.9306641 4.5644532-7.175293 4.9101563zm13.4746094-.0410156c-.8549805 1.2763672-3.3930664 2.2480469-4.6967773 3.0917969-1.5463867 1.0009766-3.0932617 2.0009766-4.6396484 3.0019531-.8212891-1.2451172-1.6547852-2.4824219-2.5039063-3.7109375.2148438-.0859375-.3803711.2958984 7.4189453-4.9042969.5224609-.3466797 1.1835938-1.84375 1.1162109-2.3740234-3.5825195-28.2607422-3.2363281-26.6318359-3.7080078-27.1777344 2.0834961-1.25 3.7836914-2.515625 5.1665039-3.7880859.2226563 7.5703125.5830078 19.1113281 1.2368164 25.3935547.2612305 2.5136718 1.8833008 8.5683593.6098633 10.4677734z"/></g><path d="m61.0262184 23.1659393c-6.8369141 0-12.6435547 5.7539063-12.612793 12.6123047.0297852 6.640625 5.362793 12.2685547 12.0073242 12.5810547 7.8013115.3662148 13.5307961-6.7215233 13.2187462-12.5810547.265297-5.1809616-4.5778198-12.6123047-12.6132774-12.6123047zm-9.612793 12.6123047c0-12.4208984 18.5624962-12.3154297 19.2260704 0-.6630859 12.3066406-19.2260704 12.4208985-19.2260704 0z"/><path d="m56.3211403 32.6522675c-.0683594.0341797-.1367188.0693359-.2050781.1035156-.8613281.4365234-.1025391 1.7314453.7568359 1.2949219.0683594-.0341797.137207-.0693359.2055664-.1035156.8608399-.4375001.1025391-1.7314454-.7573242-1.2949219z"/><path d="m65.3641052 32.5731659c-.6835938-.6835938-1.7446251.3769531-1.0610352 1.0605469.034668.0341797.0688477.0683594.1030273.1025391.6835938.6835938 1.7446289-.3769531 1.0605469-1.0605469-.0341796-.0341797-.0683593-.0683594-.102539-.1025391z"/><path d="m63.7083473 37.4198456c-1.3740234 1.5742188-3.2524414 2.3242188-5.1811523 1.234375-.8413086-.4755859-1.5981445.8193359-.7568359 1.2949219 2.4853516 1.4052734 5.1811523.6142578 6.9985313-1.46875.6323242-.7236329-.4243164-1.7890625-1.0605431-1.0605469z"/><path d="m98.7801208 98.0223846c.6068878-.0244675.9376144-.3401947 1.2397461-.8115234 3.2655792-1.038765 6.7375259-5.5826645 8.1567383-8.7158203 1.9199219-4.2392578 1.9121094-9.5986328-1.2749023-12.8505859-2.7475586-2.8037109-7.6020508-3.3730469-11.1201172-1.3037109-2.7929688 1.6416016-4.5180664 4.8173828-4.5375977 7.9287109-5.0224609-.2558594-10.0053711 2.7763672-9.6850586 8.4804688.5009766 8.9179688 11.0092773 6.2275391 16.6928711 7.2675781.1884766.0351562.3632813.0292968.5283203.0048827zm-9.7314453-3.3564453c-8.2392578-1.7089844-3.5717773-10.6943359 3.1567383-9.2871094.9824219.2050781 1.8505859-.4316406 1.8989258-1.4462891.1547852-3.2587891 3.1533203-9.2607422 7.2949219-5.2480469 1.7431641 1.6894531 1.5458984 4.4433594 1.1894531 6.5898438-.6088867 3.6611328-2.7172852 6.6494141-4.6914063 9.6972656-2.9555664-.2802733-5.958496.294922-8.8486328-.305664z"/><path d="m171.2732849 99.6786346c.5198059.4005814.4048615.2328491.9814453.5664063.4708252.2737274 2.3723755-.5912094 2.9291992-.7431641 5.7941742-1.5755463 12.0597839-2.852951 17.0576172-6.8603516 5.7358398-4.6005859 9.5556641-12.15625 7.390625-19.015625-1.8666992-5.9140625-8.2983398-10.1855469-14.7338867-9.7861328-5.9633789.3710938-11.3754883 4.7207031-12.9770508 10.2060547-6.4760742-3.8964844-15.4282227-3.3242188-18.7773438 4.5966797-5.2392577 12.3925782 11.3554688 15.6669922 18.1293946 21.0361328zm-11.7661133-24.0195312c4.0166016-2.3330078 8.9399414-.8632813 12.2836914 1.8916016.7133789.5878906 1.8579102.6132813 2.355957-.3037109 1.8828125-3.46875 5.1586914-6.9140625 9.434082-6.8935547 7.2729492.0341797 7.3232422 8.5234375 4.7358398 13.2392578-3.5292969 6.4335938-9.8666992 9.6630859-15.9121094 13.2382813-4.8076172-3.2919922-11.3408203-4.5800781-15.1269531-9.0527344-3.2841795-3.8779298-2.1381835-9.5810548 2.2294923-12.1191407z"/><path d="m205.2991638 150.4647675c3.6665039-5.578125 14.0795898-11.3994141 8.3149414-19.2626953-4.2109375-5.7441406-11.4223633-3.9589844-15.4707031.6230469-2.5273438-3.3300781-7.28125-4.9931641-11.4990234-3.8466797-4.6801758 1.2714844-8.2275391 5.8691406-8.1264648 10.5322266.1171875 5.4091797 4.6650391 9.8662109 9.862793 11.7558594 4.662323 1.6941223 14.1329041 1.7086334 16.1621094.8027344.2846678-.0996095.5498045-.2910158.7563475-.6044923zm-5.7202148-15.6337891c2.3203125-3.5634766 7.2460938-6.1894531 10.9316406-2.6357422 3.1118164 3.0019531 1.2285156 6.8476563-1.1601563 9.4990234-1.9819336 2.2001953-4.2192383 3.9970703-5.9926758 6.3447266-4.3725586-.9287109-8.3881836-1.7841797-12.3959961-4.0283203-2.9287109-1.640625-6.0205078-3.5742188-4.9306641-7.5449219 1.6357422-5.9609375 7.8740234-4.2792969 11.1918945-1.3310547.744629.6611328 1.807129.538086 2.3559572-.3037109z"/><path d="m100.1131287 154.8964081c7.6209106-1.6525726 11.3383789-9.969574 9.5249023-15.5654297-1.0668716-5.0833588-7.6990051-11.000946-15.4404297-8.9316406-6.6040039 1.765625-10.7324219 8.8212891-8.9316406 15.4414063 1.7431641 6.408203 8.3457031 10.4648437 14.847168 9.055664zm6.6323242-14.7675781c2.5219727 12.0644531-15.4130859 16.9208984-18.5869141 4.9140625-3.1743164-12.0097657 14.78125-16.6445313 18.5869141-4.9140625z"/><path d="m93.5716248 139.4989471c0-.0517578 0-.1025391 0-.1542969 0-.9648438-1.5-.9667969-1.5 0v.1542969c0 .9648438 1.5.9667969 1.5 0z"/><path d="m99.9217224 139.4774628h.1542969c.9648438 0 .9667969-1.5 0-1.5-.0517578 0-.1030273 0-.1542969 0-.965332 0-.9667969 1.5 0 1.5z"/><path d="m94.9060974 146.231369c1.0888672-1.8408203 3.2402344-2.2382813 4.9819336-1.0390625.796875.5488281 1.5478516-.75.7568359-1.2949219-2.4121094-1.6611328-5.5532227-.9267578-7.0341797 1.5761719-.4926757.8330078.803711 1.5888672 1.2954102.7578125z"/><path d="m160.278656 47.09758c.2844086-5.27742-4.6737213-12.6132813-12.612793-12.6132813-6.8374023 0-12.6435547 5.7539063-12.6132813 12.6132813.0297852 6.6396484 5.3632813 12.2675781 12.0078125 12.5800781 7.8013154.3672676 13.5303193-6.7205124 13.2182618-12.5800781zm-22.2260742 0c0-12.421875 18.5629883-12.3164063 19.2260742 0-.6625977 12.3066406-19.2260742 12.4199218-19.2260742 0z"/><path d="m143.7854919 43.856369c0-.9658203-1.5-.9667969-1.5 0v.1542969c0 .9648438 1.5.9667969 1.5 0 0-.0517578 0-.1035156 0-.1542969z"/><path d="m150.1351013 43.988205c.0517578.0009766.1030273.0009766.1547852.0009766.9648438 0 .9663086-1.5 0-1.5-.0517578 0-.1030273 0-.1547852-.0009766-.9648437 0-.9667969 1.5 0 1.5z"/><path d="m143.8245544 49.9852753c-.4926758.8330078.8037109 1.5878906 1.2954102.7568359 1.0888672-1.8398438 3.2402344-2.2373047 4.9814453-1.0380859.7973633.5488281 1.5483398-.7509766.7573242-1.2949219-2.4121093-1.6611328-5.5532226-.9267578-7.0341797 1.5761719z"/><path d="m137.0574646 89.9745331c-6.8374023 0-12.6435547 5.7539063-12.612793 12.6132813.0297852 6.6396484 5.362793 12.2675781 12.0073242 12.5800781 7.8013153.3672714 13.5303192-6.7205124 13.2182617-12.5800781.2844086-5.2774201-4.6737212-12.6132813-12.6127929-12.6132813zm-9.612793 12.6132812c0-12.421875 18.5625-12.3164063 19.2255859 0-.6625976 12.3066407-19.2255859 12.4199219-19.2255859 0z"/><path d="m132.9329529 99.4227753c.0522461-.1025391.1040039-.2050781.15625-.3076172.4360352-.859375-.8579102-1.6191406-1.2954102-.7578125-.0517578.1025391-.1040039.2060547-.15625.3085938-.4355469.8583984.8579102 1.618164 1.2954102.7568359z"/><path d="m139.6595154 98.8837128c0-.0517578 0-.1035156 0-.1542969 0-.9658203-1.5-.9667969-1.5 0v.1542969c0 .9648437 1.5.9667968 1.5 0z"/><path d="m140.1541443 103.7635956c-2.3149414.3095703-4.6298828.6191406-6.9453125.9277344-.9428711.1259766-.9550781 1.6279297 0 1.5 2.3154297-.3085938 4.6303711-.6181641 6.9453125-.9277344.9428711-.1259766.9555664-1.6269531 0-1.5z"/><path d="m230.2488708 105.028244c.2784271-5.135498-4.5731049-12.6123047-12.6132813-12.6123047-6.8369141 0-12.6435547 5.7539063-12.612793 12.6123047.0297852 6.640625 5.362793 12.2675781 12.0073242 12.5800781 7.8169252.3680039 13.530182-6.7322082 13.2187501-12.5800781zm-22.2260742 0c0-12.4208984 18.5625-12.3154297 19.2260742 0-.6630859 12.3066406-19.2260742 12.4199219-19.2260742 0z"/><path d="m214.0223083 101.6659393c-.1025391.0527344-.2050781.1044922-.3076172.15625-.8613281.4375-.1025391 1.7324219.7568359 1.2958984.1025391-.0527344.2050781-.1044922.3076172-.15625.8608399-.4374999.1025391-1.7324218-.7568359-1.2958984z"/><path d="m221.0315857 102.1259003c.9648438 0 .9663086-1.5 0-1.5-.965332 0-.9667969 1.5 0 1.5z"/><path d="m221.2200623 106.5048065c-1.4692383 1.4238281-3.465332 1.9462891-5.4443359 1.4248047-.9345703-.2451172-1.3330078 1.2011719-.3989258 1.4462891 2.4936523.6572266 5.0527344-.015625 6.9038086-1.8105469.6943359-.6728516-.3666993-1.7324219-1.0605469-1.0605469z"/></g></g></svg>