<svg id="Layer_1" enable-background="new 0 0 300 300" height="512" viewBox="0 0 300 300" width="512" xmlns="http://www.w3.org/2000/svg"><g id="Soulutions"><g><path d="m30.6914864 127.2631226c5.0697517 6.9706421 12.0900803 6.3435364 17.0527344 2.7241211 12.8052025 25.9410553 40.3427925 30.7402802 50.8559608 22.878418 3.402832 7.4638672 8.2734375 13.9741211 14.1704102 19.2446289-3.6708984.203125-7.6220703 1.6767578-10.0986328 3.7416992-4.4750977 3.730957-5.5561523 9.5522461-5.7910156 15.1665039-2.0244141-1.59375-4.7270508-2.3374023-7.2207031-1.4160156-4.3071289 1.5908203-6.0917969 7.3745117-4.3632813 11.3295898 1.6982422 3.8867188 4.7167969 6.0712891 8.2763672 6.4575195 2.8676758 1.0551758 7.734375 2.2475586 10.1484375 3.2719727 4.6396484-2.0087891 6.4707031-3.3803711 10-7 8.1162109 6.4975586 17.7661057 9.7045898 28.0170822 11.0292969-4.1690216 6.3554535-.8834839 13.7489777 7.2089844 14.7900391 9.8387604 2.4689178 18.6439667-5.4454956 17.6298828-15.2485352 6.7470703-.5063477 11.1992188-3.7128906 17.644043-9.5708008 3.875 3.875 2.9736328 3.1567383 6.375 5.5 3.1625977-.6401367 8.1806641-.8862305 11.6660156-1.4580078 4.5632324.6821747 9.0391388-.6280975 11.2114258-4.7275391 3.6583405-4.7906189 3.5209808-10.9031525.3012695-15.2597656-1.8300781-2.4760742-5.6479492-3.2387695-8.359375-1.6381836-.7939453-3.546875-1.7441406-7.0932617-3.0097656-10.5014648 2.1464844.0205078 4.3193359-.1401367 6.5058594-.4311523 6.0610352-.8061523 11.9589844-2.1235352 17.9067383-2.684082 10.9731445.0620117 22.3076172 4.2875977 29.5698395 12.2001953 2.7905273 3.0405273 4.9956055 7.8334961 4.9482422 11.9599609-.0458984 3.9594727-2.2954102 7.3662109-5.2895508 10.0996094-1.0756989-.7080078-3.0522614-1.5957031-5.4209137-1.9536133-23.4376831-3.5430908-43.4682922 13.6345978-35.3984375 27.0268555-9.2822266 5.4707031-20.496582 6.9248047-30.6542969 10.3647461-8.8442383 2.9946289-21.5712891 9.2568359-21.9453125 20.1396484-.4487305 13.0615234 18.2788086 13.9921875 27.2724609 13.1318359 13.7290955-1.313385 28.0920715-7.9897766 42.3008881-10.7685852 10.6481018-2.0824585 21.2096252-1.9760132 31.3529358 4.2168274 4.6347656 2.8300781 10.3183594 5.6923828 14.7675781.9291992 1.3173828-1.409668-.7998047-3.5356445-2.1210938-2.1210938-4.3364258 4.6420898-9.9580078-.965332-13.9599609-3.0615234-9.3450928-4.8963928-20.4707947-4.8839722-30.7832184-2.8598633-12.1442261 2.3836365-49.7800903 18.4770203-61.1367188 5.4746094-4.9859772-5.707489-1.9725952-17.1395721 18.3515625-23.2368164 9.6591797-2.8964844 19.7719727-4.7290039 28.4023438-9.8642578 6.1473236 5.9855499 14.6378021 6.5500488 22.578125 3.3789063 10.7631836-4.2983398 19.6518707-13.4199219 19.0478668-28.2905273.7070313-.4960938 1.4213867-.9736328 1.8813477-1.421875 1.2705078-1.2382813 2.4443359-2.6430664 3.3720703-4.1640625 1.9619141-3.2167969 2.7905273-6.9345703 2.324707-10.6767578-1.0131836-8.1293945-7.2578125-14.8222656-14.1323395-18.7260742-8.3466797-4.7392578-18.2265625-5.8330078-27.6425781-4.7368164-7.6630859.8925781-15.6293945 3.3774414-23.3369141 3.0483398-.7324219-1.6499023-1.5566406-3.2543945-2.4902344-4.7978516.9458008-1.2875977 1.7700195-2.5634766 2.3242188-3.5351563 3.3647461-5.9047852 5.9692383-12.2397461 7.7402344-18.8012695 2.1811523.6308594 6.7446289 1.3876953 8.699707 1.112793 17.9365234-2.5239258 30.9819336-15.6865234 36.0219727-33.0849609 2.0170898.9833984 4.1298981 1.1889648 6.5415192 1.2763672 5.0852356.1849365 7.8928528-3.0947723 9.7675781-6.953125 2.3935547-4.9287109 4.8803711-10.1992188 6.8461914-15.3134766-1.9311523-2.5297852-3.5249023-5.3105469-4.7758789-8.2373047.0722656-.1694336.1445313-.3388672.2167969-.5078125.7480469-1.7563477-1.8354492-3.2866211-2.5908203-1.5141602-2.5756836 6.0454102-5.1513672 12.0908203-7.7275391 18.1362305-.4262695-.7460938-.8666992-1.4282227-1.2319336-1.9858398-2.6767578-4.0849609-6.0200348-7.84375-9.3525543-11.3945313-3.8828125-4.1362305-9.5195313-11.2705078-15.7070313-13.784668 31.3232574-34.0488205 37.9400482-39.7495003 42.9008942-48.5800781.9462891-1.6850586-1.644043-3.1992188-2.5908203-1.5141602-5.1036682 9.0849438-11.7846375 14.5455456-43.5830231 49.21875-.0117188.0126953-.0185547.0263672-.0297852.0390625-5.4387512-.5576019-5.1589355 3.4167328-2.3813477 8.0405273-21.1734467-5.061554-31.5786285-1.8098221-44.4672852 4.6499023-11.0454102-8.4575195-24.8720703-12.8896484-39.2973633-11.7114258-13.7910156 1.1264648-26.4072189 7.2861328-35.8779221 16.8139648.0571289-.644043-.2470703-1.3154297-1.0439453-1.5512695-8.0288086-2.3789063-15.8173828-3.8217773-24.1367188-2.2954102-6.6694336 1.2241211-13.284668 3.2529297-19.5644531 5.9604492 1.4472656-3.5273438 2.0458984-7.5009766-1.8427773-7.8432617-.7167969-.0629883-1.4282227.0068359-2.1323242.1801758-11.416992-14.1601562-25.2412108-26.2792968-36.620117-40.4716796-1.2080078-1.5063477-3.3183594.628418-2.121582 2.1210938 11.1474609 13.9038086 24.6376953 25.8208008 35.9165039 39.612793-5.2729492 3.355957-9.8354492 11.6069336-12.3134766 15.3032227-3.1866989 4.7528305-6.9755745 10.8863068-8.9755859 16.3710938-3.5454102-5.4199219-7.0913086-10.8393555-10.637207-16.2587891-1.0527344-1.609375-3.6513672-.1079102-2.590332 1.5141602.1508789.2304688.3012695.4604492.4521484.690918-.7172852 3.0961914-1.7963867 6.1088867-3.2514648 8.9350586 2.8339842 4.6894529 6.2075194 9.4409177 9.4296874 13.8725584zm213.2363243 92.2612304c-.9785156-3.2675781-2.7514648-6.1923828-5.3867188-8.3789063-2.0610352-1.7099609-3.7114258-2.3662109-5.7216797-2.4907227 6.2495117-2.4038086 14.3134766-2.890625 18.6694336 2.4584961-.0039063.0024414-.0073242.0048828-.0112305.0073242.0048828-.0009766.0097656-.0024414.0146484-.003418 6.0945587 7.4923248-.1983032 17.4219055-8.2695313 21.6801758 2.4512331-3.3719939 1.9016878-9.2752379.7050783-13.2729491zm-15.1547852-9.203125c.0805664.0253906.1694336.0366211.2685547.0249023 6.7607422-.7871094 11.5224609 3.0517578 13.4394531 9.5766602 1.8989258 6.4628906 1.1445313 12.390625-5.340332 15.3603516-5.7890625 2.5571289-13.8540039 3.5810547-18.7324219-.9682617.7348633-.4760742 1.4599609-.9750977 2.1699219-1.5073242 2.2203979 3.2539673 3.1115112 1.7612 4.9624023.5336914 3.4871063-2.310791 3.4307709-2.2141418 3.6230469-2.5180664.125-.1953125.1489258-.4418945-.0444336-.6958008-1.5349121-2.016861-4.3973846-5.7882538-4.5864258-6.0297852-.3456116-.4443665-.754715-.4207306-1.159668-.1494141-.6558685.4394379-2.2444763 1.5956116-2.9194336 2.0742188-1.9059753 1.3510742-4.0657196 1.8234863-1.6953125 4.4121094-.7290039.5537109-1.4707031 1.0810547-2.2304688 1.5712891-5.4972228-8.9526215 3.1644746-18.5003663 12.2451173-21.6845704zm-140.9926681-14.1342773c.9448242-4.0673828 7.0146484-5.5336914 8.8818359-.8735352.9850464 2.4626312 3.1720123 1.7214813 3.1606445.1621094-.0410156-5.5786133-.1870117-12.3725586 4.0595703-16.6523438 2.7802734-2.8017578 8.6938477-4.5683594 12.4902344-3.3374023.2265625.0732422.4360352.0927734.6279297.0712891 8.1850586 6.043457 17.8974533 9.9082031 28.1684494 10.9858398-6.5644684 7.7582703-6.7963562 15.2570496-3.777832 20.4541016-9.4165039-1.9868164-18.325676-6.6103516-25.0136642-13.5654297-.2123947-.2211456-1.1214371-.8774567-1.8896484-.7553711-4.6816406.7412109-7.2460938 4.6210938-10.4926758 7.6303711-2.9438477 2.7275391-8.4589844 5.7597656-12.5288086 3.456543-2.4975587-1.413086-4.3559571-4.6899414-3.6860352-7.5761719zm60.6948166-8.8569336c.0229492-.0244141.0366211-.0498047.0571289-.0742188 12.4287109-3.5058594 14.6201172 21.3935547 3.5380859 22.6240234-5.5981445.621582-9.309082-4.3579102-9.5566406-9.5292969-.2431641-5.083496 2.6206054-9.4794921 5.9614258-13.0205077zm-.4575196 25.5214844c3.1625366.1118927 7.2021332-.1839142 8.9946289 2.3632813 2.1064453 2.9951172 1.9887695 8.137207-1.2924805 10.144043-3.4614258 2.1162109-8.9882813 1.6953125-11.6030273-1.5644531-3.1513672-3.9282228.2709961-8.841797 3.9008789-10.9428712zm35.3696289-36.1694336c.1287689-.0166626 8.8247375-5.3397522 12.9838867 4.1293945 2.2939453 5.2241211 2.9262695 11.3222656 3.1791992 16.956543.0141602.3149414.1118164.5732422.2563477.7856445-.128418 1.9418945-.0043945 4.621582.6293945 6.5673828-.1831055-.065918-.3671875-.1298828-.5444336-.203125-5.8935547-2.4291992-8.7768555-8.8261719-11.9931641-13.9638672-.7724609-1.2333984-2.440918-.6757813-2.7685547.378418-3.3212891 5.1132813-6.9521484 9.4794922-12.5585938 12.2270508-3.9111328 1.9169922-8.1806641 3.262207-12.4487305 4.359375 3.7861328-6.2592773 2.434082-16.6210938-2.7993164-21.4213867.5976563-.0668945 1.1953125-.1333008 1.7939453-.2197266 8.7963869-1.2700195 17.0932619-4.6425781 24.2700197-9.5957031zm53.9116211-90.0166016c1.8295898.6293945 2.6152344-2.2675781.7978516-2.8930664-1.2080078-.4155273-2.4335938-.8037109-3.6708984-1.1704102-1.2490234-1.1064453-4.0014648-3.7485352-3.4013672-5.2011719 1.0283203-2.4887695 5.6650391 1.1069336 6.7114258 1.9262695 5.8587646 4.5875015 16.4917908 15.6233749 20.4790192 21.9726563 1.2304688 1.9589844 3.3139648 5.3041992-.3803711 4.6064453-1.7910156-.3383789-4.5879059-2.1787109-5.812027-3.3959961-.0019531-.0024414-.0043945-.003418-.0063477-.0053711.2822266-1.203125.5195313-2.4130859.6958008-3.6298828.2734375-1.8881836-2.6166992-2.7036133-2.8925781-.7973633-1.7290039 11.9331055-8.894043 22.8549805-17.7651367 30.8334961-4.1069336 3.6933594-8.7421875 6.4248047-13.6586914 8.8701172-2.7426758 1.3637695-17.9970703 7.0957031-12.3510742-2.0258789.0605469-.0976563.1064453-.1953125.1425781-.2915039 1.5712891-.9970703 3.0600586-2.0966797 4.4360352-3.0766602 1.559082-1.1108398.0625-3.7138672-1.5141602-2.590332-2.0068359 1.4296875-4.0395508 2.9077148-6.2299805 4.0517578-2.7998047 1.4628906-11.0112305 3.121582-9.6552734-2.5249023 3.8886719-1.4272461 7.7675781-4.8300781 10.8686523-6.6728516 1.6582031-.9858398.1508789-3.5800781-1.5141602-2.590332-6.8466339 4.0684891-7.7992859 4.9020157-9.5039063 5.8334961-2.9697266 1.621582-8.1455078.9404297-7.2182617-3.7001953.0615234-.3076172.0297852-.5825195-.0576172-.8256836 3.6674805-.9248047 7.1396484-3.1240234 10.0258789-5.2607422 1.534668-1.1357422.0405273-3.7407227-1.5141602-2.590332-3.128418 2.315918-6.4018555 4.4262695-10.3330078 5.074707-1.8125.2993164-4.3081055.8398438-4.8374023-1.6376953-.4521484-2.1181641 3.5795898-4.8496094 4.9145508-5.7954102 15.9544373-11.2996979 25.0072021-13.5504456 23.0541992-18.3110352-2.0063477-4.890625-9.7758789-2.0786133-13.1572266-.7197266-1.8955078-2.1650391-3.9296875-4.184082-6.090332-6.0371094 12.417984-6.0901335 25.5469666-9.6456755 49.4379883-1.4252928zm-38.6523437 13.5615234c-.8642578-1.2827148-1.7675781-2.5307617-2.7182617-3.7338867 3.1348877-1.41008 5.5266724-2.19664 7.8520508.2128906-2.0292054 1.5234376-2.4470673 1.9039078-5.1337891 3.5209961zm-52.6455078-22.9189453c20.0419922-1.699707 38.9335938 7.9663086 50.0620117 24.4443359-9.1960602 5.3290024-15.7484741 9.0268707-18.6171875 13.550293-2.9466553 4.6470718-1.2650909 8.6218872 5.1118164 8.5107422-.4951172 2.1660156-.2661133 5.2973633.7709961 6.8164063 1.2480469 1.8271484 4.9345703 3.9316406 7.1420898 3.7719727.4356537 6.1445618 6.7715302 10.453476 12.8842773 7.9960938 1.6174164 1.725235-10.0611267 35.89151-44.644043 40.9091797-24.6943359 3.5834961-48.2646408-10.3994141-58.0302658-33.0844727.1463013-.3710632.7637024-.6746063 1.3105469-1.515625 6.4413834 1.3378448 11.922493-4.0074921 11.2719727-10.1367188 2.2006836-.230957 5.4604492-2.949707 6.3681641-4.9677734.7612305-1.6928711.5957031-4.8203125-.2338867-6.8515625 6.0162354-1.0616913 6.9517975-5.0316162 3.5620117-9.0263672-3.5966797-4.2387695-11.1083984-6.4501953-16.2001953-8.4833984-1.5756836-.6289063-3.1298828-1.2944336-4.6762695-1.9741211 8.5913085-16.7172852 24.9765624-28.3530274 43.9179611-29.9589845zm-50.6747971 26.8896485c-2.0004883-.9287109-3.1152344-.9614258.0073242-2.0356445 2.1523438-.7402344 4.0688477-.3320313 6.0424805.1972656-.7182617 1.1992188-1.3925781 2.4296875-2.027832 3.6860352-1.3417969-.6098634-2.6816407-1.225586-4.0219727-1.8476563zm-54.607914 13.8276367c1.8105469-4.5302734 4.5146484-8.8339844 7.1689453-12.9101563 1.9508858-2.9960632 11.4255753-17.7184372 14.7451172-16.1347656 1.6713905.796875-.2050781 4.2827148-1.4609375 6.190918-1.2832031.6337891-2.5532227 1.2880859-3.7973633 1.9804688-1.6870117.9394531-.1757813 3.53125 1.5141602 2.5908203 7.150486-3.9819183 15.9976387-7.3642502 25.7021523-9.347168 12.2260056-2.4977112 22.5506439 2.1793213 24.1850586 2.1279297-2.081543 2.2373047-3.9946289 4.644043-5.7177734 7.2016602-3.8564453-.9208984-9.9716797-2.0673828-12.5058594 1.7402344-2.4077148 3.6166992 2.5693359 5.0039063 5.0258789 6.1884766 9.1038666 4.3895111 21.0085449 8.6690445 23.71875 10.8178711 2.6967773 2.1376953 2.3295898 4.9580078-1.0380859 5.3276367-4.1352539.4536133-8.2451172-1.2426758-11.8530273-3.0327148-1.7236328-.855957-3.2451172 1.730957-1.5136719 2.590332 3.2236328 1.5996094 7.0898438 3.2285156 10.9155273 3.5415039-.0014648.1743164.0297852.3618164.112793.5639648.9311523 2.2602539-.0341797 4.800293-2.5952148 5.5732422-2.4191284.7307892-4.0970688-.7015839-14.2675781-4.5268555-1.809082-.6801758-2.5908203 2.21875-.7973633 2.8930664 5.8689575 2.2067413 9.6196594 3.9342651 11.6845703 4.4663086 2.6679688 5.5009766-5.9794922 5.2583008-8.5332031 4.4794922-2.4072876-.734375-4.8065414-1.8533325-7.0664063-2.9243164-1.7353516-.8222656-3.2597656 1.7636719-1.5136719 2.590332.6928711.3286133 1.4106445.6757813 2.1435547 1.0234375.0004883 0 .0009766 0 .0009766.0004883.987793.4677734 2.0068359.934082 3.0478516 1.3569336.0595703.112793.1313477.2246094.2270508.331543 3.4814453 3.8842773-.3891602 5.8979492-3.956543 5.7480469-15.9825439-.6719666-39.1670074-15.0960541-45.7446327-34.9912109-.6030273-1.8242188-3.5014648-1.0429688-2.8925781.7973633.4140625 1.2539063.9086914 2.4824219 1.4375 3.6982422-4.2963068 5.2664411-9.1586306 7.0125273-6.3759768.0468748z"/><path d="m142.761795 104.1845093c.1962891 1.293457.4990234 2.5698242.9179688 3.809082 1.809082 1.3276367 3.4350586 2.7446289 5.2441406 4.0727539-.5678711 2.7954102-1.1938477 5.7246094-1.7617188 8.5200195.2617188.6889648.8217773 1.3452148 1.3300781 1.9433594-.0727539.5136719.4404297 1.0766602 1.0234375.8208008 1.0449219-.1274414 2.3515625-.2216797 3.3540039-.347168.7460938-.09375 4.253418-2.2612305 6.1855469-3.5083008 2.2631836 1.6508789 4.847168 3.0004883 7.4731445 3.9760742.6884766-.1264648 1.4296875-.25 2.1435547-.375.5321503.2978287 1.3369293-.2421799 1.1152344-.9160156-.7426758-3.4936523-1.4853516-6.9873047-2.2280273-10.480957 6.6235199-7.0319214 8.2758026-6.8921432 8.0390625-7.8134766-.0048828-.2836914-.1635742-.5439453-.5371094-.6044922-3.4736328-.5683594-6.9399414-1.1796875-10.4130859-1.75-1.5932617-3.1508789-3.1870117-6.3017578-4.7807617-9.4526367-.2716675-.5378647-.938324-.4392395-1.1914063-.0874023-.3181152.4441681-2.2476349 4.7787704-4.9467773 9.5-8.0864868.8883591-10.4343872 1.1409988-10.6953125 1.1855469-.5791016.0219727-1.0771484.7548828-.5356445 1.2617188.0878906.0820312.1757812.1640624.2636718.2460937zm23.4160157 6.7871094c-.2456055.2636719-.2509766.5766602-.1279297.8291016.6591797 3.1015625 1.3183594 6.203125 1.9775391 9.3046875-2.8925781-1.4321289-5.7045898-3.0146484-8.4755859-4.6713867-.2436676-.231842-.6058655-.2383652-.8525391-.0996094-2.8007813 1.6176758-5.6010742 3.2348633-8.4018555 4.8525391.590332-3.1977539 1.1801758-6.3955078 1.7705078-9.5932617.0444183-.241066.2385101-.5323715-.1376953-.8847656-2.3979492-2.2431641-4.7963867-4.4868164-7.1943359-6.7299805 3.1108398-.3417969 6.2216797-.6831055 9.3325195-1.0249023.2744141.0571289.5727539-.0302734.7558594-.3461914 1.5913086-2.7529297 3.0180664-5.5908203 4.4204102-8.4423828 4.643158 9.1817551 4.2936554 8.7619781 4.8120117 8.7797852 3.0068359.4921875 6.0092773 1.0131836 9.0146484 1.5146484-2.4438477 2.0112303-4.7338868 4.1938475-6.8935547 6.5117186z"/><path d="m106.0537949 76.4442749c-4.6513672-8.3710938-10.1025391-16.1831055-16.3237305-23.4609375-1.2563477-1.4697266-3.3696289.6606445-2.1210938 2.1210938 6.059082 7.0888672 11.3261719 14.7041016 15.8544922 22.8540039.9379883 1.6879882 3.5297852.1762695 2.5903321-1.5141602z"/><path d="m128.4375763 61.4970093c-1.3281174-4.7910156-2.6562424-9.581543-3.9843674-14.3725586-.5151367-1.8579102-3.4106445-1.0688477-2.8930664.7973633 1.328125 4.7910156 2.65625 9.5820313 3.984375 14.3730469.5151367 1.8579101 3.4101486 1.0688476 2.8930588-.7978516z"/><path d="m148.83992 25.6913433c-.996582 12.7382832-1.1103516 25.4882832-.3413086 38.2426758.1157227 1.918457 3.1166992 1.9316406 3 0-.769043-12.7543945-.6552734-25.5043945.3413086-38.2426758.150879-1.925293-2.8500976-1.9155273-3 0z"/><path d="m169.7710724 62.6234741c2.8095703-4.4624023 5.6186523-8.9243164 8.4282227-13.3862305 1.03125-1.6386719-1.5634766-3.1459961-2.5908203-1.5141602-2.809082 4.4619141-5.6181641 8.9243164-8.4277344 13.3862305-1.0317383 1.6386719 1.5634765 3.1455079 2.590332 1.5141602z"/><path d="m185.065506 70.4867554c4.4418945-4.8110352 8.8837891-9.6220703 13.3256836-14.4331055 1.3081055-1.4169922-.8081055-3.543457-2.121582-2.1210938-4.4418945 4.8110352-8.8837891 9.6220703-13.3256836 14.4331055-1.3081055 1.4165039.8081054 3.5434571 2.121582 2.1210938z"/></g></g></svg>