<svg id="Layer_1" enable-background="new 0 0 300 300" height="512" viewBox="0 0 300 300" width="512" xmlns="http://www.w3.org/2000/svg"><g id="Strategic_Planning"><g><path d="m21.9280987 142.1843262.0761719.1171875c.0652409.1005096 75.5089798 114.0117798 79.7548828 120.2216797 26.5414429-20.0908356 51.3417511-38.5878601 83.2060547-66.1337891l.1328125-.1806641c1.2441406-2.9023438 2.7836914-6.9785156 3.1308594-10.0410156.6147461-.4248047.934082-1.234375.4697266-1.9619141-.3432617-.5380859-.6889648-1.0751953-1.0322266-1.6142578 4.4775391 1.1650391 9.0512695 1.8330078 13.6362305 2.0253906-1.3168945.5537109-2.074707 1.1806641-2.074707 1.8886719 0 7.2143402 79.1171875 7.2079773 79.1171875 0 0-3.9873047-23.6572266-5.4345703-39.5585938-5.4345703-4.2963867 0-9.1586914.1064453-13.9677734.3398438 6.5947266-2.1181641 12.8886719-5.2392578 18.5917969-9.3125.5555267-.3970947.9914093-1.6134796.9760742-2.0380859-.043457-1.2333984-.0874023-2.4667969-.1313477-3.7001953-.0683594-1.9248047-3.0688477-1.9345703-3 0 .0415039 1.1679688.0830078 2.3369141.1245117 3.5058594-16.2944336 11.4003906-37.2114258 14.9091797-56.1694336 8.8876953-.6088867-.953125-1.2197266-1.90625-1.8291016-2.859375 9.7870789 1.297699 46.1642151.4258881 60.7382813-14.0712891.4638672-.2099609.8256836-.6376953.8447266-1.2929688 1.4419708-50.5375443 6.9620361-83.5764236 6.8510742-84.9863205.3920898-.1738281.7875977-.3417969 1.1777344-.5185547 1.7563477-.7949219.2329102-3.3808594-1.5141602-2.5898438-31.2651367 14.1513672-68.5620117 19.0566406-99.4282227 1.3515625.2021484-2.6269531.2763672-5.2617188.4052734-7.8925781 14.1982727 13.5680008 85.6402893 12.6760635 98.8920898-2.4873047.3701172 2.0996094.7041016 4.2050781 1.2041016 6.2802734.4521484 1.8759766 3.3457031 1.0810547 2.8930664-.7978516-.830246-3.4447021-1.6312408-9.5497704-2.1113281-10.4765625-.144043-2.0107422-1.4589844-4.0947266-4.4116211-6.1015625-.0795898-1.21875-.1464844-2.4394531-.1879883-3.6621094 1.753418-5.4296875-11.699707-7.8671875-14.6132813-8.4091797-29.8378143-5.5475845-53.6378479-.9838982-55.4912109-1.2363281-1.7763672-.2412109-3.8666992-.6650391-5.6362305-.5488281-1.1880188.0783043-1.7080994.6615105-2.2294922 1.5498047-.2641602-.1123047-.5751953-.1494141-.9243164-.0703125-3.6274414.8164063-11.3105469 2.3564453-12.4291992 6.9179688-.1661377.676712-.0317383.7720642-.5576172 6.2119141-3.2075195 1.8056641-7.0126953 4.5732422-6.6826172 8.4189453-.2670898.2382813-.4604492.5751953-.4980469 1.0175781-.3344727 3.9414063-.3242188 7.9033203-.6586914 11.8447266-.0520172.6113892.3409271 1.3576279.8662109 1.6650391 1.8603516 1.0888672 3.7451172 2.0908203 5.6479492 3.0224609 3.0142517 25.1844254 5.46138 43.1212387 10.0180664 69.0234299-15.1313477-23.556633-30.300293-47.0908127-45.3666992-70.6904221-.4599609-.7197266-1.2988281-.9072266-2.0527344-.5380859-11.043457 5.4160156-22.1030273 10.7988281-33.1674805 16.171875-3.6713867-.9931641-7.3706055-2.1630859-11.090332-2.9492188.9386597-17.5523605-14.8332443-23.664772-24.1914063-14.6337891-4.1445313 3.9990234-5.2890625 10.1865234-3.2719727 15.5263672.8979492 2.3769531 2.1254883 3.9765625 3.6547852 5.1845703-.8064842.9721069-.9826889 2.5818634-1.2460938 3.5341797-1.2353516 4.5039063-2.8271484 8.9375-4.7099609 13.2070313-7.2314453 3.5214844-14.4638691 7.0400391-21.6875019 10.5791016-.6293945.3085938-.8261719.8457031-.7436523 1.3652344.2897398 19.7088241.2519743 17.1398696.2553732 17.3710861zm220.9799824-3.8759766c-10.5444336 4.8007813-21.8452148 7.5507813-33.2592773 8.234375 15.9011536-6.9232941 16.6797791-27.9325714 2.1391602-34.7968674 11.7753906-1.2773438 23.3393555-4.7001953 34.0263672-10.2548828-1.2426759 12.2490235-2.2192384 24.5234375-2.9062501 36.8173752zm-40.7138672-24.9667892c.3735352-.0048828.6723633-.1230469.9018555-.3076172 8.5976563-.4257813 16.1503906 6.15625 16.0722656 15.0195236-.0786133 8.8828125-6.8203125 15.8144531-15.4370117 17.1015625-9.5185547 1.4208984-16.6328125-4.5478516-16.8842773-14.1494141-.2460939-9.3652267 5.4067382-17.5312423 15.3471679-17.6640548zm43.9799804-15.4326172c-26.0117188 14.2695313-57.9814453 15.2744141-84.8105469 2.5742188-.0541992-.0253906-.1074219-.0380859-.1611328-.0576172-.6054688-4.6005859-1.1914063-9.2041016-1.7563477-13.8105469 22.0606995 12.4486923 65.67099.1493225 89.2299805-9.7177734-.9248046 6.9941406-1.7592773 13.9990234-2.5019531 21.0117187zm-78.0112304-50.7382813c-.2524414.8525391-.5151367 1.6855469-.8168945 2.4707031-.1782227.4638672.2753906.9492188.7236328.9492188 2.4633484 0 6.6941376 1.0395851 7.4350586.8779297 2.1455078-.4863281 4.2612305-1.1035156 6.3681641-1.7373047 3.2773438 1.7363281 6.6069336 3.34375 9.996582 4.8300781-7.5409088-.4121323-15.1429749-1.0149078-22.5947266-2.7695313-.8813477-.2080078-2.7631836-.5849609-4.5683594-1.1650391-.1088867-1.8535155 1.8110352-2.8515624 3.456543-3.4560546zm13.1049804 1.0644532c-.4892578.3585396-4.3774109 1.3497887-4.7802734 1.4511719.6428223-1.8659706.2930756-1.5562515 2.3623047-7.1083984.8066406 1.8847655 1.6137695 3.7705077 2.4179687 5.6572265zm36.9560547 6.2568359c-.003479-.003109-15.9903259-5.5360565-21.9458008-7.734375-2.9428711-1.0859375-4.9794922-2.6484375-7.9555664-1.6826172-1.9760742.6416016-3.8676758 1.5449219-5.7314453 2.4677734-.3251953-.7626953-.6513672-1.5244141-.9775391-2.2871094 9.8251953-1.3349609 19.7216797-1.609375 29.6196289-1.0800781 4.1967773.2236328 28.847168 1.0087891 29.9155273 6.4658203-2.4352568.9059792-11.5968016 3.0192757-22.9248046 3.850586zm7.6992188-12.4580078c5.4248047.6416016 11.2998047 1.3398438 16.3974609 3.4482422 3.3935547 1.4033203 4.1230469 2.5683594.2646484 4.5419922-2.9760742-9.6777344-54.0585938-7.1259766-61.5791016-6.1894531-.2792969-.6513672-.5571289-1.3037109-.8359375-1.9550781 15.0581056-1.7246095 30.7158204-1.6259767 45.7529298.1542968zm-51.7402344-1.9238281c1.1572266-.0712891 2.5576172.1337891 3.7392578.296875.0258789.0615234.0522461.1220703.078125.1835938-3.2060089 8.3017616-2.8294067 9.149868-3.300293 9.5566406.098999-.0879974-4.6907196-.8743362-5.5952148-.9824219 1.549881-4.226368 2.1329803-6.4525032 2.6879883-7.6417503.5380401-1.1528703 1.0496826-1.3313104 2.3901367-1.4129372zm-4.7841797 2.9794921c-.2617188.7617188-.4985352 1.5400391-.7250977 2.3222656-2.3608398.7666016-5.1518555 2.1005859-5.4316406 4.6816406-1.6293945-.6767578-2.90625-1.5546875-2.8413086-2.6699219.1362305-2.3339843 6.0786133-3.7167968 8.9980469-4.3339843zm-12.8969726 13.6699219c-.1240234 1.3378906-.2397461 2.6767578-.3203125 4.0185547-.0986328 1.6464844 2.0688477 1.8769531 2.7783203.7148438 28.0190582 7.5210648 59.1633301 3.5362778 82.8769531-7.7353516 1.4824219-.4658203 2.8867188-1.0527344 4.0615234-1.8154297.2237244 3.4698982.3444977 4.9247704.4331055 6.9853516.0825195 1.9228516 3.0830078 1.9335938 3 0-.0356445-.828125-.0844727-1.6552734-.1367188-2.4814453 14.2826843 16.0135498-91.1975403 23.0394669-95.8330078 5.6230469-.6015625-2.2626954 1.1914063-4.0185548 3.1401368-5.3095704zm5.165039 47.140625c10.4331055 4.6738281 21.5444336 7.3945313 32.7651367 8.1777344-13.2442627 6.2558594-14.0303955 26.8578415-2.6401367 33.8456955-8.4663086-1.0996094-16.8061523-3.3466797-24.7514648-6.7558594-2.2921143-13.5927505-3.7746582-23.4060898-5.3735352-35.2675705zm6.928711 46.0312424c.1015015.0746613 39.2714539 6.8238983 74.1386719-8.2753906-.3115234 6.0136719-.5629883 12.0302734-.7412109 18.0517578-10.9836884 10.8857574-43.7825775 18.1550751-63.7788086 8.1103516-3.0087891-4.6992188-6.0141602-9.4003906-9.0283203-14.0957031-.2783204-.7705079-.4580079-2.3027345-.5903321-3.7910157zm16.7133789 34.5390625c-9.127533 6.9176636-23.6772308 20.3283081-81.5458984 62.2617188-5.4318848-8.3961029-58.9794922-91.1650391-78.347168-121.4179611 9.158205-4.484375 18.3256855-8.9511719 27.4951191-13.4130859-1.5823441 6.1424179-4.2159615 11.0152664-2.3745117 12.9492188.4038086.4238281 1.0136719.5009766 1.5463867.3291016 1.0981445.8398438 2.7602539 1.3525391 3.8530273 2.1962891 13.4140625-7.0615234 28.0078125-15.1298828 41.4213867-22.1914063.3134766-1.4609375.8833008-2.8876953 1.6748047-4.2275391.7294922-.3857422 1.4643555-.7607422 2.1928711-1.1484375 1.706543-.9082031.1943359-3.4882813-1.5136719-2.5908203-.3867111.2035294-2.7783203-1.0770493-10.3178711-3.0517578 9.6552734-4.6904297 19.3071289-9.3886719 28.9458008-14.1132813 22.1196728 34.637596 45.0957165 70.1248549 66.9697247 104.417961zm-135.90625-103.4550705c2.0263672-4.5654297 6.9746094-7.3076172 11.9296875-6.6484375 12.06987 1.6077957 9.5065918 16.062645 9.472168 16.8916016-.0249023.6083984.4799805 1.3291016 1.1015625 1.4462891 5.6772385 1.0656738 6.9567337 1.805542 24.3071289 6.3457031-14.1538086 7.4580078-28.4682617 14.6044922-42.6420898 22.0234375.2649956-.8140488 5.8864899-21.7499847 5.8583984-22.8261719-.0185547-.7080078-.4614258-1.2119141-1.1010742-1.4462891-1.9667969-.71875-5.0849609-1.6972656-6.6411133-2.9257813-3.5820313-2.8291015-3.9829102-9.0332031-2.284668-12.8603515z"/><path d="m58.9373779 89.2448807c2.7260742-.1513672 5.0654297-2.5849609 5.0947266-5.3203125.079216-7.375679-11.5137596-6.5566559-10.7006836.5595703.3105469 2.7109375 2.8710937 4.9130859 5.605957 4.7607422zm-.4135742-7.4238281c.3198242.0107422.581543-.0673828.7954102-.1982422 2.2338867.7011719 2.2119141 4.2441406-.3740234 4.6064453-2.9750977.4169922-3.6860352-4.5205078-.4213868-4.4082031z"/><path d="m85.2298584 148.0651855c6.6953125-5.046875 13.7592773-9.4394531 21.2470703-13.2119141.6914063-.3486328.9707031-1.4101563.5380859-2.0517578-3.3125-4.9121017-6.6254883-9.8242111-9.9384766-14.7363205-.4458008-.6611328-1.3237305-.984375-2.0522461-.5380859-6.7983398 4.1601563-13.597168 8.3212891-20.3955078 12.4814377-.7446289.4560547-.8393555 1.2363281-.5708008 1.8613281-1.0444336.0244141-2.0166016 1.5107422-1.128418 2.6396484 3.4941406 4.4404297 6.9882813 8.8808594 10.4829102 13.3212891.3676759.4667969 1.3364259.5966797 1.8173829.234375zm10.112793-27.2158126c2.7319336 4.0507813 5.4638672 8.1005783 8.1953125 12.1513596-6.5786133 3.4091797-12.8291016 7.3046875-18.7880859 11.7119141-3.1196289-3.9638672-6.2392578-7.9277344-9.3588867-11.8916016.6004943-.0048829-.6707765.6500701 19.9516601-11.9716721z"/><path d="m114.4700928 184.9851074c-3.3129883-4.9121094-6.6259766-9.8242188-9.9384766-14.7363281-.4462891-.6611328-1.3242188-.9833984-2.0527344-.5380859-6.7983398 4.1611328-13.5966797 8.3212891-20.3950195 12.4824219-.7451172.4550781-.8398438 1.2353516-.5708008 1.8613281-1.0444336.0234375-2.0170898 1.5107422-1.128418 2.6396484 3.4941406 4.4394531 6.9882813 8.8798828 10.4824219 13.3203125.3676758.4677734 1.3369141.5966797 1.8178711.234375 6.6948242-5.046875 13.7587891-9.4384766 21.2470703-13.2119141.6914063-.3476562.9707032-1.4101562.538086-2.0517578zm-31.6240235.0195313c.2397461-.0009766.4931641-.0634766.7519531-.2216797 6.3994141-3.9160156 12.7998047-7.8330078 19.1992188-11.75 2.7319336 4.0507813 5.4638672 8.1015625 8.1958008 12.1513672-6.5786133 3.4091797-12.8295898 7.3056641-18.7885742 11.7128906-3.1191407-3.9638672-6.2392578-7.9287109-9.3583985-11.8925781z"/><path d="m121.8719482 158.8620605c-1.0444336.0234375-2.0170898 1.5107422-1.128418 2.6396484 3.4941406 4.4404297 6.9882813 8.8798828 10.4824219 13.3203125.3681641.4677734 1.3369141.5966797 1.8178711.234375 6.6953125-5.046875 13.7587891-9.4384766 21.2470703-13.2109375.6914063-.3486328.9707031-1.4111328.5380859-2.0527344-3.3129883-4.9121094-6.6259766-9.8242188-9.9384766-14.7363281-.4458008-.6601563-1.3237305-.9833984-2.0522461-.5380859-6.7988281 4.1611328-13.597168 8.3212891-20.3955078 12.4824219-.7451171.4560547-.8398436 1.2353516-.5708007 1.8613281zm21.284668-11.0214843c2.7314453 4.0507813 5.4633789 8.1015625 8.1953125 12.1513672-6.5786133 3.4091797-12.8291016 7.3056641-18.7885742 11.7128906-3.1191406-3.9638672-6.2387695-7.9287109-9.3583984-11.8925781.6076507-.002472-.5865632.598526 19.9516601-11.9716797z"/><path d="m95.1546631 144.338623c1.828125 2.7226563 3.65625 5.4453125 5.484375 8.1679688 1.0708008 1.5947266 3.6708984.0947266 2.590332-1.5136719-1.828125-2.7226563-3.65625-5.4462891-5.484375-8.1689453-1.0708008-1.5947266-3.6704101-.0947266-2.590332 1.5146484z"/><path d="m91.8602295 158.4831543c-3.2509766 1.8945313-6.5014648 3.7890625-9.7524414 5.6835938-.9718857.5665588-1.0267639 2.8762817-.3994141 3.6582031 1.2226563 1.5244141 2.4453125 3.0478516 3.6679688 4.5722656.5078125.6318359 1.5927734.5283203 2.121582 0 .625-.625.5087891-1.4873047 0-2.1220703-1.0527344-1.3115234-2.105957-2.6240234-3.1586914-3.9365234 3.0117188-1.7548828 6.0234375-3.5097656 9.0351563-5.2646484 1.6669921-.9716798.1586914-3.5654298-1.5141602-2.5908204z"/><path d="m121.6312256 137.8239746c-3.6787109 1.8740234-7.0947266 4.1289063-10.3027344 6.7246094-1.5014648 1.2148438.6328125 3.3261719 2.1210938 2.1220703 2.8500977-2.3056641 5.9228516-4.2763672 9.168457-5.9716797 1.2373047 1.7714844 2.4741211 3.5419922 3.7114258 5.3125 1.0976563 1.5712891 3.699707.0742188 2.590332-1.5136719-1.402832-2.0087891-2.8061523-4.0166016-4.2089844-6.0253906-.6094436-.8714294-2.5714416-.9069366-3.0795898-.6484375z"/><path d="m136.7132568 188.8649902c-.2705078-.5742188-.8535156-.9414063-1.6293945-.6269531-5.5966797 2.2685547-11.0537109 6.7226563-10.4487305 13.4013672.5488281 6.0556641 6.0742188 9.0771484 11.7509766 8.2011719 5.8291016-.8984375 10.5620117-5.7382813 10.3037109-11.8095703-.234375-5.5195313-4.7861328-9.3056641-9.9765625-9.1660157zm6.8100586 11.3769532c-.8769531 3.9882813-4.6479492 6.5341797-8.5869141 6.7519531-4.7587891.2626953-8.2338867-3.1904297-7.1601563-8.0263672.7763672-3.4951172 3.7397461-5.8037109 6.840332-7.2792969.3110352.2226563.7133789.3339844 1.1835938.2431641 4.9726563-.9609375 8.7797853 3.5068359 7.7231446 8.3105469z"/><path d="m121.4320068 210.6794434c-2.2890625 1.5644531-4.5776367 3.1289063-6.8662109 4.6923828-3.9370117-5.2119141-7.8740234-10.4238281-11.8110352-15.6357422-1.1494141-1.5214844-3.7553711-.0283203-2.590332 1.5146484 4.1005859 5.4287109 8.2011719 10.8564453 12.3017578 16.2851563.3411331.4525299 2.1088791 1.4555054 3.003418.84375 2.4921875-1.703125 4.984375-3.40625 7.4765625-5.1103516 1.5844726-1.0820312.0854492-3.6835937-1.5141602-2.5898437z"/></g></g></svg>