<svg id="Layer_1" enable-background="new 0 0 300 300" height="512" viewBox="0 0 300 300" width="512" xmlns="http://www.w3.org/2000/svg"><g id="Support_1_"><g><path d="m150.6794739 143.8345184c.0532227.8808594.8144531 1.2827148 1.5615234 1.2099609l7.5839844 5.8764648.2001953-.0219727c18.7744141-2.0405273 43.4902344-4.2583008 68.1728516-3.2954102l.4873047.019043.03125-.4863281c1.9189453-29.5200195 2.4404297-54.2773438 1.6416016-77.9121094l-.0068359-.1967773-.1396484-.1396484c-.9111328-.9116211-1.8583984-1.9770508-2.7734375-3.0073242-.7988281-.8984375-1.6191406-1.8081055-2.4287109-2.644043-.0244141-.7553711-.0380859-1.5102539-.0649414-2.2651367-.0639648-1.8041992-2.7036133-1.9257813-2.9780273-.3413086-.0825195-.0151367-.1655273-.0307617-.2568359-.0336914-6.953125-.2275391-13.9023438-.5532227-20.8496094-.9072266-.0913086-9.5771484-.8242188-19.0029297-2.347168-28.7612324-.0175781-.2866211-.0297852-.5732422-.0478516-.8598633-.0537109-.847168-1.1967773-1.0141602-1.4731445-.1992188-.6533203 1.9267578-1.5161133 5.5156269-3.203125 6.8989277-.5664063 1.7626953-1.3540039 1.7524414-2.3623047-.0317383-.9672852-1.769043-1.5043945-3.6601563-1.6098633-5.6733418-.0771484-.7480469-.9541016-1.0102539-1.3979492-.378418-1.7441406 2.4834003-2.9921875 4.9809589-3.9047852 7.7778339-2.5-3.574707-5-7.1489277-7.5-10.7236347-.5454102-.7797852-1.8286133-.0458984-1.3022461.7416992-.168457.1191406-.2915039.3051758-.2939453.5737305-.0957031 9.5317402-.1914063 19.0629902-.2871094 28.5942402-.0166016-.0014648-.0307617-.0068359-.0473633-.0083008-8.5820313-.7045898-17.1884766-1.0566406-25.75-2-.9707031-.1069336-1.4438477.6098633-1.4291992 1.3710938-.0351563.1713867-.0488281.3535156-.0219727.550293 3.8911133 28.5219727 4.7983398 57.3417969 2.7905273 86.0551758-.0019531.0336914.003418.0615234.0029297.09375l-.1347656.0170898zm33.4580078-103.3012695c.3574219.5107422 1.1904297.4790039 1.3710938-.1791992.7299805-2.6611328 1.7485352-5.0053711 3.1323242-7.2680664.5576172 2.6391602 1.65625 4.9125977 3.4462891 7.1352539.3354492.4169922.9194336.1904297 1.1782227-.1518555 1.5761719-2.0844727 2.8505859-4.2456055 3.8920898-6.5576172.8193359 14.9023438.824707 29.8183594.0107422 44.7231445-1.9750977-1.9765625-3.9501953-3.953125-5.925293-5.9301758-.315918-.315918-.9702148-.2929688-1.1782227.1518555-1.2685547 2.7138672-2.5375977 5.4272461-3.8061523 8.1411133-.8251953-2.8256836-1.9116211-5.4672852-3.3535156-8.0957031-.3408203-.6210938-1.144043-.3779297-1.3706055.1791992-1.2802734 3.1474609-2.5605469 6.2954102-3.840332 9.4428711-.6772461-3.3764648-1.0449219-6.765625-1.1943359-10.234375-.0009766-.0185547-.0097656-.0307617-.0117188-.0483398.1396484-13.8828125.2788086-27.7651367.4179688-41.6479492 2.4106444 3.4467773 4.8212889 6.8930664 7.2314452 10.3398437zm-33.0976563 18.2685547c7.9985352.8115234 16.03125 1.1801758 24.043457 1.8378906.0063477.0004883.0112305-.0009766.0175781-.0004883-.0400391 3.9790039-.0800781 7.9584961-.1201172 11.9375-.0014648.1376953.0332031.25.0834961.3486328.2216797 4.0366211.7099609 7.9785156 1.6845703 11.9208984.1948242.7871094 1.1894531.6323242 1.4462891 0 1.378418-3.3886719 2.7568359-6.777832 4.1352539-10.1669922 1.3256836 2.659668 2.3188477 5.3554688 3.0200195 8.2773438.1425781.59375 1.0942383.7705078 1.3710938.1791992.675293-1.4453125 2.8120117-8.1186523 4.2563477-8.4257813 1.3305664-.2827148 5.2993164 4.7558594 6.3217773 5.7788086.378418.3789063.9277344.2202148 1.1635742-.1728516 1.7568359-.8574219 1.9516602-3.7729492 2.0444336-5.4487305.2290039-4.1210938.3476563-8.1660156.3652344-12.1772461 6.9428711.3535156 13.8876953.6787109 20.8369141.90625.1098633.003418.2119141-.0053711.3095703-.0205078.7895508 24.7895508.3056641 49.5888672-1.4521484 74.3291016-22.3295898-.3300781-44.6240234.9345703-66.7734375 3.8007813 1.8085937-27.6796874.8642578-55.4042968-2.7539063-82.9038085z"/><path d="m23.2673683 234.7910614c2.9248047-6.2177734 5.7446289-12.5424805 9.3417969-18.4116211 3.8198242-6.2329102 8.4238281-11.9804688 12.8500977-17.7841797 1.1704102-1.534668-1.4335938-3.0307617-2.590332-1.5141602-4.4262695 5.8037109-9.0302734 11.5512695-12.8505859 17.7841797-3.5966797 5.8691406-6.4165039 12.1933594-9.3417969 18.4116211-.8168946 1.7373047 1.7685546 3.2617188 2.5908202 1.5141602z"/><path d="m71.4138489 223.229538c.1049805-1.9472656-1.3339844-4.0209961-3.3271484-4.2954102-.2285156-.03125-.453125-.0185547-.6694336.0205078-.2172852-.0395508-.4423828-.050293-.6708984-.0092773-1.9541016.3515625-3.3193321 2.3530273-3.2153282 4.2866211.1123047 2.0932617 1.930172 3.5942383 3.9863243 3.5517578 2.0131835-.0419922 3.7841796-1.4799805 3.8964843-3.5541992zm-3.9707031-1.3544922c1.1035156.2915039 1.3813477 1.8515625.0742188 1.9086914-1.319336.0571289-1.2216798-1.6025391-.0742188-1.9086914z"/><path d="m53.0207863 65.7988739c.0014648-.0019531.0029297-.003418.0043945-.0053711.0146484-.0229492.0292969-.0449219.0439453-.0678711-.0170898.0268555-.0317383.0478516-.0483398.0732422z"/><path d="m53.0207863 65.7988739c-.0581055.0712891-.1186523.1381836-.1762695.2104492-.5966797.7451172-.303711.5297852.1762695-.2104492z"/><path d="m159.1545715 230.0488739c13.7832031 10.7514648 35.2075195 22.7763672 52.1225586 11.4707031 7.1225586-4.7602539 11.0878906-12.9472656 12.9116211-21.0996094 7.5561523-1.2348633 14.9550781-5.2163086 19.684082-10.6005859 6.2172852-7.0786133 9.6206055-16.0766602 10.953125-25.3144531.8857422-6.1386719 1.3466797-13.0561523.8745117-19.7304688 6.6391602-1.7993164 12.9106445-6.1499023 16.2353516-11.3989258 7.7441406-12.2275391 5.527832-31.9238281-3.7802734-43.7963867 8.7535095-6.9689713 10.21521-19.5453873 11.3164063-30.425293.1943359-1.9189453-2.8071289-1.9052734-3 0-1.0332031 10.2089844-2.7211914 21.7607422-10.4272461 27.9946289-4.6645813-4.8252335-16.2587585-12.1087952-20.7998047-6.8911133-3.8837891 4.4619141-.5458984 13.0151367 4.9111328 14.2749023 4.8120117 1.1103516 10.8505859-.4702148 15.4516602-3.1967773 6.9443359 8.8164063 9.5751953 22.3105469 7.081543 32.5102539-2.0405273 8.3461914-8.9521484 15.9169922-17.2480469 18.1640625-.3427734-3.043457-.8925781-6.0078125-1.7138672-8.7861328-1.9384766-6.5546875-8.722168-13.5-16.1235352-10.0322266-5.9584961 2.7915039-5.4912109 10.203125-2.4233398 15.0087891 3.9990234 6.2646484 10.5556641 8.1396484 17.1738281 7.2504883.8457031 13.4819336-.2084961 27.6972656-8.1435547 39.0957031-4.5390625 6.5200195-11.7382813 11.5219727-19.4467773 12.9453125 1.2651367-7.4604492 1.1147461-16.043457-3.9853516-21.9379883-4.4125977-5.0996094-12.9443359-7.5541992-18.5664063-2.9472656-5.5297852 4.5317383-4.7490234 12.8432617-1.3325195 18.4003906 4.6884766 7.6245117 12.5483398 10.3203125 20.5722656 9.7363281-2.4819336 9.3452148-8.5541992 17.9262695-16.9750977 20.8081055-15.3017578 5.2363281-31.690918-4.6201172-43.3300781-13.7236328-.0239258-.0185547-.0488281-.0292969-.0727539-.0458984 3.8139648-4.7836914 6.9023438-10.2861328 9.2607422-15.5087891.2919922-.6450195.25-1.2807617-.234375-1.8173828-10.2749023-11.3959961-21.4580078-20.0126953-35.5688477-26.2133789-6.6801758-2.9355469-9.0786133-1.1918945-13.3520508 4.2807617-3.1621094 4.0493164-7.2265625 13.5708008-13.2260742 6.0800781-.378418-.4716797-.6782227-1.0283203-.9414063-1.6181641 7.3198242-8.8339844 13.2138672-19.5 13.1279297-31.2089844-.0102539-1.25-.090332-2.5297852-.5200195-3.7099609-.0112305-.03125-.0302734-.0605469-.0419922-.0917969-.0507813-.3959961-.1171875-.7890625-.2050781-1.1772461-.7602539-3.3637695-3.7978516-5.8476563-7.2988281-5.1967773.7211914-2.2255859 1.0302734-4.5097656.5175781-6.7734375-.8769531-3.8720703-4.0195313-6.2856445-7.5942383-5.9111328-.0068359-.3295898-.0292969-.6621094-.0834961-1.0004883-.7172852-4.4707031-5.0678711-7.3041992-9.3959961-6.152832-.0332031-1.2993164-.2382813-2.590332-.6816406-3.8525391-1.4492188-4.1240234-6.1948242-4.3007813-9.4272461-1.7744141-1.3066406 1.0214844-2.269043 2.4775391-3.0922852 4.0341797l-.1186523.0087891c0 .0019531.0009766.0039063.0009766.0058594.0048828.0761719-.0048828.1552734-.0136719.2338867-.2685547.5195313-.5209961 1.0458984-.7675781 1.5727539-.2304688.3139648-.4848633.6264648-.7304688.925293-.1113281.1347656-.21875.2670898-.324707.3989258-3.0336914-6.0756836-6.1376953-12.4985352-8.0249023-18.9018555-.5341797-1.8129883-1.0722656-3.8535156-.8789063-5.7558594.3579102-3.5214844 3.78125-4.7050781 6.8730469-4.75 4.8486328-.0703125 9.9052734 1.3964844 14.5791016 2.5952148 1.8710938.4799805 2.6694336-2.4125977.7978516-2.8925781-4.1171875-1.0561523-11.777832-3.3974609-17.5966797-2.6313477 1.8149414-15.2666016.4975586-30.559082-3.8681641-45.3012695 2.2519531-.8339844 4.5766602-1.4746094 6.9379883-1.8935547 1.9189453-.340332 3.8618164-.5292969 5.8100586-.5668945 3.3105469-.0634766 4.2177734-.1484375 6.3818359 2.7075195 9.831543 12.9741211 11.2426758 29.6591797 3.5107422 43.9448242-.9189453 1.6982422 1.6699219 3.2143555 2.590332 1.5141602 6.1196289-11.3071289 7.3041992-24.1845703 2.484375-36.2138672-1.7475586-4.3603516-4.8242188-11.7495117-9.0571289-14.2285156-3.9951172-2.3388672-12.1206055-.3452148-16.3251953.8325195-5.784668 1.6201172-11.2026329 4.4443359-15.8559532 8.2397461-2.137207 1.7431641-3.9716797 3.6523438-5.6958008 5.7802734-.9052734 1.4238281-1.8476563 2.7485352-2.5605469 4.2954102-1.7636719 3.828125-2.5732422 7.9550781-2.7963867 12.1967773-.4936523 2.8393555-.8129883 5.7993164-.9057617 8.8833008-.2724609 9.1079102.4902344 18.4194336 2.4003906 29.3051758.1357422.7734375.2558594 1.5620117.3779297 2.3554688.4477539 2.9208984.9321289 6.0380859 2.2773438 8.7749023-2.4052734-.5454102-4.9580078.1259766-7.3867188 2.8535156-2.9277344 3.2880859-1.6914063 7.5585938-.3959961 11.2631836 1.7915039 5.1220703 3.6176758 10.2119141 4.7827148 15.5229492 1.9145508 8.7290039 3.1796875 17.2949219 5.7485352 25.6845703-3.3681641-2.0219727-7.6152344-3.3286133-8.7509766.8876953-1.984375 7.3652344 11.6347656 16.3193359 16.0263672 19.8618164 4.0122032 3.2358398 8.1796837 6.3164063 12.5878868 8.9951172 1.4492188.8803711 3.2211914 1.9370117 5.0600586 2.5581055-12.0996094 16.3515625-23.6132774 33.2719727-33.4150352 51.1078949-.9301758 1.6928711 1.659668 3.2084961 2.5908203 1.5141602.012207-.0224609.0253906-.0444336.0375977-.0668945.9628906.0498047 1.9345703.1196289 2.8920898.2021484 1.5595703.1337891 3.1416016.2700195 4.7099609.2700195 2.0087891 0 3.9951172-.2236328 5.8779297-.9604492.5625-.2197266 1.0878906-1.2001953 2.161129-4.0351563.1025391-.2705078.1806641-.4785156.2246094-.5805664.8671875-1.9873047 1.9072266-4.0234375 3.1796875-6.2236328l9.4941406-16.4238129c2.1191406-3.6655273 4.3115234-7.4560547 5.5253906-11.6293945 1.2929688-4.4418945 1.1865234-8.7543945-.2563477-12.2480469.1030273-.1386719.2041016-.2792969.3071289-.4179688.3662109-.0249023.7290039-.0771484 1.0859375-.1723633 5.5371094-1.4726563 1.3789063-8.1494141-1.6928711-11.2041016 1.4350586.0541992 2.953125-.1220703 4.4487305-.4570313 11.3339844 12.3037109 22.3896484 23.6904297 37.6196289 29.7021484.2792969.1484375.5649414.2827148.8476563.4233398-3.4995117 1.0361328-6.659668 2.8334961-6.4536133 6.1137695.0947266 1.5083008 1.1425781 2.9711914 2.7353516 3.8178711 1.3642578.7265625 2.9287109.956543 4.4140625 1.1303711 4.2080078.4916992 8.3994141.6772461 12.4160156.6772461 5.8896484 0 11.4052734-.3989258 16.0410156-.815918 1.5234375-.137207 3.4189453-.3076172 5.1035156-1.0336914 1.8701172-.8061523 3.2324219-2.2636719 3.6425781-3.8989258.6933594-2.7636719-1.3408203-5.4775391-3.6074219-6.6279297-2.1894531-1.1108398-4.6899414-1.2416992-6.9633789-1.2939453 2.4184572-1.7055659 4.6508791-3.7651362 6.6982423-6.0517573zm98.4423828-118.9560547c-4.0878906.8901367-9.0620117 1.7055664-10.4379883-3.4008789-2.6381836-9.7895508 8.0717773-4.7436523 12.0810547-2.2080078 1.5214844.9624023 2.9267578 2.1157227 4.2182617 3.4160156-1.7075195.959961-3.6445312 1.7104492-5.8613281 2.1928711zm-13.4223632 50.4760742c-5.1572266-1.8789063-13.7036133-13.0048828-4.6166992-15.949707 9.6948242-3.1411133 12.0029297 10.3901367 12.5908203 16.9868164-2.6049805.2382813-5.2944336-.0610351-7.9741211-1.0371094zm-34.8408203 53.4003907c-5.5356445-3.171875-10.1123047-10.3466797-7.4760742-16.8320313 4.0805664-10.0400391 16.5678711-3.2861328 19.2592773 3.9643555 1.7402344 4.6889648 1.9882813 10.253418.9863281 15.7319336-4.2958984.3178711-8.671875-.5166016-12.7695312-2.8642578zm-86.6303711-23.5478516c1.9018555-2.5 3.9604492-6.0605469 7.6762695-5.6611328 2.1772461.2338867 5.0185547 2.1240234 7.015625 3.0898438 3.9257813 1.8989258 7.7490234 4.0166016 11.3979492 6.4067383 7.090332 4.6445313 12.8325195 10.3334961 18.4775391 16.5444336-2.6582031 5.8251953-5.5375977 11.5161133-9.8295898 16.2329102-9.730957-13.8051758-22.7617188-24.7084961-38.1318359-31.734375 1.2651366-1.7177736 2.3764647-3.5410158 3.3940429-4.8784181zm-54.9750977-133.7592773c.5673828-.2924805 1.1445313-.5664063 1.7255859-.8320313 4.2841797 14.6523438 5.4770508 29.7973633 3.5654297 44.9545898-2.2470703.9663086-3.8969727 2.7543945-4.4296875 5.7915039-.8500977 4.8442383 1.5351563 10.0317383 3.4208984 14.3549805 2.0703125 4.7456055 4.1625977 9.5195313 6.4301758 14.1816406-.2021484.3212891-.4047852.6464844-.6157227.9873047l-.4941406.7954102c-.390625.625-.7695313 1.2475586-1.1455078 1.8662109-1.4345703 2.3574219-2.7900391 4.5844727-4.5869141 6.6616211-.7460938.8608398-1.7490234 1.6674805-2.7207031 2.4472656-1.0683594.8588867-2.1728516 1.746582-2.9892578 2.7436523-.0068359.0083008-.0102539.0180664-.0166016.0263672-4.4663048-12.2036133-8.1010704-24.6606445-10.8193321-37.3984375-1.4335938-6.7172852-3.5454102-14.8588867-4.3227539-22.9057617-.1425781-3.0976563-.2036133-6.2036133-.1738281-9.3168945.3896484-5.1894531 1.7304688-10.0708008 4.6445313-14.1826172 2.8808594-4.0649414 7.8081055-7.743164 12.5278282-10.1748046zm15.8271484 158.1113281c-.5483398 1.3666992-4.1699219.1943359-4.9863281-.1879883-.9106445-.4262695-1.7670898-.9814453-2.625-1.5029297-4.6992188-2.855957-9.1401367-6.1630859-13.3745079-9.6640625-3.5102539-2.902832-7.1611328-5.8881836-10.2568359-9.2397461-1.0175781-1.1020508-4.2099609-4.7299805-3.0507813-6.269043 1.6826172-2.234375 5.6196289 1.6191406 7.0400391 3.0698242.4394531 1.1513672.902832 2.2998047 1.4125977 3.4438477.7841797 1.7602539 3.3696289.2358398 2.590332-1.5141602-6.324707-14.2016602-6.7241211-29.703125-11.7099609-44.2685547-1.1289063-3.2973633-4.9379883-10.2338867-1.7001953-13.4487305 5.362793-5.324707 10.144043 2.3671875 12.050293 6.4174805 1.546875 3.2875977 2.8520508 6.6708984 3.9262695 10.1411133.3833008 1.2373047.7084961 2.4140625.9750977 3.6821289.2016563.9584961.3974571 4.2480469.8427696 3.8027344-1.3671837 1.3671875.7539063 3.4887695 2.1210938 2.121582.4892578-.4892578.9521484-.9970703 1.4033203-1.5126953.2929688-.159668.5224609-.402832.6162109-.7182617 4.7744141-5.7734375 7.5410156-12.9433594 11.2753906-19.3925781.2978516-.515625.7294922-1.3964844 1.2578125-2.465332.4150391-.3032227.7070313-.7885742.6694336-1.3447266 2.2675781-4.5058594 5.737793-10.7495117 8.5693359-9.3847656 5.4746094 2.6396484-.8085938 14.0488281-2.7172852 17.1704102-1.0097656 1.6518555 1.5839844 3.1606445 2.590332 1.5141602 2.0390625-3.3354492 4.1582031-7.390625 4.8310547-11.5161133.2412109.0712891.5146484.081543.8212891-.0078125 4.9604492-1.4536133 6.5146484 3.7666016 5.0483398 7.4897461-.4658203 1.1826172-1.1430664 2.3051758-1.7250977 3.4311523-1.2685547 2.4545898-2.4907227 4.9321289-3.6884766 7.4223633-.8334961 1.7314453 1.7524414 3.2548828 2.590332 1.5141602 1.3798828-2.8681641 2.8286133-5.6972656 4.2705078-8.5341797.6625977-1.3041992 1.3671875-2.621582 1.8378906-3.9931641 3.5581055-1.3642578 5.3007813 2.2456055 5.3881836 4.8364258.065918 1.9663086-.6308594 3.7802734-1.3862305 5.5458984-1.0361328 2.4228516-2.3632813 4.7006836-3.6958008 6.96875-.9799805 1.668457 1.6118164 3.1796875 2.590332 1.5141602.9560547-1.6269531 2.0385742-3.3950195 2.9902344-5.246582.0727539-.0371094.1459961-.0737305.2192383-.1264648 8.4033203-6.0385742 5.2333984 8.8413086 4.5273438 10.9350586-2.159668 6.4052734-5.1064453 12.6098633-9.1748047 18.0273438-.8979492 1.1958008-1.8496094 2.375-2.84375 3.5327148-.2050781.1342773-.3789063.3168945-.487793.5581055-7.3847656 8.4165039-17.2299805 15.5292969-28.3164063 18.0849609-1.8808594.4335938-1.0849609 3.3266602.7973633 2.8930664 1.3061523-.3012695 2.5839844-.6669922 3.8408203-1.0795898-.0605469.519043.1054688 1.0727539.6264648 1.4589844.8437503.6245115 4.4443362 4.7832029 4.0195315 5.8413084zm62.6875 20.227539c-4.5839844-.0336914-9.2280273.0698242-13.8183594.6640625l-.2851563.0371094c-.4892578.0629883-1.0576172.1362305-1.6762695.2250977-1.0253906-.3071289-2.0473633-.6767578-3.0585938-1.1425781-7.543457-3.4755859-13.7617188-9.7587891-19.512207-15.6108398-2.0942383-2.1308594-4.1005859-4.3393555-6.0683594-6.5810547-.7880859-1.1445313-1.543457-2.309082-2.2841797-3.4545898-1.3085938-2.0234375-2.6640625-4.1079102-4.171875-6.0322266 3.5581055-2.5703125 6.6699219-5.4887695 9.6054688-8.7695313.9731445 2.0507813 2.2280273 4.1166992 4.1943359 5.1660156 3.3164063 1.769043 5.9609375.4379883 8.1660156-1.8286133 15.3334961 6.9101563 28.3837891 17.6748047 37.9716797 31.5092773-.2519531.2324219-.5024414.4667969-.7636719.6923828-2.5249022 2.1811524-5.3339842 3.9189454-8.298828 5.1254883z"/><path d="m115.5388489 51.179245c-3.5166016 1.0488281-7.0332031 2.0976563-10.5498047 3.1464844-1.8457031.5507813-1.0595703 3.4467773.7973633 2.8930664 3.5166016-1.0488281 7.0336914-2.0981445 10.550293-3.1469727 1.8457031-.5502929 1.0595703-3.4467773-.7978516-2.8925781z"/><path d="m120.4929504 71.3652802c-3.6308594-.4785156-7.2617188-.9570313-10.8925781-1.4355469-1.9082031-.2514648-1.8896484 2.7509766 0 3 3.6308594.4785156 7.2617188.9570313 10.8925781 1.4355469 1.9082032.2514648 1.8896485-2.7509766 0-3z"/><path d="m107.8318176 97.2290497c3.1845703.1992188 6.0844727 1.2402344 8.7250977 3.0209961 1.6049805 1.0825195 3.1079102-1.515625 1.5141602-2.590332-3.0776367-2.0756836-6.5405273-3.1992188-10.2392578-3.4306641-1.9277344-.1206055-1.9204102 2.8798828-.0000001 3z"/><path d="m180.8943176 98.4053192c3.6489258-1.6376953 6.2568359-1.5488281 9.5336914.855957 1.1386719.8354492 2.2055664 1.7739258 3.5126953 2.3447266 4.9106445 2.144043 9.2861328-3.300293 13.7661133-1.3291016 1.7504883.7705078 3.2792969-1.8139648 1.5141602-2.590332-2.6972656-1.1870117-4.6845703-.9135742-7.4750977.1191406-3.8935547 1.4404297-5.9760742 1.7163086-9.3447266-.7866211-1.1401367-.847168-2.2211914-1.7685547-3.5449219-2.3286133-8.2602539-3.4931641-16.9042969 9.3764648-23.4384766-1.0029297-1.0263672-1.6298828-3.6230469-.1264648-2.5908203 1.5141602 4.5263673 7.1889649 11.3032228 6.2397461 18.0673829 3.2036133z"/><path d="m203.3303528 114.1665497c-2.6938477 2.6157227-6.2705078-.7734375-8.7456055-1.6083984-1.9985352-.6738281-3.6572266-.7568359-5.6889648-.0849609-2.4433594.8081055-4.387207 2.6269531-6.8896484 3.3212891-3.8173828 1.0585938-7.5004883-.0351563-10.5795898-2.3339844-1.5478516-1.1552734-3.0449219 1.4477539-1.5141602 2.5908203 5.5605469 4.1518555 11.5 3.7011719 17.3691406.5732422 5.3076172-2.8286133 7.7387695.6630859 12.6054688 1.3925781 2.2211914.3330078 3.96875-.1796875 5.5644531-1.7294922 1.3876952-1.347168-.7348633-3.4672852-2.1210938-2.1210938z"/></g></g></svg>