<svg id="Layer_1" enable-background="new 0 0 300 300" height="512" viewBox="0 0 300 300" width="512" xmlns="http://www.w3.org/2000/svg"><g id="Top_Rated"><g><path d="m276.6818542 165.9702606c-2.4296875 0-4.3330078 3.4316406-4.3330078 7.8125s1.9033203 7.8125 4.3330078 7.8125c2.4306641 0 4.3339844-3.4316406 4.3339844-7.8125s-1.9033203-7.8125-4.3339844-7.8125z"/><path d="m26.6388779 205.5327606c-10.0570641 8.4692383-10.3544083 23.9226837 0 32.4057617v7.3300781c0 21.9860077-.2003555 21.1030121.3735352 23.3339996 2.8520508 11.0883789 20.1967773 12.3422852 25.1557617 2.2958984.9814453-1.9887695 1.1831055-4.0546875 1.222168-6.1665039 4.272274-10.2766418 4.9139023-22.1353302 5.1708984-33.2031403 2.3120117-4.5581055 2.996582-9.9814453 1.7792969-15.3266602-.0542259-.6751251-1.1587372-3.0426331-1.4882813-3.6791992.2351685-22.1944733.3479195-82.8089294-2.8735352-104.8227539-.5151367-3.5136719-1.3466797-7.6113281-2.6713867-11.3149414-1.878418-15.0527344-25.840332-15.0761719-26.668457.7451172-.0621682 1.1870119 0 69.0764925 0 108.4023439zm20.1796875 18.3867188c-.3916016.3730469-.5136719.9462891-.3857422 1.4594727.715332 2.8691406 1.4321289 5.7387695 2.1484375 8.6079102-2.5680084-1.6805267-5.8648605-3.6248474-8.9462891-3.487793-3.2598305.1471405-8.0254936 4.1805267-8.7900391 4.0024414-.0209961-.0410156-.0273438-.1137695-.0258789-.2021484.1015625-.3061523.465332-.9428711.7202148-1.8730469.519043-1.894043 1.1860352-4.1171875 1.2792969-6.1142578.3519783-2.5411224-.6453743-3.3575439-2.3989258-4.640625-1.2904453-.9338684-3.7721443-2.892395-5.3803711-4.4189453 1.2294922-.1796875 2.4624023-.3349609 3.6972656-.4726563 1.4651489-.0848541 5.7585678.0217896 6.9492188-.734375 1.3931656-.8871613 2.1808662-3.8132782 2.8525391-5.1547852.6166992-1.2299805 1.2324219-2.4609375 1.8481445-3.6914063.5058594.9238281 1.0112305 1.8481445 1.5170898 2.7719727.7559357 1.3786163 2.0270767 4.8922424 3.4082031 5.7744141 1.2417831.791748 5.0197334.7190552 6.1879883.9008789 1.0800781.1787109 2.1513672.387207 3.2182617.6157227-2.6017798 1.9127349-4.5996283 3.5097655-7.8994139 6.6572265zm-5.3798828 50.6709137c-6.1689453.3876953-11.453125-2.5273438-11.7998047-9.2226563-.3618164-6.9897461 0-14.0937653 0-21.0908356 0-1.4262695 0-2.8525391 0-4.2788086 4.8398438 2.7587891 10.7348633 3.6582031 16.3999023 1.9663086 1.6010742-.4780273 3.0737305-1.1347656 4.4384766-1.9150391.0419922 7.9897461.0605469 15.9795074-.0786133 23.9624176-.0966797 5.529297-2.7299805 10.1870118-8.9599609 10.5786134zm-11.7998047-177.4155426c.7021484-12.2202148 19.8916016-11.909668 20.7597656-.0444336v106.409668c-6.6995087-3.9168854-14.6207657-3.6474915-20.7597656-.1118164 0-33.4775391 0-66.9541016 0-100.4311523 0-1.9291993-.1108399-3.8955079 0-5.8222657z"/><path d="m82.1886826 149.6567841c-9.2818222 8.4483032-9.4901733 22.8974304-.0209961 31.2929688-.0429688 22.2758789-.1357422 44.5537109.0209961 66.8271484.0493164 6.9960938 3.7182617 13.0957184 11.3037109 13.7129059 8.003418.6503906 15.1191406-3.4794922 15.4462891-12.1118317.0283203-.7407227.0424805-1.4829102.0644531-2.2246094 4.1570206-11.0091248 4.4714355-23.4091339 4.6958008-35.1630859.2387695-12.0854492.4931641-24.1635742.6665039-36.2475586 2.859375-5.1518555 3.5991211-11.4956055 1.6611328-17.5375977-.0727539-1.2998047-.625-2.6455078-1.4667969-3.9467773.0792542-19.8173676.2979507-30.0779419-.5307617-39.7080078-.8203125-9.5898438-1.0102539-19.300293-3-28.8300781-.6000977-2.8798828-1.340332-5.7900391-2.840332-8.3198242-.034668-.0581055-.0737305-.1137695-.109375-.171875-3.0371094-7.7363281-13.2495117-11.0737305-20.6650391-6.0375977-5.5639648 3.7788086-5.2255859 9.7900391-5.2255859 15.640625zm20.699707 17.703125c-.3911133.3735352-.5141602.9458008-.3857422 1.4594727.7158203 2.8652344 1.4316406 5.730957 2.1469727 8.5961914-2.7861328-1.8251953-5.9599609-3.6484375-8.9443359-3.4814453-2.7919998.1557312-5.9713745 2.722168-7.5898438 3.4804688-.3271484.1533203-.5390625.2900391-.6962891.4086914-.1004715.0221863-.012291-.007431-.2651367.0629883.0073242-.0830078.0092773-.1845703 0-.3100586-.0273438-.6645508.4375-1.5981445.5913086-2.2568359.8616028-3.6847687 1.727684-5.8342133.9741211-7.847168-.8156357-2.1806183-2.9689713-2.1815186-7.6425781-6.7832031 9.7340393-1.37677 10.6132736-.5341644 11.2172852-1.7421875 1.3857422-2.7700195 2.7739258-5.5395508 4.1621094-8.3085938.5043945.9213867 1.0087891 1.8427734 1.5136719 2.7641602.8429871 1.5385437 2.0427246 5.0153656 3.5908203 5.8486328 1.5083008.8129883 4.3242188.5507813 5.984375.8208008 1.0927734.1772461 2.1782227.3886719 3.2587891.6210938-2.3897554 1.7684171-4.6761781 3.5699766-7.9155275 6.666992zm-2.7705078 90.5400543c-6.4731445 2.4282227-14.4780273-.8125-14.9291992-8.3296051-.0435944-.7285767 0 4.0540619 0-66.3789063 4.8530273 2.9829102 10.8720703 4.0571289 16.6855469 2.4311523 1.4472656-.4042969 2.8007813-.9516602 4.0644531-1.6108398v59.9423828c0 5.4238282.5102539 11.5712891-5.8208008 13.9458161zm-14.9291992-174.8974762c.0385742-3.0366211.2993164-5.9140625 2.6362305-8.2524414 5.9472656-5.9516602 17.5410156-2.1601563 18.1137695 6.3203125v65.5849609c-6.3831024-3.3064728-14.2810364-3.3295135-20.7695313.7373047-.0634766-21.4624023-.2519531-42.934082.0195313-64.3901367z"/><path d="m161.8708038 34.0674286c-.8325195-9.2763672-10.4238281-13.9760742-18.9326172-10.8198242-7.1123047 2.6381836-7.7792969 9.2602539-7.7792969 15.7089844v32.0239258c-9.5064468 7.883255-10.9423676 23.3198929 0 32.4306641v96.4038086c0 4.4750977.3349609 8.7553711 3.9511719 12.0170898 6.2045898 5.5961914 18.1088867 3.8354492 21.6923828-3.8725586.5581055-1.2001953.9243164-2.5444336 1.1665039-3.9677734 4.1785278-9.4309235 3.8396149-19.6354065 4.2280273-34.2958984 4.0668945 1.1884766 8.1450195 2.340332 12.2211914 3.4853516-.3637695 1.15625-1.0678711 2.5322266-1.2294922 3.5449219-1.1415558 7.1446686 1.372467 14.2844086 6.7373047 19.0654297-.0576172 18.5444336-.1572266 37.0922852.0327148 55.6318359.0629883 6.1538239 3.1489258 11.7578278 9.6166992 13.0630035 7.9635162 1.6069031 16.322937-1.9231567 17.1474609-11.8608551 3.2494202-7.6503906 3.5391693-15.7884521 3.7661133-24.0854492.3168945-12.2358398.668457-24.480957.8046875-36.7182617.644043-.9501953 1.2133789-1.9545898 1.7021484-3.0039063 2.5722656 2.175293 6.5625 2.7265625 9.5029297 1.0024414 5.5800781 10.6796875 11.6499023 21.2099609 18.5800781 31.0800781 5.0400391.1196289 10.0800781.2397461 15.1298981.3598633-.0073242-.0112305-.0141602-.0219727-.0209961-.0332031 1.2387695.7905273 3.1699219-.5371094 2.1552734-1.9204102-9.4863434-12.9360352-19.9521637-25.0610352-31.3891754-36.3095703 4.5537109-3.859375 8.003418-10.7509766 10.7519531-14.6704102 3.5224609-5.0229492 10.0048828-12.5830078 6.7988281-19.2636719-2.3095703-4.8115234-8.1494141-3.1889648-9.652832 1.3916016-.6035156 1.8383789 2.2924805 2.6264648 2.8930664.7973633 1.2792969-3.8989258 4.6591797-.7216797 4.5883789 1.84375-.046875 1.6889648-1.0087891 3.9238281-1.7148438 5.3696289-1.4580078 2.9858398-3.6015625 5.6347656-5.503418 8.3476563-6.9889526 9.9702148-8.2697296 12.3688812-11.8291016 14.8623047-4.0571289 1.6279297-5.6899414.5419922-4.8979492-3.2592773.0302734-.0566406.046875-.112793.0698242-.1689453.4799805-.1762695.9545898-.3696289 1.418457-.6015625 1.7265625-.8642578.2089844-3.4526367-1.5146484-2.590332-3.9210663 1.9618073-7.3376007.8273315-10.4736328 1.7363281-13.0769043-.5331879-41.3266907-8.7187347-53.7836914-12.6811523-2.8041992-.8920898-8.3408203-1.9833984-10.2998047-4.8041992-.0585938-.2363281-.1791992-.4707031-.3950195-.6865234-.2505951-.5697327-.4386292-1.0721436-.1796875-2.7998047.0878906-.5849609.2290039-1.1923828.4555664-1.7607422 2.9489594-5.189682 10.0463562-3.8259735 15.9155273-3.0268555 5.6421204.7686615 7.3843384 1.0086517 11.9130859 2.7412109.1079102.1318359 1.6669922 1.0083008 1.9780273 1.2021484.7480469.465332 1.5727539.0922852 2.0522461-.5385742.5751953-.6816406 1.1503906-1.3642578 1.7255859-2.0458984.4775391-.5229492.5444336-1.1953125.234375-1.8178711-7.3627319-14.7822418-17.7058716-28.5042725-25.6000977-41.7900391-.5229492-.8803711-1.171875-1.8188477-1.8374023-2.7993164-.2085876-.7360535-4.1732025-5.9294891-3.5185547-9.4482422 1.2094727-6.4775391 6.7416992-1.2631836 8.6850586.7270508.074707.0986328.1591797.1860352.2529297.2607422 7.6790161 8.3404388 12.9573517 17.5528107 18.6577148 27.4536133.9628906 1.6728516 3.5561523.1640625 2.590332-1.5136719-2.3730469-4.1220703-4.765625-8.2070313-7.3046875-12.1782227.5170898-1.4990234 1.6181641-2.5800781 3.0708008-3.0390625 5.2521515-1.6599579 7.2958374 4.3076706 13.7133789 14.1113281 1.0532227 1.6088867 3.6518555.1074219 2.590332-1.5141602-2.6520538-4.051857-5.8646088-9.4597855-7.3452148-11.5361328v-2.828125c.819458.0005341 1.5-.4989319 1.5-1.5795898 2.9082031-.8291016 7.6040039 2.5483398 9.1870117 4.6196289 1.9155273 2.5068359 3.4257813 5.3046875 4.9238281 8.0722656.9194336 1.6982422 3.5107422.1855469 2.5908203-1.5141602-.9682617-1.7885742-1.9941406-3.765625-3.1689453-5.6660156.0117188-.1005859.0161133-.206543.0073242-.3208008-.4672852-6.1743164 6.2446289-4.8037109 9.3203125-2.0517578 1.6855469 1.5087891 2.9091797 3.6157227 4.2089844 5.4277344 3.3666992 4.6943359 6.690918 9.4160156 9.9160156 14.2089844 5.4658203 8.1220703 11.6069336 15.8808594 11.1147461 26.1450195-.0927734 1.9296875 2.9077148 1.9248047 3 0 .3115234-6.4980469-1.4824219-11.8803711-4.8115234-17.3911133-4.4628906-7.3876953-9.4970703-14.487793-14.5014648-21.5131836-2.4287109-3.4091797-4.7011719-7.3505859-8.0258789-9.9057617.0029297-6.2841797.0429688-12.5698242-.0009766-18.8540039-.0581055-8.2407227-4.8769531-13.8359375-13.3798828-13.8359375-8.3759766-.0004883-13.3071289 5.4707031-13.3803711 13.652832-.0527344 5.9335938-.0087891 11.8701172-.0024414 17.8041992-.7109375.6376953-1.2919922 1.4301758-1.7060547 2.3564453-3.494278-2.0741501-8.2967224-1.1443329-10.6953125 2.2729492-1.9594727-2.9194336-4.0449219-5.7460938-6.2773438-8.4692383 6.7254486-9.4849319 5.2752991-21.9294052-3.3588867-28.9707031.0000006-39.1464215.0265661-36.5929604-.047851-36.8994141zm45.9780274 145.4594726c-.8081055.7216797-1.6064453 1.4545898-2.3803711 2.2128906-.4399414.4248047-.5273438.9267578-.3984375 1.3730469.0337372.1839447-.1046753-.3831787 2.1748047 8.7363281-8.6277161-5.636795-10.0506897-3.8342438-17.253418.3554688-.3828125.0556641-.5576172.1132813-.6254883.1337891.0131836-.0258789.0224609-.0463867.0380859-.0751953.128418-.1293945.3818359-.4331055.5415039-1.0957031.2475586-1.0268555.4892578-2.0454102.7099609-3.0786133 1.0527344-4.91362 2.2328491-6.1591339-2.609375-9.3774414-1.5288086-1.1743164-2.9838867-2.3466797-4.3540039-3.6479492.3496094-.0522461.6982422-.1118164 1.0483398-.1611328.7886812.4062957 12.8400423 3.7015838 23.1083986 4.6245116zm-20.8901367 70.6899415c0-13.0895081 0-40.1695557 0-52.175293 6.3110962 3.8693237 14.1622467 4.2124176 20.7602539.6542969v50.3442383c0 6.3115234-1.6933594 12.289566-9.2553711 12.7002106-7.8286133.4252929-11.5048828-4.4360352-11.5048828-11.5234528zm0-165.8652344c.3496094-5.9453125 4.7231445-9.0517578 10.3803711-9.03125 5.6489258.0200195 10.0166016 3.0571289 10.3798828 9.027832.1010284 1.6636581 0-.6736298 0 18.9169922-4.8526764-1.9947205-8.6272583-.0816498-9.8339844 3.5097656-2.7984772-3.2848892-6.7542419-5.6835403-10.9262695-4.5917969 0-17.860321-.114914-15.8730392 0-17.8315429zm-39.8930664 65.7182617c-1.1520538.4297791-2.2125702 2.7757568-2.5571289 4.1450195-.5251007 2.0367737-.6419525 5.5247498.9897461 6.6982422 2.608078 3.6503754 8.677002 5.1051788 13.425293 6.5874023.0151367 11.2680664.2451172 22.5615234-.0048828 33.8242188-.1230469 5.5600586-2.7993164 10.1386719-8.9599609 10.5854492-5.9926758.4345703-11.4023438-2.309082-11.7998047-8.9599609-.1342773-2.2431641 0-4.5400391 0-6.7856445 0-12.7007904 0-77.7988129 0-90.6411133 4.0141602 2.3657227 8.7314453 3.472168 13.3452148 2.6430664 1.6894531 2.9008789 3.6103516 5.6767578 5.2070313 8.1831055.6777344 1.2119141 1.3056641 2.2983398 2.2651367 3.8139648.1435547 1.1069336-.0576172 2.4916992-.0576172 3.5214844v23.7744141c-4.178711-.3354493-8.8979493.1015624-11.8530274 2.6103515zm30.8413085-.1992188c.1098633.234375.2182617.4716797.3242188.7148438l-.7675781.9335938c-3.2919922-1.7011719-7.0136719-2.6367188-10.7836914-3.2172852.0888672-5.59375.1337891-11.1875.1176758-16.7817383 8.0568237 11.3330383 8.4153442 13.7682037 11.1093749 18.3505859zm-30.3476562-53.7666015c-2.9719849.5458755-7.8961334 3.6655579-8.387207 4.1357422.0317383-.2470703.1494141-.7539063.300293-1.6381836 1.0344849-6.049057 2.740799-7.829277.6103516-10.3745117-1.7910156-2.140625-4.3457031-3.6806641-6.590332-5.5429688 9.4778595-1.3462067 10.424057-.5051041 11.0317383-1.7167969 1.3613281-2.7148438 2.7211914-5.4306641 4.0805664-8.1464844.9199677 2.0409164 3.1621399 7.4163818 5.1860352 8.4599609 2.237793 1.1557617 6.019043 1.0859375 8.9868164 1.4614258-1.3642578 2.2944336-6.0874023 5.7529297-8.1533203 7.4277344-3.1739199-1.0004043-6.4646914.8674241-7.0649416 5.9340821zm-9.4003906-27.194336c0-33.6915054-.1997223-30.0674438 0-34.1171875.6020508-12.203125 19.9951172-12.6401367 20.7597656-.3422852v34.4907227c-6.3261719-3.5302734-14.2993164-3.6860351-20.7597656-.03125z"/><path d="m252.1935577 161.2803192c-1.4145508-1.3110352-3.5410156.8056641-2.1210938 2.1210938 7.7998199 7.2255859 14.0473785 15.0341797 20.133316 23.7280273 1.0991211 1.5698242 3.7011719.0722656 2.590332-1.5146484-6.2314452-8.9008789-12.6103514-16.9311524-20.6025542-24.3344727z"/><ellipse cx="256.14" cy="187.47" rx="4.875" ry="4.75"/></g></g></svg>