<svg id="Layer_1" enable-background="new 0 0 300 300" height="512" viewBox="0 0 300 300" width="512" xmlns="http://www.w3.org/2000/svg"><g id="Under_Maintenance"><g><path d="m123.0800781 270.9702454c.6381836 2.34375 2.4257813 5.0908203 3.4067383 7.0527344 22.2558594 3.402771 22.3344879-7.0562134 27.5361328-13.1445313 2.5561523-2.9921875 6.2089844-4.8740234 9.9824219-5.9902344 8.8783875-2.6262817 30.3531494-5.9840088 62.0483398-15.1123047.6743164-2.4619141 1.1323242-4.6582031 1.6870117-6.9736328 1.0136719-1.3408203 1.4770508-2.9287109.7797852-4.7490234-1.7216797-4.4931641-7.762207-3.8945313-11.5424805-3.4179688-8.6640625 1.0917969-17.1376953 3.4404297-25.6225586 5.4296875-8.5483398 2.0039063-17.2099609 3.4423828-25.8408203 5.0400391-24.1879578 4.4782104-28.8152771 1.3557892-30.9077148 1.7148438-4.7548828-2.7412109-10.0439453-4.4169922-15.5776367-3.3984375-7.4780273 1.3759766-13.9077148 8.9462891-12.0634766 16.7285156.2688141 1.1353302 2.0262985 1.277298 2.1845703 1.2724609 1.1083984 1.1191406 2.4716797 2.1074219 3.3935547 3.3212891 3.730957-1.7197266 6.7207031-2.6630859 10.6669922-3.8056641 2.6811523 2.0585938 5.0639648 4.1328125 7.7138672 6.1923828-2.7641602 2.3349609-5.4414063 4.7724609-8.2529297 7.0527344-.927536.753418-.3968658 2.3390503.4082031 2.7871094zm96.7954102-39.640625c1.875-.0556641 8.1606445-.3046875 4.6118164 4.6337891-4.1523285 5.7782593-62.4304962 12.2287598-74.4199219 23.28125-.4670563-6.19664-5.436554-11.192276-10.309082-14.9462891 23.2971954 1.5223999 69.2683258-12.6456147 80.1171875-12.96875zm-96.5629883 8.8076171c6.3505859.3447266 12.1484375 4.3339844 16.8413086 8.3251953 5.1035156 4.3398438 9.7094727 10.7714844 4.809082 17.0898438-4.5224609 5.8300781-12.1484375 5.3330078-18.5541992 3.4013672 2.7875977-2.3515625 5.484375-4.8095703 8.3173828-7.1074219.8703003-.7058411.3695221-1.4384155.2680664-1.8505859-.5229492-2.1279297-1.0458984-4.2548828-1.5693359-6.3828125-.0764465-.3115082-.6226501-1.3565216-1.1499023-1.6279297-2.9887695-1.5332031-5.9106445-3.1835938-8.8178711-4.8652344-.6264648-.3623047-1.2304688-.2255859-1.6533203.1376953-4.1738281 1.2900391-8.2226563 2.8896484-12.1616211 4.7705078-.6762696-7.1347656 7.1225585-12.2460937 13.6704101-11.890625z"/><path d="m42.0473633 249.7720032c.4135742.2275391.831543.3486328 1.2504883.3798828 1.3547783 2.3978729 3.5401077 1.3970947 5.2915039-.8310547.4672852-.5947266.8989258-1.2353516 1.3012695-1.9042969 3.8789063 1.9658203 7.7578125 3.9316406 11.6367188 5.8974609.8305664.4208984 1.671875.8496094 2.359375 1.4775391.4594727.4199219.8535156.9306641 1.40625 1.2177734.9682617.5019531 2.1401367.1904297 3.1826172-.1289063.0546875 1.2548828 1.6162109 1.7431641 2.84375 2.0097656 7.9462891 1.7265625 14.2021484 7.6435547 21.2924805 11.625 4.9838867 2.7978516 11.0708008 4.6328125 16.4365234 3.1035156.96875.1835938 1.9370117.3681641 2.9057617.5517578.8803711.1669922 1.9794922-.4013672 1.8989258-1.4472656-.1030273-1.3330078-.7768555-1.8964844-1.6821289-2.8535156-1.2021484-1.2695313-2.4042969-2.5400391-3.6064453-3.8095703-.0956802-.101593-.6545105-.6590271-.8466797-.7646484-8.5952148-4.7167969-17.1704102-9.4716797-25.7866211-14.1503906-1.4443359-.7841797-3.0878906-1.3564453-4.4804688-2.1914063-.9204102-.5517578-2.0698242-2.0703125-3.0810547-2.5107422-.5620117-.2441406-1.7963867.1044922-2.1103516-.1357422.0317383.0244141-.6704102-2.1650391-.6953125-2.2148438-.2353516-.4667969-.7910156-.7373047-1.2954102-.7421875-2.2011719-.0234375-3.9140625-3.1503906-5.9589844-1.9228516-3.1933594-1.5703125-6.3867188-3.140625-9.5800781-4.7119141 1.5058594-3.7285156 2.6435547-8.3085938-.3989258-9.7246094-4.347168-2.0244141-9.0351563 6.9570313-10.3994141 9.5888672-1.3969725 2.6943362-6.1684569 11.8320315-1.8837889 14.1923831zm21.7387695-6.2675782c.5629883.2773438 1.3691406.2900391 1.8178711-.234375-.7788086.9091797 3.3955078 2.6660156 3.5776367 2.8457031.6601563.6523438.4970703 1.3603516 1.3334961 1.9824219.9643555.71875 2.8476563 1.0693359 3.9375 1.6650391.1721268.0940857 31.6666412 17.0753479 31.7739258 17.1328125.0585938.0976563.1293945.1933594.2167969.2851563.7304688.7714844 1.4609375 1.5439453 2.1914063 2.3154297-1.1240234-.2128906-2.2480469-.4257813-3.3720703-.6396484-9.2695313-4.6523438-18.762207-9.0195313-27.8564453-14.0029297-1.4023438-.7685547-2.6855469-1.796875-4.1694336-2.3935547-.4667969-.1875-.9892578-.0957031-1.4511719-.3505859-.9638672-.5322266-.6572266-.7099609-1.3989258-1.2519531-1.9804688-1.4492188-2.2539063-.6708984-3.9262695-.1884766-1.1259766-1.359375-3.2514648-3.5859375-3.7436523-1.7285156.1674805-.6318359-.1083984-1.3681641-.6894531-1.6943359-3.2587891-1.8232422-6.5175781-3.6474609-9.7763672-5.4707031.1254883-.4746094.909668-2.5859375 1.2636719-3.3222656 3.423828 1.6835935 6.8476561 3.3671873 10.2714842 5.050781zm-11.352539-14.3544921c2.1347656.4541016-2.0302734 8.8486328-2.3984375 9.5947266-.6123047 1.1308594-2.7749023 5.6894531-4.6503906 7.3417969-.9426079-.0321655-1.4372406-.7752075-1.6254883-1.703125.6376953-2.7792969 2.6669922-7.1044922 2.762207-7.2900391.6860351-1.3271485 4.2827148-8.2900391 5.9121094-7.9433594z"/><path d="m53.4101563 202.3833313c-1.9267578.34375-3.8540039.6875-5.7807617 1.0302734-.6150169.1100159-1.0107422.5532837-1.1206055 1.0869141-.2363281 1.1650391-.40625 2.3417969-.6425781 3.5068359-.184021.9051361.4584122 1.8575287 1.3603516 1.890625.4707031.7978516.940918 1.5947266 1.4111328 2.3925781 1.8496094.1044922 3.8725586.2060547 5.7519531.3095703.0224609.0742188.0454102.1484375.0683594.2236328-1.5136719.8369141-3.0268555 1.6748047-4.5400391 2.5126953-1.0777283.5970612-.8512421 2.1585693-.2939453 2.6503906 1.1699219 1.0341797 2.3735352 2.0283203 3.5439453 3.0625.3442383.3037109.7880859.4482422 1.2172852.4130859 1.253418.5478516 2.4799805 1.1572266 3.6660156 1.8378906 2.4511719-.40625 4.9047852-.9658203 7.3564453-1.4248047.3969727.1914063.7939453.3818359 1.190918.5722656-.8139648 1.1523438-1.578125 2.3417969-2.4746094 3.4306641-.9869461 1.1977081.0011978 2.4211273.8071289 2.7099609 1.9677734.7089844 3.9355469 1.4169922 5.9033203 2.1259766.4785156.171875.8828125.0947266 1.1899414-.1191406 1.3149414.1230469 2.6303711.2460938 3.9458008.3691406 1.4287109-1.0888672 2.5698242-2.1142578 3.8759766-3.1757813 1.3911133.2939453 2.793457.5380859 4.2050781.7421875.5180664 1.5390625 1.0610352 3.0693359 1.5644531 4.6132813.2310486.7089233 1.2335739 1.3333282 1.8266602 1.3857422 2.1425781.1855469 4.2851563.3710938 6.4282227.5566406.7588959.0655975.9932709-.3363037 1.2006836-.5283203.7089844-.4179688 2.28125-.6835938 3.0986328-.7744141.6479492-1.6083984.8193359-3.0722656 1.4672852-4.6806641 3.7155762-.519104 2.9449615-.3859558 3.2548828-.4609375 1.8432617 1.0673828 3.5336914 2.3183594 5.0678711 3.8007813.4984589.6103058 1.4670105.719574 2.1582031.0595703 1.4824219-.6660156 2.7646484-1.6328125 4.1108398-2.5595703 1.4342117-.987381.2939072-2.1428223-.2631836-2.8427734 1.2124634-.5276337 2.40625-2.2418518 3.4394531-3.3212891 1.9755859.4482422 3.9257813.9902344 5.8520508 1.6376953.7573318.2542572 1.644577-.2310181 2.0732422-.7978516.7026367-.9287109 1.3974609-1.8632813 2.0400391-2.8349609.4073334-.6155243.2923279-2.1739349-.8833008-2.5488281-1.4174805-.453125-2.8110352-.9511719-4.1845703-1.5048828.1425781-.4658203.2856445-.9316406.4287109-1.3974609 1.5585938.1328125 3.6386719-.046875 5.1972656.0859375.0302734-.4716797-.0068359-1.1152344-.1508789-1.7041016.6884766-.3701172.8842773-1.2802734.5874023-1.9716797-.3753662-3.2460632-.3025818-3.5717163-.7729492-4.1289063-.1513672-.3378906-.4614258-.5996094-.9731445-.6708984-2.0629883-.2861328-4.112793-.5576172-6.1899414-.6611328-.4267578-.5839844-.8378906-1.1796875-1.2407227-1.7802734.8051758-.34375 1.7114258-.6357422 2.5429688-.8310547-.1464844-.4941406-.2924805-.9873047-.4389648-1.4804688.6363297-.6400909.5631866-1.6372681-.324707-2.3193359-.9897461-.7597656-1.9755859-1.9121094-2.9526367-2.8125-.1082764-.1004486-.8292313-.6778259-1.4077148-.7011719-1.8417969-.0722656-3.6572266.0498047-5.4755859.3115234-1.5854492-.7558594-3.1704102-1.5126953-4.7558594-2.2685547.3120117-.40625.6240234-.8115234.9360352-1.2177734.4373627-.5687408.2523651-1.7057953-.8012695-2.1816406-1.8212891-.7949219-3.6420898-1.5908203-5.4628906-2.3867188-.7390137-.3208008-1.2144012-.2631378-1.6391602-.0341797-1.234375.6660156-2.3813477 1.4804688-3.4311523 2.4091797-2.0136719-.7490234-4.1123047-1.2236328-6.2470703-1.4765625-.3100586-.8310547-.6201172-1.6611328-.9301758-2.4912109-.2443619-.6547852-.7859192-1.1041107-1.6074219-1.1220703-2.0722656-.0439453-4.137207-.171875-6.199707-.3759766-.8220749-.1866302-1.6351929.3559265-1.7910156 1.0566406-.1650391.7421875-.3300781 1.4833984-.4951172 2.2255859-1.828125.1220703-3.6557617.2441406-5.4838867.3652344-1.2104492-1-2.4213867-2-3.6318359-3-.6201172-.5117188-1.4975586-.6074219-2.1083984-.0097656-1.3623047.5361328-2.7495117.9863281-4.1777344 1.3222656-.7495117.1757813-1.0678711.7431641-1.0668945 1.3330078-.2705078.4648438-.3447266 1.0664063-.0131836 1.4980469.3740234.4873047.7485352.9755859 1.1230469 1.4628906-1.0004883.5849609-2.0390625 1.0996094-3.1201172 1.5244141-.1899414.0751953-.3652344.1757813-.5175781.2988281-1.7670898-.4560547-3.534668-.9111328-5.3017578-1.3671875-.5322266-.390625-1.2807617-.4677734-1.8828125.1386719-1.0727539 1.0800781-1.9858398 2.3095703-3.0585938 3.3896484-.9633789.9697266-.1835938 2.3095703.8374023 2.5292969 1.2641602.4345703 2.5283203.8691406 3.7924805 1.3037109-.2290043.59668-.4580082 1.1933597-.6870121 1.7890628zm62.6601562-2.0361328c.4628906.4335938.9140625.8779297 1.3676758 1.3193359-.5395508.1855469-1.0800781.3691406-1.6206055.5537109-1.2331085.4207611-1.2974091 1.8876343-.515625 2.8945313 1.2192383 1.5693359 2.2119141 3.2998047 3.4321289 4.8710938.3833008.4931641 1.1113281.5322266 1.6694336.2929688 1.5883789.0771484 3.1582031.2539063 4.734375.4658203.0415039.3710938.0854492.7421875.1269531 1.1142578-1.6469727-.0244141-3.2939453-.0478516-4.940918-.0712891-.8046799-.011795-1.3735123.6259766-1.543457 1.2011719-.4487305 1.5166016-.8974609 3.0341797-1.3461914 4.5517578-.2802734.9472656.3383789 1.6142578 1.0830078 1.796875 1.7597656.8271484 3.5561523 1.5507813 5.387207 2.1914063-.1855469.2578125-.3745117.5136719-.5639648.7685547-2.4648438-.7939453-4.965332-1.4326172-7.5146484-1.9052734-1.0189896-.1900177-1.6422119.0947418-2.0039063.3886719-1.1889648.9638672-2.3779297 1.9287109-3.5668945 2.8925781-1.1938019.2087402-1.6788864 1.475235-.8334961 2.5283203.597168.7441406 1.1938477 1.4882813 1.7910156 2.2324219-.6123047.4414063-1.2446289.8476563-1.9135742 1.171875-1.5883789-1.4257813-3.3193359-2.6796875-5.1821289-3.7294922-.4516449-.2548981-1.3051529-.2059479-1.4082031-.1923828-2.4135742.3134766-4.8266602.6259766-7.2402344.9394531-.7739716.1009521-1.2678986.3119354-1.4970703 1.0761719-.4277344 1.4277344-.855957 2.8564453-1.2836914 4.2841797-1.4775391-.1279297-2.9545898-.2558594-4.4321289-.3837891-.5327148-1.5898438-1.0957031-3.1689453-1.6157227-4.7636719-.2446671-.7486725-.6521683-1.033432-1.1860352-1.1054688-3.1337891-.4238281-6.2133789-1.0683594-9.2539063-1.9384766-.8276367-.2363281-1.4418945.2060547-1.7075195.8164063-1.1025391 1.0820313-2.2802734 2.0712891-3.5371094 2.96875-1.1547852-.4160156-2.309082-.8320313-3.4638672-1.2470703.7709961-1.1005859 1.5058594-2.2275391 2.3598633-3.265625.8279953-1.0069733.279068-2.2371216-.5605469-2.640625-2.0180664-.9707031-4.0361328-1.9404297-6.0546875-2.9111328-.2103195-.1011963-.7411652-.269455-1.1723633-.203125-2.4428711.3798828-4.8857422.7587891-7.3291016 1.1386719-.5512695-.4785156-1.1025391-.9580078-1.6572266-1.4326172 1.3168945-.7285156 2.6337891-1.4580078 3.9506836-2.1865234.8561745-.4742279.903717-1.386673.4799805-2.2753906-.3681641-.7773438-.5673828-1.6220703-.8242188-2.4482422.5073242-.8056641.3691406-1.9638672-.8066406-2.1240234-2.2661133-.3076172-4.5317383-.6162109-6.7978516-.9248047.0522461-.2988281.1103516-.5976563.1645508-.8964844 1.887207-.3359375 3.7739258-.671875 5.6606445-1.0087891 1.0351105-.1838837 1.016819-.9784241 1.1738281-1.3837891.4213867-1.0986328.8427734-2.1962891 1.2646484-3.2949219.3702049-.9662476-.9779434-2.2661285-1.4921875-2.4423828-.8891602-.3066406-1.7783203-.6123047-2.6674805-.9179688.2587891-.3007813.5200195-.5996094.7856445-.8945313 1.9423828.5009766 3.8852539 1.0019531 5.828125 1.5029297.7587891.1953125 1.3359375-.1679688 1.6352539-.6962891 1.5483398-.6318359 3.0371094-1.3710938 4.4443359-2.2822266.5704041-.3686981 1.3474045-1.8046722.7568359-2.5751953-.3154297-.4101563-.6308594-.8212891-.9458008-1.2324219.9023438-.2636719 1.793457-.5625 2.6694336-.9101563 1.0419922.8603516 2.0834961 1.7207031 3.1254883 2.5820313.2265625.3789063.6357422.6376953 1.230957.5976563 2.3129883-.1542969 4.6264648-.3085938 6.9399414-.4628906.5197678-.0335846 1.5608673-.4060211 1.7451172-1.234375.1420898-.6386719.2841797-1.2773438.4262695-1.9160156 1.4882813.1308594 2.9790039.2226563 4.4726563.2705078.2705078.7246094.5410156 1.4492188.8115234 2.1748047.2844696.7563629.6801147 1.2744598 1.4882813 1.3417969 2.3647461.1962891 4.8535156.6953125 7.0385742 1.6445313.7205811.3134003 1.4013596.0680847 1.9682617-.4726563.8222656-.7822266 1.7202148-1.4394531 2.6870117-2.0146484 1.1308594.4941406 2.262207.9882813 3.3930664 1.4824219-.1660156.2158203-.3320313.4316406-.4980469.6474609-.3143692.4099274-.6285782 2.2256927.4848633 2.7568359 2.1074219 1.0048828 4.2143555 2.0097656 6.3212891 3.0146484.3113556.1484528 1.063118.2519836 1.4038086.1972656 1.5488286-.2470703 3.1088872-.3232421 4.6743169-.2871093z"/><path d="m88.8129883 195.9438782c-7.3916016-.7314453-22.878418.4570313-23.9204102 10.5126953-.987793 9.53125 12.6503906 13.953125 19.7402344 14.9775391 9.9474411 1.437439 24.944191-.8641663 25.6166992-10.2792969 1.6583786-8.3894501-11.1888885-14.1977539-21.4365234-15.2109375zm-.7495117 24.3398437c-13.4580383-.7984924-26.8122292-8.6586151-20.1171875-17.4951172 1.7452698-.795578 6.7076111-4.0325317 18.6044922-2.9169922 9.4954834.8918457 20.5239792 4.129303 21.3310547 13.6357422-3.3369141 6.1806641-13.7216797 7.1386719-19.8183594 6.7763672z"/><path d="m202.7993164 154.323761c6.7587891-2.7392578 13.7543945-4.8232422 20.5131836-7.5625 1.7661133-.7158203.9941406-3.6191406-.7973633-2.8925781-6.7592773 2.7392578-13.7543945 4.8232422-20.5131836 7.5625-1.7661133.7158203-.9941406 3.6191406.7973633 2.8925781z"/><path d="m258.0791016 169.6850891c.2827148-.1357422.5703125-.2617188.8525391-.3974609 1.737793-.8408203.2182617-3.4277344-1.5141602-2.5908203-23.0747375 11.1519775-48.6464691 18.9174805-51.3188477 20.2929688-.8476563-5.4648438-2.9116211-10.9326172-4.9003906-16.0576172-1.8178711-4.6845703-3.6757813-9.6630859-6.2724609-13.9707031-1.315918-2.1835938-3.7060547-5.4765625-6.4589844-5.8974609-3.8847656-.5927734-4.2592773 3.078125-3.6396484 6.4980469-4.199707-3.0878906-8.628418-5.8916016-13.0595703-8.5761719-5.6611328-3.4287109-11.0014648-5.2714844-17.3232422-3.6044922-.503418-4.2880859-1.5341797-8.6132813-2.7353516-12.8769531 6.7559357-.1657257 62.0673523-1.4047546 65.2021484-9.1025314.8193817-1.0361557-.3734589-2.8675079-1.3994141-3.6953125-17.4833984-14.1806641-34.8125-28.1875-55.125-39.3125 0-.375-.0625-1.375-.0625-1.75-.9980469-.6660156-1.996582-1.3320313-2.9951172-1.9970703-.2531586-.4090958-.530777-.5119858-.824707-.6357422-1.8056641-.7529297-3.6206055-1.4052734-5.4404297-1.9892578.1079102-.2070313.1679688-.4570313.1430664-.7597656-.2993164-3.6855469-.0874023-7.9990234-.9516602-11.5761757-.2734375-1.1307602-.7740326-2.3578987-1.7963867-2.9316406.0449219-.3823662.0730591-.073204-1.0791016-5.7275391 1.7978516.3320313 2.5356445-2.4521484.6948242-2.9082031-.4702148-.1162109-.9414063-.2207031-1.4125977-.3271484-.0184326-.3293877-1.3173065-4.432373-1.3505859-4.5332031-.6025391-1.8242188-3.5009766-1.0429688-2.8930664.7978516.3364258 1.0175781.6362305 2.0449219.9501953 3.0683594-8.3374023-1.4755859-16.7138672-1.3867188-24.9868164.4277344.7729492-2.4150391 1.5458984-4.8291016 2.3188477-7.2441406 6.4248047-3.03125 13.2456055-3.4560547 20.0297852-1.2890625 1.84375.5888672 2.6328125-2.3066406.7978516-2.8925781-1.1005859-.3515625-2.2021484-.6318359-3.3027344-.8554688.0687256-.5905418-.7514496-5.533947-.9404297-14.5107403-.0405273-1.9277344-3.0405273-1.9345703-3 0 .0991211 4.7011719.4101563 9.3837872.9331055 14.0566387-2.8779297-.2861328-5.7416992-.1435547-8.5625.4130859.003418-4.3691406-.605957-8.7158184-.581543-13.0859356.0112305-1.9316406-2.9887695-1.9335938-3 0-.0075226 1.3418369.6324158 13.7060604.668457 13.8134747-1.6376953.4951172-3.2583008 1.1220703-4.8535156 1.8964844-.4146194.2012367-.7481079.6159973-.8779297 1.0214844-3.0601349 9.5585442-2.9534531 9.0185738-2.8818359 9.4863281-.4057617.1113281-.8120117.2177734-1.2172852.3388672-1.8208008.5400391-1.0795898 3.3564453.7226563 2.9072266-.3484573 5.0572853-.3844528 4.9365807-.2475586 5.3203125-4.5083542 1.991787-3.3780746 9.9370308-3.1201172 14.8906288.0043945.0908203.0214844.1728516.0385742.2558594-1.8203125.5732422-3.6362305 1.2099609-5.4433594 1.9365234-.6248169.2418594-1.2855988.4371185-1.3222656 1.4462891-.0546875 1.5009766-.171875 2.9990234-.2558594 4.4980469-17.5498047 12.8232422-36.0527344 24.3105469-54.4277344 35.9003906-2.246582.7675781-4.0756836 1.8466797-4.7919922 3.4287109-2.0932617 4.6191406 7.5058594 6.1005859 10.0063477 6.6152344 14.5229416 2.9885178 34.6711197 3.9502792 50.8413086 4.4882736-2.2540054 5.2266846-4.355629 10.6234589-5.0966797 16.3681641-.6455078 5.0097656-.1821289 10.2558594 2.0375977 14.7949219 2.7084885 5.5397186 8.1691742 9.7688599 14.3134766 9.7216797.8569336.3310547 1.7402344.6210938 2.6689453.8388672-.743454 2.7613983.329277 5.0920105 4.668457 6.0810547-2.3555145 3.7710876-.5014267 8.8749695 3.6586914 10.3945313-.4257813 1.0322266-.5556641 2.1240234-.4291992 3.1875-.6396484 3.6318359 3.6445313 8.1503906 6.8920898 8.2714844-1.2900391 1.2285156-.6196289 3.5273438.2963867 5.0556641.9160156 1.5273438 1.8696289 2.40625 3.453125 3.2236328 9.4248047 4.8642578 20.8837891 3.3125 30.9746094.046875 10.0913086-3.265625 18.8916016-8.0107422 26.1533203-15.7421875 1.1542969 3.3144531 4.8549805 5.53125 8.3222656 4.9833984s6.3046875-3.796875 6.3808594-7.3066406c15.9604492-6.4003906 29.597168-11.1669922 45.5576172-17.5673828.6533204-1.6982428 1.7680665-3.5654303 2.3154298-5.0546881zm-104.0180664-11.8564453c2.3544922.8144531-.1333008 3.6777344-1.2539063 4.3095703-.0087891.0048828-.0195313.0078125-.0283203.0126953.5463867-1.4208984.9716797-2.8623047 1.2822266-4.3222656zm-5.1811524 5.6982422c-5.5727539 1.7519531-11.4995117 2.3007813-17.2211914 3.5341797-1.2783203.2753906-2.7275391.5654297-4.1674805.96875-7.3847656.3134766-14.7666016-4.0068359-18.0517578-10.5839844-1.4472656-2.8974609-2.1123047-6.0859375-2.3525391-9.3291016.424202-4.3968201 2.5473175-11.36586 3.9003906-15.5839844 4.199707.1083984 8.4003906.1796875 12.6010742.2158203-.0681534 4.629303-.324501 9.1593475-.7280273 13.8984375-5.9007339.8058624-8.588829.8972321-10.0131836 2.5927734-4.2602539 5.0722656 3.7871094 13.8710938 8.9414063 8.3681641 1.972168-2.1054688 2.5180664-6.0263672 2.7148438-9.7070313 2.1035843-.1487579 4.3092346-.4399872 7.3295898-.3203125-.3701172 3.4960938-.4072266 7.0205078.8974609 9.8203125 3.1748047 6.8125 14.3842773-2.6992188 9.7866211-8.1396484-1.8461914-2.1845703-5.4047852-2.9179688-8.7236328-3.1357422.4272461-4.4443359.7495117-8.8964844.9985352-13.3535156 6.0768738-.0343475 10.0649872-.1145477 13.8999023-.1933594 3.053711 10.5087892 5.0942383 21.5009767.1879883 30.9482423zm-15.2402344-15.8554688c1.253418.0742188 2.7265625.1982422 3.7255859.6972656.5195313.1669922 1.0390625.3330078 1.5585938.5.4394531 2.4414063.8789063 4.8828125 1.3183594 7.3242188-1.1499023 2.0498047-5.2353516.9970703-6.3813477-.3710938-.5678711-.6787109-.5292969-2.828125-.5498047-3.6142578-.040039-1.5097656.1582032-3.0302734.3286133-4.5361328zm-1.6284179-1.6201172c-2.8419189-.0522461-5.0274048.0930176-7.4448242.375.2772293-8.1539307.4341202-8.1182556.5161133-13.6650391 2.7407227.0185547 5.4814453.0253906 8.2216797.015625-.5109712 9.1307832-.6379701 8.1849061-1.2929688 13.2744141zm-9.2875977 1.9716797c-.0541992.5507813-.1005859 1.1025391-.1660156 1.6513672-.1425781 1.2021484-.2773438 2.4296875-.5664063 3.6074219-.730957 2.9726563-.4770508 2.65625-4.2114258 2.6943359-2.5932617.0263672-4.3876953.2792969-4.1865234-2.8027344.1171875-1.7900391 1.5244141-3.3837891 3.2397461-4.0947266 1.6347656-.6767577 3.8310547-.9072265 5.890625-1.055664zm-5.0356445-95.2246055c8.8061523-2.1445313 17.6621094-2.2373047 26.5454102-.4599609-.0103149.291172-.0662537-.0822411 1.0742188 5.5097656-10.5883942-1.6146507-18.1523285-.827774-27.9897461.3662109.1235351-1.796875.2778624-4.0619926.3701171-5.4160156zm-11.8500977 31.7187538c1.4056091-.1357574 1.082428-.1399078 1.1733398-.1601563 10.6264648-2.4042969 21.4760742-4.0175781 32.3876953-3.171875.9624023.0751953.9575195-1.4257813 0-1.5-10.8256836-.8388672-21.6113281.7324219-32.1611328 3.0869141.0595703-1.3925781.1591797-2.7841797.2373047-4.1757813 15.671875-6.0957031 31.6899414-6.3056641 47.3266602-.0449219.2314453 1.0341797.5585938 2.0488281.6860352 3.0966797.081543.6699219.4609375 1.2587891 1.0927734 1.4384766.0874023.1064453.1865234.2080078.3120117.2978516 16.184082 11.5712891 33.6201172 21.40625 49.4960938 33.4072266-36.4820099-5.4659958-100.0848312-7.1370697-143.5200195-1.0898438-1.1176758.15625-2.8505859.2998047-4.8007813.5244141 16.1713867-10.1875 32.3393555-20.4316407 47.7700195-31.7089844zm21.409668 96.9355392c.144043-.2099609.2211914-.4179688.2490234-.6181641.807724.1279144 8.132843-.3292999 11.4560547-1.1904297 1.8676758-.4833984 1.0761719-3.3779297-.7973633-2.8925781-6.0449066 1.5659332-8.7177734 1.0719604-9.2353516 1.0966797-1.422142-.0862122-4.4854813-.3072968-5.2519531-1.5039063-2.1904984-3.4160156 2.397583-4.9680328 6.3530273-5.8876953 9.3672791-2.1799622 26.4171295-3.2210236 28.0297852-9.9707031.6591797-2.7597656-.71875-4.8955078-3.3681641-5.6142578-.046875-.0126953-.0898438-.0146484-.1357422-.0224609.2412109-2.1123047.2788086-4.2529297.1611328-6.4091797 6.9135742-1.9658203 12.5375977 1.0664063 18.3178711 4.9414063 5.5654297 3.7324219 11.1953125 7.0888672 16.230957 11.5634766 1.4389648 1.2783203 3.5683594-.8359375 2.121582-2.1210938-.800293-.7119141-1.6181641-1.4042969-2.4467773-2.0839844-.0102539-.0205078-.0141602-.0410156-.0253906-.0615234-.7241211-1.3662109-3.1875-5.9804688.5336914-5.6884766 1.3071289.1025391 2.652832 3.0810547 3.3178711 4.2167969 2.5893555 4.4228516 4.4418945 9.5078125 6.2207031 14.2939453 1.5136719 4.0732422 2.9477539 8.2617188 3.8525391 12.5195313.2680664 1.2617188 1.7368164 5.9863281-1.3881836 5.7939453-.956543-.0595703-3.0063477-3.8388672-3.2548828-4.5703125-.1860352-.5488281-.5810547-.8574219-1.0229492-.9746094.6967773-.9921875 1.3647461-2.0009766 1.9755859-3.0419922.9799805-1.6679688-1.6123047-3.1796875-2.590332-1.5136719-6.3554688 10.8232422-17.949707 18.71875-29.7675781 22.5849609-5.727066 1.8733826-17.9512787 3.8091125-23.5913086 2.265625-1.2924805-.3544922-5.0800781-1.4912109-5.1572266-3.2138672-.0464478-1.0422211 3.1875763-2.8604431 3.5737305-3.3261719 1.9306641-.34375 3.8232422-.8310547 5.5522461-1.2441406 1.8769531-.4492188 1.0825195-3.3427734-.7973633-2.8935547-2.6586914.6357422-5.4296875 1.3623047-8.1748047 1.4912109-3.1201172.1455078-10.394043-2.0517578-6.8764648-6.3720703 2.2098541-.1006927 8.000412-1.2913208 12.7832031-2.0214844 1.9023438-.2900391 1.0942383-3.1806641-.7973633-2.8925781-10.8493042 1.6531982-12.6929321 2.7448273-14.965332 1.2617188-2.0776367-1.3564453-2.4125976-3.9648437-1.0844726-5.9003906z"/><path d="m215.4799805 236.95755c.5556641-.1103516 1.1113281-.2216797 1.6669922-.3320313.7949219-.1582031 1.2509766-1.1044922 1.0473633-1.8457031-.2275391-.828125-1.0478516-1.2060547-1.8447266-1.046875-.5556641.1103516-1.1113281.2207031-1.6669922.3320313-.7949219.1582031-1.2514648 1.1044922-1.0478516 1.8447266.2275391.8291015 1.0478516 1.2070312 1.8452149 1.0478515z"/></g></g></svg>