<svg id="Layer_1" enable-background="new 0 0 300 300" height="512" viewBox="0 0 300 300" width="512" xmlns="http://www.w3.org/2000/svg"><g id="User_Profile"><g><path d="m252.3916016 100.9905167c.6171875-1.0263672-.1411133-1.9931641-1.0439453-2.1914063-.1201172-.2158203-.3051758-.4121094-.5844727-.5605469-20.7094727-11.0390625-43.7431641-12.6708984-65.9790039-18.8076172-.6206055-14.9052734.1396484-29.9599609 4.5083008-44.1582031.3310547-1.0761719-.5097656-1.7890625-1.3828125-1.8378906-.4291992-1.0224609-.8476563-2.0908184-.9238281-3.435545l-.0107422-.1816406-.1767578-.0458984c-2.8183594-.7236328-5.6611328-1.0839844-8.7910156-1.1650391-.1904297-1.9101563-.5898438-3.7685547-1.7602539-5.0234375-.3691406-.3964844-.949707-.5107422-1.4594727-.3857422-34.2438354 8.3480625-66.41642-7.0604687-104.4902344 0-.3193359.0585938-.5561523.1943359-.7299805.3701172-.9458008-.1054688-2.0219727.6445313-1.6977539 1.8447266.0595703.2197266.1083984.4404297.1660156.6611328-2.2227249 2.854126-2.4784622 3.190073-3.3769531 4.3476563.2812042 1.4602108 1.205162 5.7662373 2.3115234 12.7148418-1.2695313-.2666016-2.5351563-.5498047-3.7949219-.8583984-1.1947861-.2929726-1.8590469.6832771-2.3803711 1.7919922-2.9169922 1.7685547-5.5732422 4.0253906-7.8383789 6.6738281 1.8496094 20.4501953-.9902344 41.9306641 1.9897461 62.2402344 2.365303 16.1865463 7.7032623 28.9061966 6.8041992 42.2109451-.3027344 4.4726563-1.4042969 9.0400391-1.4042969 13.4990234 0 1.012146.7008781 1.3469849 1.5864258 1.5556641 9.1747818 2.3551941 35.6132431 6.0266876 67.3232422 5.9658203-.4172211 1.2779083-.6066589 1.6936188 1.1801758 2.7412109.8325195 2.5273438 1.6645508 5.0546875 2.4970703 7.5830078 31.8964844 11.09375 63.9819336 22.0019531 96.3510742 31.4326172 5.2299805-35.8769531 12.8110352-72.046875 24.8374023-106.0429764-1.3530273-2.9921875-1.9272461-6.5625-2.2866211-9.8583984zm-3.3212891-.2509766c-9.0668945 15.5712891-13.6469727 32.7968826-16.8383789 50.4423904-1.7109375 9.4580078-3.1015625 18.9736328-4.9858398 28.4003906-.9277344 4.6396484-1.9672852 9.2587891-3.2304688 13.8193359-.9819336 3.5449219-1.8486328 7.8681641-3.6606445 11.2070313-29.6152344-9.1699219-60.9169922-12.1630859-88.0576172-28.0371094.0449219-.125.0800781-.2519531.1274414-.3769531 10.5600586-.0800781 21.1186523-.4541016 31.8217773-.9208984 1.0322266-1.5341797 1.9892578-3.2763672 3.0102539-4.8330078.2666016-.0009766.5327148-.0068359.7993164-.0068359.6796875-.0009766 1.2470703-.46875 1.4467773-1.1015625.7797852-2.4736328.8007813-5.2109375.8686523-7.8320313 4.6083984-.2568359 9.2236328-.4414063 13.8476563-.5029297.0039063.0009766.0078125.0019531.0117188.0039063-.1000061.075592-.6309204-.1703644 28.9765625 8.4091797.2607422.0751953.4970703.078125.7114258.0351563.0932617-.0068359.1845703-.0224609.2729492-.046875 1.8427734.6591797 3.7011719 1.2880859 5.5722656 1.8242188.7895508-8.4013672-1.4580078-15.9423828-4.956543-23.5263672-4.1701355-9.0404968-14.4322815-17.1855469-25.5854492-17.1855469-.7016602-10.5712967-1.9936523-21.0927811-3.012207-31.6357498-.519043-5.3710938-.9794922-10.8222656-1.2758789-16.3027344 21.6196289 5.8310546 44.0078125 7.4980468 64.1362305 18.1669921zm-36.6977539 65.3046951c-33.9728546-9.8431091-21.0648193 2.0741272-22.9682617-32.5351563 16.8657226.2128907 24.7558594 17.3496095 22.9682617 32.5351563zm-29.5200195-70.9980545c.8852692 9.8955154 5.9781952 51.7678909 3.2392578 62.9316483-33.6113281.0576935-68.7490311 8.0728607-103.5112305.0761719 3.1739044-61.0682144-5.9029007-98.2859955-.1269531-120.7451248 0 0 .1551437-1.1668587.4838867-1.2617188 2.9936981-.8660622 7.6646118 5.0280609 43.3696289 1.1621094 19.9628906-2.1621094 39.7075195-5.0224609 59.6787109-1.2832031-5.512207 19.0253906-4.8774414 39.6230468-3.1333007 59.1201171zm-10.584961-68.1826153c1.4023438-.3886719 1.7758789-.8300781 2.3066406-.0732422.2919922.4169922.4453125 1.0771484.5375977 1.8212891-.1018677.0030918-92.7230606 3.8695316-93.3168945 4.1796856-2.457634.2767143-2.5338135 5.9229088-2.6630859 6.9648438-1.9057922 15.3462448-1.7296219 29.7336807-.7832031 45.0898438.5371094 21.1962891.4643555 42.3330078-1.9799805 63.349617-1.847168-.0439453-3.6943359-.0595703-5.5371094-.0664063-1.0551758-4.3496094-.6357422-9.5537109-.6137695-13.9248047.0799866-15.8779449 2.3872528-32.1145706 3.8598633-47.7734451 1.9113464-20.3273849 2.1278992-40.5774651-2.9438477-60.3466797 35.4769058-6.5630284 74.4361724 8.1627082 101.133789.7792987zm-110.7114258 40.7998028c.1300468-4.8080864 1.3143921-22.2399101 1.9355469-22.5087891-.1000328.0410423 2.3126068.8119774 3.9555664 1.1279297 7.1456909 47.4387512-.6070328 59.6368637-.2226563 90.7851639.0517578 4.1777344-.2680664 8.9482422.9951172 12.9550781.2001953.6337891.7695313 1.0986328 1.4467773 1.1005859 2.105957.0078125 4.2216797.0146484 6.3359375.0605469-.1816406 1.4199219-.3647461 2.8369141-.5664063 4.2597656 1.7993164 1.4404297 2.3959961 1.8046875 4.1269531 3.2236328-.0220871.9668579.1140137 1.7904358 1.0844727 2.0224609 28.9169922 6.9453125 57.6875 2.7871094 86.7226563.9873047-.043457 1.9140625-.0771484 3.9150391-.4765625 5.7666016-34.7363281.2373047-69.0927734 7.9785156-103.5131836.0595703.1645508-4.0732422 1.09375-8.2529297 1.3701172-12.3085938 1.8753739-27.5543288-4.0513724-55.7797926-3.1943359-87.5312575z"/><path d="m196.2583008 126.7102432c1.9524384.7354813 5.2146912 2.0826035 8.96875.6582031 3.9541016-1.4980469 6.9907227-5.4287109 7.5976563-9.8330078.4741211-3.4384766-.5546875-7.0449219-2.6367188-9.7167969-1.1323242-2.7050781-3.1586914-4.9306641-6.2949219-5.9082031-6.440918-2.0048828-12.3984375 3.2617188-14.0727539 9.1933594-1.6420898 5.8173828.3251953 13.3095703 6.4379883 15.6064453zm-3.5449219-14.8095703c1.2426758-4.3232422 5.5024414-8.7050781 10.3818359-7.0966797 5.0317383 1.6582031 5.9023438 7.6894531 4.8608398 12.1230469-1.4389648 4.2548828-5.355957 8.7529297-10.3823242 7.0976563-4.8696288-1.6054688-6.1176757-7.75-4.8603515-12.1240235z"/><path d="m163.4985352 233.1165009c3.7624359-3.3445435 3.1144104-9.6280212 2.6518555-10.5351563-1.5332794-5.03685-9.240036-6.5959473-15.9056549-5.4111023-5.8094788 1.0326691-10.8280792 4.1496735-10.2794037 8.8652039.8209533 7.0475158 19.6652831 10.5190429 23.5332031 7.0810547zm-.2148438-9.6503907c-.269043 3.4492188-5.7177734 4.8496094-8.3388672 5.3076172-3.1972656.5576172-11.1992188 1.0117188-11.2255859-3.4140625-.0366211-6.055664 17.6469726-7.8759765 19.5644531-1.8935547z"/><path d="m129.7763672 100.3137589c5.2245941.3123398 13.458786-5.1077652 12.3461914-13.578125-.8701172-6.6240234-5.7392578-13.0878906-12.9399414-12.7480469-8.0060501.3774796-11.4929428 6.5339737-11.4200974 12.8004532.0805817 6.9328765 4.5182648 14.0003738 12.0138474 13.5257187zm-.9697266-23.2529297c5.0864258-.4892578 8.5761719 3.3759766 9.8925781 7.9902344 1.8007813 6.3144531-2.4511719 11.8554688-8.9228516 12.2626953-5.9943314-.3460846-9.1767807-5.4974365-9.2110825-10.5244904-.0317076-4.6471253 2.6268617-9.1880264 8.241356-9.7284393z"/><path d="m128.9174805 105.1565323c-15.9414063 2.6328125-27.7353516 15.0917969-29.1010742 31.1875076-.0501251.594101.4740753 1.5176849 1.4873047 1.4990234.9171524-.0169067 49.3132477-1.2384949 59.9223633-1.5087891.8886261-.0241394 1.6259308-.5333862 1.5-1.5-2.2016602-16.9238357-15.3828126-32.7207107-33.8085938-29.6777419zm-1.8432617 3.421875c16.8256836-4.015625 29.7368164 9.1269531 32.4306641 24.7988358-18.8320313.4794922-37.6640625.9511719-56.4960938 1.4238281 1.7392578-13.0361405 11.1738281-23.1455155 24.0654297-26.2226639z"/><path d="m139.5981445 278.32547c2.4311523.2080078 5.4970703.7861328 7.6660156-.0576172 3.6453857-1.4178772 37.1234131-28.3617096 37.2236328-28.4423676 9.0795898-7.3085938 19.4692383-13.5546875 31.1230469-13.3300781 1.2255859-3.1855469 2.4511719-6.3701172 3.6767578-9.5556641 1.9724579-.7936554 1.3789978-2.93573-.1303711-3.2822266-13.7426758-3.1347656-26.8964844-7.8212891-40.3574219-11.8994141-14.0893555-4.2675781-28.5161133-6.0615234-43.1938477-6.6728516-.5583191-.0253906-1.004837.0529633-1.3588867.5029297-36.7337952 20.4163666-40.4570999 33.4000397-79.2597656 50.3144531-1.2661133.5517426-.7578125 2.4872894.4316406 2.7460785-3.2827148 2.4150391-5.7084961 6.2060547-9.5405273 7.5566406 33.2016602-.5185545 61.3496094 14.7919924 93.7197266 12.1201174zm-43.4282226-43.0781098c12.7397461-10.0048828 25.5371094-19.2705078 39.7319336-27.1484375 14.7001953.6298828 29.0610352 2.5283203 43.1479492 6.8730469 11.8647461 3.6591797 23.5239258 7.6777344 35.5668945 10.6728516-27.7558136 11.7450714-34.7243805 21.625885-49.0341797 34.7548676-2.3342896 2.1419067-17.1491241 14.7548828-20.1162109 15.4580078-1.0424805.2470703-3.4599609-.4179688-4.6518555-.4794922-28.3130951-1.4537964-41.4359894-7.7185059-79.9321289-18.8613281 12.5791016-5.8046723 24.3261719-12.6611176 35.2875977-21.2695161z"/><path d="m148.4360352 266.1233215c2.8964844-2.8222656 5.5263672-5.4521484 7.6547852-8.8896484 2.128418-3.4384613 2.6552734-6.1386566 1.9755859-10.1240082-2.3479156-13.7690887-41.2358398-19.9211731-54.2050781-.9882813-.3696289.5400391-.3125 1.0654297-.0400391 1.4677734.5061035 1.0845033 16.8330154 5.510254 44.6147461 18.5341645zm5.3422851-19.753891c.9201965 4.4019318-4.5353851 9.8545074-4.9794922 9.9531097-.779068.1728516 4.1092072 1.0368042-41.0620117-10.3408051 12.5518875-14.6398772 44.0358276-9.2224272 46.0415039.3876954z"/><path d="m124.8149414 49.6672745c.6796875-1.3847656 1.9238281-2.2617188 3.3676758-2.4736328.2235565.2698364.4255981.3545303.8447266.5927734.3837891 1.9228516.4047852 3.8476563.0004883 5.7978516-.1953125.9414063 1.2504883 1.3447266 1.4462891.3984375.3647461-1.7587891.4287109-3.5087891.2226563-5.2519531 2.8164063 1.5927734 5.6323242 3.1865234 8.4472656 4.78125.0371094 2.5351563.5429688 4.9716797 2.3500977 5.3955078 4.9576721 1.1644936 7.4746552-19.175518 2.8710938-20.2001953-2.1318359-.4746094-3.3212891 2.1289063-3.9951172 4.7539063-3.4765625.6298828-6.9824219 1.0371094-10.5195313 1.2558594-.5976563-1.9306641-2.0610352-3.4423828-3.9638672-4.1826172-.8999023-.3505859-1.2895508 1.0996094-.3984375 1.4462891 1.4365234.5595703 2.4711914 1.7451172 2.9306641 3.1767578-.1674805.1513672-.2905273.3369141-.3823242.5380859-1.9145508.2529297-3.6484375 1.4443359-4.5166016 3.2148438-.4238283.8632811.8696287 1.6240233 1.2949217.7568358zm14.4926758.4902344c-1.6621094-.9414063-3.324707-1.8828125-4.9873047-2.8232422 1.8198242-.1943359 3.6318359-.4443359 5.4370117-.7460938-.0996246.6798058-.3444671 2.5222092-.449707 3.569336z"/></g></g></svg>