<svg id="Layer_1" enable-background="new 0 0 300 300" height="512" viewBox="0 0 300 300" width="512" xmlns="http://www.w3.org/2000/svg"><g id="Values"><g><path d="m24.7001686 188.7510834c-.171875.2294922-.269043.5332031-.2382813.9169922.4233398 5.2617188 6.8383789 7.78125 11.0673828 9.3291016 10.3330078 3.78125 21.855957 4.8349609 32.782711 4.8408203 10.8725586.0068359 22.269043-1.078125 32.6074219-4.6347656 4.3969727-1.5126953 11.4804688-4.0332031 11.9394531-9.5351563.0078125-.0957031.0024414-.1816406-.0043945-.2666016 2.4501953-1.2861328 4.6103516-3.0732422 5.1166992-5.7148438.0805664-.1904297.121582-.4130859.1010742-.6748047.0200195-.2519531-.0166016-.46875-.0913086-.6542969-.5522461-2.9101563-3.1445313-4.7304688-5.7729492-6.0146484-17.1835938-33.7177734-33.2006836-68.0136642-50.383297-101.7314377 3.8240776-2.7616501 11.785038-2.8363724 20.7963829 5.5146484 4.7958984 4.4453125 9.9912109 7.671875 16.6352539 8.4042969 6.4628906.7119141 12.3310547-1.3662109 18.1035156-4.046875 3.92173-1.8229828 12.1346283-7.5527267 21.4897461-.8183594-3.1542969 3.9697266-3.2304688 10.0341797.5478516 13.6972656.9306641.9033203 2.0429688 1.5751953 3.2446289 2.0185547-.7822266.7275391-1.3579102 1.7324219-1.5302734 3.0009766-.6674042 4.9183655 2.1247711 26.3711777.8129883 73.4990158-4.0219727.9707031-8.0371094 1.9511719-12.1352539 2.5585938-1.3520508.2001953-1.3305664 1.7148438-.5288086 2.4755859.2470703 10.1865234.5888672 20.3691406 1.2172852 30.5390625-.2597656.1630859-.4477539.4316406-.5551758.7412109-3.3017578 1.6347656-6.6035156 3.2695313-9.9052734 4.9052734-.4894485.2415771-1.0662384 1.2681427-1.1132813 1.3710938-.7890625 1.7265625-1.6206055 3.4335938-2.4189453 5.1552734-.668457-.1123047-1.3583984-.2011719-2.0253906-.1376953-.5665588.0550537-1.5636597.5015869-1.7163086 1.3710938-.5610352 3.2080078-1.9838867 6.2890625-3.6240234 9.0800781-.5847778.9963531.2655411 2.1867676.9921875 2.4902344 7.8862305 3.3007813 15.9282227 6.203125 23.8144531 9.5039063.5316162.2221375 1.4081726.032547 2.2460938-.0644531 9.2436523 2.6621094 18.0473633 5.8466797 27.3359375 8.4550781.1058044-.0171814 33.9840393-5.8760529 35.1689453-6.5068359-3.7333984-2.8447266-7.5932617-6.0136719-11.3676758-8.9628906.4394531-.0722656.8793945-.140625 1.3188477-.2128906 1.0339813-.1719666 1.7432709-1.8450623 1.1821289-2.7353516-1.6699219-2.6494141-3.4384766-5.1884766-4.9311523-7.9511719-.2222595-.4112396-1.2868195-1.3516541-2.0405273-1.2841797-1.5224609.1347656-3.0444336.2705078-4.5664063.4052734-3.5620728-6.7830505-2.8628235-5.46315-3.0024414-5.6904297-.0175781-.5849609-.3256836-1.1669922-1.0166016-1.4199219-2.1264648-.7792969-4.3588867-1.0791016-6.6098633-.9238281-1.8722382-7.3041382-1.7355804-6.9738312-2.0175781-7.3105469.0200195-9.3837891-.4082031-18.7617188-.3447266-28.1464844 0-.0087891-.0019531-.0166016-.0019531-.0253906 1.331543-.0869141 1.7358398-2.3867188.1777344-3-3.3062134-1.3006287-10.2371063-4.5653687-12.1152344-6.3271484-2.9015961-76.2526245-1.9002228-68.2409744-2.796875-72.4804611-.1938477-.9169922-.5786133-1.6416016-1.0703125-2.2138672 1.4731445-.4580078 2.8378906-1.2382813 3.9296875-2.3515625 2.5151367-2.5664063 3.2900391-6.5078125 2.3173828-9.9169922.8542175-.672905 7.7947998-11.4259033 19.0419922-8.9560547 11.6292725 4.6928101 18.6908875 20.6265106 37.5458984 1.5830078 3.140625-3.1708984 6.4287109-6.75 10.7617188-8.2539063 2.2373047-.7763672 7.0976563-1.5205078 10.2148438-.3671875-12.2089844 29.3056641-28.4599609 56.7558517-40.4399414 86.1689377-2.2579803 3.2423553 1.0796509 5.9794006 4.793457 7.3691406.8183594 4.1630859 5.8193359 6.1923828 9.3769531 7.5136719 15.7313995 5.8439178 42.1252289 5.5945587 57.6411133.2041016 3.8881836-1.3515625 9.8037109-3.4833984 10.3071289-8.2705078 3.6142578-1.6132813 5.7006836-3.8291016 3.7944336-6.84375-.0522461-.1464844-.1367188-.2890625-.2553711-.4257813-13.5498047-28.7353516-29.965332-56.2841721-40.1992188-86.4746017-.0175781-.0527344-.043457-.0957031-.0644531-.1435547.6200409-2.2813492-5.373703-12.7624893-15.6430664-10.3027382-9.9003906 2.3710938-14.0268555 13.4775429-23.2426758 16.8183632-11.0117188 3.9921875-18.5400391-9.0605469-28.6347656-10.9326172-7.0200195-1.3027344-14.1757813 1.2128906-19.012207 6.3076172-1.0556641-8.3251991-1.6171875-16.6943398-1.6708984-25.1142616-.0102539-1.6298828-2.6523438-2.1152344-2.9462891-.3984375-1.3466797 7.8603516-2.6928711 15.7207031-4.0395508 23.5810585-4.7783203-3.0996094-9.7617188-2.9462891-15.4248047-.8457031-9.3808594 3.4794922-17.8378906 9.9833984-28.3862305 7.8144531-5.3789063-1.1054688-9.3920898-4.1015625-13.3041992-7.7841797-2.7949219-2.6308594-5.7382813-5.4052734-9.4702148-6.6259804-7.6674805-2.5087891-13.8393517 3.0283241-18.3188438 8.5996132-.1329689.1652222-.5145569.9902878-.5488281 1.0996094-11.0043945 35.0927734-23.2734375 69.7724533-34.277832 104.8642502-.0810547.2597656-.0883789.4951172-.0483398.7089844-1.3378906 1.0498047-2.371582 2.34375-2.6699219 3.9726563-.542969 2.9648437 1.7255857 5.1396484 4.0986326 6.6142578zm62.5800743-18.2148438c-10.5927734-1.0976563-22.1914063-1.6435547-33.4921837-.6708984 2.3876953-30.8398438 1.1601563-61.7734299 6.1259766-92.3955002 16.3720665 32.2001953 31.7231407 64.9072189 48.0556602 97.1279221-6.6069335-2.3554688-13.7700195-3.3447266-20.6894531-4.0615235zm7.6757813 27.2910156c-8.6782227 2.1923828-17.7099609 3.0107422-26.644043 3.0107422-8.8398399 0-17.7871056-.7988281-26.3657188-3.0107422-3.4248047-.8828125-13.2788086-3.0498047-14.3886719-7.6005859 5.8779297 2.6914063 12.5791016 3.8095703 18.9033203 4.6787109 10.9199219 1.5 22.0302696 1.8007813 33.0297813 1.1933594 9.5961914-.5302734 19.659668-1.5351563 28.7734375-4.7773438.4082031-.1455078.8378906-.3017578 1.2758789-.4667969-1.8691406 4.1445313-11.2788085 6.1376954-14.5839843 6.9726563zm52.6542968-136.4248008c.4838867 6.5693398 1.2802734 13.1093788 2.3691406 19.6210976-1.8017578-.6650391-3.7758789-.7802734-5.6625977-.3945313 1.0976564-6.4091797 2.1953126-12.8173828 3.2934571-19.2265663zm5.7998047 116.5195274c2.1162109 1.3339844 4.3359375 2.5019531 6.6103516 3.5537109-5.3457031.9003906-10.6914063 1.7998047-16.0375977 2.6992188-.0410156-.0234375-.0756836-.0507813-.121582-.0712891-2.6513672-1.2285156-5.2807617-2.5029297-7.9150391-3.7675781 2.1206055-.4521484 4.2319336-.9482422 6.3417969-1.4570313 1.6348114 4.7385865 9.7331543 4.327652 11.1220703-.9570312zm-21.1230468 3.9833984c3.1503906 1.4882813 6.2802734 3.0175781 9.4375 4.4912109.5649414 9.6865234.3652344 19.3886719.074707 29.0820313-2.7749023-1.1123047-5.550293-2.2246094-8.3251953-3.3369141.1439056-.8283233-.5779267-5.7291564-1.1870117-30.2363281zm12.5112304 33.5986329c.2841797-9.4765625.4775391-18.9609375-.0405273-28.4326172 5.8417969-.9824219 11.684082-1.9658203 17.5263672-2.9492188-.0458984 9.6025391.409668 19.1982422.3476563 28.8007813-5.979004.6367187-11.9204102 1.4970703-17.8334962 2.5810547zm-29.3393554 11.0009765c.0952148.0087891.1899414.0175781.2851563.0283203 1.4857025.2285767 1.7666321.5211945 2.2763672.3203125.6923828-.2705078 1.2680664-1.0234375 1.0834961-1.7724609.0063477-.0146484.0131836-.0283203.0200195-.0419922 4.4887695 2.8417969 9.3071289 4.9960938 14.418457 6.4570313-.065918.1513672-.1166992.3164063-.1328125.5058594-.3041992 3.53125-.2529297 7.0390625.1171875 10.5537109-6.9936523-2.8876953-14.0883789-5.515625-21.0854492-8.3955078 1.309082-2.3984375 2.4316406-5 3.0175781-7.6552735zm62.5151367 3.5986328c1.4838867-.1318359 2.9677734-.2636719 4.4511719-.3955078 1.1918945 2.1728516 2.5424805 4.2177734 3.8803711 6.2880859-16.5336914 2.7119141-33.112793 4.8896484-49.7519531 6.8291016-.3969727-3.5996094-.4555664-7.1914063-.1450195-10.8076172 12.7729492-.3964844 25.4331055-1.8808594 37.9536133-4.4423828.2626953-.0537109.4682617-.1591797.6313477-.2939453.3544922.6748047.7094727 1.3496094 1.0639648 2.0253906.2402495.4571839.7066039.9085694 1.9165038.796875zm-10.8427735-8.0380859c1.8901367-.1904297 3.6850586-.0029297 5.4697266.5322266.0696259.308197.094635.3083038 1.0244141 2.078125-12.1196136 2.2548218-22.2417908 3.9010773-37.5336914 4.3544922-.4926453.0158386-7.9827881-1.7993927-15.6845703-6.7275391.9697647-2.0403748 1.1438828-2.4015045 1.1992188-2.6494141 6.8645172-3.3986511 9.8578339-4.8655853 10.0776367-5.0166016 3.3442383 1.3408203 6.6889648 2.6806641 10.0332031 4.0214844-.9936523 1.6972656-2.1333008 3.2558594-3.3745117 4.8212891-1.1865234 1.4970703.9223633 3.6347656 2.121582 2.1210938 1.0116119-1.2760925 4.3609467-5.6461792 4.7167969-7.1289063 6.1435547-1.1376953 12.315918-2.0361328 18.534668-2.6699219.4423828 1.7265625.8852539 3.4541016 1.3276367 5.1816406.2432403.9509125 1.0626067 1.1837616 2.0878905 1.0820313zm-16.6752929-44.8271484c-.359375 1.1220703-2.3789063 2.3408203-3.6259766 1.7675781-3.4437256-1.5829163-.1572418-7.5299988-2.4267578-68.5292892-.0883789-2.3818359-.8330078-5.5898438.4609375-7.6777344 1.0480499-1.6915817 1.678772-2.5229797 2.7426758-.4345703.609375 1.1962891.1538086 4.0488281.2041016 5.3662109.7999267 21.0270615 2.5988006 68.2925339 2.6450195 69.5078049zm.8271484-82.172844c-2.4868164 2.5439453-7.1899414 2.6679688-9.7646484.1757813-2.946106-2.8515701-2.4376068-7.8937531-.043457-10.0322266 2.6782227-2.3847656 7.1601563-2.5273438 9.765625.0908203 2.5283203 2.5419922 2.5483398 7.2021485.0424804 9.765625zm85.3251953 29.975586c.0009766.0146484.0053711.0263672.0063477.0400391-.9643555.8105469-1.7773438 1.7197266-2.3344727 2.6943359-2.4394531-2.6621094-4.8286133-5.1904297-8.8178711-5.6796875-4.7050781-.5761719-9.6357422 1.7402344-12.2539063 5.6728516-5.2988281 7.9599533-1.6943359 16.212883 3.8974609 22.7275314-5.9477539-.1796875-13.9760742 1.1728516-19.6713867 3.6679688 11.3110352-26.7568283 25.878418-52.0195236 37.3266602-78.7158127.2182618 16.5644531.8168946 33.0410156 1.847168 49.5927734zm2.2602539 35.1132736c-1.8496094 1.015625-1.8774414 1.3427734-4.1210938.5830078-3.6572723-1.2367401-18.0136108-11.6389313-20.4067383-20.5449219-1.6196289-6.0283203.7548828-13.3154221 7.3657227-14.9013596 6.222168-1.4931641 9.065918 3.4736252 12.8754883 7.1523361 1.1733398 1.1318359 3.4106445-.4042969 2.355957-1.8183594-.1298828-.1738281-.2597656-.3486328-.3901367-.5224609.5214844-2.3349533 5.3955078-5.0087814 6.9345703-5.4912033 7.9868774-2.4964981 16.9804077 3.6434708 16.8457031 12.5283127-.1733092 11.4168549-11.3097076 17.4352875-21.4594726 23.0146485zm18.5541992-9.3789063c6.003418-7.1113281 8.7509766-17.1865234 1.4916992-24.7578049-3.6875-3.8466797-9.1503906-5.5966797-14.4038086-4.7275391-1.4287109.2363281-3.2548828.8935547-5.0078125 1.8476563-.9091797-15.0605469-1.4663086-30.0673828-1.7021484-45.1357422 9.78125 26.2958984 23.7910156 50.7763596 35.9755859 76.0136642-4.6137084-1.9803618-13.4891662-3.0924682-16.3535156-3.2402343zm1.9282227 20.194336c-13.9450989 3.5419617-32.9132538 3.5233612-46.5488281 0-2.4584961-.6347656-9.3305664-2.1591797-11.5546875-5.09375 22.693222 5.3325195 55.8666382 3.9550781 70.2607422-.3603516-1.9516602 3.203125-9.5024414 4.7802734-12.1572266 5.4541016zm-83.6967773-100.0117111c6.3261719 3.4345703 11.5161133 9.5898438 19.21875 9.765625 6.737793.1542969 11.9130859-4.6074219 16.3583984-9.0957031 3.1401367-3.1708984 6.4282227-6.75 10.7607422-8.2539101 5.1435547-1.7851563 10.1733398.4677734 12.5136719 4.9668007-.0087891.0224609-.0185547.0439453-.0273438.0654297-3.2290039-1.2636719-7.4804688-.8613281-10.8027344-.0654297-9.9003906 2.3710938-14.0268555 13.4775391-23.2426758 16.8183594-11.0117188 3.9921875-18.5395508-9.0605469-28.6347656-10.9326172-6.9633789-1.2919922-14.059082 1.1738281-18.8935547 6.1855469-.2392578-1.4296875-.4628906-2.8613281-.671875-4.2949219.4297486-.2774811 10.0478974-12.4198228 23.4213868-5.1591797zm-91.2353516 1.2578125c4.7958984 4.4453125 9.9912109 7.671875 16.6347656 8.4042969 6.4633789.7119141 12.331543-1.3662109 18.1035156-4.046875 7.4223633-3.4482422 15.8710938-8.8955078 23.3344727-2.9765625-.3017578 1.7626953-.6035156 3.5253906-.9057617 5.2871094-14.0766602-9.4628906-28.7304688 9.4980469-44.144043 6.328125-5.3789063-1.1054688-9.3920898-4.1015625-13.3041992-7.7841797-6.022377-5.668869-12.9017029-10.0628891-21.517086-6.6171875 8.2119178-9.1306611 13.9415855-5.875435 21.798336 1.4052734zm-29.192379 17.640625c-2.9628906 26.6660156-2.3618164 53.5126877-4.4624023 80.3007736-7.2739258.8115234-14.3745117 2.2978516-20.9462891 4.7294922-.8754883.3242188-1.8833008.7060547-2.9042969 1.1640625 9.0917969-28.84375 18.9887695-57.4257737 28.3129883-86.1943283z"/><path d="m146.6664734 89.0977707c-.5727539-.5732422-1.5483398-.5732422-2.1210938 0-.574707.5742188-.574707 1.546875 0 2.1210938.0898438.0898438.1796875.1796875.2695313.2695313.5727539.5732422 1.5483398.5732422 2.121582 0 .574707-.5742188.5742188-1.546875 0-2.1210938-.090332-.0898438-.1801758-.1796876-.2700195-.2695313z"/></g></g></svg>