<svg id="圖層_1" data-name="圖層 1" xmlns="http://www.w3.org/2000/svg" viewBox="0 0 1280 1280"><path d="M643.06,663.57C924,663.57,924,587.92,924,494.6s0-169-280.94-169-280.93,75.65-280.93,169S362.13,663.57,643.06,663.57Zm-276-169c0-48.51,53-87.84,276-87.84,225.23,0,276,39.33,276,87.84s-50.77,87.85-276,87.85C420.06,582.45,367.07,543.12,367.07,494.6Z"/><path d="M693.49,492.4c-27.36-1.62-49.06-25-49.06-53.72H641.7c0,28.67-21.71,52.1-49.07,53.72h-107v4.41h107c27.36,1.62,49.06,25.05,49.06,53.72h2.73c0-28.67,21.7-52.1,49.05-53.72h107V492.4Z"/><path d="M916.55,792.9h25.59v-4.21c-46.94,0-85-24.09-85-53.82H852.7c0,29.41-37.26,53.31-83.52,53.81.27-29.51,25.11-53.35,55.72-53.35v-4.21c-30.78,0-55.73-24.1-55.73-53.82h-2.91c0,29.72-25,53.82-55.74,53.82H577.82c-30.78,0-55.73-24.1-55.73-53.82h-2.92c0,29.72-24.95,53.82-55.73,53.82v4.21c30.62,0,55.46,23.84,55.72,53.35-46.26-.5-83.52-24.4-83.52-53.81h-4.45c0,29.73-38.05,53.82-85,53.82v4.21H613.35s71,0,81.11,31.19C702.19,847.9,677,863,670,866.66l-1.69.85h0a797.78,797.78,0,0,0-70.48,40.08c-71.65,45.73-105.79-18.93-116.73-47.16a67.48,67.48,0,0,0-4-12l0-.1h0a68.4,68.4,0,1,0-98,86.35h0l.32.18a68.47,68.47,0,0,0,13.33,6.17c30.56,12.14,109.3,32.37,204.86-28.29,165-104.74,193.34-23.24,196.52-11.2.11.46.21.93.33,1.4v0h0A68.41,68.41,0,1,0,898,828.47h0l-.12-.06c-.92-.6-1.86-1.18-2.81-1.73-4.69-3.25-13-10.81-9.1-21.7C890.3,792.9,909.89,792.9,916.55,792.9Zm-206-57.57A56.67,56.67,0,0,1,746.44,748a26.39,26.39,0,0,1,3.92,13.89v.23a26.57,26.57,0,0,1-26.57,26.56H564.55A26.57,26.57,0,0,1,538,762.13v-.23A26.48,26.48,0,0,1,541.9,748a56.67,56.67,0,0,1,35.92-12.68Z"/></svg>