<?xml version="1.0" encoding="utf-8"?>
<!-- Generator: Adobe Illustrator 28.1.0, SVG Export Plug-In . SVG Version: 6.00 Build 0)  -->
<svg version="1.1" id="圖層_1" xmlns="http://www.w3.org/2000/svg" xmlns:xlink="http://www.w3.org/1999/xlink" x="0px" y="0px"
	 viewBox="0 0 1280 1280" style="enable-background:new 0 0 1280 1280;" xml:space="preserve">
<style type="text/css">
	.st0{fill:url(#SVGID_1_);}
	.st1{fill:url(#SVGID_00000002384864408509005180000004607007232991914139_);}
	.st2{fill:url(#SVGID_00000075869002528052602690000006141072768457274247_);}
</style>
<linearGradient id="SVGID_1_" gradientUnits="userSpaceOnUse" x1="341.2987" y1="1239.5977" x2="1257.1168" y2="266.547" gradientTransform="matrix(1 0 0 -1 0 1280.3937)">
	<stop  offset="0.1" style="stop-color:#BFDCD0"/>
	<stop  offset="0.9" style="stop-color:#31B1B3"/>
</linearGradient>
<path class="st0" d="M642,685.4c540.5,0,540.5-145.5,540.5-325.1s0-325.1-540.5-325.1S101.6,180.8,101.6,360.3
	S101.6,685.4,642,685.4z M111.1,360.3c0-93.3,102-169,531-169c433.3,0,531,75.7,531,169s-97.7,169-531,169
	C213,529.3,111.1,453.7,111.1,360.3L111.1,360.3z"/>
<linearGradient id="SVGID_00000092439567233708372510000015635271644869866392_" gradientUnits="userSpaceOnUse" x1="341.2784" y1="1239.5786" x2="1257.0966" y2="266.5279" gradientTransform="matrix(1 0 0 -1 0 1280.3937)">
	<stop  offset="0.1" style="stop-color:#BFDCD0"/>
	<stop  offset="0.9" style="stop-color:#31B1B3"/>
</linearGradient>
<path style="fill:url(#SVGID_00000092439567233708372510000015635271644869866392_);" d="M739.1,356.1
	c-52.6-3.1-94.4-48.1-94.4-103.3h-5.3c0,55.2-41.8,100.2-94.4,103.3H339.2v8.5H545c52.6,3.1,94.4,48.2,94.4,103.3h5.3
	c0-55.2,41.7-100.2,94.4-103.3h205.8v-8.5H739.1z"/>
<linearGradient id="SVGID_00000081631667524466396690000002302436643796079489_" gradientUnits="userSpaceOnUse" x1="5.0374" y1="923.1096" x2="920.8555" y2="-49.941" gradientTransform="matrix(1 0 0 -1 0 1280.3937)">
	<stop  offset="0.1" style="stop-color:#BFDCD0"/>
	<stop  offset="0.9" style="stop-color:#31B1B3"/>
</linearGradient>
<path style="fill:url(#SVGID_00000081631667524466396690000002302436643796079489_);" d="M1168.2,934.2h49.2v-8.1
	c-90.3,0-163.5-46.3-163.5-103.5h-8.5c0,56.6-71.7,102.6-160.7,103.5c0.5-56.8,48.3-102.6,107.2-102.6v-8.1
	c-59.2,0-107.2-46.4-107.2-103.5H879c0,57.2-48.1,103.5-107.2,103.5H516.5c-59.2,0-107.2-46.4-107.2-103.5h-5.6
	c0,57.2-48,103.5-107.2,103.5v8.1c58.9,0,106.7,45.9,107.2,102.6c-89-1-160.7-46.9-160.7-103.5h-8.6c0,57.2-73.2,103.5-163.5,103.5
	v8.1h514c0,0,136.6,0,156,60c14.9,45.8-33.6,74.9-47.1,81.9l-3.3,1.6l0,0c-46.5,23.4-91.7,49.1-135.6,77.1
	c-137.8,88-203.5-36.4-224.6-90.7c-1.8-7.9-4.4-15.6-7.7-23.1v-0.2l0,0c-29.7-66.3-107.5-96.1-173.8-66.4
	c-66.3,29.7-96.1,107.5-66.4,173.8c10.9,24.4,28.9,44.8,51.7,58.7l0,0l0.6,0.3c8.1,4.9,16.7,8.8,25.6,11.9
	c58.8,23.4,210.3,62.3,394.1-54.4c317.4-201.5,371.9-44.7,378.1-21.5c0.2,0.9,0.4,1.8,0.6,2.7l0,0l0,0
	c18.2,70.4,90,112.7,160.4,94.5c70.4-18.2,112.7-90,94.5-160.4c-8.2-31.8-28.1-59.4-55.6-77.4l0,0l-0.2-0.1
	c-1.8-1.2-3.6-2.3-5.4-3.3c-9-6.3-25-20.8-17.5-41.7C1117.7,934.2,1155.4,934.2,1168.2,934.2z M771.9,823.5
	c25.1-0.1,49.5,8.5,69,24.4c4.9,8,7.6,17.3,7.5,26.7v0.4c0,28.2-22.9,51.1-51.1,51.1H491c-28.2,0-51.1-22.9-51.1-51.1v-0.4
	c0-9.4,2.6-18.7,7.5-26.7c19.5-15.9,43.9-24.5,69.1-24.4L771.9,823.5z"/>
</svg>
